<?xml version="1.0" encoding="us-ascii" standalone="no"?><svg xmlns="http://www.w3.org/2000/svg" xmlns:xlink="http://www.w3.org/1999/xlink" contentStyleType="text/css" height="509px" preserveAspectRatio="none" style="width:830px;height:509px;background:#FFFFFF;" version="1.1" viewBox="0 0 830 509" width="830px" zoomAndPan="magnify"><defs/><g><!--class Repositories--><g id="elem_Repositories"><rect codeLine="5" fill="#F1F1F1" height="97.4648" id="Repositories" rx="2.5" ry="2.5" style="stroke:#181818;stroke-width:0.5;" width="212" x="7" y="348"/><ellipse cx="66.25" cy="364" fill="#ADD1B2" rx="11" ry="11" style="stroke:#181818;stroke-width:1.0;"/><path d="M69.2231,369.6431 Q68.6421,369.9419 68.0029,370.0913 Q67.3638,370.2407 66.6582,370.2407 Q64.1514,370.2407 62.8315,368.5889 Q61.5117,366.937 61.5117,363.8159 Q61.5117,360.6865 62.8315,359.0347 Q64.1514,357.3828 66.6582,357.3828 Q67.3638,357.3828 68.0112,357.5322 Q68.6587,357.6816 69.2231,357.9805 L69.2231,360.7031 Q68.5923,360.1221 67.9988,359.8523 Q67.4053,359.5825 66.7744,359.5825 Q65.4297,359.5825 64.7449,360.6492 Q64.0601,361.7158 64.0601,363.8159 Q64.0601,365.9077 64.7449,366.9744 Q65.4297,368.041 66.7744,368.041 Q67.4053,368.041 67.9988,367.7712 Q68.5923,367.5015 69.2231,366.9204 Z " fill="#000000"/><text fill="#000000" font-family="sans-serif" font-size="14" lengthAdjust="spacing" textLength="85" x="86.75" y="369.291">Repositories</text><line style="stroke:#181818;stroke-width:0.5;" x1="8" x2="218" y1="380" y2="380"/><line style="stroke:#181818;stroke-width:0.5;" x1="8" x2="218" y1="388" y2="388"/><rect fill="#F24D5C" height="6" style="stroke:#C82930;stroke-width:1.0;" width="6" x="15" y="398.7441"/><text fill="#000000" font-family="sans-serif" font-size="14" lengthAdjust="spacing" textLength="95" x="27" y="405.5352">Repositories()</text><ellipse cx="18" cy="418.2324" fill="#84BE84" rx="3" ry="3" style="stroke:#038048;stroke-width:1.0;"/><text fill="#000000" font-family="sans-serif" font-size="14" lengthAdjust="spacing" textLength="186" x="27" y="422.0234">getInstance() : Repositories</text><ellipse cx="18" cy="434.7207" fill="#84BE84" rx="3" ry="3" style="stroke:#038048;stroke-width:1.0;"/><text fill="#000000" font-family="sans-serif" font-size="14" lengthAdjust="spacing" textLength="136" x="27" y="438.5117">getUserRepository()</text></g><!--class RegisterUserController--><g id="elem_RegisterUserController"><rect codeLine="11" fill="#F1F1F1" height="97.4648" id="RegisterUserController" rx="2.5" ry="2.5" style="stroke:#181818;stroke-width:0.5;" width="398" x="123" y="116"/><ellipse cx="239.25" cy="132" fill="#ADD1B2" rx="11" ry="11" style="stroke:#181818;stroke-width:1.0;"/><path d="M242.2231,137.6431 Q241.6421,137.9419 241.0029,138.0913 Q240.3638,138.2407 239.6582,138.2407 Q237.1514,138.2407 235.8315,136.5889 Q234.5117,134.937 234.5117,131.8159 Q234.5117,128.6865 235.8315,127.0347 Q237.1514,125.3828 239.6582,125.3828 Q240.3638,125.3828 241.0112,125.5322 Q241.6587,125.6816 242.2231,125.9805 L242.2231,128.7031 Q241.5923,128.1221 240.9988,127.8523 Q240.4053,127.5825 239.7744,127.5825 Q238.4297,127.5825 237.7449,128.6492 Q237.0601,129.7158 237.0601,131.8159 Q237.0601,133.9077 237.7449,134.9744 Q238.4297,136.041 239.7744,136.041 Q240.4053,136.041 240.9988,135.7712 Q241.5923,135.5015 242.2231,134.9204 Z " fill="#000000"/><text fill="#000000" font-family="sans-serif" font-size="14" lengthAdjust="spacing" textLength="157" x="259.75" y="137.291">RegisterUserController</text><line style="stroke:#181818;stroke-width:0.5;" x1="124" x2="520" y1="148" y2="148"/><line style="stroke:#181818;stroke-width:0.5;" x1="124" x2="520" y1="156" y2="156"/><ellipse cx="134" cy="169.7441" fill="#84BE84" rx="3" ry="3" style="stroke:#038048;stroke-width:1.0;"/><text fill="#000000" font-family="sans-serif" font-size="14" lengthAdjust="spacing" textLength="270" x="143" y="173.5352">RegisterUserController(userRepository)</text><ellipse cx="134" cy="194.4766" fill="#84BE84" rx="3" ry="3" style="stroke:#038048;stroke-width:1.0;"/><text fill="#000000" font-family="sans-serif" font-size="14" lengthAdjust="spacing" textLength="372" x="143" y="190.0234">registerUser(name, passportCardNumber, taxNumber,</text><text fill="#000000" font-family="sans-serif" font-size="14" lengthAdjust="spacing" textLength="333" x="147" y="206.5117">location, phoneNumber, emailAdress, password)</text></g><!--class RegisterUserUI--><g id="elem_RegisterUserUI"><rect codeLine="16" fill="#F1F1F1" height="48" id="RegisterUserUI" rx="2.5" ry="2.5" style="stroke:#181818;stroke-width:0.5;" width="133" x="255.5" y="7"/><ellipse cx="270.5" cy="23" fill="#ADD1B2" rx="11" ry="11" style="stroke:#181818;stroke-width:1.0;"/><path d="M273.4731,28.6431 Q272.8921,28.9419 272.2529,29.0913 Q271.6138,29.2407 270.9082,29.2407 Q268.4014,29.2407 267.0815,27.5889 Q265.7617,25.937 265.7617,22.8159 Q265.7617,19.6865 267.0815,18.0347 Q268.4014,16.3828 270.9082,16.3828 Q271.6138,16.3828 272.2612,16.5322 Q272.9087,16.6816 273.4731,16.9805 L273.4731,19.7031 Q272.8423,19.1221 272.2488,18.8523 Q271.6553,18.5825 271.0244,18.5825 Q269.6797,18.5825 268.9949,19.6492 Q268.3101,20.7158 268.3101,22.8159 Q268.3101,24.9077 268.9949,25.9744 Q269.6797,27.041 271.0244,27.041 Q271.6553,27.041 272.2488,26.7712 Q272.8423,26.5015 273.4731,25.9204 Z " fill="#000000"/><text fill="#000000" font-family="sans-serif" font-size="14" lengthAdjust="spacing" textLength="101" x="284.5" y="28.291">RegisterUserUI</text><line style="stroke:#181818;stroke-width:0.5;" x1="256.5" x2="387.5" y1="39" y2="39"/><line style="stroke:#181818;stroke-width:0.5;" x1="256.5" x2="387.5" y1="47" y2="47"/></g><!--class UserRepository--><g id="elem_UserRepository"><rect codeLine="18" fill="#F1F1F1" height="48" id="UserRepository" rx="2.5" ry="2.5" style="stroke:#181818;stroke-width:0.5;" width="136" x="254" y="372.5"/><ellipse cx="269" cy="388.5" fill="#ADD1B2" rx="11" ry="11" style="stroke:#181818;stroke-width:1.0;"/><path d="M271.9731,394.1431 Q271.3921,394.4419 270.7529,394.5913 Q270.1138,394.7407 269.4082,394.7407 Q266.9014,394.7407 265.5815,393.0889 Q264.2617,391.437 264.2617,388.3159 Q264.2617,385.1865 265.5815,383.5347 Q266.9014,381.8828 269.4082,381.8828 Q270.1138,381.8828 270.7612,382.0322 Q271.4087,382.1816 271.9731,382.4805 L271.9731,385.2031 Q271.3423,384.6221 270.7488,384.3523 Q270.1553,384.0825 269.5244,384.0825 Q268.1797,384.0825 267.4949,385.1492 Q266.8101,386.2158 266.8101,388.3159 Q266.8101,390.4077 267.4949,391.4744 Q268.1797,392.541 269.5244,392.541 Q270.1553,392.541 270.7488,392.2712 Q271.3423,392.0015 271.9731,391.4204 Z " fill="#000000"/><text fill="#000000" font-family="sans-serif" font-size="14" lengthAdjust="spacing" textLength="104" x="283" y="393.791">UserRepository</text><line style="stroke:#181818;stroke-width:0.5;" x1="255" x2="389" y1="404.5" y2="404.5"/><line style="stroke:#181818;stroke-width:0.5;" x1="255" x2="389" y1="412.5" y2="412.5"/></g><!--class User--><g id="elem_User"><rect codeLine="22" fill="#F1F1F1" height="212.8828" id="User" rx="2.5" ry="2.5" style="stroke:#181818;stroke-width:0.5;" width="398" x="425" y="290"/><ellipse cx="604.25" cy="306" fill="#ADD1B2" rx="11" ry="11" style="stroke:#181818;stroke-width:1.0;"/><path d="M607.2231,311.6431 Q606.6421,311.9419 606.0029,312.0913 Q605.3638,312.2407 604.6582,312.2407 Q602.1514,312.2407 600.8315,310.5889 Q599.5117,308.937 599.5117,305.8159 Q599.5117,302.6865 600.8315,301.0347 Q602.1514,299.3828 604.6582,299.3828 Q605.3638,299.3828 606.0112,299.5322 Q606.6587,299.6816 607.2231,299.9805 L607.2231,302.7031 Q606.5923,302.1221 605.9988,301.8523 Q605.4053,301.5825 604.7744,301.5825 Q603.4297,301.5825 602.7449,302.6492 Q602.0601,303.7158 602.0601,305.8159 Q602.0601,307.9077 602.7449,308.9744 Q603.4297,310.041 604.7744,310.041 Q605.4053,310.041 605.9988,309.7712 Q606.5923,309.5015 607.2231,308.9204 Z " fill="#000000"/><text fill="#000000" font-family="sans-serif" font-size="14" lengthAdjust="spacing" textLength="31" x="624.75" y="311.291">User</text><line style="stroke:#181818;stroke-width:0.5;" x1="426" x2="822" y1="322" y2="322"/><rect fill="none" height="6" style="stroke:#C82930;stroke-width:1.0;" width="6" x="433" y="332.7441"/><text fill="#000000" font-family="sans-serif" font-size="14" lengthAdjust="spacing" textLength="87" x="445" y="339.5352">name: String</text><rect fill="none" height="6" style="stroke:#C82930;stroke-width:1.0;" width="6" x="433" y="349.2324"/><text fill="#000000" font-family="sans-serif" font-size="14" lengthAdjust="spacing" textLength="103" x="445" y="356.0234">taxNumber: int</text><rect fill="none" height="6" style="stroke:#C82930;stroke-width:1.0;" width="6" x="433" y="365.7207"/><text fill="#000000" font-family="sans-serif" font-size="14" lengthAdjust="spacing" textLength="174" x="445" y="372.5117">passportCardNumber: int</text><rect fill="none" height="6" style="stroke:#C82930;stroke-width:1.0;" width="6" x="433" y="382.209"/><text fill="#000000" font-family="sans-serif" font-size="14" lengthAdjust="spacing" textLength="104" x="445" y="389">location: String</text><rect fill="none" height="6" style="stroke:#C82930;stroke-width:1.0;" width="6" x="433" y="398.6973"/><text fill="#000000" font-family="sans-serif" font-size="14" lengthAdjust="spacing" textLength="142" x="445" y="405.4883">emailAddress: String</text><rect fill="none" height="6" style="stroke:#C82930;stroke-width:1.0;" width="6" x="433" y="415.1855"/><text fill="#000000" font-family="sans-serif" font-size="14" lengthAdjust="spacing" textLength="93" x="445" y="421.9766">phone: String</text><rect fill="none" height="6" style="stroke:#C82930;stroke-width:1.0;" width="6" x="433" y="431.6738"/><text fill="#000000" font-family="sans-serif" font-size="14" lengthAdjust="spacing" textLength="115" x="445" y="438.4648">password: String</text><line style="stroke:#181818;stroke-width:1.0;" x1="426" x2="822" y1="445.418" y2="445.418"/><ellipse cx="436" cy="467.4063" fill="#84BE84" rx="3" ry="3" style="stroke:#038048;stroke-width:1.0;"/><text fill="#000000" font-family="sans-serif" font-size="14" lengthAdjust="spacing" textLength="372" x="445" y="462.9531">registerUser(name, passportCardNumber, taxNumber,</text><text fill="#000000" font-family="sans-serif" font-size="14" lengthAdjust="spacing" textLength="333" x="449" y="479.4414">location, phoneNumber, emailAdress, password)</text><text fill="#000000" font-family="sans-serif" font-size="14" lengthAdjust="spacing" textLength="4" x="445" y="495.9297">&#160;</text></g><!--link RegisterUserUI to RegisterUserController--><g id="link_RegisterUserUI_RegisterUserController"><path codeLine="39" d="M322,55.21 C322,70.24 322,90.48 322,109.4 " fill="none" id="RegisterUserUI-to-RegisterUserController" style="stroke:#181818;stroke-width:1.0;stroke-dasharray:7.0,7.0;"/><polygon fill="#181818" points="322,114.24,326,105.24,322,109.24,318,105.24,322,114.24" style="stroke:#181818;stroke-width:1.0;"/></g><!--link RegisterUserController to Repositories--><g id="link_RegisterUserController_Repositories"><path codeLine="41" d="M269.62,213.26 C252.13,229.21 237,243 237,243 C237,243 191.81,298.58 155.99,342.63 " fill="none" id="RegisterUserController-to-Repositories" style="stroke:#181818;stroke-width:1.0;stroke-dasharray:7.0,7.0;"/><polygon fill="#181818" points="152.85,346.49,161.6378,342.0432,156.01,342.6151,155.438,336.9873,152.85,346.49" style="stroke:#181818;stroke-width:1.0;"/><text fill="#000000" font-family="sans-serif" font-size="13" lengthAdjust="spacing" textLength="75" x="238" y="256.5684">repositories</text></g><!--link Repositories to UserRepository--><g id="link_Repositories_UserRepository"><path codeLine="43" d="M219.13,396.5 C229.93,396.5 240.52,396.5 247.05,396.5 " fill="none" id="Repositories-to-UserRepository" style="stroke:#181818;stroke-width:1.0;"/><polygon fill="#181818" points="252.03,396.5,243.03,392.5,247.03,396.5,243.03,400.5,252.03,396.5" style="stroke:#181818;stroke-width:1.0;"/><text fill="#000000" font-family="sans-serif" font-size="13" lengthAdjust="spacing" textLength="8" x="238.0676" y="393.3109">1</text></g><!--link RegisterUserController to UserRepository--><g id="link_RegisterUserController_UserRepository"><path codeLine="45" d="M322,213.44 C322,259.36 322,327.21 322,365.8 " fill="none" id="RegisterUserController-to-UserRepository" style="stroke:#181818;stroke-width:1.0;stroke-dasharray:7.0,7.0;"/><polygon fill="#181818" points="322,370.68,326,361.68,322,365.68,318,361.68,322,370.68" style="stroke:#181818;stroke-width:1.0;"/><text fill="#000000" font-family="sans-serif" font-size="13" lengthAdjust="spacing" textLength="94" x="323" y="256.5684">userRepository</text></g><!--link UserRepository to User--><g id="link_UserRepository_User"><path codeLine="47" d="M390.26,396.5 C402.04,396.5 412.32,396.5 418.58,396.5 " fill="none" id="UserRepository-to-User" style="stroke:#181818;stroke-width:1.0;"/><polygon fill="#181818" points="423.26,396.5,414.26,392.5,418.26,396.5,414.26,400.5,423.26,396.5" style="stroke:#181818;stroke-width:1.0;"/><text fill="#000000" font-family="sans-serif" font-size="13" lengthAdjust="spacing" textLength="6" x="410.8704" y="393.7837">*</text></g><!--link RegisterUserController to User--><g id="link_RegisterUserController_User"><path codeLine="49" d="M386.39,213.48 C407.66,229.33 426,243 426,243 C426,243 450.05,261.53 481.39,285.66 " fill="none" id="RegisterUserController-to-User" style="stroke:#181818;stroke-width:1.0;stroke-dasharray:7.0,7.0;"/><polygon fill="#181818" points="485.28,288.66,480.5882,280.0005,481.3179,285.6101,475.7083,286.3398,485.28,288.66" style="stroke:#181818;stroke-width:1.0;"/><text fill="#000000" font-family="sans-serif" font-size="13" lengthAdjust="spacing" textLength="27" x="447" y="256.5684">user</text></g><!--SRC=[lLAxRiCm3Dpr5KGcfua3TFKGeCYK9KE3R5rKctM4o991oaYDeFzU-HdBHTgjMcpT7SaZARueKqgI1PGolSWSZwxM28IfaoRNA7WKy5bczgfC3XzIyvJHog2hIuJIwhgv295goGolM5fMpf92Xfi0V-80Z9Ojk88StTwmhvbYj8Ga4Dqb9qOQcTe7VzqhvOeTKgFOMUF8QetKrrmzeACgo3TueOauChB0jHyESsd9xIHbXwfuHrg3av_zxvi1RLFfb3LUUhO61mqMKkcNZ92vItArb3smVThVHZnirBSX0geVPUCjWQCZlvGE6Jqbe8phi9_U9-JWEqpJssvzXqpRtGpgsmhHkFtyopIRsJGd72PiDji7Um-ba-VIXKpUREBjJnwY2CXu2uldnMnNl-QUhJM1QXOx4pGLdheAV-RjiudXV0C0]--></g></svg>