<?xml version="1.0" encoding="us-ascii" standalone="no"?><svg xmlns="http://www.w3.org/2000/svg" xmlns:xlink="http://www.w3.org/1999/xlink" contentStyleType="text/css" height="716px" preserveAspectRatio="none" style="width:607px;height:716px;background:#FFFFFF;" version="1.1" viewBox="0 0 607 716" width="607px" zoomAndPan="magnify"><defs/><g><text fill="#000000" font-family="sans-serif" font-size="14" font-weight="bold" lengthAdjust="spacing" textLength="284" x="163.25" y="30.1074">US008 - System Sequence Diagram (SSD)</text><rect fill="#FFFFFF" height="490.9961" style="stroke:#181818;stroke-width:1.0;" width="10" x="46.5" y="133.2422"/><rect fill="#FFFFFF" height="31.291" style="stroke:#181818;stroke-width:1.0;" width="10" x="544.5" y="156.5332"/><rect fill="#FFFFFF" height="83.873" style="stroke:#181818;stroke-width:1.0;" width="10" x="544.5" y="219.1152"/><rect fill="#FFFFFF" height="31.291" style="stroke:#181818;stroke-width:1.0;" width="10" x="544.5" y="334.2793"/><rect fill="#FFFFFF" height="31.291" style="stroke:#181818;stroke-width:1.0;" width="10" x="544.5" y="396.8613"/><rect fill="#FFFFFF" height="79.2129" style="stroke:#181818;stroke-width:1.0;" width="10" x="544.5" y="459.4434"/><rect fill="#FFFFFF" height="31.291" style="stroke:#181818;stroke-width:1.0;" width="10" x="544.5" y="569.9473"/><rect fill="none" height="382.123" style="stroke:#000000;stroke-width:1.5;" width="591.5" x="10" y="234.1152"/><rect fill="none" height="348.832" style="stroke:#000000;stroke-width:1.5;" width="571.5" x="20" y="260.4063"/><line style="stroke:#181818;stroke-width:0.5;stroke-dasharray:5.0,5.0;" x1="51" x2="51" y1="123.2422" y2="633.2383"/><line style="stroke:#181818;stroke-width:0.5;stroke-dasharray:5.0,5.0;" x1="549.5" x2="549.5" y1="123.2422" y2="633.2383"/><text fill="#000000" font-family="sans-serif" font-size="14" lengthAdjust="spacing" textLength="37" x="30" y="119.7285">Agent</text><ellipse cx="51.5" cy="53.1211" fill="#E3E3E3" rx="8" ry="8" style="stroke:#181818;stroke-width:0.5;"/><path d="M51.5,61.1211 L51.5,88.1211 M38.5,69.1211 L64.5,69.1211 M51.5,88.1211 L38.5,103.1211 M51.5,88.1211 L64.5,103.1211 " fill="none" style="stroke:#181818;stroke-width:0.5;"/><text fill="#000000" font-family="sans-serif" font-size="14" lengthAdjust="spacing" textLength="37" x="30" y="647.3457">Agent</text><ellipse cx="51.5" cy="659.3594" fill="#E3E3E3" rx="8" ry="8" style="stroke:#181818;stroke-width:0.5;"/><path d="M51.5,667.3594 L51.5,694.3594 M38.5,675.3594 L64.5,675.3594 M51.5,694.3594 L38.5,709.3594 M51.5,694.3594 L64.5,709.3594 " fill="none" style="stroke:#181818;stroke-width:0.5;"/><rect fill="#E3E3E3" height="32.6211" rx="2.5" ry="2.5" style="stroke:#181818;stroke-width:0.5;" width="64" x="517.5" y="89.6211"/><text fill="#000000" font-family="sans-serif" font-size="14" lengthAdjust="spacing" textLength="50" x="524.5" y="111.7285">:System</text><rect fill="#E3E3E3" height="32.6211" rx="2.5" ry="2.5" style="stroke:#181818;stroke-width:0.5;" width="64" x="517.5" y="632.2383"/><text fill="#000000" font-family="sans-serif" font-size="14" lengthAdjust="spacing" textLength="50" x="524.5" y="654.3457">:System</text><rect fill="#FFFFFF" height="490.9961" style="stroke:#181818;stroke-width:1.0;" width="10" x="46.5" y="133.2422"/><rect fill="#FFFFFF" height="31.291" style="stroke:#181818;stroke-width:1.0;" width="10" x="544.5" y="156.5332"/><rect fill="#FFFFFF" height="83.873" style="stroke:#181818;stroke-width:1.0;" width="10" x="544.5" y="219.1152"/><rect fill="#FFFFFF" height="31.291" style="stroke:#181818;stroke-width:1.0;" width="10" x="544.5" y="334.2793"/><rect fill="#FFFFFF" height="31.291" style="stroke:#181818;stroke-width:1.0;" width="10" x="544.5" y="396.8613"/><rect fill="#FFFFFF" height="79.2129" style="stroke:#181818;stroke-width:1.0;" width="10" x="544.5" y="459.4434"/><rect fill="#FFFFFF" height="31.291" style="stroke:#181818;stroke-width:1.0;" width="10" x="544.5" y="569.9473"/><polygon fill="#181818" points="532.5,152.5332,542.5,156.5332,532.5,160.5332,536.5,156.5332" style="stroke:#181818;stroke-width:1.0;"/><line style="stroke:#181818;stroke-width:1.0;" x1="56.5" x2="538.5" y1="156.5332" y2="156.5332"/><text fill="#000000" font-family="sans-serif" font-size="13" font-weight="bold" lengthAdjust="spacing" textLength="7" x="63.5" y="151.2705">1</text><text fill="#000000" font-family="sans-serif" font-size="13" lengthAdjust="spacing" textLength="292" x="74.5" y="151.2705">Asks to see list of property announcement request</text><polygon fill="#181818" points="67.5,183.8242,57.5,187.8242,67.5,191.8242,63.5,187.8242" style="stroke:#181818;stroke-width:1.0;"/><line style="stroke:#181818;stroke-width:1.0;stroke-dasharray:2.0,2.0;" x1="61.5" x2="548.5" y1="187.8242" y2="187.8242"/><text fill="#000000" font-family="sans-serif" font-size="13" font-weight="bold" lengthAdjust="spacing" textLength="7" x="73.5" y="182.5615">2</text><text fill="#000000" font-family="sans-serif" font-size="13" lengthAdjust="spacing" textLength="312" x="84.5" y="182.5615">Show the list of announcements related to the request</text><polygon fill="#181818" points="532.5,215.1152,542.5,219.1152,532.5,223.1152,536.5,219.1152" style="stroke:#181818;stroke-width:1.0;"/><line style="stroke:#181818;stroke-width:1.0;" x1="56.5" x2="538.5" y1="219.1152" y2="219.1152"/><text fill="#000000" font-family="sans-serif" font-size="13" font-weight="bold" lengthAdjust="spacing" textLength="7" x="63.5" y="213.8525">3</text><text fill="#000000" font-family="sans-serif" font-size="13" lengthAdjust="spacing" textLength="297" x="74.5" y="213.8525">Chooses the announcement to accept / reject / exit</text><path d="M10,234.1152 L83,234.1152 L83,243.4063 L73,253.4063 L10,253.4063 L10,234.1152 " fill="#EEEEEE" style="stroke:#000000;stroke-width:1.5;"/><rect fill="none" height="382.123" style="stroke:#000000;stroke-width:1.5;" width="591.5" x="10" y="234.1152"/><text fill="#000000" font-family="sans-serif" font-size="13" font-weight="bold" lengthAdjust="spacing" textLength="28" x="25" y="249.1436">loop</text><text fill="#000000" font-family="sans-serif" font-size="11" font-weight="bold" lengthAdjust="spacing" textLength="239" x="98" y="247.9854">[while (requests.size() &gt; 0 &amp;&amp; exit == false)]</text><path d="M20,260.4063 L81,260.4063 L81,269.6973 L71,279.6973 L20,279.6973 L20,260.4063 " fill="#EEEEEE" style="stroke:#000000;stroke-width:1.5;"/><rect fill="none" height="348.832" style="stroke:#000000;stroke-width:1.5;" width="571.5" x="20" y="260.4063"/><text fill="#000000" font-family="sans-serif" font-size="13" font-weight="bold" lengthAdjust="spacing" textLength="16" x="35" y="275.4346">alt</text><text fill="#000000" font-family="sans-serif" font-size="11" font-weight="bold" lengthAdjust="spacing" textLength="157" x="96" y="274.2764">[announcement is accepted]</text><polygon fill="#181818" points="67.5,298.9883,57.5,302.9883,67.5,306.9883,63.5,302.9883" style="stroke:#181818;stroke-width:1.0;"/><line style="stroke:#181818;stroke-width:1.0;stroke-dasharray:2.0,2.0;" x1="61.5" x2="548.5" y1="302.9883" y2="302.9883"/><text fill="#000000" font-family="sans-serif" font-size="13" font-weight="bold" lengthAdjust="spacing" textLength="7" x="73.5" y="297.7256">4</text><text fill="#000000" font-family="sans-serif" font-size="13" lengthAdjust="spacing" textLength="258" x="84.5" y="297.7256">Asks if commission is in percentage or value</text><polygon fill="#181818" points="532.5,330.2793,542.5,334.2793,532.5,338.2793,536.5,334.2793" style="stroke:#181818;stroke-width:1.0;"/><line style="stroke:#181818;stroke-width:1.0;" x1="56.5" x2="538.5" y1="334.2793" y2="334.2793"/><text fill="#000000" font-family="sans-serif" font-size="13" font-weight="bold" lengthAdjust="spacing" textLength="7" x="63.5" y="329.0166">5</text><text fill="#000000" font-family="sans-serif" font-size="13" lengthAdjust="spacing" textLength="157" x="74.5" y="329.0166">Inputs the pretended option</text><polygon fill="#181818" points="67.5,361.5703,57.5,365.5703,67.5,369.5703,63.5,365.5703" style="stroke:#181818;stroke-width:1.0;"/><line style="stroke:#181818;stroke-width:1.0;stroke-dasharray:2.0,2.0;" x1="61.5" x2="548.5" y1="365.5703" y2="365.5703"/><text fill="#000000" font-family="sans-serif" font-size="13" font-weight="bold" lengthAdjust="spacing" textLength="7" x="73.5" y="360.3076">6</text><text fill="#000000" font-family="sans-serif" font-size="13" lengthAdjust="spacing" textLength="120" x="84.5" y="360.3076">asks for commission</text><polygon fill="#181818" points="532.5,392.8613,542.5,396.8613,532.5,400.8613,536.5,396.8613" style="stroke:#181818;stroke-width:1.0;"/><line style="stroke:#181818;stroke-width:1.0;" x1="56.5" x2="538.5" y1="396.8613" y2="396.8613"/><text fill="#000000" font-family="sans-serif" font-size="13" font-weight="bold" lengthAdjust="spacing" textLength="7" x="63.5" y="391.5986">7</text><text fill="#000000" font-family="sans-serif" font-size="13" lengthAdjust="spacing" textLength="109" x="74.5" y="391.5986">Inputs commission</text><polygon fill="#181818" points="67.5,424.1523,57.5,428.1523,67.5,432.1523,63.5,428.1523" style="stroke:#181818;stroke-width:1.0;"/><line style="stroke:#181818;stroke-width:1.0;stroke-dasharray:2.0,2.0;" x1="61.5" x2="548.5" y1="428.1523" y2="428.1523"/><text fill="#000000" font-family="sans-serif" font-size="13" font-weight="bold" lengthAdjust="spacing" textLength="7" x="73.5" y="422.8896">8</text><text fill="#000000" font-family="sans-serif" font-size="13" lengthAdjust="spacing" textLength="162" x="84.5" y="422.8896">Shows Data for confirmation</text><polygon fill="#181818" points="532.5,455.4434,542.5,459.4434,532.5,463.4434,536.5,459.4434" style="stroke:#181818;stroke-width:1.0;"/><line style="stroke:#181818;stroke-width:1.0;" x1="56.5" x2="538.5" y1="459.4434" y2="459.4434"/><text fill="#000000" font-family="sans-serif" font-size="13" font-weight="bold" lengthAdjust="spacing" textLength="7" x="63.5" y="454.1807">9</text><text fill="#000000" font-family="sans-serif" font-size="13" lengthAdjust="spacing" textLength="80" x="74.5" y="454.1807">Confirms data</text><polygon fill="#181818" points="67.5,486.7344,57.5,490.7344,67.5,494.7344,63.5,490.7344" style="stroke:#181818;stroke-width:1.0;"/><line style="stroke:#181818;stroke-width:1.0;stroke-dasharray:2.0,2.0;" x1="61.5" x2="543.5" y1="490.7344" y2="490.7344"/><text fill="#000000" font-family="sans-serif" font-size="13" font-weight="bold" lengthAdjust="spacing" textLength="14" x="73.5" y="485.4717">10</text><text fill="#000000" font-family="sans-serif" font-size="13" lengthAdjust="spacing" textLength="280" x="91.5" y="485.4717">Publishes request and shows success message</text><line style="stroke:#000000;stroke-width:1.0;stroke-dasharray:2.0,2.0;" x1="20" x2="591.5" y1="499.7344" y2="499.7344"/><text fill="#000000" font-family="sans-serif" font-size="11" font-weight="bold" lengthAdjust="spacing" textLength="153" x="25" y="511.6045">[announcement is rejected]</text><polygon fill="#181818" points="67.5,534.6563,57.5,538.6563,67.5,542.6563,63.5,538.6563" style="stroke:#181818;stroke-width:1.0;"/><line style="stroke:#181818;stroke-width:1.0;stroke-dasharray:2.0,2.0;" x1="61.5" x2="548.5" y1="538.6563" y2="538.6563"/><text fill="#000000" font-family="sans-serif" font-size="13" font-weight="bold" lengthAdjust="spacing" textLength="14" x="73.5" y="533.3936">11</text><text fill="#000000" font-family="sans-serif" font-size="13" lengthAdjust="spacing" textLength="120" x="91.5" y="533.3936">asks for confirmation</text><polygon fill="#181818" points="532.5,565.9473,542.5,569.9473,532.5,573.9473,536.5,569.9473" style="stroke:#181818;stroke-width:1.0;"/><line style="stroke:#181818;stroke-width:1.0;" x1="56.5" x2="538.5" y1="569.9473" y2="569.9473"/><text fill="#000000" font-family="sans-serif" font-size="13" font-weight="bold" lengthAdjust="spacing" textLength="14" x="63.5" y="564.6846">12</text><text fill="#000000" font-family="sans-serif" font-size="13" lengthAdjust="spacing" textLength="174" x="81.5" y="564.6846">Confirms to delete the request</text><polygon fill="#181818" points="67.5,597.2383,57.5,601.2383,67.5,605.2383,63.5,601.2383" style="stroke:#181818;stroke-width:1.0;"/><line style="stroke:#181818;stroke-width:1.0;stroke-dasharray:2.0,2.0;" x1="61.5" x2="548.5" y1="601.2383" y2="601.2383"/><text fill="#000000" font-family="sans-serif" font-size="13" font-weight="bold" lengthAdjust="spacing" textLength="14" x="73.5" y="595.9756">13</text><text fill="#000000" font-family="sans-serif" font-size="13" lengthAdjust="spacing" textLength="446" x="91.5" y="595.9756">Deletes the request, shows rejection message  and sends email to the owner</text><!--SRC=[bLJBRjim4BppAnO-10vGjpuM1X8WY2-z5H3w0GorabZpeN9NSTslxrAFM6u4LBb81BGxCxip59riQ7NI7dmCqJGfUWHE7Ifw-z9gSz8r5dnn20aDwr2xUG4rkend6sgej2DKYYrBwOzYl_yAEoWknEYXm5yT1eDmjBhERTkYEDuhfJkEeVClcEHiE2ROFDKOU0EQe3yfeM5hRAi3m-OmuFMVXsFVPryrurYl-XVi7YVk0ppHYO0Z428uImonWZR55XDVG8SGEv7cSrVAEeclc1F9YBKJs07_04KJpy3D5NAEH0Bb1A3ClBbeGYxnN-mtlLV1pqsCXDGttkWJC6qCjWnV1F6d-247_6rbR1TZ2-V6olAt8nbz9li7j_Vm27kuk-iBuU5XS2flt_4jlAKH7ijLA-WNQoimqNjBP6F843Q0hDP8YIG7nDDNxIHK2wClUFKjj1qFaxS96KCfEumj2xPIwhsg9Lawowg4-AhhO-pplhLH83XgrYDjg6pokXUzmBjEo_E0Gb0AxYePtxiNoMA3DALDt2tbXcPnr8cnHE3b8RRaNQAau9t_Gwh4__-kTZRZ1mUI59VenDoRcx5cmcFVHlE-J-E0W_0SmN546AQN116WrzPDLp6UW_nlbdoHsl6Xr5y0]--></g></svg>