<?xml version="1.0" encoding="us-ascii" standalone="no"?><svg xmlns="http://www.w3.org/2000/svg" xmlns:xlink="http://www.w3.org/1999/xlink" contentStyleType="text/css" height="524.4px" preserveAspectRatio="none" style="width:1006px;height:524px;background:#FFFFFF;" version="1.1" viewBox="0 0 1006 524" width="1006.2px" zoomAndPan="magnify"><defs/><g><rect fill="#FFFFFF" height="417.0938" style="stroke:#181818;stroke-width:0.6;" width="6" x="32.1" y="54.3844"/><rect fill="#FFFFFF" height="212.6391" style="stroke:#181818;stroke-width:0.6;" width="6" x="244.5" y="66.6984"/><rect fill="#FFFFFF" height="169.6266" style="stroke:#181818;stroke-width:0.6;" width="6" x="567.3" y="279.3375"/><rect fill="#FFFFFF" height="17.1141" style="stroke:#181818;stroke-width:0.6;" width="6" x="669.3" y="296.4516"/><rect fill="#FFFFFF" height="17.1141" style="stroke:#181818;stroke-width:0.6;" width="6" x="731.1" y="330.6797"/><rect fill="#FFFFFF" height="66.9422" style="stroke:#181818;stroke-width:0.6;" width="6" x="899.1" y="364.9078"/><line style="stroke:#181818;stroke-width:0.3;stroke-dasharray:5.0,5.0;" x1="34.8" x2="34.8" y1="48.3844" y2="476.8781"/><line style="stroke:#181818;stroke-width:0.3;stroke-dasharray:5.0,5.0;" x1="247.5" x2="247.5" y1="48.3844" y2="476.8781"/><line style="stroke:#181818;stroke-width:0.3;stroke-dasharray:5.0,5.0;" x1="570" x2="570" y1="89.6906" y2="476.8781"/><line style="stroke:#181818;stroke-width:0.3;stroke-dasharray:5.0,5.0;" x1="672" x2="672" y1="48.3844" y2="476.8781"/><line style="stroke:#181818;stroke-width:0.3;stroke-dasharray:5.0,5.0;" x1="733.8" x2="733.8" y1="48.3844" y2="476.8781"/><line style="stroke:#181818;stroke-width:0.3;stroke-dasharray:5.0,5.0;" x1="902.1" x2="902.1" y1="48.3844" y2="476.8781"/><text fill="#000000" font-family="sans-serif" font-size="8.4" lengthAdjust="spacing" textLength="60.6" x="3" y="46.6043">Unregisted User</text><ellipse cx="35.1" cy="8.1" fill="#E3E3E3" rx="4.8" ry="4.8" style="stroke:#181818;stroke-width:0.3;"/><path d="M35.1,12.9 L35.1,29.1 M27.3,17.7 L42.9,17.7 M35.1,29.1 L27.3,38.1 M35.1,29.1 L42.9,38.1 " fill="none" style="stroke:#181818;stroke-width:0.3;"/><text fill="#000000" font-family="sans-serif" font-size="8.4" lengthAdjust="spacing" textLength="60.6" x="3" y="483.8824">Unregisted User</text><ellipse cx="35.1" cy="490.7625" fill="#E3E3E3" rx="4.8" ry="4.8" style="stroke:#181818;stroke-width:0.3;"/><path d="M35.1,495.5625 L35.1,511.7625 M27.3,500.3625 L42.9,500.3625 M35.1,511.7625 L27.3,520.7625 M35.1,511.7625 L42.9,520.7625 " fill="none" style="stroke:#181818;stroke-width:0.3;"/><rect fill="#E3E3E3" height="17.7844" rx="1.5" ry="1.5" style="stroke:#181818;stroke-width:0.3;" width="112.8" x="191.1" y="30"/><text fill="#000000" font-family="sans-serif" font-size="8.4" lengthAdjust="spacing" textLength="104.4" x="195.3" y="41.8043">:DisplayTheListPropertiesUI</text><rect fill="#E3E3E3" height="17.7844" rx="1.5" ry="1.5" style="stroke:#181818;stroke-width:0.3;" width="112.8" x="191.1" y="476.2781"/><text fill="#000000" font-family="sans-serif" font-size="8.4" lengthAdjust="spacing" textLength="104.4" x="195.3" y="488.0824">:DisplayTheListPropertiesUI</text><rect fill="#E3E3E3" height="17.7844" rx="1.5" ry="1.5" style="stroke:#181818;stroke-width:0.3;" width="136.2" x="502.2" y="476.2781"/><text fill="#000000" font-family="sans-serif" font-size="8.4" lengthAdjust="spacing" textLength="127.8" x="506.4" y="488.0824">:DisplayTheListPropertyController</text><rect fill="#E3E3E3" height="17.7844" rx="1.5" ry="1.5" style="stroke:#181818;stroke-width:0.3;" width="55.8" x="644.4" y="30"/><text fill="#000000" font-family="sans-serif" font-size="8.4" lengthAdjust="spacing" textLength="47.4" x="648.6" y="41.8043">Repositories</text><rect fill="#E3E3E3" height="17.7844" rx="1.5" ry="1.5" style="stroke:#181818;stroke-width:0.3;" width="55.8" x="644.4" y="476.2781"/><text fill="#000000" font-family="sans-serif" font-size="8.4" lengthAdjust="spacing" textLength="47.4" x="648.6" y="488.0824">Repositories</text><rect fill="#E3E3E3" height="27.1688" rx="1.5" ry="1.5" style="stroke:#181818;stroke-width:0.3;" width="55.8" x="706.2" y="20.6156"/><text fill="#000000" font-family="sans-serif" font-size="8.4" lengthAdjust="spacing" textLength="46.8" x="710.7" y="32.4199">repositories:</text><text fill="#000000" font-family="sans-serif" font-size="8.4" lengthAdjust="spacing" textLength="47.4" x="710.4" y="41.8043">Repositories</text><rect fill="#E3E3E3" height="27.1688" rx="1.5" ry="1.5" style="stroke:#181818;stroke-width:0.3;" width="55.8" x="706.2" y="476.2781"/><text fill="#000000" font-family="sans-serif" font-size="8.4" lengthAdjust="spacing" textLength="46.8" x="710.7" y="488.0824">repositories:</text><text fill="#000000" font-family="sans-serif" font-size="8.4" lengthAdjust="spacing" textLength="47.4" x="710.4" y="497.4668">Repositories</text><rect fill="#E3E3E3" height="17.7844" rx="1.5" ry="1.5" style="stroke:#181818;stroke-width:0.3;" width="81.6" x="861.3" y="30"/><text fill="#000000" font-family="sans-serif" font-size="8.4" lengthAdjust="spacing" textLength="73.2" x="865.5" y="41.8043">PropertyRepository</text><rect fill="#E3E3E3" height="17.7844" rx="1.5" ry="1.5" style="stroke:#181818;stroke-width:0.3;" width="81.6" x="861.3" y="476.2781"/><text fill="#000000" font-family="sans-serif" font-size="8.4" lengthAdjust="spacing" textLength="73.2" x="865.5" y="488.0824">PropertyRepository</text><rect fill="#FFFFFF" height="417.0938" style="stroke:#181818;stroke-width:0.6;" width="6" x="32.1" y="54.3844"/><rect fill="#FFFFFF" height="212.6391" style="stroke:#181818;stroke-width:0.6;" width="6" x="244.5" y="66.6984"/><rect fill="#FFFFFF" height="169.6266" style="stroke:#181818;stroke-width:0.6;" width="6" x="567.3" y="279.3375"/><rect fill="#FFFFFF" height="17.1141" style="stroke:#181818;stroke-width:0.6;" width="6" x="669.3" y="296.4516"/><rect fill="#FFFFFF" height="17.1141" style="stroke:#181818;stroke-width:0.6;" width="6" x="731.1" y="330.6797"/><rect fill="#FFFFFF" height="66.9422" style="stroke:#181818;stroke-width:0.6;" width="6" x="899.1" y="364.9078"/><polygon fill="#181818" points="237.3,64.2984,243.3,66.6984,237.3,69.0984,239.7,66.6984" style="stroke:#181818;stroke-width:0.6;"/><line style="stroke:#181818;stroke-width:0.6;" x1="38.1" x2="240.9" y1="66.6984" y2="66.6984"/><text fill="#000000" font-family="sans-serif" font-size="7.8" font-weight="bold" lengthAdjust="spacing" textLength="4.2" x="42.3" y="63.8455">1</text><text fill="#000000" font-family="sans-serif" font-size="7.8" lengthAdjust="spacing" textLength="96" x="48.9" y="63.8455">Enter as an unregisted user</text><polygon fill="#181818" points="495,81.4125,501,83.8125,495,86.2125,497.4,83.8125" style="stroke:#181818;stroke-width:0.6;"/><line style="stroke:#181818;stroke-width:0.6;" x1="250.5" x2="498.6" y1="83.8125" y2="83.8125"/><text fill="#000000" font-family="sans-serif" font-size="7.8" font-weight="bold" lengthAdjust="spacing" textLength="4.2" x="254.7" y="80.9596">2</text><text fill="#000000" font-family="sans-serif" font-size="7.8" lengthAdjust="spacing" textLength="21.6" x="261.3" y="80.9596">create</text><rect fill="#E3E3E3" height="17.7844" rx="1.5" ry="1.5" style="stroke:#181818;stroke-width:0.3;" width="136.2" x="502.2" y="71.4984"/><text fill="#000000" font-family="sans-serif" font-size="8.4" lengthAdjust="spacing" textLength="127.8" x="506.4" y="83.3027">:DisplayTheListPropertyController</text><polygon fill="#181818" points="44.7,105.7969,38.7,108.1969,44.7,110.5969,42.3,108.1969" style="stroke:#181818;stroke-width:0.6;"/><line style="stroke:#181818;stroke-width:0.6;stroke-dasharray:2.0,2.0;" x1="41.1" x2="243.9" y1="108.1969" y2="108.1969"/><text fill="#000000" font-family="sans-serif" font-size="7.8" font-weight="bold" lengthAdjust="spacing" textLength="4.2" x="48.3" y="105.3439">3</text><text fill="#000000" font-family="sans-serif" font-size="7.8" lengthAdjust="spacing" textLength="89.4" x="54.9" y="105.3439">Requests type of property</text><polygon fill="#181818" points="237.3,122.9109,243.3,125.3109,237.3,127.7109,239.7,125.3109" style="stroke:#181818;stroke-width:0.6;"/><line style="stroke:#181818;stroke-width:0.6;" x1="38.1" x2="240.9" y1="125.3109" y2="125.3109"/><text fill="#000000" font-family="sans-serif" font-size="7.8" font-weight="bold" lengthAdjust="spacing" textLength="4.2" x="42.3" y="122.458">4</text><text fill="#000000" font-family="sans-serif" font-size="7.8" lengthAdjust="spacing" textLength="96" x="48.9" y="122.458">Selects the type of property</text><polygon fill="#181818" points="44.7,140.025,38.7,142.425,44.7,144.825,42.3,142.425" style="stroke:#181818;stroke-width:0.6;"/><line style="stroke:#181818;stroke-width:0.6;stroke-dasharray:2.0,2.0;" x1="41.1" x2="243.9" y1="142.425" y2="142.425"/><text fill="#000000" font-family="sans-serif" font-size="7.8" font-weight="bold" lengthAdjust="spacing" textLength="4.2" x="48.3" y="139.5721">5</text><text fill="#000000" font-family="sans-serif" font-size="7.8" lengthAdjust="spacing" textLength="94.8" x="54.9" y="139.5721">Requests type of habitation</text><polygon fill="#181818" points="237.3,157.1391,243.3,159.5391,237.3,161.9391,239.7,159.5391" style="stroke:#181818;stroke-width:0.6;"/><line style="stroke:#181818;stroke-width:0.6;" x1="38.1" x2="240.9" y1="159.5391" y2="159.5391"/><text fill="#000000" font-family="sans-serif" font-size="7.8" font-weight="bold" lengthAdjust="spacing" textLength="4.2" x="42.3" y="156.6861">6</text><text fill="#000000" font-family="sans-serif" font-size="7.8" lengthAdjust="spacing" textLength="88.2" x="48.9" y="156.6861">Selects type of habitation</text><polygon fill="#181818" points="44.7,174.2531,38.7,176.6531,44.7,179.0531,42.3,176.6531" style="stroke:#181818;stroke-width:0.6;"/><line style="stroke:#181818;stroke-width:0.6;stroke-dasharray:2.0,2.0;" x1="41.1" x2="243.9" y1="176.6531" y2="176.6531"/><text fill="#000000" font-family="sans-serif" font-size="7.8" font-weight="bold" lengthAdjust="spacing" textLength="4.2" x="48.3" y="173.8002">7</text><text fill="#000000" font-family="sans-serif" font-size="7.8" lengthAdjust="spacing" textLength="92.4" x="54.9" y="173.8002">Requests type of business</text><polygon fill="#181818" points="237.3,191.3672,243.3,193.7672,237.3,196.1672,239.7,193.7672" style="stroke:#181818;stroke-width:0.6;"/><line style="stroke:#181818;stroke-width:0.6;" x1="38.1" x2="240.9" y1="193.7672" y2="193.7672"/><text fill="#000000" font-family="sans-serif" font-size="7.8" font-weight="bold" lengthAdjust="spacing" textLength="4.2" x="42.3" y="190.9143">8</text><text fill="#000000" font-family="sans-serif" font-size="7.8" lengthAdjust="spacing" textLength="85.8" x="48.9" y="190.9143">Selects type of business</text><polygon fill="#181818" points="44.7,208.4813,38.7,210.8813,44.7,213.2813,42.3,210.8813" style="stroke:#181818;stroke-width:0.6;"/><line style="stroke:#181818;stroke-width:0.6;stroke-dasharray:2.0,2.0;" x1="41.1" x2="243.9" y1="210.8813" y2="210.8813"/><text fill="#000000" font-family="sans-serif" font-size="7.8" font-weight="bold" lengthAdjust="spacing" textLength="4.2" x="48.3" y="208.0283">9</text><text fill="#000000" font-family="sans-serif" font-size="7.8" lengthAdjust="spacing" textLength="106.2" x="54.9" y="208.0283">Requests number of bedrooms</text><polygon fill="#181818" points="237.3,225.5953,243.3,227.9953,237.3,230.3953,239.7,227.9953" style="stroke:#181818;stroke-width:0.6;"/><line style="stroke:#181818;stroke-width:0.6;" x1="38.1" x2="240.9" y1="227.9953" y2="227.9953"/><text fill="#000000" font-family="sans-serif" font-size="7.8" font-weight="bold" lengthAdjust="spacing" textLength="8.4" x="42.3" y="225.1424">10</text><text fill="#000000" font-family="sans-serif" font-size="7.8" lengthAdjust="spacing" textLength="99.6" x="53.1" y="225.1424">Selects number of bedrooms</text><polygon fill="#181818" points="44.7,242.7094,38.7,245.1094,44.7,247.5094,42.3,245.1094" style="stroke:#181818;stroke-width:0.6;"/><line style="stroke:#181818;stroke-width:0.6;stroke-dasharray:2.0,2.0;" x1="41.1" x2="243.9" y1="245.1094" y2="245.1094"/><text fill="#000000" font-family="sans-serif" font-size="7.8" font-weight="bold" lengthAdjust="spacing" textLength="8.4" x="48.3" y="242.2564">11</text><text fill="#000000" font-family="sans-serif" font-size="7.8" lengthAdjust="spacing" textLength="87.6" x="59.1" y="242.2564">Requests the sort criteria</text><polygon fill="#181818" points="237.3,259.8234,243.3,262.2234,237.3,264.6234,239.7,262.2234" style="stroke:#181818;stroke-width:0.6;"/><line style="stroke:#181818;stroke-width:0.6;" x1="38.1" x2="240.9" y1="262.2234" y2="262.2234"/><text fill="#000000" font-family="sans-serif" font-size="7.8" font-weight="bold" lengthAdjust="spacing" textLength="8.4" x="42.3" y="259.3705">12</text><text fill="#000000" font-family="sans-serif" font-size="7.8" lengthAdjust="spacing" textLength="81" x="53.1" y="259.3705">Selects the sort criteria</text><polygon fill="#181818" points="560.1,276.9375,566.1,279.3375,560.1,281.7375,562.5,279.3375" style="stroke:#181818;stroke-width:0.6;"/><line style="stroke:#181818;stroke-width:0.6;" x1="247.5" x2="563.7" y1="279.3375" y2="279.3375"/><text fill="#000000" font-family="sans-serif" font-size="7.8" font-weight="bold" lengthAdjust="spacing" textLength="8.4" x="251.7" y="276.4846">13</text><text fill="#000000" font-family="sans-serif" font-size="7.8" lengthAdjust="spacing" textLength="294.6" x="262.5" y="276.4846">getListOfAllProperties(propertyType, businessType, numberOfBedrooms, sortCriteria)</text><polygon fill="#181818" points="662.1,294.0516,668.1,296.4516,662.1,298.8516,664.5,296.4516" style="stroke:#181818;stroke-width:0.6;"/><line style="stroke:#181818;stroke-width:0.6;" x1="573.3" x2="665.7" y1="296.4516" y2="296.4516"/><text fill="#000000" font-family="sans-serif" font-size="7.8" font-weight="bold" lengthAdjust="spacing" textLength="8.4" x="577.5" y="293.5986">14</text><text fill="#000000" font-family="sans-serif" font-size="7.8" lengthAdjust="spacing" textLength="45" x="588.3" y="293.5986">getInstance()</text><polygon fill="#181818" points="579.9,311.1656,573.9,313.5656,579.9,315.9656,577.5,313.5656" style="stroke:#181818;stroke-width:0.6;"/><line style="stroke:#181818;stroke-width:0.6;stroke-dasharray:2.0,2.0;" x1="576.3" x2="671.7" y1="313.5656" y2="313.5656"/><text fill="#000000" font-family="sans-serif" font-size="7.8" font-weight="bold" lengthAdjust="spacing" textLength="8.4" x="583.5" y="310.7127">15</text><text fill="#000000" font-family="sans-serif" font-size="7.8" lengthAdjust="spacing" textLength="40.2" x="594.3" y="310.7127">repositories</text><polygon fill="#181818" points="723.9,328.2797,729.9,330.6797,723.9,333.0797,726.3,330.6797" style="stroke:#181818;stroke-width:0.6;"/><line style="stroke:#181818;stroke-width:0.6;" x1="573.3" x2="727.5" y1="330.6797" y2="330.6797"/><text fill="#000000" font-family="sans-serif" font-size="7.8" font-weight="bold" lengthAdjust="spacing" textLength="8.4" x="577.5" y="327.8268">16</text><text fill="#000000" font-family="sans-serif" font-size="7.8" lengthAdjust="spacing" textLength="82.2" x="588.3" y="327.8268">getPropertyRepository()</text><polygon fill="#181818" points="579.9,345.3938,573.9,347.7938,579.9,350.1937,577.5,347.7938" style="stroke:#181818;stroke-width:0.6;"/><line style="stroke:#181818;stroke-width:0.6;stroke-dasharray:2.0,2.0;" x1="576.3" x2="733.5" y1="347.7938" y2="347.7938"/><text fill="#000000" font-family="sans-serif" font-size="7.8" font-weight="bold" lengthAdjust="spacing" textLength="8.4" x="583.5" y="344.9408">17</text><text fill="#000000" font-family="sans-serif" font-size="7.8" lengthAdjust="spacing" textLength="66.6" x="594.3" y="344.9408">PropertyRepository</text><polygon fill="#181818" points="891.9,362.5078,897.9,364.9078,891.9,367.3078,894.3,364.9078" style="stroke:#181818;stroke-width:0.6;"/><line style="stroke:#181818;stroke-width:0.6;" x1="573.3" x2="895.5" y1="364.9078" y2="364.9078"/><text fill="#000000" font-family="sans-serif" font-size="7.8" font-weight="bold" lengthAdjust="spacing" textLength="8.4" x="577.5" y="362.0549">18</text><text fill="#000000" font-family="sans-serif" font-size="7.8" lengthAdjust="spacing" textLength="303.6" x="588.3" y="362.0549">getListOfAllHabitations(habitationType, businessType, numberOfBedrooms, sortCriteria)</text><line style="stroke:#181818;stroke-width:0.6;stroke-dasharray:2.0,2.0;" x1="905.1" x2="930.3" y1="382.0219" y2="382.0219"/><line style="stroke:#181818;stroke-width:0.6;stroke-dasharray:2.0,2.0;" x1="930.3" x2="930.3" y1="382.0219" y2="389.8219"/><line style="stroke:#181818;stroke-width:0.6;stroke-dasharray:2.0,2.0;" x1="905.7" x2="930.3" y1="389.8219" y2="389.8219"/><polygon fill="#181818" points="911.7,387.4219,905.7,389.8219,911.7,392.2219,909.3,389.8219" style="stroke:#181818;stroke-width:0.6;"/><text fill="#000000" font-family="sans-serif" font-size="7.8" font-weight="bold" lengthAdjust="spacing" textLength="8.4" x="909.3" y="379.1689">19</text><text fill="#000000" font-family="sans-serif" font-size="7.8" lengthAdjust="spacing" textLength="82.2" x="920.1" y="379.1689">FilterListOfAllProperties</text><line style="stroke:#181818;stroke-width:0.6;stroke-dasharray:2.0,2.0;" x1="905.1" x2="930.3" y1="406.9359" y2="406.9359"/><line style="stroke:#181818;stroke-width:0.6;stroke-dasharray:2.0,2.0;" x1="930.3" x2="930.3" y1="406.9359" y2="414.7359"/><line style="stroke:#181818;stroke-width:0.6;stroke-dasharray:2.0,2.0;" x1="905.7" x2="930.3" y1="414.7359" y2="414.7359"/><polygon fill="#181818" points="911.7,412.3359,905.7,414.7359,911.7,417.1359,909.3,414.7359" style="stroke:#181818;stroke-width:0.6;"/><text fill="#000000" font-family="sans-serif" font-size="7.8" font-weight="bold" lengthAdjust="spacing" textLength="8.4" x="909.3" y="404.083">20</text><text fill="#000000" font-family="sans-serif" font-size="7.8" lengthAdjust="spacing" textLength="44.4" x="920.1" y="404.083">Filter Criteria</text><polygon fill="#181818" points="579.9,429.45,573.9,431.85,579.9,434.25,577.5,431.85" style="stroke:#181818;stroke-width:0.6;"/><line style="stroke:#181818;stroke-width:0.6;stroke-dasharray:2.0,2.0;" x1="576.3" x2="901.5" y1="431.85" y2="431.85"/><text fill="#000000" font-family="sans-serif" font-size="7.8" font-weight="bold" lengthAdjust="spacing" textLength="8.4" x="583.5" y="428.9971">21</text><text fill="#000000" font-family="sans-serif" font-size="7.8" lengthAdjust="spacing" textLength="87.6" x="594.3" y="428.9971">filteredListOfAllProperties</text><polygon fill="#181818" points="254.1,446.5641,248.1,448.9641,254.1,451.3641,251.7,448.9641" style="stroke:#181818;stroke-width:0.6;"/><line style="stroke:#181818;stroke-width:0.6;stroke-dasharray:2.0,2.0;" x1="250.5" x2="569.7" y1="448.9641" y2="448.9641"/><text fill="#000000" font-family="sans-serif" font-size="7.8" font-weight="bold" lengthAdjust="spacing" textLength="8.4" x="257.7" y="446.1111">22</text><text fill="#000000" font-family="sans-serif" font-size="7.8" lengthAdjust="spacing" textLength="87.6" x="268.5" y="446.1111">filteredListOfAllProperties</text><polygon fill="#181818" points="44.7,463.6781,38.7,466.0781,44.7,468.4781,42.3,466.0781" style="stroke:#181818;stroke-width:0.6;"/><line style="stroke:#181818;stroke-width:0.6;stroke-dasharray:2.0,2.0;" x1="41.1" x2="246.9" y1="466.0781" y2="466.0781"/><text fill="#000000" font-family="sans-serif" font-size="7.8" font-weight="bold" lengthAdjust="spacing" textLength="8.4" x="48.3" y="463.2252">23</text><text fill="#000000" font-family="sans-serif" font-size="7.8" lengthAdjust="spacing" textLength="184.2" x="59.1" y="463.2252">Shows list of properties acording the Unregisted User</text><!--SRC=[fLPBRjim4Dtp50Dlx03n1RmeqBe9QY100dzstT3Io68ZaGf9DVLnkkmvSh4EzRCeoP6QSYTgthmtmvaXpREG6TSyXLH95SHQfGXMvyXCyoVZmJC_uSwU4mIDWUNobBGDJCn3zIha2IAU66ICvrR9F3sYPcmUYn0XKieUrI_60wiqp0vIuqaOYo4S3EePS0E7m-vkoyYZ5O78kBGmMtqL9aluUH_Z0ra_QPKX_KPps9IGpHJxyrf9grMIL4Jh_VR1nsqnKqQGCd9TcEZMXc_Q_hFwBjz5QXzQosamvmAHzROPStaIFxd5AYiCgbLyml8JXGuhk9CMjVF19UINbER69Rw6N5njcZst0erkjyX6Uvyyat-tJGob4QjMrypfA0IjO8ilEHfhm9up11KrOVaWJ_uE4wecWiGu0XlXYlbHM6w5abFOHa0ZNCVS28d6_0FJCEGAJzat1Gn3hLGwXMaCT2qcIhnHsj8n2weamISUbeyPA8ocVaveNIS-Hf-JvDA-Y_gKzvIXsoO_vLSPosFqfOhajg1RLsmtDLU80uNTR1LLtH7cLY6BvBNRj9IvaOO6Mu2BcnweyUgDXPwPMvxVPPM7bG_iObgH-0IJrEjIVd-uJ0r4ztcytvSe-XnJOz7iieO2wi_0JkryQvhLB2wD-n_bu-TZS0QtBGS4Bg_flXS9SGsK_KSzbWvXFTIaLznKxHSLI0p7nBIEBNl_aCiJguV21_mFtZUjuRIBrQk1X1oshWFNJJnGEdIF33U1EWy8UcQqRs8GP0v1mcdcphqR6popjp-Gfw2EFz0g22i4ildJ2z24r8fgc2mbfyaAAUQjabRE06Y8llq6MGCxxuRvNm00]--></g></svg>