<?xml version="1.0" encoding="us-ascii" standalone="no"?><svg xmlns="http://www.w3.org/2000/svg" xmlns:xlink="http://www.w3.org/1999/xlink" contentStyleType="text/css" height="634px" preserveAspectRatio="none" style="width:497px;height:634px;background:#FFFFFF;" version="1.1" viewBox="0 0 497 634" width="497px" zoomAndPan="magnify"><defs/><g><text fill="#000000" font-family="sans-serif" font-size="14" font-weight="bold" lengthAdjust="spacing" textLength="363" x="68.5" y="28.5352">System Sequence Diagram (SSD) - Alternative One</text><rect fill="#FFFFFF" height="415.3477" style="stroke:#181818;stroke-width:1.0;" width="10" x="48" y="128.9766"/><rect fill="#FFFFFF" height="29.3105" style="stroke:#181818;stroke-width:1.0;" width="10" x="433" y="150.2871"/><rect fill="#FFFFFF" height="29.3105" style="stroke:#181818;stroke-width:1.0;" width="10" x="433" y="208.9082"/><rect fill="#FFFFFF" height="53.6211" style="stroke:#181818;stroke-width:1.0;" width="10" x="433" y="267.5293"/><rect fill="#FFFFFF" height="53.6211" style="stroke:#181818;stroke-width:1.0;" width="10" x="433" y="350.4609"/><rect fill="#FFFFFF" height="36.3105" style="stroke:#181818;stroke-width:1.0;" width="10" x="433" y="433.3926"/><rect fill="#FFFFFF" height="29.3105" style="stroke:#181818;stroke-width:1.0;" width="10" x="433" y="499.0137"/><rect fill="none" height="253.7949" style="stroke:#000000;stroke-width:1.5;" width="481" x="10" y="282.5293"/><rect fill="none" height="75.9316" style="stroke:#000000;stroke-width:1.5;" width="461" x="20" y="365.4609"/><line style="stroke:#181818;stroke-width:0.5;stroke-dasharray:5.0,5.0;" x1="53" x2="53" y1="118.9766" y2="553.3242"/><line style="stroke:#181818;stroke-width:0.5;stroke-dasharray:5.0,5.0;" x1="438" x2="438" y1="118.9766" y2="553.3242"/><text fill="#000000" font-family="sans-serif" font-size="14" lengthAdjust="spacing" textLength="40" x="30" y="116.0234">Client</text><ellipse cx="53" cy="50.9883" fill="#E3E3E3" rx="8" ry="8" style="stroke:#181818;stroke-width:0.5;"/><path d="M53,58.9883 L53,85.9883 M40,66.9883 L66,66.9883 M53,85.9883 L40,100.9883 M53,85.9883 L66,100.9883 " fill="none" style="stroke:#181818;stroke-width:0.5;"/><text fill="#000000" font-family="sans-serif" font-size="14" lengthAdjust="spacing" textLength="40" x="30" y="565.8594">Client</text><ellipse cx="53" cy="577.3125" fill="#E3E3E3" rx="8" ry="8" style="stroke:#181818;stroke-width:0.5;"/><path d="M53,585.3125 L53,612.3125 M40,593.3125 L66,593.3125 M53,612.3125 L40,627.3125 M53,612.3125 L66,627.3125 " fill="none" style="stroke:#181818;stroke-width:0.5;"/><rect fill="#E3E3E3" height="30.4883" rx="2.5" ry="2.5" style="stroke:#181818;stroke-width:0.5;" width="66" x="405" y="87.4883"/><text fill="#000000" font-family="sans-serif" font-size="14" lengthAdjust="spacing" textLength="52" x="412" y="108.0234">:System</text><rect fill="#E3E3E3" height="30.4883" rx="2.5" ry="2.5" style="stroke:#181818;stroke-width:0.5;" width="66" x="405" y="552.3242"/><text fill="#000000" font-family="sans-serif" font-size="14" lengthAdjust="spacing" textLength="52" x="412" y="572.8594">:System</text><rect fill="#FFFFFF" height="415.3477" style="stroke:#181818;stroke-width:1.0;" width="10" x="48" y="128.9766"/><rect fill="#FFFFFF" height="29.3105" style="stroke:#181818;stroke-width:1.0;" width="10" x="433" y="150.2871"/><rect fill="#FFFFFF" height="29.3105" style="stroke:#181818;stroke-width:1.0;" width="10" x="433" y="208.9082"/><rect fill="#FFFFFF" height="53.6211" style="stroke:#181818;stroke-width:1.0;" width="10" x="433" y="267.5293"/><rect fill="#FFFFFF" height="53.6211" style="stroke:#181818;stroke-width:1.0;" width="10" x="433" y="350.4609"/><rect fill="#FFFFFF" height="36.3105" style="stroke:#181818;stroke-width:1.0;" width="10" x="433" y="433.3926"/><rect fill="#FFFFFF" height="29.3105" style="stroke:#181818;stroke-width:1.0;" width="10" x="433" y="499.0137"/><polygon fill="#181818" points="421,146.2871,431,150.2871,421,154.2871,425,150.2871" style="stroke:#181818;stroke-width:1.0;"/><line style="stroke:#181818;stroke-width:1.0;" x1="58" x2="427" y1="150.2871" y2="150.2871"/><text fill="#000000" font-family="sans-serif" font-size="13" font-weight="bold" lengthAdjust="spacing" textLength="9" x="65" y="145.5449">1</text><text fill="#000000" font-family="sans-serif" font-size="13" lengthAdjust="spacing" textLength="332" x="78" y="145.5449">initiates the process to schedule a visit to a property</text><polygon fill="#181818" points="69,175.5977,59,179.5977,69,183.5977,65,179.5977" style="stroke:#181818;stroke-width:1.0;"/><line style="stroke:#181818;stroke-width:1.0;stroke-dasharray:2.0,2.0;" x1="63" x2="437" y1="179.5977" y2="179.5977"/><text fill="#000000" font-family="sans-serif" font-size="13" font-weight="bold" lengthAdjust="spacing" textLength="9" x="75" y="174.8555">2</text><text fill="#000000" font-family="sans-serif" font-size="13" lengthAdjust="spacing" textLength="338" x="88" y="174.8555">displays the list of properties and asks to choose one</text><polygon fill="#181818" points="421,204.9082,431,208.9082,421,212.9082,425,208.9082" style="stroke:#181818;stroke-width:1.0;"/><line style="stroke:#181818;stroke-width:1.0;" x1="58" x2="427" y1="208.9082" y2="208.9082"/><text fill="#000000" font-family="sans-serif" font-size="13" font-weight="bold" lengthAdjust="spacing" textLength="9" x="65" y="204.166">3</text><text fill="#000000" font-family="sans-serif" font-size="13" lengthAdjust="spacing" textLength="109" x="78" y="204.166">chooses property</text><polygon fill="#181818" points="69,234.2188,59,238.2188,69,242.2188,65,238.2188" style="stroke:#181818;stroke-width:1.0;"/><line style="stroke:#181818;stroke-width:1.0;stroke-dasharray:2.0,2.0;" x1="63" x2="437" y1="238.2188" y2="238.2188"/><text fill="#000000" font-family="sans-serif" font-size="13" font-weight="bold" lengthAdjust="spacing" textLength="9" x="75" y="233.4766">4</text><text fill="#000000" font-family="sans-serif" font-size="13" lengthAdjust="spacing" textLength="319" x="88" y="233.4766">requests visit data (date and time slot for the visit)</text><polygon fill="#181818" points="421,263.5293,431,267.5293,421,271.5293,425,267.5293" style="stroke:#181818;stroke-width:1.0;"/><line style="stroke:#181818;stroke-width:1.0;" x1="58" x2="427" y1="267.5293" y2="267.5293"/><text fill="#000000" font-family="sans-serif" font-size="13" font-weight="bold" lengthAdjust="spacing" textLength="9" x="65" y="262.7871">5</text><text fill="#000000" font-family="sans-serif" font-size="13" lengthAdjust="spacing" textLength="131" x="78" y="262.7871">types requested data</text><path d="M10,282.5293 L72,282.5293 L72,289.8398 L62,299.8398 L10,299.8398 L10,282.5293 " fill="#EEEEEE" style="stroke:#000000;stroke-width:1.5;"/><rect fill="none" height="253.7949" style="stroke:#000000;stroke-width:1.5;" width="481" x="10" y="282.5293"/><text fill="#000000" font-family="sans-serif" font-size="13" font-weight="bold" lengthAdjust="spacing" textLength="17" x="25" y="296.0977">alt</text><text fill="#000000" font-family="sans-serif" font-size="11" font-weight="bold" lengthAdjust="spacing" textLength="347" x="87" y="295.1641">[If there are no visits already scheduled in this date and time]</text><polygon fill="#181818" points="69,317.1504,59,321.1504,69,325.1504,65,321.1504" style="stroke:#181818;stroke-width:1.0;"/><line style="stroke:#181818;stroke-width:1.0;stroke-dasharray:2.0,2.0;" x1="63" x2="437" y1="321.1504" y2="321.1504"/><text fill="#000000" font-family="sans-serif" font-size="13" font-weight="bold" lengthAdjust="spacing" textLength="9" x="75" y="316.4082">6</text><text fill="#000000" font-family="sans-serif" font-size="13" lengthAdjust="spacing" textLength="287" x="88" y="316.4082">asks the client if he wants to write a message</text><polygon fill="#181818" points="421,346.4609,431,350.4609,421,354.4609,425,350.4609" style="stroke:#181818;stroke-width:1.0;"/><line style="stroke:#181818;stroke-width:1.0;" x1="58" x2="427" y1="350.4609" y2="350.4609"/><text fill="#000000" font-family="sans-serif" font-size="13" font-weight="bold" lengthAdjust="spacing" textLength="9" x="65" y="345.7188">7</text><text fill="#000000" font-family="sans-serif" font-size="13" lengthAdjust="spacing" textLength="89" x="78" y="345.7188">selects option</text><path d="M20,365.4609 L82,365.4609 L82,372.7715 L72,382.7715 L20,382.7715 L20,365.4609 " fill="#EEEEEE" style="stroke:#000000;stroke-width:1.5;"/><rect fill="none" height="75.9316" style="stroke:#000000;stroke-width:1.5;" width="461" x="20" y="365.4609"/><text fill="#000000" font-family="sans-serif" font-size="13" font-weight="bold" lengthAdjust="spacing" textLength="17" x="35" y="379.0293">alt</text><text fill="#000000" font-family="sans-serif" font-size="11" font-weight="bold" lengthAdjust="spacing" textLength="149" x="97" y="378.0957">[wants to write a message]</text><polygon fill="#181818" points="69,400.082,59,404.082,69,408.082,65,404.082" style="stroke:#181818;stroke-width:1.0;"/><line style="stroke:#181818;stroke-width:1.0;stroke-dasharray:2.0,2.0;" x1="63" x2="437" y1="404.082" y2="404.082"/><text fill="#000000" font-family="sans-serif" font-size="13" font-weight="bold" lengthAdjust="spacing" textLength="9" x="75" y="399.3398">8</text><text fill="#000000" font-family="sans-serif" font-size="13" lengthAdjust="spacing" textLength="164" x="88" y="399.3398">asks to write the message</text><polygon fill="#181818" points="421,429.3926,431,433.3926,421,437.3926,425,433.3926" style="stroke:#181818;stroke-width:1.0;"/><line style="stroke:#181818;stroke-width:1.0;" x1="58" x2="427" y1="433.3926" y2="433.3926"/><text fill="#000000" font-family="sans-serif" font-size="13" font-weight="bold" lengthAdjust="spacing" textLength="9" x="65" y="428.6504">9</text><text fill="#000000" font-family="sans-serif" font-size="13" lengthAdjust="spacing" textLength="97" x="78" y="428.6504">writes message</text><polygon fill="#181818" points="69,465.7031,59,469.7031,69,473.7031,65,469.7031" style="stroke:#181818;stroke-width:1.0;"/><line style="stroke:#181818;stroke-width:1.0;stroke-dasharray:2.0,2.0;" x1="63" x2="437" y1="469.7031" y2="469.7031"/><text fill="#000000" font-family="sans-serif" font-size="13" font-weight="bold" lengthAdjust="spacing" textLength="18" x="75" y="464.9609">10</text><text fill="#000000" font-family="sans-serif" font-size="13" lengthAdjust="spacing" textLength="304" x="97" y="464.9609">asks to confirm visit data and possible message</text><polygon fill="#181818" points="421,495.0137,431,499.0137,421,503.0137,425,499.0137" style="stroke:#181818;stroke-width:1.0;"/><line style="stroke:#181818;stroke-width:1.0;" x1="58" x2="427" y1="499.0137" y2="499.0137"/><text fill="#000000" font-family="sans-serif" font-size="13" font-weight="bold" lengthAdjust="spacing" textLength="18" x="65" y="494.2715">11</text><text fill="#000000" font-family="sans-serif" font-size="13" lengthAdjust="spacing" textLength="80" x="87" y="494.2715">confirm data</text><polygon fill="#181818" points="69,524.3242,59,528.3242,69,532.3242,65,528.3242" style="stroke:#181818;stroke-width:1.0;"/><line style="stroke:#181818;stroke-width:1.0;stroke-dasharray:2.0,2.0;" x1="63" x2="437" y1="528.3242" y2="528.3242"/><text fill="#000000" font-family="sans-serif" font-size="13" font-weight="bold" lengthAdjust="spacing" textLength="18" x="75" y="523.582">12</text><text fill="#000000" font-family="sans-serif" font-size="13" lengthAdjust="spacing" textLength="217" x="97" y="523.582">shows operation success message</text><!--SRC=[fLJBZjim3BpxAuYSTW_vWHmA5DqUUkh1Ny2Lw9Y8BBaYdS1_Nyglxg9Eksa5691iaZD3ZYmNZZrcxA1BCRasfuv0yq2LR5zwT1SyKwrZ8CZa5ECvl0sG5dswSJn3Wq6egfJLGkjHb3gewST0qH6yC9vB-5DTlpp34Ju7fHnH-KhmFLeQ3fhYqBrIjhtJbE7m9J15FG0AVEtwa4QYoa2L7VSO5Gwd6MMAcBTJBbzHwLTA1RRM4nm_hTnEm96LBLP0Mu8-9qTY-mJYMlA3oK2uih2MTrW2UiewJWKtd1KObhLKFnhG1de2pz8776UamAAGchKW6m6CtbHS9dJNfYG4oTfI2dhQnTfLDAVAVr7DPMQYiaZtg0XFlkGNaifc4Wb9eR4P5JLJsFF3L7NiZUW2Hdx2sQUBGU5RKx2oSR0dfXdKsXOoeH-tWNcRgGMom3l2VvCyTzwqkCbom0tOuMOccmPooroAGMVsiClmg5IXO1T78FNAATxNU1VlG-pNj2BZ7udE5UHT-YvRAcuDEbVwCocNOiEvUskcCfK-YV1heD-m7dBxKdkppbstxtEKDjtAM2XZcGp8uAO_m0SuhHtu2G00]--></g></svg>