<?xml version="1.0" encoding="us-ascii" standalone="no"?><svg xmlns="http://www.w3.org/2000/svg" xmlns:xlink="http://www.w3.org/1999/xlink" contentStyleType="text/css" height="969px" preserveAspectRatio="none" style="width:703px;height:969px;background:#FFFFFF;" version="1.1" viewBox="0 0 703 969" width="703.2px" zoomAndPan="magnify"><defs><filter height="300%" id="f1tw2pu3pawz61" width="300%" x="-1" y="-1"><feGaussianBlur result="blurOut" stdDeviation="1.2"/><feColorMatrix in="blurOut" result="blurOut2" type="matrix" values="0 0 0 0 0 0 0 0 0 0 0 0 0 0 0 0 0 0 .4 0"/><feOffset dx="2.4" dy="2.4" in="blurOut2" result="blurOut3"/><feBlend in="SourceGraphic" in2="blurOut3" mode="normal"/></filter></defs><g><text fill="#000000" font-family="sans-serif" font-size="8.4" font-weight="bold" lengthAdjust="spacing" textLength="93" x="301.05" y="15.0645">US004 - Class Diagram</text><!--class CreateRequestUI--><g id="elem_CreateRequestUI"><rect codeLine="10" fill="#F1F1F1" filter="url(#f1tw2pu3pawz61)" height="28.8" id="CreateRequestUI" rx="1.5" ry="1.5" style="stroke:#181818;stroke-width:0.3;" width="84" x="485.1" y="159.9727"/><ellipse cx="494.1" cy="169.5727" fill="#ADD1B2" rx="6.6" ry="6.6" style="stroke:#181818;stroke-width:0.6;"/><path d="M495.7594,167.0977 Q495.8531,166.9664 495.9656,166.9008 Q496.0781,166.8352 496.2094,166.8352 Q496.4344,166.8352 496.575,166.9945 Q496.7156,167.1445 496.7156,167.5102 L496.7156,168.382 Q496.7156,168.7477 496.575,168.907 Q496.4344,169.0664 496.2094,169.0664 Q496.0031,169.0664 495.8812,168.9445 Q495.7594,168.832 495.6937,168.5227 Q495.6656,168.307 495.5531,168.1945 Q495.3563,167.9695 494.9906,167.8383 Q494.625,167.707 494.25,167.707 Q493.7906,167.707 493.4063,167.9039 Q493.0313,168.1008 492.7313,168.5508 Q492.4406,169.0008 492.4406,169.6195 L492.4406,170.2758 Q492.4406,171.0164 492.975,171.5133 Q493.5094,172.0008 494.4656,172.0008 Q495.0281,172.0008 495.4219,171.8508 Q495.6563,171.757 495.9094,171.4945 Q496.0687,171.3352 496.1531,171.2883 Q496.2469,171.2414 496.3688,171.2414 Q496.5656,171.2414 496.7156,171.4008 Q496.875,171.5508 496.875,171.757 Q496.875,171.9633 496.6688,172.207 Q496.3688,172.5539 495.8906,172.7508 Q495.2438,173.0227 494.4656,173.0227 Q493.5563,173.0227 492.8344,172.6477 Q492.2438,172.3477 491.8312,171.7102 Q491.4188,171.0633 491.4188,170.2945 L491.4188,169.6008 Q491.4188,168.8039 491.7844,168.1195 Q492.1594,167.4258 492.8156,167.0602 Q493.4719,166.6852 494.2125,166.6852 Q494.6531,166.6852 495.0375,166.7883 Q495.4313,166.882 495.7594,167.0977 Z " fill="#000000"/><text fill="#000000" font-family="sans-serif" font-size="8.4" lengthAdjust="spacing" textLength="64.8" x="502.5" y="173.0508">CreateRequestUI</text><line style="stroke:#181818;stroke-width:0.3;" x1="485.7" x2="568.5" y1="179.1727" y2="179.1727"/><line style="stroke:#181818;stroke-width:0.3;" x1="485.7" x2="568.5" y1="183.9727" y2="183.9727"/></g><!--class CreateRequestController--><g id="elem_CreateRequestController"><rect codeLine="14" fill="#F1F1F1" filter="url(#f1tw2pu3pawz61)" height="174.0445" id="CreateRequestController" rx="1.5" ry="1.5" style="stroke:#181818;stroke-width:0.3;" width="283.2" x="318.9" y="290.7727"/><ellipse cx="410.55" cy="300.3727" fill="#ADD1B2" rx="6.6" ry="6.6" style="stroke:#181818;stroke-width:0.6;"/><path d="M412.2094,297.8977 Q412.3031,297.7664 412.4156,297.7008 Q412.5281,297.6352 412.6594,297.6352 Q412.8844,297.6352 413.025,297.7945 Q413.1656,297.9445 413.1656,298.3102 L413.1656,299.182 Q413.1656,299.5477 413.025,299.707 Q412.8844,299.8664 412.6594,299.8664 Q412.4531,299.8664 412.3313,299.7445 Q412.2094,299.632 412.1438,299.3227 Q412.1156,299.107 412.0031,298.9945 Q411.8063,298.7695 411.4406,298.6383 Q411.075,298.507 410.7,298.507 Q410.2406,298.507 409.8563,298.7039 Q409.4813,298.9008 409.1813,299.3508 Q408.8906,299.8008 408.8906,300.4195 L408.8906,301.0758 Q408.8906,301.8164 409.425,302.3133 Q409.9594,302.8008 410.9156,302.8008 Q411.4781,302.8008 411.8719,302.6508 Q412.1063,302.557 412.3594,302.2945 Q412.5188,302.1352 412.6031,302.0883 Q412.6969,302.0414 412.8187,302.0414 Q413.0156,302.0414 413.1656,302.2008 Q413.325,302.3508 413.325,302.557 Q413.325,302.7633 413.1188,303.007 Q412.8187,303.3539 412.3406,303.5508 Q411.6937,303.8227 410.9156,303.8227 Q410.0062,303.8227 409.2844,303.4477 Q408.6937,303.1477 408.2813,302.5102 Q407.8688,301.8633 407.8688,301.0945 L407.8688,300.4008 Q407.8688,299.6039 408.2344,298.9195 Q408.6094,298.2258 409.2656,297.8602 Q409.9219,297.4852 410.6625,297.4852 Q411.1031,297.4852 411.4875,297.5883 Q411.8812,297.682 412.2094,297.8977 Z " fill="#000000"/><text fill="#000000" font-family="sans-serif" font-size="8.4" lengthAdjust="spacing" textLength="94.8" x="422.85" y="303.8508">CreateRequestController</text><line style="stroke:#181818;stroke-width:0.3;" x1="319.5" x2="601.5" y1="309.9727" y2="309.9727"/><line style="stroke:#181818;stroke-width:0.3;" x1="319.5" x2="601.5" y1="314.7727" y2="314.7727"/><text fill="#000000" font-family="sans-serif" font-size="8.4" lengthAdjust="spacing" textLength="96" x="322.5" y="326.2371">+getRequestCategories()</text><text fill="#000000" font-family="sans-serif" font-size="8.4" lengthAdjust="spacing" textLength="74.4" x="322.5" y="337.4098">+getPropertyType()</text><text fill="#000000" font-family="sans-serif" font-size="8.4" lengthAdjust="spacing" textLength="73.8" x="322.5" y="348.5824">+setPropertyType()</text><text fill="#000000" font-family="sans-serif" font-size="8.4" lengthAdjust="spacing" textLength="171" x="322.5" y="359.7551">+createRequest(requestType, currentOwner)</text><text fill="#000000" font-family="sans-serif" font-size="8.4" lengthAdjust="spacing" textLength="276" x="322.5" y="370.9277">+createProperty(area , location , distanceCenter , price , photographList)</text><text fill="#000000" font-family="sans-serif" font-size="8.4" lengthAdjust="spacing" textLength="92.4" x="322.5" y="382.1004">+createPhotographList()</text><text fill="#000000" font-family="sans-serif" font-size="8.4" lengthAdjust="spacing" textLength="147" x="322.5" y="393.273">+setContactDuration(contractDuration)</text><text fill="#000000" font-family="sans-serif" font-size="8.4" lengthAdjust="spacing" textLength="270.6" x="322.5" y="404.4457">+createResidence(bedrooms , bathrooms , parkingSpaces , equipment)</text><text fill="#000000" font-family="sans-serif" font-size="8.4" lengthAdjust="spacing" textLength="166.2" x="322.5" y="415.6184">+createHouse(basement, loft, sunExposure)</text><text fill="#000000" font-family="sans-serif" font-size="8.4" lengthAdjust="spacing" textLength="49.8" x="322.5" y="426.791">+getBranch()</text><text fill="#000000" font-family="sans-serif" font-size="8.4" lengthAdjust="spacing" textLength="107.4" x="322.5" y="437.9637">+getAgentList(selectBranch)</text><text fill="#000000" font-family="sans-serif" font-size="8.4" lengthAdjust="spacing" textLength="85.2" x="322.5" y="449.1363">+setDate(currentDate)</text><text fill="#000000" font-family="sans-serif" font-size="8.4" lengthAdjust="spacing" textLength="88.8" x="322.5" y="460.309">+setState(currentState)</text></g><!--class Repositories--><g id="elem_Repositories"><rect codeLine="34" fill="#F1F1F1" filter="url(#f1tw2pu3pawz61)" height="107.0086" id="Repositories" rx="1.5" ry="1.5" style="stroke:#181818;stroke-width:0.3;" width="122.4" x="125.7" y="501.3727"/><ellipse cx="160.65" cy="510.9727" fill="#ADD1B2" rx="6.6" ry="6.6" style="stroke:#181818;stroke-width:0.6;"/><path d="M162.3094,508.4977 Q162.4031,508.3664 162.5156,508.3008 Q162.6281,508.2352 162.7594,508.2352 Q162.9844,508.2352 163.125,508.3945 Q163.2656,508.5445 163.2656,508.9102 L163.2656,509.782 Q163.2656,510.1477 163.125,510.307 Q162.9844,510.4664 162.7594,510.4664 Q162.5531,510.4664 162.4313,510.3445 Q162.3094,510.232 162.2438,509.9227 Q162.2156,509.707 162.1031,509.5945 Q161.9063,509.3695 161.5406,509.2383 Q161.175,509.107 160.8,509.107 Q160.3406,509.107 159.9562,509.3039 Q159.5812,509.5008 159.2813,509.9508 Q158.9906,510.4008 158.9906,511.0195 L158.9906,511.6758 Q158.9906,512.4164 159.525,512.9133 Q160.0594,513.4008 161.0156,513.4008 Q161.5781,513.4008 161.9719,513.2508 Q162.2062,513.157 162.4594,512.8945 Q162.6188,512.7352 162.7031,512.6883 Q162.7969,512.6414 162.9188,512.6414 Q163.1156,512.6414 163.2656,512.8008 Q163.425,512.9508 163.425,513.157 Q163.425,513.3633 163.2188,513.607 Q162.9188,513.9539 162.4406,514.1508 Q161.7938,514.4227 161.0156,514.4227 Q160.1063,514.4227 159.3844,514.0477 Q158.7938,513.7477 158.3813,513.1102 Q157.9688,512.4633 157.9688,511.6945 L157.9688,511.0008 Q157.9688,510.2039 158.3344,509.5195 Q158.7094,508.8258 159.3656,508.4602 Q160.0219,508.0852 160.7625,508.0852 Q161.2031,508.0852 161.5875,508.1883 Q161.9813,508.282 162.3094,508.4977 Z " fill="#000000"/><text fill="#000000" font-family="sans-serif" font-size="8.4" lengthAdjust="spacing" textLength="47.4" x="172.95" y="514.4508">Repositories</text><line style="stroke:#181818;stroke-width:0.3;" x1="126.3" x2="247.5" y1="520.5727" y2="520.5727"/><text fill="#000000" font-family="sans-serif" font-size="8.4" lengthAdjust="spacing" textLength="95.4" x="129.3" y="532.0371">-PropertyTypeRepository</text><text fill="#000000" font-family="sans-serif" font-size="8.4" lengthAdjust="spacing" textLength="94.8" x="129.3" y="543.2098">-RequestTypeRepository</text><text fill="#000000" font-family="sans-serif" font-size="8.4" lengthAdjust="spacing" textLength="70.8" x="129.3" y="554.3824">-BranchRepository</text><line style="stroke:#181818;stroke-width:0.3;" x1="126.3" x2="247.5" y1="558.8906" y2="558.8906"/><text fill="#000000" font-family="sans-serif" font-size="8.4" lengthAdjust="spacing" textLength="54.6" x="129.3" y="570.3551">+getInstance()</text><text fill="#000000" font-family="sans-serif" font-size="8.4" lengthAdjust="spacing" textLength="114.6" x="129.3" y="581.5277">+getRequestTypeRepository()</text><text fill="#000000" font-family="sans-serif" font-size="8.4" lengthAdjust="spacing" textLength="115.2" x="129.3" y="592.7004">+getPropertyTypeRepository()</text><text fill="#000000" font-family="sans-serif" font-size="8.4" lengthAdjust="spacing" textLength="85.8" x="129.3" y="603.873">+getBrachRepository()</text></g><!--class PropertyTypeRepository--><g id="elem_PropertyTypeRepository"><rect codeLine="44" fill="#F1F1F1" filter="url(#f1tw2pu3pawz61)" height="51.1453" id="PropertyTypeRepository" rx="1.5" ry="1.5" style="stroke:#181818;stroke-width:0.3;" width="124.2" x="151.8" y="722.7727"/><ellipse cx="166.47" cy="732.3727" fill="#ADD1B2" rx="6.6" ry="6.6" style="stroke:#181818;stroke-width:0.6;"/><path d="M168.1294,729.8977 Q168.2231,729.7664 168.3356,729.7008 Q168.4481,729.6352 168.5794,729.6352 Q168.8044,729.6352 168.945,729.7945 Q169.0856,729.9445 169.0856,730.3102 L169.0856,731.182 Q169.0856,731.5477 168.945,731.707 Q168.8044,731.8664 168.5794,731.8664 Q168.3731,731.8664 168.2513,731.7445 Q168.1294,731.632 168.0638,731.3227 Q168.0356,731.107 167.9231,730.9945 Q167.7263,730.7695 167.3606,730.6383 Q166.995,730.507 166.62,730.507 Q166.1606,730.507 165.7762,730.7039 Q165.4012,730.9008 165.1013,731.3508 Q164.8106,731.8008 164.8106,732.4195 L164.8106,733.0758 Q164.8106,733.8164 165.345,734.3133 Q165.8794,734.8008 166.8356,734.8008 Q167.3981,734.8008 167.7919,734.6508 Q168.0262,734.557 168.2794,734.2945 Q168.4388,734.1352 168.5231,734.0883 Q168.6169,734.0414 168.7387,734.0414 Q168.9356,734.0414 169.0856,734.2008 Q169.245,734.3508 169.245,734.557 Q169.245,734.7633 169.0388,735.007 Q168.7387,735.3539 168.2606,735.5508 Q167.6137,735.8227 166.8356,735.8227 Q165.9262,735.8227 165.2044,735.4477 Q164.6137,735.1477 164.2013,734.5102 Q163.7888,733.8633 163.7888,733.0945 L163.7888,732.4008 Q163.7888,731.6039 164.1544,730.9195 Q164.5294,730.2258 165.1856,729.8602 Q165.8419,729.4852 166.5825,729.4852 Q167.0231,729.4852 167.4075,729.5883 Q167.8012,729.682 168.1294,729.8977 Z " fill="#000000"/><text fill="#000000" font-family="sans-serif" font-size="8.4" lengthAdjust="spacing" textLength="92.4" x="176.13" y="735.8508">PropertyTypeRepository</text><line style="stroke:#181818;stroke-width:0.3;" x1="152.4" x2="275.4" y1="741.9727" y2="741.9727"/><text fill="#000000" font-family="sans-serif" font-size="8.4" lengthAdjust="spacing" textLength="117" x="155.4" y="753.4371">-propertyTypeList: List&lt;String&gt;</text><line style="stroke:#181818;stroke-width:0.3;" x1="152.4" x2="275.4" y1="757.9453" y2="757.9453"/><text fill="#000000" font-family="sans-serif" font-size="8.4" lengthAdjust="spacing" textLength="74.4" x="155.4" y="769.4098">+getPropertyType()</text></g><!--class BranchRepository--><g id="elem_BranchRepository"><rect codeLine="49" fill="#F1F1F1" filter="url(#f1tw2pu3pawz61)" height="51.1453" id="BranchRepository" rx="1.5" ry="1.5" style="stroke:#181818;stroke-width:0.3;" width="99.6" x="269.1" y="529.2727"/><ellipse cx="283.77" cy="538.8727" fill="#ADD1B2" rx="6.6" ry="6.6" style="stroke:#181818;stroke-width:0.6;"/><path d="M285.4294,536.3977 Q285.5231,536.2664 285.6356,536.2008 Q285.7481,536.1352 285.8794,536.1352 Q286.1044,536.1352 286.245,536.2945 Q286.3856,536.4445 286.3856,536.8102 L286.3856,537.682 Q286.3856,538.0477 286.245,538.207 Q286.1044,538.3664 285.8794,538.3664 Q285.6731,538.3664 285.5513,538.2445 Q285.4294,538.132 285.3638,537.8227 Q285.3356,537.607 285.2231,537.4945 Q285.0263,537.2695 284.6606,537.1383 Q284.295,537.007 283.92,537.007 Q283.4606,537.007 283.0762,537.2039 Q282.7012,537.4008 282.4013,537.8508 Q282.1106,538.3008 282.1106,538.9195 L282.1106,539.5758 Q282.1106,540.3164 282.645,540.8133 Q283.1794,541.3008 284.1356,541.3008 Q284.6981,541.3008 285.0919,541.1508 Q285.3262,541.057 285.5794,540.7945 Q285.7388,540.6352 285.8231,540.5883 Q285.9169,540.5414 286.0388,540.5414 Q286.2356,540.5414 286.3856,540.7008 Q286.545,540.8508 286.545,541.057 Q286.545,541.2633 286.3388,541.507 Q286.0388,541.8539 285.5606,542.0508 Q284.9138,542.3227 284.1356,542.3227 Q283.2263,542.3227 282.5044,541.9477 Q281.9138,541.6477 281.5012,541.0102 Q281.0888,540.3633 281.0888,539.5945 L281.0888,538.9008 Q281.0888,538.1039 281.4544,537.4195 Q281.8294,536.7258 282.4856,536.3602 Q283.1419,535.9852 283.8825,535.9852 Q284.3231,535.9852 284.7075,536.0883 Q285.1013,536.182 285.4294,536.3977 Z " fill="#000000"/><text fill="#000000" font-family="sans-serif" font-size="8.4" lengthAdjust="spacing" textLength="67.8" x="293.43" y="542.3508">BranchRepository</text><line style="stroke:#181818;stroke-width:0.3;" x1="269.7" x2="368.1" y1="548.4727" y2="548.4727"/><text fill="#000000" font-family="sans-serif" font-size="8.4" lengthAdjust="spacing" textLength="92.4" x="272.7" y="559.9371">-brachList: List&lt;Branch&gt;</text><line style="stroke:#181818;stroke-width:0.3;" x1="269.7" x2="368.1" y1="564.4453" y2="564.4453"/><text fill="#000000" font-family="sans-serif" font-size="8.4" lengthAdjust="spacing" textLength="63" x="272.7" y="575.9098">+getBranchList()</text></g><!--class RequestCategoryRepository--><g id="elem_RequestCategoryRepository"><rect codeLine="54" fill="#F1F1F1" filter="url(#f1tw2pu3pawz61)" height="51.1453" id="RequestCategoryRepository" rx="1.5" ry="1.5" style="stroke:#181818;stroke-width:0.3;" width="126.6" x="4.2" y="722.7727"/><ellipse cx="13.2" cy="732.3727" fill="#ADD1B2" rx="6.6" ry="6.6" style="stroke:#181818;stroke-width:0.6;"/><path d="M14.8594,729.8977 Q14.9531,729.7664 15.0656,729.7008 Q15.1781,729.6352 15.3094,729.6352 Q15.5344,729.6352 15.675,729.7945 Q15.8156,729.9445 15.8156,730.3102 L15.8156,731.182 Q15.8156,731.5477 15.675,731.707 Q15.5344,731.8664 15.3094,731.8664 Q15.1031,731.8664 14.9813,731.7445 Q14.8594,731.632 14.7938,731.3227 Q14.7656,731.107 14.6531,730.9945 Q14.4562,730.7695 14.0906,730.6383 Q13.725,730.507 13.35,730.507 Q12.8906,730.507 12.5063,730.7039 Q12.1313,730.9008 11.8312,731.3508 Q11.5406,731.8008 11.5406,732.4195 L11.5406,733.0758 Q11.5406,733.8164 12.075,734.3133 Q12.6094,734.8008 13.5656,734.8008 Q14.1281,734.8008 14.5219,734.6508 Q14.7563,734.557 15.0094,734.2945 Q15.1688,734.1352 15.2531,734.0883 Q15.3469,734.0414 15.4688,734.0414 Q15.6656,734.0414 15.8156,734.2008 Q15.975,734.3508 15.975,734.557 Q15.975,734.7633 15.7687,735.007 Q15.4688,735.3539 14.9906,735.5508 Q14.3438,735.8227 13.5656,735.8227 Q12.6563,735.8227 11.9344,735.4477 Q11.3438,735.1477 10.9313,734.5102 Q10.5187,733.8633 10.5187,733.0945 L10.5187,732.4008 Q10.5187,731.6039 10.8844,730.9195 Q11.2594,730.2258 11.9156,729.8602 Q12.5719,729.4852 13.3125,729.4852 Q13.7531,729.4852 14.1375,729.5883 Q14.5313,729.682 14.8594,729.8977 Z " fill="#000000"/><text fill="#000000" font-family="sans-serif" font-size="8.4" lengthAdjust="spacing" textLength="107.4" x="21.6" y="735.8508">RequestCategoryRepository</text><line style="stroke:#181818;stroke-width:0.3;" x1="4.8" x2="130.2" y1="741.9727" y2="741.9727"/><text fill="#000000" font-family="sans-serif" font-size="8.4" lengthAdjust="spacing" textLength="114" x="7.8" y="753.4371">-requestTypeList: List&lt;String&gt;</text><line style="stroke:#181818;stroke-width:0.3;" x1="4.8" x2="130.2" y1="757.9453" y2="757.9453"/><text fill="#000000" font-family="sans-serif" font-size="8.4" lengthAdjust="spacing" textLength="73.8" x="7.8" y="769.4098">+getRequestType()</text></g><!--class Branch--><g id="elem_Branch"><rect codeLine="59" fill="#F1F1F1" filter="url(#f1tw2pu3pawz61)" height="73.4906" id="Branch" rx="1.5" ry="1.5" style="stroke:#181818;stroke-width:0.3;" width="141" x="390" y="518.1727"/><ellipse cx="444.45" cy="527.7727" fill="#ADD1B2" rx="6.6" ry="6.6" style="stroke:#181818;stroke-width:0.6;"/><path d="M446.1094,525.2977 Q446.2031,525.1664 446.3156,525.1008 Q446.4281,525.0352 446.5594,525.0352 Q446.7844,525.0352 446.925,525.1945 Q447.0656,525.3445 447.0656,525.7102 L447.0656,526.582 Q447.0656,526.9477 446.925,527.107 Q446.7844,527.2664 446.5594,527.2664 Q446.3531,527.2664 446.2313,527.1445 Q446.1094,527.032 446.0438,526.7227 Q446.0156,526.507 445.9031,526.3945 Q445.7063,526.1695 445.3406,526.0383 Q444.975,525.907 444.6,525.907 Q444.1406,525.907 443.7562,526.1039 Q443.3812,526.3008 443.0813,526.7508 Q442.7906,527.2008 442.7906,527.8195 L442.7906,528.4758 Q442.7906,529.2164 443.325,529.7133 Q443.8594,530.2008 444.8156,530.2008 Q445.3781,530.2008 445.7719,530.0508 Q446.0062,529.957 446.2594,529.6945 Q446.4188,529.5352 446.5031,529.4883 Q446.5969,529.4414 446.7188,529.4414 Q446.9156,529.4414 447.0656,529.6008 Q447.225,529.7508 447.225,529.957 Q447.225,530.1633 447.0188,530.407 Q446.7188,530.7539 446.2406,530.9508 Q445.5938,531.2227 444.8156,531.2227 Q443.9063,531.2227 443.1844,530.8477 Q442.5938,530.5477 442.1813,529.9102 Q441.7688,529.2633 441.7688,528.4945 L441.7688,527.8008 Q441.7688,527.0039 442.1344,526.3195 Q442.5094,525.6258 443.1656,525.2602 Q443.8219,524.8852 444.5625,524.8852 Q445.0031,524.8852 445.3875,524.9883 Q445.7813,525.082 446.1094,525.2977 Z " fill="#000000"/><text fill="#000000" font-family="sans-serif" font-size="8.4" lengthAdjust="spacing" textLength="27" x="456.75" y="531.2508">Branch</text><line style="stroke:#181818;stroke-width:0.3;" x1="390.6" x2="530.4" y1="537.3727" y2="537.3727"/><text fill="#000000" font-family="sans-serif" font-size="8.4" lengthAdjust="spacing" textLength="47.4" x="393.6" y="548.8371">-List&lt;agent&gt;</text><line style="stroke:#181818;stroke-width:0.3;" x1="390.6" x2="530.4" y1="553.3453" y2="553.3453"/><text fill="#000000" font-family="sans-serif" font-size="8.4" lengthAdjust="spacing" textLength="133.8" x="393.6" y="564.8098">+createRequest(requestType,user)</text><text fill="#000000" font-family="sans-serif" font-size="8.4" lengthAdjust="spacing" textLength="85.8" x="393.6" y="575.9824">+addRequest(request)</text><text fill="#000000" font-family="sans-serif" font-size="8.4" lengthAdjust="spacing" textLength="117" x="393.6" y="587.1551">+getAgentList(selectedBranch)</text></g><!--class Request--><g id="elem_Request"><rect codeLine="66" fill="#F1F1F1" filter="url(#f1tw2pu3pawz61)" height="185.2172" id="Request" rx="1.5" ry="1.5" style="stroke:#181818;stroke-width:0.3;" width="273.6" x="323.7" y="655.5727"/><ellipse cx="442.05" cy="665.1727" fill="#ADD1B2" rx="6.6" ry="6.6" style="stroke:#181818;stroke-width:0.6;"/><path d="M443.7094,662.6977 Q443.8031,662.5664 443.9156,662.5008 Q444.0281,662.4352 444.1594,662.4352 Q444.3844,662.4352 444.525,662.5945 Q444.6656,662.7445 444.6656,663.1102 L444.6656,663.982 Q444.6656,664.3477 444.525,664.507 Q444.3844,664.6664 444.1594,664.6664 Q443.9531,664.6664 443.8313,664.5445 Q443.7094,664.432 443.6438,664.1227 Q443.6156,663.907 443.5031,663.7945 Q443.3063,663.5695 442.9406,663.4383 Q442.575,663.307 442.2,663.307 Q441.7406,663.307 441.3563,663.5039 Q440.9813,663.7008 440.6813,664.1508 Q440.3906,664.6008 440.3906,665.2195 L440.3906,665.8758 Q440.3906,666.6164 440.925,667.1133 Q441.4594,667.6008 442.4156,667.6008 Q442.9781,667.6008 443.3719,667.4508 Q443.6063,667.357 443.8594,667.0945 Q444.0188,666.9352 444.1031,666.8883 Q444.1969,666.8414 444.3187,666.8414 Q444.5156,666.8414 444.6656,667.0008 Q444.825,667.1508 444.825,667.357 Q444.825,667.5633 444.6188,667.807 Q444.3187,668.1539 443.8406,668.3508 Q443.1937,668.6227 442.4156,668.6227 Q441.5062,668.6227 440.7844,668.2477 Q440.1937,667.9477 439.7813,667.3102 Q439.3688,666.6633 439.3688,665.8945 L439.3688,665.2008 Q439.3688,664.4039 439.7344,663.7195 Q440.1094,663.0258 440.7656,662.6602 Q441.4219,662.2852 442.1625,662.2852 Q442.6031,662.2852 442.9875,662.3883 Q443.3812,662.482 443.7094,662.6977 Z " fill="#000000"/><text fill="#000000" font-family="sans-serif" font-size="8.4" lengthAdjust="spacing" textLength="31.8" x="454.35" y="668.6508">Request</text><line style="stroke:#181818;stroke-width:0.3;" x1="324.3" x2="596.7" y1="674.7727" y2="674.7727"/><text fill="#000000" font-family="sans-serif" font-size="8.4" lengthAdjust="spacing" textLength="87.6" x="327.3" y="686.2371">-requestState: Boolean</text><text fill="#000000" font-family="sans-serif" font-size="8.4" lengthAdjust="spacing" textLength="83.4" x="327.3" y="697.4098">-propertyType : String</text><text fill="#000000" font-family="sans-serif" font-size="8.4" lengthAdjust="spacing" textLength="54" x="327.3" y="708.5824">-area : Integer</text><text fill="#000000" font-family="sans-serif" font-size="8.4" lengthAdjust="spacing" textLength="61.8" x="327.3" y="719.7551">-location : String</text><text fill="#000000" font-family="sans-serif" font-size="8.4" lengthAdjust="spacing" textLength="93.6" x="327.3" y="730.9277">-distanceCenter : double</text><text fill="#000000" font-family="sans-serif" font-size="8.4" lengthAdjust="spacing" textLength="55.2" x="327.3" y="742.1004">-price : integer</text><text fill="#000000" font-family="sans-serif" font-size="8.4" lengthAdjust="spacing" textLength="82.8" x="327.3" y="753.273">-List&lt;photographList&gt;</text><text fill="#000000" font-family="sans-serif" font-size="8.4" lengthAdjust="spacing" textLength="46.8" x="327.3" y="764.4457">-date: String</text><text fill="#000000" font-family="sans-serif" font-size="8.4" lengthAdjust="spacing" textLength="49.2" x="327.3" y="775.6184">-user: Owner</text><line style="stroke:#181818;stroke-width:0.3;" x1="324.3" x2="596.7" y1="780.1266" y2="780.1266"/><text fill="#000000" font-family="sans-serif" font-size="8.4" lengthAdjust="spacing" textLength="124.8" x="327.3" y="791.591">+setPropertyType(propertyType)</text><text fill="#000000" font-family="sans-serif" font-size="8.4" lengthAdjust="spacing" textLength="266.4" x="327.3" y="802.7637">+createProperty(area, location, distanceCenter, price, photographList)</text><text fill="#000000" font-family="sans-serif" font-size="8.4" lengthAdjust="spacing" textLength="89.4" x="327.3" y="813.9363">+addProperty(property)</text><text fill="#000000" font-family="sans-serif" font-size="8.4" lengthAdjust="spacing" textLength="263.4" x="327.3" y="825.109">+createResidence(bedrooms, bathrooms, parkingSpaces, equipment)</text><text fill="#000000" font-family="sans-serif" font-size="8.4" lengthAdjust="spacing" textLength="166.2" x="327.3" y="836.2816">+createHouse(basement, loft, sunExposure)</text></g><!--class Employee--><g id="elem_Employee"><rect codeLine="83" fill="#F1F1F1" filter="url(#f1tw2pu3pawz61)" height="84.6633" id="Employee" rx="1.5" ry="1.5" style="stroke:#181818;stroke-width:0.3;" width="114" x="582.3" y="512.4727"/><ellipse cx="618.15" cy="522.0727" fill="#ADD1B2" rx="6.6" ry="6.6" style="stroke:#181818;stroke-width:0.6;"/><path d="M619.8094,519.5977 Q619.9031,519.4664 620.0156,519.4008 Q620.1281,519.3352 620.2594,519.3352 Q620.4844,519.3352 620.625,519.4945 Q620.7656,519.6445 620.7656,520.0102 L620.7656,520.882 Q620.7656,521.2477 620.625,521.407 Q620.4844,521.5664 620.2594,521.5664 Q620.0531,521.5664 619.9313,521.4445 Q619.8094,521.332 619.7438,521.0227 Q619.7156,520.807 619.6031,520.6945 Q619.4063,520.4695 619.0406,520.3383 Q618.675,520.207 618.3,520.207 Q617.8406,520.207 617.4563,520.4039 Q617.0813,520.6008 616.7813,521.0508 Q616.4906,521.5008 616.4906,522.1195 L616.4906,522.7758 Q616.4906,523.5164 617.025,524.0133 Q617.5594,524.5008 618.5156,524.5008 Q619.0781,524.5008 619.4719,524.3508 Q619.7063,524.257 619.9594,523.9945 Q620.1188,523.8352 620.2031,523.7883 Q620.2969,523.7414 620.4187,523.7414 Q620.6156,523.7414 620.7656,523.9008 Q620.925,524.0508 620.925,524.257 Q620.925,524.4633 620.7188,524.707 Q620.4187,525.0539 619.9406,525.2508 Q619.2937,525.5227 618.5156,525.5227 Q617.6062,525.5227 616.8844,525.1477 Q616.2937,524.8477 615.8813,524.2102 Q615.4688,523.5633 615.4688,522.7945 L615.4688,522.1008 Q615.4688,521.3039 615.8344,520.6195 Q616.2094,519.9258 616.8656,519.5602 Q617.5219,519.1852 618.2625,519.1852 Q618.7031,519.1852 619.0875,519.2883 Q619.4812,519.382 619.8094,519.5977 Z " fill="#000000"/><text fill="#000000" font-family="sans-serif" font-size="8.4" lengthAdjust="spacing" textLength="37.2" x="630.45" y="525.5508">Employee</text><line style="stroke:#181818;stroke-width:0.3;" x1="582.9" x2="695.7" y1="531.6727" y2="531.6727"/><text fill="#000000" font-family="sans-serif" font-size="8.4" lengthAdjust="spacing" textLength="51" x="585.9" y="543.1371">-name: String</text><text fill="#000000" font-family="sans-serif" font-size="8.4" lengthAdjust="spacing" textLength="96.6" x="585.9" y="554.3098">-passportNumber: integer</text><text fill="#000000" font-family="sans-serif" font-size="8.4" lengthAdjust="spacing" textLength="72.6" x="585.9" y="565.4824">-taxNumber:: String</text><text fill="#000000" font-family="sans-serif" font-size="8.4" lengthAdjust="spacing" textLength="87.6" x="585.9" y="576.6551">-phoneNumber: integer</text><text fill="#000000" font-family="sans-serif" font-size="8.4" lengthAdjust="spacing" textLength="106.8" x="585.9" y="587.8277">-address: Address -property</text><line style="stroke:#181818;stroke-width:0.3;" x1="582.9" x2="695.7" y1="592.3359" y2="592.3359"/></g><!--class House--><g id="elem_House"><rect codeLine="91" fill="#F1F1F1" filter="url(#f1tw2pu3pawz61)" height="62.318" id="House" rx="1.5" ry="1.5" style="stroke:#181818;stroke-width:0.3;" width="86.4" x="303.9" y="888.6727"/><ellipse cx="332.55" cy="898.2727" fill="#ADD1B2" rx="6.6" ry="6.6" style="stroke:#181818;stroke-width:0.6;"/><path d="M334.2094,895.7977 Q334.3031,895.6664 334.4156,895.6008 Q334.5281,895.5352 334.6594,895.5352 Q334.8844,895.5352 335.025,895.6945 Q335.1656,895.8445 335.1656,896.2102 L335.1656,897.082 Q335.1656,897.4477 335.025,897.607 Q334.8844,897.7664 334.6594,897.7664 Q334.4531,897.7664 334.3313,897.6445 Q334.2094,897.532 334.1438,897.2227 Q334.1156,897.007 334.0031,896.8945 Q333.8063,896.6695 333.4406,896.5383 Q333.075,896.407 332.7,896.407 Q332.2406,896.407 331.8563,896.6039 Q331.4813,896.8008 331.1813,897.2508 Q330.8906,897.7008 330.8906,898.3195 L330.8906,898.9758 Q330.8906,899.7164 331.425,900.2133 Q331.9594,900.7008 332.9156,900.7008 Q333.4781,900.7008 333.8719,900.5508 Q334.1063,900.457 334.3594,900.1945 Q334.5188,900.0352 334.6031,899.9883 Q334.6969,899.9414 334.8187,899.9414 Q335.0156,899.9414 335.1656,900.1008 Q335.325,900.2508 335.325,900.457 Q335.325,900.6633 335.1188,900.907 Q334.8187,901.2539 334.3406,901.4508 Q333.6937,901.7227 332.9156,901.7227 Q332.0062,901.7227 331.2844,901.3477 Q330.6937,901.0477 330.2813,900.4102 Q329.8688,899.7633 329.8688,898.9945 L329.8688,898.3008 Q329.8688,897.5039 330.2344,896.8195 Q330.6094,896.1258 331.2656,895.7602 Q331.9219,895.3852 332.6625,895.3852 Q333.1031,895.3852 333.4875,895.4883 Q333.8812,895.582 334.2094,895.7977 Z " fill="#000000"/><text fill="#000000" font-family="sans-serif" font-size="8.4" lengthAdjust="spacing" textLength="24" x="344.85" y="901.7508">House</text><line style="stroke:#181818;stroke-width:0.3;" x1="304.5" x2="389.7" y1="907.8727" y2="907.8727"/><text fill="#000000" font-family="sans-serif" font-size="8.4" lengthAdjust="spacing" textLength="76.2" x="307.5" y="919.3371">-basement: Boolean</text><text fill="#000000" font-family="sans-serif" font-size="8.4" lengthAdjust="spacing" textLength="50.4" x="307.5" y="930.5098">-loft: Boolean</text><text fill="#000000" font-family="sans-serif" font-size="8.4" lengthAdjust="spacing" textLength="79.2" x="307.5" y="941.6824">-sunExposure: String</text><line style="stroke:#181818;stroke-width:0.3;" x1="304.5" x2="389.7" y1="946.1906" y2="946.1906"/></g><!--class Residence--><g id="elem_Residence"><rect codeLine="97" fill="#F1F1F1" filter="url(#f1tw2pu3pawz61)" height="73.4906" id="Residence" rx="1.5" ry="1.5" style="stroke:#181818;stroke-width:0.3;" width="97.8" x="411.6" y="883.2727"/><ellipse cx="437.88" cy="892.8727" fill="#ADD1B2" rx="6.6" ry="6.6" style="stroke:#181818;stroke-width:0.6;"/><path d="M439.5394,890.3977 Q439.6331,890.2664 439.7456,890.2008 Q439.8581,890.1352 439.9894,890.1352 Q440.2144,890.1352 440.355,890.2945 Q440.4956,890.4445 440.4956,890.8102 L440.4956,891.682 Q440.4956,892.0477 440.355,892.207 Q440.2144,892.3664 439.9894,892.3664 Q439.7831,892.3664 439.6612,892.2445 Q439.5394,892.132 439.4737,891.8227 Q439.4456,891.607 439.3331,891.4945 Q439.1362,891.2695 438.7706,891.1383 Q438.405,891.007 438.03,891.007 Q437.5706,891.007 437.1863,891.2039 Q436.8113,891.4008 436.5112,891.8508 Q436.2206,892.3008 436.2206,892.9195 L436.2206,893.5758 Q436.2206,894.3164 436.755,894.8133 Q437.2894,895.3008 438.2456,895.3008 Q438.8081,895.3008 439.2019,895.1508 Q439.4363,895.057 439.6894,894.7945 Q439.8487,894.6352 439.9331,894.5883 Q440.0269,894.5414 440.1487,894.5414 Q440.3456,894.5414 440.4956,894.7008 Q440.655,894.8508 440.655,895.057 Q440.655,895.2633 440.4487,895.507 Q440.1487,895.8539 439.6706,896.0508 Q439.0237,896.3227 438.2456,896.3227 Q437.3362,896.3227 436.6144,895.9477 Q436.0237,895.6477 435.6113,895.0102 Q435.1987,894.3633 435.1987,893.5945 L435.1987,892.9008 Q435.1987,892.1039 435.5644,891.4195 Q435.9394,890.7258 436.5956,890.3602 Q437.2519,889.9852 437.9925,889.9852 Q438.4331,889.9852 438.8175,890.0883 Q439.2112,890.182 439.5394,890.3977 Z " fill="#000000"/><text fill="#000000" font-family="sans-serif" font-size="8.4" lengthAdjust="spacing" textLength="40.2" x="450.12" y="896.3508">Residence</text><line style="stroke:#181818;stroke-width:0.3;" x1="412.2" x2="508.8" y1="902.4727" y2="902.4727"/><text fill="#000000" font-family="sans-serif" font-size="8.4" lengthAdjust="spacing" textLength="72" x="415.2" y="913.9371">-bedrooms: Integer</text><text fill="#000000" font-family="sans-serif" font-size="8.4" lengthAdjust="spacing" textLength="74.4" x="415.2" y="925.1098">-bathrooms: Integer</text><text fill="#000000" font-family="sans-serif" font-size="8.4" lengthAdjust="spacing" textLength="90.6" x="415.2" y="936.2824">-parkingSpaces: Integer</text><text fill="#000000" font-family="sans-serif" font-size="8.4" lengthAdjust="spacing" textLength="69.6" x="415.2" y="947.4551">-equipment: String</text><line style="stroke:#181818;stroke-width:0.3;" x1="412.2" x2="508.8" y1="951.9633" y2="951.9633"/></g><!--class Property--><g id="elem_Property"><rect codeLine="104" fill="#F1F1F1" filter="url(#f1tw2pu3pawz61)" height="84.6633" id="Property" rx="1.5" ry="1.5" style="stroke:#181818;stroke-width:0.3;" width="103.8" x="530.4" y="877.5727"/><ellipse cx="563.55" cy="887.1727" fill="#ADD1B2" rx="6.6" ry="6.6" style="stroke:#181818;stroke-width:0.6;"/><path d="M565.2094,884.6977 Q565.3031,884.5664 565.4156,884.5008 Q565.5281,884.4352 565.6594,884.4352 Q565.8844,884.4352 566.025,884.5945 Q566.1656,884.7445 566.1656,885.1102 L566.1656,885.982 Q566.1656,886.3477 566.025,886.507 Q565.8844,886.6664 565.6594,886.6664 Q565.4531,886.6664 565.3313,886.5445 Q565.2094,886.432 565.1438,886.1227 Q565.1156,885.907 565.0031,885.7945 Q564.8063,885.5695 564.4406,885.4383 Q564.075,885.307 563.7,885.307 Q563.2406,885.307 562.8562,885.5039 Q562.4812,885.7008 562.1813,886.1508 Q561.8906,886.6008 561.8906,887.2195 L561.8906,887.8758 Q561.8906,888.6164 562.425,889.1133 Q562.9594,889.6008 563.9156,889.6008 Q564.4781,889.6008 564.8719,889.4508 Q565.1062,889.357 565.3594,889.0945 Q565.5188,888.9352 565.6031,888.8883 Q565.6969,888.8414 565.8188,888.8414 Q566.0156,888.8414 566.1656,889.0008 Q566.325,889.1508 566.325,889.357 Q566.325,889.5633 566.1188,889.807 Q565.8188,890.1539 565.3406,890.3508 Q564.6938,890.6227 563.9156,890.6227 Q563.0063,890.6227 562.2844,890.2477 Q561.6938,889.9477 561.2813,889.3102 Q560.8688,888.6633 560.8688,887.8945 L560.8688,887.2008 Q560.8688,886.4039 561.2344,885.7195 Q561.6094,885.0258 562.2656,884.6602 Q562.9219,884.2852 563.6625,884.2852 Q564.1031,884.2852 564.4875,884.3883 Q564.8813,884.482 565.2094,884.6977 Z " fill="#000000"/><text fill="#000000" font-family="sans-serif" font-size="8.4" lengthAdjust="spacing" textLength="32.4" x="575.85" y="890.6508">Property</text><line style="stroke:#181818;stroke-width:0.3;" x1="531" x2="633.6" y1="896.7727" y2="896.7727"/><text fill="#000000" font-family="sans-serif" font-size="8.4" lengthAdjust="spacing" textLength="51.6" x="534" y="908.2371">-area: Integer</text><text fill="#000000" font-family="sans-serif" font-size="8.4" lengthAdjust="spacing" textLength="59.4" x="534" y="919.4098">-location: String</text><text fill="#000000" font-family="sans-serif" font-size="8.4" lengthAdjust="spacing" textLength="66.6" x="534" y="930.5824">-distance: Double</text><text fill="#000000" font-family="sans-serif" font-size="8.4" lengthAdjust="spacing" textLength="52.8" x="534" y="941.7551">-price: Integer</text><text fill="#000000" font-family="sans-serif" font-size="8.4" lengthAdjust="spacing" textLength="96.6" x="534" y="952.9277">-photograph: List&lt;String&gt;</text><line style="stroke:#181818;stroke-width:0.3;" x1="531" x2="633.6" y1="957.4359" y2="957.4359"/></g><!--class Owner--><g id="elem_Owner"><rect codeLine="112" fill="#F1F1F1" filter="url(#f1tw2pu3pawz61)" height="84.6633" id="Owner" rx="1.5" ry="1.5" style="stroke:#181818;stroke-width:0.3;" width="103.8" x="528.6" y="27.9727"/><ellipse cx="565.65" cy="37.5727" fill="#ADD1B2" rx="6.6" ry="6.6" style="stroke:#181818;stroke-width:0.6;"/><path d="M567.3094,35.0977 Q567.4031,34.9664 567.5156,34.9008 Q567.6281,34.8352 567.7594,34.8352 Q567.9844,34.8352 568.125,34.9945 Q568.2656,35.1445 568.2656,35.5102 L568.2656,36.382 Q568.2656,36.7477 568.125,36.907 Q567.9844,37.0664 567.7594,37.0664 Q567.5531,37.0664 567.4313,36.9445 Q567.3094,36.832 567.2438,36.5227 Q567.2156,36.307 567.1031,36.1945 Q566.9063,35.9695 566.5406,35.8383 Q566.175,35.707 565.8,35.707 Q565.3406,35.707 564.9563,35.9039 Q564.5813,36.1008 564.2813,36.5508 Q563.9906,37.0008 563.9906,37.6195 L563.9906,38.2758 Q563.9906,39.0164 564.525,39.5133 Q565.0594,40.0008 566.0156,40.0008 Q566.5781,40.0008 566.9719,39.8508 Q567.2063,39.757 567.4594,39.4945 Q567.6188,39.3352 567.7031,39.2883 Q567.7969,39.2414 567.9187,39.2414 Q568.1156,39.2414 568.2656,39.4008 Q568.425,39.5508 568.425,39.757 Q568.425,39.9633 568.2188,40.207 Q567.9187,40.5539 567.4406,40.7508 Q566.7937,41.0227 566.0156,41.0227 Q565.1062,41.0227 564.3844,40.6477 Q563.7937,40.3477 563.3813,39.7102 Q562.9688,39.0633 562.9688,38.2945 L562.9688,37.6008 Q562.9688,36.8039 563.3344,36.1195 Q563.7094,35.4258 564.3656,35.0602 Q565.0219,34.6852 565.7625,34.6852 Q566.2031,34.6852 566.5875,34.7883 Q566.9812,34.882 567.3094,35.0977 Z " fill="#000000"/><text fill="#000000" font-family="sans-serif" font-size="8.4" lengthAdjust="spacing" textLength="24.6" x="577.95" y="41.0508">Owner</text><line style="stroke:#181818;stroke-width:0.3;" x1="529.2" x2="631.8" y1="47.1727" y2="47.1727"/><text fill="#000000" font-family="sans-serif" font-size="8.4" lengthAdjust="spacing" textLength="51" x="532.2" y="58.6371">-name: String</text><text fill="#000000" font-family="sans-serif" font-size="8.4" lengthAdjust="spacing" textLength="96.6" x="532.2" y="69.8098">-passportNumber: Integer</text><text fill="#000000" font-family="sans-serif" font-size="8.4" lengthAdjust="spacing" textLength="74.4" x="532.2" y="80.9824">-taxNumber: Integer</text><text fill="#000000" font-family="sans-serif" font-size="8.4" lengthAdjust="spacing" textLength="49.8" x="532.2" y="92.1551">-email: String</text><text fill="#000000" font-family="sans-serif" font-size="8.4" lengthAdjust="spacing" textLength="87.6" x="532.2" y="103.3277">-phoneNumber: Integer</text><line style="stroke:#181818;stroke-width:0.3;" x1="529.2" x2="631.8" y1="107.8359" y2="107.8359"/></g><!--class Agent--><g id="elem_Agent"><rect codeLine="119" fill="#F1F1F1" filter="url(#f1tw2pu3pawz61)" height="28.8" id="Agent" rx="1.5" ry="1.5" style="stroke:#181818;stroke-width:0.3;" width="41.4" x="608.4" y="243.9727"/><ellipse cx="617.4" cy="253.5727" fill="#ADD1B2" rx="6.6" ry="6.6" style="stroke:#181818;stroke-width:0.6;"/><path d="M619.0594,251.0977 Q619.1531,250.9664 619.2656,250.9008 Q619.3781,250.8352 619.5094,250.8352 Q619.7344,250.8352 619.875,250.9945 Q620.0156,251.1445 620.0156,251.5102 L620.0156,252.382 Q620.0156,252.7477 619.875,252.907 Q619.7344,253.0664 619.5094,253.0664 Q619.3031,253.0664 619.1813,252.9445 Q619.0594,252.832 618.9938,252.5227 Q618.9656,252.307 618.8531,252.1945 Q618.6563,251.9695 618.2906,251.8383 Q617.925,251.707 617.55,251.707 Q617.0906,251.707 616.7063,251.9039 Q616.3313,252.1008 616.0313,252.5508 Q615.7406,253.0008 615.7406,253.6195 L615.7406,254.2758 Q615.7406,255.0164 616.275,255.5133 Q616.8094,256.0008 617.7656,256.0008 Q618.3281,256.0008 618.7219,255.8508 Q618.9563,255.757 619.2094,255.4945 Q619.3688,255.3352 619.4531,255.2883 Q619.5469,255.2414 619.6687,255.2414 Q619.8656,255.2414 620.0156,255.4008 Q620.175,255.5508 620.175,255.757 Q620.175,255.9633 619.9688,256.207 Q619.6687,256.5539 619.1906,256.7508 Q618.5437,257.0227 617.7656,257.0227 Q616.8562,257.0227 616.1344,256.6477 Q615.5437,256.3477 615.1313,255.7102 Q614.7188,255.0633 614.7188,254.2945 L614.7188,253.6008 Q614.7188,252.8039 615.0844,252.1195 Q615.4594,251.4258 616.1156,251.0602 Q616.7719,250.6852 617.5125,250.6852 Q617.9531,250.6852 618.3375,250.7883 Q618.7312,250.882 619.0594,251.0977 Z " fill="#000000"/><text fill="#000000" font-family="sans-serif" font-size="8.4" lengthAdjust="spacing" textLength="22.2" x="625.8" y="257.0508">Agent</text><line style="stroke:#181818;stroke-width:0.3;" x1="609" x2="649.2" y1="263.1727" y2="263.1727"/><line style="stroke:#181818;stroke-width:0.3;" x1="609" x2="649.2" y1="267.9727" y2="267.9727"/></g><!--link CreateRequestUI to CreateRequestController--><g id="link_CreateRequestUI_CreateRequestController"><path codeLine="127" d="M522.522,188.8687 C515.748,209.4367 502.506,249.6487 489.99,287.6467 " fill="none" id="CreateRequestUI-to-CreateRequestController" style="stroke:#181818;stroke-width:0.6;stroke-dasharray:7.0,7.0;"/><polygon fill="#181818" points="489.012,290.6167,492.9767,286.2347,489.9478,287.7663,488.4162,284.7375,489.012,290.6167" style="stroke:#181818;stroke-width:0.6;"/></g><!--link CreateRequestController to Repositories--><g id="link_CreateRequestController_Repositories"><path codeLine="128" d="M318.876,462.2827 C298.362,475.0867 277.656,488.3707 258.3,501.3727 C255.804,503.0467 253.278,504.7747 250.734,506.5387 " fill="none" id="CreateRequestController-to-Repositories" style="stroke:#181818;stroke-width:0.6;stroke-dasharray:7.0,7.0;"/><polygon fill="#181818" points="248.184,508.3087,253.9891,507.204,250.6493,506.5992,251.2541,503.2594,248.184,508.3087" style="stroke:#181818;stroke-width:0.6;"/></g><!--link Repositories to PropertyTypeRepository--><g id="link_Repositories_PropertyTypeRepository"><path codeLine="129" d="M194.316,608.1727 C199.362,644.1127 205.842,690.2707 209.934,719.4247 " fill="none" id="Repositories-to-PropertyTypeRepository" style="stroke:#181818;stroke-width:0.6;"/><polygon fill="#181818" points="210.372,722.5387,212.0094,716.8607,209.9609,719.567,207.2547,717.5184,210.372,722.5387" style="stroke:#181818;stroke-width:0.6;"/><text fill="#000000" font-family="sans-serif" font-size="7.8" lengthAdjust="spacing" textLength="4.2" x="205.3102" y="716.0364">1</text></g><!--link Repositories to BranchRepository--><g id="link_Repositories_BranchRepository"><path codeLine="130" d="M248.262,554.7727 C254.136,554.7727 260.01,554.7727 265.884,554.7727 " fill="none" id="Repositories-to-BranchRepository" style="stroke:#181818;stroke-width:0.6;"/><polygon fill="#181818" points="268.956,554.7727,263.556,552.3727,265.956,554.7727,263.556,557.1727,268.956,554.7727" style="stroke:#181818;stroke-width:0.6;"/><text fill="#000000" font-family="sans-serif" font-size="7.8" lengthAdjust="spacing" textLength="4.2" x="260.1208" y="552.5367">1</text></g><!--link Repositories to RequestCategoryRepository--><g id="link_Repositories_RequestCategoryRepository"><path codeLine="131" d="M154.116,608.1727 C131.664,644.3287 102.792,690.8287 84.714,719.9527 " fill="none" id="Repositories-to-RequestCategoryRepository" style="stroke:#181818;stroke-width:0.6;"/><polygon fill="#181818" points="83.106,722.5387,87.9982,719.224,84.6921,719.9923,83.9239,716.6862,83.106,722.5387" style="stroke:#181818;stroke-width:0.6;"/><text fill="#000000" font-family="sans-serif" font-size="7.8" lengthAdjust="spacing" textLength="4.2" x="80.9741" y="716.0364">1</text></g><!--link CreateRequestController to Branch--><g id="link_CreateRequestController_Branch"><path codeLine="132" d="M460.5,464.9827 C460.5,482.4607 460.5,500.0107 460.5,514.8547 " fill="none" id="CreateRequestController-to-Branch" style="stroke:#181818;stroke-width:0.6;"/><polygon fill="#181818" points="460.5,517.9807,462.9,512.5807,460.5,514.9807,458.1,512.5807,460.5,517.9807" style="stroke:#181818;stroke-width:0.6;"/></g><!--link BranchRepository to Branch--><g id="link_BranchRepository_Branch"><path codeLine="133" d="M368.958,554.7727 C374.898,554.7727 380.832,554.7727 386.772,554.7727 " fill="none" id="BranchRepository-to-Branch" style="stroke:#181818;stroke-width:0.6;"/><polygon fill="#181818" points="389.874,554.7727,384.474,552.3727,386.874,554.7727,384.474,557.1727,389.874,554.7727" style="stroke:#181818;stroke-width:0.6;"/><text fill="#000000" font-family="sans-serif" font-size="7.8" lengthAdjust="spacing" textLength="3" x="382.2534" y="552.6592">*</text></g><!--link Branch to Employee--><g id="link_Branch_Employee"><path codeLine="134" d="M531.168,554.7727 C546.996,554.7727 563.652,554.7727 579.012,554.7727 " fill="none" id="Branch-to-Employee" style="stroke:#181818;stroke-width:0.6;"/><polygon fill="#181818" points="582.072,554.7727,576.672,552.3727,579.072,554.7727,576.672,557.1727,582.072,554.7727" style="stroke:#181818;stroke-width:0.6;"/><text fill="#000000" font-family="sans-serif" font-size="7.8" lengthAdjust="spacing" textLength="29.4" x="541.95" y="550.5896">employs</text><text fill="#000000" font-family="sans-serif" font-size="7.8" lengthAdjust="spacing" textLength="4.2" x="535.8297" y="552.6592">1</text><text fill="#000000" font-family="sans-serif" font-size="7.8" lengthAdjust="spacing" textLength="3" x="574.5756" y="552.6034">*</text></g><!--link Request to House--><g id="link_Request_House"><path codeLine="135" d="M399.156,841.0567 C388.44,857.1547 377.946,872.9227 369.222,886.0327 " fill="none" id="Request-to-House" style="stroke:#181818;stroke-width:0.6;"/><polygon fill="#181818" points="367.5,888.6187,372.4923,885.4569,369.1641,886.1225,368.4985,882.7943,367.5,888.6187" style="stroke:#181818;stroke-width:0.6;"/></g><!--link Owner to CreateRequestUI--><g id="link_Owner_CreateRequestUI"><path codeLine="136" d="M558.78,112.7287 C550.71,128.2807 542.004,145.0507 535.764,157.0747 " fill="none" id="Owner-to-CreateRequestUI" style="stroke:#181818;stroke-width:0.6;"/><polygon fill="#181818" points="534.318,159.8707,538.9368,156.1846,535.7007,157.2083,534.677,153.9723,534.318,159.8707" style="stroke:#181818;stroke-width:0.6;"/><text fill="#000000" font-family="sans-serif" font-size="7.8" lengthAdjust="spacing" textLength="30" x="549.3" y="139.5896">interacts</text><text fill="#000000" font-family="sans-serif" font-size="7.8" lengthAdjust="spacing" textLength="4.2" x="552.2352" y="125.8324">1</text><text fill="#000000" font-family="sans-serif" font-size="7.8" lengthAdjust="spacing" textLength="4.2" x="531.3655" y="153.3309">1</text></g><!--link Branch to Request--><g id="link_Branch_Request"><path codeLine="137" d="M460.5,591.5407 C460.5,608.9107 460.5,630.6307 460.5,652.2967 " fill="none" id="Branch-to-Request" style="stroke:#181818;stroke-width:0.6;"/><polygon fill="#181818" points="460.5,655.4887,462.9,650.0887,460.5,652.4887,458.1,650.0887,460.5,655.4887" style="stroke:#181818;stroke-width:0.6;"/><text fill="#000000" font-family="sans-serif" font-size="7.8" lengthAdjust="spacing" textLength="25.8" x="461.1" y="635.1896">creates</text><text fill="#000000" font-family="sans-serif" font-size="7.8" lengthAdjust="spacing" textLength="4.2" x="456.0572" y="604.7919">1</text><text fill="#000000" font-family="sans-serif" font-size="7.8" lengthAdjust="spacing" textLength="9" x="451.268" y="648.6677">1..</text></g><!--link Request to Property--><g id="link_Request_Property"><path codeLine="138" d="M526.392,841.0567 C534.762,852.7687 543.006,864.3007 550.488,874.7647 " fill="none" id="Request-to-Property" style="stroke:#181818;stroke-width:0.6;"/><polygon fill="#181818" points="552.372,877.3987,551.1843,871.6099,550.6275,874.958,547.2794,874.4012,552.372,877.3987" style="stroke:#181818;stroke-width:0.6;"/></g><!--link Request to Residence--><g id="link_Request_Residence"><path codeLine="139" d="M460.5,841.0567 C460.5,854.8027 460.5,868.3087 460.5,880.1227 " fill="none" id="Request-to-Residence" style="stroke:#181818;stroke-width:0.6;"/><polygon fill="#181818" points="460.5,883.2487,462.9,877.8487,460.5,880.2487,458.1,877.8487,460.5,883.2487" style="stroke:#181818;stroke-width:0.6;"/></g><!--link House to Residence--><g id="link_House_Residence"><path codeLine="140" d="M390.51,919.8727 C393.528,919.8727 396.54,919.8727 399.558,919.8727 " fill="none" id="House-to-Residence" style="stroke:#181818;stroke-width:0.6;"/><polygon fill="none" points="399.564,915.6727,411.564,919.8727,399.564,924.0727,399.564,915.6727" style="stroke:#181818;stroke-width:0.6;"/></g><!--link Residence to Property--><g id="link_Residence_Property"><path codeLine="141" d="M509.508,919.8727 C512.424,919.8727 515.346,919.8727 518.262,919.8727 " fill="none" id="Residence-to-Property" style="stroke:#181818;stroke-width:0.6;"/><polygon fill="none" points="518.262,915.6727,530.262,919.8727,518.262,924.0727,518.262,915.6727" style="stroke:#181818;stroke-width:0.6;"/></g><!--link Owner to Agent--><g id="link_Owner_Agent"><path codeLine="142" d="M591.348,112.5847 C601.848,152.9647 617.238,212.1607 624.708,240.8887 " fill="none" id="Owner-to-Agent" style="stroke:#181818;stroke-width:0.6;"/><polygon fill="#181818" points="625.494,243.9067,626.4602,238.0769,624.7402,241.0029,621.8142,239.2829,625.494,243.9067" style="stroke:#181818;stroke-width:0.6;"/><text fill="#000000" font-family="sans-serif" font-size="7.8" lengthAdjust="spacing" textLength="29.4" x="611.1" y="177.6896">chooses</text><text fill="#000000" font-family="sans-serif" font-size="7.8" lengthAdjust="spacing" textLength="4.2" x="588.0501" y="125.8968">1</text><text fill="#000000" font-family="sans-serif" font-size="7.8" lengthAdjust="spacing" textLength="4.2" x="619.8318" y="237.1322">1</text></g><!--link Agent to Employee--><g id="link_Agent_Employee"><path codeLine="143" d="M629.58,272.8147 C630.96,312.8707 635.028,430.4767 637.44,500.3167 " fill="none" id="Agent-to-Employee" style="stroke:#181818;stroke-width:0.6;"/><polygon fill="none" points="641.64,500.2147,637.854,512.3527,633.24,500.5027,641.64,500.2147" style="stroke:#181818;stroke-width:0.6;"/></g><!--SRC=[dLPVQzim47_NfpZwb6vrw61FPWJQfB30s4QpVW35lZccZkL9CctMzRll9DdAsN4wM1uIwVx_-Tqfvh6i6wdb7XgPFSe2D_PG8MZChAoB2eM90cOdS_LKrWLOtQ8GZ9LLqfWRQtMvRIskCrLlojy8rqBOqfAvXytrzKT8OEdaO5NAWhI4y6gmr2WjtkEl5erzM8iNyJh9MghQQbLLg4daVO6sfvD8eNI9PdRfwT-rQb3Rmuz3WuvaJaaPDppJuTSnho1hjSRQVdkgKKV9NdycwGfNKAbCsbBLTCnBGwNAS4bAg8dGw393zxjJLb6YpUuBYHnD3SXTV2utcTbLgxtPMUPoPGGMiYbp97UpBUPQgRqXJrjfT_sP6a9jAJRKJdHtIgrizXHRDF5PjORKfK57Thdyf6_JrdVFZJAjnb35MqrPxRgItXGawkCrM14s0ZF4lYARiwvgxXoe6yl8_d99a05gRK0Bt2DvAwrlt8k0XBSeyWx4k3zsPq0FCN2IYtHTXtPGuC10CjJkcTC-UouvuFOT-HZ-jEgBI1h6S1LBmNr_sj1mrCLY2g0HxkECoDhMnS3C1945wr27ecXaE1M7WJK6z3EXiNATHaOMl89qQ5YyDKM4C3SyCiz7t6auOTu3Qfp6CMYFeHHkbQfGriCwGmeX2P7u0KrXJSDOqAP8ugGUHKOJcqAksYsjkYHCRWfbh-op7SxnWlHz8BqrbseAVbsShXeUvFGoEUwIyIhfDid48g6oHXkzXpSs15iGe_tmd-iXDkbktrJgW4XTgkMU5QKXRgEq_ThkjwuyiQ9MFdSq9hnJDPv8Kf8QZKdX9XmWTlpetyVgfgIBbi73XSskBFxec66jAvaprHMDGIXMZz46PMJqMCzJBttBNW989p1w2j4KLXoRF808Yj4KHtyUal_ipFgqCooRlIohCutgXLuxTtwc_TljFwDN7URp-UBiUtw63aw7lnE2No195d3nuUBCAXx91j6JDsFIuDaLUZPGfnbiYx4Bx_hTnP3jtNICVeXeyQ0_kZIz0s_MOrpuPZej8ZdTSNd3uBY_38QvyCBpUSo8nCAG3rtq1HmGur087m4aVpWjdZmz6eXXaeckc1uNa6OxfGpv3LUdrEVz5m00]--></g></svg>