<?xml version="1.0" encoding="us-ascii" standalone="no"?><svg xmlns="http://www.w3.org/2000/svg" xmlns:xlink="http://www.w3.org/1999/xlink" contentStyleType="text/css" height="1198px" preserveAspectRatio="none" style="width:2229px;height:1198px;background:#FFFFFF;" version="1.1" viewBox="0 0 2229 1198" width="2229px" zoomAndPan="magnify"><defs/><g><!--class PublishAnnouncementUI--><g id="elem_PublishAnnouncementUI"><rect codeLine="3" fill="#F1F1F1" height="48" id="PublishAnnouncementUI" rx="2.5" ry="2.5" style="stroke:#181818;stroke-width:0.5;" width="201" x="1686.5" y="7"/><ellipse cx="1701.5" cy="23" fill="#ADD1B2" rx="11" ry="11" style="stroke:#181818;stroke-width:1.0;"/><path d="M1704.4731,28.6431 Q1703.8921,28.9419 1703.2529,29.0913 Q1702.6138,29.2407 1701.9082,29.2407 Q1699.4014,29.2407 1698.0815,27.5889 Q1696.7617,25.937 1696.7617,22.8159 Q1696.7617,19.6865 1698.0815,18.0347 Q1699.4014,16.3828 1701.9082,16.3828 Q1702.6138,16.3828 1703.2612,16.5322 Q1703.9087,16.6816 1704.4731,16.9805 L1704.4731,19.7031 Q1703.8423,19.1221 1703.2488,18.8523 Q1702.6553,18.5825 1702.0244,18.5825 Q1700.6797,18.5825 1699.9949,19.6492 Q1699.3101,20.7158 1699.3101,22.8159 Q1699.3101,24.9077 1699.9949,25.9744 Q1700.6797,27.041 1702.0244,27.041 Q1702.6553,27.041 1703.2488,26.7712 Q1703.8423,26.5015 1704.4731,25.9204 Z " fill="#000000"/><text fill="#000000" font-family="sans-serif" font-size="14" lengthAdjust="spacing" textLength="169" x="1715.5" y="28.291">PublishAnnouncementUI</text><line style="stroke:#181818;stroke-width:0.5;" x1="1687.5" x2="1886.5" y1="39" y2="39"/><line style="stroke:#181818;stroke-width:0.5;" x1="1687.5" x2="1886.5" y1="47" y2="47"/></g><!--class PublishAnnouncementController--><g id="elem_PublishAnnouncementController"><rect codeLine="6" fill="#F1F1F1" height="179.9063" id="PublishAnnouncementController" rx="2.5" ry="2.5" style="stroke:#181818;stroke-width:0.5;" width="871" x="1351.5" y="116"/><ellipse cx="1670.25" cy="132" fill="#ADD1B2" rx="11" ry="11" style="stroke:#181818;stroke-width:1.0;"/><path d="M1673.2231,137.6431 Q1672.6421,137.9419 1672.0029,138.0913 Q1671.3638,138.2407 1670.6582,138.2407 Q1668.1514,138.2407 1666.8315,136.5889 Q1665.5117,134.937 1665.5117,131.8159 Q1665.5117,128.6865 1666.8315,127.0347 Q1668.1514,125.3828 1670.6582,125.3828 Q1671.3638,125.3828 1672.0112,125.5322 Q1672.6587,125.6816 1673.2231,125.9805 L1673.2231,128.7031 Q1672.5923,128.1221 1671.9988,127.8523 Q1671.4053,127.5825 1670.7744,127.5825 Q1669.4297,127.5825 1668.7449,128.6492 Q1668.0601,129.7158 1668.0601,131.8159 Q1668.0601,133.9077 1668.7449,134.9744 Q1669.4297,136.041 1670.7744,136.041 Q1671.4053,136.041 1671.9988,135.7712 Q1672.5923,135.5015 1673.2231,134.9204 Z " fill="#000000"/><text fill="#000000" font-family="sans-serif" font-size="14" lengthAdjust="spacing" textLength="225" x="1690.75" y="137.291">PublishAnnouncementController</text><line style="stroke:#181818;stroke-width:0.5;" x1="1352.5" x2="2221.5" y1="148" y2="148"/><line style="stroke:#181818;stroke-width:0.5;" x1="1352.5" x2="2221.5" y1="156" y2="156"/><text fill="#000000" font-family="sans-serif" font-size="14" lengthAdjust="spacing" textLength="159" x="1357.5" y="173.5352">+getUserRepositories()</text><text fill="#000000" font-family="sans-serif" font-size="14" lengthAdjust="spacing" textLength="97" x="1357.5" y="190.0234">+getUserList()</text><text fill="#000000" font-family="sans-serif" font-size="14" lengthAdjust="spacing" textLength="224" x="1357.5" y="206.5117">+setPropertyType(propertyType)</text><text fill="#000000" font-family="sans-serif" font-size="14" lengthAdjust="spacing" textLength="859" x="1357.5" y="223">+createProperty(ownerName, commission, price, contractDuration, sizeM2, distanceCenter, proximityPublicServices, location)</text><text fill="#000000" font-family="sans-serif" font-size="14" lengthAdjust="spacing" textLength="738" x="1357.5" y="239.4883">+createResidence(numberOfBedrooms, numberOfBathrooms, numberOfParkingSpaces,availableEquipment)</text><text fill="#000000" font-family="sans-serif" font-size="14" lengthAdjust="spacing" textLength="280" x="1357.5" y="255.9766">+createHouse(basement,inhabitableLoft)</text><text fill="#000000" font-family="sans-serif" font-size="14" lengthAdjust="spacing" textLength="167" x="1357.5" y="272.4648">+createPhotographList()</text><text fill="#000000" font-family="sans-serif" font-size="14" lengthAdjust="spacing" textLength="153" x="1357.5" y="288.9531">+setDate(currentDate)</text></g><!--class PropertyTypeListRepository--><g id="elem_PropertyTypeListRepository"><rect codeLine="17" fill="#F1F1F1" height="64.4883" id="PropertyTypeListRepository" rx="2.5" ry="2.5" style="stroke:#181818;stroke-width:0.5;" width="219" x="1678.5" y="598"/><ellipse cx="1693.5" cy="614" fill="#ADD1B2" rx="11" ry="11" style="stroke:#181818;stroke-width:1.0;"/><path d="M1696.4731,619.6431 Q1695.8921,619.9419 1695.2529,620.0913 Q1694.6138,620.2407 1693.9082,620.2407 Q1691.4014,620.2407 1690.0815,618.5889 Q1688.7617,616.937 1688.7617,613.8159 Q1688.7617,610.6865 1690.0815,609.0347 Q1691.4014,607.3828 1693.9082,607.3828 Q1694.6138,607.3828 1695.2612,607.5322 Q1695.9087,607.6816 1696.4731,607.9805 L1696.4731,610.7031 Q1695.8423,610.1221 1695.2488,609.8523 Q1694.6553,609.5825 1694.0244,609.5825 Q1692.6797,609.5825 1691.9949,610.6492 Q1691.3101,611.7158 1691.3101,613.8159 Q1691.3101,615.9077 1691.9949,616.9744 Q1692.6797,618.041 1694.0244,618.041 Q1694.6553,618.041 1695.2488,617.7712 Q1695.8423,617.5015 1696.4731,616.9204 Z " fill="#000000"/><text fill="#000000" font-family="sans-serif" font-size="14" lengthAdjust="spacing" textLength="187" x="1707.5" y="619.291">PropertyTypeListRepository</text><line style="stroke:#181818;stroke-width:0.5;" x1="1679.5" x2="1896.5" y1="630" y2="630"/><line style="stroke:#181818;stroke-width:0.5;" x1="1679.5" x2="1896.5" y1="638" y2="638"/><text fill="#000000" font-family="sans-serif" font-size="14" lengthAdjust="spacing" textLength="207" x="1684.5" y="655.5352">+getPropertyTypeRepository()</text></g><!--class Repositories--><g id="elem_Repositories"><rect codeLine="21" fill="#F1F1F1" height="97.4648" id="Repositories" rx="2.5" ry="2.5" style="stroke:#181818;stroke-width:0.5;" width="219" x="1555.5" y="365.5"/><ellipse cx="1618.25" cy="381.5" fill="#ADD1B2" rx="11" ry="11" style="stroke:#181818;stroke-width:1.0;"/><path d="M1621.2231,387.1431 Q1620.6421,387.4419 1620.0029,387.5913 Q1619.3638,387.7407 1618.6582,387.7407 Q1616.1514,387.7407 1614.8315,386.0889 Q1613.5117,384.437 1613.5117,381.3159 Q1613.5117,378.1865 1614.8315,376.5347 Q1616.1514,374.8828 1618.6582,374.8828 Q1619.3638,374.8828 1620.0112,375.0322 Q1620.6587,375.1816 1621.2231,375.4805 L1621.2231,378.2031 Q1620.5923,377.6221 1619.9988,377.3523 Q1619.4053,377.0825 1618.7744,377.0825 Q1617.4297,377.0825 1616.7449,378.1492 Q1616.0601,379.2158 1616.0601,381.3159 Q1616.0601,383.4077 1616.7449,384.4744 Q1617.4297,385.541 1618.7744,385.541 Q1619.4053,385.541 1619.9988,385.2712 Q1620.5923,385.0015 1621.2231,384.4204 Z " fill="#000000"/><text fill="#000000" font-family="sans-serif" font-size="14" lengthAdjust="spacing" textLength="85" x="1638.75" y="386.791">Repositories</text><line style="stroke:#181818;stroke-width:0.5;" x1="1556.5" x2="1773.5" y1="397.5" y2="397.5"/><line style="stroke:#181818;stroke-width:0.5;" x1="1556.5" x2="1773.5" y1="405.5" y2="405.5"/><text fill="#000000" font-family="sans-serif" font-size="14" lengthAdjust="spacing" textLength="207" x="1561.5" y="423.0352">+getPropertyTypeRepository()</text><text fill="#000000" font-family="sans-serif" font-size="14" lengthAdjust="spacing" textLength="159" x="1561.5" y="439.5234">+getUserRepositories()</text><text fill="#000000" font-family="sans-serif" font-size="14" lengthAdjust="spacing" text-decoration="underline" textLength="100" x="1561.5" y="456.0117">+getInstance()</text></g><!--class Announcement--><g id="elem_Announcement"><rect codeLine="28" fill="#F1F1F1" height="196.3945" id="Announcement" rx="2.5" ry="2.5" style="stroke:#181818;stroke-width:0.5;" width="847" x="796.5" y="532"/><ellipse cx="1163.25" cy="548" fill="#ADD1B2" rx="11" ry="11" style="stroke:#181818;stroke-width:1.0;"/><path d="M1166.2231,553.6431 Q1165.6421,553.9419 1165.0029,554.0913 Q1164.3638,554.2407 1163.6582,554.2407 Q1161.1514,554.2407 1159.8315,552.5889 Q1158.5117,550.937 1158.5117,547.8159 Q1158.5117,544.6865 1159.8315,543.0347 Q1161.1514,541.3828 1163.6582,541.3828 Q1164.3638,541.3828 1165.0112,541.5322 Q1165.6587,541.6816 1166.2231,541.9805 L1166.2231,544.7031 Q1165.5923,544.1221 1164.9988,543.8523 Q1164.4053,543.5825 1163.7744,543.5825 Q1162.4297,543.5825 1161.7449,544.6492 Q1161.0601,545.7158 1161.0601,547.8159 Q1161.0601,549.9077 1161.7449,550.9744 Q1162.4297,552.041 1163.7744,552.041 Q1164.4053,552.041 1164.9988,551.7712 Q1165.5923,551.5015 1166.2231,550.9204 Z " fill="#000000"/><text fill="#000000" font-family="sans-serif" font-size="14" lengthAdjust="spacing" textLength="105" x="1183.75" y="553.291">Announcement</text><line style="stroke:#181818;stroke-width:0.5;" x1="797.5" x2="1642.5" y1="564" y2="564"/><text fill="#000000" font-family="sans-serif" font-size="14" lengthAdjust="spacing" textLength="38" x="802.5" y="581.5352">-date</text><line style="stroke:#181818;stroke-width:0.5;" x1="797.5" x2="1642.5" y1="588.4883" y2="588.4883"/><text fill="#000000" font-family="sans-serif" font-size="14" lengthAdjust="spacing" textLength="224" x="802.5" y="606.0234">+setPropertyType(propertyType)</text><text fill="#000000" font-family="sans-serif" font-size="14" lengthAdjust="spacing" textLength="835" x="802.5" y="622.5117">+createProperty(ownerName,commission, price,contractDuration,sizeM2,distanceCenter,proximityPublicServices,location)</text><text fill="#000000" font-family="sans-serif" font-size="14" lengthAdjust="spacing" textLength="164" x="802.5" y="639">+addProperty(property)</text><text fill="#000000" font-family="sans-serif" font-size="14" lengthAdjust="spacing" textLength="742" x="802.5" y="655.4883">+createResidence(numberOfBedrooms, numberOfBathrooms, numberOfParkingSpaces, availableEquipment)</text><text fill="#000000" font-family="sans-serif" font-size="14" lengthAdjust="spacing" textLength="294" x="802.5" y="671.9766">+createHouse(basement,loft,sunExposure)</text><text fill="#000000" font-family="sans-serif" font-size="14" lengthAdjust="spacing" textLength="167" x="802.5" y="688.4648">+createPhotographList()</text><text fill="#000000" font-family="sans-serif" font-size="14" lengthAdjust="spacing" textLength="153" x="802.5" y="704.9531">+setDate(currentDate)</text><text fill="#000000" font-family="sans-serif" font-size="14" lengthAdjust="spacing" textLength="131" x="802.5" y="721.4414">+getRequestType()</text></g><!--class Agent--><g id="elem_Agent"><rect codeLine="40" fill="#F1F1F1" height="130.4414" id="Agent" rx="2.5" ry="2.5" style="stroke:#181818;stroke-width:0.5;" width="210" x="1088" y="821.5"/><ellipse cx="1168.25" cy="837.5" fill="#ADD1B2" rx="11" ry="11" style="stroke:#181818;stroke-width:1.0;"/><path d="M1171.2231,843.1431 Q1170.6421,843.4419 1170.0029,843.5913 Q1169.3638,843.7407 1168.6582,843.7407 Q1166.1514,843.7407 1164.8315,842.0889 Q1163.5117,840.437 1163.5117,837.3159 Q1163.5117,834.1865 1164.8315,832.5347 Q1166.1514,830.8828 1168.6582,830.8828 Q1169.3638,830.8828 1170.0112,831.0322 Q1170.6587,831.1816 1171.2231,831.4805 L1171.2231,834.2031 Q1170.5923,833.6221 1169.9988,833.3523 Q1169.4053,833.0825 1168.7744,833.0825 Q1167.4297,833.0825 1166.7449,834.1492 Q1166.0601,835.2158 1166.0601,837.3159 Q1166.0601,839.4077 1166.7449,840.4744 Q1167.4297,841.541 1168.7744,841.541 Q1169.4053,841.541 1169.9988,841.2712 Q1170.5923,841.0015 1171.2231,840.4204 Z " fill="#000000"/><text fill="#000000" font-family="sans-serif" font-size="14" lengthAdjust="spacing" textLength="41" x="1188.75" y="842.791">Agent</text><line style="stroke:#181818;stroke-width:0.5;" x1="1089" x2="1297" y1="853.5" y2="853.5"/><text fill="#000000" font-family="sans-serif" font-size="14" lengthAdjust="spacing" textLength="139" x="1094" y="871.0352">-ownerName: String</text><text fill="#000000" font-family="sans-serif" font-size="14" lengthAdjust="spacing" textLength="198" x="1094" y="887.5234">-citizenCardNumber: Integer</text><text fill="#000000" font-family="sans-serif" font-size="14" lengthAdjust="spacing" textLength="134" x="1094" y="904.0117">-taxNumber: String</text><text fill="#000000" font-family="sans-serif" font-size="14" lengthAdjust="spacing" textLength="164" x="1094" y="920.5">-phoneNumber: Integer</text><text fill="#000000" font-family="sans-serif" font-size="14" lengthAdjust="spacing" textLength="111" x="1094" y="936.9883">-address: String</text><line style="stroke:#181818;stroke-width:0.5;" x1="1089" x2="1297" y1="943.9414" y2="943.9414"/></g><!--class House--><g id="elem_House"><rect codeLine="48" fill="#F1F1F1" height="113.9531" id="House" rx="2.5" ry="2.5" style="stroke:#181818;stroke-width:0.5;" width="507" x="130.5" y="357"/><ellipse cx="358.25" cy="373" fill="#ADD1B2" rx="11" ry="11" style="stroke:#181818;stroke-width:1.0;"/><path d="M361.2231,378.6431 Q360.6421,378.9419 360.0029,379.0913 Q359.3638,379.2407 358.6582,379.2407 Q356.1514,379.2407 354.8315,377.5889 Q353.5117,375.937 353.5117,372.8159 Q353.5117,369.6865 354.8315,368.0347 Q356.1514,366.3828 358.6582,366.3828 Q359.3638,366.3828 360.0112,366.5322 Q360.6587,366.6816 361.2231,366.9805 L361.2231,369.7031 Q360.5923,369.1221 359.9988,368.8523 Q359.4053,368.5825 358.7744,368.5825 Q357.4297,368.5825 356.7449,369.6492 Q356.0601,370.7158 356.0601,372.8159 Q356.0601,374.9077 356.7449,375.9744 Q357.4297,377.041 358.7744,377.041 Q359.4053,377.041 359.9988,376.7712 Q360.5923,376.5015 361.2231,375.9204 Z " fill="#000000"/><text fill="#000000" font-family="sans-serif" font-size="14" lengthAdjust="spacing" textLength="43" x="378.75" y="378.291">House</text><line style="stroke:#181818;stroke-width:0.5;" x1="131.5" x2="636.5" y1="389" y2="389"/><text fill="#000000" font-family="sans-serif" font-size="14" lengthAdjust="spacing" textLength="138" x="136.5" y="406.5352">-basement: Boolean</text><text fill="#000000" font-family="sans-serif" font-size="14" lengthAdjust="spacing" textLength="94" x="136.5" y="423.0234">-loft: Boolean</text><text fill="#000000" font-family="sans-serif" font-size="14" lengthAdjust="spacing" textLength="147" x="136.5" y="439.5117">-sunExposure: String</text><line style="stroke:#181818;stroke-width:0.5;" x1="131.5" x2="636.5" y1="446.4648" y2="446.4648"/><text fill="#000000" font-family="sans-serif" font-size="14" lengthAdjust="spacing" textLength="495" x="136.5" y="464">+createHouse(basement options, inhabitable loft options, sunExposure)</text></g><!--class Residence--><g id="elem_Residence"><rect codeLine="56" fill="#F1F1F1" height="130.4414" id="Residence" rx="2.5" ry="2.5" style="stroke:#181818;stroke-width:0.5;" width="754" x="7" y="565"/><ellipse cx="345.25" cy="581" fill="#ADD1B2" rx="11" ry="11" style="stroke:#181818;stroke-width:1.0;"/><path d="M348.2231,586.6431 Q347.6421,586.9419 347.0029,587.0913 Q346.3638,587.2407 345.6582,587.2407 Q343.1514,587.2407 341.8315,585.5889 Q340.5117,583.937 340.5117,580.8159 Q340.5117,577.6865 341.8315,576.0347 Q343.1514,574.3828 345.6582,574.3828 Q346.3638,574.3828 347.0112,574.5322 Q347.6587,574.6816 348.2231,574.9805 L348.2231,577.7031 Q347.5923,577.1221 346.9988,576.8523 Q346.4053,576.5825 345.7744,576.5825 Q344.4297,576.5825 343.7449,577.6492 Q343.0601,578.7158 343.0601,580.8159 Q343.0601,582.9077 343.7449,583.9744 Q344.4297,585.041 345.7744,585.041 Q346.4053,585.041 346.9988,584.7712 Q347.5923,584.5015 348.2231,583.9204 Z " fill="#000000"/><text fill="#000000" font-family="sans-serif" font-size="14" lengthAdjust="spacing" textLength="69" x="365.75" y="586.291">Residence</text><line style="stroke:#181818;stroke-width:0.5;" x1="8" x2="760" y1="597" y2="597"/><text fill="#000000" font-family="sans-serif" font-size="14" lengthAdjust="spacing" textLength="204" x="13" y="614.5352">-numberOfBedrooms: Integer</text><text fill="#000000" font-family="sans-serif" font-size="14" lengthAdjust="spacing" textLength="209" x="13" y="631.0234">-numberOfBathrooms: Integer</text><text fill="#000000" font-family="sans-serif" font-size="14" lengthAdjust="spacing" textLength="234" x="13" y="647.5117">-numberOfParkingSpaces: Integer</text><text fill="#000000" font-family="sans-serif" font-size="14" lengthAdjust="spacing" textLength="191" x="13" y="664">-availableEquipment: String</text><line style="stroke:#181818;stroke-width:0.5;" x1="8" x2="760" y1="670.9531" y2="670.9531"/><text fill="#000000" font-family="sans-serif" font-size="14" lengthAdjust="spacing" textLength="742" x="13" y="688.4883">+createResidence(numberOfBedrooms, numberOfBathrooms, numberOfParkingSpaces, availableEquipment)</text></g><!--class Property--><g id="elem_Property"><rect codeLine="64" fill="#F1F1F1" height="163.418" id="Property" rx="2.5" ry="2.5" style="stroke:#181818;stroke-width:0.5;" width="969" x="57.5" y="805"/><ellipse cx="508.75" cy="821" fill="#ADD1B2" rx="11" ry="11" style="stroke:#181818;stroke-width:1.0;"/><path d="M511.7231,826.6431 Q511.1421,826.9419 510.5029,827.0913 Q509.8638,827.2407 509.1582,827.2407 Q506.6514,827.2407 505.3315,825.5889 Q504.0117,823.937 504.0117,820.8159 Q504.0117,817.6865 505.3315,816.0347 Q506.6514,814.3828 509.1582,814.3828 Q509.8638,814.3828 510.5112,814.5322 Q511.1587,814.6816 511.7231,814.9805 L511.7231,817.7031 Q511.0923,817.1221 510.4988,816.8523 Q509.9053,816.5825 509.2744,816.5825 Q507.9297,816.5825 507.2449,817.6492 Q506.5601,818.7158 506.5601,820.8159 Q506.5601,822.9077 507.2449,823.9744 Q507.9297,825.041 509.2744,825.041 Q509.9053,825.041 510.4988,824.7712 Q511.0923,824.5015 511.7231,823.9204 Z " fill="#000000"/><text fill="#000000" font-family="sans-serif" font-size="14" lengthAdjust="spacing" textLength="58" x="529.25" y="826.291">Property</text><line style="stroke:#181818;stroke-width:0.5;" x1="58.5" x2="1025.5" y1="837" y2="837"/><text fill="#000000" font-family="sans-serif" font-size="14" lengthAdjust="spacing" textLength="113" x="63.5" y="854.5352">-sizeM2: Integer</text><text fill="#000000" font-family="sans-serif" font-size="14" lengthAdjust="spacing" textLength="168" x="63.5" y="871.0234">-distanceCenter: Double</text><text fill="#000000" font-family="sans-serif" font-size="14" lengthAdjust="spacing" textLength="99" x="63.5" y="887.5117">-price: Integer</text><text fill="#000000" font-family="sans-serif" font-size="14" lengthAdjust="spacing" textLength="227" x="63.5" y="904">-proximityPublicServices: Double</text><line style="stroke:#181818;stroke-width:0.5;" x1="58.5" x2="1025.5" y1="910.9531" y2="910.9531"/><text fill="#000000" font-family="sans-serif" font-size="14" lengthAdjust="spacing" textLength="957" x="63.5" y="928.4883">+createProperty(ownerName, commission, price, contractDuration, sizeM2, distanceCenter, proximityPublicServices, location, sunExposure)</text><text fill="#000000" font-family="sans-serif" font-size="14" lengthAdjust="spacing" textLength="167" x="63.5" y="944.9766">+createPhotographList()</text><text fill="#000000" font-family="sans-serif" font-size="14" lengthAdjust="spacing" textLength="129" x="63.5" y="961.4648">+add(photograph)</text></g><!--class Location--><g id="elem_Location"><rect codeLine="74" fill="#F1F1F1" height="146.9297" id="Location" rx="2.5" ry="2.5" style="stroke:#181818;stroke-width:0.5;" width="166" x="362" y="1045"/><ellipse cx="411.75" cy="1061" fill="#ADD1B2" rx="11" ry="11" style="stroke:#181818;stroke-width:1.0;"/><path d="M414.7231,1066.6431 Q414.1421,1066.9419 413.5029,1067.0913 Q412.8638,1067.2407 412.1582,1067.2407 Q409.6514,1067.2407 408.3315,1065.5889 Q407.0117,1063.937 407.0117,1060.8159 Q407.0117,1057.6865 408.3315,1056.0347 Q409.6514,1054.3828 412.1582,1054.3828 Q412.8638,1054.3828 413.5112,1054.5322 Q414.1587,1054.6816 414.7231,1054.9805 L414.7231,1057.7031 Q414.0923,1057.1221 413.4988,1056.8523 Q412.9053,1056.5825 412.2744,1056.5825 Q410.9297,1056.5825 410.2449,1057.6492 Q409.5601,1058.7158 409.5601,1060.8159 Q409.5601,1062.9077 410.2449,1063.9744 Q410.9297,1065.041 412.2744,1065.041 Q412.9053,1065.041 413.4988,1064.7712 Q414.0923,1064.5015 414.7231,1063.9204 Z " fill="#000000"/><text fill="#000000" font-family="sans-serif" font-size="14" lengthAdjust="spacing" textLength="58" x="432.25" y="1066.291">Location</text><line style="stroke:#181818;stroke-width:0.5;" x1="363" x2="527" y1="1077" y2="1077"/><text fill="#000000" font-family="sans-serif" font-size="14" lengthAdjust="spacing" textLength="96" x="368" y="1094.5352">-street: String</text><text fill="#000000" font-family="sans-serif" font-size="14" lengthAdjust="spacing" textLength="80" x="368" y="1111.0234">-city: String</text><text fill="#000000" font-family="sans-serif" font-size="14" lengthAdjust="spacing" textLength="104" x="368" y="1127.5117">-district: String</text><text fill="#000000" font-family="sans-serif" font-size="14" lengthAdjust="spacing" textLength="90" x="368" y="1144">-state: String</text><text fill="#000000" font-family="sans-serif" font-size="14" lengthAdjust="spacing" textLength="154" x="368" y="1160.4883">-zipCodeStart: Integer</text><text fill="#000000" font-family="sans-serif" font-size="14" lengthAdjust="spacing" textLength="148" x="368" y="1176.9766">-zipCodeEnd: Integer</text><line style="stroke:#181818;stroke-width:0.5;" x1="363" x2="527" y1="1183.9297" y2="1183.9297"/></g><!--class Photographs--><g id="elem_Photographs"><rect codeLine="84" fill="#F1F1F1" height="64.4883" id="Photographs" rx="2.5" ry="2.5" style="stroke:#181818;stroke-width:0.5;" width="151" x="563.5" y="1086.5"/><ellipse cx="592.45" cy="1102.5" fill="#ADD1B2" rx="11" ry="11" style="stroke:#181818;stroke-width:1.0;"/><path d="M595.4231,1108.1431 Q594.8421,1108.4419 594.2029,1108.5913 Q593.5638,1108.7407 592.8582,1108.7407 Q590.3514,1108.7407 589.0315,1107.0889 Q587.7117,1105.437 587.7117,1102.3159 Q587.7117,1099.1865 589.0315,1097.5347 Q590.3514,1095.8828 592.8582,1095.8828 Q593.5638,1095.8828 594.2112,1096.0322 Q594.8587,1096.1816 595.4231,1096.4805 L595.4231,1099.2031 Q594.7923,1098.6221 594.1988,1098.3523 Q593.6053,1098.0825 592.9744,1098.0825 Q591.6297,1098.0825 590.9449,1099.1492 Q590.2601,1100.2158 590.2601,1102.3159 Q590.2601,1104.4077 590.9449,1105.4744 Q591.6297,1106.541 592.9744,1106.541 Q593.6053,1106.541 594.1988,1106.2712 Q594.7923,1106.0015 595.4231,1105.4204 Z " fill="#000000"/><text fill="#000000" font-family="sans-serif" font-size="14" lengthAdjust="spacing" textLength="88" x="609.55" y="1107.791">Photographs</text><line style="stroke:#181818;stroke-width:0.5;" x1="564.5" x2="713.5" y1="1118.5" y2="1118.5"/><text fill="#000000" font-family="sans-serif" font-size="14" lengthAdjust="spacing" textLength="139" x="569.5" y="1136.0352">-photograph: String</text><line style="stroke:#181818;stroke-width:0.5;" x1="564.5" x2="713.5" y1="1142.9883" y2="1142.9883"/></g><!--class Commission--><g id="elem_Commission"><rect codeLine="88" fill="#F1F1F1" height="80.9766" id="Commission" rx="2.5" ry="2.5" style="stroke:#181818;stroke-width:0.5;" width="154" x="1333" y="846"/><ellipse cx="1364.65" cy="862" fill="#ADD1B2" rx="11" ry="11" style="stroke:#181818;stroke-width:1.0;"/><path d="M1367.6231,867.6431 Q1367.0421,867.9419 1366.4029,868.0913 Q1365.7638,868.2407 1365.0582,868.2407 Q1362.5514,868.2407 1361.2315,866.5889 Q1359.9117,864.937 1359.9117,861.8159 Q1359.9117,858.6865 1361.2315,857.0347 Q1362.5514,855.3828 1365.0582,855.3828 Q1365.7638,855.3828 1366.4112,855.5322 Q1367.0587,855.6816 1367.6231,855.9805 L1367.6231,858.7031 Q1366.9923,858.1221 1366.3988,857.8523 Q1365.8053,857.5825 1365.1744,857.5825 Q1363.8297,857.5825 1363.1449,858.6492 Q1362.4601,859.7158 1362.4601,861.8159 Q1362.4601,863.9077 1363.1449,864.9744 Q1363.8297,866.041 1365.1744,866.041 Q1365.8053,866.041 1366.3988,865.7712 Q1366.9923,865.5015 1367.6231,864.9204 Z " fill="#000000"/><text fill="#000000" font-family="sans-serif" font-size="14" lengthAdjust="spacing" textLength="85" x="1382.35" y="867.291">Commission</text><line style="stroke:#181818;stroke-width:0.5;" x1="1334" x2="1486" y1="878" y2="878"/><text fill="#000000" font-family="sans-serif" font-size="14" lengthAdjust="spacing" textLength="101" x="1339" y="895.5352">-value: Double</text><text fill="#000000" font-family="sans-serif" font-size="14" lengthAdjust="spacing" textLength="142" x="1339" y="912.0234">-percentage: Double</text><line style="stroke:#181818;stroke-width:0.5;" x1="1334" x2="1486" y1="918.9766" y2="918.9766"/></g><!--class UserRepositories--><g id="elem_UserRepositories"><rect codeLine="93" fill="#F1F1F1" height="80.9766" id="UserRepositories" rx="2.5" ry="2.5" style="stroke:#181818;stroke-width:0.5;" width="171" x="1932.5" y="589.5"/><ellipse cx="1957.85" cy="605.5" fill="#ADD1B2" rx="11" ry="11" style="stroke:#181818;stroke-width:1.0;"/><path d="M1960.8231,611.1431 Q1960.2421,611.4419 1959.6029,611.5913 Q1958.9638,611.7407 1958.2582,611.7407 Q1955.7514,611.7407 1954.4315,610.0889 Q1953.1117,608.437 1953.1117,605.3159 Q1953.1117,602.1865 1954.4315,600.5347 Q1955.7514,598.8828 1958.2582,598.8828 Q1958.9638,598.8828 1959.6112,599.0322 Q1960.2587,599.1816 1960.8231,599.4805 L1960.8231,602.2031 Q1960.1923,601.6221 1959.5988,601.3523 Q1959.0053,601.0825 1958.3744,601.0825 Q1957.0297,601.0825 1956.3449,602.1492 Q1955.6601,603.2158 1955.6601,605.3159 Q1955.6601,607.4077 1956.3449,608.4744 Q1957.0297,609.541 1958.3744,609.541 Q1959.0053,609.541 1959.5988,609.2712 Q1960.1923,609.0015 1960.8231,608.4204 Z " fill="#000000"/><text fill="#000000" font-family="sans-serif" font-size="14" lengthAdjust="spacing" textLength="116" x="1974.15" y="610.791">UserRepositories</text><line style="stroke:#181818;stroke-width:0.5;" x1="1933.5" x2="2102.5" y1="621.5" y2="621.5"/><line style="stroke:#181818;stroke-width:0.5;" x1="1933.5" x2="2102.5" y1="629.5" y2="629.5"/><text fill="#000000" font-family="sans-serif" font-size="14" lengthAdjust="spacing" textLength="159" x="1938.5" y="647.0352">+getUserRepositories()</text><text fill="#000000" font-family="sans-serif" font-size="14" lengthAdjust="spacing" textLength="97" x="1938.5" y="663.5234">+getUserList()</text></g><!--link PublishAnnouncementUI to PublishAnnouncementController--><g id="link_PublishAnnouncementUI_PublishAnnouncementController"><path codeLine="103" d="M1787,55.33 C1787,69.71 1787,89.2 1787,109.37 " fill="none" id="PublishAnnouncementUI-to-PublishAnnouncementController" style="stroke:#181818;stroke-width:1.0;"/><polygon fill="#181818" points="1787,114.13,1791,105.13,1787,109.13,1783,105.13,1787,114.13" style="stroke:#181818;stroke-width:1.0;"/></g><!--link PublishAnnouncementController to Repositories--><g id="link_PublishAnnouncementController_Repositories"><path codeLine="105" d="M1734.02,296.46 C1721.21,318.09 1707.91,340.54 1696.45,359.89 " fill="none" id="PublishAnnouncementController-to-Repositories" style="stroke:#181818;stroke-width:1.0;stroke-dasharray:7.0,7.0;"/><polygon fill="#181818" points="1694.04,363.96,1702.0559,358.2376,1696.5788,359.6525,1695.1639,354.1755,1694.04,363.96" style="stroke:#181818;stroke-width:1.0;"/></g><!--link PublishAnnouncementController to Announcement--><g id="link_PublishAnnouncementController_Announcement"><path codeLine="106" d="M1629.7,296.35 C1598.7,315.46 1566.86,336.19 1538,357 C1465.5,409.29 1389.23,474.16 1329.56,527.42 " fill="none" id="PublishAnnouncementController-to-Announcement" style="stroke:#181818;stroke-width:1.0;"/><polygon fill="#181818" points="1326.06,530.55,1335.4255,527.5025,1329.7765,527.2052,1330.0738,521.5561,1326.06,530.55" style="stroke:#181818;stroke-width:1.0;"/></g><!--link PublishAnnouncementController to PropertyTypeListRepository--><g id="link_PublishAnnouncementController_PropertyTypeListRepository"><path codeLine="107" d="M1790.46,296.22 C1791.1,316.22 1791.67,337.33 1792,357 C1793.39,440.55 1790.95,538.54 1789.31,591.1 " fill="none" id="PublishAnnouncementController-to-PropertyTypeListRepository" style="stroke:#181818;stroke-width:1.0;stroke-dasharray:7.0,7.0;"/><polygon fill="#181818" points="1789.15,596.07,1793.4307,587.2001,1789.3071,591.0725,1785.4347,586.9488,1789.15,596.07" style="stroke:#181818;stroke-width:1.0;"/></g><!--link PublishAnnouncementController to UserRepositories--><g id="link_PublishAnnouncementController_UserRepositories"><path codeLine="108" d="M1835.99,296.5 C1884.1,384.39 1955.57,514.95 1993.03,583.39 " fill="none" id="PublishAnnouncementController-to-UserRepositories" style="stroke:#181818;stroke-width:1.0;stroke-dasharray:7.0,7.0;"/><polygon fill="#181818" points="1995.38,587.68,1994.5685,577.8646,1992.9797,583.2938,1987.5506,581.7051,1995.38,587.68" style="stroke:#181818;stroke-width:1.0;"/></g><!--link Repositories to Announcement--><g id="link_Repositories_Announcement"><path codeLine="110" d="M1565.41,462.89 C1524.79,482.43 1476.2,505.79 1428.48,528.74 " fill="none" id="Repositories-to-Announcement" style="stroke:#181818;stroke-width:1.0;"/><polygon fill="#181818" points="1424.03,530.88,1433.874,530.5712,1428.5331,528.7071,1430.3973,523.3662,1424.03,530.88" style="stroke:#181818;stroke-width:1.0;"/></g><!--link Repositories to PropertyTypeListRepository--><g id="link_Repositories_PropertyTypeListRepository"><path codeLine="111" d="M1692.45,462.76 C1714.9,501.81 1746.18,556.24 1766.75,592.03 " fill="none" id="Repositories-to-PropertyTypeListRepository" style="stroke:#181818;stroke-width:1.0;"/><polygon fill="#181818" points="1769.2,596.3,1768.1626,586.5059,1766.6993,591.9703,1761.235,590.507,1769.2,596.3" style="stroke:#181818;stroke-width:1.0;"/></g><!--link Repositories to UserRepositories--><g id="link_Repositories_UserRepositories"><path codeLine="112" d="M1774.88,457.4 C1820.05,477.09 1871.79,502.65 1915,532 C1937.1,547.01 1959.02,566.78 1976.92,584.55 " fill="none" id="Repositories-to-UserRepositories" style="stroke:#181818;stroke-width:1.0;"/><polygon fill="#181818" points="1980.31,587.95,1976.793,578.7505,1976.7816,584.4073,1971.1248,584.3959,1980.31,587.95" style="stroke:#181818;stroke-width:1.0;"/></g><!--link Announcement to Property--><g id="link_Announcement_Property"><path codeLine="114" d="M960.29,728.49 C895.5,752.81 826.62,778.66 763.84,802.23 " fill="none" id="Announcement-to-Property" style="stroke:#181818;stroke-width:1.0;"/><polygon fill="#181818" points="759.2,803.97,769.0315,804.5552,763.8816,802.2144,766.2225,797.0646,759.2,803.97" style="stroke:#181818;stroke-width:1.0;"/><text fill="#000000" font-family="sans-serif" font-size="13" lengthAdjust="spacing" textLength="22" x="882" y="771.5684">has</text></g><!--reverse link Announcement to Agent--><g id="link_Announcement_Agent"><path codeLine="115" d="M1209.02,734.54 C1205.9,763.91 1202.6,795.02 1199.81,821.32 " fill="none" id="Announcement-backto-Agent" style="stroke:#181818;stroke-width:1.0;"/><polygon fill="#181818" points="1209.52,729.81,1204.5909,738.3367,1208.9914,734.782,1212.546,739.1825,1209.52,729.81" style="stroke:#181818;stroke-width:1.0;"/></g><!--link Announcement to Commission--><g id="link_Announcement_Commission"><path codeLine="116" d="M1292.64,728.3 C1321.58,767.07 1353.45,809.76 1376.67,840.86 " fill="none" id="Announcement-to-Commission" style="stroke:#181818;stroke-width:1.0;"/><polygon fill="#181818" points="1379.41,844.53,1377.2484,834.9213,1376.426,840.518,1370.8293,839.6957,1379.41,844.53" style="stroke:#181818;stroke-width:1.0;"/></g><!--link House to Residence--><g id="link_House_Residence"><path codeLine="117" d="M384,471.23 C384,493.33 384,519.21 384,543.53 " fill="none" id="House-to-Residence" style="stroke:#181818;stroke-width:1.0;"/><polygon fill="none" points="391,543.32,384,563.32,377,543.32,391,543.32" style="stroke:#181818;stroke-width:1.0;"/></g><!--link Residence to Property--><g id="link_Residence_Property"><path codeLine="119" d="M423.87,695.22 C441.06,722.91 461.56,755.93 480.61,786.62 " fill="none" id="Residence-to-Property" style="stroke:#181818;stroke-width:1.0;"/><polygon fill="none" points="486.54,782.9,491.14,803.58,474.65,790.28,486.54,782.9" style="stroke:#181818;stroke-width:1.0;"/></g><!--link Property to Location--><g id="link_Property_Location"><path codeLine="121" d="M507.94,968.27 C498.28,991.18 487.77,1016.08 478.16,1038.86 " fill="none" id="Property-to-Location" style="stroke:#181818;stroke-width:1.0;"/><polygon fill="#181818" points="476.33,1043.21,483.5091,1036.4675,478.2703,1038.6018,476.136,1033.3631,476.33,1043.21" style="stroke:#181818;stroke-width:1.0;"/><text fill="#000000" font-family="sans-serif" font-size="13" lengthAdjust="spacing" textLength="22" x="495" y="1011.5684">has</text></g><!--link Property to Photographs--><g id="link_Property_Photographs"><path codeLine="122" d="M576.06,968.27 C592.13,1006.37 610.53,1049.99 623.26,1080.19 " fill="none" id="Property-to-Photographs" style="stroke:#181818;stroke-width:1.0;"/><polygon fill="#181818" points="625.14,1084.65,625.3231,1074.8028,623.1946,1080.044,617.9535,1077.9155,625.14,1084.65" style="stroke:#181818;stroke-width:1.0;"/></g><!--SRC=[nLRTJjim5BxFK_WoQCqqxRAQaA0WhH9Z5HqFu2Q7n5fY1zjX5CQxxpY94zjfIzcFbgls_9_lVCUs-ivuJIMjI5fIfSwqbcpJQ5YcWg_P4v0FKTHgoAhPb4mLPvoBXgTG0TUtI_8SlHmmM0YkfIXBa6X8y7kNWxvL86-W5eff8Hce-CHJNJ6bhKY1NabHWzJRRziQujhvqvka4gW6QnMB7npaDQrWHb9HLKmf9lYCr9AbhGZheQc-Q2JLhK9XZry-paY6MIbMlS2gGHe7ySWgfhTjL-aQv0D6K3DIYhHrzTBVW68Pe7lCcse3yklTEMHIY0eT1WdLHI1QKOdmv-kQcj3qWRAIRagul6zORU3pSdmMZO9uGrMBx8pnWcwODlPNuiutNHL2YrpIkWZ0l41bd3PIOWJp-yIPdWEjyHecj7L6vngD1h4JnXtiCOwlaU8Pnw9P-e8cIzwDg4lNvtFPrkTBCkpip_apfS-4FJrv0kxieqx079fbGrPRrzyd5NaRgqgaqamr_F8HHz58-5rQsR7Um7q3IhVWEomvovrn3P3FoHfF7vvtufHfX9SlgCokszRcP8duvY0xlQQFLkwwrONWiDC10PUWr60-LDDYOAknKCp9kH0bKDw93J21o879As4diaJKPlOu46TnYOawQZpSHueFFB0bXdG8-fnmOu_U8qg8rOGrkrhyTmoT74kszsxbWchz1PoJ2u6R1pqVpEe6zdisr7FyRnTBm8DNzmzf7TU3ne7kgWzeaTCIG4zsREjBJBdOKc1d3k5WFPzOlH0Ph3MLEe2tLrtoR5ICT1wxi1T4CfO_NSx50BQrVg1b0y6GGQQ8Byr7-H0Wl5dU_18nfPjlzmCeIKuFltnsEZeFe_SOm2tY5NEqTZL71Dz_in_X748KHHwMILZEH7iW-yHscioxtjrmSr9GvQi_9KbtiKozHX95tM6V93zFnuFLD6NFs5PZi-3ixFbZmjYDwf9xAeVLFLsYNm00]--></g></svg>