<?xml version="1.0" encoding="us-ascii" standalone="no"?><svg xmlns="http://www.w3.org/2000/svg" xmlns:xlink="http://www.w3.org/1999/xlink" contentStyleType="text/css" height="844px" preserveAspectRatio="none" style="width:544px;height:844px;background:#FFFFFF;" version="1.1" viewBox="0 0 544 844" width="544px" zoomAndPan="magnify"><defs/><g><text fill="#000000" font-family="sans-serif" font-size="14" font-weight="bold" lengthAdjust="spacing" textLength="362" x="90.25" y="28.5352">US4: As an owner, I intend to submit a request for</text><text fill="#000000" font-family="sans-serif" font-size="14" font-weight="bold" lengthAdjust="spacing" textLength="452" x="47.75" y="45.0234">listing a property sale or rent, choosing the responsible agent.</text><rect fill="#FFFFFF" height="609.1426" style="stroke:#181818;stroke-width:1.0;" width="10" x="50.5" y="145.4648"/><rect fill="#FFFFFF" height="29.3105" style="stroke:#181818;stroke-width:1.0;" width="10" x="480.5" y="166.7754"/><rect fill="#FFFFFF" height="29.3105" style="stroke:#181818;stroke-width:1.0;" width="10" x="480.5" y="225.3965"/><rect fill="#FFFFFF" height="29.3105" style="stroke:#181818;stroke-width:1.0;" width="10" x="480.5" y="299.3281"/><rect fill="#FFFFFF" height="29.3105" style="stroke:#181818;stroke-width:1.0;" width="10" x="480.5" y="397.5703"/><rect fill="#FFFFFF" height="29.3105" style="stroke:#181818;stroke-width:1.0;" width="10" x="480.5" y="495.8125"/><rect fill="#FFFFFF" height="29.3105" style="stroke:#181818;stroke-width:1.0;" width="10" x="480.5" y="599.0547"/><rect fill="#FFFFFF" height="29.3105" style="stroke:#181818;stroke-width:1.0;" width="10" x="480.5" y="657.6758"/><rect fill="#FFFFFF" height="29.3105" style="stroke:#181818;stroke-width:1.0;" width="10" x="480.5" y="716.2969"/><rect fill="none" height="196.4844" style="stroke:#000000;stroke-width:1.5;" width="528.5" x="10" y="343.6387"/><rect fill="none" height="91.2422" style="stroke:#000000;stroke-width:1.5;" width="508.5" x="20" y="441.8809"/><line style="stroke:#181818;stroke-width:0.5;stroke-dasharray:5.0,5.0;" x1="55" x2="55" y1="135.4648" y2="763.6074"/><line style="stroke:#181818;stroke-width:0.5;stroke-dasharray:5.0,5.0;" x1="485.5" x2="485.5" y1="135.4648" y2="763.6074"/><text fill="#000000" font-family="sans-serif" font-size="14" lengthAdjust="spacing" textLength="45" x="30" y="132.5117">Owner</text><ellipse cx="55.5" cy="67.4766" fill="#E3E3E3" rx="8" ry="8" style="stroke:#181818;stroke-width:0.5;"/><path d="M55.5,75.4766 L55.5,102.4766 M42.5,83.4766 L68.5,83.4766 M55.5,102.4766 L42.5,117.4766 M55.5,102.4766 L68.5,117.4766 " fill="none" style="stroke:#181818;stroke-width:0.5;"/><text fill="#000000" font-family="sans-serif" font-size="14" lengthAdjust="spacing" textLength="45" x="30" y="776.1426">Owner</text><ellipse cx="55.5" cy="787.5957" fill="#E3E3E3" rx="8" ry="8" style="stroke:#181818;stroke-width:0.5;"/><path d="M55.5,795.5957 L55.5,822.5957 M42.5,803.5957 L68.5,803.5957 M55.5,822.5957 L42.5,837.5957 M55.5,822.5957 L68.5,837.5957 " fill="none" style="stroke:#181818;stroke-width:0.5;"/><rect fill="#E3E3E3" height="30.4883" rx="2.5" ry="2.5" style="stroke:#181818;stroke-width:0.5;" width="66" x="452.5" y="103.9766"/><text fill="#000000" font-family="sans-serif" font-size="14" lengthAdjust="spacing" textLength="52" x="459.5" y="124.5117">:System</text><rect fill="#E3E3E3" height="30.4883" rx="2.5" ry="2.5" style="stroke:#181818;stroke-width:0.5;" width="66" x="452.5" y="762.6074"/><text fill="#000000" font-family="sans-serif" font-size="14" lengthAdjust="spacing" textLength="52" x="459.5" y="783.1426">:System</text><rect fill="#FFFFFF" height="609.1426" style="stroke:#181818;stroke-width:1.0;" width="10" x="50.5" y="145.4648"/><rect fill="#FFFFFF" height="29.3105" style="stroke:#181818;stroke-width:1.0;" width="10" x="480.5" y="166.7754"/><rect fill="#FFFFFF" height="29.3105" style="stroke:#181818;stroke-width:1.0;" width="10" x="480.5" y="225.3965"/><rect fill="#FFFFFF" height="29.3105" style="stroke:#181818;stroke-width:1.0;" width="10" x="480.5" y="299.3281"/><rect fill="#FFFFFF" height="29.3105" style="stroke:#181818;stroke-width:1.0;" width="10" x="480.5" y="397.5703"/><rect fill="#FFFFFF" height="29.3105" style="stroke:#181818;stroke-width:1.0;" width="10" x="480.5" y="495.8125"/><rect fill="#FFFFFF" height="29.3105" style="stroke:#181818;stroke-width:1.0;" width="10" x="480.5" y="599.0547"/><rect fill="#FFFFFF" height="29.3105" style="stroke:#181818;stroke-width:1.0;" width="10" x="480.5" y="657.6758"/><rect fill="#FFFFFF" height="29.3105" style="stroke:#181818;stroke-width:1.0;" width="10" x="480.5" y="716.2969"/><polygon fill="#181818" points="468.5,162.7754,478.5,166.7754,468.5,170.7754,472.5,166.7754" style="stroke:#181818;stroke-width:1.0;"/><line style="stroke:#181818;stroke-width:1.0;" x1="60.5" x2="474.5" y1="166.7754" y2="166.7754"/><text fill="#000000" font-family="sans-serif" font-size="13" font-weight="bold" lengthAdjust="spacing" textLength="9" x="67.5" y="162.0332">1</text><text fill="#000000" font-family="sans-serif" font-size="13" lengthAdjust="spacing" textLength="241" x="80.5" y="162.0332">Requests to list a property sale or rent</text><polygon fill="#181818" points="71.5,192.0859,61.5,196.0859,71.5,200.0859,67.5,196.0859" style="stroke:#181818;stroke-width:1.0;"/><line style="stroke:#181818;stroke-width:1.0;stroke-dasharray:2.0,2.0;" x1="65.5" x2="484.5" y1="196.0859" y2="196.0859"/><text fill="#000000" font-family="sans-serif" font-size="13" font-weight="bold" lengthAdjust="spacing" textLength="9" x="77.5" y="191.3438">2</text><text fill="#000000" font-family="sans-serif" font-size="13" lengthAdjust="spacing" textLength="145" x="90.5" y="191.3438">Requests property type</text><polygon fill="#181818" points="468.5,221.3965,478.5,225.3965,468.5,229.3965,472.5,225.3965" style="stroke:#181818;stroke-width:1.0;"/><line style="stroke:#181818;stroke-width:1.0;" x1="60.5" x2="474.5" y1="225.3965" y2="225.3965"/><text fill="#000000" font-family="sans-serif" font-size="13" font-weight="bold" lengthAdjust="spacing" textLength="9" x="67.5" y="220.6543">3</text><text fill="#000000" font-family="sans-serif" font-size="13" lengthAdjust="spacing" textLength="132" x="80.5" y="220.6543">Selects property type</text><polygon fill="#181818" points="71.5,250.707,61.5,254.707,71.5,258.707,67.5,254.707" style="stroke:#181818;stroke-width:1.0;"/><line style="stroke:#181818;stroke-width:1.0;stroke-dasharray:2.0,2.0;" x1="65.5" x2="484.5" y1="254.707" y2="254.707"/><text fill="#000000" font-family="sans-serif" font-size="13" font-weight="bold" lengthAdjust="spacing" textLength="9" x="77.5" y="249.9648">4</text><text fill="#000000" font-family="sans-serif" font-size="13" lengthAdjust="spacing" textLength="88" x="90.5" y="249.9648">Requests data</text><polygon fill="#181818" points="468.5,295.3281,478.5,299.3281,468.5,303.3281,472.5,299.3281" style="stroke:#181818;stroke-width:1.0;"/><line style="stroke:#181818;stroke-width:1.0;" x1="60.5" x2="474.5" y1="299.3281" y2="299.3281"/><text fill="#000000" font-family="sans-serif" font-size="13" font-weight="bold" lengthAdjust="spacing" textLength="9" x="67.5" y="286.9307">5</text><text fill="#000000" font-family="sans-serif" font-size="13" lengthAdjust="spacing" textLength="130" x="80.5" y="279.2754">Sends area, location,</text><text fill="#000000" font-family="sans-serif" font-size="13" lengthAdjust="spacing" textLength="337" x="80.5" y="294.5859">distance from city centre, photos and requested price</text><polygon fill="#181818" points="71.5,324.6387,61.5,328.6387,71.5,332.6387,67.5,328.6387" style="stroke:#181818;stroke-width:1.0;"/><line style="stroke:#181818;stroke-width:1.0;stroke-dasharray:2.0,2.0;" x1="65.5" x2="484.5" y1="328.6387" y2="328.6387"/><text fill="#000000" font-family="sans-serif" font-size="13" font-weight="bold" lengthAdjust="spacing" textLength="9" x="77.5" y="323.8965">6</text><text fill="#000000" font-family="sans-serif" font-size="13" lengthAdjust="spacing" textLength="88" x="90.5" y="323.8965">Requests data</text><path d="M10,343.6387 L77,343.6387 L77,350.9492 L67,360.9492 L10,360.9492 L10,343.6387 " fill="#EEEEEE" style="stroke:#000000;stroke-width:1.5;"/><rect fill="none" height="196.4844" style="stroke:#000000;stroke-width:1.5;" width="528.5" x="10" y="343.6387"/><text fill="#000000" font-family="sans-serif" font-size="13" font-weight="bold" lengthAdjust="spacing" textLength="22" x="25" y="357.207">opt</text><text fill="#000000" font-family="sans-serif" font-size="11" font-weight="bold" lengthAdjust="spacing" textLength="186" x="92" y="356.2734">[Property is Apartment or House]</text><polygon fill="#181818" points="468.5,393.5703,478.5,397.5703,468.5,401.5703,472.5,397.5703" style="stroke:#181818;stroke-width:1.0;"/><line style="stroke:#181818;stroke-width:1.0;stroke-dasharray:2.0,2.0;" x1="60.5" x2="474.5" y1="397.5703" y2="397.5703"/><text fill="#000000" font-family="sans-serif" font-size="13" font-weight="bold" lengthAdjust="spacing" textLength="9" x="67.5" y="385.1729">7</text><text fill="#000000" font-family="sans-serif" font-size="13" lengthAdjust="spacing" textLength="384" x="80.5" y="377.5176">Sends info on available equipment, the  number of bedrooms</text><text fill="#000000" font-family="sans-serif" font-size="13" lengthAdjust="spacing" textLength="221" x="80.5" y="392.8281">and bathrooms and parking spaces</text><polygon fill="#181818" points="71.5,422.8809,61.5,426.8809,71.5,430.8809,67.5,426.8809" style="stroke:#181818;stroke-width:1.0;"/><line style="stroke:#181818;stroke-width:1.0;stroke-dasharray:2.0,2.0;" x1="65.5" x2="484.5" y1="426.8809" y2="426.8809"/><text fill="#000000" font-family="sans-serif" font-size="13" font-weight="bold" lengthAdjust="spacing" textLength="9" x="77.5" y="422.1387">8</text><text fill="#000000" font-family="sans-serif" font-size="13" lengthAdjust="spacing" textLength="88" x="90.5" y="422.1387">Requests data</text><path d="M20,441.8809 L87,441.8809 L87,449.1914 L77,459.1914 L20,459.1914 L20,441.8809 " fill="#EEEEEE" style="stroke:#000000;stroke-width:1.5;"/><rect fill="none" height="91.2422" style="stroke:#000000;stroke-width:1.5;" width="508.5" x="20" y="441.8809"/><text fill="#000000" font-family="sans-serif" font-size="13" font-weight="bold" lengthAdjust="spacing" textLength="22" x="35" y="455.4492">opt</text><text fill="#000000" font-family="sans-serif" font-size="11" font-weight="bold" lengthAdjust="spacing" textLength="108" x="102" y="454.5156">[Property is House]</text><polygon fill="#181818" points="468.5,491.8125,478.5,495.8125,468.5,499.8125,472.5,495.8125" style="stroke:#181818;stroke-width:1.0;"/><line style="stroke:#181818;stroke-width:1.0;stroke-dasharray:2.0,2.0;" x1="60.5" x2="474.5" y1="495.8125" y2="495.8125"/><text fill="#000000" font-family="sans-serif" font-size="13" font-weight="bold" lengthAdjust="spacing" textLength="9" x="67.5" y="483.415">9</text><text fill="#000000" font-family="sans-serif" font-size="13" lengthAdjust="spacing" textLength="205" x="80.5" y="475.7598">Selects options about basement,</text><text fill="#000000" font-family="sans-serif" font-size="13" lengthAdjust="spacing" textLength="216" x="80.5" y="491.0703">inhabitable loft, and sun exposure</text><polygon fill="#181818" points="71.5,521.123,61.5,525.123,71.5,529.123,67.5,525.123" style="stroke:#181818;stroke-width:1.0;"/><line style="stroke:#181818;stroke-width:1.0;stroke-dasharray:2.0,2.0;" x1="65.5" x2="484.5" y1="525.123" y2="525.123"/><text fill="#000000" font-family="sans-serif" font-size="13" font-weight="bold" lengthAdjust="spacing" textLength="18" x="77.5" y="520.3809">10</text><text fill="#000000" font-family="sans-serif" font-size="13" lengthAdjust="spacing" textLength="88" x="99.5" y="520.3809">Requests data</text><polygon fill="#181818" points="468.5,595.0547,478.5,599.0547,468.5,603.0547,472.5,599.0547" style="stroke:#181818;stroke-width:1.0;"/><line style="stroke:#181818;stroke-width:1.0;stroke-dasharray:2.0,2.0;" x1="60.5" x2="474.5" y1="599.0547" y2="599.0547"/><text fill="#000000" font-family="sans-serif" font-size="13" font-weight="bold" lengthAdjust="spacing" textLength="18" x="67.5" y="579.002">11</text><text fill="#000000" font-family="sans-serif" font-size="13" lengthAdjust="spacing" textLength="255" x="89.5" y="563.6914">Sends their name, citizen's card number,</text><text fill="#000000" font-family="sans-serif" font-size="13" lengthAdjust="spacing" textLength="298" x="93.5" y="579.002">tax identification number, home address, email</text><text fill="#000000" font-family="sans-serif" font-size="13" lengthAdjust="spacing" textLength="118" x="89.5" y="594.3125">and phone number</text><polygon fill="#181818" points="71.5,624.3652,61.5,628.3652,71.5,632.3652,67.5,628.3652" style="stroke:#181818;stroke-width:1.0;"/><line style="stroke:#181818;stroke-width:1.0;stroke-dasharray:2.0,2.0;" x1="65.5" x2="484.5" y1="628.3652" y2="628.3652"/><text fill="#000000" font-family="sans-serif" font-size="13" font-weight="bold" lengthAdjust="spacing" textLength="18" x="77.5" y="623.623">12</text><text fill="#000000" font-family="sans-serif" font-size="13" lengthAdjust="spacing" textLength="173" x="99.5" y="623.623">Requests to select an agent</text><polygon fill="#181818" points="468.5,653.6758,478.5,657.6758,468.5,661.6758,472.5,657.6758" style="stroke:#181818;stroke-width:1.0;"/><line style="stroke:#181818;stroke-width:1.0;stroke-dasharray:2.0,2.0;" x1="60.5" x2="474.5" y1="657.6758" y2="657.6758"/><text fill="#000000" font-family="sans-serif" font-size="13" font-weight="bold" lengthAdjust="spacing" textLength="18" x="67.5" y="652.9336">13</text><text fill="#000000" font-family="sans-serif" font-size="13" lengthAdjust="spacing" textLength="102" x="89.5" y="652.9336">Selects an agent</text><polygon fill="#181818" points="71.5,682.9863,61.5,686.9863,71.5,690.9863,67.5,686.9863" style="stroke:#181818;stroke-width:1.0;"/><line style="stroke:#181818;stroke-width:1.0;stroke-dasharray:2.0,2.0;" x1="65.5" x2="484.5" y1="686.9863" y2="686.9863"/><text fill="#000000" font-family="sans-serif" font-size="13" font-weight="bold" lengthAdjust="spacing" textLength="18" x="77.5" y="682.2441">14</text><text fill="#000000" font-family="sans-serif" font-size="13" lengthAdjust="spacing" textLength="169" x="99.5" y="682.2441">Asks for data confirmation</text><polygon fill="#181818" points="468.5,712.2969,478.5,716.2969,468.5,720.2969,472.5,716.2969" style="stroke:#181818;stroke-width:1.0;"/><line style="stroke:#181818;stroke-width:1.0;stroke-dasharray:2.0,2.0;" x1="60.5" x2="474.5" y1="716.2969" y2="716.2969"/><text fill="#000000" font-family="sans-serif" font-size="13" font-weight="bold" lengthAdjust="spacing" textLength="18" x="67.5" y="711.5547">15</text><text fill="#000000" font-family="sans-serif" font-size="13" lengthAdjust="spacing" textLength="270" x="89.5" y="711.5547">Confirms the data and submits the request</text><polygon fill="#181818" points="71.5,741.6074,61.5,745.6074,71.5,749.6074,67.5,745.6074" style="stroke:#181818;stroke-width:1.0;"/><line style="stroke:#181818;stroke-width:1.0;stroke-dasharray:2.0,2.0;" x1="65.5" x2="484.5" y1="745.6074" y2="745.6074"/><text fill="#000000" font-family="sans-serif" font-size="13" font-weight="bold" lengthAdjust="spacing" textLength="18" x="77.5" y="740.8652">16</text><text fill="#000000" font-family="sans-serif" font-size="13" lengthAdjust="spacing" textLength="153" x="99.5" y="740.8652">Shows success message</text><!--SRC=[jLKzRzj03DtrAuWiNPHEdJ8K2BgqKuiQtR9G9oewM2BL8nN7_VNbdHJ3GUmq3b0DrfsE7- -HxsZTHfumuGYZi8G-oKXWQQPA3oSJXYtUqyRs0q6YOCZtmx61zjZABl8zT3WeLPL5SzDVcqytSAk03B9ZIZLyWyX6t889wDoCqG0zuk-PrA2J17SyHBKS2M5ACb6oFIXwC3zCn5P3w4KqMrYVqUWahB5n2uV8zh6gS3RXUMme-JgOErvzp-cl01NAgdBO5aESa0skRZPxDHhByR8iVl41ZLPxyAUiuFhpQdC3FnVScibarESW5-z3m3K3hC-oXMkFMn8SXJq4i_r4nQ6bKs5U0DlGu4qw5U0TA5eql2mvjzxoH5Z3804j2jVUrzOhX1m8EfSOXEYmWXSdKGrJBoPP9ksJ5gXry37yBz0o6VnuAavKkCrw61rDRjbNcPKEILP-BmX6xWI40Hym3fZbvxdZD1Q9PcN28a6G3XfgayYeNeNCiK7hbttUUUfjLhFwBICzv3r7-gt4pvC_LO3ddC_nNbJbljvI1z_8R4v6QI5znv5xRAALQWpI-RTCK6S6Ufn4v_GynMiKBw7vEbNlLdNyFjTGxrbCm3Yw85sTyG_n1uM0gLqxMTyn63v2R9rkxE8YxQT3wFFWnBRrYQGrqEYoMFljycPQxTuhw3mlI_tpC2s3xjztyaJldZc_7SQjRhMCvrnt2C9TJ6EXVn6ABujZgVKIQj57_X_GTPmNlXV2s_IoKuyJ_08fZFxZ9CyW-mi0]--></g></svg>