<?xml version="1.0" encoding="us-ascii" standalone="no"?><svg xmlns="http://www.w3.org/2000/svg" xmlns:xlink="http://www.w3.org/1999/xlink" contentStyleType="text/css" height="931px" preserveAspectRatio="none" style="width:1629px;height:931px;background:#FFFFFF;" version="1.1" viewBox="0 0 1629 931" width="1629px" zoomAndPan="magnify"><defs/><g><!--class Employee--><g id="elem_Employee"><rect codeLine="10" fill="#F1F1F1" height="113.9531" id="Employee" rx="2.5" ry="2.5" style="stroke:#181818;stroke-width:0.5;" width="180" x="427.5" y="7"/><ellipse cx="480.25" cy="23" fill="#ADD1B2" rx="11" ry="11" style="stroke:#181818;stroke-width:1.0;"/><path d="M483.2231,28.6431 Q482.6421,28.9419 482.0029,29.0913 Q481.3638,29.2407 480.6582,29.2407 Q478.1514,29.2407 476.8315,27.5889 Q475.5117,25.937 475.5117,22.8159 Q475.5117,19.6865 476.8315,18.0347 Q478.1514,16.3828 480.6582,16.3828 Q481.3638,16.3828 482.0112,16.5322 Q482.6587,16.6816 483.2231,16.9805 L483.2231,19.7031 Q482.5923,19.1221 481.9988,18.8523 Q481.4053,18.5825 480.7744,18.5825 Q479.4297,18.5825 478.7449,19.6492 Q478.0601,20.7158 478.0601,22.8159 Q478.0601,24.9077 478.7449,25.9744 Q479.4297,27.041 480.7744,27.041 Q481.4053,27.041 481.9988,26.7712 Q482.5923,26.5015 483.2231,25.9204 Z " fill="#000000"/><text fill="#000000" font-family="sans-serif" font-size="14" lengthAdjust="spacing" textLength="66" x="500.75" y="28.291">Employee</text><line style="stroke:#181818;stroke-width:0.5;" x1="428.5" x2="606.5" y1="39" y2="39"/><text fill="#000000" font-family="sans-serif" font-size="14" lengthAdjust="spacing" textLength="168" x="433.5" y="56.5352">-String passportNumber</text><text fill="#000000" font-family="sans-serif" font-size="14" lengthAdjust="spacing" textLength="130" x="433.5" y="73.0234">-String taxNumber</text><text fill="#000000" font-family="sans-serif" font-size="14" lengthAdjust="spacing" textLength="152" x="433.5" y="89.5117">-String phoneNumber</text><text fill="#000000" font-family="sans-serif" font-size="14" lengthAdjust="spacing" textLength="82" x="433.5" y="106">-String pwd</text><line style="stroke:#181818;stroke-width:0.5;" x1="428.5" x2="606.5" y1="112.9531" y2="112.9531"/></g><!--class ScheduleVisitResponseUI--><g id="elem_ScheduleVisitResponseUI"><rect codeLine="19" fill="#F1F1F1" height="48" id="ScheduleVisitResponseUI" rx="2.5" ry="2.5" style="stroke:#181818;stroke-width:0.5;" width="203" x="416" y="181"/><ellipse cx="431" cy="197" fill="#ADD1B2" rx="11" ry="11" style="stroke:#181818;stroke-width:1.0;"/><path d="M433.9731,202.6431 Q433.3921,202.9419 432.7529,203.0913 Q432.1138,203.2407 431.4082,203.2407 Q428.9014,203.2407 427.5815,201.5889 Q426.2617,199.937 426.2617,196.8159 Q426.2617,193.6865 427.5815,192.0347 Q428.9014,190.3828 431.4082,190.3828 Q432.1138,190.3828 432.7612,190.5322 Q433.4087,190.6816 433.9731,190.9805 L433.9731,193.7031 Q433.3423,193.1221 432.7488,192.8523 Q432.1553,192.5825 431.5244,192.5825 Q430.1797,192.5825 429.4949,193.6492 Q428.8101,194.7158 428.8101,196.8159 Q428.8101,198.9077 429.4949,199.9744 Q430.1797,201.041 431.5244,201.041 Q432.1553,201.041 432.7488,200.7712 Q433.3423,200.5015 433.9731,199.9204 Z " fill="#000000"/><text fill="#000000" font-family="sans-serif" font-size="14" lengthAdjust="spacing" textLength="171" x="445" y="202.291">ScheduleVisitResponseUI</text><line style="stroke:#181818;stroke-width:0.5;" x1="417" x2="618" y1="213" y2="213"/><line style="stroke:#181818;stroke-width:0.5;" x1="417" x2="618" y1="221" y2="221"/></g><!--class ScheduleVisitResponseController--><g id="elem_ScheduleVisitResponseController"><rect codeLine="22" fill="#F1F1F1" height="113.9531" id="ScheduleVisitResponseController" rx="2.5" ry="2.5" style="stroke:#181818;stroke-width:0.5;" width="259" x="388" y="289"/><ellipse cx="403" cy="305" fill="#ADD1B2" rx="11" ry="11" style="stroke:#181818;stroke-width:1.0;"/><path d="M405.9731,310.6431 Q405.3921,310.9419 404.7529,311.0913 Q404.1138,311.2407 403.4082,311.2407 Q400.9014,311.2407 399.5815,309.5889 Q398.2617,307.937 398.2617,304.8159 Q398.2617,301.6865 399.5815,300.0347 Q400.9014,298.3828 403.4082,298.3828 Q404.1138,298.3828 404.7612,298.5322 Q405.4087,298.6816 405.9731,298.9805 L405.9731,301.7031 Q405.3423,301.1221 404.7488,300.8523 Q404.1553,300.5825 403.5244,300.5825 Q402.1797,300.5825 401.4949,301.6492 Q400.8101,302.7158 400.8101,304.8159 Q400.8101,306.9077 401.4949,307.9744 Q402.1797,309.041 403.5244,309.041 Q404.1553,309.041 404.7488,308.7712 Q405.3423,308.5015 405.9731,307.9204 Z " fill="#000000"/><text fill="#000000" font-family="sans-serif" font-size="14" lengthAdjust="spacing" textLength="227" x="417" y="310.291">ScheduleVisitResponseController</text><line style="stroke:#181818;stroke-width:0.5;" x1="389" x2="646" y1="321" y2="321"/><text fill="#000000" font-family="sans-serif" font-size="14" lengthAdjust="spacing" textLength="205" x="394" y="338.5352">-EmailServiceAdapter adapter</text><text fill="#000000" font-family="sans-serif" font-size="14" lengthAdjust="spacing" textLength="182" x="394" y="355.0234">-EmailService emailService</text><line style="stroke:#181818;stroke-width:0.5;" x1="389" x2="646" y1="361.9766" y2="361.9766"/><text fill="#000000" font-family="sans-serif" font-size="14" lengthAdjust="spacing" textLength="150" x="394" y="379.5117">+getVisitRequestList()</text><text fill="#000000" font-family="sans-serif" font-size="14" lengthAdjust="spacing" textLength="217" x="394" y="396">+getAuthenticationRepository()</text></g><!--class Repositories--><g id="elem_Repositories"><rect codeLine="29" fill="#F1F1F1" height="130.4414" id="Repositories" rx="2.5" ry="2.5" style="stroke:#181818;stroke-width:0.5;" width="370" x="451.5" y="463"/><ellipse cx="589.75" cy="479" fill="#ADD1B2" rx="11" ry="11" style="stroke:#181818;stroke-width:1.0;"/><path d="M592.7231,484.6431 Q592.1421,484.9419 591.5029,485.0913 Q590.8638,485.2407 590.1582,485.2407 Q587.6514,485.2407 586.3315,483.5889 Q585.0117,481.937 585.0117,478.8159 Q585.0117,475.6865 586.3315,474.0347 Q587.6514,472.3828 590.1582,472.3828 Q590.8638,472.3828 591.5112,472.5322 Q592.1587,472.6816 592.7231,472.9805 L592.7231,475.7031 Q592.0923,475.1221 591.4988,474.8523 Q590.9053,474.5825 590.2744,474.5825 Q588.9297,474.5825 588.2449,475.6492 Q587.5601,476.7158 587.5601,478.8159 Q587.5601,480.9077 588.2449,481.9744 Q588.9297,483.041 590.2744,483.041 Q590.9053,483.041 591.4988,482.7712 Q592.0923,482.5015 592.7231,481.9204 Z " fill="#000000"/><text fill="#000000" font-family="sans-serif" font-size="14" lengthAdjust="spacing" textLength="85" x="610.25" y="484.291">Repositories</text><line style="stroke:#181818;stroke-width:0.5;" x1="452.5" x2="820.5" y1="495" y2="495"/><text fill="#000000" font-family="sans-serif" font-size="14" lengthAdjust="spacing" textLength="358" x="457.5" y="512.5352">-AuthenticationRepository authenticationRepository</text><text fill="#000000" font-family="sans-serif" font-size="14" lengthAdjust="spacing" textLength="327" x="457.5" y="529.0234">+VisitRequestRepository visitRequestRepository</text><line style="stroke:#181818;stroke-width:0.5;" x1="452.5" x2="820.5" y1="535.9766" y2="535.9766"/><text fill="#000000" font-family="sans-serif" font-size="14" lengthAdjust="spacing" textLength="97" x="457.5" y="553.5117">-getInstance()</text><text fill="#000000" font-family="sans-serif" font-size="14" lengthAdjust="spacing" textLength="197" x="457.5" y="570">-getVisitRequestRepository()</text><text fill="#000000" font-family="sans-serif" font-size="14" lengthAdjust="spacing" textLength="214" x="457.5" y="586.4883">-getAuthenticationRepository()</text></g><!--class VisitRequest--><g id="elem_VisitRequest"><rect codeLine="37" fill="#F1F1F1" height="146.9297" id="VisitRequest" rx="2.5" ry="2.5" style="stroke:#181818;stroke-width:0.5;" width="245" x="7" y="653"/><ellipse cx="83.25" cy="669" fill="#ADD1B2" rx="11" ry="11" style="stroke:#181818;stroke-width:1.0;"/><path d="M86.2231,674.6431 Q85.6421,674.9419 85.0029,675.0913 Q84.3638,675.2407 83.6582,675.2407 Q81.1514,675.2407 79.8315,673.5889 Q78.5117,671.937 78.5117,668.8159 Q78.5117,665.6865 79.8315,664.0347 Q81.1514,662.3828 83.6582,662.3828 Q84.3638,662.3828 85.0112,662.5322 Q85.6587,662.6816 86.2231,662.9805 L86.2231,665.7031 Q85.5923,665.1221 84.9988,664.8523 Q84.4053,664.5825 83.7744,664.5825 Q82.4297,664.5825 81.7449,665.6492 Q81.0601,666.7158 81.0601,668.8159 Q81.0601,670.9077 81.7449,671.9744 Q82.4297,673.041 83.7744,673.041 Q84.4053,673.041 84.9988,672.7712 Q85.5923,672.5015 86.2231,671.9204 Z " fill="#000000"/><text fill="#000000" font-family="sans-serif" font-size="14" lengthAdjust="spacing" textLength="84" x="103.75" y="674.291">VisitRequest</text><line style="stroke:#181818;stroke-width:0.5;" x1="8" x2="251" y1="685" y2="685"/><text fill="#000000" font-family="sans-serif" font-size="14" lengthAdjust="spacing" textLength="233" x="13" y="702.5352">+List&lt;VisitRequest&gt; visitRequests</text><line style="stroke:#181818;stroke-width:0.5;" x1="8" x2="251" y1="709.4883" y2="709.4883"/><text fill="#000000" font-family="sans-serif" font-size="14" lengthAdjust="spacing" textLength="187" x="13" y="727.0234">-getVisitRequestById(int id)</text><text fill="#000000" font-family="sans-serif" font-size="14" lengthAdjust="spacing" textLength="152" x="13" y="743.5117">-getAnnouncements()</text><text fill="#000000" font-family="sans-serif" font-size="14" lengthAdjust="spacing" textLength="81" x="13" y="760">-getAgent()</text><text fill="#000000" font-family="sans-serif" font-size="14" lengthAdjust="spacing" textLength="82" x="13" y="776.4883">-getStatus()</text><text fill="#000000" font-family="sans-serif" font-size="14" lengthAdjust="spacing" textLength="199" x="13" y="792.9766">-setStatus(Status.ACCEPTED)</text></g><!--class VisitRequestRepository--><g id="elem_VisitRequestRepository"><rect codeLine="46" fill="#F1F1F1" height="64.4883" id="VisitRequestRepository" rx="2.5" ry="2.5" style="stroke:#181818;stroke-width:0.5;" width="400" x="287.5" y="694.5"/><ellipse cx="404.75" cy="710.5" fill="#ADD1B2" rx="11" ry="11" style="stroke:#181818;stroke-width:1.0;"/><path d="M407.7231,716.1431 Q407.1421,716.4419 406.5029,716.5913 Q405.8638,716.7407 405.1582,716.7407 Q402.6514,716.7407 401.3315,715.0889 Q400.0117,713.437 400.0117,710.3159 Q400.0117,707.1865 401.3315,705.5347 Q402.6514,703.8828 405.1582,703.8828 Q405.8638,703.8828 406.5112,704.0322 Q407.1587,704.1816 407.7231,704.4805 L407.7231,707.2031 Q407.0923,706.6221 406.4988,706.3523 Q405.9053,706.0825 405.2744,706.0825 Q403.9297,706.0825 403.2449,707.1492 Q402.5601,708.2158 402.5601,710.3159 Q402.5601,712.4077 403.2449,713.4744 Q403.9297,714.541 405.2744,714.541 Q405.9053,714.541 406.4988,714.2712 Q407.0923,714.0015 407.7231,713.4204 Z " fill="#000000"/><text fill="#000000" font-family="sans-serif" font-size="14" lengthAdjust="spacing" textLength="157" x="425.25" y="715.791">VisitRequestRepository</text><line style="stroke:#181818;stroke-width:0.5;" x1="288.5" x2="686.5" y1="726.5" y2="726.5"/><line style="stroke:#181818;stroke-width:0.5;" x1="288.5" x2="686.5" y1="734.5" y2="734.5"/><text fill="#000000" font-family="sans-serif" font-size="14" lengthAdjust="spacing" textLength="388" x="293.5" y="752.0352">-acceptVisitRequest(VisitRequest visit, Status.ACCEPTED)</text></g><!--class EmailService--><g id="elem_EmailService"><rect codeLine="50" fill="#F1F1F1" height="64.4883" id="EmailService" rx="2.5" ry="2.5" style="stroke:#181818;stroke-width:0.5;" width="766" x="856.5" y="496"/><ellipse cx="1192.75" cy="512" fill="#B4A7E5" rx="11" ry="11" style="stroke:#181818;stroke-width:1.0;"/><path d="M1188.6777,507.7651 L1188.6777,505.6069 L1196.0571,505.6069 L1196.0571,507.7651 L1193.5918,507.7651 L1193.5918,515.8418 L1196.0571,515.8418 L1196.0571,518 L1188.6777,518 L1188.6777,515.8418 L1191.1431,515.8418 L1191.1431,507.7651 Z " fill="#000000"/><text fill="#000000" font-family="sans-serif" font-size="14" font-style="italic" lengthAdjust="spacing" textLength="85" x="1213.25" y="517.291">EmailService</text><line style="stroke:#181818;stroke-width:0.5;" x1="857.5" x2="1621.5" y1="528" y2="528"/><line style="stroke:#181818;stroke-width:0.5;" x1="857.5" x2="1621.5" y1="536" y2="536"/><text fill="#000000" font-family="sans-serif" font-size="14" lengthAdjust="spacing" textLength="754" x="862.5" y="553.5352">-sendNotificationEmailForVisitRequest(String email, VisitRequest visitRequest, Announcement announcement)</text></g><!--class GmailService--><g id="elem_GmailService"><rect codeLine="54" fill="#F1F1F1" height="64.4883" id="GmailService" rx="2.5" ry="2.5" style="stroke:#181818;stroke-width:0.5;" width="119" x="1011" y="860"/><ellipse cx="1026" cy="876" fill="#ADD1B2" rx="11" ry="11" style="stroke:#181818;stroke-width:1.0;"/><path d="M1028.9731,881.6431 Q1028.3921,881.9419 1027.7529,882.0913 Q1027.1138,882.2407 1026.4082,882.2407 Q1023.9014,882.2407 1022.5815,880.5889 Q1021.2617,878.937 1021.2617,875.8159 Q1021.2617,872.6865 1022.5815,871.0347 Q1023.9014,869.3828 1026.4082,869.3828 Q1027.1138,869.3828 1027.7612,869.5322 Q1028.4087,869.6816 1028.9731,869.9805 L1028.9731,872.7031 Q1028.3423,872.1221 1027.7488,871.8523 Q1027.1553,871.5825 1026.5244,871.5825 Q1025.1797,871.5825 1024.4949,872.6492 Q1023.8101,873.7158 1023.8101,875.8159 Q1023.8101,877.9077 1024.4949,878.9744 Q1025.1797,880.041 1026.5244,880.041 Q1027.1553,880.041 1027.7488,879.7712 Q1028.3423,879.5015 1028.9731,878.9204 Z " fill="#000000"/><text fill="#000000" font-family="sans-serif" font-size="14" lengthAdjust="spacing" textLength="87" x="1040" y="881.291">GmailService</text><line style="stroke:#181818;stroke-width:0.5;" x1="1012" x2="1129" y1="892" y2="892"/><text fill="#000000" font-family="sans-serif" font-size="14" lengthAdjust="spacing" textLength="87" x="1017" y="909.5352">+int number</text><line style="stroke:#181818;stroke-width:0.5;" x1="1012" x2="1129" y1="916.4883" y2="916.4883"/></g><!--class TextEmailService--><g id="elem_TextEmailService"><rect codeLine="58" fill="#F1F1F1" height="64.4883" id="TextEmailService" rx="2.5" ry="2.5" style="stroke:#181818;stroke-width:0.5;" width="148" x="1165.5" y="860"/><ellipse cx="1180.5" cy="876" fill="#ADD1B2" rx="11" ry="11" style="stroke:#181818;stroke-width:1.0;"/><path d="M1183.4731,881.6431 Q1182.8921,881.9419 1182.2529,882.0913 Q1181.6138,882.2407 1180.9082,882.2407 Q1178.4014,882.2407 1177.0815,880.5889 Q1175.7617,878.937 1175.7617,875.8159 Q1175.7617,872.6865 1177.0815,871.0347 Q1178.4014,869.3828 1180.9082,869.3828 Q1181.6138,869.3828 1182.2612,869.5322 Q1182.9087,869.6816 1183.4731,869.9805 L1183.4731,872.7031 Q1182.8423,872.1221 1182.2488,871.8523 Q1181.6553,871.5825 1181.0244,871.5825 Q1179.6797,871.5825 1178.9949,872.6492 Q1178.3101,873.7158 1178.3101,875.8159 Q1178.3101,877.9077 1178.9949,878.9744 Q1179.6797,880.041 1181.0244,880.041 Q1181.6553,880.041 1182.2488,879.7712 Q1182.8423,879.5015 1183.4731,878.9204 Z " fill="#000000"/><text fill="#000000" font-family="sans-serif" font-size="14" lengthAdjust="spacing" textLength="116" x="1194.5" y="881.291">TextEmailService</text><line style="stroke:#181818;stroke-width:0.5;" x1="1166.5" x2="1312.5" y1="892" y2="892"/><text fill="#000000" font-family="sans-serif" font-size="14" lengthAdjust="spacing" textLength="87" x="1171.5" y="909.5352">+int number</text><line style="stroke:#181818;stroke-width:0.5;" x1="1166.5" x2="1312.5" y1="916.4883" y2="916.4883"/></g><!--class DeiService--><g id="elem_DeiService"><rect codeLine="62" fill="#F1F1F1" height="64.4883" id="DeiService" rx="2.5" ry="2.5" style="stroke:#181818;stroke-width:0.5;" width="102" x="1348.5" y="860"/><ellipse cx="1363.5" cy="876" fill="#ADD1B2" rx="11" ry="11" style="stroke:#181818;stroke-width:1.0;"/><path d="M1366.4731,881.6431 Q1365.8921,881.9419 1365.2529,882.0913 Q1364.6138,882.2407 1363.9082,882.2407 Q1361.4014,882.2407 1360.0815,880.5889 Q1358.7617,878.937 1358.7617,875.8159 Q1358.7617,872.6865 1360.0815,871.0347 Q1361.4014,869.3828 1363.9082,869.3828 Q1364.6138,869.3828 1365.2612,869.5322 Q1365.9087,869.6816 1366.4731,869.9805 L1366.4731,872.7031 Q1365.8423,872.1221 1365.2488,871.8523 Q1364.6553,871.5825 1364.0244,871.5825 Q1362.6797,871.5825 1361.9949,872.6492 Q1361.3101,873.7158 1361.3101,875.8159 Q1361.3101,877.9077 1361.9949,878.9744 Q1362.6797,880.041 1364.0244,880.041 Q1364.6553,880.041 1365.2488,879.7712 Q1365.8423,879.5015 1366.4731,878.9204 Z " fill="#000000"/><text fill="#000000" font-family="sans-serif" font-size="14" lengthAdjust="spacing" textLength="70" x="1377.5" y="881.291">DeiService</text><line style="stroke:#181818;stroke-width:0.5;" x1="1349.5" x2="1449.5" y1="892" y2="892"/><text fill="#000000" font-family="sans-serif" font-size="14" lengthAdjust="spacing" textLength="87" x="1354.5" y="909.5352">+int number</text><line style="stroke:#181818;stroke-width:0.5;" x1="1349.5" x2="1449.5" y1="916.4883" y2="916.4883"/></g><!--class AuthenticationRepository--><g id="elem_AuthenticationRepository"><rect fill="#F1F1F1" height="48" id="AuthenticationRepository" rx="2.5" ry="2.5" style="stroke:#181818;stroke-width:0.5;" width="206" x="722.5" y="702.5"/><ellipse cx="737.5" cy="718.5" fill="#ADD1B2" rx="11" ry="11" style="stroke:#181818;stroke-width:1.0;"/><path d="M740.4731,724.1431 Q739.8921,724.4419 739.2529,724.5913 Q738.6138,724.7407 737.9082,724.7407 Q735.4014,724.7407 734.0815,723.0889 Q732.7617,721.437 732.7617,718.3159 Q732.7617,715.1865 734.0815,713.5347 Q735.4014,711.8828 737.9082,711.8828 Q738.6138,711.8828 739.2612,712.0322 Q739.9087,712.1816 740.4731,712.4805 L740.4731,715.2031 Q739.8423,714.6221 739.2488,714.3523 Q738.6553,714.0825 738.0244,714.0825 Q736.6797,714.0825 735.9949,715.1492 Q735.3101,716.2158 735.3101,718.3159 Q735.3101,720.4077 735.9949,721.4744 Q736.6797,722.541 738.0244,722.541 Q738.6553,722.541 739.2488,722.2712 Q739.8423,722.0015 740.4731,721.4204 Z " fill="#000000"/><text fill="#000000" font-family="sans-serif" font-size="14" lengthAdjust="spacing" textLength="174" x="751.5" y="723.791">AuthenticationRepository</text><line style="stroke:#181818;stroke-width:0.5;" x1="723.5" x2="927.5" y1="734.5" y2="734.5"/><line style="stroke:#181818;stroke-width:0.5;" x1="723.5" x2="927.5" y1="742.5" y2="742.5"/></g><!--link ScheduleVisitResponseUI to ScheduleVisitResponseController--><g id="link_ScheduleVisitResponseUI_ScheduleVisitResponseController"><path codeLine="66" d="M517.5,229.27 C517.5,243.85 517.5,263.4 517.5,282.28 " fill="none" id="ScheduleVisitResponseUI-to-ScheduleVisitResponseController" style="stroke:#181818;stroke-width:1.0;stroke-dasharray:7.0,7.0;"/><polygon fill="#181818" points="517.5,287.13,521.5,278.13,517.5,282.13,513.5,278.13,517.5,287.13" style="stroke:#181818;stroke-width:1.0;"/></g><!--link ScheduleVisitResponseController to Repositories--><g id="link_ScheduleVisitResponseController_Repositories"><path codeLine="67" d="M554.83,403.46 C566.17,420.61 578.76,439.66 590.59,457.56 " fill="none" id="ScheduleVisitResponseController-to-Repositories" style="stroke:#181818;stroke-width:1.0;stroke-dasharray:7.0,7.0;"/><polygon fill="#181818" points="593.08,461.32,591.4544,451.6062,590.323,457.1488,584.7804,456.0174,593.08,461.32" style="stroke:#181818;stroke-width:1.0;"/></g><!--link Repositories to VisitRequestRepository--><g id="link_Repositories_VisitRequestRepository"><path codeLine="68" d="M587.71,593.34 C563.58,625.16 535.35,662.39 515.01,689.22 " fill="none" id="Repositories-to-VisitRequestRepository" style="stroke:#181818;stroke-width:1.0;stroke-dasharray:7.0,7.0;"/><polygon fill="#181818" points="512.22,692.89,520.85,688.1441,515.2451,688.9089,514.4802,683.304,512.22,692.89" style="stroke:#181818;stroke-width:1.0;"/></g><!--link Repositories to AuthenticationRepository--><g id="link_Repositories_AuthenticationRepository"><path codeLine="69" d="M698.39,593.34 C732.38,628.68 772.78,670.69 798.77,697.71 " fill="none" id="Repositories-to-AuthenticationRepository" style="stroke:#181818;stroke-width:1.0;stroke-dasharray:7.0,7.0;"/><polygon fill="#181818" points="802.08,701.15,798.7305,691.8882,798.6165,697.5439,792.9607,697.4299,802.08,701.15" style="stroke:#181818;stroke-width:1.0;"/></g><!--link ScheduleVisitResponseController to VisitRequestRepository--><g id="link_ScheduleVisitResponseController_VisitRequestRepository"><path codeLine="70" d="M476.73,403.3 C455.33,432.86 433.5,463 433.5,463 C433.5,463 433.5,593 433.5,593 C433.5,593 456.42,649.25 472.4,688.45 " fill="none" id="ScheduleVisitResponseController-to-VisitRequestRepository" style="stroke:#181818;stroke-width:1.0;"/><polygon fill="#181818" points="474.13,692.7,474.4493,682.8563,472.2485,688.0675,467.0373,685.8667,474.13,692.7" style="stroke:#181818;stroke-width:1.0;"/></g><!--link ScheduleVisitResponseController to EmailService--><g id="link_ScheduleVisitResponseController_EmailService"><path codeLine="71" d="M647.41,379.39 C777.4,411.79 976.34,461.39 1107.17,494.01 " fill="none" id="ScheduleVisitResponseController-to-EmailService" style="stroke:#181818;stroke-width:1.0;"/><polygon fill="#181818" points="1111.88,495.18,1104.1231,489.1112,1107.0301,493.964,1102.1774,496.871,1111.88,495.18" style="stroke:#181818;stroke-width:1.0;"/></g><!--link EmailService to GmailService--><g id="link_EmailService_GmailService"><path codeLine="72" d="M1224.8,560.49 C1193.67,627.17 1121.24,782.31 1087.89,853.76 " fill="none" id="EmailService-to-GmailService" style="stroke:#181818;stroke-width:1.0;stroke-dasharray:7.0,7.0;"/><polygon fill="#181818" points="1085.81,858.21,1093.2418,851.7472,1087.9252,853.6794,1085.9929,848.3628,1085.81,858.21" style="stroke:#181818;stroke-width:1.0;"/></g><!--link EmailService to DeiService--><g id="link_EmailService_DeiService"><path codeLine="73" d="M1253.42,560.49 C1282.89,627.17 1351.46,782.31 1383.04,853.76 " fill="none" id="EmailService-to-DeiService" style="stroke:#181818;stroke-width:1.0;stroke-dasharray:7.0,7.0;"/><polygon fill="#181818" points="1385,858.2,1385.0315,848.3512,1382.9839,853.6245,1377.7106,851.5769,1385,858.2" style="stroke:#181818;stroke-width:1.0;"/></g><!--link EmailService to TextEmailService--><g id="link_EmailService_TextEmailService"><path codeLine="74" d="M1239.5,560.49 C1239.5,627.03 1239.5,781.68 1239.5,853.33 " fill="none" id="EmailService-to-TextEmailService" style="stroke:#181818;stroke-width:1.0;stroke-dasharray:7.0,7.0;"/><polygon fill="#181818" points="1239.5,858.07,1243.5,849.07,1239.5,853.07,1235.5,849.07,1239.5,858.07" style="stroke:#181818;stroke-width:1.0;"/></g><!--link Employee to ScheduleVisitResponseUI--><g id="link_Employee_ScheduleVisitResponseUI"><path codeLine="75" d="M517.5,121.14 C517.5,139.33 517.5,158.8 517.5,174.29 " fill="none" id="Employee-to-ScheduleVisitResponseUI" style="stroke:#181818;stroke-width:1.0;"/><polygon fill="#181818" points="517.5,179.15,521.5,170.15,517.5,174.15,513.5,170.15,517.5,179.15" style="stroke:#181818;stroke-width:1.0;"/></g><!--link ScheduleVisitResponseController to VisitRequest--><g id="link_ScheduleVisitResponseController_VisitRequest"><path codeLine="76" d="M459.83,403.26 C393.18,468.27 283.13,575.63 208.54,648.4 " fill="none" id="ScheduleVisitResponseController-to-VisitRequest" style="stroke:#181818;stroke-width:1.0;"/><polygon fill="#181818" points="205.21,651.64,214.4515,648.2348,208.7952,648.1548,208.8752,642.4985,205.21,651.64" style="stroke:#181818;stroke-width:1.0;"/></g><!--link VisitRequest to VisitRequestRepository--><g id="link_VisitRequest_VisitRequestRepository"><path codeLine="77" d="M252.28,726.5 C257.46,726.5 268.05,726.5 280.81,726.5 " fill="none" id="VisitRequest-to-VisitRequestRepository" style="stroke:#181818;stroke-width:1.0;"/><polygon fill="#181818" points="285.72,726.5,276.72,722.5,280.72,726.5,276.72,730.5,285.72,726.5" style="stroke:#181818;stroke-width:1.0;"/></g><!--SRC=[bLJRRjim37tNL_1j6H87-u2XW9TcHO2X6EfkxwhCs48LIPFejbwmVvzycIixSTCzsUGXUGufIlvHQiiTFu3buf4Nc56j41mAuhfGoFmGu4kUcsUf2zXpvMD4IOrKMmHhLDqOZ4MeKDpxbCZ9Xufm9upEv6-4JunzKBWd80DE5YL1BXjQQJHhKs1xiChKY4UMP24x4DlWjiRHRNLuG3UuYRzCFBOq6gU-vvonFq5QLpqJ9UQLmf_IIxh3K5Tx_B4xDY5lH6oC9cUKGXTa1ObSgWpTanIOvjmIEk3TTu82HWPRGe7Kr_rLeQTlqjFYO-TFAofHanIy6SOTMXFYZAi3FcWRl19z8sGk1_WC4AXY_YZZwQoR9K7PJlkm5WA3acJIm4XcyjusuWf7jcocy3dsNOtK-1FMB_KkNqXD8FDEKggrgOB2Gs3slSoq24R_dn6dgWNyO7IVTRhPRB_VRwzdvBqs4ERDXK0xKhA8ZKxr2ivL3chHxNdOY7WzZeqWdTyQalj-OYtyrRWHIx_BxJAju9IpDrOG3m9uP4JjtOm4B9ivwkxE327t-4BRos7NAES2PkuPh9EhIpUCNS3R6l5DOB7HekTFy3HkRbalIaZcITwJ6i-MZTwBTGFVl0s_ZlqCE3qwzkyzRObdZkM_-sMZ7PmTnby0]--></g></svg>