<?xml version="1.0" encoding="us-ascii" standalone="no"?><svg xmlns="http://www.w3.org/2000/svg" xmlns:xlink="http://www.w3.org/1999/xlink" contentStyleType="text/css" height="828px" preserveAspectRatio="none" style="width:644px;height:828px;background:#FFFFFF;" version="1.1" viewBox="0 0 644 828" width="644px" zoomAndPan="magnify"><defs/><g><text fill="#000000" font-family="sans-serif" font-size="14" font-weight="bold" lengthAdjust="spacing" textLength="332" x="157.75" y="28.5352">US002 - Publishment of a new announcement</text><rect fill="#FFFFFF" height="609.1426" style="stroke:#181818;stroke-width:1.0;" width="10" x="48.5" y="128.9766"/><rect fill="#FFFFFF" height="29.3105" style="stroke:#181818;stroke-width:1.0;" width="10" x="580.5" y="150.2871"/><rect fill="#FFFFFF" height="29.3105" style="stroke:#181818;stroke-width:1.0;" width="10" x="580.5" y="208.9082"/><rect fill="#FFFFFF" height="53.6211" style="stroke:#181818;stroke-width:1.0;" width="10" x="580.5" y="298.1504"/><rect fill="#FFFFFF" height="53.6211" style="stroke:#181818;stroke-width:1.0;" width="10" x="580.5" y="411.7031"/><rect fill="#FFFFFF" height="29.3105" style="stroke:#181818;stroke-width:1.0;" width="10" x="580.5" y="509.9453"/><rect fill="#FFFFFF" height="29.3105" style="stroke:#181818;stroke-width:1.0;" width="10" x="580.5" y="641.1875"/><rect fill="#FFFFFF" height="29.3105" style="stroke:#181818;stroke-width:1.0;" width="10" x="580.5" y="699.8086"/><rect fill="none" height="270.416" style="stroke:#000000;stroke-width:1.5;" width="628.5" x="10" y="313.1504"/><rect fill="none" height="149.8633" style="stroke:#000000;stroke-width:1.5;" width="608.5" x="20" y="426.7031"/><line style="stroke:#181818;stroke-width:0.5;stroke-dasharray:5.0,5.0;" x1="53" x2="53" y1="118.9766" y2="747.1191"/><line style="stroke:#181818;stroke-width:0.5;stroke-dasharray:5.0,5.0;" x1="585.5" x2="585.5" y1="118.9766" y2="747.1191"/><text fill="#000000" font-family="sans-serif" font-size="14" lengthAdjust="spacing" textLength="41" x="30" y="116.0234">Agent</text><ellipse cx="53.5" cy="50.9883" fill="#E3E3E3" rx="8" ry="8" style="stroke:#181818;stroke-width:0.5;"/><path d="M53.5,58.9883 L53.5,85.9883 M40.5,66.9883 L66.5,66.9883 M53.5,85.9883 L40.5,100.9883 M53.5,85.9883 L66.5,100.9883 " fill="none" style="stroke:#181818;stroke-width:0.5;"/><text fill="#000000" font-family="sans-serif" font-size="14" lengthAdjust="spacing" textLength="41" x="30" y="759.6543">Agent</text><ellipse cx="53.5" cy="771.1074" fill="#E3E3E3" rx="8" ry="8" style="stroke:#181818;stroke-width:0.5;"/><path d="M53.5,779.1074 L53.5,806.1074 M40.5,787.1074 L66.5,787.1074 M53.5,806.1074 L40.5,821.1074 M53.5,806.1074 L66.5,821.1074 " fill="none" style="stroke:#181818;stroke-width:0.5;"/><rect fill="#E3E3E3" height="30.4883" rx="2.5" ry="2.5" style="stroke:#181818;stroke-width:0.5;" width="66" x="552.5" y="87.4883"/><text fill="#000000" font-family="sans-serif" font-size="14" lengthAdjust="spacing" textLength="52" x="559.5" y="108.0234">:System</text><rect fill="#E3E3E3" height="30.4883" rx="2.5" ry="2.5" style="stroke:#181818;stroke-width:0.5;" width="66" x="552.5" y="746.1191"/><text fill="#000000" font-family="sans-serif" font-size="14" lengthAdjust="spacing" textLength="52" x="559.5" y="766.6543">:System</text><rect fill="#FFFFFF" height="609.1426" style="stroke:#181818;stroke-width:1.0;" width="10" x="48.5" y="128.9766"/><rect fill="#FFFFFF" height="29.3105" style="stroke:#181818;stroke-width:1.0;" width="10" x="580.5" y="150.2871"/><rect fill="#FFFFFF" height="29.3105" style="stroke:#181818;stroke-width:1.0;" width="10" x="580.5" y="208.9082"/><rect fill="#FFFFFF" height="53.6211" style="stroke:#181818;stroke-width:1.0;" width="10" x="580.5" y="298.1504"/><rect fill="#FFFFFF" height="53.6211" style="stroke:#181818;stroke-width:1.0;" width="10" x="580.5" y="411.7031"/><rect fill="#FFFFFF" height="29.3105" style="stroke:#181818;stroke-width:1.0;" width="10" x="580.5" y="509.9453"/><rect fill="#FFFFFF" height="29.3105" style="stroke:#181818;stroke-width:1.0;" width="10" x="580.5" y="641.1875"/><rect fill="#FFFFFF" height="29.3105" style="stroke:#181818;stroke-width:1.0;" width="10" x="580.5" y="699.8086"/><polygon fill="#181818" points="568.5,146.2871,578.5,150.2871,568.5,154.2871,572.5,150.2871" style="stroke:#181818;stroke-width:1.0;"/><line style="stroke:#181818;stroke-width:1.0;" x1="58.5" x2="574.5" y1="150.2871" y2="150.2871"/><text fill="#000000" font-family="sans-serif" font-size="13" font-weight="bold" lengthAdjust="spacing" textLength="9" x="65.5" y="145.5449">1</text><text fill="#000000" font-family="sans-serif" font-size="13" lengthAdjust="spacing" textLength="402" x="78.5" y="145.5449">request to initiate the process of creating a new announcement.</text><polygon fill="#181818" points="69.5,175.5977,59.5,179.5977,69.5,183.5977,65.5,179.5977" style="stroke:#181818;stroke-width:1.0;"/><line style="stroke:#181818;stroke-width:1.0;stroke-dasharray:2.0,2.0;" x1="63.5" x2="584.5" y1="179.5977" y2="179.5977"/><text fill="#000000" font-family="sans-serif" font-size="13" font-weight="bold" lengthAdjust="spacing" textLength="9" x="75.5" y="174.8555">2</text><text fill="#000000" font-family="sans-serif" font-size="13" lengthAdjust="spacing" textLength="169" x="88.5" y="174.8555">shows type of property list</text><polygon fill="#181818" points="568.5,204.9082,578.5,208.9082,568.5,212.9082,572.5,208.9082" style="stroke:#181818;stroke-width:1.0;"/><line style="stroke:#181818;stroke-width:1.0;" x1="58.5" x2="574.5" y1="208.9082" y2="208.9082"/><text fill="#000000" font-family="sans-serif" font-size="13" font-weight="bold" lengthAdjust="spacing" textLength="9" x="65.5" y="204.166">3</text><text fill="#000000" font-family="sans-serif" font-size="13" lengthAdjust="spacing" textLength="149" x="78.5" y="204.166">selects type of property</text><polygon fill="#181818" points="69.5,234.2188,59.5,238.2188,69.5,242.2188,65.5,238.2188" style="stroke:#181818;stroke-width:1.0;"/><line style="stroke:#181818;stroke-width:1.0;stroke-dasharray:2.0,2.0;" x1="63.5" x2="584.5" y1="238.2188" y2="238.2188"/><text fill="#000000" font-family="sans-serif" font-size="13" font-weight="bold" lengthAdjust="spacing" textLength="9" x="75.5" y="233.4766">4</text><text fill="#000000" font-family="sans-serif" font-size="13" lengthAdjust="spacing" textLength="304" x="88.5" y="233.4766">Solicits information regarding the property data.</text><polygon fill="#181818" points="568.5,294.1504,578.5,298.1504,568.5,302.1504,572.5,298.1504" style="stroke:#181818;stroke-width:1.0;"/><line style="stroke:#181818;stroke-width:1.0;" x1="58.5" x2="574.5" y1="298.1504" y2="298.1504"/><text fill="#000000" font-family="sans-serif" font-size="13" font-weight="bold" lengthAdjust="spacing" textLength="9" x="65.5" y="278.0977">5</text><text fill="#000000" font-family="sans-serif" font-size="13" lengthAdjust="spacing" textLength="131" x="78.5" y="262.7871">types requested data</text><text fill="#000000" font-family="sans-serif" font-size="13" lengthAdjust="spacing" textLength="420" x="78.5" y="278.0977">(area of the property in m2, location, distance from the city center,</text><text fill="#000000" font-family="sans-serif" font-size="13" lengthAdjust="spacing" textLength="235" x="82.5" y="293.4082">price, commission and photographs )</text><path d="M10,313.1504 L77,313.1504 L77,320.4609 L67,330.4609 L10,330.4609 L10,313.1504 " fill="#EEEEEE" style="stroke:#000000;stroke-width:1.5;"/><rect fill="none" height="270.416" style="stroke:#000000;stroke-width:1.5;" width="628.5" x="10" y="313.1504"/><text fill="#000000" font-family="sans-serif" font-size="13" font-weight="bold" lengthAdjust="spacing" textLength="22" x="25" y="326.7188">opt</text><text fill="#000000" font-family="sans-serif" font-size="11" font-weight="bold" lengthAdjust="spacing" textLength="189" x="92" y="325.7852">[Property is an Apartment/House]</text><polygon fill="#181818" points="69.5,347.7715,59.5,351.7715,69.5,355.7715,65.5,351.7715" style="stroke:#181818;stroke-width:1.0;"/><line style="stroke:#181818;stroke-width:1.0;stroke-dasharray:2.0,2.0;" x1="63.5" x2="584.5" y1="351.7715" y2="351.7715"/><text fill="#000000" font-family="sans-serif" font-size="13" font-weight="bold" lengthAdjust="spacing" textLength="9" x="75.5" y="347.0293">6</text><text fill="#000000" font-family="sans-serif" font-size="13" lengthAdjust="spacing" textLength="85" x="88.5" y="347.0293">requests data</text><polygon fill="#181818" points="568.5,407.7031,578.5,411.7031,568.5,415.7031,572.5,411.7031" style="stroke:#181818;stroke-width:1.0;"/><line style="stroke:#181818;stroke-width:1.0;" x1="58.5" x2="574.5" y1="411.7031" y2="411.7031"/><text fill="#000000" font-family="sans-serif" font-size="13" font-weight="bold" lengthAdjust="spacing" textLength="9" x="65.5" y="391.6504">7</text><text fill="#000000" font-family="sans-serif" font-size="13" lengthAdjust="spacing" textLength="131" x="78.5" y="376.3398">types requested data</text><text fill="#000000" font-family="sans-serif" font-size="13" lengthAdjust="spacing" textLength="457" x="78.5" y="391.6504">(number of bedrooms, number of bathrooms, number of parking spaces,</text><text fill="#000000" font-family="sans-serif" font-size="13" lengthAdjust="spacing" textLength="387" x="82.5" y="406.9609">available equipment (central heating and/or air conditioning))</text><path d="M20,426.7031 L87,426.7031 L87,434.0137 L77,444.0137 L20,444.0137 L20,426.7031 " fill="#EEEEEE" style="stroke:#000000;stroke-width:1.5;"/><rect fill="none" height="149.8633" style="stroke:#000000;stroke-width:1.5;" width="608.5" x="20" y="426.7031"/><text fill="#000000" font-family="sans-serif" font-size="13" font-weight="bold" lengthAdjust="spacing" textLength="22" x="35" y="440.2715">opt</text><text fill="#000000" font-family="sans-serif" font-size="11" font-weight="bold" lengthAdjust="spacing" textLength="118" x="102" y="439.3379">[Property is a House]</text><polygon fill="#181818" points="69.5,461.3242,59.5,465.3242,69.5,469.3242,65.5,465.3242" style="stroke:#181818;stroke-width:1.0;"/><line style="stroke:#181818;stroke-width:1.0;stroke-dasharray:2.0,2.0;" x1="63.5" x2="584.5" y1="465.3242" y2="465.3242"/><text fill="#000000" font-family="sans-serif" font-size="13" font-weight="bold" lengthAdjust="spacing" textLength="9" x="75.5" y="460.582">8</text><text fill="#000000" font-family="sans-serif" font-size="13" lengthAdjust="spacing" textLength="85" x="88.5" y="460.582">requests data</text><polygon fill="#181818" points="568.5,505.9453,578.5,509.9453,568.5,513.9453,572.5,509.9453" style="stroke:#181818;stroke-width:1.0;"/><line style="stroke:#181818;stroke-width:1.0;" x1="58.5" x2="574.5" y1="509.9453" y2="509.9453"/><text fill="#000000" font-family="sans-serif" font-size="13" font-weight="bold" lengthAdjust="spacing" textLength="9" x="65.5" y="497.5479">9</text><text fill="#000000" font-family="sans-serif" font-size="13" lengthAdjust="spacing" textLength="131" x="78.5" y="489.8926">types requested data</text><text fill="#000000" font-family="sans-serif" font-size="13" lengthAdjust="spacing" textLength="285" x="78.5" y="505.2031">basement, inhabitable loft and sum exposure</text><polygon fill="#181818" points="69.5,535.2559,59.5,539.2559,69.5,543.2559,65.5,539.2559" style="stroke:#181818;stroke-width:1.0;"/><line style="stroke:#181818;stroke-width:1.0;stroke-dasharray:2.0,2.0;" x1="63.5" x2="584.5" y1="539.2559" y2="539.2559"/><text fill="#000000" font-family="sans-serif" font-size="13" font-weight="bold" lengthAdjust="spacing" textLength="18" x="75.5" y="534.5137">10</text><text fill="#000000" font-family="sans-serif" font-size="13" lengthAdjust="spacing" textLength="377" x="97.5" y="534.5137">shows basement, inhabitable loft and sun exposure options</text><polygon fill="#181818" points="573.5,564.5664,583.5,568.5664,573.5,572.5664,577.5,568.5664" style="stroke:#181818;stroke-width:1.0;"/><line style="stroke:#181818;stroke-width:1.0;" x1="58.5" x2="579.5" y1="568.5664" y2="568.5664"/><text fill="#000000" font-family="sans-serif" font-size="13" font-weight="bold" lengthAdjust="spacing" textLength="18" x="65.5" y="563.8242">11</text><text fill="#000000" font-family="sans-serif" font-size="13" lengthAdjust="spacing" textLength="89" x="87.5" y="563.8242">selects option</text><polygon fill="#181818" points="69.5,607.877,59.5,611.877,69.5,615.877,65.5,611.877" style="stroke:#181818;stroke-width:1.0;"/><line style="stroke:#181818;stroke-width:1.0;stroke-dasharray:2.0,2.0;" x1="63.5" x2="584.5" y1="611.877" y2="611.877"/><text fill="#000000" font-family="sans-serif" font-size="13" font-weight="bold" lengthAdjust="spacing" textLength="18" x="75.5" y="607.1348">12</text><text fill="#000000" font-family="sans-serif" font-size="13" lengthAdjust="spacing" textLength="354" x="97.5" y="607.1348">shows all the inserted data related to the announcement</text><polygon fill="#181818" points="568.5,637.1875,578.5,641.1875,568.5,645.1875,572.5,641.1875" style="stroke:#181818;stroke-width:1.0;"/><line style="stroke:#181818;stroke-width:1.0;" x1="58.5" x2="574.5" y1="641.1875" y2="641.1875"/><text fill="#000000" font-family="sans-serif" font-size="13" font-weight="bold" lengthAdjust="spacing" textLength="18" x="65.5" y="636.4453">13</text><text fill="#000000" font-family="sans-serif" font-size="13" lengthAdjust="spacing" textLength="82" x="87.5" y="636.4453">submits data</text><polygon fill="#181818" points="69.5,666.498,59.5,670.498,69.5,674.498,65.5,670.498" style="stroke:#181818;stroke-width:1.0;"/><line style="stroke:#181818;stroke-width:1.0;stroke-dasharray:2.0,2.0;" x1="63.5" x2="584.5" y1="670.498" y2="670.498"/><text fill="#000000" font-family="sans-serif" font-size="13" font-weight="bold" lengthAdjust="spacing" textLength="18" x="75.5" y="665.7559">14</text><text fill="#000000" font-family="sans-serif" font-size="13" lengthAdjust="spacing" textLength="476" x="97.5" y="665.7559">analyses the data, if approved, sends a confirmation request before posting</text><polygon fill="#181818" points="568.5,695.8086,578.5,699.8086,568.5,703.8086,572.5,699.8086" style="stroke:#181818;stroke-width:1.0;"/><line style="stroke:#181818;stroke-width:1.0;" x1="58.5" x2="574.5" y1="699.8086" y2="699.8086"/><text fill="#000000" font-family="sans-serif" font-size="13" font-weight="bold" lengthAdjust="spacing" textLength="18" x="65.5" y="695.0664">15</text><text fill="#000000" font-family="sans-serif" font-size="13" lengthAdjust="spacing" textLength="250" x="87.5" y="695.0664">request to publishes the announcement</text><polygon fill="#181818" points="69.5,725.1191,59.5,729.1191,69.5,733.1191,65.5,729.1191" style="stroke:#181818;stroke-width:1.0;"/><line style="stroke:#181818;stroke-width:1.0;stroke-dasharray:2.0,2.0;" x1="63.5" x2="584.5" y1="729.1191" y2="729.1191"/><text fill="#000000" font-family="sans-serif" font-size="13" font-weight="bold" lengthAdjust="spacing" textLength="18" x="75.5" y="724.377">16</text><text fill="#000000" font-family="sans-serif" font-size="13" lengthAdjust="spacing" textLength="360" x="97.5" y="724.377">publishes the announcement, displays operation success</text><!--SRC=[lLKzRzmm3DtzAuXC2U1y86E60XaAT0nmwDQ5bdbd8PAeYd9I__jIik-IwyKf4XJrP4aK-TxZX-JHXeW9FNWER8R4dY2daHevd4GqZxYZJPuSGIAJCUpSQmCPiETd6tQmHIVKDDbcDVs-kRcvXKju63jdPV0KCl0M408z0uR0Op1KTfi6nynXz1qb_JUP4vpTx_Ja353Wgu-E9w96esLhR4HrT7QtcIIJhnRpRxrgdp3JovK6zDkluFBBOWftIkJdI98XCzXWiotNya0G4niIAKXD8io5rYdag-hu46yF09PlYNAf0G_1xrGdVXR8KwJYNGD5Ida25IVNcpszwV1D-49ECt7gxJEuDknKLdLcmvQJLyuSL9yTfhwmNrIPmVQOyUh3Q0jAsKjEVVK2Fy8vgi85_L486y3Vjk3OL2Gjz2eGgl2mrVAijefs0gDveDIg7xrh3RLWs7ihKk1Zw24Ed7cNC0u25pCwZXaU3e54pU2-b5N9wVKt7hLwFo7WGamghtycpjmGHPwE-iJifOLNUvY7aqsbybXI9jgp9AqgWqze7NRQZkhVnjg4vqMvX0w6VNs7_bfx3crI2KDlY-owVx4c6gmhTIpK_z2fGwajsMhX3DZPNDawtkPQ139we5-HPKpBEFWGvBbd_neZ768KjLG- -NH7p_TdGrBdklvZKPThBDxbWSxL_h51D9bx3HCvB0iTXUNmQ3IladYRmzXvky_l-oZNW690Duacka0fVbHpVJIYZeSdwbkLAVIb1BLGj_PbMCt3l2CTO3fAM4fTDn_BmAiN8SvFreBY-ArwTpwipeXrZtM-HOTJIJsbcP2Cfhn21xydD7u3]--></g></svg>