<?xml version="1.0" encoding="us-ascii" standalone="no"?><svg xmlns="http://www.w3.org/2000/svg" xmlns:xlink="http://www.w3.org/1999/xlink" contentStyleType="text/css" height="603px" preserveAspectRatio="none" style="width:687px;height:603px;background:#FFFFFF;" version="1.1" viewBox="0 0 687 603" width="687px" zoomAndPan="magnify"><defs/><g><text fill="#000000" font-family="sans-serif" font-size="14" font-weight="bold" lengthAdjust="spacing" textLength="295" x="197.25" y="28.5352">System Sequence Diagram (SSD) - US003</text><rect fill="#FFFFFF" height="384.9922" style="stroke:#181818;stroke-width:1.0;" width="10" x="91.5" y="128.9766"/><rect fill="#FFFFFF" height="29.3105" style="stroke:#181818;stroke-width:1.0;" width="10" x="632.5" y="150.2871"/><rect fill="#FFFFFF" height="29.3105" style="stroke:#181818;stroke-width:1.0;" width="10" x="632.5" y="224.2188"/><rect fill="#FFFFFF" height="29.3105" style="stroke:#181818;stroke-width:1.0;" width="10" x="632.5" y="282.8398"/><rect fill="#FFFFFF" height="80.5762" style="stroke:#181818;stroke-width:1.0;" width="10" x="632.5" y="365.7715"/><rect fill="#FFFFFF" height="29.3105" style="stroke:#181818;stroke-width:1.0;" width="10" x="632.5" y="475.6582"/><rect fill="none" height="90.8867" style="stroke:#000000;stroke-width:1.5;" width="670.5" x="10" y="327.1504"/><line style="stroke:#181818;stroke-width:0.5;stroke-dasharray:5.0,5.0;" x1="96" x2="96" y1="118.9766" y2="522.9688"/><line style="stroke:#181818;stroke-width:0.5;stroke-dasharray:5.0,5.0;" x1="637.5" x2="637.5" y1="118.9766" y2="522.9688"/><text fill="#000000" font-family="sans-serif" font-size="14" lengthAdjust="spacing" textLength="147" x="20" y="116.0234">System Administrator</text><ellipse cx="96.5" cy="50.9883" fill="#E3E3E3" rx="8" ry="8" style="stroke:#181818;stroke-width:0.5;"/><path d="M96.5,58.9883 L96.5,85.9883 M83.5,66.9883 L109.5,66.9883 M96.5,85.9883 L83.5,100.9883 M96.5,85.9883 L109.5,100.9883 " fill="none" style="stroke:#181818;stroke-width:0.5;"/><text fill="#000000" font-family="sans-serif" font-size="14" lengthAdjust="spacing" textLength="147" x="20" y="535.5039">System Administrator</text><ellipse cx="96.5" cy="546.957" fill="#E3E3E3" rx="8" ry="8" style="stroke:#181818;stroke-width:0.5;"/><path d="M96.5,554.957 L96.5,581.957 M83.5,562.957 L109.5,562.957 M96.5,581.957 L83.5,596.957 M96.5,581.957 L109.5,596.957 " fill="none" style="stroke:#181818;stroke-width:0.5;"/><rect fill="#E3E3E3" height="30.4883" rx="2.5" ry="2.5" style="stroke:#181818;stroke-width:0.5;" width="66" x="604.5" y="87.4883"/><text fill="#000000" font-family="sans-serif" font-size="14" lengthAdjust="spacing" textLength="52" x="611.5" y="108.0234">:System</text><rect fill="#E3E3E3" height="30.4883" rx="2.5" ry="2.5" style="stroke:#181818;stroke-width:0.5;" width="66" x="604.5" y="521.9688"/><text fill="#000000" font-family="sans-serif" font-size="14" lengthAdjust="spacing" textLength="52" x="611.5" y="542.5039">:System</text><rect fill="#FFFFFF" height="384.9922" style="stroke:#181818;stroke-width:1.0;" width="10" x="91.5" y="128.9766"/><rect fill="#FFFFFF" height="29.3105" style="stroke:#181818;stroke-width:1.0;" width="10" x="632.5" y="150.2871"/><rect fill="#FFFFFF" height="29.3105" style="stroke:#181818;stroke-width:1.0;" width="10" x="632.5" y="224.2188"/><rect fill="#FFFFFF" height="29.3105" style="stroke:#181818;stroke-width:1.0;" width="10" x="632.5" y="282.8398"/><rect fill="#FFFFFF" height="80.5762" style="stroke:#181818;stroke-width:1.0;" width="10" x="632.5" y="365.7715"/><rect fill="#FFFFFF" height="29.3105" style="stroke:#181818;stroke-width:1.0;" width="10" x="632.5" y="475.6582"/><polygon fill="#181818" points="620.5,146.2871,630.5,150.2871,620.5,154.2871,624.5,150.2871" style="stroke:#181818;stroke-width:1.0;"/><line style="stroke:#181818;stroke-width:1.0;" x1="101.5" x2="626.5" y1="150.2871" y2="150.2871"/><text fill="#000000" font-family="sans-serif" font-size="13" font-weight="bold" lengthAdjust="spacing" textLength="9" x="108.5" y="145.5449">1</text><text fill="#000000" font-family="sans-serif" font-size="13" lengthAdjust="spacing" textLength="386" x="121.5" y="145.5449">request to initiate the process of registering a new employee.</text><polygon fill="#181818" points="112.5,175.5977,102.5,179.5977,112.5,183.5977,108.5,179.5977" style="stroke:#181818;stroke-width:1.0;"/><line style="stroke:#181818;stroke-width:1.0;stroke-dasharray:2.0,2.0;" x1="106.5" x2="636.5" y1="179.5977" y2="179.5977"/><text fill="#000000" font-family="sans-serif" font-size="13" font-weight="bold" lengthAdjust="spacing" textLength="9" x="118.5" y="174.8555">2</text><text fill="#000000" font-family="sans-serif" font-size="13" lengthAdjust="spacing" textLength="287" x="131.5" y="174.8555">solicits information regarding employee data.</text><polygon fill="#181818" points="620.5,220.2188,630.5,224.2188,620.5,228.2188,624.5,224.2188" style="stroke:#181818;stroke-width:1.0;"/><line style="stroke:#181818;stroke-width:1.0;" x1="101.5" x2="626.5" y1="224.2188" y2="224.2188"/><text fill="#000000" font-family="sans-serif" font-size="13" font-weight="bold" lengthAdjust="spacing" textLength="9" x="108.5" y="211.8213">3</text><text fill="#000000" font-family="sans-serif" font-size="13" lengthAdjust="spacing" textLength="466" x="121.5" y="204.166">types the employee information(name, citizen&#180;s card number,tax number,</text><text fill="#000000" font-family="sans-serif" font-size="13" lengthAdjust="spacing" textLength="301" x="125.5" y="219.4766">adress,email adress,contact telephone number )</text><polygon fill="#181818" points="112.5,249.5293,102.5,253.5293,112.5,257.5293,108.5,253.5293" style="stroke:#181818;stroke-width:1.0;"/><line style="stroke:#181818;stroke-width:1.0;stroke-dasharray:2.0,2.0;" x1="106.5" x2="636.5" y1="253.5293" y2="253.5293"/><text fill="#000000" font-family="sans-serif" font-size="13" font-weight="bold" lengthAdjust="spacing" textLength="9" x="118.5" y="248.7871">4</text><text fill="#000000" font-family="sans-serif" font-size="13" lengthAdjust="spacing" textLength="390" x="131.5" y="248.7871">shows the list of the roles that the new employee can perform</text><polygon fill="#181818" points="620.5,278.8398,630.5,282.8398,620.5,286.8398,624.5,282.8398" style="stroke:#181818;stroke-width:1.0;"/><line style="stroke:#181818;stroke-width:1.0;" x1="101.5" x2="626.5" y1="282.8398" y2="282.8398"/><text fill="#000000" font-family="sans-serif" font-size="13" font-weight="bold" lengthAdjust="spacing" textLength="9" x="108.5" y="278.0977">5</text><text fill="#000000" font-family="sans-serif" font-size="13" lengthAdjust="spacing" textLength="114" x="121.5" y="278.0977">selects a user role</text><polygon fill="#181818" points="112.5,308.1504,102.5,312.1504,112.5,316.1504,108.5,312.1504" style="stroke:#181818;stroke-width:1.0;"/><line style="stroke:#181818;stroke-width:1.0;stroke-dasharray:2.0,2.0;" x1="106.5" x2="636.5" y1="312.1504" y2="312.1504"/><text fill="#000000" font-family="sans-serif" font-size="13" font-weight="bold" lengthAdjust="spacing" textLength="9" x="118.5" y="307.4082">6</text><text fill="#000000" font-family="sans-serif" font-size="13" lengthAdjust="spacing" textLength="494" x="131.5" y="307.4082">shows the list of agencies where the new employee can work and ask to select</text><path d="M10,327.1504 L72,327.1504 L72,334.4609 L62,344.4609 L10,344.4609 L10,327.1504 " fill="#EEEEEE" style="stroke:#000000;stroke-width:1.5;"/><rect fill="none" height="90.8867" style="stroke:#000000;stroke-width:1.5;" width="670.5" x="10" y="327.1504"/><text fill="#000000" font-family="sans-serif" font-size="13" font-weight="bold" lengthAdjust="spacing" textLength="17" x="25" y="340.7188">alt</text><text fill="#000000" font-family="sans-serif" font-size="11" font-weight="bold" lengthAdjust="spacing" textLength="179" x="87" y="339.7852">[Role-Agent or AgencyManager]</text><polygon fill="#181818" points="620.5,361.7715,630.5,365.7715,620.5,369.7715,624.5,365.7715" style="stroke:#181818;stroke-width:1.0;"/><line style="stroke:#181818;stroke-width:1.0;" x1="101.5" x2="626.5" y1="365.7715" y2="365.7715"/><text fill="#000000" font-family="sans-serif" font-size="13" font-weight="bold" lengthAdjust="spacing" textLength="9" x="108.5" y="361.0293">7</text><text fill="#000000" font-family="sans-serif" font-size="13" lengthAdjust="spacing" textLength="119" x="121.5" y="361.0293">selects one agency</text><line style="stroke:#000000;stroke-width:1.0;stroke-dasharray:2.0,2.0;" x1="10" x2="680.5" y1="374.7715" y2="374.7715"/><text fill="#000000" font-family="sans-serif" font-size="11" font-weight="bold" lengthAdjust="spacing" textLength="133" x="15" y="385.4063">[Role-NetworkManager]</text><polygon fill="#181818" points="620.5,406.0371,630.5,410.0371,620.5,414.0371,624.5,410.0371" style="stroke:#181818;stroke-width:1.0;"/><line style="stroke:#181818;stroke-width:1.0;" x1="101.5" x2="626.5" y1="410.0371" y2="410.0371"/><text fill="#000000" font-family="sans-serif" font-size="13" font-weight="bold" lengthAdjust="spacing" textLength="9" x="108.5" y="405.2949">8</text><text fill="#000000" font-family="sans-serif" font-size="13" lengthAdjust="spacing" textLength="186" x="121.5" y="405.2949">selects the intended agencies</text><polygon fill="#181818" points="112.5,442.3477,102.5,446.3477,112.5,450.3477,108.5,446.3477" style="stroke:#181818;stroke-width:1.0;"/><line style="stroke:#181818;stroke-width:1.0;stroke-dasharray:2.0,2.0;" x1="106.5" x2="636.5" y1="446.3477" y2="446.3477"/><text fill="#000000" font-family="sans-serif" font-size="13" font-weight="bold" lengthAdjust="spacing" textLength="9" x="118.5" y="441.6055">9</text><text fill="#000000" font-family="sans-serif" font-size="13" lengthAdjust="spacing" textLength="291" x="131.5" y="441.6055">shows all the information and asks to confirm</text><polygon fill="#181818" points="620.5,471.6582,630.5,475.6582,620.5,479.6582,624.5,475.6582" style="stroke:#181818;stroke-width:1.0;"/><line style="stroke:#181818;stroke-width:1.0;" x1="101.5" x2="626.5" y1="475.6582" y2="475.6582"/><text fill="#000000" font-family="sans-serif" font-size="13" font-weight="bold" lengthAdjust="spacing" textLength="18" x="108.5" y="470.916">10</text><text fill="#000000" font-family="sans-serif" font-size="13" lengthAdjust="spacing" textLength="264" x="130.5" y="470.916">confirm the information and submits data</text><polygon fill="#181818" points="112.5,500.9688,102.5,504.9688,112.5,508.9688,108.5,504.9688" style="stroke:#181818;stroke-width:1.0;"/><line style="stroke:#181818;stroke-width:1.0;stroke-dasharray:2.0,2.0;" x1="106.5" x2="636.5" y1="504.9688" y2="504.9688"/><text fill="#000000" font-family="sans-serif" font-size="13" font-weight="bold" lengthAdjust="spacing" textLength="18" x="118.5" y="500.2266">11</text><text fill="#000000" font-family="sans-serif" font-size="13" lengthAdjust="spacing" textLength="163" x="140.5" y="500.2266">displays operation sucess</text><!--SRC=[dLJBRXin3BphAmYV4i0k0lJcGu00wJ4zTD5RBuoMzWgMgAt4hRlzhdv1lwpKFcp7S0muEb4hQcOu8ZVl7BUOC42876sJOY2Gr979XvCMxGwtL4dl2H9PGTxwquJSO1ttZhUmGP_9676YgLMVXG9KzBCZjWJF3hSb_QwgdkzX1T-hXuVFnc0daRlmIabZAp71OhhvL0V7Baj2_Re0pF0bj3xsH4Q9nLdN8WiircF-a366Pe1olr3eUCU0hda7gyTPu5gBKebPG28eeRXoJHg2DaLBEKFSQCfMbL0gLI8mxO4cf4y3xe5k5W3JcaXModVWNaEENkLBLhvDJ075HIuScEh2C6D3ZO8ZGKqNAIxM8trBUQZW07J2SySOQ0bAx_uG__kRmIejZ6-m5FmzXpyOi4vgm982EZzlR6HHBI3agMqYqvGFznzoeedxKQjNWulL9KxH3nMW3DjJlrKjGqkfr7EpCrarMxKTeSkgkD1S5crkagpZmTQfudr3YIvBtiUq0-HQktHNEcsKybu5nXoD6nPwWMygT_MaN4gQe0IsVq5MzlGsUHQxUXpnZeMNvnhKzcVmPmBU799EzKZ-bQJKSIDfySEn4DTK7xmwgqyFno_NF4Vl9x3Zr4oMvkAfjkR6VQ0jfdiNiNFt6igabb4qxrbrHNdjSkknL-krQKVOt9NVohMdD-O_]--></g></svg>