<?xml version="1.0" encoding="us-ascii" standalone="no"?><svg xmlns="http://www.w3.org/2000/svg" xmlns:xlink="http://www.w3.org/1999/xlink" contentStyleType="text/css" height="728.1px" preserveAspectRatio="none" style="width:1073px;height:728px;background:#FFFFFF;" version="1.1" viewBox="0 0 1073 728" width="1073.7px" zoomAndPan="magnify"><defs/><g><!--class DisplayTheListPropertiesUI--><g id="elem_DisplayTheListPropertiesUI"><rect codeLine="11" fill="#F1F1F1" height="43.2" id="DisplayTheListPropertiesUI" rx="2.25" ry="2.25" style="stroke:#181818;stroke-width:0.45;" width="181.8" x="175.95" y="6.3"/><ellipse cx="189.45" cy="20.7" fill="#ADD1B2" rx="9.9" ry="9.9" style="stroke:#181818;stroke-width:0.9;"/><path d="M191.9391,16.9875 Q192.0797,16.7906 192.2484,16.6922 Q192.4172,16.5938 192.6141,16.5938 Q192.9516,16.5938 193.1625,16.8328 Q193.3734,17.0578 193.3734,17.6063 L193.3734,18.9141 Q193.3734,19.4625 193.1625,19.7016 Q192.9516,19.9406 192.6141,19.9406 Q192.3047,19.9406 192.1219,19.7578 Q191.9391,19.5891 191.8406,19.125 Q191.7984,18.8016 191.6297,18.6328 Q191.3344,18.2953 190.7859,18.0984 Q190.2375,17.9016 189.675,17.9016 Q188.9859,17.9016 188.4094,18.1969 Q187.8469,18.4922 187.3969,19.1672 Q186.9609,19.8422 186.9609,20.7703 L186.9609,21.7547 Q186.9609,22.8656 187.7625,23.6109 Q188.5641,24.3422 189.9984,24.3422 Q190.8422,24.3422 191.4328,24.1172 Q191.7844,23.9766 192.1641,23.5828 Q192.4031,23.3438 192.5297,23.2734 Q192.6703,23.2031 192.8531,23.2031 Q193.1484,23.2031 193.3734,23.4422 Q193.6125,23.6672 193.6125,23.9766 Q193.6125,24.2859 193.3031,24.6516 Q192.8531,25.1719 192.1359,25.4672 Q191.1656,25.875 189.9984,25.875 Q188.6344,25.875 187.5516,25.3125 Q186.6656,24.8625 186.0469,23.9063 Q185.4281,22.9359 185.4281,21.7828 L185.4281,20.7422 Q185.4281,19.5469 185.9766,18.5203 Q186.5391,17.4797 187.5234,16.9313 Q188.5078,16.3688 189.6188,16.3688 Q190.2797,16.3688 190.8563,16.5234 Q191.4469,16.6641 191.9391,16.9875 Z " fill="#000000"/><text fill="#000000" font-family="sans-serif" font-size="12.6" lengthAdjust="spacing" textLength="153" x="202.05" y="25.0682">DisplayTheListPropertiesUI</text><line style="stroke:#181818;stroke-width:0.45;" x1="176.85" x2="356.85" y1="35.1" y2="35.1"/><line style="stroke:#181818;stroke-width:0.45;" x1="176.85" x2="356.85" y1="42.3" y2="42.3"/></g><!--class Habitation--><g id="elem_Habitation"><rect codeLine="19" fill="#F1F1F1" height="127.6594" id="Habitation" rx="2.25" ry="2.25" style="stroke:#181818;stroke-width:0.45;" width="273.6" x="794.25" y="405.45"/><ellipse cx="898.875" cy="419.85" fill="#ADD1B2" rx="9.9" ry="9.9" style="stroke:#181818;stroke-width:0.9;"/><path d="M901.3641,416.1375 Q901.5047,415.9406 901.6734,415.8422 Q901.8422,415.7438 902.0391,415.7438 Q902.3766,415.7438 902.5875,415.9828 Q902.7984,416.2078 902.7984,416.7563 L902.7984,418.0641 Q902.7984,418.6125 902.5875,418.8516 Q902.3766,419.0906 902.0391,419.0906 Q901.7297,419.0906 901.5469,418.9078 Q901.3641,418.7391 901.2656,418.275 Q901.2234,417.9516 901.0547,417.7828 Q900.7594,417.4453 900.2109,417.2484 Q899.6625,417.0516 899.1,417.0516 Q898.4109,417.0516 897.8344,417.3469 Q897.2719,417.6422 896.8219,418.3172 Q896.3859,418.9922 896.3859,419.9203 L896.3859,420.9047 Q896.3859,422.0156 897.1875,422.7609 Q897.9891,423.4922 899.4234,423.4922 Q900.2672,423.4922 900.8578,423.2672 Q901.2094,423.1266 901.5891,422.7328 Q901.8281,422.4938 901.9547,422.4234 Q902.0953,422.3531 902.2781,422.3531 Q902.5734,422.3531 902.7984,422.5922 Q903.0375,422.8172 903.0375,423.1266 Q903.0375,423.4359 902.7281,423.8016 Q902.2781,424.3219 901.5609,424.6172 Q900.5906,425.025 899.4234,425.025 Q898.0594,425.025 896.9766,424.4625 Q896.0906,424.0125 895.4719,423.0563 Q894.8531,422.0859 894.8531,420.9328 L894.8531,419.8922 Q894.8531,418.6969 895.4016,417.6703 Q895.9641,416.6297 896.9484,416.0813 Q897.9328,415.5188 899.0438,415.5188 Q899.7047,415.5188 900.2813,415.6734 Q900.8719,415.8141 901.3641,416.1375 Z " fill="#000000"/><text fill="#000000" font-family="sans-serif" font-size="12.6" lengthAdjust="spacing" textLength="56.7" x="917.325" y="424.2182">Habitation</text><line style="stroke:#181818;stroke-width:0.45;" x1="795.15" x2="1066.95" y1="434.25" y2="434.25"/><text fill="#000000" font-family="sans-serif" font-size="12.6" lengthAdjust="spacing" textLength="126" x="799.65" y="449.2564">-HabitationType: Type</text><text fill="#000000" font-family="sans-serif" font-size="12.6" lengthAdjust="spacing" textLength="118.8" x="799.65" y="463.333">-numberOfBedrooms</text><line style="stroke:#181818;stroke-width:0.45;" x1="795.15" x2="1066.95" y1="469.6031" y2="469.6031"/><text fill="#000000" font-family="sans-serif" font-size="12.6" lengthAdjust="spacing" textLength="119.7" x="799.65" y="484.6096">+getHabitationType()</text><text fill="#000000" font-family="sans-serif" font-size="12.6" lengthAdjust="spacing" textLength="203.4" x="799.65" y="498.6861">+setHabitationType(habitationType)</text><text fill="#000000" font-family="sans-serif" font-size="12.6" lengthAdjust="spacing" textLength="149.4" x="799.65" y="512.7627">+getNumberOfBedrooms()</text><text fill="#000000" font-family="sans-serif" font-size="12.6" lengthAdjust="spacing" textLength="262.8" x="799.65" y="526.8393">+setNumberOfBedrooms(numberOfBedrooms)</text></g><!--class DisplayTheListPropertyController--><g id="elem_DisplayTheListPropertyController"><rect codeLine="29" fill="#F1F1F1" height="85.4297" id="DisplayTheListPropertyController" rx="2.25" ry="2.25" style="stroke:#181818;stroke-width:0.45;" width="432" x="50.85" y="104.4"/><ellipse cx="168.975" cy="118.8" fill="#ADD1B2" rx="9.9" ry="9.9" style="stroke:#181818;stroke-width:0.9;"/><path d="M171.4641,115.0875 Q171.6047,114.8906 171.7734,114.7922 Q171.9422,114.6938 172.1391,114.6938 Q172.4766,114.6938 172.6875,114.9328 Q172.8984,115.1578 172.8984,115.7063 L172.8984,117.0141 Q172.8984,117.5625 172.6875,117.8016 Q172.4766,118.0406 172.1391,118.0406 Q171.8297,118.0406 171.6469,117.8578 Q171.4641,117.6891 171.3656,117.225 Q171.3234,116.9016 171.1547,116.7328 Q170.8594,116.3953 170.3109,116.1984 Q169.7625,116.0016 169.2,116.0016 Q168.5109,116.0016 167.9344,116.2969 Q167.3719,116.5922 166.9219,117.2672 Q166.4859,117.9422 166.4859,118.8703 L166.4859,119.8547 Q166.4859,120.9656 167.2875,121.7109 Q168.0891,122.4422 169.5234,122.4422 Q170.3672,122.4422 170.9578,122.2172 Q171.3094,122.0766 171.6891,121.6828 Q171.9281,121.4438 172.0547,121.3734 Q172.1953,121.3031 172.3781,121.3031 Q172.6734,121.3031 172.8984,121.5422 Q173.1375,121.7672 173.1375,122.0766 Q173.1375,122.3859 172.8281,122.7516 Q172.3781,123.2719 171.6609,123.5672 Q170.6906,123.975 169.5234,123.975 Q168.1594,123.975 167.0766,123.4125 Q166.1906,122.9625 165.5719,122.0063 Q164.9531,121.0359 164.9531,119.8828 L164.9531,118.8422 Q164.9531,117.6469 165.5016,116.6203 Q166.0641,115.5797 167.0484,115.0313 Q168.0328,114.4688 169.1438,114.4688 Q169.8047,114.4688 170.3813,114.6234 Q170.9719,114.7641 171.4641,115.0875 Z " fill="#000000"/><text fill="#000000" font-family="sans-serif" font-size="12.6" lengthAdjust="spacing" textLength="188.1" x="187.425" y="123.1682">DisplayTheListPropertyController</text><line style="stroke:#181818;stroke-width:0.45;" x1="51.75" x2="481.95" y1="133.2" y2="133.2"/><text fill="#000000" font-family="sans-serif" font-size="12.6" lengthAdjust="spacing" textLength="261" x="56.25" y="148.2064">-PorpertyRepository propertyRepository = null</text><line style="stroke:#181818;stroke-width:0.45;" x1="51.75" x2="481.95" y1="154.4766" y2="154.4766"/><text fill="#000000" font-family="sans-serif" font-size="12.6" lengthAdjust="spacing" textLength="141.3" x="56.25" y="169.483">-getPropertyRepository()</text><text fill="#000000" font-family="sans-serif" font-size="12.6" lengthAdjust="spacing" textLength="421.2" x="56.25" y="183.5596">-getListOfAllProperties(propertyType, businessType, numberOfBedrooms)</text></g><!--class HabitationType--><g id="elem_HabitationType"><rect codeLine="38" fill="#F1F1F1" height="71.3531" id="HabitationType" rx="2.25" ry="2.25" style="stroke:#181818;stroke-width:0.45;" width="114.3" x="873.9" y="650.7"/><ellipse cx="887.4" cy="665.1" fill="#EB937F" rx="9.9" ry="9.9" style="stroke:#181818;stroke-width:0.9;"/><path d="M886.3734,665.8172 L886.3734,668.0672 L890.2688,668.0672 L890.2688,667.2375 Q890.2688,666.6891 890.4797,666.45 Q890.7047,666.2109 891.0422,666.2109 Q891.3797,666.2109 891.5906,666.45 Q891.8016,666.6891 891.8016,667.2375 L891.8016,669.6 L884.6016,669.6 Q884.0391,669.6 883.8,669.3891 Q883.575,669.1781 883.575,668.8266 Q883.575,668.4891 883.8141,668.2781 Q884.0531,668.0672 884.6016,668.0672 L884.8406,668.0672 L884.8406,662.0766 L884.6016,662.0766 Q884.0391,662.0766 883.8,661.8656 Q883.575,661.6547 883.575,661.3031 Q883.575,660.9656 883.8,660.7547 Q884.0391,660.5438 884.6016,660.5438 L891.4641,660.5438 L891.4641,662.8781 Q891.4641,663.4266 891.2531,663.6656 Q891.0563,663.8906 890.7047,663.8906 Q890.3672,663.8906 890.1563,663.6656 Q889.9453,663.4266 889.9453,662.8781 L889.9453,662.0766 L886.3734,662.0766 L886.3734,664.2844 L887.7094,664.2844 Q887.7094,663.6938 887.8219,663.525 Q888.0609,663.1594 888.4828,663.1594 Q888.8203,663.1594 889.0313,663.3984 Q889.2422,663.6234 889.2422,664.1719 L889.2422,665.9438 Q889.2422,666.4359 889.1297,666.6047 Q888.8906,666.9563 888.4828,666.9563 Q888.0609,666.9563 887.8219,666.5906 Q887.7094,666.4219 887.7094,665.8172 L886.3734,665.8172 Z " fill="#000000"/><text fill="#000000" font-family="sans-serif" font-size="12.6" lengthAdjust="spacing" textLength="85.5" x="900" y="669.4682">HabitationType</text><line style="stroke:#181818;stroke-width:0.45;" x1="874.8" x2="987.3" y1="679.5" y2="679.5"/><text fill="#000000" font-family="sans-serif" font-size="12.6" lengthAdjust="spacing" textLength="45.9" x="879.3" y="694.5064">HOUSE;</text><text fill="#000000" font-family="sans-serif" font-size="12.6" lengthAdjust="spacing" textLength="79.2" x="879.3" y="708.583">APARTMENT;</text><line style="stroke:#181818;stroke-width:0.45;" x1="874.8" x2="987.3" y1="714.8531" y2="714.8531"/></g><!--class PropertyType--><g id="elem_PropertyType"><rect codeLine="47" fill="#F1F1F1" height="71.3531" id="PropertyType" rx="2.25" ry="2.25" style="stroke:#181818;stroke-width:0.45;" width="106.2" x="532.35" y="650.7"/><ellipse cx="545.85" cy="665.1" fill="#EB937F" rx="9.9" ry="9.9" style="stroke:#181818;stroke-width:0.9;"/><path d="M544.8234,665.8172 L544.8234,668.0672 L548.7188,668.0672 L548.7188,667.2375 Q548.7188,666.6891 548.9297,666.45 Q549.1547,666.2109 549.4922,666.2109 Q549.8297,666.2109 550.0406,666.45 Q550.2516,666.6891 550.2516,667.2375 L550.2516,669.6 L543.0516,669.6 Q542.4891,669.6 542.25,669.3891 Q542.025,669.1781 542.025,668.8266 Q542.025,668.4891 542.2641,668.2781 Q542.5031,668.0672 543.0516,668.0672 L543.2906,668.0672 L543.2906,662.0766 L543.0516,662.0766 Q542.4891,662.0766 542.25,661.8656 Q542.025,661.6547 542.025,661.3031 Q542.025,660.9656 542.25,660.7547 Q542.4891,660.5438 543.0516,660.5438 L549.9141,660.5438 L549.9141,662.8781 Q549.9141,663.4266 549.7031,663.6656 Q549.5063,663.8906 549.1547,663.8906 Q548.8172,663.8906 548.6063,663.6656 Q548.3953,663.4266 548.3953,662.8781 L548.3953,662.0766 L544.8234,662.0766 L544.8234,664.2844 L546.1594,664.2844 Q546.1594,663.6938 546.2719,663.525 Q546.5109,663.1594 546.9328,663.1594 Q547.2703,663.1594 547.4813,663.3984 Q547.6922,663.6234 547.6922,664.1719 L547.6922,665.9438 Q547.6922,666.4359 547.5797,666.6047 Q547.3406,666.9563 546.9328,666.9563 Q546.5109,666.9563 546.2719,666.5906 Q546.1594,666.4219 546.1594,665.8172 L544.8234,665.8172 Z " fill="#000000"/><text fill="#000000" font-family="sans-serif" font-size="12.6" lengthAdjust="spacing" textLength="77.4" x="558.45" y="669.4682">PropertyType</text><line style="stroke:#181818;stroke-width:0.45;" x1="533.25" x2="637.65" y1="679.5" y2="679.5"/><text fill="#000000" font-family="sans-serif" font-size="12.6" lengthAdjust="spacing" textLength="75.6" x="537.75" y="694.5064">HABITATION;</text><text fill="#000000" font-family="sans-serif" font-size="12.6" lengthAdjust="spacing" textLength="36" x="537.75" y="708.583">LAND;</text><line style="stroke:#181818;stroke-width:0.45;" x1="533.25" x2="637.65" y1="714.8531" y2="714.8531"/></g><!--class Property--><g id="elem_Property"><rect codeLine="53" fill="#F1F1F1" height="127.6594" id="Property" rx="2.25" ry="2.25" style="stroke:#181818;stroke-width:0.45;" width="203.4" x="559.35" y="405.45"/><ellipse cx="632.925" cy="419.85" fill="#ADD1B2" rx="9.9" ry="9.9" style="stroke:#181818;stroke-width:0.9;"/><path d="M635.4141,416.1375 Q635.5547,415.9406 635.7234,415.8422 Q635.8922,415.7438 636.0891,415.7438 Q636.4266,415.7438 636.6375,415.9828 Q636.8484,416.2078 636.8484,416.7563 L636.8484,418.0641 Q636.8484,418.6125 636.6375,418.8516 Q636.4266,419.0906 636.0891,419.0906 Q635.7797,419.0906 635.5969,418.9078 Q635.4141,418.7391 635.3156,418.275 Q635.2734,417.9516 635.1047,417.7828 Q634.8094,417.4453 634.2609,417.2484 Q633.7125,417.0516 633.15,417.0516 Q632.4609,417.0516 631.8844,417.3469 Q631.3219,417.6422 630.8719,418.3172 Q630.4359,418.9922 630.4359,419.9203 L630.4359,420.9047 Q630.4359,422.0156 631.2375,422.7609 Q632.0391,423.4922 633.4734,423.4922 Q634.3172,423.4922 634.9078,423.2672 Q635.2594,423.1266 635.6391,422.7328 Q635.8781,422.4938 636.0047,422.4234 Q636.1453,422.3531 636.3281,422.3531 Q636.6234,422.3531 636.8484,422.5922 Q637.0875,422.8172 637.0875,423.1266 Q637.0875,423.4359 636.7781,423.8016 Q636.3281,424.3219 635.6109,424.6172 Q634.6406,425.025 633.4734,425.025 Q632.1094,425.025 631.0266,424.4625 Q630.1406,424.0125 629.5219,423.0563 Q628.9031,422.0859 628.9031,420.9328 L628.9031,419.8922 Q628.9031,418.6969 629.4516,417.6703 Q630.0141,416.6297 630.9984,416.0813 Q631.9828,415.5188 633.0938,415.5188 Q633.7547,415.5188 634.3313,415.6734 Q634.9219,415.8141 635.4141,416.1375 Z " fill="#000000"/><text fill="#000000" font-family="sans-serif" font-size="12.6" lengthAdjust="spacing" textLength="48.6" x="651.375" y="424.2182">Property</text><line style="stroke:#181818;stroke-width:0.45;" x1="560.25" x2="761.85" y1="434.25" y2="434.25"/><text fill="#000000" font-family="sans-serif" font-size="12.6" lengthAdjust="spacing" textLength="117" x="564.75" y="449.2564">-PropertyType : type</text><text fill="#000000" font-family="sans-serif" font-size="12.6" lengthAdjust="spacing" textLength="119.7" x="564.75" y="463.333">-BusinessType : type</text><line style="stroke:#181818;stroke-width:0.45;" x1="560.25" x2="761.85" y1="469.6031" y2="469.6031"/><text fill="#000000" font-family="sans-serif" font-size="12.6" lengthAdjust="spacing" textLength="114.3" x="564.75" y="484.6096">+getBusinessType()</text><text fill="#000000" font-family="sans-serif" font-size="12.6" lengthAdjust="spacing" textLength="192.6" x="564.75" y="498.6861">+setBusinessType(businessType)</text><text fill="#000000" font-family="sans-serif" font-size="12.6" lengthAdjust="spacing" textLength="111.6" x="564.75" y="512.7627">+getPropertyType()</text><text fill="#000000" font-family="sans-serif" font-size="12.6" lengthAdjust="spacing" textLength="187.2" x="564.75" y="526.8393">+setPropertyType(propertyType)</text></g><!--class Repositories--><g id="elem_Repositories"><rect codeLine="64" fill="#F1F1F1" height="85.4297" id="Repositories" rx="2.25" ry="2.25" style="stroke:#181818;stroke-width:0.45;" width="154.8" x="189.45" y="258.3"/><ellipse cx="227.655" cy="272.7" fill="#ADD1B2" rx="9.9" ry="9.9" style="stroke:#181818;stroke-width:0.9;"/><path d="M230.1441,268.9875 Q230.2847,268.7906 230.4534,268.6922 Q230.6222,268.5938 230.8191,268.5938 Q231.1566,268.5938 231.3675,268.8328 Q231.5784,269.0578 231.5784,269.6063 L231.5784,270.9141 Q231.5784,271.4625 231.3675,271.7016 Q231.1566,271.9406 230.8191,271.9406 Q230.5097,271.9406 230.3269,271.7578 Q230.1441,271.5891 230.0456,271.125 Q230.0034,270.8016 229.8347,270.6328 Q229.5394,270.2953 228.9909,270.0984 Q228.4425,269.9016 227.88,269.9016 Q227.1909,269.9016 226.6144,270.1969 Q226.0519,270.4922 225.6019,271.1672 Q225.1659,271.8422 225.1659,272.7703 L225.1659,273.7547 Q225.1659,274.8656 225.9675,275.6109 Q226.7691,276.3422 228.2034,276.3422 Q229.0472,276.3422 229.6378,276.1172 Q229.9894,275.9766 230.3691,275.5828 Q230.6081,275.3438 230.7347,275.2734 Q230.8753,275.2031 231.0581,275.2031 Q231.3534,275.2031 231.5784,275.4422 Q231.8175,275.6672 231.8175,275.9766 Q231.8175,276.2859 231.5081,276.6516 Q231.0581,277.1719 230.3409,277.4672 Q229.3706,277.875 228.2034,277.875 Q226.8394,277.875 225.7566,277.3125 Q224.8706,276.8625 224.2519,275.9063 Q223.6331,274.9359 223.6331,273.7828 L223.6331,272.7422 Q223.6331,271.5469 224.1816,270.5203 Q224.7441,269.4797 225.7284,268.9313 Q226.7128,268.3688 227.8238,268.3688 Q228.4847,268.3688 229.0613,268.5234 Q229.6519,268.6641 230.1441,268.9875 Z " fill="#000000"/><text fill="#000000" font-family="sans-serif" font-size="12.6" lengthAdjust="spacing" textLength="71.1" x="245.745" y="277.0682">Repositories</text><line style="stroke:#181818;stroke-width:0.45;" x1="190.35" x2="343.35" y1="287.1" y2="287.1"/><line style="stroke:#181818;stroke-width:0.45;" x1="190.35" x2="343.35" y1="294.3" y2="294.3"/><text fill="#000000" font-family="sans-serif" font-size="12.6" lengthAdjust="spacing" textLength="80.1" x="194.85" y="309.3064">-repositories()</text><text fill="#000000" font-family="sans-serif" font-size="12.6" lengthAdjust="spacing" textLength="81.9" x="194.85" y="323.383">+getInstance()</text><text fill="#000000" font-family="sans-serif" font-size="12.6" lengthAdjust="spacing" textLength="144" x="194.85" y="337.4596">+getPropertyRepository()</text></g><!--class BusinessType--><g id="elem_BusinessType"><rect codeLine="72" fill="#F1F1F1" height="71.3531" id="BusinessType" rx="2.25" ry="2.25" style="stroke:#181818;stroke-width:0.45;" width="108.9" x="670.5" y="650.7"/><ellipse cx="684" cy="665.1" fill="#EB937F" rx="9.9" ry="9.9" style="stroke:#181818;stroke-width:0.9;"/><path d="M682.9734,665.8172 L682.9734,668.0672 L686.8688,668.0672 L686.8688,667.2375 Q686.8688,666.6891 687.0797,666.45 Q687.3047,666.2109 687.6422,666.2109 Q687.9797,666.2109 688.1906,666.45 Q688.4016,666.6891 688.4016,667.2375 L688.4016,669.6 L681.2016,669.6 Q680.6391,669.6 680.4,669.3891 Q680.175,669.1781 680.175,668.8266 Q680.175,668.4891 680.4141,668.2781 Q680.6531,668.0672 681.2016,668.0672 L681.4406,668.0672 L681.4406,662.0766 L681.2016,662.0766 Q680.6391,662.0766 680.4,661.8656 Q680.175,661.6547 680.175,661.3031 Q680.175,660.9656 680.4,660.7547 Q680.6391,660.5438 681.2016,660.5438 L688.0641,660.5438 L688.0641,662.8781 Q688.0641,663.4266 687.8531,663.6656 Q687.6563,663.8906 687.3047,663.8906 Q686.9672,663.8906 686.7563,663.6656 Q686.5453,663.4266 686.5453,662.8781 L686.5453,662.0766 L682.9734,662.0766 L682.9734,664.2844 L684.3094,664.2844 Q684.3094,663.6938 684.4219,663.525 Q684.6609,663.1594 685.0828,663.1594 Q685.4203,663.1594 685.6313,663.3984 Q685.8422,663.6234 685.8422,664.1719 L685.8422,665.9438 Q685.8422,666.4359 685.7297,666.6047 Q685.4906,666.9563 685.0828,666.9563 Q684.6609,666.9563 684.4219,666.5906 Q684.3094,666.4219 684.3094,665.8172 L682.9734,665.8172 Z " fill="#000000"/><text fill="#000000" font-family="sans-serif" font-size="12.6" lengthAdjust="spacing" textLength="80.1" x="696.6" y="669.4682">BusinessType</text><line style="stroke:#181818;stroke-width:0.45;" x1="671.4" x2="778.5" y1="679.5" y2="679.5"/><text fill="#000000" font-family="sans-serif" font-size="12.6" lengthAdjust="spacing" textLength="35.1" x="675.9" y="694.5064">SALE;</text><text fill="#000000" font-family="sans-serif" font-size="12.6" lengthAdjust="spacing" textLength="43.2" x="675.9" y="708.583">LEASE;</text><line style="stroke:#181818;stroke-width:0.45;" x1="671.4" x2="778.5" y1="714.8531" y2="714.8531"/></g><!--class PropertyRepository--><g id="elem_PropertyRepository"><rect codeLine="79" fill="#F1F1F1" height="141.7359" id="PropertyRepository" rx="2.25" ry="2.25" style="stroke:#181818;stroke-width:0.45;" width="521.1" x="6.3" y="398.7"/><ellipse cx="208.125" cy="413.1" fill="#ADD1B2" rx="9.9" ry="9.9" style="stroke:#181818;stroke-width:0.9;"/><path d="M210.6141,409.3875 Q210.7547,409.1906 210.9234,409.0922 Q211.0922,408.9938 211.2891,408.9938 Q211.6266,408.9938 211.8375,409.2328 Q212.0484,409.4578 212.0484,410.0063 L212.0484,411.3141 Q212.0484,411.8625 211.8375,412.1016 Q211.6266,412.3406 211.2891,412.3406 Q210.9797,412.3406 210.7969,412.1578 Q210.6141,411.9891 210.5156,411.525 Q210.4734,411.2016 210.3047,411.0328 Q210.0094,410.6953 209.4609,410.4984 Q208.9125,410.3016 208.35,410.3016 Q207.6609,410.3016 207.0844,410.5969 Q206.5219,410.8922 206.0719,411.5672 Q205.6359,412.2422 205.6359,413.1703 L205.6359,414.1547 Q205.6359,415.2656 206.4375,416.0109 Q207.2391,416.7422 208.6734,416.7422 Q209.5172,416.7422 210.1078,416.5172 Q210.4594,416.3766 210.8391,415.9828 Q211.0781,415.7438 211.2047,415.6734 Q211.3453,415.6031 211.5281,415.6031 Q211.8234,415.6031 212.0484,415.8422 Q212.2875,416.0672 212.2875,416.3766 Q212.2875,416.6859 211.9781,417.0516 Q211.5281,417.5719 210.8109,417.8672 Q209.8406,418.275 208.6734,418.275 Q207.3094,418.275 206.2266,417.7125 Q205.3406,417.2625 204.7219,416.3063 Q204.1031,415.3359 204.1031,414.1828 L204.1031,413.1422 Q204.1031,411.9469 204.6516,410.9203 Q205.2141,409.8797 206.1984,409.3313 Q207.1828,408.7688 208.2938,408.7688 Q208.9547,408.7688 209.5313,408.9234 Q210.1219,409.0641 210.6141,409.3875 Z " fill="#000000"/><text fill="#000000" font-family="sans-serif" font-size="12.6" lengthAdjust="spacing" textLength="109.8" x="226.575" y="417.4682">PropertyRepository</text><line style="stroke:#181818;stroke-width:0.45;" x1="7.2" x2="526.5" y1="427.5" y2="427.5"/><text fill="#000000" font-family="sans-serif" font-size="12.6" lengthAdjust="spacing" textLength="171" x="11.7" y="442.5064">-properties: ArrayList&lt;Object&gt;</text><line style="stroke:#181818;stroke-width:0.45;" x1="7.2" x2="526.5" y1="448.7766" y2="448.7766"/><text fill="#000000" font-family="sans-serif" font-size="12.6" lengthAdjust="spacing" textLength="497.7" x="11.7" y="463.783">+getListOfAllProperties(propertyType, businessType, numberOfBedrooms, sortCrtiteria)</text><text fill="#000000" font-family="sans-serif" font-size="12.6" lengthAdjust="spacing" textLength="510.3" x="11.7" y="477.8596">+getListOfAllHabitations(habitationType, businessType, numberOfBedrooms, sortCrtiteria)</text><text fill="#000000" font-family="sans-serif" font-size="12.6" lengthAdjust="spacing" textLength="172.8" x="11.7" y="491.9361">+getListOfLand(propertyType)</text><text fill="#000000" font-family="sans-serif" font-size="12.6" lengthAdjust="spacing" textLength="92.7" x="11.7" y="506.0127">+getProperties()</text><text fill="#000000" font-family="sans-serif" font-size="12.6" lengthAdjust="spacing" textLength="91.8" x="11.7" y="520.0893">+setProperties()</text><text fill="#000000" font-family="sans-serif" font-size="12.6" lengthAdjust="spacing" textLength="135" x="11.7" y="534.1658">+addProperty(Property)</text></g><!--link DisplayTheListPropertiesUI to DisplayTheListPropertyController--><g id="link_DisplayTheListPropertiesUI_DisplayTheListPropertyController"><path codeLine="92" d="M266.85,49.527 C266.85,63.369 266.85,82.152 266.85,99.486 " fill="none" id="DisplayTheListPropertiesUI-to-DisplayTheListPropertyController" style="stroke:#181818;stroke-width:0.9;stroke-dasharray:7.0,7.0;"/><polygon fill="#181818" points="266.85,104.328,270.45,96.228,266.85,99.828,263.25,96.228,266.85,104.328" style="stroke:#181818;stroke-width:0.9;"/></g><!--link DisplayTheListPropertyController to Repositories--><g id="link_DisplayTheListPropertyController_Repositories"><path codeLine="93" d="M266.85,190.017 C266.85,209.718 266.85,233.262 266.85,253.521 " fill="none" id="DisplayTheListPropertyController-to-Repositories" style="stroke:#181818;stroke-width:0.9;stroke-dasharray:7.0,7.0;"/><polygon fill="#181818" points="266.85,258.057,270.45,249.957,266.85,253.557,263.25,249.957,266.85,258.057" style="stroke:#181818;stroke-width:0.9;"/><text fill="#000000" font-family="sans-serif" font-size="11.7" lengthAdjust="spacing" textLength="60.3" x="267.75" y="228.3917">repositories</text></g><!--link Repositories to Repositories--><g id="link_Repositories_Repositories"><path codeLine="97" d="M344.421,288.162 C362.466,289.251 375.75,293.544 375.75,301.05 C375.75,307.908 364.653,312.093 348.966,313.587 " fill="none" id="Repositories-to-Repositories" style="stroke:#181818;stroke-width:0.9;"/><polygon fill="#181818" points="344.421,313.938,352.7745,316.9025,348.9076,313.5909,352.2192,309.7239,344.421,313.938" style="stroke:#181818;stroke-width:0.9;"/><text fill="#000000" font-family="sans-serif" font-size="11.7" lengthAdjust="spacing" textLength="44.1" x="381.15" y="305.3417">instance</text></g><!--link Repositories to PropertyRepository--><g id="link_Repositories_PropertyRepository"><path codeLine="98" d="M266.85,343.962 C266.85,359.109 266.85,376.695 266.85,393.786 " fill="none" id="Repositories-to-PropertyRepository" style="stroke:#181818;stroke-width:0.9;"/><polygon fill="#181818" points="266.85,398.592,270.45,390.492,266.85,394.092,263.25,390.492,266.85,398.592" style="stroke:#181818;stroke-width:0.9;"/><text fill="#000000" font-family="sans-serif" font-size="11.7" lengthAdjust="spacing" textLength="6.3" x="260.2399" y="389">1</text></g><!--link PropertyRepository to Property--><g id="link_PropertyRepository_Property"><path codeLine="99" d="M527.796,469.35 C529.002,469.35 529.65,469.35 529.65,469.35 C529.65,469.35 539.793,469.35 554.454,469.35 " fill="none" id="PropertyRepository-to-Property" style="stroke:#181818;stroke-width:0.9;"/><polygon fill="#181818" points="559.143,469.35,551.043,465.75,554.643,469.35,551.043,472.95,559.143,469.35" style="stroke:#181818;stroke-width:0.9;"/><text fill="#000000" font-family="sans-serif" font-size="11.7" lengthAdjust="spacing" textLength="4.5" x="547.645" y="466.939">*</text></g><!--link Property to BusinessType--><g id="link_Property_BusinessType"><path codeLine="100" d="M679.788,533.331 C691.173,571.635 705.258,619.074 714.645,650.673 " fill="none" id="Property-BusinessType" style="stroke:#181818;stroke-width:0.9;"/></g><!--link Property to PropertyType--><g id="link_Property_PropertyType"><path codeLine="101" d="M638.874,533.331 C625.419,571.635 608.742,619.074 597.636,650.673 " fill="none" id="Property-PropertyType" style="stroke:#181818;stroke-width:0.9;"/></g><!--reverse link Property to Habitation--><g id="link_Property_Habitation"><path codeLine="102" d="M781.047,469.35 C785.295,469.35 789.741,469.35 794.214,469.35 " fill="none" id="Property-backto-Habitation" style="stroke:#181818;stroke-width:0.9;"/><polygon fill="none" points="780.813,475.65,762.813,469.35,780.813,463.05,780.813,475.65" style="stroke:#181818;stroke-width:0.9;"/></g><!--link Habitation to HabitationType--><g id="link_Habitation_HabitationType"><path codeLine="103" d="M931.05,533.331 C931.05,571.635 931.05,619.074 931.05,650.673 " fill="none" id="Habitation-HabitationType" style="stroke:#181818;stroke-width:0.9;"/></g><!--SRC=[fLNRRk8m47ttLunu0NOBsdrjkvL2Mwb8BA25Ve191kAjiIFRQPMz_FkEGouEOTM7ye2IEJF7SpaP3-sBK1at_0X7hNIS6dr4S2P7rY8PZr_u0JUka0W6OyVLGOOEDkM9VXFg07ikROX8eT0L6KAcPU5VsF02g8tJB8YA9RSsSiw8NUvm7ckr4RyGlZ0sbBXtu3GOSKWT9CAd8xHYh8o11s4poOjjYWjXtThe38qJQ9_dloduNYjdj9HeBCHSAUqWvQy8N1KCXdHy0deFkznIOjPE34hkC864EqxuaIkHvMIYywQC_QtFVE8xuKehq250lqbhsb9zr-3_JuZAZpiqg_qC4wFrqPPM-7n0ruqPZIl4zf2qythoymJBC-gAmZFqeFCqncqv5rjOjAshQrnhKo8_CDDME6qAo2hdmFGDL2xbAO9oNFSygYmzwCzRxICfsxcDQafVwbKpcjDRlmXV1KEoGxTdzM2ULi-RnvloCLf7FxRV7vVR6nyrR9iAmW9lIgdvra4U5TjJD9jle-ryjImP5z7ouQPjOntGQAB3S0skaSGiA2e4_4n3h9P4DTCE53QcLKHuPA26ZZbiy3XGTJCXca9JWmcCe_QSkRAq4s8SzO_k3Dgpbztib5oHRw95DPh5O-IdrEzbeAiwewoHoZL4nl32Y-XsjVj9U-6koUQZohe2IplgdW8T6i77VU9MR_Ri0_qWzuAhv6n8PpqEPc4l6NcIr0qSrG_bzyxO_zSbJATtxwu2zfv3oT9HqZM46l8vTE19prrKsZhp8yV1ry45PR0BOl6qWq-jT-D3F9EE6Bj8-A6qoEsVIR1UMB3-VKntyT2bmnMKcY_NYiqm5bp2e1Js05pAdU-8GOlAUO-3qNdcho6wzNpbP1pbAaxfpaM-emlubPDAw8648yKBmbue8coiOpQSOSnpIzTuwb6KYVLyTHxSOCjzvPs40SMFr5KFlHdX7D8ML7H5PbIA18baCNRw3m00]--></g></svg>