<?xml version="1.0" encoding="us-ascii" standalone="no"?><svg xmlns="http://www.w3.org/2000/svg" xmlns:xlink="http://www.w3.org/1999/xlink" contentStyleType="text/css" height="830px" preserveAspectRatio="none" style="width:1298px;height:830px;background:#FFFFFF;" version="1.1" viewBox="0 0 1298 830" width="1298px" zoomAndPan="magnify"><defs/><g><!--class NetworkManager--><g id="elem_NetworkManager"><rect codeLine="5" fill="#F1F1F1" height="36.6211" id="NetworkManager" rx="2.5" ry="2.5" style="stroke:#181818;stroke-width:0.5;" width="112" x="85.5" y="262"/><text fill="#000000" font-family="sans-serif" font-size="14" lengthAdjust="spacing" textLength="106" x="88.5" y="282.1074">NetworkManager</text><line style="stroke:#181818;stroke-width:0.5;" x1="86.5" x2="196.5" y1="290.6211" y2="290.6211"/></g><g id="elem_GMN3"><path d="M233,267 L233,276.5 L197.51,280.5 L233,284.5 L233,294.291 A0,0 0 0 0 233,294.291 L586,294.291 A0,0 0 0 0 586,294.291 L586,277 L576,267 L233,267 A0,0 0 0 0 233,267 " fill="#FEFFDD" style="stroke:#181818;stroke-width:0.5;"/><path d="M576,267 L576,277 L586,277 L576,267 " fill="#FEFFDD" style="stroke:#181818;stroke-width:0.5;"/><text fill="#000000" font-family="sans-serif" font-size="13" lengthAdjust="spacing" textLength="332" x="239" y="286.0283">NetworkManager is a concept of the business component</text></g><!--class Person--><g id="elem_Person"><rect codeLine="10" fill="#F1F1F1" height="111.1055" id="Person" rx="2.5" ry="2.5" style="stroke:#181818;stroke-width:0.5;" width="116" x="83.5" y="596"/><text fill="#000000" font-family="sans-serif" font-size="14" lengthAdjust="spacing" textLength="45" x="119" y="616.1074">Person</text><line style="stroke:#181818;stroke-width:0.5;" x1="84.5" x2="198.5" y1="624.6211" y2="624.6211"/><text fill="#000000" font-family="sans-serif" font-size="14" lengthAdjust="spacing" textLength="104" x="89.5" y="643.7285">passportNumber</text><text fill="#000000" font-family="sans-serif" font-size="14" lengthAdjust="spacing" textLength="67" x="89.5" y="662.3496">taxNumber</text><text fill="#000000" font-family="sans-serif" font-size="14" lengthAdjust="spacing" textLength="33" x="89.5" y="680.9707">email</text><text fill="#000000" font-family="sans-serif" font-size="14" lengthAdjust="spacing" textLength="89" x="89.5" y="699.5918">phoneNumber</text></g><!--class Employee--><g id="elem_Employee"><rect codeLine="17" fill="#F1F1F1" height="36.6211" id="Employee" rx="2.5" ry="2.5" style="stroke:#181818;stroke-width:0.5;" width="68" x="107.5" y="470.5"/><text fill="#000000" font-family="sans-serif" font-size="14" lengthAdjust="spacing" textLength="62" x="110.5" y="490.6074">Employee</text><line style="stroke:#181818;stroke-width:0.5;" x1="108.5" x2="174.5" y1="499.1211" y2="499.1211"/></g><!--class User--><g id="elem_User"><rect codeLine="19" fill="#F1F1F1" height="55.2422" id="User" rx="2.5" ry="2.5" style="stroke:#181818;stroke-width:0.5;" width="47" x="118" y="768"/><text fill="#000000" font-family="sans-serif" font-size="14" lengthAdjust="spacing" textLength="29" x="127" y="788.1074">User</text><line style="stroke:#181818;stroke-width:0.5;" x1="119" x2="164" y1="796.6211" y2="796.6211"/><text fill="#000000" font-family="sans-serif" font-size="14" lengthAdjust="spacing" textLength="35" x="124" y="815.7285">name</text></g><!--class Store--><g id="elem_Store"><rect codeLine="23" fill="#F1F1F1" height="111.1055" id="Store" rx="2.5" ry="2.5" style="stroke:#181818;stroke-width:0.5;" width="101" x="402" y="7"/><text fill="#000000" font-family="sans-serif" font-size="14" lengthAdjust="spacing" textLength="34" x="435.5" y="27.1074">Store</text><line style="stroke:#181818;stroke-width:0.5;" x1="403" x2="502" y1="35.6211" y2="35.6211"/><text fill="#000000" font-family="sans-serif" font-size="14" lengthAdjust="spacing" textLength="11" x="408" y="54.7285">id</text><text fill="#000000" font-family="sans-serif" font-size="14" lengthAdjust="spacing" textLength="73" x="408" y="73.3496">designation</text><text fill="#000000" font-family="sans-serif" font-size="14" lengthAdjust="spacing" textLength="89" x="408" y="91.9707">phoneNumber</text><text fill="#000000" font-family="sans-serif" font-size="14" lengthAdjust="spacing" textLength="33" x="408" y="110.5918">email</text></g><!--class Property--><g id="elem_Property"><rect codeLine="30" fill="#F1F1F1" height="92.4844" id="Property" rx="2.5" ry="2.5" style="stroke:#181818;stroke-width:0.5;" width="92" x="926.5" y="443"/><text fill="#000000" font-family="sans-serif" font-size="14" lengthAdjust="spacing" textLength="54" x="945.5" y="463.1074">Property</text><line style="stroke:#181818;stroke-width:0.5;" x1="927.5" x2="1017.5" y1="471.6211" y2="471.6211"/><text fill="#000000" font-family="sans-serif" font-size="14" lengthAdjust="spacing" textLength="29" x="932.5" y="490.7285">area</text><text fill="#000000" font-family="sans-serif" font-size="14" lengthAdjust="spacing" textLength="53" x="932.5" y="509.3496">distance</text><text fill="#000000" font-family="sans-serif" font-size="14" lengthAdjust="spacing" textLength="80" x="932.5" y="527.9707">photographs</text></g><!--class Apartment--><g id="elem_Apartment"><rect codeLine="36" fill="#F1F1F1" height="111.1055" id="Apartment" rx="2.5" ry="2.5" style="stroke:#181818;stroke-width:0.5;" width="135" x="963" y="225"/><text fill="#000000" font-family="sans-serif" font-size="14" lengthAdjust="spacing" textLength="65" x="998" y="245.1074">Apartment</text><line style="stroke:#181818;stroke-width:0.5;" x1="964" x2="1097" y1="253.6211" y2="253.6211"/><text fill="#000000" font-family="sans-serif" font-size="14" lengthAdjust="spacing" textLength="77" x="969" y="272.7285">nrBedrooms</text><text fill="#000000" font-family="sans-serif" font-size="14" lengthAdjust="spacing" textLength="81" x="969" y="291.3496">nrBathrooms</text><text fill="#000000" font-family="sans-serif" font-size="14" lengthAdjust="spacing" textLength="108" x="969" y="309.9707">nrParkingSpaces</text><text fill="#000000" font-family="sans-serif" font-size="14" lengthAdjust="spacing" textLength="123" x="969" y="328.5918">availableEquipment</text></g><!--class House--><g id="elem_House"><rect codeLine="43" fill="#F1F1F1" height="166.9688" id="House" rx="2.5" ry="2.5" style="stroke:#181818;stroke-width:0.5;" width="158" x="1133.5" y="197"/><text fill="#000000" font-family="sans-serif" font-size="14" lengthAdjust="spacing" textLength="40" x="1192.5" y="217.1074">House</text><line style="stroke:#181818;stroke-width:0.5;" x1="1134.5" x2="1290.5" y1="225.6211" y2="225.6211"/><text fill="#000000" font-family="sans-serif" font-size="14" lengthAdjust="spacing" textLength="77" x="1139.5" y="244.7285">nrBedrooms</text><text fill="#000000" font-family="sans-serif" font-size="14" lengthAdjust="spacing" textLength="81" x="1139.5" y="263.3496">nrBathrooms</text><text fill="#000000" font-family="sans-serif" font-size="14" lengthAdjust="spacing" textLength="108" x="1139.5" y="281.9707">nrParkingSpaces</text><text fill="#000000" font-family="sans-serif" font-size="14" lengthAdjust="spacing" textLength="123" x="1139.5" y="300.5918">avaliableEquipment</text><text fill="#000000" font-family="sans-serif" font-size="14" lengthAdjust="spacing" textLength="146" x="1139.5" y="319.2129">existenceOfABasement</text><text fill="#000000" font-family="sans-serif" font-size="14" lengthAdjust="spacing" textLength="93" x="1139.5" y="337.834">inhabitableLoft</text><text fill="#000000" font-family="sans-serif" font-size="14" lengthAdjust="spacing" textLength="82" x="1139.5" y="356.4551">sunExposure</text></g><!--class Land--><g id="elem_Land"><rect codeLine="53" fill="#F1F1F1" height="36.6211" id="Land" rx="2.5" ry="2.5" style="stroke:#181818;stroke-width:0.5;" width="38" x="752.5" y="262"/><text fill="#000000" font-family="sans-serif" font-size="14" lengthAdjust="spacing" textLength="32" x="755.5" y="282.1074">Land</text><line style="stroke:#181818;stroke-width:0.5;" x1="753.5" x2="789.5" y1="290.6211" y2="290.6211"/></g><!--class Advertisement--><g id="elem_Advertisement"><rect codeLine="55" fill="#F1F1F1" height="55.2422" id="Advertisement" rx="2.5" ry="2.5" style="stroke:#181818;stroke-width:0.5;" width="102" x="825.5" y="253"/><text fill="#000000" font-family="sans-serif" font-size="14" lengthAdjust="spacing" textLength="90" x="831.5" y="273.1074">Advertisement</text><line style="stroke:#181818;stroke-width:0.5;" x1="826.5" x2="926.5" y1="281.6211" y2="281.6211"/><text fill="#000000" font-family="sans-serif" font-size="14" lengthAdjust="spacing" textLength="90" x="831.5" y="300.7285">datePublished</text></g><!--class Agent--><g id="elem_Agent"><rect fill="#F1F1F1" height="36.6211" id="Agent" rx="2.5" ry="2.5" style="stroke:#181818;stroke-width:0.5;" width="43" x="7" y="262"/><text fill="#000000" font-family="sans-serif" font-size="14" lengthAdjust="spacing" textLength="37" x="10" y="282.1074">Agent</text><line style="stroke:#181818;stroke-width:0.5;" x1="8" x2="49" y1="290.6211" y2="290.6211"/></g><!--class StoreManager--><g id="elem_StoreManager"><rect fill="#F1F1F1" height="36.6211" id="StoreManager" rx="2.5" ry="2.5" style="stroke:#181818;stroke-width:0.5;" width="96" x="621.5" y="262"/><text fill="#000000" font-family="sans-serif" font-size="14" lengthAdjust="spacing" textLength="90" x="624.5" y="282.1074">StoreManager</text><line style="stroke:#181818;stroke-width:0.5;" x1="622.5" x2="716.5" y1="290.6211" y2="290.6211"/></g><!--link Advertisement to Property--><g id="link_Advertisement_Property"><path codeLine="59" d="M887.75,308.14 C899.15,334.84 917.47,377.03 934.5,413 C939.12,422.76 944.25,433.15 949.2,442.98 " fill="none" id="Advertisement-Property" style="stroke:#181818;stroke-width:1.0;"/><polygon fill="#000000" points="941.5735,408.1953,940.4968,398.7459,935.1482,401.1834,941.5735,408.1953" style="stroke:#000000;stroke-width:1.0;"/><text fill="#000000" font-family="sans-serif" font-size="13" lengthAdjust="spacing" textLength="37" x="948.5" y="409.0283">covers</text><text fill="#000000" font-family="sans-serif" font-size="13" lengthAdjust="spacing" textLength="7" x="882.4453" y="330.0793">1</text></g><!--link Store to Advertisement--><g id="link_Store_Advertisement"><path codeLine="60" d="M503.04,73.69 C575.85,90.21 712.08,128.15 808.5,197 C829.5,211.99 847.74,235.03 860.03,252.95 " fill="none" id="Store-Advertisement" style="stroke:#181818;stroke-width:1.0;"/><polygon fill="#000000" points="764.9683,159.8892,758.2039,153.2039,755.5662,158.4567,764.9683,159.8892" style="stroke:#000000;stroke-width:1.0;"/><text fill="#000000" font-family="sans-serif" font-size="13" lengthAdjust="spacing" textLength="21" x="769.5" y="163.0283">has</text><text fill="#000000" font-family="sans-serif" font-size="13" lengthAdjust="spacing" textLength="7" x="510.9771" y="71.127">1</text><text fill="#000000" font-family="sans-serif" font-size="13" lengthAdjust="spacing" textLength="5" x="850.6432" y="241.6474">*</text></g><!--link Person to User--><g id="link_Person_User"><path codeLine="61" d="M141.5,707.4 C141.5,720.7 141.5,734.79 141.5,747.68 " fill="none" id="Person-to-User" style="stroke:#181818;stroke-width:1.0;"/><polygon fill="none" points="148.5,747.88,141.5,767.88,134.5,747.88,148.5,747.88" style="stroke:#181818;stroke-width:1.0;"/></g><!--link Employee to Person--><g id="link_Employee_Person"><path codeLine="62" d="M141.5,507.79 C141.5,524.39 141.5,550.31 141.5,575.54 " fill="none" id="Employee-to-Person" style="stroke:#181818;stroke-width:1.0;"/><polygon fill="none" points="148.5,575.88,141.5,595.88,134.5,575.88,148.5,575.88" style="stroke:#181818;stroke-width:1.0;"/></g><!--link NetworkManager to Employee--><g id="link_NetworkManager_Employee"><path codeLine="63" d="M141.5,299.11 C141.5,338.12 141.5,431.47 141.5,470.44 " fill="none" id="NetworkManager-Employee" style="stroke:#181818;stroke-width:1.0;"/><polygon fill="#000000" points="146.5,408.6455,149.4389,399.6004,143.5611,399.6004,146.5,408.6455" style="stroke:#000000;stroke-width:1.0;"/><text fill="#000000" font-family="sans-serif" font-size="13" lengthAdjust="spacing" textLength="28" x="155.5" y="409.0283">is an</text><text fill="#000000" font-family="sans-serif" font-size="13" lengthAdjust="spacing" textLength="7" x="133.5594" y="320.5142">1</text></g><!--link Agent to Employee--><g id="link_Agent_Employee"><path codeLine="64" d="M35.87,299.39 C46.71,325.11 68.1,373.77 90.5,413 C102.13,433.37 117.5,455.44 128.32,470.32 " fill="none" id="Agent-Employee" style="stroke:#181818;stroke-width:1.0;"/><polygon fill="#000000" points="97.8787,408.0434,96.1606,398.6893,90.9906,401.4857,97.8787,408.0434" style="stroke:#000000;stroke-width:1.0;"/><text fill="#000000" font-family="sans-serif" font-size="13" lengthAdjust="spacing" textLength="28" x="104.5" y="409.0283">is an</text><text fill="#000000" font-family="sans-serif" font-size="13" lengthAdjust="spacing" textLength="7" x="29.8617" y="320.5228">1</text></g><!--link StoreManager to Employee--><g id="link_StoreManager_Employee"><path codeLine="65" d="M660.01,299.08 C648.93,317.95 628.83,347.44 603.5,364 C463.1,455.81 256.62,479.94 175.76,486.03 " fill="none" id="StoreManager-Employee" style="stroke:#181818;stroke-width:1.0;"/><polygon fill="#000000" points="546.8355,405.4463,556.3321,404.9304,554.2152,399.447,546.8355,405.4463" style="stroke:#000000;stroke-width:1.0;"/><text fill="#000000" font-family="sans-serif" font-size="13" lengthAdjust="spacing" textLength="28" x="560.5" y="409.0283">is an</text><text fill="#000000" font-family="sans-serif" font-size="13" lengthAdjust="spacing" textLength="7" x="649.3566" y="320.8188">1</text></g><!--link Apartment to Property--><g id="link_Apartment_Property"><path codeLine="66" d="M1015.19,336.03 C1007.65,362.85 998.52,395.37 990.63,423.44 " fill="none" id="Apartment-to-Property" style="stroke:#181818;stroke-width:1.0;"/><polygon fill="none" points="997.3,425.58,985.16,442.94,983.83,421.79,997.3,425.58" style="stroke:#181818;stroke-width:1.0;"/></g><!--link House to Property--><g id="link_House_Property"><path codeLine="67" d="M1133.25,349.69 C1101.08,377.37 1064.47,408.87 1034.32,434.81 " fill="none" id="House-to-Property" style="stroke:#181818;stroke-width:1.0;"/><polygon fill="none" points="1038.48,440.46,1018.75,448.2,1029.35,429.85,1038.48,440.46" style="stroke:#181818;stroke-width:1.0;"/></g><!--link Land to Property--><g id="link_Land_Property"><path codeLine="68" d="M776.61,299.31 C782.31,317.04 792.85,344.35 808.5,364 C836.21,398.79 875.8,429.09 909.14,451.03 " fill="none" id="Land-to-Property" style="stroke:#181818;stroke-width:1.0;"/><polygon fill="none" points="913.29,445.38,926.4,462.03,905.77,457.19,913.29,445.38" style="stroke:#181818;stroke-width:1.0;"/></g><!--link Store to Agent--><g id="link_Store_Agent"><path codeLine="69" d="M401.91,68.52 C321.73,78.96 164.63,109.81 67.5,197 C48.16,214.36 37.6,243.33 32.5,261.92 " fill="none" id="Store-Agent" style="stroke:#181818;stroke-width:1.0;"/><polygon fill="#000000" points="131.0703,159.9646,140.4468,158.373,137.7205,153.1656,131.0703,159.9646" style="stroke:#000000;stroke-width:1.0;"/><text fill="#000000" font-family="sans-serif" font-size="13" lengthAdjust="spacing" textLength="49" x="144.5" y="163.0283">employs</text><text fill="#000000" font-family="sans-serif" font-size="13" lengthAdjust="spacing" textLength="7" x="386.9655" y="65.1977">1</text><text fill="#000000" font-family="sans-serif" font-size="13" lengthAdjust="spacing" textLength="7" x="25.6531" y="250.7577">1</text></g><!--SRC=[bLB1JkGm3BtxAw8v8d7WEeUH1ccaFR0m4jeFS1jF4z76sTY5GOL_twIb7GfxsEsbZltyR3_RUKkczgbk2LonErB7LW2WRb74t9E-S7hwYG4RIX1OoIJVE8Lrn7WnQ6eEDKKrV3Bgo5Iz-42PfUOkSg2WGC6QGZBp7oa9Xm5YVaHEUjztLQwZUFwmg4FVGdGv_SFpFkSUkjZoAorSluJI004xkc0UbHCDu2rO4jy4LCzXHJSLM1AEYICbVHq04o5OBufvg9AYt2ICJYxWVSIaNPuhbqstP1Dp9yL4TRDznFJaG_COiIO1VCxLi6hfyBltiQHUs7vmB_G_JArVCz4vTqkvsuVJ_XQ5HgSF3Ykl1Nd79mNfm-4SMVhqIQOx37QuZ6MVimH-8XZ0ejAnhrelZcp9MSNDvcPZhg_DefpPvdrdW9WTZFBFYCtLPasTaGuBRBg2Z7dRZLk4URMJQmf_lRYvxeBTZaSOCj- - -TpONm1ZN_z2D2_OJ9qiGyAuh6_UekCtvrg4_9lQsneQ2nO1ylS7]--></g></svg>