<?xml version="1.0" encoding="us-ascii" standalone="no"?><svg xmlns="http://www.w3.org/2000/svg" xmlns:xlink="http://www.w3.org/1999/xlink" contentStyleType="text/css" height="587px" preserveAspectRatio="none" style="width:1021px;height:587px;background:#FFFFFF;" version="1.1" viewBox="0 0 1021 587" width="1021px" zoomAndPan="magnify"><defs/><g><text fill="#000000" font-family="sans-serif" font-size="14" font-weight="bold" lengthAdjust="spacing" textLength="295" x="364.75" y="28.5352">System Sequence Diagram (SSD) - US003</text><rect fill="#FFFFFF" height="368.0371" style="stroke:#181818;stroke-width:1.0;" width="10" x="76.5" y="128.9766"/><rect fill="#FFFFFF" height="29.3105" style="stroke:#181818;stroke-width:1.0;" width="10" x="584.5" y="150.2871"/><rect fill="#FFFFFF" height="29.3105" style="stroke:#181818;stroke-width:1.0;" width="10" x="584.5" y="224.2188"/><rect fill="#FFFFFF" height="29.3105" style="stroke:#181818;stroke-width:1.0;" width="10" x="584.5" y="282.8398"/><rect fill="#FFFFFF" height="29.3105" style="stroke:#181818;stroke-width:1.0;" width="10" x="584.5" y="341.4609"/><line style="stroke:#181818;stroke-width:0.5;stroke-dasharray:5.0,5.0;" x1="81" x2="81" y1="118.9766" y2="506.0137"/><line style="stroke:#181818;stroke-width:0.5;stroke-dasharray:5.0,5.0;" x1="589.5" x2="589.5" y1="118.9766" y2="506.0137"/><line style="stroke:#181818;stroke-width:0.5;stroke-dasharray:5.0,5.0;" x1="984.5" x2="984.5" y1="118.9766" y2="506.0137"/><text fill="#000000" font-family="sans-serif" font-size="14" lengthAdjust="spacing" textLength="147" x="5" y="116.0234">System Administrator</text><ellipse cx="81.5" cy="50.9883" fill="#E3E3E3" rx="8" ry="8" style="stroke:#181818;stroke-width:0.5;"/><path d="M81.5,58.9883 L81.5,85.9883 M68.5,66.9883 L94.5,66.9883 M81.5,85.9883 L68.5,100.9883 M81.5,85.9883 L94.5,100.9883 " fill="none" style="stroke:#181818;stroke-width:0.5;"/><text fill="#000000" font-family="sans-serif" font-size="14" lengthAdjust="spacing" textLength="147" x="5" y="518.5488">System Administrator</text><ellipse cx="81.5" cy="530.002" fill="#E3E3E3" rx="8" ry="8" style="stroke:#181818;stroke-width:0.5;"/><path d="M81.5,538.002 L81.5,565.002 M68.5,546.002 L94.5,546.002 M81.5,565.002 L68.5,580.002 M81.5,565.002 L94.5,580.002 " fill="none" style="stroke:#181818;stroke-width:0.5;"/><rect fill="#E3E3E3" height="30.4883" rx="2.5" ry="2.5" style="stroke:#181818;stroke-width:0.5;" width="66" x="556.5" y="87.4883"/><text fill="#000000" font-family="sans-serif" font-size="14" lengthAdjust="spacing" textLength="52" x="563.5" y="108.0234">:System</text><rect fill="#E3E3E3" height="30.4883" rx="2.5" ry="2.5" style="stroke:#181818;stroke-width:0.5;" width="66" x="556.5" y="505.0137"/><text fill="#000000" font-family="sans-serif" font-size="14" lengthAdjust="spacing" textLength="52" x="563.5" y="525.5488">:System</text><text fill="#000000" font-family="sans-serif" font-size="14" lengthAdjust="spacing" textLength="66" x="948.5" y="116.0234">Employee</text><ellipse cx="984.5" cy="50.9883" fill="#E3E3E3" rx="8" ry="8" style="stroke:#181818;stroke-width:0.5;"/><path d="M984.5,58.9883 L984.5,85.9883 M971.5,66.9883 L997.5,66.9883 M984.5,85.9883 L971.5,100.9883 M984.5,85.9883 L997.5,100.9883 " fill="none" style="stroke:#181818;stroke-width:0.5;"/><text fill="#000000" font-family="sans-serif" font-size="14" lengthAdjust="spacing" textLength="66" x="948.5" y="518.5488">Employee</text><ellipse cx="984.5" cy="530.002" fill="#E3E3E3" rx="8" ry="8" style="stroke:#181818;stroke-width:0.5;"/><path d="M984.5,538.002 L984.5,565.002 M971.5,546.002 L997.5,546.002 M984.5,565.002 L971.5,580.002 M984.5,565.002 L997.5,580.002 " fill="none" style="stroke:#181818;stroke-width:0.5;"/><rect fill="#FFFFFF" height="368.0371" style="stroke:#181818;stroke-width:1.0;" width="10" x="76.5" y="128.9766"/><rect fill="#FFFFFF" height="29.3105" style="stroke:#181818;stroke-width:1.0;" width="10" x="584.5" y="150.2871"/><rect fill="#FFFFFF" height="29.3105" style="stroke:#181818;stroke-width:1.0;" width="10" x="584.5" y="224.2188"/><rect fill="#FFFFFF" height="29.3105" style="stroke:#181818;stroke-width:1.0;" width="10" x="584.5" y="282.8398"/><rect fill="#FFFFFF" height="29.3105" style="stroke:#181818;stroke-width:1.0;" width="10" x="584.5" y="341.4609"/><polygon fill="#181818" points="572.5,146.2871,582.5,150.2871,572.5,154.2871,576.5,150.2871" style="stroke:#181818;stroke-width:1.0;"/><line style="stroke:#181818;stroke-width:1.0;" x1="86.5" x2="578.5" y1="150.2871" y2="150.2871"/><text fill="#000000" font-family="sans-serif" font-size="13" font-weight="bold" lengthAdjust="spacing" textLength="9" x="93.5" y="145.5449">1</text><text fill="#000000" font-family="sans-serif" font-size="13" lengthAdjust="spacing" textLength="386" x="106.5" y="145.5449">request to initiate the process of registering a new employee.</text><polygon fill="#181818" points="97.5,175.5977,87.5,179.5977,97.5,183.5977,93.5,179.5977" style="stroke:#181818;stroke-width:1.0;"/><line style="stroke:#181818;stroke-width:1.0;stroke-dasharray:2.0,2.0;" x1="91.5" x2="588.5" y1="179.5977" y2="179.5977"/><text fill="#000000" font-family="sans-serif" font-size="13" font-weight="bold" lengthAdjust="spacing" textLength="9" x="103.5" y="174.8555">2</text><text fill="#000000" font-family="sans-serif" font-size="13" lengthAdjust="spacing" textLength="287" x="116.5" y="174.8555">solicits information regarding employee data.</text><polygon fill="#181818" points="572.5,220.2188,582.5,224.2188,572.5,228.2188,576.5,224.2188" style="stroke:#181818;stroke-width:1.0;"/><line style="stroke:#181818;stroke-width:1.0;" x1="86.5" x2="578.5" y1="224.2188" y2="224.2188"/><text fill="#000000" font-family="sans-serif" font-size="13" font-weight="bold" lengthAdjust="spacing" textLength="9" x="93.5" y="211.8213">3</text><text fill="#000000" font-family="sans-serif" font-size="13" lengthAdjust="spacing" textLength="466" x="106.5" y="204.166">types the employee information(name, citizen&#180;s card number,tax number,</text><text fill="#000000" font-family="sans-serif" font-size="13" lengthAdjust="spacing" textLength="301" x="110.5" y="219.4766">adress,email adress,contact telephone number )</text><polygon fill="#181818" points="97.5,249.5293,87.5,253.5293,97.5,257.5293,93.5,253.5293" style="stroke:#181818;stroke-width:1.0;"/><line style="stroke:#181818;stroke-width:1.0;stroke-dasharray:2.0,2.0;" x1="91.5" x2="588.5" y1="253.5293" y2="253.5293"/><text fill="#000000" font-family="sans-serif" font-size="13" font-weight="bold" lengthAdjust="spacing" textLength="9" x="103.5" y="248.7871">4</text><text fill="#000000" font-family="sans-serif" font-size="13" lengthAdjust="spacing" textLength="390" x="116.5" y="248.7871">shows the list of the roles that the new employee can perform</text><polygon fill="#181818" points="572.5,278.8398,582.5,282.8398,572.5,286.8398,576.5,282.8398" style="stroke:#181818;stroke-width:1.0;"/><line style="stroke:#181818;stroke-width:1.0;" x1="86.5" x2="578.5" y1="282.8398" y2="282.8398"/><text fill="#000000" font-family="sans-serif" font-size="13" font-weight="bold" lengthAdjust="spacing" textLength="9" x="93.5" y="278.0977">5</text><text fill="#000000" font-family="sans-serif" font-size="13" lengthAdjust="spacing" textLength="114" x="106.5" y="278.0977">selects a user role</text><polygon fill="#181818" points="97.5,308.1504,87.5,312.1504,97.5,316.1504,93.5,312.1504" style="stroke:#181818;stroke-width:1.0;"/><line style="stroke:#181818;stroke-width:1.0;stroke-dasharray:2.0,2.0;" x1="91.5" x2="588.5" y1="312.1504" y2="312.1504"/><text fill="#000000" font-family="sans-serif" font-size="13" font-weight="bold" lengthAdjust="spacing" textLength="9" x="103.5" y="307.4082">6</text><text fill="#000000" font-family="sans-serif" font-size="13" lengthAdjust="spacing" textLength="383" x="116.5" y="307.4082">shows the list of agencies where the new employee can work</text><polygon fill="#181818" points="572.5,337.4609,582.5,341.4609,572.5,345.4609,576.5,341.4609" style="stroke:#181818;stroke-width:1.0;"/><line style="stroke:#181818;stroke-width:1.0;" x1="86.5" x2="578.5" y1="341.4609" y2="341.4609"/><text fill="#000000" font-family="sans-serif" font-size="13" font-weight="bold" lengthAdjust="spacing" textLength="9" x="93.5" y="336.7188">7</text><text fill="#000000" font-family="sans-serif" font-size="13" lengthAdjust="spacing" textLength="111" x="106.5" y="336.7188">selects an agency</text><polygon fill="#181818" points="97.5,366.7715,87.5,370.7715,97.5,374.7715,93.5,370.7715" style="stroke:#181818;stroke-width:1.0;"/><line style="stroke:#181818;stroke-width:1.0;stroke-dasharray:2.0,2.0;" x1="91.5" x2="588.5" y1="370.7715" y2="370.7715"/><text fill="#000000" font-family="sans-serif" font-size="13" font-weight="bold" lengthAdjust="spacing" textLength="9" x="103.5" y="366.0293">8</text><text fill="#000000" font-family="sans-serif" font-size="13" lengthAdjust="spacing" textLength="291" x="116.5" y="366.0293">shows all the information and asks to confirm</text><polygon fill="#181818" points="577.5,396.082,587.5,400.082,577.5,404.082,581.5,400.082" style="stroke:#181818;stroke-width:1.0;"/><line style="stroke:#181818;stroke-width:1.0;" x1="86.5" x2="583.5" y1="400.082" y2="400.082"/><text fill="#000000" font-family="sans-serif" font-size="13" font-weight="bold" lengthAdjust="spacing" textLength="9" x="93.5" y="395.3398">9</text><text fill="#000000" font-family="sans-serif" font-size="13" lengthAdjust="spacing" textLength="151" x="106.5" y="395.3398">confirm the information</text><polygon fill="#181818" points="577.5,425.3926,587.5,429.3926,577.5,433.3926,581.5,429.3926" style="stroke:#181818;stroke-width:1.0;"/><line style="stroke:#181818;stroke-width:1.0;" x1="86.5" x2="583.5" y1="429.3926" y2="429.3926"/><text fill="#000000" font-family="sans-serif" font-size="13" font-weight="bold" lengthAdjust="spacing" textLength="18" x="93.5" y="424.6504">10</text><text fill="#000000" font-family="sans-serif" font-size="13" lengthAdjust="spacing" textLength="82" x="115.5" y="424.6504">submits data</text><polygon fill="#181818" points="97.5,454.7031,87.5,458.7031,97.5,462.7031,93.5,458.7031" style="stroke:#181818;stroke-width:1.0;"/><line style="stroke:#181818;stroke-width:1.0;stroke-dasharray:2.0,2.0;" x1="91.5" x2="588.5" y1="458.7031" y2="458.7031"/><text fill="#000000" font-family="sans-serif" font-size="13" font-weight="bold" lengthAdjust="spacing" textLength="18" x="103.5" y="453.9609">11</text><text fill="#000000" font-family="sans-serif" font-size="13" lengthAdjust="spacing" textLength="163" x="125.5" y="453.9609">displays operation sucess</text><polygon fill="#181818" points="972.5,484.0137,982.5,488.0137,972.5,492.0137,976.5,488.0137" style="stroke:#181818;stroke-width:1.0;"/><line style="stroke:#181818;stroke-width:1.0;" x1="589.5" x2="978.5" y1="488.0137" y2="488.0137"/><text fill="#000000" font-family="sans-serif" font-size="13" font-weight="bold" lengthAdjust="spacing" textLength="18" x="596.5" y="483.2715">12</text><text fill="#000000" font-family="sans-serif" font-size="13" lengthAdjust="spacing" textLength="349" x="618.5" y="483.2715">generate a password and sent to the employee by email</text><!--SRC=[hPDDZjim38NtFWMHrGoG50DqbqM10jCJ6DrrmyXCB4H_5UcwxhbwWfwib6odcJODq46racoIx-EJo6SR4cRqu6E8fi_H4qWUgE7BduJcZ2TgPN84cOnWEBdh0EwnYwCD9pYYOseQiQAXxSH27bhwF50m1CyMJoNyeMsV7s477zkdfxTDWuF4CFW3PTqRYHasI-RxpjjWMJBgrmqWmmUVN9o86XKMQsp28B3Pp_4rOjwkXTRuDRags2yezAjK0xhM4-pUhTnxxLN9MK0YA8VOaYOzGShH43F4euQS591oQHuXq0YqL7fJwrxa5gxwiQn5PATw5-qzS7JQbR3g7MFsA3Q6ee6vAmfhRUXGS1RewAR4pNvaIiIrWqkXAvs7W9wseFBs6uKVtncCoi9yDLl1h-lsKm3iiXgm9O_MhGSJWoWB23bAVGoqnCFZgvpeupYpEZMuM5tsERhQ0KezNlkjj04IvTBFFpl3ocpKTeI1bRZ8_1zedPjWh3AFFMMw3Jt6V7uzSPWrfh_ptcD5vohKzNl3qEcudBcyUxtKe_t3q3jSIyBlHUzrCXnyUVBbJTy3xYmdXvEEdTxoJCf3cSENIJL7mzMK4aPwfmcPrUIkTiOKwaI_68F31FKjD_Fw2G00]--></g></svg>