<?xml version="1.0" encoding="us-ascii" standalone="no"?><svg xmlns="http://www.w3.org/2000/svg" xmlns:xlink="http://www.w3.org/1999/xlink" contentStyleType="text/css" height="1775px" preserveAspectRatio="none" style="width:1142px;height:1775px;background:#FFFFFF;" version="1.1" viewBox="0 0 1142 1775" width="1142px" zoomAndPan="magnify"><defs/><g><!--class AnalyseDealsController--><g id="elem_AnalyseDealsController"><rect codeLine="2" fill="#F1F1F1" height="229.3711" id="AnalyseDealsController" rx="2.5" ry="2.5" style="stroke:#181818;stroke-width:0.5;" width="612" x="111.5" y="7"/><ellipse cx="333.25" cy="23" fill="#ADD1B2" rx="11" ry="11" style="stroke:#181818;stroke-width:1.0;"/><path d="M336.2231,28.6431 Q335.6421,28.9419 335.0029,29.0913 Q334.3638,29.2407 333.6582,29.2407 Q331.1514,29.2407 329.8315,27.5889 Q328.5117,25.937 328.5117,22.8159 Q328.5117,19.6865 329.8315,18.0347 Q331.1514,16.3828 333.6582,16.3828 Q334.3638,16.3828 335.0112,16.5322 Q335.6587,16.6816 336.2231,16.9805 L336.2231,19.7031 Q335.5923,19.1221 334.9988,18.8523 Q334.4053,18.5825 333.7744,18.5825 Q332.4297,18.5825 331.7449,19.6492 Q331.0601,20.7158 331.0601,22.8159 Q331.0601,24.9077 331.7449,25.9744 Q332.4297,27.041 333.7744,27.041 Q334.4053,27.041 334.9988,26.7712 Q335.5923,26.5015 336.2231,25.9204 Z " fill="#000000"/><text fill="#000000" font-family="sans-serif" font-size="14" lengthAdjust="spacing" textLength="160" x="353.75" y="28.291">AnalyseDealsController</text><line style="stroke:#181818;stroke-width:0.5;" x1="112.5" x2="722.5" y1="39" y2="39"/><rect fill="none" height="6" style="stroke:#C82930;stroke-width:1.0;" width="6" x="119.5" y="49.7441"/><text fill="#000000" font-family="sans-serif" font-size="14" lengthAdjust="spacing" textLength="82" x="131.5" y="56.5352">repositories</text><rect fill="none" height="6" style="stroke:#C82930;stroke-width:1.0;" width="6" x="119.5" y="66.2324"/><text fill="#000000" font-family="sans-serif" font-size="14" lengthAdjust="spacing" textLength="176" x="131.5" y="73.0234">purchaseOrderRepository</text><rect fill="none" height="6" style="stroke:#C82930;stroke-width:1.0;" width="6" x="119.5" y="82.7207"/><text fill="#000000" font-family="sans-serif" font-size="14" lengthAdjust="spacing" textLength="176" x="131.5" y="89.5117">announcementRepository</text><rect fill="none" height="6" style="stroke:#C82930;stroke-width:1.0;" width="6" x="119.5" y="99.209"/><text fill="#000000" font-family="sans-serif" font-size="14" lengthAdjust="spacing" textLength="69" x="131.5" y="106">Prediction</text><line style="stroke:#181818;stroke-width:0.5;" x1="112.5" x2="722.5" y1="112.9531" y2="112.9531"/><ellipse cx="122.5" cy="126.6973" fill="#84BE84" rx="3" ry="3" style="stroke:#038048;stroke-width:1.0;"/><text fill="#000000" font-family="sans-serif" font-size="14" lengthAdjust="spacing" textLength="155" x="131.5" y="130.4883">linearRegression(area)</text><ellipse cx="122.5" cy="143.1855" fill="#84BE84" rx="3" ry="3" style="stroke:#038048;stroke-width:1.0;"/><text fill="#000000" font-family="sans-serif" font-size="14" lengthAdjust="spacing" textLength="264" x="131.5" y="146.9766">linearRegressionD(distanceCityCentre)</text><ellipse cx="122.5" cy="159.6738" fill="#84BE84" rx="3" ry="3" style="stroke:#038048;stroke-width:1.0;"/><text fill="#000000" font-family="sans-serif" font-size="14" lengthAdjust="spacing" textLength="272" x="131.5" y="163.4648">linearRegressionB(numberOfBedrooms)</text><ellipse cx="122.5" cy="176.1621" fill="#84BE84" rx="3" ry="3" style="stroke:#038048;stroke-width:1.0;"/><text fill="#000000" font-family="sans-serif" font-size="14" lengthAdjust="spacing" textLength="287" x="131.5" y="179.9531">linearRegressionBA(numberOfBathrooms)</text><ellipse cx="122.5" cy="192.6504" fill="#84BE84" rx="3" ry="3" style="stroke:#038048;stroke-width:1.0;"/><text fill="#000000" font-family="sans-serif" font-size="14" lengthAdjust="spacing" textLength="302" x="131.5" y="196.4414">linearRegressionP(numberOfParkingSpaces)</text><ellipse cx="122.5" cy="209.1387" fill="#84BE84" rx="3" ry="3" style="stroke:#038048;stroke-width:1.0;"/><text fill="#000000" font-family="sans-serif" font-size="14" lengthAdjust="spacing" textLength="586" x="131.5" y="212.9297">multiLinearRegression(area, distanceFromCenter, nBedrooms, nBathrooms, nParking)</text><ellipse cx="122.5" cy="225.627" fill="#84BE84" rx="3" ry="3" style="stroke:#038048;stroke-width:1.0;"/><text fill="#000000" font-family="sans-serif" font-size="14" lengthAdjust="spacing" textLength="101" x="131.5" y="229.418">getPrediction()</text></g><!--class AuthenticationRepository--><g id="elem_AuthenticationRepository"><rect codeLine="19" fill="#F1F1F1" height="196.3945" id="AuthenticationRepository" rx="2.5" ry="2.5" style="stroke:#181818;stroke-width:0.5;" width="321" x="814" y="752"/><ellipse cx="883.25" cy="768" fill="#ADD1B2" rx="11" ry="11" style="stroke:#181818;stroke-width:1.0;"/><path d="M886.2231,773.6431 Q885.6421,773.9419 885.0029,774.0913 Q884.3638,774.2407 883.6582,774.2407 Q881.1514,774.2407 879.8315,772.5889 Q878.5117,770.937 878.5117,767.8159 Q878.5117,764.6865 879.8315,763.0347 Q881.1514,761.3828 883.6582,761.3828 Q884.3638,761.3828 885.0112,761.5322 Q885.6587,761.6816 886.2231,761.9805 L886.2231,764.7031 Q885.5923,764.1221 884.9988,763.8523 Q884.4053,763.5825 883.7744,763.5825 Q882.4297,763.5825 881.7449,764.6492 Q881.0601,765.7158 881.0601,767.8159 Q881.0601,769.9077 881.7449,770.9744 Q882.4297,772.041 883.7744,772.041 Q884.4053,772.041 884.9988,771.7712 Q885.5923,771.5015 886.2231,770.9204 Z " fill="#000000"/><text fill="#000000" font-family="sans-serif" font-size="14" lengthAdjust="spacing" textLength="174" x="903.75" y="773.291">AuthenticationRepository</text><line style="stroke:#181818;stroke-width:0.5;" x1="815" x2="1134" y1="784" y2="784"/><rect fill="none" height="6" style="stroke:#C82930;stroke-width:1.0;" width="6" x="822" y="794.7441"/><text fill="#000000" font-family="sans-serif" font-size="14" lengthAdjust="spacing" textLength="147" x="834" y="801.5352">authenticationFacade</text><rect fill="none" height="6" style="stroke:#C82930;stroke-width:1.0;" width="6" x="822" y="811.2324"/><text fill="#000000" font-family="sans-serif" font-size="14" lengthAdjust="spacing" textLength="182" x="834" y="818.0234">serializableUserRepository</text><line style="stroke:#181818;stroke-width:0.5;" x1="815" x2="1134" y1="824.9766" y2="824.9766"/><ellipse cx="825" cy="838.7207" fill="#84BE84" rx="3" ry="3" style="stroke:#038048;stroke-width:1.0;"/><text fill="#000000" font-family="sans-serif" font-size="14" lengthAdjust="spacing" textLength="140" x="834" y="842.5117">doLogin(email, pwd)</text><ellipse cx="825" cy="855.209" fill="#84BE84" rx="3" ry="3" style="stroke:#038048;stroke-width:1.0;"/><text fill="#000000" font-family="sans-serif" font-size="14" lengthAdjust="spacing" textLength="76" x="834" y="859">doLogout()</text><ellipse cx="825" cy="871.6973" fill="#84BE84" rx="3" ry="3" style="stroke:#038048;stroke-width:1.0;"/><text fill="#000000" font-family="sans-serif" font-size="14" lengthAdjust="spacing" textLength="168" x="834" y="875.4883">getCurrentUserSession()</text><ellipse cx="825" cy="888.1855" fill="#84BE84" rx="3" ry="3" style="stroke:#038048;stroke-width:1.0;"/><text fill="#000000" font-family="sans-serif" font-size="14" lengthAdjust="spacing" textLength="195" x="834" y="891.9766">addUserRole(id, description)</text><ellipse cx="825" cy="904.6738" fill="#84BE84" rx="3" ry="3" style="stroke:#038048;stroke-width:1.0;"/><text fill="#000000" font-family="sans-serif" font-size="14" lengthAdjust="spacing" textLength="295" x="834" y="908.4648">addUserWithRole(name, email, pwd, roleId)</text><ellipse cx="825" cy="921.1621" fill="#84BE84" rx="3" ry="3" style="stroke:#038048;stroke-width:1.0;"/><text fill="#000000" font-family="sans-serif" font-size="14" lengthAdjust="spacing" textLength="280" x="834" y="924.9531">ensureAuthenticatedUserHasRoles(roles)</text><ellipse cx="825" cy="937.6504" fill="#84BE84" rx="3" ry="3" style="stroke:#038048;stroke-width:1.0;"/><text fill="#000000" font-family="sans-serif" font-size="14" lengthAdjust="spacing" textLength="40" x="834" y="941.4414">sync()</text></g><!--class Announcement--><g id="elem_Announcement"><rect codeLine="32" fill="#F1F1F1" height="196.3945" id="Announcement" rx="2.5" ry="2.5" style="stroke:#181818;stroke-width:0.5;" width="891" x="7" y="1414"/><ellipse cx="395.75" cy="1430" fill="#ADD1B2" rx="11" ry="11" style="stroke:#181818;stroke-width:1.0;"/><path d="M398.7231,1435.6431 Q398.1421,1435.9419 397.5029,1436.0913 Q396.8638,1436.2407 396.1582,1436.2407 Q393.6514,1436.2407 392.3315,1434.5889 Q391.0117,1432.937 391.0117,1429.8159 Q391.0117,1426.6865 392.3315,1425.0347 Q393.6514,1423.3828 396.1582,1423.3828 Q396.8638,1423.3828 397.5112,1423.5322 Q398.1587,1423.6816 398.7231,1423.9805 L398.7231,1426.7031 Q398.0923,1426.1221 397.4988,1425.8523 Q396.9053,1425.5825 396.2744,1425.5825 Q394.9297,1425.5825 394.2449,1426.6492 Q393.5601,1427.7158 393.5601,1429.8159 Q393.5601,1431.9077 394.2449,1432.9744 Q394.9297,1434.041 396.2744,1434.041 Q396.9053,1434.041 397.4988,1433.7712 Q398.0923,1433.5015 398.7231,1432.9204 Z " fill="#000000"/><text fill="#000000" font-family="sans-serif" font-size="14" lengthAdjust="spacing" textLength="105" x="416.25" y="1435.291">Announcement</text><line style="stroke:#181818;stroke-width:0.5;" x1="8" x2="897" y1="1446" y2="1446"/><rect fill="none" height="6" style="stroke:#C82930;stroke-width:1.0;" width="6" x="15" y="1456.7441"/><text fill="#000000" font-family="sans-serif" font-size="14" lengthAdjust="spacing" textLength="167" x="27" y="1463.5352">LocalDate datePublished</text><rect fill="none" height="6" style="stroke:#C82930;stroke-width:1.0;" width="6" x="15" y="1473.2324"/><text fill="#000000" font-family="sans-serif" font-size="14" lengthAdjust="spacing" textLength="310" x="27" y="1480.0234">AdvertisementRequest advertisementRequest</text><rect fill="none" height="6" style="stroke:#C82930;stroke-width:1.0;" width="6" x="15" y="1489.7207"/><text fill="#000000" font-family="sans-serif" font-size="14" lengthAdjust="spacing" textLength="171" x="27" y="1496.5117">Commission commission</text><rect fill="none" height="6" style="stroke:#C82930;stroke-width:1.0;" width="6" x="15" y="1506.209"/><text fill="#000000" font-family="sans-serif" font-size="14" lengthAdjust="spacing" textLength="186" x="27" y="1513">AdvertisementStatus status</text><line style="stroke:#181818;stroke-width:0.5;" x1="8" x2="897" y1="1519.9531" y2="1519.9531"/><ellipse cx="18" cy="1533.6973" fill="#84BE84" rx="3" ry="3" style="stroke:#038048;stroke-width:1.0;"/><text fill="#000000" font-family="sans-serif" font-size="14" lengthAdjust="spacing" textLength="865" x="27" y="1537.4883">Advertisement(AdvertisementRequest advertisementRequest, Agent agent, LocalDate datePublished, Commission commission)</text><ellipse cx="18" cy="1550.1855" fill="#84BE84" rx="3" ry="3" style="stroke:#038048;stroke-width:1.0;"/><text fill="#000000" font-family="sans-serif" font-size="14" lengthAdjust="spacing" textLength="112" x="27" y="1553.9766">equals(Object o)</text><ellipse cx="18" cy="1566.6738" fill="#84BE84" rx="3" ry="3" style="stroke:#038048;stroke-width:1.0;"/><text fill="#000000" font-family="sans-serif" font-size="14" lengthAdjust="spacing" textLength="79" x="27" y="1570.4648">hashCode()</text><ellipse cx="18" cy="1583.1621" fill="#84BE84" rx="3" ry="3" style="stroke:#038048;stroke-width:1.0;"/><text fill="#000000" font-family="sans-serif" font-size="14" lengthAdjust="spacing" textLength="65" x="27" y="1586.9531">toString()</text><ellipse cx="18" cy="1599.6504" fill="#84BE84" rx="3" ry="3" style="stroke:#038048;stroke-width:1.0;"/><text fill="#000000" font-family="sans-serif" font-size="14" lengthAdjust="spacing" textLength="91" x="27" y="1603.4414">sellProperty()</text></g><!--class Status--><g id="elem_Status"><rect codeLine="45" fill="#F1F1F1" height="97.4648" id="Status" rx="2.5" ry="2.5" style="stroke:#181818;stroke-width:0.5;" width="74" x="415.5" y="1671"/><ellipse cx="430.5" cy="1687" fill="#EB937F" rx="11" ry="11" style="stroke:#181818;stroke-width:1.0;"/><path d="M434.6143,1693 L426.8945,1693 L426.8945,1680.6069 L434.6143,1680.6069 L434.6143,1682.7651 L429.3433,1682.7651 L429.3433,1685.438 L434.1162,1685.438 L434.1162,1687.5962 L429.3433,1687.5962 L429.3433,1690.8418 L434.6143,1690.8418 Z " fill="#000000"/><text fill="#000000" font-family="sans-serif" font-size="14" lengthAdjust="spacing" textLength="42" x="444.5" y="1692.291">Status</text><line style="stroke:#181818;stroke-width:0.5;" x1="416.5" x2="488.5" y1="1703" y2="1703"/><text fill="#000000" font-family="sans-serif" font-size="14" lengthAdjust="spacing" textLength="55" x="421.5" y="1720.5352">ACCEPT</text><text fill="#000000" font-family="sans-serif" font-size="14" lengthAdjust="spacing" textLength="57" x="421.5" y="1737.0234">DECLINE</text><text fill="#000000" font-family="sans-serif" font-size="14" lengthAdjust="spacing" textLength="60" x="421.5" y="1753.5117">PENDING</text><line style="stroke:#181818;stroke-width:0.5;" x1="416.5" x2="488.5" y1="1760.4648" y2="1760.4648"/></g><!--class AuthFacade--><g id="elem_AuthFacade"><rect codeLine="51" fill="#F1F1F1" height="80.9766" id="AuthFacade" rx="2.5" ry="2.5" style="stroke:#181818;stroke-width:0.5;" width="195" x="877" y="1140.5"/><ellipse cx="929.75" cy="1156.5" fill="#ADD1B2" rx="11" ry="11" style="stroke:#181818;stroke-width:1.0;"/><path d="M932.7231,1162.1431 Q932.1421,1162.4419 931.5029,1162.5913 Q930.8638,1162.7407 930.1582,1162.7407 Q927.6514,1162.7407 926.3315,1161.0889 Q925.0117,1159.437 925.0117,1156.3159 Q925.0117,1153.1865 926.3315,1151.5347 Q927.6514,1149.8828 930.1582,1149.8828 Q930.8638,1149.8828 931.5112,1150.0322 Q932.1587,1150.1816 932.7231,1150.4805 L932.7231,1153.2031 Q932.0923,1152.6221 931.4988,1152.3523 Q930.9053,1152.0825 930.2744,1152.0825 Q928.9297,1152.0825 928.2449,1153.1492 Q927.5601,1154.2158 927.5601,1156.3159 Q927.5601,1158.4077 928.2449,1159.4744 Q928.9297,1160.541 930.2744,1160.541 Q930.9053,1160.541 931.4988,1160.2712 Q932.0923,1160.0015 932.7231,1159.4204 Z " fill="#000000"/><text fill="#000000" font-family="sans-serif" font-size="14" lengthAdjust="spacing" textLength="81" x="950.25" y="1161.791">AuthFacade</text><line style="stroke:#181818;stroke-width:0.5;" x1="878" x2="1071" y1="1172.5" y2="1172.5"/><rect fill="none" height="6" style="stroke:#C82930;stroke-width:1.0;" width="6" x="885" y="1183.2441"/><text fill="#000000" font-family="sans-serif" font-size="14" lengthAdjust="spacing" textLength="169" x="897" y="1190.0352">UserSession userSession</text><line style="stroke:#181818;stroke-width:0.5;" x1="878" x2="1071" y1="1196.9883" y2="1196.9883"/><ellipse cx="888" cy="1210.7324" fill="#84BE84" rx="3" ry="3" style="stroke:#038048;stroke-width:1.0;"/><text fill="#000000" font-family="sans-serif" font-size="14" lengthAdjust="spacing" textLength="168" x="897" y="1214.5234">getCurrentUserSession()</text></g><!--class PurchaseOrder--><g id="elem_PurchaseOrder"><rect codeLine="56" fill="#F1F1F1" height="311.8125" id="PurchaseOrder" rx="2.5" ry="2.5" style="stroke:#181818;stroke-width:0.5;" width="394" x="255.5" y="1025"/><ellipse cx="397.25" cy="1041" fill="#ADD1B2" rx="11" ry="11" style="stroke:#181818;stroke-width:1.0;"/><path d="M400.2231,1046.6431 Q399.6421,1046.9419 399.0029,1047.0913 Q398.3638,1047.2407 397.6582,1047.2407 Q395.1514,1047.2407 393.8315,1045.5889 Q392.5117,1043.937 392.5117,1040.8159 Q392.5117,1037.6865 393.8315,1036.0347 Q395.1514,1034.3828 397.6582,1034.3828 Q398.3638,1034.3828 399.0112,1034.5322 Q399.6587,1034.6816 400.2231,1034.9805 L400.2231,1037.7031 Q399.5923,1037.1221 398.9988,1036.8523 Q398.4053,1036.5825 397.7744,1036.5825 Q396.4297,1036.5825 395.7449,1037.6492 Q395.0601,1038.7158 395.0601,1040.8159 Q395.0601,1042.9077 395.7449,1043.9744 Q396.4297,1045.041 397.7744,1045.041 Q398.4053,1045.041 398.9988,1044.7712 Q399.5923,1044.5015 400.2231,1043.9204 Z " fill="#000000"/><text fill="#000000" font-family="sans-serif" font-size="14" lengthAdjust="spacing" textLength="102" x="417.75" y="1046.291">PurchaseOrder</text><line style="stroke:#181818;stroke-width:0.5;" x1="256.5" x2="648.5" y1="1057" y2="1057"/><rect fill="none" height="6" style="stroke:#C82930;stroke-width:1.0;" width="6" x="263.5" y="1067.7441"/><text fill="#000000" font-family="sans-serif" font-size="14" lengthAdjust="spacing" textLength="41" x="275.5" y="1074.5352">status</text><rect fill="none" height="6" style="stroke:#C82930;stroke-width:1.0;" width="6" x="263.5" y="1084.2324"/><text fill="#000000" font-family="sans-serif" font-size="14" lengthAdjust="spacing" textLength="14" x="275.5" y="1091.0234">ID</text><rect fill="none" height="6" style="stroke:#C82930;stroke-width:1.0;" width="6" x="263.5" y="1100.7207"/><text fill="#000000" font-family="sans-serif" font-size="14" lengthAdjust="spacing" textLength="81" x="275.5" y="1107.5117">client_email</text><rect fill="none" height="6" style="stroke:#C82930;stroke-width:1.0;" width="6" x="263.5" y="1117.209"/><text fill="#000000" font-family="sans-serif" font-size="14" lengthAdjust="spacing" textLength="103" x="275.5" y="1124">announcement</text><rect fill="none" height="6" style="stroke:#C82930;stroke-width:1.0;" width="6" x="263.5" y="1133.6973"/><text fill="#000000" font-family="sans-serif" font-size="14" lengthAdjust="spacing" textLength="100" x="275.5" y="1140.4883">amountOfered</text><rect fill="none" height="6" style="stroke:#C82930;stroke-width:1.0;" width="6" x="263.5" y="1150.1855"/><text fill="#000000" font-family="sans-serif" font-size="14" lengthAdjust="spacing" textLength="153" x="275.5" y="1156.9766">STATUS_BY_OMISSION</text><rect fill="none" height="6" style="stroke:#C82930;stroke-width:1.0;" width="6" x="263.5" y="1166.6738"/><text fill="#000000" font-family="sans-serif" font-size="14" lengthAdjust="spacing" textLength="179" x="275.5" y="1173.4648">numberOfPurchaseOrders</text><line style="stroke:#181818;stroke-width:0.5;" x1="256.5" x2="648.5" y1="1180.418" y2="1180.418"/><ellipse cx="266.5" cy="1194.1621" fill="#84BE84" rx="3" ry="3" style="stroke:#038048;stroke-width:1.0;"/><text fill="#000000" font-family="sans-serif" font-size="14" lengthAdjust="spacing" textLength="368" x="275.5" y="1197.9531">PurchaseOrder(email, amountOfered, announcement)</text><ellipse cx="266.5" cy="1210.6504" fill="#84BE84" rx="3" ry="3" style="stroke:#038048;stroke-width:1.0;"/><text fill="#000000" font-family="sans-serif" font-size="14" lengthAdjust="spacing" textLength="72" x="275.5" y="1214.4414">getClient()</text><ellipse cx="266.5" cy="1227.1387" fill="#84BE84" rx="3" ry="3" style="stroke:#038048;stroke-width:1.0;"/><text fill="#000000" font-family="sans-serif" font-size="14" lengthAdjust="spacing" textLength="134" x="275.5" y="1230.9297">getAmountOfered()</text><ellipse cx="266.5" cy="1243.627" fill="#84BE84" rx="3" ry="3" style="stroke:#038048;stroke-width:1.0;"/><text fill="#000000" font-family="sans-serif" font-size="14" lengthAdjust="spacing" textLength="85" x="275.5" y="1247.418">getIdOrder()</text><ellipse cx="266.5" cy="1260.1152" fill="#84BE84" rx="3" ry="3" style="stroke:#038048;stroke-width:1.0;"/><text fill="#000000" font-family="sans-serif" font-size="14" lengthAdjust="spacing" textLength="74" x="275.5" y="1263.9063">getStatus()</text><ellipse cx="266.5" cy="1276.6035" fill="#84BE84" rx="3" ry="3" style="stroke:#038048;stroke-width:1.0;"/><text fill="#000000" font-family="sans-serif" font-size="14" lengthAdjust="spacing" textLength="163" x="275.5" y="1280.3945">setStatus(status: Status)</text><ellipse cx="266.5" cy="1293.0918" fill="#84BE84" rx="3" ry="3" style="stroke:#038048;stroke-width:1.0;"/><text fill="#000000" font-family="sans-serif" font-size="14" lengthAdjust="spacing" textLength="137" x="275.5" y="1296.8828">getAnnouncement()</text><ellipse cx="266.5" cy="1309.5801" fill="#84BE84" rx="3" ry="3" style="stroke:#038048;stroke-width:1.0;"/><text fill="#000000" font-family="sans-serif" font-size="14" lengthAdjust="spacing" textLength="149" x="275.5" y="1313.3711">compareTo(o: Object)</text><ellipse cx="266.5" cy="1326.0684" fill="#84BE84" rx="3" ry="3" style="stroke:#038048;stroke-width:1.0;"/><text fill="#000000" font-family="sans-serif" font-size="14" lengthAdjust="spacing" textLength="65" x="275.5" y="1329.8594">toString()</text></g><!--class PurchaseOrderRepository--><g id="elem_PurchaseOrderRepository"><rect codeLine="78" fill="#F1F1F1" height="163.418" id="PurchaseOrderRepository" rx="2.5" ry="2.5" style="stroke:#181818;stroke-width:0.5;" width="328" x="450.5" y="768.5"/><ellipse cx="522.75" cy="784.5" fill="#ADD1B2" rx="11" ry="11" style="stroke:#181818;stroke-width:1.0;"/><path d="M525.7231,790.1431 Q525.1421,790.4419 524.5029,790.5913 Q523.8638,790.7407 523.1582,790.7407 Q520.6514,790.7407 519.3315,789.0889 Q518.0117,787.437 518.0117,784.3159 Q518.0117,781.1865 519.3315,779.5347 Q520.6514,777.8828 523.1582,777.8828 Q523.8638,777.8828 524.5112,778.0322 Q525.1587,778.1816 525.7231,778.4805 L525.7231,781.2031 Q525.0923,780.6221 524.4988,780.3523 Q523.9053,780.0825 523.2744,780.0825 Q521.9297,780.0825 521.2449,781.1492 Q520.5601,782.2158 520.5601,784.3159 Q520.5601,786.4077 521.2449,787.4744 Q521.9297,788.541 523.2744,788.541 Q523.9053,788.541 524.4988,788.2712 Q525.0923,788.0015 525.7231,787.4204 Z " fill="#000000"/><text fill="#000000" font-family="sans-serif" font-size="14" lengthAdjust="spacing" textLength="175" x="543.25" y="789.791">PurchaseOrderRepository</text><line style="stroke:#181818;stroke-width:0.5;" x1="451.5" x2="777.5" y1="800.5" y2="800.5"/><rect fill="none" height="6" style="stroke:#C82930;stroke-width:1.0;" width="6" x="458.5" y="811.2441"/><text fill="#000000" font-family="sans-serif" font-size="14" lengthAdjust="spacing" textLength="265" x="470.5" y="818.0352">purchaseOrders: List&lt;PurchaseOrder&gt;</text><line style="stroke:#181818;stroke-width:0.5;" x1="451.5" x2="777.5" y1="824.9883" y2="824.9883"/><ellipse cx="461.5" cy="838.7324" fill="#84BE84" rx="3" ry="3" style="stroke:#038048;stroke-width:1.0;"/><text fill="#000000" font-family="sans-serif" font-size="14" lengthAdjust="spacing" textLength="225" x="470.5" y="842.5234">add(email, offer, announcement)</text><ellipse cx="461.5" cy="855.2207" fill="#84BE84" rx="3" ry="3" style="stroke:#038048;stroke-width:1.0;"/><text fill="#000000" font-family="sans-serif" font-size="14" lengthAdjust="spacing" textLength="242" x="470.5" y="859.0117">validateOffer(announcement, offer)</text><ellipse cx="461.5" cy="871.709" fill="#84BE84" rx="3" ry="3" style="stroke:#038048;stroke-width:1.0;"/><text fill="#000000" font-family="sans-serif" font-size="14" lengthAdjust="spacing" textLength="268" x="470.5" y="875.5">offerInsideLimits(announcement, offer)</text><ellipse cx="461.5" cy="888.1973" fill="#84BE84" rx="3" ry="3" style="stroke:#038048;stroke-width:1.0;"/><text fill="#000000" font-family="sans-serif" font-size="14" lengthAdjust="spacing" textLength="268" x="470.5" y="891.9883">checkIfOrderIsPending(announcement)</text><ellipse cx="461.5" cy="904.6855" fill="#84BE84" rx="3" ry="3" style="stroke:#038048;stroke-width:1.0;"/><text fill="#000000" font-family="sans-serif" font-size="14" lengthAdjust="spacing" textLength="141" x="470.5" y="908.4766">getPurchaseOrders()</text><ellipse cx="461.5" cy="921.1738" fill="#84BE84" rx="3" ry="3" style="stroke:#038048;stroke-width:1.0;"/><text fill="#000000" font-family="sans-serif" font-size="14" lengthAdjust="spacing" textLength="302" x="470.5" y="924.9648">getOrdersByAnnouncement(announcement)</text></g><!--class Repositories--><g id="elem_Repositories"><rect codeLine="90" fill="#F1F1F1" height="377.7656" id="Repositories" rx="2.5" ry="2.5" style="stroke:#181818;stroke-width:0.5;" width="402" x="450.5" y="297"/><ellipse cx="604.75" cy="313" fill="#ADD1B2" rx="11" ry="11" style="stroke:#181818;stroke-width:1.0;"/><path d="M607.7231,318.6431 Q607.1421,318.9419 606.5029,319.0913 Q605.8638,319.2407 605.1582,319.2407 Q602.6514,319.2407 601.3315,317.5889 Q600.0117,315.937 600.0117,312.8159 Q600.0117,309.6865 601.3315,308.0347 Q602.6514,306.3828 605.1582,306.3828 Q605.8638,306.3828 606.5112,306.5322 Q607.1587,306.6816 607.7231,306.9805 L607.7231,309.7031 Q607.0923,309.1221 606.4988,308.8523 Q605.9053,308.5825 605.2744,308.5825 Q603.9297,308.5825 603.2449,309.6492 Q602.5601,310.7158 602.5601,312.8159 Q602.5601,314.9077 603.2449,315.9744 Q603.9297,317.041 605.2744,317.041 Q605.9053,317.041 606.4988,316.7712 Q607.0923,316.5015 607.7231,315.9204 Z " fill="#000000"/><text fill="#000000" font-family="sans-serif" font-size="14" lengthAdjust="spacing" textLength="85" x="625.25" y="318.291">Repositories</text><line style="stroke:#181818;stroke-width:0.5;" x1="451.5" x2="851.5" y1="329" y2="329"/><rect fill="none" height="6" style="stroke:#C82930;stroke-width:1.0;" width="6" x="458.5" y="339.7441"/><text fill="#000000" font-family="sans-serif" font-size="14" lengthAdjust="spacing" textLength="150" x="470.5" y="346.5352">instance: Repositories</text><rect fill="none" height="6" style="stroke:#C82930;stroke-width:1.0;" width="6" x="458.5" y="356.2324"/><text fill="#000000" font-family="sans-serif" font-size="14" lengthAdjust="spacing" textLength="149" x="470.5" y="363.0234">properties: Properties</text><line style="stroke:#181818;stroke-width:0.5;" x1="451.5" x2="851.5" y1="369.9766" y2="369.9766"/><ellipse cx="461.5" cy="383.7207" fill="#84BE84" rx="3" ry="3" style="stroke:#038048;stroke-width:1.0;"/><text fill="#000000" font-family="sans-serif" font-size="14" lengthAdjust="spacing" textLength="95" x="470.5" y="387.5117">Repositories()</text><ellipse cx="461.5" cy="400.209" fill="#84BE84" rx="3" ry="3" style="stroke:#038048;stroke-width:1.0;"/><text fill="#000000" font-family="sans-serif" font-size="14" lengthAdjust="spacing" textLength="89" x="470.5" y="404">getInstance()</text><ellipse cx="461.5" cy="416.6973" fill="#84BE84" rx="3" ry="3" style="stroke:#038048;stroke-width:1.0;"/><text fill="#000000" font-family="sans-serif" font-size="14" lengthAdjust="spacing" textLength="195" x="470.5" y="420.4883">getOrganizationRepository()</text><ellipse cx="461.5" cy="433.1855" fill="#84BE84" rx="3" ry="3" style="stroke:#038048;stroke-width:1.0;"/><text fill="#000000" font-family="sans-serif" font-size="14" lengthAdjust="spacing" textLength="199" x="470.5" y="436.9766">getTaskCategoryRepository()</text><ellipse cx="461.5" cy="449.6738" fill="#84BE84" rx="3" ry="3" style="stroke:#038048;stroke-width:1.0;"/><text fill="#000000" font-family="sans-serif" font-size="14" lengthAdjust="spacing" textLength="206" x="470.5" y="453.4648">getAuthenticationRepository()</text><ellipse cx="461.5" cy="466.1621" fill="#84BE84" rx="3" ry="3" style="stroke:#038048;stroke-width:1.0;"/><text fill="#000000" font-family="sans-serif" font-size="14" lengthAdjust="spacing" textLength="210" x="470.5" y="469.9531">getAnnouncementRepository()</text><ellipse cx="461.5" cy="482.6504" fill="#84BE84" rx="3" ry="3" style="stroke:#038048;stroke-width:1.0;"/><text fill="#000000" font-family="sans-serif" font-size="14" lengthAdjust="spacing" textLength="189" x="470.5" y="486.4414">getVisitRequestRepository()</text><ellipse cx="461.5" cy="499.1387" fill="#84BE84" rx="3" ry="3" style="stroke:#038048;stroke-width:1.0;"/><text fill="#000000" font-family="sans-serif" font-size="14" lengthAdjust="spacing" textLength="152" x="470.5" y="502.9297">getBranchRepository()</text><ellipse cx="461.5" cy="515.627" fill="#84BE84" rx="3" ry="3" style="stroke:#038048;stroke-width:1.0;"/><text fill="#000000" font-family="sans-serif" font-size="14" lengthAdjust="spacing" textLength="160" x="470.5" y="519.418">getRequestRepository()</text><ellipse cx="461.5" cy="532.1152" fill="#84BE84" rx="3" ry="3" style="stroke:#038048;stroke-width:1.0;"/><text fill="#000000" font-family="sans-serif" font-size="14" lengthAdjust="spacing" textLength="145" x="470.5" y="535.9063">getOrderRepository()</text><ellipse cx="461.5" cy="548.6035" fill="#84BE84" rx="3" ry="3" style="stroke:#038048;stroke-width:1.0;"/><text fill="#000000" font-family="sans-serif" font-size="14" lengthAdjust="spacing" textLength="376" x="470.5" y="552.3945">setAuthenticationRepository(authenticationRepository)</text><ellipse cx="461.5" cy="565.0918" fill="#84BE84" rx="3" ry="3" style="stroke:#038048;stroke-width:1.0;"/><text fill="#000000" font-family="sans-serif" font-size="14" lengthAdjust="spacing" textLength="271" x="470.5" y="568.8828">setBranchRepository(branchRepository)</text><ellipse cx="461.5" cy="581.5801" fill="#84BE84" rx="3" ry="3" style="stroke:#038048;stroke-width:1.0;"/><text fill="#000000" font-family="sans-serif" font-size="14" lengthAdjust="spacing" textLength="283" x="470.5" y="585.3711">setRequestRepository(requestRepository)</text><ellipse cx="461.5" cy="598.0684" fill="#84BE84" rx="3" ry="3" style="stroke:#038048;stroke-width:1.0;"/><text fill="#000000" font-family="sans-serif" font-size="14" lengthAdjust="spacing" textLength="144" x="470.5" y="601.8594">setInstance(instance)</text><ellipse cx="461.5" cy="614.5566" fill="#84BE84" rx="3" ry="3" style="stroke:#038048;stroke-width:1.0;"/><text fill="#000000" font-family="sans-serif" font-size="14" lengthAdjust="spacing" textLength="207" x="470.5" y="618.3477">getPurchaseOrderRepository()</text><ellipse cx="461.5" cy="631.0449" fill="#84BE84" rx="3" ry="3" style="stroke:#038048;stroke-width:1.0;"/><text fill="#000000" font-family="sans-serif" font-size="14" lengthAdjust="spacing" textLength="152" x="470.5" y="634.8359">getPersonRepository()</text><ellipse cx="461.5" cy="647.5332" fill="#84BE84" rx="3" ry="3" style="stroke:#038048;stroke-width:1.0;"/><text fill="#000000" font-family="sans-serif" font-size="14" lengthAdjust="spacing" textLength="102" x="470.5" y="651.3242">getProperties()</text><ellipse cx="461.5" cy="664.0215" fill="#84BE84" rx="3" ry="3" style="stroke:#038048;stroke-width:1.0;"/><text fill="#000000" font-family="sans-serif" font-size="14" lengthAdjust="spacing" textLength="128" x="470.5" y="667.8125">sortingAlgorithm()</text></g><!--link AnalyseDealsController to Repositories--><g id="link_AnalyseDealsController_Repositories"><path codeLine="114" d="M490.9,236.2 C502.29,253.85 514.33,272.5 526.48,291.33 " fill="none" id="AnalyseDealsController-to-Repositories" style="stroke:#181818;stroke-width:1.0;"/><polygon fill="#181818" points="529.09,295.37,527.5645,285.64,526.3761,291.1706,520.8455,289.9822,529.09,295.37" style="stroke:#181818;stroke-width:1.0;"/></g><!--link AnalyseDealsController to PurchaseOrder--><g id="link_AnalyseDealsController_PurchaseOrder"><path codeLine="115" d="M417.13,236.42 C417.17,395.74 419.26,694.1 432.5,948 C433.69,970.79 435.32,994.81 437.15,1018.42 " fill="none" id="AnalyseDealsController-to-PurchaseOrder" style="stroke:#181818;stroke-width:1.0;"/><polygon fill="#181818" points="437.53,1023.22,440.7974,1013.9289,437.1301,1018.236,432.8231,1014.5687,437.53,1023.22" style="stroke:#181818;stroke-width:1.0;"/></g><!--link Repositories to Repositories--><g id="link_Repositories_Repositories"><path codeLine="117" d="M852.92,451.9 C874,458.56 887.5,469.92 887.5,486 C887.5,500.57 876.41,511.27 858.64,518.1 " fill="none" id="Repositories-to-Repositories" style="stroke:#181818;stroke-width:1.0;"/><polygon fill="#181818" points="854.35,519.6,864.1643,520.4248,859.0731,517.9591,861.5388,512.8679,854.35,519.6" style="stroke:#181818;stroke-width:1.0;"/><text fill="#000000" font-family="sans-serif" font-size="13" lengthAdjust="spacing" textLength="53" x="893.5" y="491.0684">instance</text></g><!--link Repositories to AuthenticationRepository--><g id="link_Repositories_AuthenticationRepository"><path codeLine="119" d="M819.62,675.42 C841.66,700.12 863.54,724.64 883.6,747.12 " fill="none" id="Repositories-to-AuthenticationRepository" style="stroke:#181818;stroke-width:1.0;"/><polygon fill="#181818" points="886.84,750.76,883.8104,741.3887,883.5023,747.0372,877.8538,746.7291,886.84,750.76" style="stroke:#181818;stroke-width:1.0;"/><text fill="#000000" font-family="sans-serif" font-size="13" lengthAdjust="spacing" textLength="22" x="861.5" y="718.5684">has</text><text fill="#000000" font-family="sans-serif" font-size="13" lengthAdjust="spacing" textLength="8" x="817.5181" y="695.075">1</text><text fill="#000000" font-family="sans-serif" font-size="13" lengthAdjust="spacing" textLength="8" x="872.9096" y="741.3694">1</text></g><!--link Repositories to PurchaseOrderRepository--><g id="link_Repositories_PurchaseOrderRepository"><path codeLine="120" d="M632.24,675.42 C629.15,705.64 626.09,735.58 623.41,761.87 " fill="none" id="Repositories-to-PurchaseOrderRepository" style="stroke:#181818;stroke-width:1.0;"/><polygon fill="#181818" points="622.92,766.62,627.8006,758.0655,623.4203,761.6451,619.8407,757.2649,622.92,766.62" style="stroke:#181818;stroke-width:1.0;"/><text fill="#000000" font-family="sans-serif" font-size="13" lengthAdjust="spacing" textLength="22" x="629.5" y="718.5684">has</text><text fill="#000000" font-family="sans-serif" font-size="13" lengthAdjust="spacing" textLength="8" x="623.4041" y="695.075">1</text><text fill="#000000" font-family="sans-serif" font-size="13" lengthAdjust="spacing" textLength="8" x="615.1503" y="757.7232">1</text></g><!--link PurchaseOrderRepository to PurchaseOrder--><g id="link_PurchaseOrderRepository_PurchaseOrder"><path codeLine="122" d="M574.66,931.9 C561.61,958.41 546.61,988.87 531.7,1019.15 " fill="none" id="PurchaseOrderRepository-to-PurchaseOrder" style="stroke:#181818;stroke-width:1.0;"/><polygon fill="#181818" points="529.59,1023.45,537.1605,1017.1503,531.8032,1018.9665,529.9869,1013.6091,529.59,1023.45" style="stroke:#181818;stroke-width:1.0;"/><text fill="#000000" font-family="sans-serif" font-size="13" lengthAdjust="spacing" textLength="22" x="549.5" y="991.5684">has</text><text fill="#000000" font-family="sans-serif" font-size="13" lengthAdjust="spacing" textLength="8" x="562.7555" y="952.4258">1</text><text fill="#000000" font-family="sans-serif" font-size="13" lengthAdjust="spacing" textLength="6" x="526.4763" y="1014.4617">*</text></g><!--link AuthenticationRepository to AuthFacade--><g id="link_AuthenticationRepository_AuthFacade"><path codeLine="124" d="M974.5,948.38 C974.5,1009.67 974.5,1085.97 974.5,1133.85 " fill="none" id="AuthenticationRepository-to-AuthFacade" style="stroke:#181818;stroke-width:1.0;"/><polygon fill="#181818" points="974.5,1138.61,978.5,1129.61,974.5,1133.61,970.5,1129.61,974.5,1138.61" style="stroke:#181818;stroke-width:1.0;"/><text fill="#000000" font-family="sans-serif" font-size="13" lengthAdjust="spacing" textLength="22" x="975.5" y="991.5684">has</text><text fill="#000000" font-family="sans-serif" font-size="13" lengthAdjust="spacing" textLength="8" x="966.1938" y="969.0516">1</text><text fill="#000000" font-family="sans-serif" font-size="13" lengthAdjust="spacing" textLength="6" x="968.0031" y="1129.7031">*</text></g><!--link Announcement to Status--><g id="link_Announcement_Status"><path codeLine="126" d="M452.5,1610.33 C452.5,1628.83 452.5,1647.57 452.5,1664.13 " fill="none" id="Announcement-to-Status" style="stroke:#181818;stroke-width:1.0;"/><polygon fill="#181818" points="452.5,1669.09,456.5,1660.09,452.5,1664.09,448.5,1660.09,452.5,1669.09" style="stroke:#181818;stroke-width:1.0;"/></g><!--link PurchaseOrder to Announcement--><g id="link_PurchaseOrder_Announcement"><path codeLine="128" d="M452.5,1337.35 C452.5,1361.07 452.5,1385.05 452.5,1407.3 " fill="none" id="PurchaseOrder-to-Announcement" style="stroke:#181818;stroke-width:1.0;"/><polygon fill="#181818" points="452.5,1412.02,456.5,1403.02,452.5,1407.02,448.5,1403.02,452.5,1412.02" style="stroke:#181818;stroke-width:1.0;"/><text fill="#000000" font-family="sans-serif" font-size="13" lengthAdjust="spacing" textLength="22" x="453.5" y="1380.5684">has</text><text fill="#000000" font-family="sans-serif" font-size="13" lengthAdjust="spacing" textLength="8" x="444.3188" y="1357.3541">1</text><text fill="#000000" font-family="sans-serif" font-size="13" lengthAdjust="spacing" textLength="8" x="444.2063" y="1403.3131">1</text></g><!--SRC=[ZLRDZjis4BxpAOYSj5tvqAjH1B3bJIl0MGknqoAd1IsDRMObqYMf56wGT- -Gb6HIAmMzo9p_cM-6GvSrqvgk1Ajl6ZR0Qfr9OPIiQr3V2LrG1LUfkP6AWxRqjLNbXMdOgGhKfrvuio8cX6n52Gq84qiA1HKl3PU24Ff8Qow0eV5PWTR8J9W2zZ0bsIGLruQXquoRMuQE5KmghXFHDaTGkzCQAYLbewVLLdSzPYxpYiMWLp3roiLvVsKbUDschGtVJjMGqZxT3qesDbrGAHLzIlROHyLpvzdvF8EvWvGy4FA345BwvhJcWfvuoQpi3Ynr_M6Hz0ChMGMMhq5nLlD_sR66ppfgbOrNoQqySv50mtYTqki_rSF0bgr9-gIoLYbqRptikqATY5MLyofhI7Y5TOCk5R_Q74BvNznSd8vW3QJq7YsbE6EG-wWWTAiWg1ESyHzCMrkTM5KFlRw94XFuCM0JZ1pYiTZAajKRT40h_1JjiURw0XLPhAfle0pNtN3-tO8scEHR9bbaiccuAvMMmt7aOM-OQJNLxeUGHnf9a_yTBQMhiqsTsMzAPz9FwMHE3nWNtU2TJNR7hr0QAYqBR-SbanKabZ1oRnGEcICqr7MXv1NJk7aK0QUSTiLy9wiiUoeEPFEKRVFd9r8yFM_ovzy3jB53Vi8iri5CqFP-9ezpOpFuAS8TuiUuGn9F-SP-ovgZ_OiRcF5kSNI3fDcT02-DfVU7rU7p_cNzvMNtCT_lyzspvGvtE0oetGM8MFqr2BscKSpXFhYyXkkn2Wm6PbvvfptjyVMa7aXVyR93Vt0OnFGMsEyhxfQ3JEII-ZuxVj1PCWFjU5T4knj3Rt5P_HPPl2VTvUqHaQUJNM5leFY6kyNEwCxAar3SsJWjTyg5vXLiUSEDdjKiBr2-vYUNHAuB49KjRQe3SIy7a3svlaK0nlRtbVefUDGyD5pulRsCP0uqVs6GMj9YE3kSGjLxzpjFGMPd9d0Hnzjx41-OViqGoJCo9yHpsp-PcfW9yPyS6TsscH2l5UPwcH3Ccun6QvZhsKpPZA0tV9F3SSJe5T_cfCQSNdNeGj_OoV6PgAx0APh4-TxxhcA9X3YlQcmSldADNt3J_wJeOl4-7goVw4KP4XBDwjWFNGwJEz9yz-ixfsr_P_z1BErZCMytjqoy6PaJ3ov-6Rde3MVp2Is3nwOt2nzxgxRldjyuI5HvQDAv8Vy1]--></g></svg>