<?xml version="1.0" encoding="us-ascii" standalone="no"?><svg xmlns="http://www.w3.org/2000/svg" xmlns:xlink="http://www.w3.org/1999/xlink" contentStyleType="text/css" height="451px" preserveAspectRatio="none" style="width:539px;height:451px;background:#FFFFFF;" version="1.1" viewBox="0 0 539 451" width="539px" zoomAndPan="magnify"><defs/><g><text fill="#000000" font-family="sans-serif" font-size="14" font-weight="bold" lengthAdjust="spacing" textLength="284" x="126.5" y="30.1074">US019 - System Sequence Diagram (SSD)</text><rect fill="#FFFFFF" height="226.6191" style="stroke:#181818;stroke-width:1.0;" width="10" x="58" y="133.2422"/><rect fill="#FFFFFF" height="31.291" style="stroke:#181818;stroke-width:1.0;" width="10" x="496" y="191.1152"/><rect fill="#FFFFFF" height="97.1641" style="stroke:#181818;stroke-width:1.0;" width="10" x="496" y="253.6973"/><line style="stroke:#181818;stroke-width:0.5;stroke-dasharray:5.0,5.0;" x1="63" x2="63" y1="123.2422" y2="368.8613"/><line style="stroke:#181818;stroke-width:0.5;stroke-dasharray:5.0,5.0;" x1="501" x2="501" y1="123.2422" y2="368.8613"/><text fill="#000000" font-family="sans-serif" font-size="14" lengthAdjust="spacing" textLength="110" x="5" y="119.7285">Network Manager</text><ellipse cx="63" cy="53.1211" fill="#E3E3E3" rx="8" ry="8" style="stroke:#181818;stroke-width:0.5;"/><path d="M63,61.1211 L63,88.1211 M50,69.1211 L76,69.1211 M63,88.1211 L50,103.1211 M63,88.1211 L76,103.1211 " fill="none" style="stroke:#181818;stroke-width:0.5;"/><text fill="#000000" font-family="sans-serif" font-size="14" lengthAdjust="spacing" textLength="110" x="5" y="382.9688">Network Manager</text><ellipse cx="63" cy="394.9824" fill="#E3E3E3" rx="8" ry="8" style="stroke:#181818;stroke-width:0.5;"/><path d="M63,402.9824 L63,429.9824 M50,410.9824 L76,410.9824 M63,429.9824 L50,444.9824 M63,429.9824 L76,444.9824 " fill="none" style="stroke:#181818;stroke-width:0.5;"/><rect fill="#E3E3E3" height="32.6211" rx="2.5" ry="2.5" style="stroke:#181818;stroke-width:0.5;" width="64" x="469" y="89.6211"/><text fill="#000000" font-family="sans-serif" font-size="14" lengthAdjust="spacing" textLength="50" x="476" y="111.7285">:System</text><rect fill="#E3E3E3" height="32.6211" rx="2.5" ry="2.5" style="stroke:#181818;stroke-width:0.5;" width="64" x="469" y="367.8613"/><text fill="#000000" font-family="sans-serif" font-size="14" lengthAdjust="spacing" textLength="50" x="476" y="389.9688">:System</text><rect fill="#FFFFFF" height="226.6191" style="stroke:#181818;stroke-width:1.0;" width="10" x="58" y="133.2422"/><rect fill="#FFFFFF" height="31.291" style="stroke:#181818;stroke-width:1.0;" width="10" x="496" y="191.1152"/><rect fill="#FFFFFF" height="97.1641" style="stroke:#181818;stroke-width:1.0;" width="10" x="496" y="253.6973"/><polygon fill="#181818" points="484,187.1152,494,191.1152,484,195.1152,488,191.1152" style="stroke:#181818;stroke-width:1.0;"/><line style="stroke:#181818;stroke-width:1.0;" x1="68" x2="490" y1="191.1152" y2="191.1152"/><text fill="#000000" font-family="sans-serif" font-size="13" font-weight="bold" lengthAdjust="spacing" textLength="7" x="75" y="168.5615">1</text><text fill="#000000" font-family="sans-serif" font-size="13" lengthAdjust="spacing" textLength="297" x="86" y="151.2705">asks to divide the set of all stores into two subsets,</text><text fill="#000000" font-family="sans-serif" font-size="13" lengthAdjust="spacing" textLength="341" x="90" y="168.5615">so that the total number of properties of the stores between</text><text fill="#000000" font-family="sans-serif" font-size="13" lengthAdjust="spacing" textLength="211" x="90" y="185.8525">the two subsets is close as possible</text><polygon fill="#181818" points="79,218.4063,69,222.4063,79,226.4063,75,222.4063" style="stroke:#181818;stroke-width:1.0;"/><line style="stroke:#181818;stroke-width:1.0;stroke-dasharray:2.0,2.0;" x1="73" x2="500" y1="222.4063" y2="222.4063"/><text fill="#000000" font-family="sans-serif" font-size="13" font-weight="bold" lengthAdjust="spacing" textLength="7" x="85" y="217.1436">2</text><text fill="#000000" font-family="sans-serif" font-size="13" lengthAdjust="spacing" textLength="344" x="96" y="217.1436">asks if the user wants to use the system data, or a file data</text><polygon fill="#181818" points="484,249.6973,494,253.6973,484,257.6973,488,253.6973" style="stroke:#181818;stroke-width:1.0;"/><line style="stroke:#181818;stroke-width:1.0;" x1="68" x2="490" y1="253.6973" y2="253.6973"/><text fill="#000000" font-family="sans-serif" font-size="13" font-weight="bold" lengthAdjust="spacing" textLength="7" x="75" y="248.4346">3</text><text fill="#000000" font-family="sans-serif" font-size="13" lengthAdjust="spacing" textLength="49" x="86" y="248.4346">chooses</text><polygon fill="#181818" points="79,298.2793,69,302.2793,79,306.2793,75,302.2793" style="stroke:#181818;stroke-width:1.0;"/><line style="stroke:#181818;stroke-width:1.0;stroke-dasharray:2.0,2.0;" x1="73" x2="495" y1="302.2793" y2="302.2793"/><text fill="#000000" font-family="sans-serif" font-size="13" font-weight="bold" lengthAdjust="spacing" textLength="7" x="85" y="288.3711">4</text><text fill="#000000" font-family="sans-serif" font-size="13" lengthAdjust="spacing" textLength="313" x="96" y="279.7256">returns the subsets of stores (containing the stores' ID</text><text fill="#000000" font-family="sans-serif" font-size="13" lengthAdjust="spacing" textLength="248" x="100" y="297.0166">and the number of properties of each store)</text><polygon fill="#181818" points="79,346.8613,69,350.8613,79,354.8613,75,350.8613" style="stroke:#181818;stroke-width:1.0;"/><line style="stroke:#181818;stroke-width:1.0;stroke-dasharray:2.0,2.0;" x1="73" x2="500" y1="350.8613" y2="350.8613"/><text fill="#000000" font-family="sans-serif" font-size="13" font-weight="bold" lengthAdjust="spacing" textLength="7" x="85" y="336.9531">5</text><text fill="#000000" font-family="sans-serif" font-size="13" lengthAdjust="spacing" textLength="389" x="96" y="328.3076">returns the difference between the sums of the number of properties</text><text fill="#000000" font-family="sans-serif" font-size="13" lengthAdjust="spacing" textLength="182" x="100" y="345.5986">of the stores in the two subsets</text><!--SRC=[ZL8xJmCn3DxpAwmkW4Gb6AaG4b8N1bXER2nkpjUpUfSSiQyL_nvVqb9U5MJAmv-_XoCR3WCcxA6F8VesnPv0qqXEFbu6z1jSKwLl7K4YhnZMtUS2QR6EEmvhQB0JSavPhVIvkhg-WJbKRwBKGqMl8mLFi6HSJx3pgbfUE8UZnZ3sAqgszneJp9v8Tp5ju1634QSPe41rxunDsVE0GM6sA6tBMzvcE6zHQIfsOAkwX_dTGS32IZS26g7cBTVcioKGKeWDODU163S9SB0AumSPL_Ogb_0IGEogHSqGZOeT5CaJTaXn85DcM3lbfgNJocmGXGcVSSUUm0A-YqAJ-Y6AyCeITKNqqSNUrjx9xNp-pGeNkb5CoCvIoURiL4IKqXeLBy5IHMZOfZATSyUQJX5zZiotqMJA_uKbqZ45AHBsRYsMVIJdFWP53jDdEIPr1W_BAIKCTRuzbQqfRWlamltDNdFJKCfVxZ298gh_6DIlH2Rawnpvn_pSYGJV0G00]--></g></svg>