<?xml version="1.0" encoding="us-ascii" standalone="no"?><svg xmlns="http://www.w3.org/2000/svg" xmlns:xlink="http://www.w3.org/1999/xlink" contentStyleType="text/css" height="2191px" preserveAspectRatio="none" style="width:2194px;height:2191px;background:#FFFFFF;" version="1.1" viewBox="0 0 2194 2191" width="2194px" zoomAndPan="magnify"><defs/><g><rect fill="#FFFFFF" height="2004.2969" style="stroke:#181818;stroke-width:1.0;" width="10" x="71" y="93.6211"/><rect fill="#FFFFFF" height="1981.0059" style="stroke:#181818;stroke-width:1.0;" width="10" x="423" y="116.9121"/><rect fill="#FFFFFF" height="61.291" style="stroke:#181818;stroke-width:1.0;" width="10" x="656" y="285.6582"/><rect fill="#FFFFFF" height="105.582" style="stroke:#181818;stroke-width:1.0;" width="10" x="656" y="640.9863"/><rect fill="#FFFFFF" height="105.582" style="stroke:#181818;stroke-width:1.0;" width="10" x="656" y="965.6055"/><rect fill="#FFFFFF" height="75.582" style="stroke:#181818;stroke-width:1.0;" width="10" x="656" y="1227.6426"/><rect fill="#FFFFFF" height="61.291" style="stroke:#181818;stroke-width:1.0;" width="10" x="656" y="1416.3887"/><rect fill="#FFFFFF" height="105.582" style="stroke:#181818;stroke-width:1.0;" width="10" x="656" y="1696.7168"/><rect fill="#FFFFFF" height="75.582" style="stroke:#181818;stroke-width:1.0;" width="10" x="656" y="1958.7539"/><rect fill="#FFFFFF" height="91.291" style="stroke:#181818;stroke-width:1.0;" width="10" x="1041" y="316.9492"/><rect fill="#FFFFFF" height="61.291" style="stroke:#181818;stroke-width:1.0;" width="10" x="1041" y="579.6953"/><rect fill="#FFFFFF" height="249.0371" style="stroke:#181818;stroke-width:1.0;" width="10" x="1041" y="716.5684"/><rect fill="#FFFFFF" height="186.4551" style="stroke:#181818;stroke-width:1.0;" width="10" x="1041" y="1041.1875"/><rect fill="#FFFFFF" height="249.0371" style="stroke:#181818;stroke-width:1.0;" width="10" x="1041" y="1447.6797"/><rect fill="#FFFFFF" height="186.4551" style="stroke:#181818;stroke-width:1.0;" width="10" x="1041" y="1772.2988"/><rect fill="#FFFFFF" height="31.291" style="stroke:#181818;stroke-width:1.0;" width="10" x="1180.5" y="777.8594"/><rect fill="#FFFFFF" height="31.291" style="stroke:#181818;stroke-width:1.0;" width="10" x="1180.5" y="1508.9707"/><rect fill="#FFFFFF" height="31.291" style="stroke:#181818;stroke-width:1.0;" width="10" x="1326.5" y="840.4414"/><rect fill="#FFFFFF" height="31.291" style="stroke:#181818;stroke-width:1.0;" width="10" x="1326.5" y="1102.4785"/><rect fill="#FFFFFF" height="31.291" style="stroke:#181818;stroke-width:1.0;" width="10" x="1326.5" y="1571.5527"/><rect fill="#FFFFFF" height="31.291" style="stroke:#181818;stroke-width:1.0;" width="10" x="1326.5" y="1833.5898"/><rect fill="#FFFFFF" height="231.4551" style="stroke:#181818;stroke-width:1.0;" width="10" x="1512" y="378.2402"/><rect fill="#FFFFFF" height="31.291" style="stroke:#181818;stroke-width:1.0;" width="10" x="1763" y="510.1133"/><rect fill="#FFFFFF" height="31.291" style="stroke:#181818;stroke-width:1.0;" width="10" x="2113" y="903.0234"/><rect fill="#FFFFFF" height="31.291" style="stroke:#181818;stroke-width:1.0;" width="10" x="2113" y="1165.0605"/><rect fill="#FFFFFF" height="31.291" style="stroke:#181818;stroke-width:1.0;" width="10" x="2113" y="1634.1348"/><rect fill="#FFFFFF" height="31.291" style="stroke:#181818;stroke-width:1.0;" width="10" x="2113" y="1896.1719"/><rect fill="none" height="1148.0215" style="stroke:#000000;stroke-width:1.5;" width="2178" x="10" y="211.7852"/><rect fill="none" height="126.1641" style="stroke:#000000;stroke-width:1.5;" width="455" x="1419" y="423.2402"/><rect fill="none" height="717.1113" style="stroke:#000000;stroke-width:1.5;" width="2178" x="10" y="1373.8066"/><line style="stroke:#181818;stroke-width:0.5;stroke-dasharray:5.0,5.0;" x1="76" x2="76" y1="83.6211" y2="2107.918"/><line style="stroke:#181818;stroke-width:0.5;stroke-dasharray:5.0,5.0;" x1="427.5" x2="427.5" y1="83.6211" y2="2107.918"/><line style="stroke:#181818;stroke-width:0.5;stroke-dasharray:5.0,5.0;" x1="661" x2="661" y1="83.6211" y2="2107.918"/><line style="stroke:#181818;stroke-width:0.5;stroke-dasharray:5.0,5.0;" x1="1046" x2="1046" y1="83.6211" y2="2107.918"/><line style="stroke:#181818;stroke-width:0.5;stroke-dasharray:5.0,5.0;" x1="1185" x2="1185" y1="83.6211" y2="2107.918"/><line style="stroke:#181818;stroke-width:0.5;stroke-dasharray:5.0,5.0;" x1="1331" x2="1331" y1="83.6211" y2="2107.918"/><line style="stroke:#181818;stroke-width:0.5;stroke-dasharray:5.0,5.0;" x1="1517" x2="1517" y1="83.6211" y2="2107.918"/><line style="stroke:#181818;stroke-width:0.5;stroke-dasharray:5.0,5.0;" x1="1768" x2="1768" y1="83.6211" y2="2107.918"/><line style="stroke:#181818;stroke-width:0.5;stroke-dasharray:5.0,5.0;" x1="1961" x2="1961" y1="83.6211" y2="2107.918"/><line style="stroke:#181818;stroke-width:0.5;stroke-dasharray:5.0,5.0;" x1="2118" x2="2118" y1="83.6211" y2="2107.918"/><text fill="#000000" font-family="sans-serif" font-size="14" lengthAdjust="spacing" textLength="106" x="20" y="80.1074">NetworkManager</text><ellipse cx="76" cy="13.5" fill="#E2E2F0" rx="8" ry="8" style="stroke:#181818;stroke-width:0.5;"/><path d="M76,21.5 L76,48.5 M63,29.5 L89,29.5 M76,48.5 L63,63.5 M76,48.5 L89,63.5 " fill="none" style="stroke:#181818;stroke-width:0.5;"/><text fill="#000000" font-family="sans-serif" font-size="14" lengthAdjust="spacing" textLength="106" x="20" y="2122.0254">NetworkManager</text><ellipse cx="76" cy="2134.0391" fill="#E2E2F0" rx="8" ry="8" style="stroke:#181818;stroke-width:0.5;"/><path d="M76,2142.0391 L76,2169.0391 M63,2150.0391 L89,2150.0391 M76,2169.0391 L63,2184.0391 M76,2169.0391 L89,2184.0391 " fill="none" style="stroke:#181818;stroke-width:0.5;"/><rect fill="#E2E2F0" height="32.6211" rx="2.5" ry="2.5" style="stroke:#181818;stroke-width:0.5;" width="127" x="364.5" y="50"/><text fill="#000000" font-family="sans-serif" font-size="14" lengthAdjust="spacing" textLength="113" x="371.5" y="72.1074">:StorePartitionGUI</text><rect fill="#E2E2F0" height="32.6211" rx="2.5" ry="2.5" style="stroke:#181818;stroke-width:0.5;" width="127" x="364.5" y="2106.918"/><text fill="#000000" font-family="sans-serif" font-size="14" lengthAdjust="spacing" textLength="113" x="371.5" y="2129.0254">:StorePartitionGUI</text><rect fill="#E2E2F0" height="32.6211" rx="2.5" ry="2.5" style="stroke:#181818;stroke-width:0.5;" width="212" x="555" y="50"/><text fill="#000000" font-family="sans-serif" font-size="14" lengthAdjust="spacing" textLength="198" x="562" y="72.1074">:StorePartitionGUIFileController</text><rect fill="#E2E2F0" height="32.6211" rx="2.5" ry="2.5" style="stroke:#181818;stroke-width:0.5;" width="212" x="555" y="2106.918"/><text fill="#000000" font-family="sans-serif" font-size="14" lengthAdjust="spacing" textLength="198" x="562" y="2129.0254">:StorePartitionGUIFileController</text><rect fill="#E2E2F0" height="32.6211" rx="2.5" ry="2.5" style="stroke:#181818;stroke-width:0.5;" width="162" x="965" y="50"/><text fill="#000000" font-family="sans-serif" font-size="14" lengthAdjust="spacing" textLength="148" x="972" y="72.1074">StorePartitionController</text><rect fill="#E2E2F0" height="32.6211" rx="2.5" ry="2.5" style="stroke:#181818;stroke-width:0.5;" width="162" x="965" y="2106.918"/><text fill="#000000" font-family="sans-serif" font-size="14" lengthAdjust="spacing" textLength="148" x="972" y="2129.0254">StorePartitionController</text><rect fill="#E2E2F0" height="32.6211" rx="2.5" ry="2.5" style="stroke:#181818;stroke-width:0.5;" width="97" x="1137" y="50"/><text fill="#000000" font-family="sans-serif" font-size="14" lengthAdjust="spacing" textLength="83" x="1144" y="72.1074">:Repositories</text><rect fill="#E2E2F0" height="32.6211" rx="2.5" ry="2.5" style="stroke:#181818;stroke-width:0.5;" width="97" x="1137" y="2106.918"/><text fill="#000000" font-family="sans-serif" font-size="14" lengthAdjust="spacing" textLength="83" x="1144" y="2129.0254">:Repositories</text><rect fill="#E2E2F0" height="32.6211" rx="2.5" ry="2.5" style="stroke:#181818;stroke-width:0.5;" width="175" x="1244" y="50"/><text fill="#000000" font-family="sans-serif" font-size="14" lengthAdjust="spacing" textLength="161" x="1251" y="72.1074">repositories :Repositories</text><rect fill="#E2E2F0" height="32.6211" rx="2.5" ry="2.5" style="stroke:#181818;stroke-width:0.5;" width="175" x="1244" y="2106.918"/><text fill="#000000" font-family="sans-serif" font-size="14" lengthAdjust="spacing" textLength="161" x="1251" y="2129.0254">repositories :Repositories</text><rect fill="#E2E2F0" height="32.6211" rx="2.5" ry="2.5" style="stroke:#181818;stroke-width:0.5;" width="176" x="1429" y="50"/><text fill="#000000" font-family="sans-serif" font-size="14" lengthAdjust="spacing" textLength="162" x="1436" y="72.1074">:LoadInformationFromFile</text><rect fill="#E2E2F0" height="32.6211" rx="2.5" ry="2.5" style="stroke:#181818;stroke-width:0.5;" width="176" x="1429" y="2106.918"/><text fill="#000000" font-family="sans-serif" font-size="14" lengthAdjust="spacing" textLength="162" x="1436" y="2129.0254">:LoadInformationFromFile</text><rect fill="#E2E2F0" height="32.6211" rx="2.5" ry="2.5" style="stroke:#181818;stroke-width:0.5;" width="192" x="1672" y="50"/><text fill="#000000" font-family="sans-serif" font-size="14" lengthAdjust="spacing" textLength="178" x="1679" y="72.1074">:InformationFromFileMapper</text><rect fill="#E2E2F0" height="32.6211" rx="2.5" ry="2.5" style="stroke:#181818;stroke-width:0.5;" width="192" x="1672" y="2106.918"/><text fill="#000000" font-family="sans-serif" font-size="14" lengthAdjust="spacing" textLength="178" x="1679" y="2129.0254">:InformationFromFileMapper</text><rect fill="#E2E2F0" height="32.6211" rx="2.5" ry="2.5" style="stroke:#181818;stroke-width:0.5;" width="174" x="1874" y="50"/><text fill="#000000" font-family="sans-serif" font-size="14" lengthAdjust="spacing" textLength="160" x="1881" y="72.1074">:InformationFromFileDTO</text><rect fill="#E2E2F0" height="32.6211" rx="2.5" ry="2.5" style="stroke:#181818;stroke-width:0.5;" width="174" x="1874" y="2106.918"/><text fill="#000000" font-family="sans-serif" font-size="14" lengthAdjust="spacing" textLength="160" x="1881" y="2129.0254">:InformationFromFileDTO</text><rect fill="#E2E2F0" height="32.6211" rx="2.5" ry="2.5" style="stroke:#181818;stroke-width:0.5;" width="120" x="2058" y="50"/><text fill="#000000" font-family="sans-serif" font-size="14" lengthAdjust="spacing" textLength="106" x="2065" y="72.1074">:StoreRepository</text><rect fill="#E2E2F0" height="32.6211" rx="2.5" ry="2.5" style="stroke:#181818;stroke-width:0.5;" width="120" x="2058" y="2106.918"/><text fill="#000000" font-family="sans-serif" font-size="14" lengthAdjust="spacing" textLength="106" x="2065" y="2129.0254">:StoreRepository</text><rect fill="#FFFFFF" height="2004.2969" style="stroke:#181818;stroke-width:1.0;" width="10" x="71" y="93.6211"/><rect fill="#FFFFFF" height="1981.0059" style="stroke:#181818;stroke-width:1.0;" width="10" x="423" y="116.9121"/><rect fill="#FFFFFF" height="61.291" style="stroke:#181818;stroke-width:1.0;" width="10" x="656" y="285.6582"/><rect fill="#FFFFFF" height="105.582" style="stroke:#181818;stroke-width:1.0;" width="10" x="656" y="640.9863"/><rect fill="#FFFFFF" height="105.582" style="stroke:#181818;stroke-width:1.0;" width="10" x="656" y="965.6055"/><rect fill="#FFFFFF" height="75.582" style="stroke:#181818;stroke-width:1.0;" width="10" x="656" y="1227.6426"/><rect fill="#FFFFFF" height="61.291" style="stroke:#181818;stroke-width:1.0;" width="10" x="656" y="1416.3887"/><rect fill="#FFFFFF" height="105.582" style="stroke:#181818;stroke-width:1.0;" width="10" x="656" y="1696.7168"/><rect fill="#FFFFFF" height="75.582" style="stroke:#181818;stroke-width:1.0;" width="10" x="656" y="1958.7539"/><rect fill="#FFFFFF" height="91.291" style="stroke:#181818;stroke-width:1.0;" width="10" x="1041" y="316.9492"/><rect fill="#FFFFFF" height="61.291" style="stroke:#181818;stroke-width:1.0;" width="10" x="1041" y="579.6953"/><rect fill="#FFFFFF" height="249.0371" style="stroke:#181818;stroke-width:1.0;" width="10" x="1041" y="716.5684"/><rect fill="#FFFFFF" height="186.4551" style="stroke:#181818;stroke-width:1.0;" width="10" x="1041" y="1041.1875"/><rect fill="#FFFFFF" height="249.0371" style="stroke:#181818;stroke-width:1.0;" width="10" x="1041" y="1447.6797"/><rect fill="#FFFFFF" height="186.4551" style="stroke:#181818;stroke-width:1.0;" width="10" x="1041" y="1772.2988"/><rect fill="#FFFFFF" height="31.291" style="stroke:#181818;stroke-width:1.0;" width="10" x="1180.5" y="777.8594"/><rect fill="#FFFFFF" height="31.291" style="stroke:#181818;stroke-width:1.0;" width="10" x="1180.5" y="1508.9707"/><rect fill="#FFFFFF" height="31.291" style="stroke:#181818;stroke-width:1.0;" width="10" x="1326.5" y="840.4414"/><rect fill="#FFFFFF" height="31.291" style="stroke:#181818;stroke-width:1.0;" width="10" x="1326.5" y="1102.4785"/><rect fill="#FFFFFF" height="31.291" style="stroke:#181818;stroke-width:1.0;" width="10" x="1326.5" y="1571.5527"/><rect fill="#FFFFFF" height="31.291" style="stroke:#181818;stroke-width:1.0;" width="10" x="1326.5" y="1833.5898"/><rect fill="#FFFFFF" height="231.4551" style="stroke:#181818;stroke-width:1.0;" width="10" x="1512" y="378.2402"/><rect fill="#FFFFFF" height="31.291" style="stroke:#181818;stroke-width:1.0;" width="10" x="1763" y="510.1133"/><rect fill="#FFFFFF" height="31.291" style="stroke:#181818;stroke-width:1.0;" width="10" x="2113" y="903.0234"/><rect fill="#FFFFFF" height="31.291" style="stroke:#181818;stroke-width:1.0;" width="10" x="2113" y="1165.0605"/><rect fill="#FFFFFF" height="31.291" style="stroke:#181818;stroke-width:1.0;" width="10" x="2113" y="1634.1348"/><rect fill="#FFFFFF" height="31.291" style="stroke:#181818;stroke-width:1.0;" width="10" x="2113" y="1896.1719"/><polygon fill="#181818" points="411,112.9121,421,116.9121,411,120.9121,415,116.9121" style="stroke:#181818;stroke-width:1.0;"/><line style="stroke:#181818;stroke-width:1.0;" x1="81" x2="417" y1="116.9121" y2="116.9121"/><text fill="#000000" font-family="sans-serif" font-size="13" font-weight="bold" lengthAdjust="spacing" textLength="7" x="88" y="111.6494">1</text><text fill="#000000" font-family="sans-serif" font-size="13" lengthAdjust="spacing" textLength="218" x="99" y="111.6494">asks to divide stores into two subsets</text><polygon fill="#181818" points="92,161.4941,82,165.4941,92,169.4941,88,165.4941" style="stroke:#181818;stroke-width:1.0;"/><line style="stroke:#181818;stroke-width:1.0;stroke-dasharray:2.0,2.0;" x1="86" x2="422" y1="165.4941" y2="165.4941"/><text fill="#000000" font-family="sans-serif" font-size="13" font-weight="bold" lengthAdjust="spacing" textLength="7" x="98" y="151.5859">2</text><text fill="#000000" font-family="sans-serif" font-size="13" lengthAdjust="spacing" textLength="301" x="109" y="142.9404">asks if the user wants to divide stores in the system</text><text fill="#000000" font-family="sans-serif" font-size="13" lengthAdjust="spacing" textLength="118" x="113" y="160.2314">or by using a csv file</text><polygon fill="#181818" points="411,192.7852,421,196.7852,411,200.7852,415,196.7852" style="stroke:#181818;stroke-width:1.0;"/><line style="stroke:#181818;stroke-width:1.0;" x1="81" x2="417" y1="196.7852" y2="196.7852"/><text fill="#000000" font-family="sans-serif" font-size="13" font-weight="bold" lengthAdjust="spacing" textLength="7" x="88" y="191.5225">3</text><text fill="#000000" font-family="sans-serif" font-size="13" lengthAdjust="spacing" textLength="172" x="99" y="191.5225">chooses the preferred method</text><path d="M10,211.7852 L75,211.7852 L75,221.0762 L65,231.0762 L10,231.0762 L10,211.7852 " fill="#EEEEEE" style="stroke:#000000;stroke-width:1.5;"/><rect fill="none" height="1148.0215" style="stroke:#000000;stroke-width:1.5;" width="2178" x="10" y="211.7852"/><text fill="#000000" font-family="sans-serif" font-size="13" font-weight="bold" lengthAdjust="spacing" textLength="20" x="25" y="226.8135">opt</text><text fill="#000000" font-family="sans-serif" font-size="11" font-weight="bold" lengthAdjust="spacing" textLength="251" x="90" y="225.6553">[user chooses to divide stores using csv file]</text><polygon fill="#181818" points="411,250.3672,421,254.3672,411,258.3672,415,254.3672" style="stroke:#181818;stroke-width:1.0;"/><line style="stroke:#181818;stroke-width:1.0;" x1="81" x2="417" y1="254.3672" y2="254.3672"/><text fill="#000000" font-family="sans-serif" font-size="13" font-weight="bold" lengthAdjust="spacing" textLength="7" x="88" y="249.1045">4</text><text fill="#000000" font-family="sans-serif" font-size="13" lengthAdjust="spacing" textLength="236" x="99" y="249.1045">searches or writes the path of the csv file</text><polygon fill="#181818" points="644,281.6582,654,285.6582,644,289.6582,648,285.6582" style="stroke:#181818;stroke-width:1.0;"/><line style="stroke:#181818;stroke-width:1.0;" x1="433" x2="650" y1="285.6582" y2="285.6582"/><text fill="#000000" font-family="sans-serif" font-size="13" font-weight="bold" lengthAdjust="spacing" textLength="7" x="440" y="280.3955">5</text><text fill="#000000" font-family="sans-serif" font-size="13" lengthAdjust="spacing" textLength="193" x="451" y="280.3955">pass the file path to the controller</text><polygon fill="#181818" points="1029,312.9492,1039,316.9492,1029,320.9492,1033,316.9492" style="stroke:#181818;stroke-width:1.0;"/><line style="stroke:#181818;stroke-width:1.0;" x1="666" x2="1035" y1="316.9492" y2="316.9492"/><text fill="#000000" font-family="sans-serif" font-size="13" font-weight="bold" lengthAdjust="spacing" textLength="7" x="673" y="311.6865">6</text><text fill="#000000" font-family="sans-serif" font-size="13" lengthAdjust="spacing" textLength="171" x="684" y="311.6865">loadInformationFromFile(path)</text><polygon fill="#181818" points="1500,374.2402,1510,378.2402,1500,382.2402,1504,378.2402" style="stroke:#181818;stroke-width:1.0;"/><line style="stroke:#181818;stroke-width:1.0;" x1="1051" x2="1506" y1="378.2402" y2="378.2402"/><text fill="#000000" font-family="sans-serif" font-size="13" font-weight="bold" lengthAdjust="spacing" textLength="7" x="1058" y="372.9775">7</text><text fill="#000000" font-family="sans-serif" font-size="13" lengthAdjust="spacing" textLength="171" x="1069" y="372.9775">loadInformationFromFile(path)</text><path d="M1419,423.2402 L1492,423.2402 L1492,432.5313 L1482,442.5313 L1419,442.5313 L1419,423.2402 " fill="#EEEEEE" style="stroke:#000000;stroke-width:1.5;"/><rect fill="none" height="126.1641" style="stroke:#000000;stroke-width:1.5;" width="455" x="1419" y="423.2402"/><text fill="#000000" font-family="sans-serif" font-size="13" font-weight="bold" lengthAdjust="spacing" textLength="28" x="1434" y="438.2686">loop</text><text fill="#000000" font-family="sans-serif" font-size="11" font-weight="bold" lengthAdjust="spacing" textLength="76" x="1507" y="437.1104">[for each line]</text><line style="stroke:#181818;stroke-width:1.0;" x1="1522" x2="1564" y1="465.8223" y2="465.8223"/><line style="stroke:#181818;stroke-width:1.0;" x1="1564" x2="1564" y1="465.8223" y2="478.8223"/><line style="stroke:#181818;stroke-width:1.0;" x1="1523" x2="1564" y1="478.8223" y2="478.8223"/><polygon fill="#181818" points="1533,474.8223,1523,478.8223,1533,482.8223,1529,478.8223" style="stroke:#181818;stroke-width:1.0;"/><text fill="#000000" font-family="sans-serif" font-size="13" font-weight="bold" lengthAdjust="spacing" textLength="7" x="1529" y="460.5596">8</text><text fill="#000000" font-family="sans-serif" font-size="13" lengthAdjust="spacing" textLength="216" x="1540" y="460.5596">loadInformationFromLine(header, line)</text><polygon fill="#181818" points="1751,506.1133,1761,510.1133,1751,514.1133,1755,510.1133" style="stroke:#181818;stroke-width:1.0;"/><line style="stroke:#181818;stroke-width:1.0;" x1="1522" x2="1757" y1="510.1133" y2="510.1133"/><text fill="#000000" font-family="sans-serif" font-size="13" font-weight="bold" lengthAdjust="spacing" textLength="7" x="1529" y="504.8506">9</text><text fill="#000000" font-family="sans-serif" font-size="13" lengthAdjust="spacing" textLength="45" x="1540" y="504.8506">toDTO()</text><polygon fill="#181818" points="1533,537.4043,1523,541.4043,1533,545.4043,1529,541.4043" style="stroke:#181818;stroke-width:1.0;"/><line style="stroke:#181818;stroke-width:1.0;stroke-dasharray:2.0,2.0;" x1="1527" x2="1767" y1="541.4043" y2="541.4043"/><text fill="#000000" font-family="sans-serif" font-size="13" font-weight="bold" lengthAdjust="spacing" textLength="14" x="1539" y="536.1416">10</text><text fill="#000000" font-family="sans-serif" font-size="13" lengthAdjust="spacing" textLength="140" x="1557" y="536.1416">InformationFromFileDTO</text><polygon fill="#181818" points="1062,575.6953,1052,579.6953,1062,583.6953,1058,579.6953" style="stroke:#181818;stroke-width:1.0;"/><line style="stroke:#181818;stroke-width:1.0;stroke-dasharray:2.0,2.0;" x1="1056" x2="1511" y1="579.6953" y2="579.6953"/><text fill="#000000" font-family="sans-serif" font-size="13" font-weight="bold" lengthAdjust="spacing" textLength="14" x="1068" y="574.4326">11</text><text fill="#000000" font-family="sans-serif" font-size="13" lengthAdjust="spacing" textLength="17" x="1086" y="574.4326">list</text><polygon fill="#181818" points="677,636.9863,667,640.9863,677,644.9863,673,640.9863" style="stroke:#181818;stroke-width:1.0;"/><line style="stroke:#181818;stroke-width:1.0;stroke-dasharray:2.0,2.0;" x1="671" x2="1045" y1="640.9863" y2="640.9863"/><text fill="#000000" font-family="sans-serif" font-size="13" font-weight="bold" lengthAdjust="spacing" textLength="14" x="683" y="635.7236">12</text><text fill="#000000" font-family="sans-serif" font-size="13" lengthAdjust="spacing" textLength="17" x="701" y="635.7236">list</text><line style="stroke:#181818;stroke-width:1.0;" x1="666" x2="708" y1="672.2773" y2="672.2773"/><line style="stroke:#181818;stroke-width:1.0;" x1="708" x2="708" y1="672.2773" y2="685.2773"/><line style="stroke:#181818;stroke-width:1.0;" x1="667" x2="708" y1="685.2773" y2="685.2773"/><polygon fill="#181818" points="677,681.2773,667,685.2773,677,689.2773,673,685.2773" style="stroke:#181818;stroke-width:1.0;"/><text fill="#000000" font-family="sans-serif" font-size="13" font-weight="bold" lengthAdjust="spacing" textLength="14" x="673" y="667.0146">13</text><text fill="#000000" font-family="sans-serif" font-size="13" lengthAdjust="spacing" textLength="181" x="691" y="667.0146">check if the list is null or empty</text><polygon fill="#181818" points="1029,712.5684,1039,716.5684,1029,720.5684,1033,716.5684" style="stroke:#181818;stroke-width:1.0;"/><line style="stroke:#181818;stroke-width:1.0;" x1="666" x2="1035" y1="716.5684" y2="716.5684"/><text fill="#000000" font-family="sans-serif" font-size="13" font-weight="bold" lengthAdjust="spacing" textLength="14" x="673" y="711.3057">14</text><text fill="#000000" font-family="sans-serif" font-size="13" lengthAdjust="spacing" textLength="216" x="691" y="711.3057">calculateStorePropertyCountMap(list)</text><polygon fill="#181818" points="1168.5,773.8594,1178.5,777.8594,1168.5,781.8594,1172.5,777.8594" style="stroke:#181818;stroke-width:1.0;"/><line style="stroke:#181818;stroke-width:1.0;" x1="1051" x2="1174.5" y1="777.8594" y2="777.8594"/><text fill="#000000" font-family="sans-serif" font-size="13" font-weight="bold" lengthAdjust="spacing" textLength="14" x="1058" y="772.5967">15</text><text fill="#000000" font-family="sans-serif" font-size="13" lengthAdjust="spacing" textLength="67" x="1076" y="772.5967">getInstance</text><polygon fill="#181818" points="1062,805.1504,1052,809.1504,1062,813.1504,1058,809.1504" style="stroke:#181818;stroke-width:1.0;"/><line style="stroke:#181818;stroke-width:1.0;stroke-dasharray:2.0,2.0;" x1="1056" x2="1184.5" y1="809.1504" y2="809.1504"/><text fill="#000000" font-family="sans-serif" font-size="13" font-weight="bold" lengthAdjust="spacing" textLength="14" x="1068" y="803.8877">16</text><text fill="#000000" font-family="sans-serif" font-size="13" lengthAdjust="spacing" textLength="49" x="1086" y="803.8877">instance</text><polygon fill="#181818" points="1314.5,836.4414,1324.5,840.4414,1314.5,844.4414,1318.5,840.4414" style="stroke:#181818;stroke-width:1.0;"/><line style="stroke:#181818;stroke-width:1.0;" x1="1051" x2="1320.5" y1="840.4414" y2="840.4414"/><text fill="#000000" font-family="sans-serif" font-size="13" font-weight="bold" lengthAdjust="spacing" textLength="14" x="1058" y="835.1787">17</text><text fill="#000000" font-family="sans-serif" font-size="13" lengthAdjust="spacing" textLength="111" x="1076" y="835.1787">getStoreRepository</text><polygon fill="#181818" points="1062,867.7324,1052,871.7324,1062,875.7324,1058,871.7324" style="stroke:#181818;stroke-width:1.0;"/><line style="stroke:#181818;stroke-width:1.0;stroke-dasharray:2.0,2.0;" x1="1056" x2="1330.5" y1="871.7324" y2="871.7324"/><text fill="#000000" font-family="sans-serif" font-size="13" font-weight="bold" lengthAdjust="spacing" textLength="14" x="1068" y="866.4697">18</text><text fill="#000000" font-family="sans-serif" font-size="13" lengthAdjust="spacing" textLength="91" x="1086" y="866.4697">storeRepository</text><polygon fill="#181818" points="2101,899.0234,2111,903.0234,2101,907.0234,2105,903.0234" style="stroke:#181818;stroke-width:1.0;"/><line style="stroke:#181818;stroke-width:1.0;" x1="1051" x2="2107" y1="903.0234" y2="903.0234"/><text fill="#000000" font-family="sans-serif" font-size="13" font-weight="bold" lengthAdjust="spacing" textLength="14" x="1058" y="897.7607">19</text><text fill="#000000" font-family="sans-serif" font-size="13" lengthAdjust="spacing" textLength="216" x="1076" y="897.7607">calculateStorePropertyCountMap(list)</text><polygon fill="#181818" points="1062,930.3145,1052,934.3145,1062,938.3145,1058,934.3145" style="stroke:#181818;stroke-width:1.0;"/><line style="stroke:#181818;stroke-width:1.0;stroke-dasharray:2.0,2.0;" x1="1056" x2="2117" y1="934.3145" y2="934.3145"/><text fill="#000000" font-family="sans-serif" font-size="13" font-weight="bold" lengthAdjust="spacing" textLength="14" x="1068" y="929.0518">20</text><text fill="#000000" font-family="sans-serif" font-size="13" lengthAdjust="spacing" textLength="137" x="1086" y="929.0518">storePropertyCountMap</text><polygon fill="#181818" points="677,961.6055,667,965.6055,677,969.6055,673,965.6055" style="stroke:#181818;stroke-width:1.0;"/><line style="stroke:#181818;stroke-width:1.0;stroke-dasharray:2.0,2.0;" x1="671" x2="1045" y1="965.6055" y2="965.6055"/><text fill="#000000" font-family="sans-serif" font-size="13" font-weight="bold" lengthAdjust="spacing" textLength="14" x="683" y="960.3428">21</text><text fill="#000000" font-family="sans-serif" font-size="13" lengthAdjust="spacing" textLength="137" x="701" y="960.3428">storePropertyCountMap</text><line style="stroke:#181818;stroke-width:1.0;" x1="666" x2="708" y1="996.8965" y2="996.8965"/><line style="stroke:#181818;stroke-width:1.0;" x1="708" x2="708" y1="996.8965" y2="1009.8965"/><line style="stroke:#181818;stroke-width:1.0;" x1="667" x2="708" y1="1009.8965" y2="1009.8965"/><polygon fill="#181818" points="677,1005.8965,667,1009.8965,677,1013.8965,673,1009.8965" style="stroke:#181818;stroke-width:1.0;"/><text fill="#000000" font-family="sans-serif" font-size="13" font-weight="bold" lengthAdjust="spacing" textLength="14" x="673" y="991.6338">22</text><text fill="#000000" font-family="sans-serif" font-size="13" lengthAdjust="spacing" textLength="262" x="691" y="991.6338">check if the storePropertyCountMap is empty</text><polygon fill="#181818" points="1029,1037.1875,1039,1041.1875,1029,1045.1875,1033,1041.1875" style="stroke:#181818;stroke-width:1.0;"/><line style="stroke:#181818;stroke-width:1.0;" x1="666" x2="1035" y1="1041.1875" y2="1041.1875"/><text fill="#000000" font-family="sans-serif" font-size="13" font-weight="bold" lengthAdjust="spacing" textLength="14" x="673" y="1035.9248">23</text><text fill="#000000" font-family="sans-serif" font-size="13" lengthAdjust="spacing" textLength="338" x="691" y="1035.9248">calculateClosestPropertyPartition(storePropertyCountMap)</text><polygon fill="#181818" points="1314.5,1098.4785,1324.5,1102.4785,1314.5,1106.4785,1318.5,1102.4785" style="stroke:#181818;stroke-width:1.0;"/><line style="stroke:#181818;stroke-width:1.0;" x1="1051" x2="1320.5" y1="1102.4785" y2="1102.4785"/><text fill="#000000" font-family="sans-serif" font-size="13" font-weight="bold" lengthAdjust="spacing" textLength="14" x="1058" y="1097.2158">24</text><text fill="#000000" font-family="sans-serif" font-size="13" lengthAdjust="spacing" textLength="111" x="1076" y="1097.2158">getStoreRepository</text><polygon fill="#181818" points="1062,1129.7695,1052,1133.7695,1062,1137.7695,1058,1133.7695" style="stroke:#181818;stroke-width:1.0;"/><line style="stroke:#181818;stroke-width:1.0;stroke-dasharray:2.0,2.0;" x1="1056" x2="1330.5" y1="1133.7695" y2="1133.7695"/><text fill="#000000" font-family="sans-serif" font-size="13" font-weight="bold" lengthAdjust="spacing" textLength="14" x="1068" y="1128.5068">25</text><text fill="#000000" font-family="sans-serif" font-size="13" lengthAdjust="spacing" textLength="91" x="1086" y="1128.5068">storeRepository</text><polygon fill="#181818" points="2101,1161.0605,2111,1165.0605,2101,1169.0605,2105,1165.0605" style="stroke:#181818;stroke-width:1.0;"/><line style="stroke:#181818;stroke-width:1.0;" x1="1051" x2="2107" y1="1165.0605" y2="1165.0605"/><text fill="#000000" font-family="sans-serif" font-size="13" font-weight="bold" lengthAdjust="spacing" textLength="14" x="1058" y="1159.7979">26</text><text fill="#000000" font-family="sans-serif" font-size="13" lengthAdjust="spacing" textLength="338" x="1076" y="1159.7979">calculateClosestPropertyPartition(storePropertyCountMap)</text><polygon fill="#181818" points="1062,1192.3516,1052,1196.3516,1062,1200.3516,1058,1196.3516" style="stroke:#181818;stroke-width:1.0;"/><line style="stroke:#181818;stroke-width:1.0;stroke-dasharray:2.0,2.0;" x1="1056" x2="2117" y1="1196.3516" y2="1196.3516"/><text fill="#000000" font-family="sans-serif" font-size="13" font-weight="bold" lengthAdjust="spacing" textLength="14" x="1068" y="1191.0889">27</text><text fill="#000000" font-family="sans-serif" font-size="13" lengthAdjust="spacing" textLength="97" x="1086" y="1191.0889">closestPartitions</text><polygon fill="#181818" points="677,1223.6426,667,1227.6426,677,1231.6426,673,1227.6426" style="stroke:#181818;stroke-width:1.0;"/><line style="stroke:#181818;stroke-width:1.0;stroke-dasharray:2.0,2.0;" x1="671" x2="1045" y1="1227.6426" y2="1227.6426"/><text fill="#000000" font-family="sans-serif" font-size="13" font-weight="bold" lengthAdjust="spacing" textLength="14" x="683" y="1222.3799">28</text><text fill="#000000" font-family="sans-serif" font-size="13" lengthAdjust="spacing" textLength="97" x="701" y="1222.3799">closestPartitions</text><line style="stroke:#181818;stroke-width:1.0;" x1="666" x2="708" y1="1258.9336" y2="1258.9336"/><line style="stroke:#181818;stroke-width:1.0;" x1="708" x2="708" y1="1258.9336" y2="1271.9336"/><line style="stroke:#181818;stroke-width:1.0;" x1="667" x2="708" y1="1271.9336" y2="1271.9336"/><polygon fill="#181818" points="677,1267.9336,667,1271.9336,677,1275.9336,673,1271.9336" style="stroke:#181818;stroke-width:1.0;"/><text fill="#000000" font-family="sans-serif" font-size="13" font-weight="bold" lengthAdjust="spacing" textLength="14" x="673" y="1253.6709">29</text><text fill="#000000" font-family="sans-serif" font-size="13" lengthAdjust="spacing" textLength="200" x="691" y="1253.6709">check if closestPartitions is empty</text><polygon fill="#181818" points="444,1299.2246,434,1303.2246,444,1307.2246,440,1303.2246" style="stroke:#181818;stroke-width:1.0;"/><line style="stroke:#181818;stroke-width:1.0;stroke-dasharray:2.0,2.0;" x1="438" x2="660" y1="1303.2246" y2="1303.2246"/><text fill="#000000" font-family="sans-serif" font-size="13" font-weight="bold" lengthAdjust="spacing" textLength="14" x="450" y="1297.9619">30</text><text fill="#000000" font-family="sans-serif" font-size="13" lengthAdjust="spacing" textLength="97" x="468" y="1297.9619">closestPartitions</text><polygon fill="#181818" points="92,1347.8066,82,1351.8066,92,1355.8066,88,1351.8066" style="stroke:#181818;stroke-width:1.0;"/><line style="stroke:#181818;stroke-width:1.0;stroke-dasharray:2.0,2.0;" x1="86" x2="422" y1="1351.8066" y2="1351.8066"/><text fill="#000000" font-family="sans-serif" font-size="13" font-weight="bold" lengthAdjust="spacing" textLength="14" x="98" y="1337.8984">31</text><text fill="#000000" font-family="sans-serif" font-size="13" lengthAdjust="spacing" textLength="296" x="116" y="1329.2529">shows the requested partition, with the difference of</text><text fill="#000000" font-family="sans-serif" font-size="13" lengthAdjust="spacing" textLength="290" x="120" y="1346.5439">properties between the two lists, and the stores ID</text><path d="M10,1373.8066 L75,1373.8066 L75,1383.0977 L65,1393.0977 L10,1393.0977 L10,1373.8066 " fill="#EEEEEE" style="stroke:#000000;stroke-width:1.5;"/><rect fill="none" height="717.1113" style="stroke:#000000;stroke-width:1.5;" width="2178" x="10" y="1373.8066"/><text fill="#000000" font-family="sans-serif" font-size="13" font-weight="bold" lengthAdjust="spacing" textLength="20" x="25" y="1388.835">opt</text><text fill="#000000" font-family="sans-serif" font-size="11" font-weight="bold" lengthAdjust="spacing" textLength="275" x="90" y="1387.6768">[user chooses to divide stores using the system]</text><polygon fill="#181818" points="644,1412.3887,654,1416.3887,644,1420.3887,648,1416.3887" style="stroke:#181818;stroke-width:1.0;"/><line style="stroke:#181818;stroke-width:1.0;" x1="433" x2="650" y1="1416.3887" y2="1416.3887"/><text fill="#000000" font-family="sans-serif" font-size="13" font-weight="bold" lengthAdjust="spacing" textLength="14" x="440" y="1411.126">32</text><text fill="#000000" font-family="sans-serif" font-size="13" lengthAdjust="spacing" textLength="106" x="458" y="1411.126">calls the controller</text><polygon fill="#181818" points="1029,1443.6797,1039,1447.6797,1029,1451.6797,1033,1447.6797" style="stroke:#181818;stroke-width:1.0;"/><line style="stroke:#181818;stroke-width:1.0;" x1="666" x2="1035" y1="1447.6797" y2="1447.6797"/><text fill="#000000" font-family="sans-serif" font-size="13" font-weight="bold" lengthAdjust="spacing" textLength="14" x="673" y="1442.417">33</text><text fill="#000000" font-family="sans-serif" font-size="13" lengthAdjust="spacing" textLength="78" x="691" y="1442.417">getStoreList()</text><polygon fill="#181818" points="1168.5,1504.9707,1178.5,1508.9707,1168.5,1512.9707,1172.5,1508.9707" style="stroke:#181818;stroke-width:1.0;"/><line style="stroke:#181818;stroke-width:1.0;" x1="1051" x2="1174.5" y1="1508.9707" y2="1508.9707"/><text fill="#000000" font-family="sans-serif" font-size="13" font-weight="bold" lengthAdjust="spacing" textLength="14" x="1058" y="1503.708">34</text><text fill="#000000" font-family="sans-serif" font-size="13" lengthAdjust="spacing" textLength="67" x="1076" y="1503.708">getInstance</text><polygon fill="#181818" points="1062,1536.2617,1052,1540.2617,1062,1544.2617,1058,1540.2617" style="stroke:#181818;stroke-width:1.0;"/><line style="stroke:#181818;stroke-width:1.0;stroke-dasharray:2.0,2.0;" x1="1056" x2="1184.5" y1="1540.2617" y2="1540.2617"/><text fill="#000000" font-family="sans-serif" font-size="13" font-weight="bold" lengthAdjust="spacing" textLength="14" x="1068" y="1534.999">35</text><text fill="#000000" font-family="sans-serif" font-size="13" lengthAdjust="spacing" textLength="49" x="1086" y="1534.999">instance</text><polygon fill="#181818" points="1314.5,1567.5527,1324.5,1571.5527,1314.5,1575.5527,1318.5,1571.5527" style="stroke:#181818;stroke-width:1.0;"/><line style="stroke:#181818;stroke-width:1.0;" x1="1051" x2="1320.5" y1="1571.5527" y2="1571.5527"/><text fill="#000000" font-family="sans-serif" font-size="13" font-weight="bold" lengthAdjust="spacing" textLength="14" x="1058" y="1566.29">36</text><text fill="#000000" font-family="sans-serif" font-size="13" lengthAdjust="spacing" textLength="111" x="1076" y="1566.29">getStoreRepository</text><polygon fill="#181818" points="1062,1598.8438,1052,1602.8438,1062,1606.8438,1058,1602.8438" style="stroke:#181818;stroke-width:1.0;"/><line style="stroke:#181818;stroke-width:1.0;stroke-dasharray:2.0,2.0;" x1="1056" x2="1330.5" y1="1602.8438" y2="1602.8438"/><text fill="#000000" font-family="sans-serif" font-size="13" font-weight="bold" lengthAdjust="spacing" textLength="14" x="1068" y="1597.5811">37</text><text fill="#000000" font-family="sans-serif" font-size="13" lengthAdjust="spacing" textLength="91" x="1086" y="1597.5811">storeRepository</text><polygon fill="#181818" points="2101,1630.1348,2111,1634.1348,2101,1638.1348,2105,1634.1348" style="stroke:#181818;stroke-width:1.0;"/><line style="stroke:#181818;stroke-width:1.0;" x1="1051" x2="2107" y1="1634.1348" y2="1634.1348"/><text fill="#000000" font-family="sans-serif" font-size="13" font-weight="bold" lengthAdjust="spacing" textLength="14" x="1058" y="1628.8721">38</text><text fill="#000000" font-family="sans-serif" font-size="13" lengthAdjust="spacing" textLength="78" x="1076" y="1628.8721">getStoreList()</text><polygon fill="#181818" points="1062,1661.4258,1052,1665.4258,1062,1669.4258,1058,1665.4258" style="stroke:#181818;stroke-width:1.0;"/><line style="stroke:#181818;stroke-width:1.0;stroke-dasharray:2.0,2.0;" x1="1056" x2="2117" y1="1665.4258" y2="1665.4258"/><text fill="#000000" font-family="sans-serif" font-size="13" font-weight="bold" lengthAdjust="spacing" textLength="14" x="1068" y="1660.1631">39</text><text fill="#000000" font-family="sans-serif" font-size="13" lengthAdjust="spacing" textLength="50" x="1086" y="1660.1631">storeList</text><polygon fill="#181818" points="677,1692.7168,667,1696.7168,677,1700.7168,673,1696.7168" style="stroke:#181818;stroke-width:1.0;"/><line style="stroke:#181818;stroke-width:1.0;stroke-dasharray:2.0,2.0;" x1="671" x2="1045" y1="1696.7168" y2="1696.7168"/><text fill="#000000" font-family="sans-serif" font-size="13" font-weight="bold" lengthAdjust="spacing" textLength="14" x="683" y="1691.4541">40</text><text fill="#000000" font-family="sans-serif" font-size="13" lengthAdjust="spacing" textLength="50" x="701" y="1691.4541">storeList</text><line style="stroke:#181818;stroke-width:1.0;" x1="666" x2="708" y1="1728.0078" y2="1728.0078"/><line style="stroke:#181818;stroke-width:1.0;" x1="708" x2="708" y1="1728.0078" y2="1741.0078"/><line style="stroke:#181818;stroke-width:1.0;" x1="667" x2="708" y1="1741.0078" y2="1741.0078"/><polygon fill="#181818" points="677,1737.0078,667,1741.0078,677,1745.0078,673,1741.0078" style="stroke:#181818;stroke-width:1.0;"/><text fill="#000000" font-family="sans-serif" font-size="13" font-weight="bold" lengthAdjust="spacing" textLength="14" x="673" y="1722.7451">41</text><text fill="#000000" font-family="sans-serif" font-size="13" lengthAdjust="spacing" textLength="175" x="691" y="1722.7451">check if the storeList is empty</text><polygon fill="#181818" points="1029,1768.2988,1039,1772.2988,1029,1776.2988,1033,1772.2988" style="stroke:#181818;stroke-width:1.0;"/><line style="stroke:#181818;stroke-width:1.0;" x1="666" x2="1035" y1="1772.2988" y2="1772.2988"/><text fill="#000000" font-family="sans-serif" font-size="13" font-weight="bold" lengthAdjust="spacing" textLength="14" x="673" y="1767.0361">42</text><text fill="#000000" font-family="sans-serif" font-size="13" lengthAdjust="spacing" textLength="219" x="691" y="1767.0361">divideStoresIntoTwoSublists(storeList)</text><polygon fill="#181818" points="1314.5,1829.5898,1324.5,1833.5898,1314.5,1837.5898,1318.5,1833.5898" style="stroke:#181818;stroke-width:1.0;"/><line style="stroke:#181818;stroke-width:1.0;" x1="1051" x2="1320.5" y1="1833.5898" y2="1833.5898"/><text fill="#000000" font-family="sans-serif" font-size="13" font-weight="bold" lengthAdjust="spacing" textLength="14" x="1058" y="1828.3271">43</text><text fill="#000000" font-family="sans-serif" font-size="13" lengthAdjust="spacing" textLength="111" x="1076" y="1828.3271">getStoreRepository</text><polygon fill="#181818" points="1062,1860.8809,1052,1864.8809,1062,1868.8809,1058,1864.8809" style="stroke:#181818;stroke-width:1.0;"/><line style="stroke:#181818;stroke-width:1.0;stroke-dasharray:2.0,2.0;" x1="1056" x2="1330.5" y1="1864.8809" y2="1864.8809"/><text fill="#000000" font-family="sans-serif" font-size="13" font-weight="bold" lengthAdjust="spacing" textLength="14" x="1068" y="1859.6182">44</text><text fill="#000000" font-family="sans-serif" font-size="13" lengthAdjust="spacing" textLength="91" x="1086" y="1859.6182">storeRepository</text><polygon fill="#181818" points="2101,1892.1719,2111,1896.1719,2101,1900.1719,2105,1896.1719" style="stroke:#181818;stroke-width:1.0;"/><line style="stroke:#181818;stroke-width:1.0;" x1="1051" x2="2107" y1="1896.1719" y2="1896.1719"/><text fill="#000000" font-family="sans-serif" font-size="13" font-weight="bold" lengthAdjust="spacing" textLength="14" x="1058" y="1890.9092">45</text><text fill="#000000" font-family="sans-serif" font-size="13" lengthAdjust="spacing" textLength="219" x="1076" y="1890.9092">divideStoresIntoTwoSublists(storeList)</text><polygon fill="#181818" points="1062,1923.4629,1052,1927.4629,1062,1931.4629,1058,1927.4629" style="stroke:#181818;stroke-width:1.0;"/><line style="stroke:#181818;stroke-width:1.0;stroke-dasharray:2.0,2.0;" x1="1056" x2="2117" y1="1927.4629" y2="1927.4629"/><text fill="#000000" font-family="sans-serif" font-size="13" font-weight="bold" lengthAdjust="spacing" textLength="14" x="1068" y="1922.2002">46</text><text fill="#000000" font-family="sans-serif" font-size="13" lengthAdjust="spacing" textLength="84" x="1086" y="1922.2002">storePartitions</text><polygon fill="#181818" points="677,1954.7539,667,1958.7539,677,1962.7539,673,1958.7539" style="stroke:#181818;stroke-width:1.0;"/><line style="stroke:#181818;stroke-width:1.0;stroke-dasharray:2.0,2.0;" x1="671" x2="1045" y1="1958.7539" y2="1958.7539"/><text fill="#000000" font-family="sans-serif" font-size="13" font-weight="bold" lengthAdjust="spacing" textLength="14" x="683" y="1953.4912">47</text><text fill="#000000" font-family="sans-serif" font-size="13" lengthAdjust="spacing" textLength="84" x="701" y="1953.4912">storePartitions</text><line style="stroke:#181818;stroke-width:1.0;" x1="666" x2="708" y1="1990.0449" y2="1990.0449"/><line style="stroke:#181818;stroke-width:1.0;" x1="708" x2="708" y1="1990.0449" y2="2003.0449"/><line style="stroke:#181818;stroke-width:1.0;" x1="667" x2="708" y1="2003.0449" y2="2003.0449"/><polygon fill="#181818" points="677,1999.0449,667,2003.0449,677,2007.0449,673,2003.0449" style="stroke:#181818;stroke-width:1.0;"/><text fill="#000000" font-family="sans-serif" font-size="13" font-weight="bold" lengthAdjust="spacing" textLength="14" x="673" y="1984.7822">48</text><text fill="#000000" font-family="sans-serif" font-size="13" lengthAdjust="spacing" textLength="187" x="691" y="1984.7822">check if storePartitions is empty</text><polygon fill="#181818" points="444,2030.3359,434,2034.3359,444,2038.3359,440,2034.3359" style="stroke:#181818;stroke-width:1.0;"/><line style="stroke:#181818;stroke-width:1.0;stroke-dasharray:2.0,2.0;" x1="438" x2="660" y1="2034.3359" y2="2034.3359"/><text fill="#000000" font-family="sans-serif" font-size="13" font-weight="bold" lengthAdjust="spacing" textLength="14" x="450" y="2029.0732">49</text><text fill="#000000" font-family="sans-serif" font-size="13" lengthAdjust="spacing" textLength="84" x="468" y="2029.0732">storePartitions</text><polygon fill="#181818" points="92,2078.918,82,2082.918,92,2086.918,88,2082.918" style="stroke:#181818;stroke-width:1.0;"/><line style="stroke:#181818;stroke-width:1.0;stroke-dasharray:2.0,2.0;" x1="86" x2="422" y1="2082.918" y2="2082.918"/><text fill="#000000" font-family="sans-serif" font-size="13" font-weight="bold" lengthAdjust="spacing" textLength="14" x="98" y="2069.0098">50</text><text fill="#000000" font-family="sans-serif" font-size="13" lengthAdjust="spacing" textLength="296" x="116" y="2060.3643">shows the requested partition, with the difference of</text><text fill="#000000" font-family="sans-serif" font-size="13" lengthAdjust="spacing" textLength="290" x="120" y="2077.6553">properties between the two lists, and the stores ID</text><!--SRC=[tLTDRzf04BtxLuno8bBu0r6L2oqL4f08qbilYpt4gvXTTtSTnB_lpFgJpKAWbTgglX3CUszcvurd754vhQhT1aqYKgSDt2pHxRLvNGWbNj3SWB2mN2IbC4wciXJAmStzcf3unBUSrEhhjvc7qUT7kAaiSAALCxee6l79ysf-J3jc1V3rqoG8ii9IMqaSYTP3Lb-U7eynPW21zmJ-EH2TQv7Dr5QRdU0afaRlE7SFdy-cqm0UWIv4MJOvrtz-Vdxyc4KWJtaFzbNfKZ_KnLWbT95nyaquP9-M2nW_i1DmJu1N2qv39jzaXc1Pm89KT8ii1bjjB3hRqza_Pev9WNGQ0Ra5boDK5WtiAPMef8VOWtMuW-yAg8ys1w98zG82Kli6MphRKN9fhhKbBXDBWriq1ZFOeSjrbkZIrG4xL1YoreugMnGcpGb3MUoDT6qGuNBGzM4wdZ_kW-z1OfR2rbZ-hIPmhPZGDM5VBj-udaaAr9OaKCIxPiHIjpsJUpZ3Oo4M81tkhSk5V2SEb5YuqBe4OWBTpg6G2XC8BX-a2HQDDIVMA4UHeRdp4hVKPX2vMgMkm- -fOlGnket2kqJx9m9EN5xvqtWyb8u_Br69GL7wM4c2Aalgd7lFf7KdhV45zjRqNU89GT7ZJT4Gg1dJr_OvOZP82weg2kvGt9Nk4BHHAegqAaYkdeH6K_xkCD6LSdIO4KjSraqy2Kdl1TrCMITKYZtDJqaFw6iXMzH0p-CQFHwKjLumZNfPFqizhfUr0NYWxk6D-dfr_TbN2R62I27foAnLQEV7bAlyZSgnuMUDdXGyvbpBwvRVA2ftcVb_qgnVppymC6s4MW5xthppy8kDUoSJ6jQlhNC1VOoZ3MfplQzNYi4V5H5fnvKjzmxsabSC_Ph9BMr0f4UFLnHjqB8k6R-lREY53B5UiRot-H6mTo1KrZUSXTbdFzmktPpzlWvs85bQs6jsNjjVSqfhzD-EfPEdZ0sWURWXuaDd_bkBf9CuDLngsttMTaOlVSzxlQusldj67VcV6ILNPnkT_1UEZNFWYqq8H4wEZ3F1_lB0y1CZ2KeLr2BCTl2T_ryOV5qkVW80]--></g></svg>