<?xml version="1.0" encoding="us-ascii" standalone="no"?><svg xmlns="http://www.w3.org/2000/svg" xmlns:xlink="http://www.w3.org/1999/xlink" contentStyleType="text/css" height="1566px" preserveAspectRatio="none" style="width:1005px;height:1566px;background:#FFFFFF;" version="1.1" viewBox="0 0 1005 1566" width="1005px" zoomAndPan="magnify"><defs/><g><!--cluster UI--><g id="cluster_UI"><path d="M617.5,6.0137 L632.5,6.0137 A3.75,3.75 0 0 1 635,8.5137 L642,30.6348 L774.5,30.6348 A2.5,2.5 0 0 1 777,33.1348 L777,104.5137 A2.5,2.5 0 0 1 774.5,107.0137 L617.5,107.0137 A2.5,2.5 0 0 1 615,104.5137 L615,8.5137 A2.5,2.5 0 0 1 617.5,6.0137 " fill="none" style="stroke:#000000;stroke-width:1.5;"/><line style="stroke:#000000;stroke-width:1.5;" x1="615" x2="642" y1="30.6348" y2="30.6348"/><text fill="#000000" font-family="sans-serif" font-size="14" font-weight="bold" lengthAdjust="spacing" textLength="14" x="619" y="23.1211">UI</text></g><!--cluster Controller--><g id="cluster_Controller"><path d="M489.5,140.0137 L561.5,140.0137 A3.75,3.75 0 0 1 564,142.5137 L571,164.6348 L902.5,164.6348 A2.5,2.5 0 0 1 905,167.1348 L905,350.5137 A2.5,2.5 0 0 1 902.5,353.0137 L489.5,353.0137 A2.5,2.5 0 0 1 487,350.5137 L487,142.5137 A2.5,2.5 0 0 1 489.5,140.0137 " fill="none" style="stroke:#000000;stroke-width:1.5;"/><line style="stroke:#000000;stroke-width:1.5;" x1="487" x2="571" y1="164.6348" y2="164.6348"/><text fill="#000000" font-family="sans-serif" font-size="14" font-weight="bold" lengthAdjust="spacing" textLength="71" x="491" y="157.1211">Controller</text></g><!--cluster Model--><g id="cluster_Model"><path d="M8.5,832.0137 L53.5,832.0137 A3.75,3.75 0 0 1 56,834.5137 L63,856.6348 L995.5,856.6348 A2.5,2.5 0 0 1 998,859.1348 L998,1556.5137 A2.5,2.5 0 0 1 995.5,1559.0137 L8.5,1559.0137 A2.5,2.5 0 0 1 6,1556.5137 L6,834.5137 A2.5,2.5 0 0 1 8.5,832.0137 " fill="none" style="stroke:#000000;stroke-width:1.5;"/><line style="stroke:#000000;stroke-width:1.5;" x1="6" x2="63" y1="856.6348" y2="856.6348"/><text fill="#000000" font-family="sans-serif" font-size="14" font-weight="bold" lengthAdjust="spacing" textLength="44" x="10" y="849.1211">Model</text></g><!--cluster repositories--><g id="cluster_repositories"><path d="M369.5,386.0137 L456.5,386.0137 A3.75,3.75 0 0 1 459,388.5137 L466,410.6348 L628.5,410.6348 A2.5,2.5 0 0 1 631,413.1348 L631,778.5137 A2.5,2.5 0 0 1 628.5,781.0137 L369.5,781.0137 A2.5,2.5 0 0 1 367,778.5137 L367,388.5137 A2.5,2.5 0 0 1 369.5,386.0137 " fill="none" style="stroke:#000000;stroke-width:1.5;"/><line style="stroke:#000000;stroke-width:1.5;" x1="367" x2="466" y1="410.6348" y2="410.6348"/><text fill="#000000" font-family="sans-serif" font-size="14" font-weight="bold" lengthAdjust="spacing" textLength="86" x="371" y="403.1211">repositories</text></g><!--class StorePartitionUI--><g id="elem_StorePartitionUI"><rect codeLine="3" fill="#F1F1F1" height="48" id="StorePartitionUI" rx="2.5" ry="2.5" style="stroke:#181818;stroke-width:0.5;" width="130" x="631" y="43.0137"/><ellipse cx="646" cy="59.0137" fill="#ADD1B2" rx="11" ry="11" style="stroke:#181818;stroke-width:1.0;"/><path d="M648.7656,54.8887 Q648.9219,54.6699 649.1094,54.5605 Q649.2969,54.4512 649.5156,54.4512 Q649.8906,54.4512 650.125,54.7168 Q650.3594,54.9668 650.3594,55.5762 L650.3594,57.0293 Q650.3594,57.6387 650.125,57.9043 Q649.8906,58.1699 649.5156,58.1699 Q649.1719,58.1699 648.9688,57.9668 Q648.7656,57.7793 648.6563,57.2637 Q648.6094,56.9043 648.4219,56.7168 Q648.0938,56.3418 647.4844,56.123 Q646.875,55.9043 646.25,55.9043 Q645.4844,55.9043 644.8438,56.2324 Q644.2188,56.5605 643.7188,57.3105 Q643.2344,58.0605 643.2344,59.0918 L643.2344,60.1855 Q643.2344,61.4199 644.125,62.248 Q645.0156,63.0605 646.6094,63.0605 Q647.5469,63.0605 648.2031,62.8105 Q648.5938,62.6543 649.0156,62.2168 Q649.2813,61.9512 649.4219,61.873 Q649.5781,61.7949 649.7813,61.7949 Q650.1094,61.7949 650.3594,62.0605 Q650.625,62.3105 650.625,62.6543 Q650.625,62.998 650.2813,63.4043 Q649.7813,63.9824 648.9844,64.3105 Q647.9063,64.7637 646.6094,64.7637 Q645.0938,64.7637 643.8906,64.1387 Q642.9063,63.6387 642.2188,62.5762 Q641.5313,61.498 641.5313,60.2168 L641.5313,59.0605 Q641.5313,57.7324 642.1406,56.5918 Q642.7656,55.4355 643.8594,54.8262 Q644.9531,54.2012 646.1875,54.2012 Q646.9219,54.2012 647.5625,54.373 Q648.2188,54.5293 648.7656,54.8887 Z " fill="#000000"/><text fill="#000000" font-family="sans-serif" font-size="14" lengthAdjust="spacing" textLength="98" x="660" y="64.8105">StorePartitionUI</text><line style="stroke:#181818;stroke-width:0.5;" x1="632" x2="760" y1="75.0137" y2="75.0137"/><line style="stroke:#181818;stroke-width:0.5;" x1="632" x2="760" y1="83.0137" y2="83.0137"/></g><!--class StorePartitionController--><g id="elem_StorePartitionController"><rect codeLine="8" fill="#F1F1F1" height="159.7266" id="StorePartitionController" rx="2.5" ry="2.5" style="stroke:#181818;stroke-width:0.5;" width="386" x="503" y="177.0137"/><ellipse cx="617.75" cy="193.0137" fill="#ADD1B2" rx="11" ry="11" style="stroke:#181818;stroke-width:1.0;"/><path d="M620.5156,188.8887 Q620.6719,188.6699 620.8594,188.5605 Q621.0469,188.4512 621.2656,188.4512 Q621.6406,188.4512 621.875,188.7168 Q622.1094,188.9668 622.1094,189.5762 L622.1094,191.0293 Q622.1094,191.6387 621.875,191.9043 Q621.6406,192.1699 621.2656,192.1699 Q620.9219,192.1699 620.7188,191.9668 Q620.5156,191.7793 620.4063,191.2637 Q620.3594,190.9043 620.1719,190.7168 Q619.8438,190.3418 619.2344,190.123 Q618.625,189.9043 618,189.9043 Q617.2344,189.9043 616.5938,190.2324 Q615.9688,190.5605 615.4688,191.3105 Q614.9844,192.0605 614.9844,193.0918 L614.9844,194.1855 Q614.9844,195.4199 615.875,196.248 Q616.7656,197.0605 618.3594,197.0605 Q619.2969,197.0605 619.9531,196.8105 Q620.3438,196.6543 620.7656,196.2168 Q621.0313,195.9512 621.1719,195.873 Q621.3281,195.7949 621.5313,195.7949 Q621.8594,195.7949 622.1094,196.0605 Q622.375,196.3105 622.375,196.6543 Q622.375,196.998 622.0313,197.4043 Q621.5313,197.9824 620.7344,198.3105 Q619.6563,198.7637 618.3594,198.7637 Q616.8438,198.7637 615.6406,198.1387 Q614.6563,197.6387 613.9688,196.5762 Q613.2813,195.498 613.2813,194.2168 L613.2813,193.0605 Q613.2813,191.7324 613.8906,190.5918 Q614.5156,189.4355 615.6094,188.8262 Q616.7031,188.2012 617.9375,188.2012 Q618.6719,188.2012 619.3125,188.373 Q619.9688,188.5293 620.5156,188.8887 Z " fill="#000000"/><text fill="#000000" font-family="sans-serif" font-size="14" lengthAdjust="spacing" textLength="148" x="638.25" y="198.8105">StorePartitionController</text><line style="stroke:#181818;stroke-width:0.5;" x1="504" x2="888" y1="209.0137" y2="209.0137"/><rect fill="none" height="6" style="stroke:#C82930;stroke-width:1.0;" width="6" x="511" y="220.8242"/><text fill="#000000" font-family="sans-serif" font-size="14" lengthAdjust="spacing" textLength="157" x="523" y="228.1211">Repositories repositories</text><line style="stroke:#181818;stroke-width:0.5;" x1="504" x2="888" y1="235.6348" y2="235.6348"/><ellipse cx="514" cy="250.4453" fill="#84BE84" rx="3" ry="3" style="stroke:#038048;stroke-width:1.0;"/><text fill="#000000" font-family="sans-serif" font-size="14" lengthAdjust="spacing" textLength="158" x="523" y="254.7422">StorePartitionController()</text><ellipse cx="514" cy="269.0664" fill="#84BE84" rx="3" ry="3" style="stroke:#038048;stroke-width:1.0;"/><text fill="#000000" font-family="sans-serif" font-size="14" lengthAdjust="spacing" textLength="112" x="523" y="273.3633">getStoreListSize()</text><ellipse cx="514" cy="287.6875" fill="#84BE84" rx="3" ry="3" style="stroke:#038048;stroke-width:1.0;"/><text fill="#000000" font-family="sans-serif" font-size="14" lengthAdjust="spacing" textLength="129" x="523" y="291.9844">getClosestPartition()</text><ellipse cx="514" cy="306.3086" fill="#84BE84" rx="3" ry="3" style="stroke:#038048;stroke-width:1.0;"/><text fill="#000000" font-family="sans-serif" font-size="14" lengthAdjust="spacing" textLength="200" x="523" y="310.6055">getDifferenceBetweenSubsets()</text><ellipse cx="514" cy="324.9297" fill="#84BE84" rx="3" ry="3" style="stroke:#038048;stroke-width:1.0;"/><text fill="#000000" font-family="sans-serif" font-size="14" lengthAdjust="spacing" textLength="360" x="523" y="329.2266">processInformation(InformationFromFileDTO information)</text></g><!--class Store--><g id="elem_Store"><rect codeLine="19" fill="#F1F1F1" height="234.2109" id="Store" rx="2.5" ry="2.5" style="stroke:#181818;stroke-width:0.5;" width="707" x="22.5" y="869.0137"/><ellipse cx="354.75" cy="885.0137" fill="#ADD1B2" rx="11" ry="11" style="stroke:#181818;stroke-width:1.0;"/><path d="M357.5156,880.8887 Q357.6719,880.6699 357.8594,880.5605 Q358.0469,880.4512 358.2656,880.4512 Q358.6406,880.4512 358.875,880.7168 Q359.1094,880.9668 359.1094,881.5762 L359.1094,883.0293 Q359.1094,883.6387 358.875,883.9043 Q358.6406,884.1699 358.2656,884.1699 Q357.9219,884.1699 357.7188,883.9668 Q357.5156,883.7793 357.4063,883.2637 Q357.3594,882.9043 357.1719,882.7168 Q356.8438,882.3418 356.2344,882.123 Q355.625,881.9043 355,881.9043 Q354.2344,881.9043 353.5938,882.2324 Q352.9688,882.5605 352.4688,883.3105 Q351.9844,884.0605 351.9844,885.0918 L351.9844,886.1855 Q351.9844,887.4199 352.875,888.248 Q353.7656,889.0605 355.3594,889.0605 Q356.2969,889.0605 356.9531,888.8105 Q357.3438,888.6543 357.7656,888.2168 Q358.0313,887.9512 358.1719,887.873 Q358.3281,887.7949 358.5313,887.7949 Q358.8594,887.7949 359.1094,888.0605 Q359.375,888.3105 359.375,888.6543 Q359.375,888.998 359.0313,889.4043 Q358.5313,889.9824 357.7344,890.3105 Q356.6563,890.7637 355.3594,890.7637 Q353.8438,890.7637 352.6406,890.1387 Q351.6563,889.6387 350.9688,888.5762 Q350.2813,887.498 350.2813,886.2168 L350.2813,885.0605 Q350.2813,883.7324 350.8906,882.5918 Q351.5156,881.4355 352.6094,880.8262 Q353.7031,880.2012 354.9375,880.2012 Q355.6719,880.2012 356.3125,880.373 Q356.9688,880.5293 357.5156,880.8887 Z " fill="#000000"/><text fill="#000000" font-family="sans-serif" font-size="14" lengthAdjust="spacing" textLength="34" x="375.25" y="890.8105">Store</text><line style="stroke:#181818;stroke-width:0.5;" x1="23.5" x2="728.5" y1="901.0137" y2="901.0137"/><rect fill="none" height="6" style="stroke:#C82930;stroke-width:1.0;" width="6" x="30.5" y="912.8242"/><text fill="#000000" font-family="sans-serif" font-size="14" lengthAdjust="spacing" textLength="30" x="42.5" y="920.1211">int id</text><rect fill="none" height="6" style="stroke:#C82930;stroke-width:1.0;" width="6" x="30.5" y="931.4453"/><text fill="#000000" font-family="sans-serif" font-size="14" lengthAdjust="spacing" textLength="114" x="42.5" y="938.7422">String designation</text><rect fill="none" height="6" style="stroke:#C82930;stroke-width:1.0;" width="6" x="30.5" y="950.0664"/><text fill="#000000" font-family="sans-serif" font-size="14" lengthAdjust="spacing" textLength="107" x="42.5" y="957.3633">Address address</text><rect fill="none" height="6" style="stroke:#C82930;stroke-width:1.0;" width="6" x="30.5" y="968.6875"/><text fill="#000000" font-family="sans-serif" font-size="14" lengthAdjust="spacing" textLength="130" x="42.5" y="975.9844">String phoneNumber</text><rect fill="none" height="6" style="stroke:#C82930;stroke-width:1.0;" width="6" x="30.5" y="987.3086"/><text fill="#000000" font-family="sans-serif" font-size="14" lengthAdjust="spacing" textLength="74" x="42.5" y="994.6055">String email</text><rect fill="none" height="6" style="stroke:#C82930;stroke-width:1.0;" width="6" x="30.5" y="1005.9297"/><text fill="#000000" font-family="sans-serif" font-size="14" lengthAdjust="spacing" textLength="137" x="42.5" y="1013.2266">Person storeManager</text><rect fill="none" height="6" style="stroke:#C82930;stroke-width:1.0;" width="6" x="30.5" y="1024.5508"/><text fill="#000000" font-family="sans-serif" font-size="14" lengthAdjust="spacing" textLength="224" x="42.5" y="1031.8477">List&lt;Advertisement&gt; displayedAdds</text><line style="stroke:#181818;stroke-width:0.5;" x1="23.5" x2="728.5" y1="1039.3613" y2="1039.3613"/><ellipse cx="33.5" cy="1054.1719" fill="#84BE84" rx="3" ry="3" style="stroke:#038048;stroke-width:1.0;"/><text fill="#000000" font-family="sans-serif" font-size="14" lengthAdjust="spacing" textLength="681" x="42.5" y="1058.4688">Store(int ID, String designation, String phoneNumber, String email, String street, City city, String postalCode)</text><ellipse cx="33.5" cy="1072.793" fill="#84BE84" rx="3" ry="3" style="stroke:#038048;stroke-width:1.0;"/><text fill="#000000" font-family="sans-serif" font-size="14" lengthAdjust="spacing" textLength="41" x="42.5" y="1077.0898">getId()</text><ellipse cx="33.5" cy="1091.4141" fill="#84BE84" rx="3" ry="3" style="stroke:#038048;stroke-width:1.0;"/><text fill="#000000" font-family="sans-serif" font-size="14" lengthAdjust="spacing" textLength="191" x="42.5" y="1095.7109">getNumberOfAdvertisements()</text></g><!--class Advertisement--><g id="elem_Advertisement"><rect codeLine="32" fill="#F1F1F1" height="141.1055" id="Advertisement" rx="2.5" ry="2.5" style="stroke:#181818;stroke-width:0.5;" width="576" x="88" y="1182.0137"/><ellipse cx="326.75" cy="1198.0137" fill="#ADD1B2" rx="11" ry="11" style="stroke:#181818;stroke-width:1.0;"/><path d="M329.5156,1193.8887 Q329.6719,1193.6699 329.8594,1193.5605 Q330.0469,1193.4512 330.2656,1193.4512 Q330.6406,1193.4512 330.875,1193.7168 Q331.1094,1193.9668 331.1094,1194.5762 L331.1094,1196.0293 Q331.1094,1196.6387 330.875,1196.9043 Q330.6406,1197.1699 330.2656,1197.1699 Q329.9219,1197.1699 329.7188,1196.9668 Q329.5156,1196.7793 329.4063,1196.2637 Q329.3594,1195.9043 329.1719,1195.7168 Q328.8438,1195.3418 328.2344,1195.123 Q327.625,1194.9043 327,1194.9043 Q326.2344,1194.9043 325.5938,1195.2324 Q324.9688,1195.5605 324.4688,1196.3105 Q323.9844,1197.0605 323.9844,1198.0918 L323.9844,1199.1855 Q323.9844,1200.4199 324.875,1201.248 Q325.7656,1202.0605 327.3594,1202.0605 Q328.2969,1202.0605 328.9531,1201.8105 Q329.3438,1201.6543 329.7656,1201.2168 Q330.0313,1200.9512 330.1719,1200.873 Q330.3281,1200.7949 330.5313,1200.7949 Q330.8594,1200.7949 331.1094,1201.0605 Q331.375,1201.3105 331.375,1201.6543 Q331.375,1201.998 331.0313,1202.4043 Q330.5313,1202.9824 329.7344,1203.3105 Q328.6563,1203.7637 327.3594,1203.7637 Q325.8438,1203.7637 324.6406,1203.1387 Q323.6563,1202.6387 322.9688,1201.5762 Q322.2813,1200.498 322.2813,1199.2168 L322.2813,1198.0605 Q322.2813,1196.7324 322.8906,1195.5918 Q323.5156,1194.4355 324.6094,1193.8262 Q325.7031,1193.2012 326.9375,1193.2012 Q327.6719,1193.2012 328.3125,1193.373 Q328.9688,1193.5293 329.5156,1193.8887 Z " fill="#000000"/><text fill="#000000" font-family="sans-serif" font-size="14" lengthAdjust="spacing" textLength="90" x="347.25" y="1203.8105">Advertisement</text><line style="stroke:#181818;stroke-width:0.5;" x1="89" x2="663" y1="1214.0137" y2="1214.0137"/><rect fill="none" height="6" style="stroke:#C82930;stroke-width:1.0;" width="6" x="96" y="1225.8242"/><text fill="#000000" font-family="sans-serif" font-size="14" lengthAdjust="spacing" textLength="158" x="108" y="1233.1211">LocalDate datePublished</text><rect fill="none" height="6" style="stroke:#C82930;stroke-width:1.0;" width="6" x="96" y="1244.4453"/><text fill="#000000" font-family="sans-serif" font-size="14" lengthAdjust="spacing" textLength="289" x="108" y="1251.7422">AdvertisementRequest advertisementRequest</text><rect fill="none" height="6" style="stroke:#C82930;stroke-width:1.0;" width="6" x="96" y="1263.0664"/><text fill="#000000" font-family="sans-serif" font-size="14" lengthAdjust="spacing" textLength="153" x="108" y="1270.3633">Commission commission</text><rect fill="none" height="6" style="stroke:#C82930;stroke-width:1.0;" width="6" x="96" y="1281.6875"/><text fill="#000000" font-family="sans-serif" font-size="14" lengthAdjust="spacing" textLength="172" x="108" y="1288.9844">AdvertisementStatus status</text><line style="stroke:#181818;stroke-width:0.5;" x1="89" x2="663" y1="1296.498" y2="1296.498"/><ellipse cx="99" cy="1311.3086" fill="#84BE84" rx="3" ry="3" style="stroke:#038048;stroke-width:1.0;"/><text fill="#000000" font-family="sans-serif" font-size="14" lengthAdjust="spacing" textLength="550" x="108" y="1315.6055">Advertisement(AdvertisementRequest advertisementRequest, Commission commission)</text></g><!--class AdvertisementRequest--><g id="elem_AdvertisementRequest"><rect codeLine="40" fill="#F1F1F1" height="141.1055" id="AdvertisementRequest" rx="2.5" ry="2.5" style="stroke:#181818;stroke-width:0.5;" width="452" x="150" y="1402.0137"/><ellipse cx="300.25" cy="1418.0137" fill="#ADD1B2" rx="11" ry="11" style="stroke:#181818;stroke-width:1.0;"/><path d="M303.0156,1413.8887 Q303.1719,1413.6699 303.3594,1413.5605 Q303.5469,1413.4512 303.7656,1413.4512 Q304.1406,1413.4512 304.375,1413.7168 Q304.6094,1413.9668 304.6094,1414.5762 L304.6094,1416.0293 Q304.6094,1416.6387 304.375,1416.9043 Q304.1406,1417.1699 303.7656,1417.1699 Q303.4219,1417.1699 303.2188,1416.9668 Q303.0156,1416.7793 302.9063,1416.2637 Q302.8594,1415.9043 302.6719,1415.7168 Q302.3438,1415.3418 301.7344,1415.123 Q301.125,1414.9043 300.5,1414.9043 Q299.7344,1414.9043 299.0938,1415.2324 Q298.4688,1415.5605 297.9688,1416.3105 Q297.4844,1417.0605 297.4844,1418.0918 L297.4844,1419.1855 Q297.4844,1420.4199 298.375,1421.248 Q299.2656,1422.0605 300.8594,1422.0605 Q301.7969,1422.0605 302.4531,1421.8105 Q302.8438,1421.6543 303.2656,1421.2168 Q303.5313,1420.9512 303.6719,1420.873 Q303.8281,1420.7949 304.0313,1420.7949 Q304.3594,1420.7949 304.6094,1421.0605 Q304.875,1421.3105 304.875,1421.6543 Q304.875,1421.998 304.5313,1422.4043 Q304.0313,1422.9824 303.2344,1423.3105 Q302.1563,1423.7637 300.8594,1423.7637 Q299.3438,1423.7637 298.1406,1423.1387 Q297.1563,1422.6387 296.4688,1421.5762 Q295.7813,1420.498 295.7813,1419.2168 L295.7813,1418.0605 Q295.7813,1416.7324 296.3906,1415.5918 Q297.0156,1414.4355 298.1094,1413.8262 Q299.2031,1413.2012 300.4375,1413.2012 Q301.1719,1413.2012 301.8125,1413.373 Q302.4688,1413.5293 303.0156,1413.8887 Z " fill="#000000"/><text fill="#000000" font-family="sans-serif" font-size="14" lengthAdjust="spacing" textLength="143" x="320.75" y="1423.8105">AdvertisementRequest</text><line style="stroke:#181818;stroke-width:0.5;" x1="151" x2="601" y1="1434.0137" y2="1434.0137"/><rect fill="none" height="6" style="stroke:#C82930;stroke-width:1.0;" width="6" x="158" y="1445.8242"/><text fill="#000000" font-family="sans-serif" font-size="14" lengthAdjust="spacing" textLength="111" x="170" y="1453.1211">Property property</text><rect fill="none" height="6" style="stroke:#C82930;stroke-width:1.0;" width="6" x="158" y="1464.4453"/><text fill="#000000" font-family="sans-serif" font-size="14" lengthAdjust="spacing" textLength="149" x="170" y="1471.7422">LocalDate creationDate</text><rect fill="none" height="6" style="stroke:#C82930;stroke-width:1.0;" width="6" x="158" y="1483.0664"/><text fill="#000000" font-family="sans-serif" font-size="14" lengthAdjust="spacing" textLength="78" x="170" y="1490.3633">double price</text><rect fill="none" height="6" style="stroke:#C82930;stroke-width:1.0;" width="6" x="158" y="1501.6875"/><text fill="#000000" font-family="sans-serif" font-size="14" lengthAdjust="spacing" textLength="68" x="170" y="1508.9844">String type</text><line style="stroke:#181818;stroke-width:0.5;" x1="151" x2="601" y1="1516.498" y2="1516.498"/><ellipse cx="161" cy="1531.3086" fill="#84BE84" rx="3" ry="3" style="stroke:#038048;stroke-width:1.0;"/><text fill="#000000" font-family="sans-serif" font-size="14" lengthAdjust="spacing" textLength="426" x="170" y="1535.6055">AdvertisementRequest(Property property, double price, String type)</text></g><!--class LoadInformationFromFile--><g id="elem_LoadInformationFromFile"><rect codeLine="48" fill="#F1F1F1" height="66.6211" id="LoadInformationFromFile" rx="2.5" ry="2.5" style="stroke:#181818;stroke-width:0.5;" width="217" x="764.5" y="952.5137"/><ellipse cx="791.65" cy="968.5137" fill="#ADD1B2" rx="11" ry="11" style="stroke:#181818;stroke-width:1.0;"/><path d="M794.4156,964.3887 Q794.5719,964.1699 794.7594,964.0605 Q794.9469,963.9512 795.1656,963.9512 Q795.5406,963.9512 795.775,964.2168 Q796.0094,964.4668 796.0094,965.0762 L796.0094,966.5293 Q796.0094,967.1387 795.775,967.4043 Q795.5406,967.6699 795.1656,967.6699 Q794.8219,967.6699 794.6188,967.4668 Q794.4156,967.2793 794.3063,966.7637 Q794.2594,966.4043 794.0719,966.2168 Q793.7438,965.8418 793.1344,965.623 Q792.525,965.4043 791.9,965.4043 Q791.1344,965.4043 790.4938,965.7324 Q789.8688,966.0605 789.3688,966.8105 Q788.8844,967.5605 788.8844,968.5918 L788.8844,969.6855 Q788.8844,970.9199 789.775,971.748 Q790.6656,972.5605 792.2594,972.5605 Q793.1969,972.5605 793.8531,972.3105 Q794.2438,972.1543 794.6656,971.7168 Q794.9313,971.4512 795.0719,971.373 Q795.2281,971.2949 795.4313,971.2949 Q795.7594,971.2949 796.0094,971.5605 Q796.275,971.8105 796.275,972.1543 Q796.275,972.498 795.9313,972.9043 Q795.4313,973.4824 794.6344,973.8105 Q793.5563,974.2637 792.2594,974.2637 Q790.7438,974.2637 789.5406,973.6387 Q788.5563,973.1387 787.8688,972.0762 Q787.1813,970.998 787.1813,969.7168 L787.1813,968.5605 Q787.1813,967.2324 787.7906,966.0918 Q788.4156,964.9355 789.5094,964.3262 Q790.6031,963.7012 791.8375,963.7012 Q792.5719,963.7012 793.2125,963.873 Q793.8688,964.0293 794.4156,964.3887 Z " fill="#000000"/><text fill="#000000" font-family="sans-serif" font-size="14" lengthAdjust="spacing" textLength="158" x="808.35" y="974.3105">LoadInformationFromFile</text><line style="stroke:#181818;stroke-width:0.5;" x1="765.5" x2="980.5" y1="984.5137" y2="984.5137"/><line style="stroke:#181818;stroke-width:0.5;" x1="765.5" x2="980.5" y1="992.5137" y2="992.5137"/><ellipse cx="775.5" cy="1007.3242" fill="#84BE84" rx="3" ry="3" style="stroke:#038048;stroke-width:1.0;"/><text fill="#000000" font-family="sans-serif" font-size="14" lengthAdjust="spacing" textLength="191" x="784.5" y="1011.6211">loadInformationFromFile(path)</text></g><!--class InformationFromFileDTO--><g id="elem_InformationFromFileDTO"><rect codeLine="52" fill="#F1F1F1" height="48" id="InformationFromFileDTO" rx="2.5" ry="2.5" style="stroke:#181818;stroke-width:0.5;" width="188" x="779" y="1228.5137"/><ellipse cx="794" cy="1244.5137" fill="#ADD1B2" rx="11" ry="11" style="stroke:#181818;stroke-width:1.0;"/><path d="M796.7656,1240.3887 Q796.9219,1240.1699 797.1094,1240.0605 Q797.2969,1239.9512 797.5156,1239.9512 Q797.8906,1239.9512 798.125,1240.2168 Q798.3594,1240.4668 798.3594,1241.0762 L798.3594,1242.5293 Q798.3594,1243.1387 798.125,1243.4043 Q797.8906,1243.6699 797.5156,1243.6699 Q797.1719,1243.6699 796.9688,1243.4668 Q796.7656,1243.2793 796.6563,1242.7637 Q796.6094,1242.4043 796.4219,1242.2168 Q796.0938,1241.8418 795.4844,1241.623 Q794.875,1241.4043 794.25,1241.4043 Q793.4844,1241.4043 792.8438,1241.7324 Q792.2188,1242.0605 791.7188,1242.8105 Q791.2344,1243.5605 791.2344,1244.5918 L791.2344,1245.6855 Q791.2344,1246.9199 792.125,1247.748 Q793.0156,1248.5605 794.6094,1248.5605 Q795.5469,1248.5605 796.2031,1248.3105 Q796.5938,1248.1543 797.0156,1247.7168 Q797.2813,1247.4512 797.4219,1247.373 Q797.5781,1247.2949 797.7813,1247.2949 Q798.1094,1247.2949 798.3594,1247.5605 Q798.625,1247.8105 798.625,1248.1543 Q798.625,1248.498 798.2813,1248.9043 Q797.7813,1249.4824 796.9844,1249.8105 Q795.9063,1250.2637 794.6094,1250.2637 Q793.0938,1250.2637 791.8906,1249.6387 Q790.9063,1249.1387 790.2188,1248.0762 Q789.5313,1246.998 789.5313,1245.7168 L789.5313,1244.5605 Q789.5313,1243.2324 790.1406,1242.0918 Q790.7656,1240.9355 791.8594,1240.3262 Q792.9531,1239.7012 794.1875,1239.7012 Q794.9219,1239.7012 795.5625,1239.873 Q796.2188,1240.0293 796.7656,1240.3887 Z " fill="#000000"/><text fill="#000000" font-family="sans-serif" font-size="14" lengthAdjust="spacing" textLength="156" x="808" y="1250.3105">InformationFromFileDTO</text><line style="stroke:#181818;stroke-width:0.5;" x1="780" x2="966" y1="1260.5137" y2="1260.5137"/><line style="stroke:#181818;stroke-width:0.5;" x1="780" x2="966" y1="1268.5137" y2="1268.5137"/></g><!--class Repositories--><g id="elem_Repositories"><rect codeLine="57" fill="#F1F1F1" height="122.4844" id="Repositories" rx="2.5" ry="2.5" style="stroke:#181818;stroke-width:0.5;" width="232" x="383" y="423.0137"/><ellipse cx="455.25" cy="439.0137" fill="#ADD1B2" rx="11" ry="11" style="stroke:#181818;stroke-width:1.0;"/><path d="M458.0156,434.8887 Q458.1719,434.6699 458.3594,434.5605 Q458.5469,434.4512 458.7656,434.4512 Q459.1406,434.4512 459.375,434.7168 Q459.6094,434.9668 459.6094,435.5762 L459.6094,437.0293 Q459.6094,437.6387 459.375,437.9043 Q459.1406,438.1699 458.7656,438.1699 Q458.4219,438.1699 458.2188,437.9668 Q458.0156,437.7793 457.9063,437.2637 Q457.8594,436.9043 457.6719,436.7168 Q457.3438,436.3418 456.7344,436.123 Q456.125,435.9043 455.5,435.9043 Q454.7344,435.9043 454.0938,436.2324 Q453.4688,436.5605 452.9688,437.3105 Q452.4844,438.0605 452.4844,439.0918 L452.4844,440.1855 Q452.4844,441.4199 453.375,442.248 Q454.2656,443.0605 455.8594,443.0605 Q456.7969,443.0605 457.4531,442.8105 Q457.8438,442.6543 458.2656,442.2168 Q458.5313,441.9512 458.6719,441.873 Q458.8281,441.7949 459.0313,441.7949 Q459.3594,441.7949 459.6094,442.0605 Q459.875,442.3105 459.875,442.6543 Q459.875,442.998 459.5313,443.4043 Q459.0313,443.9824 458.2344,444.3105 Q457.1563,444.7637 455.8594,444.7637 Q454.3438,444.7637 453.1406,444.1387 Q452.1563,443.6387 451.4688,442.5762 Q450.7813,441.498 450.7813,440.2168 L450.7813,439.0605 Q450.7813,437.7324 451.3906,436.5918 Q452.0156,435.4355 453.1094,434.8262 Q454.2031,434.2012 455.4375,434.2012 Q456.1719,434.2012 456.8125,434.373 Q457.4688,434.5293 458.0156,434.8887 Z " fill="#000000"/><text fill="#000000" font-family="sans-serif" font-size="14" lengthAdjust="spacing" textLength="79" x="475.75" y="444.8105">Repositories</text><line style="stroke:#181818;stroke-width:0.5;" x1="384" x2="614" y1="455.0137" y2="455.0137"/><rect fill="none" height="6" style="stroke:#C82930;stroke-width:1.0;" width="6" x="391" y="466.8242"/><text fill="#000000" font-family="sans-serif" font-size="14" lengthAdjust="spacing" textLength="206" x="403" y="474.1211">StoreRepository storeRepository</text><line style="stroke:#181818;stroke-width:0.5;" x1="384" x2="614" y1="481.6348" y2="481.6348"/><ellipse cx="394" cy="496.4453" fill="#84BE84" rx="3" ry="3" style="stroke:#038048;stroke-width:1.0;"/><text fill="#000000" font-family="sans-serif" font-size="14" lengthAdjust="spacing" textLength="89" x="403" y="500.7422">Repositories()</text><ellipse cx="394" cy="515.0664" fill="#84BE84" rx="3" ry="3" style="stroke:#038048;stroke-width:1.0;"/><text fill="#000000" font-family="sans-serif" font-size="14" lengthAdjust="spacing" textLength="170" x="403" y="519.3633">getInstance(): Repositories</text><ellipse cx="394" cy="533.6875" fill="#84BE84" rx="3" ry="3" style="stroke:#038048;stroke-width:1.0;"/><text fill="#000000" font-family="sans-serif" font-size="14" lengthAdjust="spacing" textLength="132" x="403" y="537.9844">getStoreRepository()</text></g><!--class StoreRepository--><g id="elem_StoreRepository"><rect codeLine="64" fill="#F1F1F1" height="141.1055" id="StoreRepository" rx="2.5" ry="2.5" style="stroke:#181818;stroke-width:0.5;" width="226" x="384" y="624.0137"/><ellipse cx="441.75" cy="640.0137" fill="#ADD1B2" rx="11" ry="11" style="stroke:#181818;stroke-width:1.0;"/><path d="M444.5156,635.8887 Q444.6719,635.6699 444.8594,635.5605 Q445.0469,635.4512 445.2656,635.4512 Q445.6406,635.4512 445.875,635.7168 Q446.1094,635.9668 446.1094,636.5762 L446.1094,638.0293 Q446.1094,638.6387 445.875,638.9043 Q445.6406,639.1699 445.2656,639.1699 Q444.9219,639.1699 444.7188,638.9668 Q444.5156,638.7793 444.4063,638.2637 Q444.3594,637.9043 444.1719,637.7168 Q443.8438,637.3418 443.2344,637.123 Q442.625,636.9043 442,636.9043 Q441.2344,636.9043 440.5938,637.2324 Q439.9688,637.5605 439.4688,638.3105 Q438.9844,639.0605 438.9844,640.0918 L438.9844,641.1855 Q438.9844,642.4199 439.875,643.248 Q440.7656,644.0605 442.3594,644.0605 Q443.2969,644.0605 443.9531,643.8105 Q444.3438,643.6543 444.7656,643.2168 Q445.0313,642.9512 445.1719,642.873 Q445.3281,642.7949 445.5313,642.7949 Q445.8594,642.7949 446.1094,643.0605 Q446.375,643.3105 446.375,643.6543 Q446.375,643.998 446.0313,644.4043 Q445.5313,644.9824 444.7344,645.3105 Q443.6563,645.7637 442.3594,645.7637 Q440.8438,645.7637 439.6406,645.1387 Q438.6563,644.6387 437.9688,643.5762 Q437.2813,642.498 437.2813,641.2168 L437.2813,640.0605 Q437.2813,638.7324 437.8906,637.5918 Q438.5156,636.4355 439.6094,635.8262 Q440.7031,635.2012 441.9375,635.2012 Q442.6719,635.2012 443.3125,635.373 Q443.9688,635.5293 444.5156,635.8887 Z " fill="#000000"/><text fill="#000000" font-family="sans-serif" font-size="14" lengthAdjust="spacing" textLength="102" x="462.25" y="645.8105">StoreRepository</text><line style="stroke:#181818;stroke-width:0.5;" x1="385" x2="609" y1="656.0137" y2="656.0137"/><rect fill="none" height="6" style="stroke:#C82930;stroke-width:1.0;" width="6" x="392" y="667.8242"/><text fill="#000000" font-family="sans-serif" font-size="14" lengthAdjust="spacing" textLength="130" x="404" y="675.1211">List&lt;Store&gt; storeList</text><line style="stroke:#181818;stroke-width:0.5;" x1="385" x2="609" y1="682.6348" y2="682.6348"/><ellipse cx="395" cy="697.4453" fill="#84BE84" rx="3" ry="3" style="stroke:#038048;stroke-width:1.0;"/><text fill="#000000" font-family="sans-serif" font-size="14" lengthAdjust="spacing" textLength="112" x="404" y="701.7422">StoreRepository()</text><ellipse cx="395" cy="716.0664" fill="#84BE84" rx="3" ry="3" style="stroke:#038048;stroke-width:1.0;"/><text fill="#000000" font-family="sans-serif" font-size="14" lengthAdjust="spacing" textLength="86" x="404" y="720.3633">getStoreList()</text><ellipse cx="395" cy="734.6875" fill="#84BE84" rx="3" ry="3" style="stroke:#038048;stroke-width:1.0;"/><text fill="#000000" font-family="sans-serif" font-size="14" lengthAdjust="spacing" textLength="132" x="404" y="738.9844">findClosestPartition()</text><ellipse cx="395" cy="753.3086" fill="#84BE84" rx="3" ry="3" style="stroke:#038048;stroke-width:1.0;"/><text fill="#000000" font-family="sans-serif" font-size="14" lengthAdjust="spacing" textLength="200" x="404" y="757.6055">getDifferenceBetweenSubsets()</text></g><!--link StorePartitionUI to StorePartitionController--><g id="link_StorePartitionUI_StorePartitionController"><path codeLine="73" d="M696,91.0637 C696,111.3637 696,142.2137 696,171.7637 " fill="none" id="StorePartitionUI-to-StorePartitionController" style="stroke:#181818;stroke-width:1.0;"/><polygon fill="#181818" points="696,176.8837,700,167.8837,696,171.8837,692,167.8837,696,176.8837" style="stroke:#181818;stroke-width:1.0;"/></g><!--link StorePartitionController to Repositories--><g id="link_StorePartitionController_Repositories"><path codeLine="74" d="M626.82,337.0237 C603.35,363.8237 577.44,393.4237 555.12,418.9137 " fill="none" id="StorePartitionController-to-Repositories" style="stroke:#181818;stroke-width:1.0;"/><polygon fill="#181818" points="551.57,422.9737,560.5146,418.8513,554.8696,419.217,554.5039,413.572,551.57,422.9737" style="stroke:#181818;stroke-width:1.0;"/></g><!--link StorePartitionController to LoadInformationFromFile--><g id="link_StorePartitionController_LoadInformationFromFile"><path codeLine="75" d="M715.28,337.2037 C753.2,492.9437 836.19,833.8237 863.84,947.3737 " fill="none" id="StorePartitionController-to-LoadInformationFromFile" style="stroke:#181818;stroke-width:1.0;"/><polygon fill="#181818" points="865.03,952.2837,866.7815,942.5918,863.8442,947.4263,859.0097,944.489,865.03,952.2837" style="stroke:#181818;stroke-width:1.0;"/></g><!--link Repositories to StoreRepository--><g id="link_Repositories_StoreRepository"><path codeLine="76" d="M498.42,545.0437 C498.2,568.0637 497.95,594.6237 497.72,618.8537 " fill="none" id="Repositories-to-StoreRepository" style="stroke:#181818;stroke-width:1.0;"/><polygon fill="#181818" points="497.67,623.9837,501.7472,615.0184,497.713,618.9839,493.7475,614.9496,497.67,623.9837" style="stroke:#181818;stroke-width:1.0;"/><text fill="#000000" font-family="sans-serif" font-size="13" lengthAdjust="spacing" textLength="28" x="499" y="590.042">uses</text></g><!--link StoreRepository to Store--><g id="link_StoreRepository_Store"><path codeLine="77" d="M467.86,765.2237 C455.5,794.8037 440.72,830.1637 426.67,863.7837 " fill="none" id="StoreRepository-to-Store" style="stroke:#181818;stroke-width:1.0;"/><polygon fill="#181818" points="424.6,868.7337,431.7613,861.9723,426.5281,864.1204,424.38,858.8873,424.6,868.7337" style="stroke:#181818;stroke-width:1.0;"/><text fill="#000000" font-family="sans-serif" font-size="13" lengthAdjust="spacing" textLength="28" x="455" y="812.042">uses</text></g><!--link Store to Advertisement--><g id="link_Store_Advertisement"><path codeLine="78" d="M376,1103.0237 C376,1128.0637 376,1153.8837 376,1176.8337 " fill="none" id="Store-to-Advertisement" style="stroke:#181818;stroke-width:1.0;"/><polygon fill="#181818" points="376,1181.9937,380,1172.9937,376,1176.9937,372,1172.9937,376,1181.9937" style="stroke:#181818;stroke-width:1.0;"/><text fill="#000000" font-family="sans-serif" font-size="13" lengthAdjust="spacing" textLength="21" x="377" y="1148.042">has</text></g><!--link Advertisement to AdvertisementRequest--><g id="link_Advertisement_AdvertisementRequest"><path codeLine="79" d="M376,1323.0937 C376,1346.5937 376,1372.9137 376,1396.7937 " fill="none" id="Advertisement-to-AdvertisementRequest" style="stroke:#181818;stroke-width:1.0;"/><polygon fill="#181818" points="376,1401.8537,380,1392.8537,376,1396.8537,372,1392.8537,376,1401.8537" style="stroke:#181818;stroke-width:1.0;"/><text fill="#000000" font-family="sans-serif" font-size="13" lengthAdjust="spacing" textLength="21" x="377" y="1368.042">has</text></g><!--link LoadInformationFromFile to InformationFromFileDTO--><g id="link_LoadInformationFromFile_InformationFromFileDTO"><path codeLine="80" d="M873,1019.7137 C873,1071.9837 873,1173.5237 873,1223.0137 " fill="none" id="LoadInformationFromFile-to-InformationFromFileDTO" style="stroke:#181818;stroke-width:1.0;"/><polygon fill="#181818" points="873,1228.2137,877,1219.2137,873,1223.2137,869,1219.2137,873,1228.2137" style="stroke:#181818;stroke-width:1.0;"/><text fill="#000000" font-family="sans-serif" font-size="13" lengthAdjust="spacing" textLength="43" x="874" y="1148.042">creates</text></g><!--SRC=[dLLTRjim37xtAVJeeEu5WY50bw10W7GDakq0YiKamcJ94-KDMT6xJxPbHPBjejYBRP4V_pwHT4tBd_G2vCUMl6M4b88YagDH6lPK6swuaaxrdhrdMUtWQoMDLaA0dZLB88GyaWFK2hb5SK2YWqEdVvXra2ySu0Acm-mucYF_2w5YBHG26cyUwZRyV0ODieIlOFu0o6DpGZ3eCRLM9I1kvLdfYdRcmVUpLjKp5x3v_ahuNRn8MNbH34HAYA-UIqCuSuUZqLnU20Fa5zbvSuednhJDXD3-7SFhgvBmhQbEe6C5L9GB9zg3HYK9ji5VgBI93U2MjYzFx3TOYX0ga6P56CTQq1im6pYwXxpDTxif9b8j9l8febJy2Oq6C0LPStCZfNtSRHKQAjQMik2YjYoyjjxpwpbAkRyqo_h0SgJrREzKISM66Y3CFlRDIN2y0lCi1pO7-DNOph6KZuKElrPLnH5jxQJqdrE-ZeQQ1ctPxSjL4W7oJuSkfgD-LFtWRY1XhrLjjRUslxkF4JcbXkvAsuDJCcN90cl2IuYxpDngcAh9XSr7uOh8MH7wIShOASec9gwlv45CQ_EQcclYQ6PiHniiN3_1o1vISL- -dGUlkVMZTJyxIaBJi8ktqdQ3NJtvOXbXafrszvSsU1h-BHpdJhdgKse5uGWdBjCDweLdBjb_hy-ErT4Vu_5nDRlEizaVHMiLKVGXSgPdikWEVI81WKlIuE0y47je1EZ4yOvPaYl5B9QDKCCizk2v_cxDPbfssG-dpUCV]--></g></svg>