<?xml version="1.0" encoding="us-ascii" standalone="no"?><svg xmlns="http://www.w3.org/2000/svg" xmlns:xlink="http://www.w3.org/1999/xlink" contentStyleType="text/css" height="2029px" preserveAspectRatio="none" style="width:2542px;height:2029px;background:#FFFFFF;" version="1.1" viewBox="0 0 2542 2029" width="2542px" zoomAndPan="magnify"><defs/><g><rect fill="#FFFFFF" height="1838.7422" style="stroke:#181818;stroke-width:1.0;" width="10" x="83" y="91.4883"/><rect fill="#FFFFFF" height="320.5938" style="stroke:#181818;stroke-width:1.0;" width="10" x="418" y="112.7988"/><rect fill="#FFFFFF" height="29.3105" style="stroke:#181818;stroke-width:1.0;" width="10" x="418" y="462.7031"/><rect fill="#FFFFFF" height="29.3105" style="stroke:#181818;stroke-width:1.0;" width="10" x="418" y="551.9453"/><rect fill="#FFFFFF" height="1319.6641" style="stroke:#181818;stroke-width:1.0;" width="10" x="418" y="610.5664"/><rect fill="#FFFFFF" height="205.1738" style="stroke:#181818;stroke-width:1.0;" width="10" x="629" y="183.5977"/><rect fill="#FFFFFF" height="1184.4902" style="stroke:#181818;stroke-width:1.0;" width="10" x="629" y="716.4297"/><rect fill="#FFFFFF" height="216.1738" style="stroke:#181818;stroke-width:1.0;" width="10" x="634" y="753.7402"/><rect fill="#FFFFFF" height="481.9688" style="stroke:#181818;stroke-width:1.0;" width="10" x="634" y="1039.2246"/><rect fill="#FFFFFF" height="29.3105" style="stroke:#181818;stroke-width:1.0;" width="10" x="1032" y="212.9082"/><rect fill="#FFFFFF" height="29.3105" style="stroke:#181818;stroke-width:1.0;" width="10" x="1032" y="788.0508"/><rect fill="#FFFFFF" height="29.3105" style="stroke:#181818;stroke-width:1.0;" width="10" x="1145" y="271.5293"/><rect fill="#FFFFFF" height="29.3105" style="stroke:#181818;stroke-width:1.0;" width="10" x="1145" y="846.6719"/><rect fill="#FFFFFF" height="29.3105" style="stroke:#181818;stroke-width:1.0;" width="10" x="1145" y="1249.3984"/><rect fill="#FFFFFF" height="29.3105" style="stroke:#181818;stroke-width:1.0;" width="10" x="1297" y="330.1504"/><rect fill="#FFFFFF" height="29.3105" style="stroke:#181818;stroke-width:1.0;" width="10" x="1297" y="905.293"/><rect fill="#FFFFFF" height="29.3105" style="stroke:#181818;stroke-width:1.0;" width="10" x="1471.5" y="1073.5352"/><rect fill="#FFFFFF" height="29.3105" style="stroke:#181818;stroke-width:1.0;" width="10" x="1629.5" y="1132.1563"/><rect fill="#FFFFFF" height="29.3105" style="stroke:#181818;stroke-width:1.0;" width="10" x="1771.5" y="1190.7773"/><rect fill="#FFFFFF" height="119.2422" style="stroke:#181818;stroke-width:1.0;" width="10" x="1929" y="1308.0195"/><rect fill="#FFFFFF" height="29.3105" style="stroke:#181818;stroke-width:1.0;" width="10" x="2162" y="1361.6406"/><rect fill="#FFFFFF" height="29.3105" style="stroke:#181818;stroke-width:1.0;" width="10" x="2162" y="1456.5723"/><rect fill="#FFFFFF" height="258.4844" style="stroke:#181818;stroke-width:1.0;" width="10" x="2162" y="1613.125"/><rect fill="#FFFFFF" height="124.9316" style="stroke:#181818;stroke-width:1.0;" width="10" x="2167" y="1710.3672"/><rect fill="#FFFFFF" height="40.3105" style="stroke:#181818;stroke-width:1.0;" width="10" x="2172" y="1752.6777"/><rect fill="none" height="75.9316" style="stroke:#000000;stroke-width:1.5;" width="396.5" x="1834.5" y="1323.0195"/><line style="stroke:#181818;stroke-width:0.5;stroke-dasharray:5.0,5.0;" x1="88" x2="88" y1="81.4883" y2="1948.2305"/><line style="stroke:#181818;stroke-width:0.5;stroke-dasharray:5.0,5.0;" x1="422.5" x2="422.5" y1="81.4883" y2="1948.2305"/><line style="stroke:#181818;stroke-width:0.5;stroke-dasharray:5.0,5.0;" x1="633.5" x2="633.5" y1="151.543" y2="1948.2305"/><line style="stroke:#181818;stroke-width:0.5;stroke-dasharray:5.0,5.0;" x1="1036.5" x2="1036.5" y1="81.4883" y2="1948.2305"/><line style="stroke:#181818;stroke-width:0.5;stroke-dasharray:5.0,5.0;" x1="1149.5" x2="1149.5" y1="81.4883" y2="1948.2305"/><line style="stroke:#181818;stroke-width:0.5;stroke-dasharray:5.0,5.0;" x1="1301.5" x2="1301.5" y1="81.4883" y2="1948.2305"/><line style="stroke:#181818;stroke-width:0.5;stroke-dasharray:5.0,5.0;" x1="1476.5" x2="1476.5" y1="81.4883" y2="1948.2305"/><line style="stroke:#181818;stroke-width:0.5;stroke-dasharray:5.0,5.0;" x1="1634.5" x2="1634.5" y1="81.4883" y2="1948.2305"/><line style="stroke:#181818;stroke-width:0.5;stroke-dasharray:5.0,5.0;" x1="1776.5" x2="1776.5" y1="81.4883" y2="1948.2305"/><line style="stroke:#181818;stroke-width:0.5;stroke-dasharray:5.0,5.0;" x1="1933.5" x2="1933.5" y1="81.4883" y2="1948.2305"/><line style="stroke:#181818;stroke-width:0.5;stroke-dasharray:5.0,5.0;" x1="2167" x2="2167" y1="81.4883" y2="1948.2305"/><line style="stroke:#181818;stroke-width:0.5;stroke-dasharray:5.0,5.0;" x1="2511" x2="2511" y1="1661.0908" y2="1948.2305"/><text fill="#000000" font-family="sans-serif" font-size="14" lengthAdjust="spacing" textLength="160" x="5" y="78.5352">Organization Employee</text><ellipse cx="88" cy="13.5" fill="#E3E3E3" rx="8" ry="8" style="stroke:#181818;stroke-width:0.5;"/><path d="M88,21.5 L88,48.5 M75,29.5 L101,29.5 M88,48.5 L75,63.5 M88,48.5 L101,63.5 " fill="none" style="stroke:#181818;stroke-width:0.5;"/><text fill="#000000" font-family="sans-serif" font-size="14" lengthAdjust="spacing" textLength="160" x="5" y="1960.7656">Organization Employee</text><ellipse cx="88" cy="1972.2188" fill="#E3E3E3" rx="8" ry="8" style="stroke:#181818;stroke-width:0.5;"/><path d="M88,1980.2188 L88,2007.2188 M75,1988.2188 L101,1988.2188 M88,2007.2188 L75,2022.2188 M88,2007.2188 L101,2022.2188 " fill="none" style="stroke:#181818;stroke-width:0.5;"/><rect fill="#E3E3E3" height="30.4883" rx="2.5" ry="2.5" style="stroke:#181818;stroke-width:0.5;" width="109" x="368.5" y="50"/><text fill="#000000" font-family="sans-serif" font-size="14" lengthAdjust="spacing" textLength="95" x="375.5" y="70.5352">:CreateTaskUI</text><rect fill="#E3E3E3" height="30.4883" rx="2.5" ry="2.5" style="stroke:#181818;stroke-width:0.5;" width="109" x="368.5" y="1947.2305"/><text fill="#000000" font-family="sans-serif" font-size="14" lengthAdjust="spacing" textLength="95" x="375.5" y="1967.7656">:CreateTaskUI</text><rect fill="#E3E3E3" height="30.4883" rx="2.5" ry="2.5" style="stroke:#181818;stroke-width:0.5;" width="165" x="551.5" y="1947.2305"/><text fill="#000000" font-family="sans-serif" font-size="14" lengthAdjust="spacing" textLength="151" x="558.5" y="1967.7656">:CreateTaskController</text><rect fill="#E3E3E3" height="30.4883" rx="2.5" ry="2.5" style="stroke:#181818;stroke-width:0.5;" width="103" x="985.5" y="50"/><text fill="#000000" font-family="sans-serif" font-size="14" lengthAdjust="spacing" textLength="89" x="992.5" y="70.5352">:Repositories</text><rect fill="#E3E3E3" height="30.4883" rx="2.5" ry="2.5" style="stroke:#181818;stroke-width:0.5;" width="103" x="985.5" y="1947.2305"/><text fill="#000000" font-family="sans-serif" font-size="14" lengthAdjust="spacing" textLength="89" x="992.5" y="1967.7656">:Repositories</text><rect fill="#E3E3E3" height="46.9766" rx="2.5" ry="2.5" style="stroke:#181818;stroke-width:0.5;" width="103" x="1098.5" y="33.5117"/><text fill="#000000" font-family="sans-serif" font-size="14" lengthAdjust="spacing" textLength="82" x="1109" y="54.0469">repositories</text><text fill="#000000" font-family="sans-serif" font-size="14" lengthAdjust="spacing" textLength="89" x="1105.5" y="70.5352">:Repositories</text><rect fill="#E3E3E3" height="46.9766" rx="2.5" ry="2.5" style="stroke:#181818;stroke-width:0.5;" width="103" x="1098.5" y="1947.2305"/><text fill="#000000" font-family="sans-serif" font-size="14" lengthAdjust="spacing" textLength="82" x="1109" y="1967.7656">repositories</text><text fill="#000000" font-family="sans-serif" font-size="14" lengthAdjust="spacing" textLength="89" x="1105.5" y="1984.2539">:Repositories</text><rect fill="#E3E3E3" height="46.9766" rx="2.5" ry="2.5" style="stroke:#181818;stroke-width:0.5;" width="181" x="1211.5" y="33.5117"/><text fill="#000000" font-family="sans-serif" font-size="14" lengthAdjust="spacing" textLength="167" x="1218.5" y="54.0469">taskCategoryRepository:</text><text fill="#000000" font-family="sans-serif" font-size="14" lengthAdjust="spacing" textLength="167" x="1218.5" y="70.5352">TaskCategoryRepository</text><rect fill="#E3E3E3" height="46.9766" rx="2.5" ry="2.5" style="stroke:#181818;stroke-width:0.5;" width="181" x="1211.5" y="1947.2305"/><text fill="#000000" font-family="sans-serif" font-size="14" lengthAdjust="spacing" textLength="167" x="1218.5" y="1967.7656">taskCategoryRepository:</text><text fill="#000000" font-family="sans-serif" font-size="14" lengthAdjust="spacing" textLength="167" x="1218.5" y="1984.2539">TaskCategoryRepository</text><rect fill="#E3E3E3" height="30.4883" rx="2.5" ry="2.5" style="stroke:#181818;stroke-width:0.5;" width="148" x="1402.5" y="50"/><text fill="#000000" font-family="sans-serif" font-size="14" lengthAdjust="spacing" textLength="134" x="1409.5" y="70.5352">:ApplicationSession</text><rect fill="#E3E3E3" height="30.4883" rx="2.5" ry="2.5" style="stroke:#181818;stroke-width:0.5;" width="148" x="1402.5" y="1947.2305"/><text fill="#000000" font-family="sans-serif" font-size="14" lengthAdjust="spacing" textLength="134" x="1409.5" y="1967.7656">:ApplicationSession</text><rect fill="#E3E3E3" height="46.9766" rx="2.5" ry="2.5" style="stroke:#181818;stroke-width:0.5;" width="148" x="1560.5" y="33.5117"/><text fill="#000000" font-family="sans-serif" font-size="14" lengthAdjust="spacing" textLength="78" x="1595.5" y="54.0469">appSession</text><text fill="#000000" font-family="sans-serif" font-size="14" lengthAdjust="spacing" textLength="134" x="1567.5" y="70.5352">:ApplicationSession</text><rect fill="#E3E3E3" height="46.9766" rx="2.5" ry="2.5" style="stroke:#181818;stroke-width:0.5;" width="148" x="1560.5" y="1947.2305"/><text fill="#000000" font-family="sans-serif" font-size="14" lengthAdjust="spacing" textLength="78" x="1595.5" y="1967.7656">appSession</text><text fill="#000000" font-family="sans-serif" font-size="14" lengthAdjust="spacing" textLength="134" x="1567.5" y="1984.2539">:ApplicationSession</text><rect fill="#E3E3E3" height="46.9766" rx="2.5" ry="2.5" style="stroke:#181818;stroke-width:0.5;" width="116" x="1718.5" y="33.5117"/><text fill="#000000" font-family="sans-serif" font-size="14" lengthAdjust="spacing" textLength="102" x="1725.5" y="54.0469">currentSession</text><text fill="#000000" font-family="sans-serif" font-size="14" lengthAdjust="spacing" textLength="87" x="1733" y="70.5352">:UserSession</text><rect fill="#E3E3E3" height="46.9766" rx="2.5" ry="2.5" style="stroke:#181818;stroke-width:0.5;" width="116" x="1718.5" y="1947.2305"/><text fill="#000000" font-family="sans-serif" font-size="14" lengthAdjust="spacing" textLength="102" x="1725.5" y="1967.7656">currentSession</text><text fill="#000000" font-family="sans-serif" font-size="14" lengthAdjust="spacing" textLength="87" x="1733" y="1984.2539">:UserSession</text><rect fill="#E3E3E3" height="46.9766" rx="2.5" ry="2.5" style="stroke:#181818;stroke-width:0.5;" width="179" x="1844.5" y="33.5117"/><text fill="#000000" font-family="sans-serif" font-size="14" lengthAdjust="spacing" textLength="165" x="1851.5" y="54.0469">organizationRepository:</text><text fill="#000000" font-family="sans-serif" font-size="14" lengthAdjust="spacing" textLength="163" x="1852.5" y="70.5352">OrganizationRepository</text><rect fill="#E3E3E3" height="46.9766" rx="2.5" ry="2.5" style="stroke:#181818;stroke-width:0.5;" width="179" x="1844.5" y="1947.2305"/><text fill="#000000" font-family="sans-serif" font-size="14" lengthAdjust="spacing" textLength="165" x="1851.5" y="1967.7656">organizationRepository:</text><text fill="#000000" font-family="sans-serif" font-size="14" lengthAdjust="spacing" textLength="163" x="1852.5" y="1984.2539">OrganizationRepository</text><rect fill="#E3E3E3" height="46.9766" rx="2.5" ry="2.5" style="stroke:#181818;stroke-width:0.5;" width="108" x="2113" y="33.5117"/><text fill="#000000" font-family="sans-serif" font-size="14" lengthAdjust="spacing" textLength="88" x="2123" y="54.0469">organization</text><text fill="#000000" font-family="sans-serif" font-size="14" lengthAdjust="spacing" textLength="94" x="2120" y="70.5352">:Organization</text><rect fill="#E3E3E3" height="46.9766" rx="2.5" ry="2.5" style="stroke:#181818;stroke-width:0.5;" width="108" x="2113" y="1947.2305"/><text fill="#000000" font-family="sans-serif" font-size="14" lengthAdjust="spacing" textLength="88" x="2123" y="1967.7656">organization</text><text fill="#000000" font-family="sans-serif" font-size="14" lengthAdjust="spacing" textLength="94" x="2120" y="1984.2539">:Organization</text><rect fill="#E3E3E3" height="46.9766" rx="2.5" ry="2.5" style="stroke:#181818;stroke-width:0.5;" width="50" x="2486" y="1947.2305"/><text fill="#000000" font-family="sans-serif" font-size="14" lengthAdjust="spacing" textLength="28" x="2497" y="1967.7656">task</text><text fill="#000000" font-family="sans-serif" font-size="14" lengthAdjust="spacing" textLength="36" x="2493" y="1984.2539">:Task</text><rect fill="#FFFFFF" height="1838.7422" style="stroke:#181818;stroke-width:1.0;" width="10" x="83" y="91.4883"/><rect fill="#FFFFFF" height="320.5938" style="stroke:#181818;stroke-width:1.0;" width="10" x="418" y="112.7988"/><rect fill="#FFFFFF" height="29.3105" style="stroke:#181818;stroke-width:1.0;" width="10" x="418" y="462.7031"/><rect fill="#FFFFFF" height="29.3105" style="stroke:#181818;stroke-width:1.0;" width="10" x="418" y="551.9453"/><rect fill="#FFFFFF" height="1319.6641" style="stroke:#181818;stroke-width:1.0;" width="10" x="418" y="610.5664"/><rect fill="#FFFFFF" height="205.1738" style="stroke:#181818;stroke-width:1.0;" width="10" x="629" y="183.5977"/><rect fill="#FFFFFF" height="1184.4902" style="stroke:#181818;stroke-width:1.0;" width="10" x="629" y="716.4297"/><rect fill="#FFFFFF" height="216.1738" style="stroke:#181818;stroke-width:1.0;" width="10" x="634" y="753.7402"/><rect fill="#FFFFFF" height="481.9688" style="stroke:#181818;stroke-width:1.0;" width="10" x="634" y="1039.2246"/><rect fill="#FFFFFF" height="29.3105" style="stroke:#181818;stroke-width:1.0;" width="10" x="1032" y="212.9082"/><rect fill="#FFFFFF" height="29.3105" style="stroke:#181818;stroke-width:1.0;" width="10" x="1032" y="788.0508"/><rect fill="#FFFFFF" height="29.3105" style="stroke:#181818;stroke-width:1.0;" width="10" x="1145" y="271.5293"/><rect fill="#FFFFFF" height="29.3105" style="stroke:#181818;stroke-width:1.0;" width="10" x="1145" y="846.6719"/><rect fill="#FFFFFF" height="29.3105" style="stroke:#181818;stroke-width:1.0;" width="10" x="1145" y="1249.3984"/><rect fill="#FFFFFF" height="29.3105" style="stroke:#181818;stroke-width:1.0;" width="10" x="1297" y="330.1504"/><rect fill="#FFFFFF" height="29.3105" style="stroke:#181818;stroke-width:1.0;" width="10" x="1297" y="905.293"/><rect fill="#FFFFFF" height="29.3105" style="stroke:#181818;stroke-width:1.0;" width="10" x="1471.5" y="1073.5352"/><rect fill="#FFFFFF" height="29.3105" style="stroke:#181818;stroke-width:1.0;" width="10" x="1629.5" y="1132.1563"/><rect fill="#FFFFFF" height="29.3105" style="stroke:#181818;stroke-width:1.0;" width="10" x="1771.5" y="1190.7773"/><rect fill="#FFFFFF" height="119.2422" style="stroke:#181818;stroke-width:1.0;" width="10" x="1929" y="1308.0195"/><rect fill="#FFFFFF" height="29.3105" style="stroke:#181818;stroke-width:1.0;" width="10" x="2162" y="1361.6406"/><rect fill="#FFFFFF" height="29.3105" style="stroke:#181818;stroke-width:1.0;" width="10" x="2162" y="1456.5723"/><rect fill="#FFFFFF" height="258.4844" style="stroke:#181818;stroke-width:1.0;" width="10" x="2162" y="1613.125"/><rect fill="#FFFFFF" height="124.9316" style="stroke:#181818;stroke-width:1.0;" width="10" x="2167" y="1710.3672"/><rect fill="#FFFFFF" height="40.3105" style="stroke:#181818;stroke-width:1.0;" width="10" x="2172" y="1752.6777"/><polygon fill="#181818" points="406,108.7988,416,112.7988,406,116.7988,410,112.7988" style="stroke:#181818;stroke-width:1.0;"/><line style="stroke:#181818;stroke-width:1.0;" x1="93" x2="412" y1="112.7988" y2="112.7988"/><text fill="#000000" font-family="sans-serif" font-size="13" font-weight="bold" lengthAdjust="spacing" textLength="9" x="100" y="108.0566">1</text><text fill="#000000" font-family="sans-serif" font-size="13" lengthAdjust="spacing" textLength="159" x="113" y="108.0566">asks to create a new task</text><polygon fill="#181818" points="539.5,138.1094,549.5,142.1094,539.5,146.1094,543.5,142.1094" style="stroke:#181818;stroke-width:1.0;"/><line style="stroke:#181818;stroke-width:1.0;" x1="428" x2="545.5" y1="142.1094" y2="142.1094"/><text fill="#000000" font-family="sans-serif" font-size="13" font-weight="bold" lengthAdjust="spacing" textLength="9" x="435" y="137.3672">2</text><text fill="#000000" font-family="sans-serif" font-size="13" lengthAdjust="spacing" textLength="38" x="448" y="137.3672">create</text><rect fill="#E3E3E3" height="30.4883" rx="2.5" ry="2.5" style="stroke:#181818;stroke-width:0.5;" width="165" x="551.5" y="120.7988"/><text fill="#000000" font-family="sans-serif" font-size="14" lengthAdjust="spacing" textLength="151" x="558.5" y="141.334">:CreateTaskController</text><polygon fill="#181818" points="617,179.5977,627,183.5977,617,187.5977,621,183.5977" style="stroke:#181818;stroke-width:1.0;"/><line style="stroke:#181818;stroke-width:1.0;" x1="428" x2="623" y1="183.5977" y2="183.5977"/><text fill="#000000" font-family="sans-serif" font-size="13" font-weight="bold" lengthAdjust="spacing" textLength="9" x="435" y="178.8555">3</text><text fill="#000000" font-family="sans-serif" font-size="13" lengthAdjust="spacing" textLength="125" x="448" y="178.8555">getTaskCategories()</text><polygon fill="#181818" points="1020,208.9082,1030,212.9082,1020,216.9082,1024,212.9082" style="stroke:#181818;stroke-width:1.0;"/><line style="stroke:#181818;stroke-width:1.0;" x1="639" x2="1026" y1="212.9082" y2="212.9082"/><text fill="#000000" font-family="sans-serif" font-size="13" font-weight="bold" lengthAdjust="spacing" textLength="9" x="646" y="208.166">4</text><text fill="#000000" font-family="sans-serif" font-size="13" lengthAdjust="spacing" textLength="81" x="659" y="208.166">getInstance()</text><polygon fill="#181818" points="650,238.2188,640,242.2188,650,246.2188,646,242.2188" style="stroke:#181818;stroke-width:1.0;"/><line style="stroke:#181818;stroke-width:1.0;stroke-dasharray:2.0,2.0;" x1="644" x2="1036" y1="242.2188" y2="242.2188"/><text fill="#000000" font-family="sans-serif" font-size="13" font-weight="bold" lengthAdjust="spacing" textLength="9" x="656" y="237.4766">5</text><text fill="#000000" font-family="sans-serif" font-size="13" lengthAdjust="spacing" textLength="75" x="669" y="237.4766">repositories</text><polygon fill="#181818" points="1133,267.5293,1143,271.5293,1133,275.5293,1137,271.5293" style="stroke:#181818;stroke-width:1.0;"/><line style="stroke:#181818;stroke-width:1.0;" x1="639" x2="1139" y1="271.5293" y2="271.5293"/><text fill="#000000" font-family="sans-serif" font-size="13" font-weight="bold" lengthAdjust="spacing" textLength="9" x="646" y="266.7871">6</text><text fill="#000000" font-family="sans-serif" font-size="13" lengthAdjust="spacing" textLength="181" x="659" y="266.7871">getTaskCategoryRepository()</text><polygon fill="#181818" points="650,296.8398,640,300.8398,650,304.8398,646,300.8398" style="stroke:#181818;stroke-width:1.0;"/><line style="stroke:#181818;stroke-width:1.0;stroke-dasharray:2.0,2.0;" x1="644" x2="1149" y1="300.8398" y2="300.8398"/><text fill="#000000" font-family="sans-serif" font-size="13" font-weight="bold" lengthAdjust="spacing" textLength="9" x="656" y="296.0977">7</text><text fill="#000000" font-family="sans-serif" font-size="13" lengthAdjust="spacing" textLength="150" x="669" y="296.0977">taskCategoryRepository</text><polygon fill="#181818" points="1285,326.1504,1295,330.1504,1285,334.1504,1289,330.1504" style="stroke:#181818;stroke-width:1.0;"/><line style="stroke:#181818;stroke-width:1.0;" x1="639" x2="1291" y1="330.1504" y2="330.1504"/><text fill="#000000" font-family="sans-serif" font-size="13" font-weight="bold" lengthAdjust="spacing" textLength="9" x="646" y="325.4082">8</text><text fill="#000000" font-family="sans-serif" font-size="13" lengthAdjust="spacing" textLength="125" x="659" y="325.4082">getTaskCategories()</text><polygon fill="#181818" points="650,355.4609,640,359.4609,650,363.4609,646,359.4609" style="stroke:#181818;stroke-width:1.0;"/><line style="stroke:#181818;stroke-width:1.0;stroke-dasharray:2.0,2.0;" x1="644" x2="1301" y1="359.4609" y2="359.4609"/><text fill="#000000" font-family="sans-serif" font-size="13" font-weight="bold" lengthAdjust="spacing" textLength="9" x="656" y="354.7188">9</text><text fill="#000000" font-family="sans-serif" font-size="13" lengthAdjust="spacing" textLength="106" x="669" y="354.7188">taskCategoryList</text><polygon fill="#181818" points="439,384.7715,429,388.7715,439,392.7715,435,388.7715" style="stroke:#181818;stroke-width:1.0;"/><line style="stroke:#181818;stroke-width:1.0;stroke-dasharray:2.0,2.0;" x1="433" x2="633" y1="388.7715" y2="388.7715"/><text fill="#000000" font-family="sans-serif" font-size="13" font-weight="bold" lengthAdjust="spacing" textLength="18" x="445" y="384.0293">10</text><text fill="#000000" font-family="sans-serif" font-size="13" lengthAdjust="spacing" textLength="106" x="467" y="384.0293">taskCategoryList</text><polygon fill="#181818" points="104,429.3926,94,433.3926,104,437.3926,100,433.3926" style="stroke:#181818;stroke-width:1.0;"/><line style="stroke:#181818;stroke-width:1.0;stroke-dasharray:2.0,2.0;" x1="98" x2="422" y1="433.3926" y2="433.3926"/><text fill="#000000" font-family="sans-serif" font-size="13" font-weight="bold" lengthAdjust="spacing" textLength="18" x="110" y="420.9951">11</text><text fill="#000000" font-family="sans-serif" font-size="13" lengthAdjust="spacing" textLength="153" x="132" y="413.3398">shows task category list</text><text fill="#000000" font-family="sans-serif" font-size="13" lengthAdjust="spacing" textLength="141" x="136" y="428.6504">and asks to sleect one</text><polygon fill="#181818" points="406,458.7031,416,462.7031,406,466.7031,410,462.7031" style="stroke:#181818;stroke-width:1.0;"/><line style="stroke:#181818;stroke-width:1.0;" x1="93" x2="412" y1="462.7031" y2="462.7031"/><text fill="#000000" font-family="sans-serif" font-size="13" font-weight="bold" lengthAdjust="spacing" textLength="18" x="100" y="457.9609">12</text><text fill="#000000" font-family="sans-serif" font-size="13" lengthAdjust="spacing" textLength="144" x="122" y="457.9609">selects a task category</text><polygon fill="#181818" points="104,488.0137,94,492.0137,104,496.0137,100,492.0137" style="stroke:#181818;stroke-width:1.0;"/><line style="stroke:#181818;stroke-width:1.0;stroke-dasharray:2.0,2.0;" x1="98" x2="422" y1="492.0137" y2="492.0137"/><text fill="#000000" font-family="sans-serif" font-size="13" font-weight="bold" lengthAdjust="spacing" textLength="18" x="110" y="487.2715">13</text><text fill="#000000" font-family="sans-serif" font-size="13" lengthAdjust="spacing" textLength="85" x="132" y="487.2715">requests data</text><polygon fill="#181818" points="406,547.9453,416,551.9453,406,555.9453,410,551.9453" style="stroke:#181818;stroke-width:1.0;"/><line style="stroke:#181818;stroke-width:1.0;" x1="93" x2="412" y1="551.9453" y2="551.9453"/><text fill="#000000" font-family="sans-serif" font-size="13" font-weight="bold" lengthAdjust="spacing" textLength="18" x="100" y="531.8926">14</text><text fill="#000000" font-family="sans-serif" font-size="13" lengthAdjust="spacing" textLength="280" x="122" y="516.582">types requested data (reference, description,</text><text fill="#000000" font-family="sans-serif" font-size="13" lengthAdjust="spacing" textLength="272" x="122" y="531.8926">informal description, technical description,</text><text fill="#000000" font-family="sans-serif" font-size="13" lengthAdjust="spacing" textLength="92" x="122" y="547.2031">duration, cost)</text><polygon fill="#181818" points="104,577.2559,94,581.2559,104,585.2559,100,581.2559" style="stroke:#181818;stroke-width:1.0;"/><line style="stroke:#181818;stroke-width:1.0;stroke-dasharray:2.0,2.0;" x1="98" x2="422" y1="581.2559" y2="581.2559"/><text fill="#000000" font-family="sans-serif" font-size="13" font-weight="bold" lengthAdjust="spacing" textLength="18" x="110" y="576.5137">15</text><text fill="#000000" font-family="sans-serif" font-size="13" lengthAdjust="spacing" textLength="278" x="132" y="576.5137">shows selected category and requested data</text><polygon fill="#181818" points="406,606.5664,416,610.5664,406,614.5664,410,610.5664" style="stroke:#181818;stroke-width:1.0;"/><line style="stroke:#181818;stroke-width:1.0;" x1="93" x2="412" y1="610.5664" y2="610.5664"/><text fill="#000000" font-family="sans-serif" font-size="13" font-weight="bold" lengthAdjust="spacing" textLength="18" x="100" y="605.8242">16</text><text fill="#000000" font-family="sans-serif" font-size="13" lengthAdjust="spacing" textLength="82" x="122" y="605.8242">submits data</text><polygon fill="#181818" points="617,712.4297,627,716.4297,617,720.4297,621,716.4297" style="stroke:#181818;stroke-width:1.0;"/><line style="stroke:#181818;stroke-width:1.0;" x1="428" x2="623" y1="716.4297" y2="716.4297"/><text fill="#000000" font-family="sans-serif" font-size="13" font-weight="bold" lengthAdjust="spacing" textLength="18" x="435" y="673.4111">17</text><text fill="#000000" font-family="sans-serif" font-size="13" lengthAdjust="spacing" textLength="134" x="457" y="635.1348">createTask(reference,</text><text fill="#000000" font-family="sans-serif" font-size="13" lengthAdjust="spacing" textLength="75" x="457" y="650.4453">description,</text><text fill="#000000" font-family="sans-serif" font-size="13" lengthAdjust="spacing" textLength="130" x="457" y="665.7559">informalDescription,</text><text fill="#000000" font-family="sans-serif" font-size="13" lengthAdjust="spacing" textLength="134" x="457" y="681.0664">technicalDescription,</text><text fill="#000000" font-family="sans-serif" font-size="13" lengthAdjust="spacing" textLength="92" x="457" y="696.377">duration, cost,</text><text fill="#000000" font-family="sans-serif" font-size="13" lengthAdjust="spacing" textLength="160" x="457" y="711.6875">taskCategoryDescription)</text><line style="stroke:#181818;stroke-width:1.0;" x1="639" x2="686" y1="740.7402" y2="740.7402"/><line style="stroke:#181818;stroke-width:1.0;" x1="686" x2="686" y1="740.7402" y2="753.7402"/><line style="stroke:#181818;stroke-width:1.0;" x1="645" x2="686" y1="753.7402" y2="753.7402"/><polygon fill="#181818" points="655,749.7402,645,753.7402,655,757.7402,651,753.7402" style="stroke:#181818;stroke-width:1.0;"/><text fill="#000000" font-family="sans-serif" font-size="13" font-weight="bold" lengthAdjust="spacing" textLength="18" x="651" y="735.998">18</text><text fill="#000000" font-family="sans-serif" font-size="13" lengthAdjust="spacing" textLength="357" x="673" y="735.998">getTaskCategoryByDescription(taskCategoryDescription)</text><polygon fill="#181818" points="1020,784.0508,1030,788.0508,1020,792.0508,1024,788.0508" style="stroke:#181818;stroke-width:1.0;"/><line style="stroke:#181818;stroke-width:1.0;" x1="644" x2="1026" y1="788.0508" y2="788.0508"/><text fill="#000000" font-family="sans-serif" font-size="13" font-weight="bold" lengthAdjust="spacing" textLength="18" x="651" y="783.3086">19</text><text fill="#000000" font-family="sans-serif" font-size="13" lengthAdjust="spacing" textLength="81" x="673" y="783.3086">getInstance()</text><polygon fill="#181818" points="655,813.3613,645,817.3613,655,821.3613,651,817.3613" style="stroke:#181818;stroke-width:1.0;"/><line style="stroke:#181818;stroke-width:1.0;stroke-dasharray:2.0,2.0;" x1="649" x2="1036" y1="817.3613" y2="817.3613"/><text fill="#000000" font-family="sans-serif" font-size="13" font-weight="bold" lengthAdjust="spacing" textLength="18" x="661" y="812.6191">20</text><text fill="#000000" font-family="sans-serif" font-size="13" lengthAdjust="spacing" textLength="75" x="683" y="812.6191">repositories</text><polygon fill="#181818" points="1133,842.6719,1143,846.6719,1133,850.6719,1137,846.6719" style="stroke:#181818;stroke-width:1.0;"/><line style="stroke:#181818;stroke-width:1.0;" x1="644" x2="1139" y1="846.6719" y2="846.6719"/><text fill="#000000" font-family="sans-serif" font-size="13" font-weight="bold" lengthAdjust="spacing" textLength="18" x="651" y="841.9297">21</text><text fill="#000000" font-family="sans-serif" font-size="13" lengthAdjust="spacing" textLength="181" x="673" y="841.9297">getTaskCategoryRepository()</text><polygon fill="#181818" points="655,871.9824,645,875.9824,655,879.9824,651,875.9824" style="stroke:#181818;stroke-width:1.0;"/><line style="stroke:#181818;stroke-width:1.0;" x1="649" x2="1149" y1="875.9824" y2="875.9824"/><text fill="#000000" font-family="sans-serif" font-size="13" font-weight="bold" lengthAdjust="spacing" textLength="18" x="661" y="871.2402">22</text><text fill="#000000" font-family="sans-serif" font-size="13" lengthAdjust="spacing" textLength="150" x="683" y="871.2402">taskCategoryRepository</text><polygon fill="#181818" points="1285,901.293,1295,905.293,1285,909.293,1289,905.293" style="stroke:#181818;stroke-width:1.0;"/><line style="stroke:#181818;stroke-width:1.0;" x1="644" x2="1291" y1="905.293" y2="905.293"/><text fill="#000000" font-family="sans-serif" font-size="13" font-weight="bold" lengthAdjust="spacing" textLength="18" x="651" y="900.5508">23</text><text fill="#000000" font-family="sans-serif" font-size="13" lengthAdjust="spacing" textLength="357" x="673" y="900.5508">getTaskCategoryByDescription(taskCategoryDescription)</text><polygon fill="#181818" points="655,930.6035,645,934.6035,655,938.6035,651,934.6035" style="stroke:#181818;stroke-width:1.0;"/><line style="stroke:#181818;stroke-width:1.0;stroke-dasharray:2.0,2.0;" x1="649" x2="1301" y1="934.6035" y2="934.6035"/><text fill="#000000" font-family="sans-serif" font-size="13" font-weight="bold" lengthAdjust="spacing" textLength="18" x="661" y="929.8613">24</text><text fill="#000000" font-family="sans-serif" font-size="13" lengthAdjust="spacing" textLength="83" x="683" y="929.8613">taskCategory</text><line style="stroke:#181818;stroke-width:1.0;stroke-dasharray:2.0,2.0;" x1="644" x2="686" y1="968.9141" y2="968.9141"/><line style="stroke:#181818;stroke-width:1.0;stroke-dasharray:2.0,2.0;" x1="686" x2="686" y1="968.9141" y2="981.9141"/><line style="stroke:#181818;stroke-width:1.0;stroke-dasharray:2.0,2.0;" x1="639" x2="686" y1="981.9141" y2="981.9141"/><polygon fill="#181818" points="649,977.9141,639,981.9141,649,985.9141,645,981.9141" style="stroke:#181818;stroke-width:1.0;"/><text fill="#000000" font-family="sans-serif" font-size="13" font-weight="bold" lengthAdjust="spacing" textLength="18" x="651" y="964.1719">25</text><text fill="#000000" font-family="sans-serif" font-size="13" lengthAdjust="spacing" textLength="83" x="673" y="964.1719">taskCategory</text><line style="stroke:#181818;stroke-width:1.0;" x1="639" x2="686" y1="1026.2246" y2="1026.2246"/><line style="stroke:#181818;stroke-width:1.0;" x1="686" x2="686" y1="1026.2246" y2="1039.2246"/><line style="stroke:#181818;stroke-width:1.0;" x1="645" x2="686" y1="1039.2246" y2="1039.2246"/><polygon fill="#181818" points="655,1035.2246,645,1039.2246,655,1043.2246,651,1039.2246" style="stroke:#181818;stroke-width:1.0;"/><text fill="#000000" font-family="sans-serif" font-size="13" font-weight="bold" lengthAdjust="spacing" textLength="18" x="651" y="1021.4824">26</text><text fill="#000000" font-family="sans-serif" font-size="13" lengthAdjust="spacing" textLength="168" x="673" y="1021.4824">getEmployeeFromSession()</text><polygon fill="#181818" points="1459.5,1069.5352,1469.5,1073.5352,1459.5,1077.5352,1463.5,1073.5352" style="stroke:#181818;stroke-width:1.0;"/><line style="stroke:#181818;stroke-width:1.0;" x1="644" x2="1465.5" y1="1073.5352" y2="1073.5352"/><text fill="#000000" font-family="sans-serif" font-size="13" font-weight="bold" lengthAdjust="spacing" textLength="18" x="651" y="1068.793">27</text><text fill="#000000" font-family="sans-serif" font-size="13" lengthAdjust="spacing" textLength="81" x="673" y="1068.793">getInstance()</text><polygon fill="#181818" points="655,1098.8457,645,1102.8457,655,1106.8457,651,1102.8457" style="stroke:#181818;stroke-width:1.0;"/><line style="stroke:#181818;stroke-width:1.0;" x1="649" x2="1475.5" y1="1102.8457" y2="1102.8457"/><text fill="#000000" font-family="sans-serif" font-size="13" font-weight="bold" lengthAdjust="spacing" textLength="18" x="661" y="1098.1035">28</text><text fill="#000000" font-family="sans-serif" font-size="13" lengthAdjust="spacing" textLength="71" x="683" y="1098.1035">appSession</text><polygon fill="#181818" points="1617.5,1128.1563,1627.5,1132.1563,1617.5,1136.1563,1621.5,1132.1563" style="stroke:#181818;stroke-width:1.0;"/><line style="stroke:#181818;stroke-width:1.0;" x1="644" x2="1623.5" y1="1132.1563" y2="1132.1563"/><text fill="#000000" font-family="sans-serif" font-size="13" font-weight="bold" lengthAdjust="spacing" textLength="18" x="651" y="1127.4141">29</text><text fill="#000000" font-family="sans-serif" font-size="13" lengthAdjust="spacing" textLength="123" x="673" y="1127.4141">getCurrentSession()</text><polygon fill="#181818" points="655,1157.4668,645,1161.4668,655,1165.4668,651,1161.4668" style="stroke:#181818;stroke-width:1.0;"/><line style="stroke:#181818;stroke-width:1.0;stroke-dasharray:2.0,2.0;" x1="649" x2="1633.5" y1="1161.4668" y2="1161.4668"/><text fill="#000000" font-family="sans-serif" font-size="13" font-weight="bold" lengthAdjust="spacing" textLength="18" x="661" y="1156.7246">30</text><text fill="#000000" font-family="sans-serif" font-size="13" lengthAdjust="spacing" textLength="93" x="683" y="1156.7246">currentSession</text><polygon fill="#181818" points="1759.5,1186.7773,1769.5,1190.7773,1759.5,1194.7773,1763.5,1190.7773" style="stroke:#181818;stroke-width:1.0;"/><line style="stroke:#181818;stroke-width:1.0;" x1="644" x2="1765.5" y1="1190.7773" y2="1190.7773"/><text fill="#000000" font-family="sans-serif" font-size="13" font-weight="bold" lengthAdjust="spacing" textLength="18" x="651" y="1186.0352">31</text><text fill="#000000" font-family="sans-serif" font-size="13" lengthAdjust="spacing" textLength="142" x="673" y="1186.0352">email = getUserEmail()</text><polygon fill="#181818" points="655,1216.0879,645,1220.0879,655,1224.0879,651,1220.0879" style="stroke:#181818;stroke-width:1.0;"/><line style="stroke:#181818;stroke-width:1.0;stroke-dasharray:2.0,2.0;" x1="649" x2="1775.5" y1="1220.0879" y2="1220.0879"/><text fill="#000000" font-family="sans-serif" font-size="13" font-weight="bold" lengthAdjust="spacing" textLength="18" x="661" y="1215.3457">32</text><text fill="#000000" font-family="sans-serif" font-size="13" lengthAdjust="spacing" textLength="34" x="683" y="1215.3457">email</text><polygon fill="#181818" points="1133,1245.3984,1143,1249.3984,1133,1253.3984,1137,1249.3984" style="stroke:#181818;stroke-width:1.0;"/><line style="stroke:#181818;stroke-width:1.0;" x1="644" x2="1139" y1="1249.3984" y2="1249.3984"/><text fill="#000000" font-family="sans-serif" font-size="13" font-weight="bold" lengthAdjust="spacing" textLength="18" x="651" y="1244.6563">33</text><text fill="#000000" font-family="sans-serif" font-size="13" lengthAdjust="spacing" textLength="210" x="673" y="1244.6563">getOrganizationRepository(email)</text><polygon fill="#181818" points="655,1274.709,645,1278.709,655,1282.709,651,1278.709" style="stroke:#181818;stroke-width:1.0;"/><line style="stroke:#181818;stroke-width:1.0;stroke-dasharray:2.0,2.0;" x1="649" x2="1149" y1="1278.709" y2="1278.709"/><text fill="#000000" font-family="sans-serif" font-size="13" font-weight="bold" lengthAdjust="spacing" textLength="18" x="661" y="1273.9668">34</text><text fill="#000000" font-family="sans-serif" font-size="13" lengthAdjust="spacing" textLength="146" x="683" y="1273.9668">organizationRepository</text><polygon fill="#181818" points="1917,1304.0195,1927,1308.0195,1917,1312.0195,1921,1308.0195" style="stroke:#181818;stroke-width:1.0;"/><line style="stroke:#181818;stroke-width:1.0;" x1="644" x2="1923" y1="1308.0195" y2="1308.0195"/><text fill="#000000" font-family="sans-serif" font-size="13" font-weight="bold" lengthAdjust="spacing" textLength="18" x="651" y="1303.2773">35</text><text fill="#000000" font-family="sans-serif" font-size="13" lengthAdjust="spacing" textLength="251" x="673" y="1303.2773">getOrganizationByEmployeeEmail(email)</text><path d="M1834.5,1323.0195 L1908.5,1323.0195 L1908.5,1330.3301 L1898.5,1340.3301 L1834.5,1340.3301 L1834.5,1323.0195 " fill="#EEEEEE" style="stroke:#000000;stroke-width:1.5;"/><rect fill="none" height="75.9316" style="stroke:#000000;stroke-width:1.5;" width="396.5" x="1834.5" y="1323.0195"/><text fill="#000000" font-family="sans-serif" font-size="13" font-weight="bold" lengthAdjust="spacing" textLength="29" x="1849.5" y="1336.5879">loop</text><text fill="#000000" font-family="sans-serif" font-size="11" font-weight="bold" lengthAdjust="spacing" textLength="132" x="1923.5" y="1335.6543">[[for each organization]</text><polygon fill="#181818" points="2150,1357.6406,2160,1361.6406,2150,1365.6406,2154,1361.6406" style="stroke:#181818;stroke-width:1.0;"/><line style="stroke:#181818;stroke-width:1.0;" x1="1939" x2="2156" y1="1361.6406" y2="1361.6406"/><text fill="#000000" font-family="sans-serif" font-size="13" font-weight="bold" lengthAdjust="spacing" textLength="18" x="1946" y="1356.8984">36</text><text fill="#000000" font-family="sans-serif" font-size="13" lengthAdjust="spacing" textLength="182" x="1968" y="1356.8984">anyEmployeeHasEmail(email)</text><polygon fill="#181818" points="1950,1386.9512,1940,1390.9512,1950,1394.9512,1946,1390.9512" style="stroke:#181818;stroke-width:1.0;"/><line style="stroke:#181818;stroke-width:1.0;stroke-dasharray:2.0,2.0;" x1="1944" x2="2166" y1="1390.9512" y2="1390.9512"/><text fill="#000000" font-family="sans-serif" font-size="13" font-weight="bold" lengthAdjust="spacing" textLength="18" x="1956" y="1386.209">37</text><text fill="#000000" font-family="sans-serif" font-size="13" lengthAdjust="spacing" textLength="62" x="1978" y="1386.209">true/false</text><polygon fill="#181818" points="655,1423.2617,645,1427.2617,655,1431.2617,651,1427.2617" style="stroke:#181818;stroke-width:1.0;"/><line style="stroke:#181818;stroke-width:1.0;stroke-dasharray:2.0,2.0;" x1="649" x2="1933" y1="1427.2617" y2="1427.2617"/><text fill="#000000" font-family="sans-serif" font-size="13" font-weight="bold" lengthAdjust="spacing" textLength="18" x="661" y="1422.5195">38</text><text fill="#000000" font-family="sans-serif" font-size="13" lengthAdjust="spacing" textLength="79" x="683" y="1422.5195">organization</text><polygon fill="#181818" points="2150,1452.5723,2160,1456.5723,2150,1460.5723,2154,1456.5723" style="stroke:#181818;stroke-width:1.0;"/><line style="stroke:#181818;stroke-width:1.0;" x1="644" x2="2156" y1="1456.5723" y2="1456.5723"/><text fill="#000000" font-family="sans-serif" font-size="13" font-weight="bold" lengthAdjust="spacing" textLength="18" x="651" y="1451.8301">39</text><text fill="#000000" font-family="sans-serif" font-size="13" lengthAdjust="spacing" textLength="170" x="673" y="1451.8301">getEmployeeByEmail(email)</text><polygon fill="#181818" points="655,1481.8828,645,1485.8828,655,1489.8828,651,1485.8828" style="stroke:#181818;stroke-width:1.0;"/><line style="stroke:#181818;stroke-width:1.0;stroke-dasharray:2.0,2.0;" x1="649" x2="2166" y1="1485.8828" y2="1485.8828"/><text fill="#000000" font-family="sans-serif" font-size="13" font-weight="bold" lengthAdjust="spacing" textLength="18" x="661" y="1481.1406">40</text><text fill="#000000" font-family="sans-serif" font-size="13" lengthAdjust="spacing" textLength="60" x="683" y="1481.1406">employee</text><line style="stroke:#181818;stroke-width:1.0;stroke-dasharray:2.0,2.0;" x1="644" x2="686" y1="1520.1934" y2="1520.1934"/><line style="stroke:#181818;stroke-width:1.0;stroke-dasharray:2.0,2.0;" x1="686" x2="686" y1="1520.1934" y2="1533.1934"/><line style="stroke:#181818;stroke-width:1.0;stroke-dasharray:2.0,2.0;" x1="639" x2="686" y1="1533.1934" y2="1533.1934"/><polygon fill="#181818" points="649,1529.1934,639,1533.1934,649,1537.1934,645,1533.1934" style="stroke:#181818;stroke-width:1.0;"/><text fill="#000000" font-family="sans-serif" font-size="13" font-weight="bold" lengthAdjust="spacing" textLength="18" x="651" y="1515.4512">41</text><text fill="#000000" font-family="sans-serif" font-size="13" lengthAdjust="spacing" textLength="60" x="673" y="1515.4512">employee</text><polygon fill="#181818" points="2150,1609.125,2160,1613.125,2150,1617.125,2154,1613.125" style="stroke:#181818;stroke-width:1.0;"/><line style="stroke:#181818;stroke-width:1.0;" x1="639" x2="2156" y1="1613.125" y2="1613.125"/><text fill="#000000" font-family="sans-serif" font-size="13" font-weight="bold" lengthAdjust="spacing" textLength="18" x="646" y="1593.0723">42</text><text fill="#000000" font-family="sans-serif" font-size="13" lengthAdjust="spacing" textLength="281" x="668" y="1577.7617">createTask(employee, reference, description,</text><text fill="#000000" font-family="sans-serif" font-size="13" lengthAdjust="spacing" textLength="268" x="668" y="1593.0723">informalDescription, technicalDescription,</text><text fill="#000000" font-family="sans-serif" font-size="13" lengthAdjust="spacing" textLength="259" x="668" y="1608.3828">duration, cost, , taskCategory, employee)</text><polygon fill="#181818" points="2474,1669.0566,2484,1673.0566,2474,1677.0566,2478,1673.0566" style="stroke:#181818;stroke-width:1.0;"/><line style="stroke:#181818;stroke-width:1.0;" x1="2172" x2="2480" y1="1673.0566" y2="1673.0566"/><text fill="#000000" font-family="sans-serif" font-size="13" font-weight="bold" lengthAdjust="spacing" textLength="18" x="2179" y="1653.0039">43</text><text fill="#000000" font-family="sans-serif" font-size="13" lengthAdjust="spacing" textLength="251" x="2201" y="1637.6934">create(employee, reference, description,</text><text fill="#000000" font-family="sans-serif" font-size="13" lengthAdjust="spacing" textLength="268" x="2201" y="1653.0039">informalDescription, technicalDescription,</text><text fill="#000000" font-family="sans-serif" font-size="13" lengthAdjust="spacing" textLength="251" x="2201" y="1668.3145">duration, cost, taskCategory, employee)</text><rect fill="#E3E3E3" height="46.9766" rx="2.5" ry="2.5" style="stroke:#181818;stroke-width:0.5;" width="50" x="2486" y="1623.0801"/><text fill="#000000" font-family="sans-serif" font-size="14" lengthAdjust="spacing" textLength="28" x="2497" y="1643.6152">task</text><text fill="#000000" font-family="sans-serif" font-size="14" lengthAdjust="spacing" textLength="36" x="2493" y="1660.1035">:Task</text><line style="stroke:#181818;stroke-width:1.0;" x1="2172" x2="2219" y1="1697.3672" y2="1697.3672"/><line style="stroke:#181818;stroke-width:1.0;" x1="2219" x2="2219" y1="1697.3672" y2="1710.3672"/><line style="stroke:#181818;stroke-width:1.0;" x1="2178" x2="2219" y1="1710.3672" y2="1710.3672"/><polygon fill="#181818" points="2188,1706.3672,2178,1710.3672,2188,1714.3672,2184,1710.3672" style="stroke:#181818;stroke-width:1.0;"/><text fill="#000000" font-family="sans-serif" font-size="13" font-weight="bold" lengthAdjust="spacing" textLength="18" x="2184" y="1692.625">44</text><text fill="#000000" font-family="sans-serif" font-size="13" lengthAdjust="spacing" textLength="92" x="2206" y="1692.625">addTask (task)</text><line style="stroke:#181818;stroke-width:1.0;" x1="2177" x2="2224" y1="1739.6777" y2="1739.6777"/><line style="stroke:#181818;stroke-width:1.0;" x1="2224" x2="2224" y1="1739.6777" y2="1752.6777"/><line style="stroke:#181818;stroke-width:1.0;" x1="2183" x2="2224" y1="1752.6777" y2="1752.6777"/><polygon fill="#181818" points="2193,1748.6777,2183,1752.6777,2193,1756.6777,2189,1752.6777" style="stroke:#181818;stroke-width:1.0;"/><text fill="#000000" font-family="sans-serif" font-size="13" font-weight="bold" lengthAdjust="spacing" textLength="18" x="2189" y="1734.9355">45</text><text fill="#000000" font-family="sans-serif" font-size="13" lengthAdjust="spacing" textLength="114" x="2211" y="1734.9355">validateTask(task)</text><line style="stroke:#181818;stroke-width:1.0;stroke-dasharray:2.0,2.0;" x1="2182" x2="2224" y1="1791.9883" y2="1791.9883"/><line style="stroke:#181818;stroke-width:1.0;stroke-dasharray:2.0,2.0;" x1="2224" x2="2224" y1="1791.9883" y2="1804.9883"/><line style="stroke:#181818;stroke-width:1.0;stroke-dasharray:2.0,2.0;" x1="2177" x2="2224" y1="1804.9883" y2="1804.9883"/><polygon fill="#181818" points="2187,1800.9883,2177,1804.9883,2187,1808.9883,2183,1804.9883" style="stroke:#181818;stroke-width:1.0;"/><text fill="#000000" font-family="sans-serif" font-size="13" font-weight="bold" lengthAdjust="spacing" textLength="18" x="2189" y="1787.2461">46</text><text fill="#000000" font-family="sans-serif" font-size="13" lengthAdjust="spacing" textLength="4" x="2211" y="1787.2461">&#160;</text><line style="stroke:#181818;stroke-width:1.0;stroke-dasharray:2.0,2.0;" x1="2177" x2="2219" y1="1834.2988" y2="1834.2988"/><line style="stroke:#181818;stroke-width:1.0;stroke-dasharray:2.0,2.0;" x1="2219" x2="2219" y1="1834.2988" y2="1847.2988"/><line style="stroke:#181818;stroke-width:1.0;stroke-dasharray:2.0,2.0;" x1="2172" x2="2219" y1="1847.2988" y2="1847.2988"/><polygon fill="#181818" points="2182,1843.2988,2172,1847.2988,2182,1851.2988,2178,1847.2988" style="stroke:#181818;stroke-width:1.0;"/><text fill="#000000" font-family="sans-serif" font-size="13" font-weight="bold" lengthAdjust="spacing" textLength="18" x="2184" y="1829.5566">47</text><text fill="#000000" font-family="sans-serif" font-size="13" lengthAdjust="spacing" textLength="4" x="2206" y="1829.5566">&#160;</text><polygon fill="#181818" points="650,1867.6094,640,1871.6094,650,1875.6094,646,1871.6094" style="stroke:#181818;stroke-width:1.0;"/><line style="stroke:#181818;stroke-width:1.0;stroke-dasharray:2.0,2.0;" x1="644" x2="2166" y1="1871.6094" y2="1871.6094"/><text fill="#000000" font-family="sans-serif" font-size="13" font-weight="bold" lengthAdjust="spacing" textLength="18" x="656" y="1866.8672">48</text><text fill="#000000" font-family="sans-serif" font-size="13" lengthAdjust="spacing" textLength="27" x="678" y="1866.8672">task</text><polygon fill="#181818" points="439,1896.9199,429,1900.9199,439,1904.9199,435,1900.9199" style="stroke:#181818;stroke-width:1.0;"/><line style="stroke:#181818;stroke-width:1.0;stroke-dasharray:2.0,2.0;" x1="433" x2="633" y1="1900.9199" y2="1900.9199"/><text fill="#000000" font-family="sans-serif" font-size="13" font-weight="bold" lengthAdjust="spacing" textLength="18" x="445" y="1896.1777">49</text><text fill="#000000" font-family="sans-serif" font-size="13" lengthAdjust="spacing" textLength="27" x="467" y="1896.1777">task</text><polygon fill="#181818" points="99,1926.2305,89,1930.2305,99,1934.2305,95,1930.2305" style="stroke:#181818;stroke-width:1.0;"/><line style="stroke:#181818;stroke-width:1.0;stroke-dasharray:2.0,2.0;" x1="93" x2="422" y1="1930.2305" y2="1930.2305"/><text fill="#000000" font-family="sans-serif" font-size="13" font-weight="bold" lengthAdjust="spacing" textLength="18" x="105" y="1925.4883">50</text><text fill="#000000" font-family="sans-serif" font-size="13" lengthAdjust="spacing" textLength="170" x="127" y="1925.4883">displays operation success</text><!--SRC=[xLXHJ-D647xVNp7YXO38zKglrpPIKGC42XS4IiBreKZLOW-9XRFhxgwXEV7ZkxkEdNMojdEed5J9Ve5uPxxvPZmpkploCM895NGESyvuC1DyZg14YaGMAmaD7kaKnseH8mWC56NJs1MGCnhovuXDuO764WcXgU8idT-Z86Ht5eK83vohU_uFeO7Y0dQknPIow0jL4MSmc2SnNo3k09NGFxqY6bL5GPHGfc2dToAGAfnG-NXxOKLkBoebJZXJWiSn2YjvCXaDrsH7c70PQH8HIYjJl5YC8-ENPbvM4Ox67Ti4k1ds9sKDPPXeHbCDkeBltR69Ty6Y-9VMoFUJ98u26xKnIgd_MDs_-ZStPKcQ94i1pRX2QqCfI8L0fbQAjnA5gp4UZCVzwx8ITxvaoTThxuB5yIzLuseghag6CJhV3BeMD77C0jeV3Sxwn6HSzAG3QpEBmFBHFw1xf5C9UbhuKOBY4DWq0WeCdy70hSGB49rxP1USHoDqDP31w-dY-3j5gII4L57e27n07T403o146OWeCVGF02BsmCMSnd37oYiAWndJtoeklmvJGRF_0YxL7d49x2vfsrnVPtPaN-_lQswP6AaGqG9JL4uIwkpkb0qLCR2MIalciIWQpLDF6VW5axfp1BW6MuBs5UE6j7byLhfBNyntMDNeXdg8NsSkTypK-KQOd5gjyyls2AyZ5dN5tDywwdpmG-Ua_LIt-Deb-XNDoUjGXSNkAj5S7uUHL7NURMivypUlw5eB3lfc9fVAMSxuixHW42pH8DPmkcef2uk-8MFKco9mXiHZmtICzOuZCTOQKhUQ4ZZPQ3NDNOPiOKuj4fIv6eODtUcE5UrfYzvqntpDgTc9BBPP83Ib8huci6McstWeq_jvv4Qaaa2HXK5nQ70YeRqf-PP7uhJqjeZ4QKqWZ9oJXexe7jcYfUO5x6tEYsCNhzDefstVRzk-lQtj6xRlr-J3DshmhsZkFgD5VsyoKTlTNrvU6eeilukSwOlGykZxkcEGEPDlNJVs0Ezpson0KHUhKtrTL2rODR6Srqdfj5_7pkBvs5bo1RlozQ6EeHSmvvTTCdg0Snh5yAkXQkuX0_EpZkNoSk8bcgqvN2ru7SKShRQTs3ZwBpCTQ-6_E17wBrZDBQMIkP_mXY_7YxmMij0tELHngVEw67EUm9zwQmNDUbPoqIjl7Z- -TMXqRcvnh23yEvMrd3UvwyjafLHcNTleLWRFD2IHudVP-ACAm_b4ng1F15b8liRvLU-gZQ5hUSlFL6JBwBpK64rQR9KELI7D8xdaZKjSqX0jqhGZU85UjHjObvtZOOvy01L7Plyv4ROx9i91QJCxA1ofs7QymR11FLhEFFRtS_flJNqRuWuz6rWQXYQgO4yfUvu-rLWaBjeJZQCm_r0POcEbDzPuXKnJHZPXDEclLKPv0jK4u5o0bwfrTU2_ylOWZ6GIquK4dc3sgVNLAWZqbkwxXRbRkXck_QRRLpedpcJuhORAxHYv7IF_tyV8xQosdTMsizfsLjlEQjjPRJkhRMUrxQosdTMsizfsLjlEQjjPRJkhRMUrxQosdTM-_Qps9gPCtLuDuGc5EGl0z-yEtn_-yEwmCquPdE4z77w4zx_q3d_iVVW9_XXCm2plaSxvpH0aJqM0XeaIqNsQ7LmlwHE5KSfKDCSUN2V8Bay_vIzWm9uYmTbSdpx8vUUhbS373ztZIC4OXMO2dw_8AJxGD5PQ8-2XlZFqu7PorlsP32cRfdIgiP6H4wvnpOvuVlml]--></g></svg>