<?xml version="1.0" encoding="us-ascii" standalone="no"?><svg xmlns="http://www.w3.org/2000/svg" xmlns:xlink="http://www.w3.org/1999/xlink" contentStyleType="text/css" height="457px" preserveAspectRatio="none" style="width:683px;height:457px;background:#FFFFFF;" version="1.1" viewBox="0 0 683 457" width="683px" zoomAndPan="magnify"><defs/><g><text fill="#000000" font-family="sans-serif" font-size="14" font-weight="bold" lengthAdjust="spacing" textLength="655" x="10" y="28.5352">System Sequence Diagram (SSD) - List all booking requests for properties managed by me</text><rect fill="#FFFFFF" height="238.6172" style="stroke:#181818;stroke-width:1.0;" width="10" x="89.75" y="128.9766"/><rect fill="#FFFFFF" height="29.3105" style="stroke:#181818;stroke-width:1.0;" width="10" x="473.75" y="194.7305"/><rect fill="#FFFFFF" height="89.9316" style="stroke:#181818;stroke-width:1.0;" width="10" x="473.75" y="277.6621"/><rect fill="none" height="75.9316" style="stroke:#000000;stroke-width:1.5;" width="460.5" x="61.25" y="239.041"/><line style="stroke:#181818;stroke-width:0.5;stroke-dasharray:5.0,5.0;" x1="94.25" x2="94.25" y1="118.9766" y2="376.5938"/><line style="stroke:#181818;stroke-width:0.5;stroke-dasharray:5.0,5.0;" x1="478.75" x2="478.75" y1="118.9766" y2="376.5938"/><text fill="#000000" font-family="sans-serif" font-size="14" lengthAdjust="spacing" textLength="41" x="71.25" y="116.0234">Agent</text><ellipse cx="94.75" cy="50.9883" fill="#E2E2F0" rx="8" ry="8" style="stroke:#181818;stroke-width:0.5;"/><path d="M94.75,58.9883 L94.75,85.9883 M81.75,66.9883 L107.75,66.9883 M94.75,85.9883 L81.75,100.9883 M94.75,85.9883 L107.75,100.9883 " fill="none" style="stroke:#181818;stroke-width:0.5;"/><text fill="#000000" font-family="sans-serif" font-size="14" lengthAdjust="spacing" textLength="41" x="71.25" y="389.1289">Agent</text><ellipse cx="94.75" cy="400.582" fill="#E2E2F0" rx="8" ry="8" style="stroke:#181818;stroke-width:0.5;"/><path d="M94.75,408.582 L94.75,435.582 M81.75,416.582 L107.75,416.582 M94.75,435.582 L81.75,450.582 M94.75,435.582 L107.75,450.582 " fill="none" style="stroke:#181818;stroke-width:0.5;"/><rect fill="#E2E2F0" height="30.4883" rx="2.5" ry="2.5" style="stroke:#181818;stroke-width:0.5;" width="66" x="445.75" y="87.4883"/><text fill="#000000" font-family="sans-serif" font-size="14" lengthAdjust="spacing" textLength="52" x="452.75" y="108.0234">:System</text><rect fill="#E2E2F0" height="30.4883" rx="2.5" ry="2.5" style="stroke:#181818;stroke-width:0.5;" width="66" x="445.75" y="375.5938"/><text fill="#000000" font-family="sans-serif" font-size="14" lengthAdjust="spacing" textLength="52" x="452.75" y="396.1289">:System</text><rect fill="#FFFFFF" height="238.6172" style="stroke:#181818;stroke-width:1.0;" width="10" x="89.75" y="128.9766"/><rect fill="#FFFFFF" height="29.3105" style="stroke:#181818;stroke-width:1.0;" width="10" x="473.75" y="194.7305"/><rect fill="#FFFFFF" height="89.9316" style="stroke:#181818;stroke-width:1.0;" width="10" x="473.75" y="277.6621"/><rect fill="none" height="39.4434" style="stroke:#000000;stroke-width:1.5;" width="180" x="442.75" y="128.9766"/><path d="M442.75,128.9766 L506.75,128.9766 L506.75,135.9766 L496.75,145.9766 L442.75,145.9766 L442.75,128.9766 " fill="#EEEEEE" style="stroke:#000000;stroke-width:2.0;"/><text fill="#000000" font-family="sans-serif" font-size="13" font-weight="bold" lengthAdjust="spacing" textLength="19" x="455.75" y="143.5449">ref</text><text fill="#000000" font-family="sans-serif" font-size="12" lengthAdjust="spacing" textLength="172" x="446.75" y="161.5781">Gets the list created in US009</text><polygon fill="#181818" points="461.75,190.7305,471.75,194.7305,461.75,198.7305,465.75,194.7305" style="stroke:#181818;stroke-width:1.0;"/><line style="stroke:#181818;stroke-width:1.0;" x1="99.75" x2="467.75" y1="194.7305" y2="194.7305"/><text fill="#000000" font-family="sans-serif" font-size="13" lengthAdjust="spacing" textLength="355" x="106.75" y="189.9883">asks for the list of all booking requests made for myself</text><polygon fill="#181818" points="110.75,220.041,100.75,224.041,110.75,228.041,106.75,224.041" style="stroke:#181818;stroke-width:1.0;"/><line style="stroke:#181818;stroke-width:1.0;stroke-dasharray:2.0,2.0;" x1="104.75" x2="477.75" y1="224.041" y2="224.041"/><text fill="#000000" font-family="sans-serif" font-size="13" lengthAdjust="spacing" textLength="348" x="116.75" y="219.2988">asks if the agent wants to apply any sorting algorithms</text><path d="M61.25,239.041 L128.25,239.041 L128.25,246.3516 L118.25,256.3516 L61.25,256.3516 L61.25,239.041 " fill="#EEEEEE" style="stroke:#000000;stroke-width:1.5;"/><rect fill="none" height="75.9316" style="stroke:#000000;stroke-width:1.5;" width="460.5" x="61.25" y="239.041"/><text fill="#000000" font-family="sans-serif" font-size="13" font-weight="bold" lengthAdjust="spacing" textLength="22" x="76.25" y="252.6094">opt</text><text fill="#000000" font-family="sans-serif" font-size="11" font-weight="bold" lengthAdjust="spacing" textLength="251" x="143.25" y="251.6758">[Agent chooses to apply a sorting algorithm]</text><polygon fill="#181818" points="461.75,273.6621,471.75,277.6621,461.75,281.6621,465.75,277.6621" style="stroke:#181818;stroke-width:1.0;"/><line style="stroke:#181818;stroke-width:1.0;" x1="99.75" x2="467.75" y1="277.6621" y2="277.6621"/><text fill="#000000" font-family="sans-serif" font-size="13" lengthAdjust="spacing" textLength="347" x="106.75" y="272.9199">asks the user the type of algorithm he wants to choose</text><polygon fill="#181818" points="110.75,302.9727,100.75,306.9727,110.75,310.9727,106.75,306.9727" style="stroke:#181818;stroke-width:1.0;"/><line style="stroke:#181818;stroke-width:1.0;stroke-dasharray:2.0,2.0;" x1="104.75" x2="472.75" y1="306.9727" y2="306.9727"/><text fill="#000000" font-family="sans-serif" font-size="13" lengthAdjust="spacing" textLength="229" x="116.75" y="302.2305">updates the list of booking requests</text><polygon fill="#181818" points="110.75,354.5938,100.75,358.5938,110.75,362.5938,106.75,358.5938" style="stroke:#181818;stroke-width:1.0;"/><line style="stroke:#181818;stroke-width:1.0;stroke-dasharray:2.0,2.0;" x1="104.75" x2="472.75" y1="358.5938" y2="358.5938"/><text fill="#000000" font-family="sans-serif" font-size="13" lengthAdjust="spacing" textLength="332" x="116.75" y="338.541">shows the updated booking request list applying the</text><text fill="#000000" font-family="sans-serif" font-size="13" lengthAdjust="spacing" textLength="159" x="120.75" y="353.8516">sorting algorithm chosen</text><!--SRC=[bL6xQiCm5Dtz5OTCxH38sWo5GagNRgPRbnlhsXRHAvAIuB-l93jkNb2gILoTUrwACYf6FOJ86ZNl3smQnaPIvqdZgQutprZYKuO8KWfRQtVITF0P6M90QpsSjuvzb1oWoL370ji1cgkAcfZU5syTcxW01Rnhf-p0N3bA2urqP28Mwr6_8CPhMPL7YloxWdGyjx17zcTOddrmyX5xXiek6yzfIq0QVDMhrKk1i15LkPp9i7mzXrudrTqOP2QnxUEqcWGNf1u2gxPGpaOlB4tKowGoAquwiYqob2l1ASLFtYt8EJM0p81WKp59arHdlOoz3eLHyArE6LiNKTf5qriR-9BidkgF2hAlG-2nXpWu7dkObf66izzHxP_v3quaNBYg-RRYw-zwp1DwUvhS5aPnopAobnhoD2E_pNqTEKLWymC0]--></g></svg>