<?xml version="1.0" encoding="us-ascii" standalone="no"?><svg xmlns="http://www.w3.org/2000/svg" xmlns:xlink="http://www.w3.org/1999/xlink" contentStyleType="text/css" height="467px" preserveAspectRatio="none" style="width:428px;height:467px;background:#FFFFFF;" version="1.1" viewBox="0 0 428 467" width="428px" zoomAndPan="magnify"><defs/><g><!--class Person--><g id="elem_Person"><rect codeLine="13" fill="#F1F1F1" height="129.7266" id="Person" rx="2.5" ry="2.5" style="stroke:#181818;stroke-width:0.5;" width="116" x="23" y="25.5"/><text fill="#000000" font-family="sans-serif" font-size="14" lengthAdjust="spacing" textLength="45" x="58.5" y="45.6074">Person</text><line style="stroke:#181818;stroke-width:0.5;" x1="24" x2="138" y1="54.1211" y2="54.1211"/><text fill="#000000" font-family="sans-serif" font-size="14" lengthAdjust="spacing" textLength="104" x="29" y="73.2285">passportNumber</text><text fill="#000000" font-family="sans-serif" font-size="14" lengthAdjust="spacing" textLength="67" x="29" y="91.8496">taxNumber</text><text fill="#000000" font-family="sans-serif" font-size="14" lengthAdjust="spacing" textLength="89" x="29" y="110.4707">phoneNumber</text><text fill="#000000" font-family="sans-serif" font-size="14" lengthAdjust="spacing" textLength="60" x="29" y="129.0918">password</text><text fill="#000000" font-family="sans-serif" font-size="14" lengthAdjust="spacing" textLength="87" x="29" y="147.7129">Roles.AGENT</text></g><!--class User--><g id="elem_User"><rect codeLine="21" fill="#F1F1F1" height="92.4844" id="User" rx="2.5" ry="2.5" style="stroke:#181818;stroke-width:0.5;" width="72" x="7" y="253"/><text fill="#000000" font-family="sans-serif" font-size="14" lengthAdjust="spacing" textLength="29" x="28.5" y="273.1074">User</text><line style="stroke:#181818;stroke-width:0.5;" x1="8" x2="78" y1="281.6211" y2="281.6211"/><text fill="#000000" font-family="sans-serif" font-size="14" lengthAdjust="spacing" textLength="35" x="13" y="300.7285">name</text><text fill="#000000" font-family="sans-serif" font-size="14" lengthAdjust="spacing" textLength="33" x="13" y="319.3496">email</text><text fill="#000000" font-family="sans-serif" font-size="14" lengthAdjust="spacing" textLength="60" x="13" y="337.9707">password</text></g><!--class VisitRequest--><g id="elem_VisitRequest"><rect codeLine="28" fill="#F1F1F1" height="166.9688" id="VisitRequest" rx="2.5" ry="2.5" style="stroke:#181818;stroke-width:0.5;" width="106" x="315" y="7"/><text fill="#000000" font-family="sans-serif" font-size="14" lengthAdjust="spacing" textLength="79" x="328.5" y="27.1074">VisitRequest</text><line style="stroke:#181818;stroke-width:0.5;" x1="316" x2="420" y1="35.6211" y2="35.6211"/><text fill="#000000" font-family="sans-serif" font-size="14" lengthAdjust="spacing" textLength="94" x="321" y="54.7285">announcement</text><text fill="#000000" font-family="sans-serif" font-size="14" lengthAdjust="spacing" textLength="28" x="321" y="73.3496">date</text><text fill="#000000" font-family="sans-serif" font-size="14" lengthAdjust="spacing" textLength="57" x="321" y="91.9707">message</text><text fill="#000000" font-family="sans-serif" font-size="14" lengthAdjust="spacing" textLength="50" x="321" y="110.5918">timeSlot</text><text fill="#000000" font-family="sans-serif" font-size="14" lengthAdjust="spacing" textLength="44" x="321" y="129.2129">person</text><text fill="#000000" font-family="sans-serif" font-size="14" lengthAdjust="spacing" textLength="37" x="321" y="147.834">idVisit</text><text fill="#000000" font-family="sans-serif" font-size="14" lengthAdjust="spacing" textLength="38" x="321" y="166.4551">status</text></g><!--class EmailService--><g id="elem_EmailService"><rect codeLine="37" fill="#F1F1F1" height="36.6211" id="EmailService" rx="2.5" ry="2.5" style="stroke:#181818;stroke-width:0.5;" width="87" x="114.5" y="280.5"/><text fill="#000000" font-family="sans-serif" font-size="14" lengthAdjust="spacing" textLength="81" x="117.5" y="300.6074">EmailService</text><line style="stroke:#181818;stroke-width:0.5;" x1="115.5" x2="200.5" y1="309.1211" y2="309.1211"/></g><!--class Client--><g id="elem_Client"><rect fill="#F1F1F1" height="36.6211" id="Client" rx="2.5" ry="2.5" style="stroke:#181818;stroke-width:0.5;" width="42" x="137" y="424"/><text fill="#000000" font-family="sans-serif" font-size="14" lengthAdjust="spacing" textLength="36" x="140" y="444.1074">Client</text><line style="stroke:#181818;stroke-width:0.5;" x1="138" x2="178" y1="452.6211" y2="452.6211"/></g><!--link Person to VisitRequest--><g id="link_Person_VisitRequest"><path codeLine="40" d="M139.08,90.5 C190.51,90.5 264.96,90.5 314.85,90.5 " fill="none" id="Person-VisitRequest" style="stroke:#181818;stroke-width:1.0;"/><polygon fill="#000000" points="166.5,78.1455,157.4549,75.2066,157.4549,81.0844,166.5,78.1455" style="stroke:#000000;stroke-width:1.0;"/><text fill="#000000" font-family="sans-serif" font-size="13" lengthAdjust="spacing" textLength="126" x="170.5" y="83.5283">manages visit request</text><text fill="#000000" font-family="sans-serif" font-size="13" lengthAdjust="spacing" textLength="7" x="146.9699" y="86.4754">1</text><text fill="#000000" font-family="sans-serif" font-size="13" lengthAdjust="spacing" textLength="20" x="287.1536" y="105.5839">0..*</text></g><!--link Person to User--><g id="link_Person_User"><path codeLine="41" d="M68.16,155.7 C65.09,171.48 61.86,188.34 59,204 C57.31,213.26 55.58,223.03 53.91,232.65 " fill="none" id="Person-to-User" style="stroke:#181818;stroke-width:1.0;"/><polygon fill="none" points="60.78,234.01,50.51,252.54,46.98,231.65,60.78,234.01" style="stroke:#181818;stroke-width:1.0;"/><polygon fill="#000000" points="63.0896,218.5619,67.6264,210.2032,61.8468,209.1329,63.0896,218.5619" style="stroke:#000000;stroke-width:1.0;"/><text fill="#000000" font-family="sans-serif" font-size="13" lengthAdjust="spacing" textLength="21" x="73" y="219.0283">is a</text></g><!--link Person to EmailService--><g id="link_Person_EmailService"><path codeLine="42" d="M104.94,155.71 C120.22,196.67 139.08,247.25 149.7,275.74 " fill="none" id="Person-to-EmailService" style="stroke:#181818;stroke-width:1.0;"/><polygon fill="#181818" points="151.46,280.46,152.0715,270.6301,149.7169,275.7737,144.5734,273.4191,151.46,280.46" style="stroke:#181818;stroke-width:1.0;"/><text fill="#000000" font-family="sans-serif" font-size="13" lengthAdjust="spacing" textLength="78" x="129" y="219.0283">sends email&gt;</text></g><!--link EmailService to Client--><g id="link_EmailService_Client"><path codeLine="43" d="M158,317.63 C158,343.16 158,390.43 158,418.61 " fill="none" id="EmailService-to-Client" style="stroke:#181818;stroke-width:1.0;"/><polygon fill="#181818" points="158,423.64,162,414.64,158,418.64,154,414.64,158,423.64" style="stroke:#181818;stroke-width:1.0;"/><text fill="#000000" font-family="sans-serif" font-size="13" lengthAdjust="spacing" textLength="82" x="159" y="390.0283">receives email</text></g><!--SRC=[LL9DJyCm3BtdLrYz825j6jSTAaq88IuJse1xbdgjjNoKsDs0mNydJJleUhAV_TwpdVA1VAkZTk223wQ9mI58x53nNwNLvg1htCgdHOXeHFlQJXkuqLKuaQzXhosZKZSMzm8I85BT25JKioXuDI4PgvbN8f5sdU2J2NvBNmWBfHgg40n5aqnox52QKB5IAfFW6IC73sS5wMiJqeOewyxjC6P8zCSaQvlWSPedmYd4AYURO97dgyU7zOlwkUY_CiPHtMk7EK2doLxp_mbln2GRVE-GPIHgxqFd3Jhqae5Aow3aa3cTSvYK76vj63hQl5OEgSgIEMRHqd4o6xmU-a6s68zayDoFC5wZk2jW1iLYFhyjhWTQWjC-EJ8SUpWzuO2N5-fizbqEIo-16FIqKbuPBe7HLpnSerJJKkwzjvJsNVP_2T8HnqRr2m00]--></g></svg>