<?xml version="1.0" encoding="us-ascii" standalone="no"?><svg xmlns="http://www.w3.org/2000/svg" xmlns:xlink="http://www.w3.org/1999/xlink" contentStyleType="text/css" height="1245.6px" preserveAspectRatio="none" style="width:979px;height:1245px;background:#FFFFFF;" version="1.1" viewBox="0 0 979 1245" width="979.2px" zoomAndPan="magnify"><defs/><g><!--class PRS--><g id="elem_PRS"><rect codeLine="5" fill="#F1F1F1" height="266.2313" id="PRS" rx="1.5" ry="1.5" style="stroke:#181818;stroke-width:0.3;" width="548.4" x="266.7" y="4.2"/><ellipse cx="524.25" cy="13.8" fill="#C2C2C2" rx="6.6" ry="6.6" style="stroke:#181818;stroke-width:0.6;"/><path d="M526.0339,17.1858 Q525.6853,17.3651 525.3018,17.4548 Q524.9183,17.5444 524.4949,17.5444 Q522.9908,17.5444 522.1989,16.5533 Q521.407,15.5622 521.407,13.6896 Q521.407,11.8119 522.1989,10.8208 Q522.9908,9.8297 524.4949,9.8297 Q524.9183,9.8297 525.3067,9.9193 Q525.6952,10.009 526.0339,10.1883 L526.0339,11.8219 Q525.6554,11.4732 525.2993,11.3114 Q524.9432,11.1495 524.5646,11.1495 Q523.7578,11.1495 523.3469,11.7895 Q522.936,12.4295 522.936,13.6896 Q522.936,14.9446 523.3469,15.5846 Q523.7578,16.2246 524.5646,16.2246 Q524.9432,16.2246 525.2993,16.0627 Q525.6554,15.9009 526.0339,15.5522 Z " fill="#000000"/><text fill="#000000" font-family="sans-serif" font-size="8.4" lengthAdjust="spacing" textLength="28.2" x="536.55" y="16.9746">Person</text><line style="stroke:#181818;stroke-width:0.3;" x1="267.3" x2="814.5" y1="23.4" y2="23.4"/><rect fill="none" height="3.6" style="stroke:#595959;stroke-width:0.6;" width="3.6" x="271.5" y="29.8465"/><text fill="#000000" font-family="sans-serif" font-size="8.4" lengthAdjust="spacing" textLength="98.4" x="278.7" y="33.9211">passportNumber: String</text><rect fill="none" height="3.6" style="stroke:#595959;stroke-width:0.6;" width="3.6" x="271.5" y="39.7395"/><text fill="#000000" font-family="sans-serif" font-size="8.4" lengthAdjust="spacing" textLength="75.6" x="278.7" y="43.8141">taxNumber: String</text><rect fill="none" height="3.6" style="stroke:#595959;stroke-width:0.6;" width="3.6" x="271.5" y="49.6324"/><text fill="#000000" font-family="sans-serif" font-size="8.4" lengthAdjust="spacing" textLength="88.8" x="278.7" y="53.707">phoneNumber: String</text><rect fill="none" height="3.6" style="stroke:#595959;stroke-width:0.6;" width="3.6" x="271.5" y="59.5254"/><text fill="#000000" font-family="sans-serif" font-size="8.4" lengthAdjust="spacing" textLength="70.8" x="278.7" y="63.6">address: Address</text><rect fill="none" height="3.6" style="stroke:#595959;stroke-width:0.6;" width="3.6" x="271.5" y="69.4184"/><text fill="#000000" font-family="sans-serif" font-size="8.4" lengthAdjust="spacing" textLength="46.8" x="278.7" y="73.493">pwd: String</text><rect fill="none" height="3.6" style="stroke:#595959;stroke-width:0.6;" width="3.6" x="271.5" y="79.3113"/><text fill="#000000" font-family="sans-serif" font-size="8.4" lengthAdjust="spacing" textLength="133.2" x="278.7" y="83.3859">PASSPORT_NUMBER_LENGTH: int</text><rect fill="none" height="3.6" style="stroke:#595959;stroke-width:0.6;" width="3.6" x="271.5" y="89.2043"/><text fill="#000000" font-family="sans-serif" font-size="8.4" lengthAdjust="spacing" textLength="107.4" x="278.7" y="93.2789">TAX_NUMBER_LENGTH: int</text><line style="stroke:#181818;stroke-width:0.3;" x1="267.3" x2="814.5" y1="97.4508" y2="97.4508"/><ellipse cx="273.3" cy="105.6973" fill="#A6A6A6" rx="1.8" ry="1.8" style="stroke:#545454;stroke-width:0.6;"/><text fill="#000000" font-family="sans-serif" font-size="8.4" lengthAdjust="spacing" textLength="180" x="278.7" y="107.9719">Person(id: String, pwd: String, name: String)</text><ellipse cx="273.3" cy="115.5902" fill="#A6A6A6" rx="1.8" ry="1.8" style="stroke:#545454;stroke-width:0.6;"/><text fill="#000000" font-family="sans-serif" font-size="8.4" lengthAdjust="spacing" textLength="532.8" x="278.7" y="117.8648">Person(id: String, pwd: String, name: String, passportNumber: String, taxNumber: String, phoneNumber: String, address: Address)</text><ellipse cx="273.3" cy="125.4832" fill="#A6A6A6" rx="1.8" ry="1.8" style="stroke:#545454;stroke-width:0.6;"/><text fill="#000000" font-family="sans-serif" font-size="8.4" lengthAdjust="spacing" textLength="65.4" x="278.7" y="127.7578">getPwd(): String</text><ellipse cx="273.3" cy="135.3762" fill="#A6A6A6" rx="1.8" ry="1.8" style="stroke:#545454;stroke-width:0.6;"/><text fill="#000000" font-family="sans-serif" font-size="8.4" lengthAdjust="spacing" textLength="103.8" x="278.7" y="137.6508">setPwd(pwd: String): void</text><ellipse cx="273.3" cy="145.2691" fill="#A6A6A6" rx="1.8" ry="1.8" style="stroke:#545454;stroke-width:0.6;"/><text fill="#000000" font-family="sans-serif" font-size="8.4" lengthAdjust="spacing" textLength="207" x="278.7" y="147.5438">setPassportNumber(passportNumber: String): void</text><ellipse cx="273.3" cy="155.1621" fill="#A6A6A6" rx="1.8" ry="1.8" style="stroke:#545454;stroke-width:0.6;"/><text fill="#000000" font-family="sans-serif" font-size="8.4" lengthAdjust="spacing" textLength="117" x="278.7" y="157.4367">getPassportNumber(): String</text><ellipse cx="273.3" cy="165.0551" fill="#A6A6A6" rx="1.8" ry="1.8" style="stroke:#545454;stroke-width:0.6;"/><text fill="#000000" font-family="sans-serif" font-size="8.4" lengthAdjust="spacing" textLength="97.2" x="278.7" y="167.3297">getTaxNumber(): String</text><ellipse cx="273.3" cy="174.948" fill="#A6A6A6" rx="1.8" ry="1.8" style="stroke:#545454;stroke-width:0.6;"/><text fill="#000000" font-family="sans-serif" font-size="8.4" lengthAdjust="spacing" textLength="164.4" x="278.7" y="177.2227">setTaxNumber(taxNumber: String): void</text><ellipse cx="273.3" cy="184.841" fill="#A6A6A6" rx="1.8" ry="1.8" style="stroke:#545454;stroke-width:0.6;"/><text fill="#000000" font-family="sans-serif" font-size="8.4" lengthAdjust="spacing" textLength="107.4" x="278.7" y="187.1156">getPhoneNumber(): String</text><ellipse cx="273.3" cy="194.734" fill="#A6A6A6" rx="1.8" ry="1.8" style="stroke:#545454;stroke-width:0.6;"/><text fill="#000000" font-family="sans-serif" font-size="8.4" lengthAdjust="spacing" textLength="187.8" x="278.7" y="197.0086">setPhoneNumber(phoneNumber: String): void</text><ellipse cx="273.3" cy="204.627" fill="#A6A6A6" rx="1.8" ry="1.8" style="stroke:#545454;stroke-width:0.6;"/><text fill="#000000" font-family="sans-serif" font-size="8.4" lengthAdjust="spacing" textLength="91.2" x="278.7" y="206.9016">getAddress(): Address</text><ellipse cx="273.3" cy="214.5199" fill="#A6A6A6" rx="1.8" ry="1.8" style="stroke:#545454;stroke-width:0.6;"/><text fill="#000000" font-family="sans-serif" font-size="8.4" lengthAdjust="spacing" textLength="144.6" x="278.7" y="216.7945">setAddress(address: Address): void</text><ellipse cx="273.3" cy="224.4129" fill="#A6A6A6" rx="1.8" ry="1.8" style="stroke:#545454;stroke-width:0.6;"/><text fill="#000000" font-family="sans-serif" font-size="8.4" lengthAdjust="spacing" textLength="162" x="278.7" y="226.6875">validatePassword(pwd: String): boolean</text><ellipse cx="273.3" cy="234.3059" fill="#A6A6A6" rx="1.8" ry="1.8" style="stroke:#545454;stroke-width:0.6;"/><text fill="#000000" font-family="sans-serif" font-size="8.4" lengthAdjust="spacing" textLength="61.2" x="278.7" y="236.5805">clone(): Person</text><ellipse cx="273.3" cy="244.1988" fill="#A6A6A6" rx="1.8" ry="1.8" style="stroke:#545454;stroke-width:0.6;"/><text fill="#000000" font-family="sans-serif" font-size="8.4" lengthAdjust="spacing" textLength="108" x="278.7" y="246.4734">equals(o: Object): boolean</text><ellipse cx="273.3" cy="254.0918" fill="#A6A6A6" rx="1.8" ry="1.8" style="stroke:#545454;stroke-width:0.6;"/><text fill="#000000" font-family="sans-serif" font-size="8.4" lengthAdjust="spacing" textLength="63" x="278.7" y="256.3664">hashCode(): int</text><ellipse cx="273.3" cy="263.9848" fill="#A6A6A6" rx="1.8" ry="1.8" style="stroke:#545454;stroke-width:0.6;"/><text fill="#000000" font-family="sans-serif" font-size="8.4" lengthAdjust="spacing" textLength="68.4" x="278.7" y="266.2594">toString(): String</text></g><!--class UI--><g id="elem_UI"><rect codeLine="32" fill="#F1F1F1" height="196.9805" id="UI" rx="1.5" ry="1.5" style="stroke:#181818;stroke-width:0.3;" width="504" x="288.9" y="306.6"/><ellipse cx="507.75" cy="316.2" fill="#C2C2C2" rx="6.6" ry="6.6" style="stroke:#181818;stroke-width:0.6;"/><path d="M509.5339,319.5858 Q509.1853,319.7651 508.8018,319.8548 Q508.4183,319.9444 507.9949,319.9444 Q506.4908,319.9444 505.6989,318.9533 Q504.907,317.9622 504.907,316.0896 Q504.907,314.2119 505.6989,313.2208 Q506.4908,312.2297 507.9949,312.2297 Q508.4183,312.2297 508.8067,312.3193 Q509.1952,312.409 509.5339,312.5883 L509.5339,314.2219 Q509.1554,313.8732 508.7993,313.7114 Q508.4432,313.5495 508.0646,313.5495 Q507.2578,313.5495 506.8469,314.1895 Q506.436,314.8295 506.436,316.0896 Q506.436,317.3446 506.8469,317.9846 Q507.2578,318.6246 508.0646,318.6246 Q508.4432,318.6246 508.7993,318.4627 Q509.1554,318.3009 509.5339,317.9522 Z " fill="#000000"/><text fill="#000000" font-family="sans-serif" font-size="8.4" lengthAdjust="spacing" textLength="61.2" x="520.05" y="319.3746">:VisitRequestUI</text><line style="stroke:#181818;stroke-width:0.3;" x1="289.5" x2="792.3" y1="325.8" y2="325.8"/><rect fill="none" height="3.6" style="stroke:#595959;stroke-width:0.6;" width="3.6" x="293.7" y="332.2465"/><text fill="#000000" font-family="sans-serif" font-size="8.4" lengthAdjust="spacing" textLength="47.4" x="300.9" y="336.3211">date: String</text><rect fill="none" height="3.6" style="stroke:#595959;stroke-width:0.6;" width="3.6" x="293.7" y="342.1395"/><text fill="#000000" font-family="sans-serif" font-size="8.4" lengthAdjust="spacing" textLength="65.4" x="300.9" y="346.2141">message: String</text><rect fill="none" height="3.6" style="stroke:#595959;stroke-width:0.6;" width="3.6" x="293.7" y="352.0324"/><text fill="#000000" font-family="sans-serif" font-size="8.4" lengthAdjust="spacing" textLength="61.2" x="300.9" y="356.107">timeSlot: int[][]</text><rect fill="none" height="3.6" style="stroke:#595959;stroke-width:0.6;" width="3.6" x="293.7" y="361.9254"/><text fill="#000000" font-family="sans-serif" font-size="8.4" lengthAdjust="spacing" textLength="129.6" x="300.9" y="366">announcement: Announcement</text><rect fill="none" height="3.6" style="stroke:#595959;stroke-width:0.6;" width="3.6" x="293.7" y="371.8184"/><text fill="#000000" font-family="sans-serif" font-size="8.4" lengthAdjust="spacing" textLength="61.8" x="300.9" y="375.893">person: Person</text><rect fill="none" height="3.6" style="stroke:#595959;stroke-width:0.6;" width="3.6" x="293.7" y="381.7113"/><text fill="#000000" font-family="sans-serif" font-size="8.4" lengthAdjust="spacing" textLength="59.4" x="300.9" y="385.7859">input: Scanner</text><rect fill="none" height="3.6" style="stroke:#595959;stroke-width:0.6;" width="3.6" x="293.7" y="391.6043"/><text fill="#000000" font-family="sans-serif" font-size="8.4" lengthAdjust="spacing" textLength="137.4" x="300.9" y="395.6789">controller: VisitRequestController</text><line style="stroke:#181818;stroke-width:0.3;" x1="289.5" x2="792.3" y1="399.8508" y2="399.8508"/><ellipse cx="295.5" cy="408.0973" fill="#A6A6A6" rx="1.8" ry="1.8" style="stroke:#545454;stroke-width:0.6;"/><text fill="#000000" font-family="sans-serif" font-size="8.4" lengthAdjust="spacing" textLength="42.6" x="300.9" y="410.3719">run(): void</text><ellipse cx="295.5" cy="417.9902" fill="#A6A6A6" rx="1.8" ry="1.8" style="stroke:#545454;stroke-width:0.6;"/><text fill="#000000" font-family="sans-serif" font-size="8.4" lengthAdjust="spacing" textLength="168" x="300.9" y="420.2648">requestAnnouncement(): Announcement</text><ellipse cx="295.5" cy="427.8832" fill="#A6A6A6" rx="1.8" ry="1.8" style="stroke:#545454;stroke-width:0.6;"/><text fill="#000000" font-family="sans-serif" font-size="8.4" lengthAdjust="spacing" textLength="85.2" x="300.9" y="430.1578">requestDate(): String</text><ellipse cx="295.5" cy="437.7762" fill="#A6A6A6" rx="1.8" ry="1.8" style="stroke:#545454;stroke-width:0.6;"/><text fill="#000000" font-family="sans-serif" font-size="8.4" lengthAdjust="spacing" textLength="100.8" x="300.9" y="440.0508">requestTimeSlot(): int[][]</text><ellipse cx="295.5" cy="447.6691" fill="#A6A6A6" rx="1.8" ry="1.8" style="stroke:#545454;stroke-width:0.6;"/><text fill="#000000" font-family="sans-serif" font-size="8.4" lengthAdjust="spacing" textLength="140.4" x="300.9" y="449.9437">requestString(print: String): String</text><ellipse cx="295.5" cy="457.5621" fill="#A6A6A6" rx="1.8" ry="1.8" style="stroke:#545454;stroke-width:0.6;"/><text fill="#000000" font-family="sans-serif" font-size="8.4" lengthAdjust="spacing" textLength="99.6" x="300.9" y="459.8367">verfiInt(print: String): int</text><ellipse cx="295.5" cy="467.4551" fill="#A6A6A6" rx="1.8" ry="1.8" style="stroke:#545454;stroke-width:0.6;"/><text fill="#000000" font-family="sans-serif" font-size="8.4" lengthAdjust="spacing" textLength="102" x="300.9" y="469.7297">requestMessage(): String</text><ellipse cx="295.5" cy="477.348" fill="#A6A6A6" rx="1.8" ry="1.8" style="stroke:#545454;stroke-width:0.6;"/><text fill="#000000" font-family="sans-serif" font-size="8.4" lengthAdjust="spacing" textLength="78.6" x="300.9" y="479.6227">requestID(): Person</text><ellipse cx="295.5" cy="487.241" fill="#A6A6A6" rx="1.8" ry="1.8" style="stroke:#545454;stroke-width:0.6;"/><text fill="#000000" font-family="sans-serif" font-size="8.4" lengthAdjust="spacing" textLength="78" x="300.9" y="489.5156">requestData(): void</text><ellipse cx="295.5" cy="497.134" fill="#A6A6A6" rx="1.8" ry="1.8" style="stroke:#545454;stroke-width:0.6;"/><text fill="#000000" font-family="sans-serif" font-size="8.4" lengthAdjust="spacing" textLength="488.4" x="300.9" y="499.4086">createVisitRequest(announcement: Announcement, date: String, timeSlot: int[][], message: String, person: Person): void</text></g><!--class CTRL--><g id="elem_CTRL"><rect codeLine="52" fill="#F1F1F1" height="117.8367" id="CTRL" rx="1.5" ry="1.5" style="stroke:#181818;stroke-width:0.3;" width="504" x="288.9" y="539.4"/><ellipse cx="490.95" cy="549" fill="#C2C2C2" rx="6.6" ry="6.6" style="stroke:#181818;stroke-width:0.6;"/><path d="M492.7339,552.3858 Q492.3853,552.5651 492.0018,552.6548 Q491.6183,552.7444 491.1949,552.7444 Q489.6908,552.7444 488.8989,551.7533 Q488.107,550.7622 488.107,548.8896 Q488.107,547.0119 488.8989,546.0208 Q489.6908,545.0297 491.1949,545.0297 Q491.6183,545.0297 492.0067,545.1193 Q492.3952,545.209 492.7339,545.3883 L492.7339,547.0219 Q492.3554,546.6732 491.9993,546.5114 Q491.6432,546.3495 491.2646,546.3495 Q490.4578,546.3495 490.0469,546.9895 Q489.636,547.6295 489.636,548.8896 Q489.636,550.1446 490.0469,550.7846 Q490.4578,551.4246 491.2646,551.4246 Q491.6432,551.4246 491.9993,551.2627 Q492.3554,551.1009 492.7339,550.7522 Z " fill="#000000"/><text fill="#000000" font-family="sans-serif" font-size="8.4" lengthAdjust="spacing" textLength="94.8" x="503.25" y="552.1746">:VisitRequestController</text><line style="stroke:#181818;stroke-width:0.3;" x1="289.5" x2="792.3" y1="558.6" y2="558.6"/><rect fill="none" height="3.6" style="stroke:#595959;stroke-width:0.6;" width="3.6" x="293.7" y="565.0465"/><text fill="#000000" font-family="sans-serif" font-size="8.4" lengthAdjust="spacing" textLength="192" x="300.9" y="569.1211">visitRequestRepository: VisitRequestRepository</text><rect fill="none" height="3.6" style="stroke:#595959;stroke-width:0.6;" width="3.6" x="293.7" y="574.9395"/><text fill="#000000" font-family="sans-serif" font-size="8.4" lengthAdjust="spacing" textLength="217.2" x="300.9" y="579.0141">announcementRepository: AnnouncementRepository</text><rect fill="none" height="3.6" style="stroke:#595959;stroke-width:0.6;" width="3.6" x="293.7" y="584.8324"/><text fill="#000000" font-family="sans-serif" font-size="8.4" lengthAdjust="spacing" textLength="149.4" x="300.9" y="588.907">personRepository: PersonRepository</text><line style="stroke:#181818;stroke-width:0.3;" x1="289.5" x2="792.3" y1="593.0789" y2="593.0789"/><ellipse cx="295.5" cy="601.3254" fill="#A6A6A6" rx="1.8" ry="1.8" style="stroke:#545454;stroke-width:0.6;"/><text fill="#000000" font-family="sans-serif" font-size="8.4" lengthAdjust="spacing" textLength="98.4" x="300.9" y="603.6">VisitRequestController()</text><ellipse cx="295.5" cy="611.2184" fill="#A6A6A6" rx="1.8" ry="1.8" style="stroke:#545454;stroke-width:0.6;"/><text fill="#000000" font-family="sans-serif" font-size="8.4" lengthAdjust="spacing" textLength="181.2" x="300.9" y="613.493">getAnnouncements(): List&lt;Announcement&gt;</text><ellipse cx="295.5" cy="621.1113" fill="#A6A6A6" rx="1.8" ry="1.8" style="stroke:#545454;stroke-width:0.6;"/><text fill="#000000" font-family="sans-serif" font-size="8.4" lengthAdjust="spacing" textLength="151.8" x="300.9" y="623.3859">getVisitRequest(): List&lt;VisitRequest&gt;</text><ellipse cx="295.5" cy="631.0043" fill="#A6A6A6" rx="1.8" ry="1.8" style="stroke:#545454;stroke-width:0.6;"/><text fill="#000000" font-family="sans-serif" font-size="8.4" lengthAdjust="spacing" textLength="168" x="300.9" y="633.2789">getPersonRepository(): PersonRepository</text><ellipse cx="295.5" cy="640.8973" fill="#A6A6A6" rx="1.8" ry="1.8" style="stroke:#545454;stroke-width:0.6;"/><text fill="#000000" font-family="sans-serif" font-size="8.4" lengthAdjust="spacing" textLength="488.4" x="300.9" y="643.1719">createVisitRequest(announcement: Announcement, date: String, timeSlot: int[][], message: String, person: Person): void</text><ellipse cx="295.5" cy="650.7902" fill="#A6A6A6" rx="1.8" ry="1.8" style="stroke:#545454;stroke-width:0.6;"/><text fill="#000000" font-family="sans-serif" font-size="8.4" lengthAdjust="spacing" textLength="192.6" x="300.9" y="653.0648">saveTimeSlot(timereal: int[][], count: int): int[][]</text></g><!--class RepositorySingleton--><g id="elem_RepositorySingleton"><rect codeLine="64" fill="#F1F1F1" height="365.1609" id="RepositorySingleton" rx="1.5" ry="1.5" style="stroke:#181818;stroke-width:0.3;" width="397.8" x="342" y="693"/><ellipse cx="511.65" cy="702.6" fill="#C2C2C2" rx="6.6" ry="6.6" style="stroke:#181818;stroke-width:0.6;"/><path d="M513.4339,705.9858 Q513.0853,706.1651 512.7018,706.2548 Q512.3183,706.3444 511.8949,706.3444 Q510.3908,706.3444 509.5989,705.3533 Q508.807,704.3622 508.807,702.4896 Q508.807,700.6119 509.5989,699.6208 Q510.3908,698.6297 511.8949,698.6297 Q512.3183,698.6297 512.7067,698.7193 Q513.0952,698.809 513.4339,698.9883 L513.4339,700.6219 Q513.0554,700.2732 512.6993,700.1114 Q512.3432,699.9495 511.9646,699.9495 Q511.1578,699.9495 510.7469,700.5895 Q510.336,701.2295 510.336,702.4896 Q510.336,703.7446 510.7469,704.3846 Q511.1578,705.0246 511.9646,705.0246 Q512.3432,705.0246 512.6993,704.8627 Q513.0554,704.7009 513.4339,704.3522 Z " fill="#000000"/><text fill="#000000" font-family="sans-serif" font-size="8.4" lengthAdjust="spacing" textLength="53.4" x="523.95" y="705.7746">:Repositories</text><line style="stroke:#181818;stroke-width:0.3;" x1="342.6" x2="739.2" y1="712.2" y2="712.2"/><rect fill="none" height="3.6" style="stroke:#595959;stroke-width:0.6;" width="3.6" x="346.8" y="718.6465"/><text fill="#000000" font-family="sans-serif" font-size="8.4" lengthAdjust="spacing" textLength="119.4" x="354" y="722.7211">instance: Repositories           |</text><rect fill="none" height="3.6" style="stroke:#595959;stroke-width:0.6;" width="3.6" x="346.8" y="728.5395"/><text fill="#000000" font-family="sans-serif" font-size="8.4" lengthAdjust="spacing" textLength="229.8" x="354" y="732.6141">propertyTypeListRepository: PropertyTypeListRepository</text><rect fill="none" height="3.6" style="stroke:#595959;stroke-width:0.6;" width="3.6" x="346.8" y="738.4324"/><text fill="#000000" font-family="sans-serif" font-size="8.4" lengthAdjust="spacing" textLength="134.4" x="354" y="742.507">userRepository: UserRepository |</text><rect fill="none" height="3.6" style="stroke:#595959;stroke-width:0.6;" width="3.6" x="346.8" y="748.3254"/><text fill="#000000" font-family="sans-serif" font-size="8.4" lengthAdjust="spacing" textLength="202.8" x="354" y="752.4">taskCategoryRepository: TaskCategoryRepository</text><rect fill="none" height="3.6" style="stroke:#595959;stroke-width:0.6;" width="3.6" x="346.8" y="758.2184"/><text fill="#000000" font-family="sans-serif" font-size="8.4" lengthAdjust="spacing" textLength="199.2" x="354" y="762.293">organizationRepository: OrganizationRepository</text><rect fill="none" height="3.6" style="stroke:#595959;stroke-width:0.6;" width="3.6" x="346.8" y="768.1113"/><text fill="#000000" font-family="sans-serif" font-size="8.4" lengthAdjust="spacing" textLength="212.4" x="354" y="772.1859">authenticationRepository: AuthenticationRepository</text><rect fill="none" height="3.6" style="stroke:#595959;stroke-width:0.6;" width="3.6" x="346.8" y="778.0043"/><text fill="#000000" font-family="sans-serif" font-size="8.4" lengthAdjust="spacing" textLength="149.4" x="354" y="782.0789">branchRepository: BranchRepository</text><rect fill="none" height="3.6" style="stroke:#595959;stroke-width:0.6;" width="3.6" x="346.8" y="787.8973"/><text fill="#000000" font-family="sans-serif" font-size="8.4" lengthAdjust="spacing" textLength="156.6" x="354" y="791.9719">requestRepository: RequestRepository</text><rect fill="none" height="3.6" style="stroke:#595959;stroke-width:0.6;" width="3.6" x="346.8" y="797.7902"/><text fill="#000000" font-family="sans-serif" font-size="8.4" lengthAdjust="spacing" textLength="217.2" x="354" y="801.8648">announcementRepository: AnnouncementRepository</text><rect fill="none" height="3.6" style="stroke:#595959;stroke-width:0.6;" width="3.6" x="346.8" y="807.6832"/><text fill="#000000" font-family="sans-serif" font-size="8.4" lengthAdjust="spacing" textLength="149.4" x="354" y="811.7578">personRepository: PersonRepository</text><rect fill="none" height="3.6" style="stroke:#595959;stroke-width:0.6;" width="3.6" x="346.8" y="817.5762"/><text fill="#000000" font-family="sans-serif" font-size="8.4" lengthAdjust="spacing" textLength="215.4" x="354" y="821.6508">purchaseOrderRepository: PurchaseOrderRepository</text><rect fill="none" height="3.6" style="stroke:#595959;stroke-width:0.6;" width="3.6" x="346.8" y="827.4691"/><text fill="#000000" font-family="sans-serif" font-size="8.4" lengthAdjust="spacing" textLength="171.6" x="354" y="831.5437">employeeRepository: EmployeeRepository</text><rect fill="none" height="3.6" style="stroke:#595959;stroke-width:0.6;" width="3.6" x="346.8" y="837.3621"/><text fill="#000000" font-family="sans-serif" font-size="8.4" lengthAdjust="spacing" textLength="140.4" x="354" y="841.4367">agentRepository: AgentRepository</text><rect fill="none" height="3.6" style="stroke:#595959;stroke-width:0.6;" width="3.6" x="346.8" y="847.2551"/><text fill="#000000" font-family="sans-serif" font-size="8.4" lengthAdjust="spacing" textLength="192" x="354" y="851.3297">visitRequestRepository: VisitRequestRepository</text><line style="stroke:#181818;stroke-width:0.3;" x1="342.6" x2="739.2" y1="855.5016" y2="855.5016"/><ellipse cx="348.6" cy="863.748" fill="#A6A6A6" rx="1.8" ry="1.8" style="stroke:#545454;stroke-width:0.6;"/><text fill="#000000" font-family="sans-serif" font-size="8.4" lengthAdjust="spacing" textLength="219.6" x="354" y="866.0227">getOrganizationRepository(): OrganizationRepository</text><ellipse cx="348.6" cy="873.641" fill="#A6A6A6" rx="1.8" ry="1.8" style="stroke:#545454;stroke-width:0.6;"/><text fill="#000000" font-family="sans-serif" font-size="8.4" lengthAdjust="spacing" textLength="224.4" x="354" y="875.9156">getTaskCategoryRepository(): TaskCategoryRepository</text><ellipse cx="348.6" cy="883.534" fill="#A6A6A6" rx="1.8" ry="1.8" style="stroke:#545454;stroke-width:0.6;"/><text fill="#000000" font-family="sans-serif" font-size="8.4" lengthAdjust="spacing" textLength="232.8" x="354" y="885.8086">getAuthenticationRepository(): AuthenticationRepository</text><ellipse cx="348.6" cy="893.427" fill="#A6A6A6" rx="1.8" ry="1.8" style="stroke:#545454;stroke-width:0.6;"/><text fill="#000000" font-family="sans-serif" font-size="8.4" lengthAdjust="spacing" textLength="237.6" x="354" y="895.7016">getAnnouncementRepository(): AnnouncementRepository</text><ellipse cx="348.6" cy="903.3199" fill="#A6A6A6" rx="1.8" ry="1.8" style="stroke:#545454;stroke-width:0.6;"/><text fill="#000000" font-family="sans-serif" font-size="8.4" lengthAdjust="spacing" textLength="212.4" x="354" y="905.5945">getVisitRequestRepository(): VisitRequestRepository</text><ellipse cx="348.6" cy="913.2129" fill="#A6A6A6" rx="1.8" ry="1.8" style="stroke:#545454;stroke-width:0.6;"/><text fill="#000000" font-family="sans-serif" font-size="8.4" lengthAdjust="spacing" textLength="168" x="354" y="915.4875">getBranchRepository(): BranchRepository</text><ellipse cx="348.6" cy="923.1059" fill="#A6A6A6" rx="1.8" ry="1.8" style="stroke:#545454;stroke-width:0.6;"/><text fill="#000000" font-family="sans-serif" font-size="8.4" lengthAdjust="spacing" textLength="177.6" x="354" y="925.3805">getRequestRepository(): RequestRepository</text><ellipse cx="348.6" cy="932.9988" fill="#A6A6A6" rx="1.8" ry="1.8" style="stroke:#545454;stroke-width:0.6;"/><text fill="#000000" font-family="sans-serif" font-size="8.4" lengthAdjust="spacing" textLength="168" x="354" y="935.2734">getPersonRepository(): PersonRepository</text><ellipse cx="348.6" cy="942.8918" fill="#A6A6A6" rx="1.8" ry="1.8" style="stroke:#545454;stroke-width:0.6;"/><text fill="#000000" font-family="sans-serif" font-size="8.4" lengthAdjust="spacing" textLength="248.4" x="354" y="945.1664">getPropertyTypeListRepository(): PropertyTypeListRepository</text><ellipse cx="348.6" cy="952.7848" fill="#A6A6A6" rx="1.8" ry="1.8" style="stroke:#545454;stroke-width:0.6;"/><text fill="#000000" font-family="sans-serif" font-size="8.4" lengthAdjust="spacing" textLength="357" x="354" y="955.0594">setAuthenticationRepository(authenticationRepository: AuthenticationRepository): void</text><ellipse cx="348.6" cy="962.6777" fill="#A6A6A6" rx="1.8" ry="1.8" style="stroke:#545454;stroke-width:0.6;"/><text fill="#000000" font-family="sans-serif" font-size="8.4" lengthAdjust="spacing" textLength="261.6" x="354" y="964.9523">setBranchRepository(branchRepository: BranchRepository): void</text><ellipse cx="348.6" cy="972.5707" fill="#A6A6A6" rx="1.8" ry="1.8" style="stroke:#545454;stroke-width:0.6;"/><text fill="#000000" font-family="sans-serif" font-size="8.4" lengthAdjust="spacing" textLength="273.6" x="354" y="974.8453">setRequestRepository(requestRepository: RequestRepository): void</text><ellipse cx="348.6" cy="982.4637" fill="#A6A6A6" rx="1.8" ry="1.8" style="stroke:#545454;stroke-width:0.6;"/><text fill="#000000" font-family="sans-serif" font-size="8.4" lengthAdjust="spacing" textLength="164.4" x="354" y="984.7383">setInstance(instance: Repositories): void</text><ellipse cx="348.6" cy="992.3566" fill="#A6A6A6" rx="1.8" ry="1.8" style="stroke:#545454;stroke-width:0.6;"/><text fill="#000000" font-family="sans-serif" font-size="8.4" lengthAdjust="spacing" textLength="382.2" x="354" y="994.6312">setPropertyTypeListRepository(propertyTypeListRepository: PropertyTypeListRepository): void</text><ellipse cx="348.6" cy="1002.2496" fill="#A6A6A6" rx="1.8" ry="1.8" style="stroke:#545454;stroke-width:0.6;"/><text fill="#000000" font-family="sans-serif" font-size="8.4" lengthAdjust="spacing" textLength="148.8" x="354" y="1004.5242">getUserRepository(): UserRepository</text><ellipse cx="348.6" cy="1012.1426" fill="#A6A6A6" rx="1.8" ry="1.8" style="stroke:#545454;stroke-width:0.6;"/><text fill="#000000" font-family="sans-serif" font-size="8.4" lengthAdjust="spacing" textLength="234" x="354" y="1014.4172">getPurchaseOrderRepository(): PurchaseOrderRepository</text><ellipse cx="348.6" cy="1022.0355" fill="#A6A6A6" rx="1.8" ry="1.8" style="stroke:#545454;stroke-width:0.6;"/><text fill="#000000" font-family="sans-serif" font-size="8.4" lengthAdjust="spacing" textLength="231.6" x="354" y="1024.3102">setUserRepository(userRepository: UserRepository): void</text><ellipse cx="348.6" cy="1031.9285" fill="#A6A6A6" rx="1.8" ry="1.8" style="stroke:#545454;stroke-width:0.6;"/><text fill="#000000" font-family="sans-serif" font-size="8.4" lengthAdjust="spacing" textLength="190.8" x="354" y="1034.2031">getEmployeeRepository(): EmployeeRepository</text><ellipse cx="348.6" cy="1041.8215" fill="#A6A6A6" rx="1.8" ry="1.8" style="stroke:#545454;stroke-width:0.6;"/><text fill="#000000" font-family="sans-serif" font-size="8.4" lengthAdjust="spacing" textLength="160.8" x="354" y="1044.0961">getAgentRepository(): AgentRepository</text><ellipse cx="348.6" cy="1051.7145" fill="#A6A6A6" rx="1.8" ry="1.8" style="stroke:#545454;stroke-width:0.6;"/><text fill="#000000" font-family="sans-serif" font-size="8.4" lengthAdjust="spacing" textLength="109.2" x="354" y="1053.9891">getInstance(): Repositories</text></g><!--class AR--><g id="elem_AR"><rect codeLine="101" fill="#F1F1F1" height="78.2648" id="AR" rx="1.5" ry="1.5" style="stroke:#181818;stroke-width:0.3;" width="287.4" x="4.2" y="1129.2"/><ellipse cx="90.75" cy="1138.8" fill="#C2C2C2" rx="6.6" ry="6.6" style="stroke:#181818;stroke-width:0.6;"/><path d="M92.5339,1142.1858 Q92.1853,1142.3651 91.8018,1142.4548 Q91.4183,1142.5444 90.9949,1142.5444 Q89.4908,1142.5444 88.6989,1141.5533 Q87.907,1140.5622 87.907,1138.6896 Q87.907,1136.8119 88.6989,1135.8208 Q89.4908,1134.8297 90.9949,1134.8297 Q91.4183,1134.8297 91.8067,1134.9193 Q92.1952,1135.009 92.5339,1135.1883 L92.5339,1136.8219 Q92.1554,1136.4732 91.7993,1136.3114 Q91.4432,1136.1495 91.0646,1136.1495 Q90.2578,1136.1495 89.8469,1136.7895 Q89.436,1137.4295 89.436,1138.6896 Q89.436,1139.9446 89.8469,1140.5846 Q90.2578,1141.2246 91.0646,1141.2246 Q91.4432,1141.2246 91.7993,1141.0627 Q92.1554,1140.9009 92.5339,1140.5522 Z " fill="#000000"/><text fill="#000000" font-family="sans-serif" font-size="8.4" lengthAdjust="spacing" textLength="109.2" x="103.05" y="1141.9746">:AnnouncementRepository</text><line style="stroke:#181818;stroke-width:0.3;" x1="4.8" x2="291" y1="1148.4" y2="1148.4"/><rect fill="none" height="3.6" style="stroke:#595959;stroke-width:0.6;" width="3.6" x="9" y="1154.8465"/><text fill="#000000" font-family="sans-serif" font-size="8.4" lengthAdjust="spacing" textLength="160.8" x="16.2" y="1158.9211">announcements: List&lt;Announcement&gt;</text><line style="stroke:#181818;stroke-width:0.3;" x1="4.8" x2="291" y1="1163.093" y2="1163.093"/><ellipse cx="10.8" cy="1171.3395" fill="#A6A6A6" rx="1.8" ry="1.8" style="stroke:#545454;stroke-width:0.6;"/><text fill="#000000" font-family="sans-serif" font-size="8.4" lengthAdjust="spacing" textLength="181.2" x="16.2" y="1173.6141">getAnnouncements(): List&lt;Announcement&gt;</text><ellipse cx="10.8" cy="1181.2324" fill="#A6A6A6" rx="1.8" ry="1.8" style="stroke:#545454;stroke-width:0.6;"/><text fill="#000000" font-family="sans-serif" font-size="8.4" lengthAdjust="spacing" textLength="236.4" x="16.2" y="1183.507">addAnnouncement(announcement: Announcement): void</text><ellipse cx="10.8" cy="1191.1254" fill="#A6A6A6" rx="1.8" ry="1.8" style="stroke:#545454;stroke-width:0.6;"/><text fill="#000000" font-family="sans-serif" font-size="8.4" lengthAdjust="spacing" textLength="225" x="16.2" y="1193.4">getAnnouncementsRepository(): List&lt;Announcement&gt;</text><ellipse cx="10.8" cy="1201.0184" fill="#A6A6A6" rx="1.8" ry="1.8" style="stroke:#545454;stroke-width:0.6;"/><text fill="#000000" font-family="sans-serif" font-size="8.4" lengthAdjust="spacing" textLength="271.8" x="16.2" y="1203.293">getAnnouncementByOrder(order: PurchaseOrder): Announcement</text></g><!--class VRR--><g id="elem_VRR"><rect codeLine="109" fill="#F1F1F1" height="147.5156" id="VRR" rx="1.5" ry="1.5" style="stroke:#181818;stroke-width:0.3;" width="456.6" x="312.6" y="1094.4"/><ellipse cx="490.05" cy="1104" fill="#C2C2C2" rx="6.6" ry="6.6" style="stroke:#181818;stroke-width:0.6;"/><path d="M491.8339,1107.3858 Q491.4853,1107.5651 491.1018,1107.6548 Q490.7183,1107.7444 490.2949,1107.7444 Q488.7908,1107.7444 487.9989,1106.7533 Q487.207,1105.7622 487.207,1103.8896 Q487.207,1102.0119 487.9989,1101.0208 Q488.7908,1100.0297 490.2949,1100.0297 Q490.7183,1100.0297 491.1067,1100.1193 Q491.4952,1100.209 491.8339,1100.3883 L491.8339,1102.0219 Q491.4554,1101.6732 491.0993,1101.5114 Q490.7432,1101.3495 490.3646,1101.3495 Q489.5578,1101.3495 489.1469,1101.9895 Q488.736,1102.6295 488.736,1103.8896 Q488.736,1105.1446 489.1469,1105.7846 Q489.5578,1106.4246 490.3646,1106.4246 Q490.7432,1106.4246 491.0993,1106.2627 Q491.4554,1106.1009 491.8339,1105.7522 Z " fill="#000000"/><text fill="#000000" font-family="sans-serif" font-size="8.4" lengthAdjust="spacing" textLength="96.6" x="502.35" y="1107.1746">:VisitRequestRepository</text><line style="stroke:#181818;stroke-width:0.3;" x1="313.2" x2="768.6" y1="1113.6" y2="1113.6"/><rect fill="none" height="3.6" style="stroke:#595959;stroke-width:0.6;" width="3.6" x="317.4" y="1120.0465"/><text fill="#000000" font-family="sans-serif" font-size="8.4" lengthAdjust="spacing" textLength="129.6" x="324.6" y="1124.1211">announcement: Announcement</text><rect fill="none" height="3.6" style="stroke:#595959;stroke-width:0.6;" width="3.6" x="317.4" y="1129.9395"/><text fill="#000000" font-family="sans-serif" font-size="8.4" lengthAdjust="spacing" textLength="47.4" x="324.6" y="1134.0141">date: String</text><rect fill="none" height="3.6" style="stroke:#595959;stroke-width:0.6;" width="3.6" x="317.4" y="1139.8324"/><text fill="#000000" font-family="sans-serif" font-size="8.4" lengthAdjust="spacing" textLength="65.4" x="324.6" y="1143.907">message: String</text><rect fill="none" height="3.6" style="stroke:#595959;stroke-width:0.6;" width="3.6" x="317.4" y="1149.7254"/><text fill="#000000" font-family="sans-serif" font-size="8.4" lengthAdjust="spacing" textLength="61.2" x="324.6" y="1153.8">timeSlot: int[][]</text><rect fill="none" height="3.6" style="stroke:#595959;stroke-width:0.6;" width="3.6" x="317.4" y="1159.6184"/><text fill="#000000" font-family="sans-serif" font-size="8.4" lengthAdjust="spacing" textLength="61.8" x="324.6" y="1163.693">person: Person</text><line style="stroke:#181818;stroke-width:0.3;" x1="313.2" x2="768.6" y1="1167.8648" y2="1167.8648"/><ellipse cx="319.2" cy="1176.1113" fill="#A6A6A6" rx="1.8" ry="1.8" style="stroke:#545454;stroke-width:0.6;"/><text fill="#000000" font-family="sans-serif" font-size="8.4" lengthAdjust="spacing" textLength="441" x="324.6" y="1178.3859">VisitRequest(announcement: Announcement, date: String, timeSlot: int[][], message: String, person: Person)</text><ellipse cx="319.2" cy="1186.0043" fill="#A6A6A6" rx="1.8" ry="1.8" style="stroke:#545454;stroke-width:0.6;"/><text fill="#000000" font-family="sans-serif" font-size="8.4" lengthAdjust="spacing" textLength="150" x="324.6" y="1188.2789">getAnnouncement(): Announcement</text><ellipse cx="319.2" cy="1195.8973" fill="#A6A6A6" rx="1.8" ry="1.8" style="stroke:#545454;stroke-width:0.6;"/><text fill="#000000" font-family="sans-serif" font-size="8.4" lengthAdjust="spacing" textLength="67.2" x="324.6" y="1198.1719">getDate(): String</text><ellipse cx="319.2" cy="1205.7902" fill="#A6A6A6" rx="1.8" ry="1.8" style="stroke:#545454;stroke-width:0.6;"/><text fill="#000000" font-family="sans-serif" font-size="8.4" lengthAdjust="spacing" textLength="84" x="324.6" y="1208.0648">getMessage(): String</text><ellipse cx="319.2" cy="1215.6832" fill="#A6A6A6" rx="1.8" ry="1.8" style="stroke:#545454;stroke-width:0.6;"/><text fill="#000000" font-family="sans-serif" font-size="8.4" lengthAdjust="spacing" textLength="82.8" x="324.6" y="1217.9578">getTimeSlot(): int[][]</text><ellipse cx="319.2" cy="1225.5762" fill="#A6A6A6" rx="1.8" ry="1.8" style="stroke:#545454;stroke-width:0.6;"/><text fill="#000000" font-family="sans-serif" font-size="8.4" lengthAdjust="spacing" textLength="80.4" x="324.6" y="1227.8508">getPerson(): Person</text><ellipse cx="319.2" cy="1235.4691" fill="#A6A6A6" rx="1.8" ry="1.8" style="stroke:#545454;stroke-width:0.6;"/><text fill="#000000" font-family="sans-serif" font-size="8.4" lengthAdjust="spacing" textLength="68.4" x="324.6" y="1237.7437">toString(): String</text></g><!--class PR--><g id="elem_PR"><rect codeLine="124" fill="#F1F1F1" height="58.4789" id="PR" rx="1.5" ry="1.5" style="stroke:#181818;stroke-width:0.3;" width="184.8" x="790.5" y="1139.1"/><ellipse cx="843.15" cy="1148.7" fill="#C2C2C2" rx="6.6" ry="6.6" style="stroke:#181818;stroke-width:0.6;"/><path d="M844.9339,1152.0858 Q844.5853,1152.2651 844.2018,1152.3548 Q843.8183,1152.4444 843.3949,1152.4444 Q841.8908,1152.4444 841.0989,1151.4533 Q840.307,1150.4622 840.307,1148.5896 Q840.307,1146.7119 841.0989,1145.7208 Q841.8908,1144.7297 843.3949,1144.7297 Q843.8183,1144.7297 844.2067,1144.8193 Q844.5952,1144.909 844.9339,1145.0883 L844.9339,1146.7219 Q844.5554,1146.3732 844.1993,1146.2114 Q843.8432,1146.0495 843.4646,1146.0495 Q842.6578,1146.0495 842.2469,1146.6895 Q841.836,1147.3295 841.836,1148.5896 Q841.836,1149.8446 842.2469,1150.4846 Q842.6578,1151.1246 843.4646,1151.1246 Q843.8432,1151.1246 844.1993,1150.9627 Q844.5554,1150.8009 844.9339,1150.4522 Z " fill="#000000"/><text fill="#000000" font-family="sans-serif" font-size="8.4" lengthAdjust="spacing" textLength="74.4" x="855.45" y="1151.8746">:PersonRepository</text><line style="stroke:#181818;stroke-width:0.3;" x1="791.1" x2="974.7" y1="1158.3" y2="1158.3"/><line style="stroke:#181818;stroke-width:0.3;" x1="791.1" x2="974.7" y1="1163.1" y2="1163.1"/><ellipse cx="797.1" cy="1171.3465" fill="#A6A6A6" rx="1.8" ry="1.8" style="stroke:#545454;stroke-width:0.6;"/><text fill="#000000" font-family="sans-serif" font-size="8.4" lengthAdjust="spacing" textLength="137.4" x="802.5" y="1173.6211">addPersons(user: Person): void   |</text><ellipse cx="797.1" cy="1181.2395" fill="#A6A6A6" rx="1.8" ry="1.8" style="stroke:#545454;stroke-width:0.6;"/><text fill="#000000" font-family="sans-serif" font-size="8.4" lengthAdjust="spacing" textLength="169.2" x="802.5" y="1183.5141">getListPersonsRepository(): List&lt;Person&gt;</text><ellipse cx="797.1" cy="1191.1324" fill="#A6A6A6" rx="1.8" ry="1.8" style="stroke:#545454;stroke-width:0.6;"/><text fill="#000000" font-family="sans-serif" font-size="8.4" lengthAdjust="spacing" textLength="80.4" x="802.5" y="1193.407">getPerson(): Person</text></g><!--link PRS to UI--><g id="link_PRS_UI"><path codeLine="130" d="M540.9,270.81 C540.9,281.49 540.9,292.17 540.9,302.58 " fill="none" id="PRS-to-UI" style="stroke:#181818;stroke-width:0.6;"/><polygon fill="#181818" points="540.9,305.496,543.3,300.096,540.9,302.496,538.5,300.096,540.9,305.496" style="stroke:#181818;stroke-width:0.6;"/></g><!--link UI to CTRL--><g id="link_UI_CTRL"><path codeLine="131" d="M540.9,503.568 C540.9,514.44 540.9,525.27 540.9,535.518 " fill="none" id="UI-to-CTRL" style="stroke:#181818;stroke-width:0.6;"/><polygon fill="#181818" points="540.9,538.356,543.3,532.956,540.9,535.356,538.5,532.956,540.9,538.356" style="stroke:#181818;stroke-width:0.6;"/></g><!--link CTRL to RepositorySingleton--><g id="link_CTRL_RepositorySingleton"><path codeLine="133" d="M540.9,657.228 C540.9,667.116 540.9,677.832 540.9,689.028 " fill="none" id="CTRL-to-RepositorySingleton" style="stroke:#181818;stroke-width:0.6;"/><polygon fill="#181818" points="540.9,691.938,543.3,686.538,540.9,688.938,538.5,686.538,540.9,691.938" style="stroke:#181818;stroke-width:0.6;"/></g><!--link RepositorySingleton to AR--><g id="link_RepositorySingleton_AR"><path codeLine="135" d="M341.808,1023.87 C290.754,1061.718 239.928,1099.386 203.13,1126.662 " fill="none" id="RepositorySingleton-to-AR" style="stroke:#181818;stroke-width:0.6;"/><polygon fill="#181818" points="200.784,1128.402,206.5522,1127.1183,203.1953,1126.6171,203.6964,1123.2602,200.784,1128.402" style="stroke:#181818;stroke-width:0.6;"/></g><!--link RepositorySingleton to PR--><g id="link_RepositorySingleton_PR"><path codeLine="136" d="M740.088,1045.962 C781.014,1080.816 819.72,1113.786 846.486,1136.58 " fill="none" id="RepositorySingleton-to-PR" style="stroke:#181818;stroke-width:0.6;"/><polygon fill="#181818" points="848.67,1138.446,846.1105,1133.1198,846.3844,1136.5028,843.0014,1136.7767,848.67,1138.446" style="stroke:#181818;stroke-width:0.6;"/></g><!--link RepositorySingleton to VRR--><g id="link_RepositorySingleton_VRR"><path codeLine="137" d="M540.9,1058.508 C540.9,1069.554 540.9,1080.3 540.9,1090.47 " fill="none" id="RepositorySingleton-to-VRR" style="stroke:#181818;stroke-width:0.6;"/><polygon fill="#181818" points="540.9,1093.278,543.3,1087.878,540.9,1090.278,538.5,1087.878,540.9,1093.278" style="stroke:#181818;stroke-width:0.6;"/></g><!--SRC=[nLZRRjiu47tNLmXzKb3b1un502SDTWsaYI4xHO6YA1Y9bRMHH2r9EUks- -yxf2Y9LpLDKTGFXZKNSkRCHJDcZrNR8OgQk24joG-KD3ZcjCSHcpWToXzHYNVyLEEOufoZjgnr0NP01NcgsZB-Z6g6eoYl4MFngoscZBIlOiJYRRQBlqOnVCxXFCOwGlbjtpnWkeftd8AkOdBqhvVU7KYBlHnK51GpjehNmuzHuQcm1BVhtMvxb-q_tTw_lRpEFjrSt_wv_siLLorN4llr-n3pTJnuarJJiQb-HngtgC7ZqzaBTD80CAcBIUg38tMG6AqeCTy-5ScPWSVhc0rapI2GE9AgqFY6HOdVG5EhTBJiUq5YFthaCsfcEewxLyquUFtJs1x8dECKSE8eFPlaMIFFGTauv8Zgga0S2moU2BNXVI2angXLmdaD9edBXZnHLFnF3sMKa5Lyz_0tb9kZTa3iS4KAgJdd9oV3BHeE_qsbk7fNiOfdS3Hc_7uZQ_9-CvMaiDYgbWPSWwgtoxDgyAucN5xyuUE7ZsCHjYtfsnmtk0NUMdiQor5wQ7Xw3cTqFOZlSb37L15pqd9Awbg4IRVwQg8hXsdV9YRuT93KhvUXjCsP9D-0tqxUADvUkQfGdfoT11JS7NnpBSJ6MKTCFrSRCCEMgcnJtWvuXwpPl77oPFO1MJZa58DZEdX9E42f4VtK3N5gvq9gHNEyF91kS-1asbtjivifyOwQN8Ox0a-4dip0ptHFikbAQo_TI41TV6jH57X-qnEjcUhto5vnKp7-Xqwzc8MDA8ooEb6JjIsQG-vO-Pj2hBeXEkAfFCHXO4oj7PR3pSFXMkresJ5vKs4cSs9sRrU9uOAJTagHgcKmSUHWcguMpvzlOuGf0QFvQN_gi43PY7MGfvHxXgckS6yyJtTmn1wl0CiIYBhutajNIeIMgAs-85wP2NZdfOz9tlC3XAxA7RLrWACK7oYWTT0LBYsA4gHksVsEYWF1dkRmJiDtj323iFKpb1fkkfgSCDOrhXtQw45fcrxwR7v1FvALwm-bgD-58AjHo9SvGdCXfuOs5CW3-SfRoX6dYLcwuQ0w7StK_1vATY8A7MzoIcdl5Gkd_q3t5DB1ZY3rbll5C126yF_nqdK6RmUfxrUrSuQBttCgtZbce_fluc_4xiuG1lPb7TgPqitUBC9bKhGW-nk8ZF12Rv5-MBSilo0S6zr692uDjAUX84kt4ij02KunEJE3eRza_MKiNxVhR7gxwfsTBKyopnzxO4KoPl3mPE9kOFeb9XhFjUto96EQ4F5j1ThU1W8ZguNNkymFc7VJ-UbTohCgcLFfhvtq_A06zYYGykvGG0yjDEAT5rojfZRkR3lBwwtTvzMVJYfgCYC74IOBsHfhfo5I6Y3oJ0bx4d3WN2pO2sQ9lxlEpozWnOvWonQ_nDOJHNBt4O-UWJUAV5Em45vdGTOsp8AaZVu7]--></g></svg>