<?xml version="1.0" encoding="us-ascii" standalone="no"?><svg xmlns="http://www.w3.org/2000/svg" xmlns:xlink="http://www.w3.org/1999/xlink" contentStyleType="text/css" height="1188.8px" preserveAspectRatio="none" style="width:1316px;height:1188px;background:#FFFFFF;" version="1.1" viewBox="0 0 1316 1188" width="1316.8px" zoomAndPan="magnify"><defs/><g><rect fill="#FFFFFF" height="1043.3219" style="stroke:#181818;stroke-width:0.8000000000000002;" width="8" x="30.4" y="73.1906"/><rect fill="#FFFFFF" height="233.0266" style="stroke:#181818;stroke-width:0.8000000000000002;" width="8" x="316.8" y="90.2391"/><rect fill="#FFFFFF" height="35.6969" style="stroke:#181818;stroke-width:0.8000000000000002;" width="8" x="316.8" y="346.7141"/><rect fill="#FFFFFF" height="211.0359" style="stroke:#181818;stroke-width:0.8000000000000002;" width="8" x="316.8" y="405.8594"/><rect fill="#FFFFFF" height="211.0359" style="stroke:#181818;stroke-width:0.8000000000000002;" width="8" x="316.8" y="659.7922"/><rect fill="#FFFFFF" height="23.4484" style="stroke:#181818;stroke-width:0.8000000000000002;" width="8" x="316.8" y="894.2766"/><rect fill="#FFFFFF" height="163.3391" style="stroke:#181818;stroke-width:0.8000000000000002;" width="8" x="316.8" y="941.1734"/><rect fill="#FFFFFF" height="140.6906" style="stroke:#181818;stroke-width:0.8000000000000002;" width="8" x="559.2" y="146.8781"/><rect fill="#FFFFFF" height="164.1391" style="stroke:#181818;stroke-width:0.8000000000000002;" width="8" x="559.2" y="429.3078"/><rect fill="#FFFFFF" height="164.1391" style="stroke:#181818;stroke-width:0.8000000000000002;" width="8" x="559.2" y="683.2406"/><rect fill="#FFFFFF" height="104.1938" style="stroke:#181818;stroke-width:0.8000000000000002;" width="8" x="559.2" y="976.8703"/><rect fill="#FFFFFF" height="23.4484" style="stroke:#181818;stroke-width:0.8000000000000002;" width="8" x="677.2" y="146.8781"/><rect fill="#FFFFFF" height="23.4484" style="stroke:#181818;stroke-width:0.8000000000000002;" width="8" x="677.2" y="452.7563"/><rect fill="#FFFFFF" height="23.4484" style="stroke:#181818;stroke-width:0.8000000000000002;" width="8" x="677.2" y="706.6891"/><rect fill="#FFFFFF" height="23.4484" style="stroke:#181818;stroke-width:0.8000000000000002;" width="8" x="767.6" y="193.775"/><rect fill="#FFFFFF" height="23.4484" style="stroke:#181818;stroke-width:0.8000000000000002;" width="8" x="767.6" y="499.6531"/><rect fill="#FFFFFF" height="23.4484" style="stroke:#181818;stroke-width:0.8000000000000002;" width="8" x="767.6" y="753.5859"/><rect fill="#FFFFFF" height="23.4484" style="stroke:#181818;stroke-width:0.8000000000000002;" width="8" x="895.2" y="240.6719"/><rect fill="#FFFFFF" height="23.4484" style="stroke:#181818;stroke-width:0.8000000000000002;" width="8" x="1051.6" y="546.55"/><rect fill="#FFFFFF" height="57.2969" style="stroke:#181818;stroke-width:0.8000000000000002;" width="8" x="1051.6" y="1000.3188"/><rect fill="#FFFFFF" height="23.4484" style="stroke:#181818;stroke-width:0.8000000000000002;" width="8" x="1245.2" y="800.4828"/><rect fill="none" height="482.0172" style="stroke:#000000;stroke-width:1.2000000000000002;" width="1304.4" x="8" y="628.8953"/><line style="stroke:#181818;stroke-width:0.4000000000000001;stroke-dasharray:5.0,5.0;" x1="34.4" x2="34.4" y1="65.1906" y2="1124.5125"/><line style="stroke:#181818;stroke-width:0.4000000000000001;stroke-dasharray:5.0,5.0;" x1="320.8" x2="320.8" y1="65.1906" y2="1124.5125"/><line style="stroke:#181818;stroke-width:0.4000000000000001;stroke-dasharray:5.0,5.0;" x1="563.2" x2="563.2" y1="121.2344" y2="1124.5125"/><line style="stroke:#181818;stroke-width:0.4000000000000001;stroke-dasharray:5.0,5.0;" x1="680.8" x2="680.8" y1="65.1906" y2="1124.5125"/><line style="stroke:#181818;stroke-width:0.4000000000000001;stroke-dasharray:5.0,5.0;" x1="771.2" x2="771.2" y1="65.1906" y2="1124.5125"/><line style="stroke:#181818;stroke-width:0.4000000000000001;stroke-dasharray:5.0,5.0;" x1="899.2" x2="899.2" y1="65.1906" y2="1124.5125"/><line style="stroke:#181818;stroke-width:0.4000000000000001;stroke-dasharray:5.0,5.0;" x1="1055.2" x2="1055.2" y1="65.1906" y2="1124.5125"/><line style="stroke:#181818;stroke-width:0.4000000000000001;stroke-dasharray:5.0,5.0;" x1="1249.2" x2="1249.2" y1="65.1906" y2="1124.5125"/><text fill="#000000" font-family="sans-serif" font-size="11.2" lengthAdjust="spacing" textLength="32" x="16" y="62.8281">Client</text><ellipse cx="34.4" cy="10.8" fill="#E3E3E3" rx="6.4" ry="6.4" style="stroke:#181818;stroke-width:0.4000000000000001;"/><path d="M34.4,17.2 L34.4,38.8 M24,23.6 L44.8,23.6 M34.4,38.8 L24,50.8 M34.4,38.8 L44.8,50.8 " fill="none" style="stroke:#181818;stroke-width:0.4000000000000001;"/><text fill="#000000" font-family="sans-serif" font-size="11.2" lengthAdjust="spacing" textLength="32" x="16" y="1134.5406">Client</text><ellipse cx="34.4" cy="1143.7031" fill="#E3E3E3" rx="6.4" ry="6.4" style="stroke:#181818;stroke-width:0.4000000000000001;"/><path d="M34.4,1150.1031 L34.4,1171.7031 M24,1156.5031 L44.8,1156.5031 M34.4,1171.7031 L24,1183.7031 M34.4,1171.7031 L44.8,1183.7031 " fill="none" style="stroke:#181818;stroke-width:0.4000000000000001;"/><rect fill="#E3E3E3" height="24.3906" rx="2" ry="2" style="stroke:#181818;stroke-width:0.4000000000000001;" width="92.8" x="274.4" y="40"/><text fill="#000000" font-family="sans-serif" font-size="11.2" lengthAdjust="spacing" textLength="81.6" x="280" y="56.4281">:VisitRequestUI</text><rect fill="#E3E3E3" height="24.3906" rx="2" ry="2" style="stroke:#181818;stroke-width:0.4000000000000001;" width="92.8" x="274.4" y="1123.7125"/><text fill="#000000" font-family="sans-serif" font-size="11.2" lengthAdjust="spacing" textLength="81.6" x="280" y="1140.1406">:VisitRequestUI</text><rect fill="#E3E3E3" height="24.3906" rx="2" ry="2" style="stroke:#181818;stroke-width:0.4000000000000001;" width="137.6" x="494.4" y="1123.7125"/><text fill="#000000" font-family="sans-serif" font-size="11.2" lengthAdjust="spacing" textLength="126.4" x="500" y="1140.1406">:VisitRequestController</text><rect fill="#E3E3E3" height="24.3906" rx="2" ry="2" style="stroke:#181818;stroke-width:0.4000000000000001;" width="82.4" x="640" y="40"/><text fill="#000000" font-family="sans-serif" font-size="11.2" lengthAdjust="spacing" textLength="71.2" x="645.6" y="56.4281">:Repositories</text><rect fill="#E3E3E3" height="24.3906" rx="2" ry="2" style="stroke:#181818;stroke-width:0.4000000000000001;" width="82.4" x="640" y="1123.7125"/><text fill="#000000" font-family="sans-serif" font-size="11.2" lengthAdjust="spacing" textLength="71.2" x="645.6" y="1140.1406">:Repositories</text><rect fill="#E3E3E3" height="37.5813" rx="2" ry="2" style="stroke:#181818;stroke-width:0.4000000000000001;" width="82.4" x="730.4" y="26.8094"/><text fill="#000000" font-family="sans-serif" font-size="11.2" lengthAdjust="spacing" textLength="65.6" x="738.8" y="43.2375">repositories</text><text fill="#000000" font-family="sans-serif" font-size="11.2" lengthAdjust="spacing" textLength="71.2" x="736" y="56.4281">:Repositories</text><rect fill="#E3E3E3" height="37.5813" rx="2" ry="2" style="stroke:#181818;stroke-width:0.4000000000000001;" width="82.4" x="730.4" y="1123.7125"/><text fill="#000000" font-family="sans-serif" font-size="11.2" lengthAdjust="spacing" textLength="65.6" x="738.8" y="1140.1406">repositories</text><text fill="#000000" font-family="sans-serif" font-size="11.2" lengthAdjust="spacing" textLength="71.2" x="736" y="1153.3313">:Repositories</text><rect fill="#E3E3E3" height="24.3906" rx="2" ry="2" style="stroke:#181818;stroke-width:0.4000000000000001;" width="156.8" x="820.8" y="40"/><text fill="#000000" font-family="sans-serif" font-size="11.2" lengthAdjust="spacing" textLength="145.6" x="826.4" y="56.4281">:AnnouncementRepository</text><rect fill="#E3E3E3" height="24.3906" rx="2" ry="2" style="stroke:#181818;stroke-width:0.4000000000000001;" width="156.8" x="820.8" y="1123.7125"/><text fill="#000000" font-family="sans-serif" font-size="11.2" lengthAdjust="spacing" textLength="145.6" x="826.4" y="1140.1406">:AnnouncementRepository</text><rect fill="#E3E3E3" height="24.3906" rx="2" ry="2" style="stroke:#181818;stroke-width:0.4000000000000001;" width="140" x="985.6" y="40"/><text fill="#000000" font-family="sans-serif" font-size="11.2" lengthAdjust="spacing" textLength="128.8" x="991.2" y="56.4281">:VisitRequestRepository</text><rect fill="#E3E3E3" height="24.3906" rx="2" ry="2" style="stroke:#181818;stroke-width:0.4000000000000001;" width="140" x="985.6" y="1123.7125"/><text fill="#000000" font-family="sans-serif" font-size="11.2" lengthAdjust="spacing" textLength="128.8" x="991.2" y="1140.1406">:VisitRequestRepository</text><rect fill="#E3E3E3" height="24.3906" rx="2" ry="2" style="stroke:#181818;stroke-width:0.4000000000000001;" width="110.4" x="1194" y="40"/><text fill="#000000" font-family="sans-serif" font-size="11.2" lengthAdjust="spacing" textLength="99.2" x="1199.6" y="56.4281">:PersonRepository</text><rect fill="#E3E3E3" height="24.3906" rx="2" ry="2" style="stroke:#181818;stroke-width:0.4000000000000001;" width="110.4" x="1194" y="1123.7125"/><text fill="#000000" font-family="sans-serif" font-size="11.2" lengthAdjust="spacing" textLength="99.2" x="1199.6" y="1140.1406">:PersonRepository</text><rect fill="#FFFFFF" height="1043.3219" style="stroke:#181818;stroke-width:0.8000000000000002;" width="8" x="30.4" y="73.1906"/><rect fill="#FFFFFF" height="233.0266" style="stroke:#181818;stroke-width:0.8000000000000002;" width="8" x="316.8" y="90.2391"/><rect fill="#FFFFFF" height="35.6969" style="stroke:#181818;stroke-width:0.8000000000000002;" width="8" x="316.8" y="346.7141"/><rect fill="#FFFFFF" height="211.0359" style="stroke:#181818;stroke-width:0.8000000000000002;" width="8" x="316.8" y="405.8594"/><rect fill="#FFFFFF" height="211.0359" style="stroke:#181818;stroke-width:0.8000000000000002;" width="8" x="316.8" y="659.7922"/><rect fill="#FFFFFF" height="23.4484" style="stroke:#181818;stroke-width:0.8000000000000002;" width="8" x="316.8" y="894.2766"/><rect fill="#FFFFFF" height="163.3391" style="stroke:#181818;stroke-width:0.8000000000000002;" width="8" x="316.8" y="941.1734"/><rect fill="#FFFFFF" height="140.6906" style="stroke:#181818;stroke-width:0.8000000000000002;" width="8" x="559.2" y="146.8781"/><rect fill="#FFFFFF" height="164.1391" style="stroke:#181818;stroke-width:0.8000000000000002;" width="8" x="559.2" y="429.3078"/><rect fill="#FFFFFF" height="164.1391" style="stroke:#181818;stroke-width:0.8000000000000002;" width="8" x="559.2" y="683.2406"/><rect fill="#FFFFFF" height="104.1938" style="stroke:#181818;stroke-width:0.8000000000000002;" width="8" x="559.2" y="976.8703"/><rect fill="#FFFFFF" height="23.4484" style="stroke:#181818;stroke-width:0.8000000000000002;" width="8" x="677.2" y="146.8781"/><rect fill="#FFFFFF" height="23.4484" style="stroke:#181818;stroke-width:0.8000000000000002;" width="8" x="677.2" y="452.7563"/><rect fill="#FFFFFF" height="23.4484" style="stroke:#181818;stroke-width:0.8000000000000002;" width="8" x="677.2" y="706.6891"/><rect fill="#FFFFFF" height="23.4484" style="stroke:#181818;stroke-width:0.8000000000000002;" width="8" x="767.6" y="193.775"/><rect fill="#FFFFFF" height="23.4484" style="stroke:#181818;stroke-width:0.8000000000000002;" width="8" x="767.6" y="499.6531"/><rect fill="#FFFFFF" height="23.4484" style="stroke:#181818;stroke-width:0.8000000000000002;" width="8" x="767.6" y="753.5859"/><rect fill="#FFFFFF" height="23.4484" style="stroke:#181818;stroke-width:0.8000000000000002;" width="8" x="895.2" y="240.6719"/><rect fill="#FFFFFF" height="23.4484" style="stroke:#181818;stroke-width:0.8000000000000002;" width="8" x="1051.6" y="546.55"/><rect fill="#FFFFFF" height="57.2969" style="stroke:#181818;stroke-width:0.8000000000000002;" width="8" x="1051.6" y="1000.3188"/><rect fill="#FFFFFF" height="23.4484" style="stroke:#181818;stroke-width:0.8000000000000002;" width="8" x="1245.2" y="800.4828"/><polygon fill="#181818" points="307.2,87.0391,315.2,90.2391,307.2,93.4391,310.4,90.2391" style="stroke:#181818;stroke-width:0.8000000000000002;"/><line style="stroke:#181818;stroke-width:0.8000000000000002;" x1="38.4" x2="312" y1="90.2391" y2="90.2391"/><text fill="#000000" font-family="sans-serif" font-size="10.4" font-weight="bold" lengthAdjust="spacing" textLength="7.2" x="44" y="86.4453">1</text><text fill="#000000" font-family="sans-serif" font-size="10.4" lengthAdjust="spacing" textLength="118.4" x="54.4" y="86.4453">asks to schedule a visit</text><polygon fill="#181818" points="484.8,110.4875,492.8,113.6875,484.8,116.8875,488,113.6875" style="stroke:#181818;stroke-width:0.8000000000000002;"/><line style="stroke:#181818;stroke-width:0.8000000000000002;" x1="324.8" x2="489.6" y1="113.6875" y2="113.6875"/><text fill="#000000" font-family="sans-serif" font-size="10.4" font-weight="bold" lengthAdjust="spacing" textLength="7.2" x="330.4" y="109.8938">2</text><text fill="#000000" font-family="sans-serif" font-size="10.4" lengthAdjust="spacing" textLength="30.4" x="340.8" y="109.8938">create</text><rect fill="#E3E3E3" height="24.3906" rx="2" ry="2" style="stroke:#181818;stroke-width:0.4000000000000001;" width="137.6" x="494.4" y="96.6391"/><text fill="#000000" font-family="sans-serif" font-size="11.2" lengthAdjust="spacing" textLength="126.4" x="500" y="113.0672">:VisitRequestController</text><polygon fill="#181818" points="667.6,143.6781,675.6,146.8781,667.6,150.0781,670.8,146.8781" style="stroke:#181818;stroke-width:0.8000000000000002;"/><line style="stroke:#181818;stroke-width:0.8000000000000002;" x1="567.2" x2="672.4" y1="146.8781" y2="146.8781"/><text fill="#000000" font-family="sans-serif" font-size="10.4" font-weight="bold" lengthAdjust="spacing" textLength="7.2" x="572.8" y="143.0844">3</text><text fill="#000000" font-family="sans-serif" font-size="10.4" lengthAdjust="spacing" textLength="64.8" x="583.2" y="143.0844">getInstance()</text><polygon fill="#181818" points="576,167.1266,568,170.3266,576,173.5266,572.8,170.3266" style="stroke:#181818;stroke-width:0.8000000000000002;"/><line style="stroke:#181818;stroke-width:0.8000000000000002;stroke-dasharray:2.0,2.0;" x1="571.2" x2="680.4" y1="170.3266" y2="170.3266"/><text fill="#000000" font-family="sans-serif" font-size="10.4" font-weight="bold" lengthAdjust="spacing" textLength="7.2" x="580.8" y="166.5328">4</text><text fill="#000000" font-family="sans-serif" font-size="10.4" lengthAdjust="spacing" textLength="60" x="591.2" y="166.5328">repositories</text><polygon fill="#181818" points="758,190.575,766,193.775,758,196.975,761.2,193.775" style="stroke:#181818;stroke-width:0.8000000000000002;"/><line style="stroke:#181818;stroke-width:0.8000000000000002;" x1="567.2" x2="762.8" y1="193.775" y2="193.775"/><text fill="#000000" font-family="sans-serif" font-size="10.4" font-weight="bold" lengthAdjust="spacing" textLength="7.2" x="572.8" y="189.9813">5</text><text fill="#000000" font-family="sans-serif" font-size="10.4" lengthAdjust="spacing" textLength="152" x="583.2" y="189.9813">getAnnouncementRepository()</text><polygon fill="#181818" points="576,214.0234,568,217.2234,576,220.4234,572.8,217.2234" style="stroke:#181818;stroke-width:0.8000000000000002;"/><line style="stroke:#181818;stroke-width:0.8000000000000002;stroke-dasharray:2.0,2.0;" x1="571.2" x2="770.8" y1="217.2234" y2="217.2234"/><text fill="#000000" font-family="sans-serif" font-size="10.4" font-weight="bold" lengthAdjust="spacing" textLength="7.2" x="580.8" y="213.4297">6</text><text fill="#000000" font-family="sans-serif" font-size="10.4" lengthAdjust="spacing" textLength="129.6" x="591.2" y="213.4297">AnnouncementRepository</text><polygon fill="#181818" points="885.6,237.4719,893.6,240.6719,885.6,243.8719,888.8,240.6719" style="stroke:#181818;stroke-width:0.8000000000000002;"/><line style="stroke:#181818;stroke-width:0.8000000000000002;" x1="567.2" x2="890.4" y1="240.6719" y2="240.6719"/><text fill="#000000" font-family="sans-serif" font-size="10.4" font-weight="bold" lengthAdjust="spacing" textLength="7.2" x="572.8" y="236.8781">7</text><text fill="#000000" font-family="sans-serif" font-size="10.4" lengthAdjust="spacing" textLength="116.8" x="583.2" y="236.8781">getAnnouncementList()</text><polygon fill="#181818" points="576,260.9203,568,264.1203,576,267.3203,572.8,264.1203" style="stroke:#181818;stroke-width:0.8000000000000002;"/><line style="stroke:#181818;stroke-width:0.8000000000000002;stroke-dasharray:2.0,2.0;" x1="571.2" x2="898.4" y1="264.1203" y2="264.1203"/><text fill="#000000" font-family="sans-serif" font-size="10.4" font-weight="bold" lengthAdjust="spacing" textLength="7.2" x="580.8" y="260.3266">8</text><text fill="#000000" font-family="sans-serif" font-size="10.4" lengthAdjust="spacing" textLength="94.4" x="591.2" y="260.3266">AnnouncementList</text><polygon fill="#181818" points="333.6,284.3688,325.6,287.5688,333.6,290.7688,330.4,287.5688" style="stroke:#181818;stroke-width:0.8000000000000002;"/><line style="stroke:#181818;stroke-width:0.8000000000000002;stroke-dasharray:2.0,2.0;" x1="328.8" x2="562.4" y1="287.5688" y2="287.5688"/><text fill="#000000" font-family="sans-serif" font-size="10.4" font-weight="bold" lengthAdjust="spacing" textLength="7.2" x="338.4" y="283.775">9</text><text fill="#000000" font-family="sans-serif" font-size="10.4" lengthAdjust="spacing" textLength="94.4" x="348.8" y="283.775">AnnouncementList</text><polygon fill="#181818" points="47.2,320.0656,39.2,323.2656,47.2,326.4656,44,323.2656" style="stroke:#181818;stroke-width:0.8000000000000002;"/><line style="stroke:#181818;stroke-width:0.8000000000000002;stroke-dasharray:2.0,2.0;" x1="42.4" x2="320" y1="323.2656" y2="323.2656"/><text fill="#000000" font-family="sans-serif" font-size="10.4" font-weight="bold" lengthAdjust="spacing" textLength="14.4" x="52" y="313.3477">10</text><text fill="#000000" font-family="sans-serif" font-size="10.4" lengthAdjust="spacing" textLength="207.2" x="69.6" y="307.2234">shows a list of available announcements,</text><text fill="#000000" font-family="sans-serif" font-size="10.4" lengthAdjust="spacing" textLength="184" x="72.8" y="319.4719">and asks to select an announcement</text><polygon fill="#181818" points="307.2,343.5141,315.2,346.7141,307.2,349.9141,310.4,346.7141" style="stroke:#181818;stroke-width:0.8000000000000002;"/><line style="stroke:#181818;stroke-width:0.8000000000000002;" x1="38.4" x2="312" y1="346.7141" y2="346.7141"/><text fill="#000000" font-family="sans-serif" font-size="10.4" font-weight="bold" lengthAdjust="spacing" textLength="14.4" x="44" y="342.9203">11</text><text fill="#000000" font-family="sans-serif" font-size="10.4" lengthAdjust="spacing" textLength="128" x="61.6" y="342.9203">selects an announcement</text><polygon fill="#181818" points="47.2,379.2109,39.2,382.4109,47.2,385.6109,44,382.4109" style="stroke:#181818;stroke-width:0.8000000000000002;"/><line style="stroke:#181818;stroke-width:0.8000000000000002;stroke-dasharray:2.0,2.0;" x1="42.4" x2="320" y1="382.4109" y2="382.4109"/><text fill="#000000" font-family="sans-serif" font-size="10.4" font-weight="bold" lengthAdjust="spacing" textLength="14.4" x="52" y="372.493">12</text><text fill="#000000" font-family="sans-serif" font-size="10.4" lengthAdjust="spacing" textLength="241.6" x="69.6" y="366.3688">requests data (client's name and phone number;</text><text fill="#000000" font-family="sans-serif" font-size="10.4" lengthAdjust="spacing" textLength="94.4" x="72.8" y="378.6172">date and time slot)</text><polygon fill="#181818" points="307.2,402.6594,315.2,405.8594,307.2,409.0594,310.4,405.8594" style="stroke:#181818;stroke-width:0.8000000000000002;"/><line style="stroke:#181818;stroke-width:0.8000000000000002;" x1="38.4" x2="312" y1="405.8594" y2="405.8594"/><text fill="#000000" font-family="sans-serif" font-size="10.4" font-weight="bold" lengthAdjust="spacing" textLength="14.4" x="44" y="402.0656">13</text><text fill="#000000" font-family="sans-serif" font-size="10.4" lengthAdjust="spacing" textLength="205.6" x="61.6" y="402.0656">types requested data (date and time slot)</text><polygon fill="#181818" points="549.6,426.1078,557.6,429.3078,549.6,432.5078,552.8,429.3078" style="stroke:#181818;stroke-width:0.8000000000000002;"/><line style="stroke:#181818;stroke-width:0.8000000000000002;" x1="324.8" x2="554.4" y1="429.3078" y2="429.3078"/><text fill="#000000" font-family="sans-serif" font-size="10.4" font-weight="bold" lengthAdjust="spacing" textLength="14.4" x="330.4" y="425.5141">14</text><text fill="#000000" font-family="sans-serif" font-size="10.4" lengthAdjust="spacing" textLength="156" x="348" y="425.5141">saveTimeSlot(timeslot1, count)</text><polygon fill="#181818" points="667.6,449.5563,675.6,452.7563,667.6,455.9563,670.8,452.7563" style="stroke:#181818;stroke-width:0.8000000000000002;"/><line style="stroke:#181818;stroke-width:0.8000000000000002;" x1="567.2" x2="672.4" y1="452.7563" y2="452.7563"/><text fill="#000000" font-family="sans-serif" font-size="10.4" font-weight="bold" lengthAdjust="spacing" textLength="14.4" x="572.8" y="448.9625">15</text><text fill="#000000" font-family="sans-serif" font-size="10.4" lengthAdjust="spacing" textLength="64.8" x="590.4" y="448.9625">getInstance()</text><polygon fill="#181818" points="576,473.0047,568,476.2047,576,479.4047,572.8,476.2047" style="stroke:#181818;stroke-width:0.8000000000000002;"/><line style="stroke:#181818;stroke-width:0.8000000000000002;stroke-dasharray:2.0,2.0;" x1="571.2" x2="680.4" y1="476.2047" y2="476.2047"/><text fill="#000000" font-family="sans-serif" font-size="10.4" font-weight="bold" lengthAdjust="spacing" textLength="14.4" x="580.8" y="472.4109">16</text><text fill="#000000" font-family="sans-serif" font-size="10.4" lengthAdjust="spacing" textLength="60" x="598.4" y="472.4109">repositories</text><polygon fill="#181818" points="758,496.4531,766,499.6531,758,502.8531,761.2,499.6531" style="stroke:#181818;stroke-width:0.8000000000000002;"/><line style="stroke:#181818;stroke-width:0.8000000000000002;" x1="567.2" x2="762.8" y1="499.6531" y2="499.6531"/><text fill="#000000" font-family="sans-serif" font-size="10.4" font-weight="bold" lengthAdjust="spacing" textLength="14.4" x="572.8" y="495.8594">17</text><text fill="#000000" font-family="sans-serif" font-size="10.4" lengthAdjust="spacing" textLength="138.4" x="590.4" y="495.8594">getVisitRequestRepository()</text><polygon fill="#181818" points="576,519.9016,568,523.1016,576,526.3016,572.8,523.1016" style="stroke:#181818;stroke-width:0.8000000000000002;"/><line style="stroke:#181818;stroke-width:0.8000000000000002;stroke-dasharray:2.0,2.0;" x1="571.2" x2="770.8" y1="523.1016" y2="523.1016"/><text fill="#000000" font-family="sans-serif" font-size="10.4" font-weight="bold" lengthAdjust="spacing" textLength="14.4" x="580.8" y="519.3078">18</text><text fill="#000000" font-family="sans-serif" font-size="10.4" lengthAdjust="spacing" textLength="116" x="598.4" y="519.3078">VisitRequestRepository</text><polygon fill="#181818" points="1042,543.35,1050,546.55,1042,549.75,1045.2,546.55" style="stroke:#181818;stroke-width:0.8000000000000002;"/><line style="stroke:#181818;stroke-width:0.8000000000000002;" x1="567.2" x2="1046.8" y1="546.55" y2="546.55"/><text fill="#000000" font-family="sans-serif" font-size="10.4" font-weight="bold" lengthAdjust="spacing" textLength="14.4" x="572.8" y="542.7563">19</text><text fill="#000000" font-family="sans-serif" font-size="10.4" lengthAdjust="spacing" textLength="195.2" x="590.4" y="542.7563">saveTimeSlot(int[][] timereal, int count)</text><polygon fill="#181818" points="576,566.7984,568,569.9984,576,573.1984,572.8,569.9984" style="stroke:#181818;stroke-width:0.8000000000000002;"/><line style="stroke:#181818;stroke-width:0.8000000000000002;stroke-dasharray:2.0,2.0;" x1="571.2" x2="1054.8" y1="569.9984" y2="569.9984"/><text fill="#000000" font-family="sans-serif" font-size="10.4" font-weight="bold" lengthAdjust="spacing" textLength="14.4" x="580.8" y="566.2047">20</text><text fill="#000000" font-family="sans-serif" font-size="10.4" lengthAdjust="spacing" textLength="80.8" x="598.4" y="566.2047">returns timeSlot</text><polygon fill="#181818" points="333.6,590.2469,325.6,593.4469,333.6,596.6469,330.4,593.4469" style="stroke:#181818;stroke-width:0.8000000000000002;"/><line style="stroke:#181818;stroke-width:0.8000000000000002;stroke-dasharray:2.0,2.0;" x1="328.8" x2="562.4" y1="593.4469" y2="593.4469"/><text fill="#000000" font-family="sans-serif" font-size="10.4" font-weight="bold" lengthAdjust="spacing" textLength="14.4" x="338.4" y="589.6531">21</text><text fill="#000000" font-family="sans-serif" font-size="10.4" lengthAdjust="spacing" textLength="80.8" x="356" y="589.6531">returns timeSlot</text><polygon fill="#181818" points="47.2,613.6953,39.2,616.8953,47.2,620.0953,44,616.8953" style="stroke:#181818;stroke-width:0.8000000000000002;"/><line style="stroke:#181818;stroke-width:0.8000000000000002;stroke-dasharray:2.0,2.0;" x1="42.4" x2="320" y1="616.8953" y2="616.8953"/><text fill="#000000" font-family="sans-serif" font-size="10.4" font-weight="bold" lengthAdjust="spacing" textLength="14.4" x="52" y="613.1016">22</text><text fill="#000000" font-family="sans-serif" font-size="10.4" lengthAdjust="spacing" textLength="104" x="69.6" y="613.1016">asks to confirm data</text><path d="M8,628.8953 L57.6,628.8953 L57.6,634.7438 L49.6,642.7438 L8,642.7438 L8,628.8953 " fill="#EEEEEE" style="stroke:#000000;stroke-width:1.2000000000000002;"/><rect fill="none" height="482.0172" style="stroke:#000000;stroke-width:1.2000000000000002;" width="1304.4" x="8" y="628.8953"/><text fill="#000000" font-family="sans-serif" font-size="10.4" font-weight="bold" lengthAdjust="spacing" textLength="13.6" x="20" y="639.75">alt</text><text fill="#000000" font-family="sans-serif" font-size="8.8" font-weight="bold" lengthAdjust="spacing" textLength="181.6" x="69.6" y="639.0031">[in case date and time slot are available]</text><polygon fill="#181818" points="307.2,656.5922,315.2,659.7922,307.2,662.9922,310.4,659.7922" style="stroke:#181818;stroke-width:0.8000000000000002;"/><line style="stroke:#181818;stroke-width:0.8000000000000002;" x1="38.4" x2="312" y1="659.7922" y2="659.7922"/><text fill="#000000" font-family="sans-serif" font-size="10.4" font-weight="bold" lengthAdjust="spacing" textLength="14.4" x="44" y="655.9984">23</text><text fill="#000000" font-family="sans-serif" font-size="10.4" lengthAdjust="spacing" textLength="69.6" x="61.6" y="655.9984">confirms data</text><polygon fill="#181818" points="549.6,680.0406,557.6,683.2406,549.6,686.4406,552.8,683.2406" style="stroke:#181818;stroke-width:0.8000000000000002;"/><line style="stroke:#181818;stroke-width:0.8000000000000002;" x1="324.8" x2="554.4" y1="683.2406" y2="683.2406"/><text fill="#000000" font-family="sans-serif" font-size="10.4" font-weight="bold" lengthAdjust="spacing" textLength="14.4" x="330.4" y="679.4469">24</text><text fill="#000000" font-family="sans-serif" font-size="10.4" lengthAdjust="spacing" textLength="69.6" x="348" y="679.4469">confirms data</text><polygon fill="#181818" points="667.6,703.4891,675.6,706.6891,667.6,709.8891,670.8,706.6891" style="stroke:#181818;stroke-width:0.8000000000000002;"/><line style="stroke:#181818;stroke-width:0.8000000000000002;" x1="567.2" x2="672.4" y1="706.6891" y2="706.6891"/><text fill="#000000" font-family="sans-serif" font-size="10.4" font-weight="bold" lengthAdjust="spacing" textLength="14.4" x="572.8" y="702.8953">25</text><text fill="#000000" font-family="sans-serif" font-size="10.4" lengthAdjust="spacing" textLength="64.8" x="590.4" y="702.8953">getInstance()</text><polygon fill="#181818" points="576,726.9375,568,730.1375,576,733.3375,572.8,730.1375" style="stroke:#181818;stroke-width:0.8000000000000002;"/><line style="stroke:#181818;stroke-width:0.8000000000000002;stroke-dasharray:2.0,2.0;" x1="571.2" x2="680.4" y1="730.1375" y2="730.1375"/><text fill="#000000" font-family="sans-serif" font-size="10.4" font-weight="bold" lengthAdjust="spacing" textLength="14.4" x="580.8" y="726.3438">26</text><text fill="#000000" font-family="sans-serif" font-size="10.4" lengthAdjust="spacing" textLength="60" x="598.4" y="726.3438">repositories</text><polygon fill="#181818" points="758,750.3859,766,753.5859,758,756.7859,761.2,753.5859" style="stroke:#181818;stroke-width:0.8000000000000002;"/><line style="stroke:#181818;stroke-width:0.8000000000000002;" x1="567.2" x2="762.8" y1="753.5859" y2="753.5859"/><text fill="#000000" font-family="sans-serif" font-size="10.4" font-weight="bold" lengthAdjust="spacing" textLength="14.4" x="572.8" y="749.7922">27</text><text fill="#000000" font-family="sans-serif" font-size="10.4" lengthAdjust="spacing" textLength="109.6" x="590.4" y="749.7922">getPersonRepository()</text><polygon fill="#181818" points="576,773.8344,568,777.0344,576,780.2344,572.8,777.0344" style="stroke:#181818;stroke-width:0.8000000000000002;"/><line style="stroke:#181818;stroke-width:0.8000000000000002;stroke-dasharray:2.0,2.0;" x1="571.2" x2="770.8" y1="777.0344" y2="777.0344"/><text fill="#000000" font-family="sans-serif" font-size="10.4" font-weight="bold" lengthAdjust="spacing" textLength="14.4" x="580.8" y="773.2406">28</text><text fill="#000000" font-family="sans-serif" font-size="10.4" lengthAdjust="spacing" textLength="87.2" x="598.4" y="773.2406">PersonRepository</text><polygon fill="#181818" points="1235.6,797.2828,1243.6,800.4828,1235.6,803.6828,1238.8,800.4828" style="stroke:#181818;stroke-width:0.8000000000000002;"/><line style="stroke:#181818;stroke-width:0.8000000000000002;" x1="567.2" x2="1240.4" y1="800.4828" y2="800.4828"/><text fill="#000000" font-family="sans-serif" font-size="10.4" font-weight="bold" lengthAdjust="spacing" textLength="14.4" x="572.8" y="796.6891">29</text><text fill="#000000" font-family="sans-serif" font-size="10.4" lengthAdjust="spacing" textLength="56" x="590.4" y="796.6891">getPerson()</text><polygon fill="#181818" points="576,820.7313,568,823.9313,576,827.1313,572.8,823.9313" style="stroke:#181818;stroke-width:0.8000000000000002;"/><line style="stroke:#181818;stroke-width:0.8000000000000002;stroke-dasharray:2.0,2.0;" x1="571.2" x2="1248.4" y1="823.9313" y2="823.9313"/><text fill="#000000" font-family="sans-serif" font-size="10.4" font-weight="bold" lengthAdjust="spacing" textLength="14.4" x="580.8" y="820.1375">30</text><text fill="#000000" font-family="sans-serif" font-size="10.4" lengthAdjust="spacing" textLength="73.6" x="598.4" y="820.1375">returns person</text><polygon fill="#181818" points="333.6,844.1797,325.6,847.3797,333.6,850.5797,330.4,847.3797" style="stroke:#181818;stroke-width:0.8000000000000002;"/><line style="stroke:#181818;stroke-width:0.8000000000000002;stroke-dasharray:2.0,2.0;" x1="328.8" x2="562.4" y1="847.3797" y2="847.3797"/><text fill="#000000" font-family="sans-serif" font-size="10.4" font-weight="bold" lengthAdjust="spacing" textLength="14.4" x="338.4" y="843.5859">31</text><text fill="#000000" font-family="sans-serif" font-size="10.4" lengthAdjust="spacing" textLength="73.6" x="356" y="843.5859">returns person</text><polygon fill="#181818" points="47.2,867.6281,39.2,870.8281,47.2,874.0281,44,870.8281" style="stroke:#181818;stroke-width:0.8000000000000002;"/><line style="stroke:#181818;stroke-width:0.8000000000000002;stroke-dasharray:2.0,2.0;" x1="42.4" x2="320" y1="870.8281" y2="870.8281"/><text fill="#000000" font-family="sans-serif" font-size="10.4" font-weight="bold" lengthAdjust="spacing" textLength="14.4" x="52" y="867.0344">32</text><text fill="#000000" font-family="sans-serif" font-size="10.4" lengthAdjust="spacing" textLength="120.8" x="69.6" y="867.0344">asks to write a message</text><polygon fill="#181818" points="307.2,891.0766,315.2,894.2766,307.2,897.4766,310.4,894.2766" style="stroke:#181818;stroke-width:0.8000000000000002;"/><line style="stroke:#181818;stroke-width:0.8000000000000002;" x1="38.4" x2="312" y1="894.2766" y2="894.2766"/><text fill="#000000" font-family="sans-serif" font-size="10.4" font-weight="bold" lengthAdjust="spacing" textLength="14.4" x="44" y="890.4828">33</text><text fill="#000000" font-family="sans-serif" font-size="10.4" lengthAdjust="spacing" textLength="80.8" x="61.6" y="890.4828">write a message</text><polygon fill="#181818" points="47.2,914.525,39.2,917.725,47.2,920.925,44,917.725" style="stroke:#181818;stroke-width:0.8000000000000002;"/><line style="stroke:#181818;stroke-width:0.8000000000000002;stroke-dasharray:2.0,2.0;" x1="42.4" x2="320" y1="917.725" y2="917.725"/><text fill="#000000" font-family="sans-serif" font-size="10.4" font-weight="bold" lengthAdjust="spacing" textLength="14.4" x="52" y="913.9313">34</text><text fill="#000000" font-family="sans-serif" font-size="10.4" lengthAdjust="spacing" textLength="86.4" x="69.6" y="913.9313">confirm message</text><polygon fill="#181818" points="307.2,937.9734,315.2,941.1734,307.2,944.3734,310.4,941.1734" style="stroke:#181818;stroke-width:0.8000000000000002;"/><line style="stroke:#181818;stroke-width:0.8000000000000002;" x1="38.4" x2="312" y1="941.1734" y2="941.1734"/><text fill="#000000" font-family="sans-serif" font-size="10.4" font-weight="bold" lengthAdjust="spacing" textLength="14.4" x="44" y="937.3797">35</text><text fill="#000000" font-family="sans-serif" font-size="10.4" lengthAdjust="spacing" textLength="92" x="61.6" y="937.3797">confirms message</text><polygon fill="#181818" points="549.6,973.6703,557.6,976.8703,549.6,980.0703,552.8,976.8703" style="stroke:#181818;stroke-width:0.8000000000000002;"/><line style="stroke:#181818;stroke-width:0.8000000000000002;" x1="324.8" x2="554.4" y1="976.8703" y2="976.8703"/><text fill="#000000" font-family="sans-serif" font-size="10.4" font-weight="bold" lengthAdjust="spacing" textLength="14.4" x="330.4" y="966.9523">36</text><text fill="#000000" font-family="sans-serif" font-size="10.4" lengthAdjust="spacing" textLength="201.6" x="348" y="960.8281">createVisitRequest(announcement, date,</text><text fill="#000000" font-family="sans-serif" font-size="10.4" lengthAdjust="spacing" textLength="136" x="351.2" y="973.0766">timeSlot, message, person)</text><polygon fill="#181818" points="1042,997.1188,1050,1000.3188,1042,1003.5188,1045.2,1000.3188" style="stroke:#181818;stroke-width:0.8000000000000002;"/><line style="stroke:#181818;stroke-width:0.8000000000000002;" x1="567.2" x2="1046.8" y1="1000.3188" y2="1000.3188"/><text fill="#000000" font-family="sans-serif" font-size="10.4" font-weight="bold" lengthAdjust="spacing" textLength="14.4" x="572.8" y="996.525">37</text><text fill="#000000" font-family="sans-serif" font-size="10.4" lengthAdjust="spacing" textLength="210.4" x="590.4" y="996.525">visitRequestRepository.addRequests(visit)</text><line style="stroke:#181818;stroke-width:0.8000000000000002;stroke-dasharray:2.0,2.0;" x1="1059.6" x2="1093.2" y1="1023.7672" y2="1023.7672"/><line style="stroke:#181818;stroke-width:0.8000000000000002;stroke-dasharray:2.0,2.0;" x1="1093.2" x2="1093.2" y1="1023.7672" y2="1034.1672"/><line style="stroke:#181818;stroke-width:0.8000000000000002;stroke-dasharray:2.0,2.0;" x1="1060.4" x2="1093.2" y1="1034.1672" y2="1034.1672"/><polygon fill="#181818" points="1068.4,1030.9672,1060.4,1034.1672,1068.4,1037.3672,1065.2,1034.1672" style="stroke:#181818;stroke-width:0.8000000000000002;"/><text fill="#000000" font-family="sans-serif" font-size="10.4" font-weight="bold" lengthAdjust="spacing" textLength="14.4" x="1065.2" y="1019.9734">38</text><text fill="#000000" font-family="sans-serif" font-size="10.4" lengthAdjust="spacing" textLength="156.8" x="1082.8" y="1019.9734">visitRequests.add(visitRequest)</text><polygon fill="#181818" points="576,1054.4156,568,1057.6156,576,1060.8156,572.8,1057.6156" style="stroke:#181818;stroke-width:0.8000000000000002;"/><line style="stroke:#181818;stroke-width:0.8000000000000002;stroke-dasharray:2.0,2.0;" x1="571.2" x2="1054.8" y1="1057.6156" y2="1057.6156"/><text fill="#000000" font-family="sans-serif" font-size="10.4" font-weight="bold" lengthAdjust="spacing" textLength="14.4" x="580.8" y="1053.8219">39</text><text fill="#000000" font-family="sans-serif" font-size="10.4" lengthAdjust="spacing" textLength="99.2" x="598.4" y="1053.8219">Visit Request added</text><polygon fill="#181818" points="333.6,1077.8641,325.6,1081.0641,333.6,1084.2641,330.4,1081.0641" style="stroke:#181818;stroke-width:0.8000000000000002;"/><line style="stroke:#181818;stroke-width:0.8000000000000002;stroke-dasharray:2.0,2.0;" x1="328.8" x2="562.4" y1="1081.0641" y2="1081.0641"/><text fill="#000000" font-family="sans-serif" font-size="10.4" font-weight="bold" lengthAdjust="spacing" textLength="14.4" x="338.4" y="1077.2703">40</text><text fill="#000000" font-family="sans-serif" font-size="10.4" lengthAdjust="spacing" textLength="99.2" x="356" y="1077.2703">Visit Request added</text><polygon fill="#181818" points="47.2,1101.3125,39.2,1104.5125,47.2,1107.7125,44,1104.5125" style="stroke:#181818;stroke-width:0.8000000000000002;"/><line style="stroke:#181818;stroke-width:0.8000000000000002;stroke-dasharray:2.0,2.0;" x1="42.4" x2="320" y1="1104.5125" y2="1104.5125"/><text fill="#000000" font-family="sans-serif" font-size="10.4" font-weight="bold" lengthAdjust="spacing" textLength="14.4" x="52" y="1100.7188">41</text><text fill="#000000" font-family="sans-serif" font-size="10.4" lengthAdjust="spacing" textLength="136" x="69.6" y="1100.7188">displays operation success</text><!--SRC=[dLSzR-Cm3DtzAuWkJOlqW5jpm055fm8T0lTZQJkeCfi8TIIV9AV8lpzA_f9jsKdg9OdCzqXAZwHYleGic6Oxs2cf-5Qh7OBL9IQcVLCm_iKs-6WFEO96RfdSvA61sR9CVGkvWK-M6qmILbebozq7QlhEhT9mSPSBbFO2c86xXwU4W5PmKJ1fuMBr8eomAVuhqTZdUs_qV3zZSwUarIhFKLU4J-d3m3h5Gf6zqWADjsaN3e_2XKy1zY4wGBp96G9Q63YxbLALakEECkpyUDHjEfF6mFOb7HglKHib1sRhr6-gs3EBVYyJg1_w0JT_QUjWHOPV1gm2mxUObNHm3FRETMVTSj1Mjulk8Jonk4szlYOchf6i-YRU6naumyZE4cg3zbuQaWh7nTK8syNlZcxwTUpKHjRkYGLnKsUnWl1iH_0CptCtofj8guJZEfXBloUg-SISbowZkAkJSekwQfAwJSUfF0XZvv8WZKT39wucOEX7x1ZdOeqnLX4syfvb2vZ6-dBgTb5HhQoeSwblGwMH4mMeJs1x9dBsuSebS62MRv8MigweCASsI4iziyvF441JN65jLd0pmazMPIzcNJKF0ncp31RSDzPB0vBjq4TPR9L4gFhl7ueyStJkXHLaON9bgyCy4gKz52IvsXjcjRifiX5LrqKeORR79x9_9FE50phSxoLmods8xqxit0Ppl8pFx1AdT8RfRX3lz9EnjcKvKV5nkkHebJS1qdI1mKa8QL_VNz_zKLAJpvT0Az53SQF9hpYMeAWrsb9BunaSvJ2S5jUltcEmJWETyhkHnfNy57hd1HaJCiij9GAS6One7vZ6hiuZmtFLE32TXzdAR4xe2ApVYduoFK-RKpyOXQUEm6cn3sygir7t9j24t8U4oSaZhGbodOQXnG9Q1sDc7TLruR4nto4sBkvfR5y9COb_Q-5q2zGf3LszJsdNCSXOig6pfev2n8IZeRDMwaFiaI9fhvDXDrk4Gt3fIzODtAOvB1idotfBhv8Jhf7zjhUFDizVBClgHRFm9lrRphYDDK_J1kcpJsuSvo9SkOeZWwOEjIKG5BEfcymeXb1sPp7DtObMa0bJvEnWGD5kCokeUvYISpg2Y0hHNOfocuJiz8_aFm00]--></g></svg>