<?xml version="1.0" encoding="us-ascii" standalone="no"?><svg xmlns="http://www.w3.org/2000/svg" xmlns:xlink="http://www.w3.org/1999/xlink" contentStyleType="text/css" height="790px" preserveAspectRatio="none" style="width:2043px;height:790px;background:#FFFFFF;" version="1.1" viewBox="0 0 2043 790" width="2043px" zoomAndPan="magnify"><defs/><g><!--class Employee--><g id="elem_Employee"><rect codeLine="9" fill="#F1F1F1" height="196.3945" id="Employee" rx="2.5" ry="2.5" style="stroke:#181818;stroke-width:0.5;" width="361" x="635.5" y="587"/><ellipse cx="778.75" cy="603" fill="#ADD1B2" rx="11" ry="11" style="stroke:#181818;stroke-width:1.0;"/><path d="M781.7231,608.6431 Q781.1421,608.9419 780.5029,609.0913 Q779.8638,609.2407 779.1582,609.2407 Q776.6514,609.2407 775.3315,607.5889 Q774.0117,605.937 774.0117,602.8159 Q774.0117,599.6865 775.3315,598.0347 Q776.6514,596.3828 779.1582,596.3828 Q779.8638,596.3828 780.5112,596.5322 Q781.1587,596.6816 781.7231,596.9805 L781.7231,599.7031 Q781.0923,599.1221 780.4988,598.8523 Q779.9053,598.5825 779.2744,598.5825 Q777.9297,598.5825 777.2449,599.6492 Q776.5601,600.7158 776.5601,602.8159 Q776.5601,604.9077 777.2449,605.9744 Q777.9297,607.041 779.2744,607.041 Q779.9053,607.041 780.4988,606.7712 Q781.0923,606.5015 781.7231,605.9204 Z " fill="#000000"/><text fill="#000000" font-family="sans-serif" font-size="14" lengthAdjust="spacing" textLength="66" x="799.25" y="608.291">Employee</text><line style="stroke:#181818;stroke-width:0.5;" x1="636.5" x2="995.5" y1="619" y2="619"/><rect fill="none" height="6" style="stroke:#C82930;stroke-width:1.0;" width="6" x="643.5" y="629.7441"/><text fill="#000000" font-family="sans-serif" font-size="14" lengthAdjust="spacing" textLength="83" x="655.5" y="636.5352">String name</text><rect fill="none" height="6" style="stroke:#C82930;stroke-width:1.0;" width="6" x="643.5" y="646.2324"/><text fill="#000000" font-family="sans-serif" font-size="14" lengthAdjust="spacing" textLength="138" x="655.5" y="653.0234">String emailAddress</text><rect fill="none" height="6" style="stroke:#C82930;stroke-width:1.0;" width="6" x="643.5" y="662.7207"/><text fill="#000000" font-family="sans-serif" font-size="14" lengthAdjust="spacing" textLength="100" x="655.5" y="669.5117">String location</text><rect fill="none" height="6" style="stroke:#C82930;stroke-width:1.0;" width="6" x="643.5" y="679.209"/><text fill="#000000" font-family="sans-serif" font-size="14" lengthAdjust="spacing" textLength="99" x="655.5" y="686">int taxNumber</text><rect fill="none" height="6" style="stroke:#C82930;stroke-width:1.0;" width="6" x="643.5" y="695.6973"/><text fill="#000000" font-family="sans-serif" font-size="14" lengthAdjust="spacing" textLength="106" x="655.5" y="702.4883">agency: Agency</text><rect fill="none" height="6" style="stroke:#C82930;stroke-width:1.0;" width="6" x="643.5" y="712.1855"/><text fill="#000000" font-family="sans-serif" font-size="14" lengthAdjust="spacing" textLength="65" x="655.5" y="718.9766">role: Role</text><line style="stroke:#181818;stroke-width:0.5;" x1="636.5" x2="995.5" y1="725.9297" y2="725.9297"/><ellipse cx="646.5" cy="756.1621" fill="#84BE84" rx="3" ry="3" style="stroke:#038048;stroke-width:1.0;"/><text fill="#000000" font-family="sans-serif" font-size="14" lengthAdjust="spacing" textLength="335" x="655.5" y="743.4648">createEmployee(citizenCardNumber, taxNumber,</text><text fill="#000000" font-family="sans-serif" font-size="14" lengthAdjust="spacing" textLength="313" x="655.5" y="759.9531">name, location, phoneNumber, emailAddress,</text><text fill="#000000" font-family="sans-serif" font-size="14" lengthAdjust="spacing" textLength="88" x="655.5" y="776.4414">role, agency)</text></g><!--class RoleRepository--><g id="elem_RoleRepository"><rect codeLine="20" fill="#F1F1F1" height="80.9766" id="RoleRepository" rx="2.5" ry="2.5" style="stroke:#181818;stroke-width:0.5;" width="169" x="1849.5" y="404"/><ellipse cx="1879.8" cy="420" fill="#ADD1B2" rx="11" ry="11" style="stroke:#181818;stroke-width:1.0;"/><path d="M1882.7731,425.6431 Q1882.1921,425.9419 1881.5529,426.0913 Q1880.9138,426.2407 1880.2082,426.2407 Q1877.7014,426.2407 1876.3815,424.5889 Q1875.0617,422.937 1875.0617,419.8159 Q1875.0617,416.6865 1876.3815,415.0347 Q1877.7014,413.3828 1880.2082,413.3828 Q1880.9138,413.3828 1881.5612,413.5322 Q1882.2087,413.6816 1882.7731,413.9805 L1882.7731,416.7031 Q1882.1423,416.1221 1881.5488,415.8523 Q1880.9553,415.5825 1880.3244,415.5825 Q1878.9797,415.5825 1878.2949,416.6492 Q1877.6101,417.7158 1877.6101,419.8159 Q1877.6101,421.9077 1878.2949,422.9744 Q1878.9797,424.041 1880.3244,424.041 Q1880.9553,424.041 1881.5488,423.7712 Q1882.1423,423.5015 1882.7731,422.9204 Z " fill="#000000"/><text fill="#000000" font-family="sans-serif" font-size="14" lengthAdjust="spacing" textLength="103" x="1897.2" y="425.291">RoleRepository</text><line style="stroke:#181818;stroke-width:0.5;" x1="1850.5" x2="2017.5" y1="436" y2="436"/><rect fill="none" height="6" style="stroke:#C82930;stroke-width:1.0;" width="6" x="1857.5" y="446.7441"/><text fill="#000000" font-family="sans-serif" font-size="14" lengthAdjust="spacing" textLength="143" x="1869.5" y="453.5352">ArrayList&lt;Role&gt; role</text><line style="stroke:#181818;stroke-width:0.5;" x1="1850.5" x2="2017.5" y1="460.4883" y2="460.4883"/><ellipse cx="1860.5" cy="474.2324" fill="#84BE84" rx="3" ry="3" style="stroke:#038048;stroke-width:1.0;"/><text fill="#000000" font-family="sans-serif" font-size="14" lengthAdjust="spacing" textLength="69" x="1869.5" y="478.0234">getRoles()</text></g><!--class EmployeeRepository--><g id="elem_EmployeeRepository"><rect codeLine="25" fill="#F1F1F1" height="130.4414" id="EmployeeRepository" rx="2.5" ry="2.5" style="stroke:#181818;stroke-width:0.5;" width="361" x="264.5" y="379.5"/><ellipse cx="371.25" cy="395.5" fill="#ADD1B2" rx="11" ry="11" style="stroke:#181818;stroke-width:1.0;"/><path d="M374.2231,401.1431 Q373.6421,401.4419 373.0029,401.5913 Q372.3638,401.7407 371.6582,401.7407 Q369.1514,401.7407 367.8315,400.0889 Q366.5117,398.437 366.5117,395.3159 Q366.5117,392.1865 367.8315,390.5347 Q369.1514,388.8828 371.6582,388.8828 Q372.3638,388.8828 373.0112,389.0322 Q373.6587,389.1816 374.2231,389.4805 L374.2231,392.2031 Q373.5923,391.6221 372.9988,391.3523 Q372.4053,391.0825 371.7744,391.0825 Q370.4297,391.0825 369.7449,392.1492 Q369.0601,393.2158 369.0601,395.3159 Q369.0601,397.4077 369.7449,398.4744 Q370.4297,399.541 371.7744,399.541 Q372.4053,399.541 372.9988,399.2712 Q373.5923,399.0015 374.2231,398.4204 Z " fill="#000000"/><text fill="#000000" font-family="sans-serif" font-size="14" lengthAdjust="spacing" textLength="139" x="391.75" y="400.791">EmployeeRepository</text><line style="stroke:#181818;stroke-width:0.5;" x1="265.5" x2="624.5" y1="411.5" y2="411.5"/><rect fill="none" height="6" style="stroke:#C82930;stroke-width:1.0;" width="6" x="272.5" y="422.2441"/><text fill="#000000" font-family="sans-serif" font-size="14" lengthAdjust="spacing" textLength="222" x="284.5" y="429.0352">ArrayList &lt;Employee&gt; employee</text><line style="stroke:#181818;stroke-width:0.5;" x1="265.5" x2="624.5" y1="435.9883" y2="435.9883"/><ellipse cx="275.5" cy="466.2207" fill="#84BE84" rx="3" ry="3" style="stroke:#038048;stroke-width:1.0;"/><text fill="#000000" font-family="sans-serif" font-size="14" lengthAdjust="spacing" textLength="335" x="284.5" y="453.5234">createEmployee(citizenCardNumber, taxNumber,</text><text fill="#000000" font-family="sans-serif" font-size="14" lengthAdjust="spacing" textLength="313" x="284.5" y="470.0117">name, location, phoneNumber, emailAddress,</text><text fill="#000000" font-family="sans-serif" font-size="14" lengthAdjust="spacing" textLength="88" x="284.5" y="486.5">role, agency)</text><ellipse cx="275.5" cy="499.1973" fill="#84BE84" rx="3" ry="3" style="stroke:#038048;stroke-width:1.0;"/><text fill="#000000" font-family="sans-serif" font-size="14" lengthAdjust="spacing" textLength="106" x="284.5" y="502.9883">saveEmployee()</text></g><!--class AgencyRepository--><g id="elem_AgencyRepository"><rect codeLine="33" fill="#F1F1F1" height="80.9766" id="AgencyRepository" rx="2.5" ry="2.5" style="stroke:#181818;stroke-width:0.5;" width="222" x="7" y="404"/><ellipse cx="52.25" cy="420" fill="#ADD1B2" rx="11" ry="11" style="stroke:#181818;stroke-width:1.0;"/><path d="M55.2231,425.6431 Q54.6421,425.9419 54.0029,426.0913 Q53.3638,426.2407 52.6582,426.2407 Q50.1514,426.2407 48.8315,424.5889 Q47.5117,422.937 47.5117,419.8159 Q47.5117,416.6865 48.8315,415.0347 Q50.1514,413.3828 52.6582,413.3828 Q53.3638,413.3828 54.0112,413.5322 Q54.6587,413.6816 55.2231,413.9805 L55.2231,416.7031 Q54.5923,416.1221 53.9988,415.8523 Q53.4053,415.5825 52.7744,415.5825 Q51.4297,415.5825 50.7449,416.6492 Q50.0601,417.7158 50.0601,419.8159 Q50.0601,421.9077 50.7449,422.9744 Q51.4297,424.041 52.7744,424.041 Q53.4053,424.041 53.9988,423.7712 Q54.5923,423.5015 55.2231,422.9204 Z " fill="#000000"/><text fill="#000000" font-family="sans-serif" font-size="14" lengthAdjust="spacing" textLength="123" x="72.75" y="425.291">AgencyRepository</text><line style="stroke:#181818;stroke-width:0.5;" x1="8" x2="228" y1="436" y2="436"/><rect fill="none" height="6" style="stroke:#C82930;stroke-width:1.0;" width="6" x="15" y="446.7441"/><text fill="#000000" font-family="sans-serif" font-size="14" lengthAdjust="spacing" textLength="196" x="27" y="453.5352">ArrayList&lt;Agency&gt; agencies</text><line style="stroke:#181818;stroke-width:0.5;" x1="8" x2="228" y1="460.4883" y2="460.4883"/><ellipse cx="18" cy="474.2324" fill="#84BE84" rx="3" ry="3" style="stroke:#038048;stroke-width:1.0;"/><text fill="#000000" font-family="sans-serif" font-size="14" lengthAdjust="spacing" textLength="94" x="27" y="478.0234">getAgencies()</text></g><!--class Agency--><g id="elem_Agency"><rect codeLine="38" fill="#F1F1F1" height="130.4414" id="Agency" rx="2.5" ry="2.5" style="stroke:#181818;stroke-width:0.5;" width="123" x="375.5" y="620"/><ellipse cx="408.95" cy="636" fill="#ADD1B2" rx="11" ry="11" style="stroke:#181818;stroke-width:1.0;"/><path d="M411.9231,641.6431 Q411.3421,641.9419 410.7029,642.0913 Q410.0638,642.2407 409.3582,642.2407 Q406.8514,642.2407 405.5315,640.5889 Q404.2117,638.937 404.2117,635.8159 Q404.2117,632.6865 405.5315,631.0347 Q406.8514,629.3828 409.3582,629.3828 Q410.0638,629.3828 410.7112,629.5322 Q411.3587,629.6816 411.9231,629.9805 L411.9231,632.7031 Q411.2923,632.1221 410.6988,631.8523 Q410.1053,631.5825 409.4744,631.5825 Q408.1297,631.5825 407.4449,632.6492 Q406.7601,633.7158 406.7601,635.8159 Q406.7601,637.9077 407.4449,638.9744 Q408.1297,640.041 409.4744,640.041 Q410.1053,640.041 410.6988,639.7712 Q411.2923,639.5015 411.9231,638.9204 Z " fill="#000000"/><text fill="#000000" font-family="sans-serif" font-size="14" lengthAdjust="spacing" textLength="50" x="427.05" y="641.291">Agency</text><line style="stroke:#181818;stroke-width:0.5;" x1="376.5" x2="497.5" y1="652" y2="652"/><rect fill="none" height="6" style="stroke:#C82930;stroke-width:1.0;" width="6" x="383.5" y="662.7441"/><text fill="#000000" font-family="sans-serif" font-size="14" lengthAdjust="spacing" textLength="36" x="395.5" y="669.5352">int ID</text><rect fill="none" height="6" style="stroke:#C82930;stroke-width:1.0;" width="6" x="383.5" y="679.2324"/><text fill="#000000" font-family="sans-serif" font-size="14" lengthAdjust="spacing" textLength="83" x="395.5" y="686.0234">String name</text><rect fill="none" height="6" style="stroke:#C82930;stroke-width:1.0;" width="6" x="383.5" y="695.7207"/><text fill="#000000" font-family="sans-serif" font-size="14" lengthAdjust="spacing" textLength="97" x="395.5" y="702.5117">String website</text><rect fill="none" height="6" style="stroke:#C82930;stroke-width:1.0;" width="6" x="383.5" y="712.209"/><text fill="#000000" font-family="sans-serif" font-size="14" lengthAdjust="spacing" textLength="66" x="395.5" y="719">int phone</text><rect fill="none" height="6" style="stroke:#C82930;stroke-width:1.0;" width="6" x="383.5" y="728.6973"/><text fill="#000000" font-family="sans-serif" font-size="14" lengthAdjust="spacing" textLength="82" x="395.5" y="735.4883">String email</text><line style="stroke:#181818;stroke-width:0.5;" x1="376.5" x2="497.5" y1="742.4414" y2="742.4414"/></g><!--class Person--><g id="elem_Person"><rect codeLine="47" fill="#F1F1F1" height="163.418" id="Person" rx="2.5" ry="2.5" style="stroke:#181818;stroke-width:0.5;" width="700" x="661" y="363"/><ellipse cx="983.25" cy="379" fill="#ADD1B2" rx="11" ry="11" style="stroke:#181818;stroke-width:1.0;"/><path d="M986.2231,384.6431 Q985.6421,384.9419 985.0029,385.0913 Q984.3638,385.2407 983.6582,385.2407 Q981.1514,385.2407 979.8315,383.5889 Q978.5117,381.937 978.5117,378.8159 Q978.5117,375.6865 979.8315,374.0347 Q981.1514,372.3828 983.6582,372.3828 Q984.3638,372.3828 985.0112,372.5322 Q985.6587,372.6816 986.2231,372.9805 L986.2231,375.7031 Q985.5923,375.1221 984.9988,374.8523 Q984.4053,374.5825 983.7744,374.5825 Q982.4297,374.5825 981.7449,375.6492 Q981.0601,376.7158 981.0601,378.8159 Q981.0601,380.9077 981.7449,381.9744 Q982.4297,383.041 983.7744,383.041 Q984.4053,383.041 984.9988,382.7712 Q985.5923,382.5015 986.2231,381.9204 Z " fill="#000000"/><text fill="#000000" font-family="sans-serif" font-size="14" lengthAdjust="spacing" textLength="47" x="1003.75" y="384.291">Person</text><line style="stroke:#181818;stroke-width:0.5;" x1="662" x2="1360" y1="395" y2="395"/><rect fill="none" height="6" style="stroke:#C82930;stroke-width:1.0;" width="6" x="669" y="405.7441"/><text fill="#000000" font-family="sans-serif" font-size="14" lengthAdjust="spacing" textLength="83" x="681" y="412.5352">String name</text><rect fill="none" height="6" style="stroke:#C82930;stroke-width:1.0;" width="6" x="669" y="422.2324"/><text fill="#000000" font-family="sans-serif" font-size="14" lengthAdjust="spacing" textLength="170" x="681" y="429.0234">int passportCardNumber</text><rect fill="none" height="6" style="stroke:#C82930;stroke-width:1.0;" width="6" x="669" y="438.7207"/><text fill="#000000" font-family="sans-serif" font-size="14" lengthAdjust="spacing" textLength="138" x="681" y="445.5117">String emailAddress</text><rect fill="none" height="6" style="stroke:#C82930;stroke-width:1.0;" width="6" x="669" y="455.209"/><text fill="#000000" font-family="sans-serif" font-size="14" lengthAdjust="spacing" textLength="122" x="681" y="462">String taxNumber</text><rect fill="none" height="6" style="stroke:#C82930;stroke-width:1.0;" width="6" x="669" y="471.6973"/><text fill="#000000" font-family="sans-serif" font-size="14" lengthAdjust="spacing" textLength="223" x="681" y="478.4883">String contactTelephoneNumber</text><rect fill="none" height="6" style="stroke:#C82930;stroke-width:1.0;" width="6" x="669" y="488.1855"/><text fill="#000000" font-family="sans-serif" font-size="14" lengthAdjust="spacing" textLength="100" x="681" y="494.9766">String location</text><line style="stroke:#181818;stroke-width:0.5;" x1="662" x2="1360" y1="501.9297" y2="501.9297"/><ellipse cx="672" cy="515.6738" fill="#84BE84" rx="3" ry="3" style="stroke:#038048;stroke-width:1.0;"/><text fill="#000000" font-family="sans-serif" font-size="14" lengthAdjust="spacing" textLength="674" x="681" y="519.4648">Person(name, passportCardNumber,taxNumber,emailAddress,location, contactTelephoneNumber)</text></g><!--class Location--><g id="elem_Location"><rect codeLine="57" fill="#F1F1F1" height="146.9297" id="Location" rx="2.5" ry="2.5" style="stroke:#181818;stroke-width:0.5;" width="359" x="1455.5" y="371"/><ellipse cx="1601.75" cy="387" fill="#ADD1B2" rx="11" ry="11" style="stroke:#181818;stroke-width:1.0;"/><path d="M1604.7231,392.6431 Q1604.1421,392.9419 1603.5029,393.0913 Q1602.8638,393.2407 1602.1582,393.2407 Q1599.6514,393.2407 1598.3315,391.5889 Q1597.0117,389.937 1597.0117,386.8159 Q1597.0117,383.6865 1598.3315,382.0347 Q1599.6514,380.3828 1602.1582,380.3828 Q1602.8638,380.3828 1603.5112,380.5322 Q1604.1587,380.6816 1604.7231,380.9805 L1604.7231,383.7031 Q1604.0923,383.1221 1603.4988,382.8523 Q1602.9053,382.5825 1602.2744,382.5825 Q1600.9297,382.5825 1600.2449,383.6492 Q1599.5601,384.7158 1599.5601,386.8159 Q1599.5601,388.9077 1600.2449,389.9744 Q1600.9297,391.041 1602.2744,391.041 Q1602.9053,391.041 1603.4988,390.7712 Q1604.0923,390.5015 1604.7231,389.9204 Z " fill="#000000"/><text fill="#000000" font-family="sans-serif" font-size="14" lengthAdjust="spacing" textLength="58" x="1622.25" y="392.291">Location</text><line style="stroke:#181818;stroke-width:0.5;" x1="1456.5" x2="1813.5" y1="403" y2="403"/><rect fill="none" height="6" style="stroke:#C82930;stroke-width:1.0;" width="6" x="1463.5" y="413.7441"/><text fill="#000000" font-family="sans-serif" font-size="14" lengthAdjust="spacing" textLength="84" x="1475.5" y="420.5352">String street</text><rect fill="none" height="6" style="stroke:#C82930;stroke-width:1.0;" width="6" x="1463.5" y="430.2324"/><text fill="#000000" font-family="sans-serif" font-size="14" lengthAdjust="spacing" textLength="68" x="1475.5" y="437.0234">String city</text><rect fill="none" height="6" style="stroke:#C82930;stroke-width:1.0;" width="6" x="1463.5" y="446.7207"/><text fill="#000000" font-family="sans-serif" font-size="14" lengthAdjust="spacing" textLength="78" x="1475.5" y="453.5117">String state</text><rect fill="none" height="6" style="stroke:#C82930;stroke-width:1.0;" width="6" x="1463.5" y="463.209"/><text fill="#000000" font-family="sans-serif" font-size="14" lengthAdjust="spacing" textLength="102" x="1475.5" y="470">String zipCode</text><rect fill="none" height="6" style="stroke:#C82930;stroke-width:1.0;" width="6" x="1463.5" y="479.6973"/><text fill="#000000" font-family="sans-serif" font-size="14" lengthAdjust="spacing" textLength="92" x="1475.5" y="486.4883">String district</text><line style="stroke:#181818;stroke-width:0.5;" x1="1456.5" x2="1813.5" y1="493.4414" y2="493.4414"/><ellipse cx="1466.5" cy="507.1855" fill="#84BE84" rx="3" ry="3" style="stroke:#038048;stroke-width:1.0;"/><text fill="#000000" font-family="sans-serif" font-size="14" lengthAdjust="spacing" textLength="333" x="1475.5" y="510.9766">+createLocation(city,state,district,zipcode,street)</text></g><!--class Repositories--><g id="elem_Repositories"><rect codeLine="68" fill="#F1F1F1" height="113.9531" id="Repositories" rx="2.5" ry="2.5" style="stroke:#181818;stroke-width:0.5;" width="258" x="1030" y="89.5"/><ellipse cx="1112.25" cy="105.5" fill="#ADD1B2" rx="11" ry="11" style="stroke:#181818;stroke-width:1.0;"/><path d="M1115.2231,111.1431 Q1114.6421,111.4419 1114.0029,111.5913 Q1113.3638,111.7407 1112.6582,111.7407 Q1110.1514,111.7407 1108.8315,110.0889 Q1107.5117,108.437 1107.5117,105.3159 Q1107.5117,102.1865 1108.8315,100.5347 Q1110.1514,98.8828 1112.6582,98.8828 Q1113.3638,98.8828 1114.0112,99.0322 Q1114.6587,99.1816 1115.2231,99.4805 L1115.2231,102.2031 Q1114.5923,101.6221 1113.9988,101.3523 Q1113.4053,101.0825 1112.7744,101.0825 Q1111.4297,101.0825 1110.7449,102.1492 Q1110.0601,103.2158 1110.0601,105.3159 Q1110.0601,107.4077 1110.7449,108.4744 Q1111.4297,109.541 1112.7744,109.541 Q1113.4053,109.541 1113.9988,109.2712 Q1114.5923,109.0015 1115.2231,108.4204 Z " fill="#000000"/><text fill="#000000" font-family="sans-serif" font-size="14" lengthAdjust="spacing" textLength="85" x="1132.75" y="110.791">Repositories</text><line style="stroke:#181818;stroke-width:0.5;" x1="1031" x2="1287" y1="121.5" y2="121.5"/><rect fill="none" height="6" style="stroke:#C82930;stroke-width:1.0;" width="6" x="1038" y="132.2441"/><text fill="#000000" font-family="sans-serif" font-size="14" lengthAdjust="spacing" textLength="82" x="1050" y="139.0352">repositories</text><line style="stroke:#181818;stroke-width:0.5;" x1="1031" x2="1287" y1="145.9883" y2="145.9883"/><ellipse cx="1041" cy="159.7324" fill="#84BE84" rx="3" ry="3" style="stroke:#038048;stroke-width:1.0;"/><text fill="#000000" font-family="sans-serif" font-size="14" lengthAdjust="spacing" textLength="232" x="1050" y="163.5234">getInstance() : List &lt;repositories&gt;</text><ellipse cx="1041" cy="176.2207" fill="#84BE84" rx="3" ry="3" style="stroke:#038048;stroke-width:1.0;"/><text fill="#000000" font-family="sans-serif" font-size="14" lengthAdjust="spacing" textLength="167" x="1050" y="180.0117">getAgenciesRepository()</text><ellipse cx="1041" cy="192.709" fill="#84BE84" rx="3" ry="3" style="stroke:#038048;stroke-width:1.0;"/><text fill="#000000" font-family="sans-serif" font-size="14" lengthAdjust="spacing" textLength="142" x="1050" y="196.5">getRolesRepository()</text></g><!--class CreateEmployeeController--><g id="elem_CreateEmployeeController"><rect codeLine="78" fill="#F1F1F1" height="278.8359" id="CreateEmployeeController" rx="2.5" ry="2.5" style="stroke:#181818;stroke-width:0.5;" width="376" x="360" y="7"/><ellipse cx="453.25" cy="23" fill="#ADD1B2" rx="11" ry="11" style="stroke:#181818;stroke-width:1.0;"/><path d="M456.2231,28.6431 Q455.6421,28.9419 455.0029,29.0913 Q454.3638,29.2407 453.6582,29.2407 Q451.1514,29.2407 449.8315,27.5889 Q448.5117,25.937 448.5117,22.8159 Q448.5117,19.6865 449.8315,18.0347 Q451.1514,16.3828 453.6582,16.3828 Q454.3638,16.3828 455.0112,16.5322 Q455.6587,16.6816 456.2231,16.9805 L456.2231,19.7031 Q455.5923,19.1221 454.9988,18.8523 Q454.4053,18.5825 453.7744,18.5825 Q452.4297,18.5825 451.7449,19.6492 Q451.0601,20.7158 451.0601,22.8159 Q451.0601,24.9077 451.7449,25.9744 Q452.4297,27.041 453.7744,27.041 Q454.4053,27.041 454.9988,26.7712 Q455.5923,26.5015 456.2231,25.9204 Z " fill="#000000"/><text fill="#000000" font-family="sans-serif" font-size="14" lengthAdjust="spacing" textLength="181" x="473.75" y="28.291">CreateEmployeeController</text><line style="stroke:#181818;stroke-width:0.5;" x1="361" x2="735" y1="39" y2="39"/><rect fill="none" height="6" style="stroke:#C82930;stroke-width:1.0;" width="6" x="368" y="49.7441"/><text fill="#000000" font-family="sans-serif" font-size="14" lengthAdjust="spacing" textLength="171" x="380" y="56.5352">repositories Repositories</text><rect fill="none" height="6" style="stroke:#C82930;stroke-width:1.0;" width="6" x="368" y="66.2324"/><text fill="#000000" font-family="sans-serif" font-size="14" lengthAdjust="spacing" textLength="248" x="380" y="73.0234">AgencyRepository agencyRepository</text><rect fill="none" height="6" style="stroke:#C82930;stroke-width:1.0;" width="6" x="368" y="82.7207"/><text fill="#000000" font-family="sans-serif" font-size="14" lengthAdjust="spacing" textLength="282" x="380" y="89.5117">EmployeeRepository employeeRepository</text><rect fill="none" height="6" style="stroke:#C82930;stroke-width:1.0;" width="6" x="368" y="99.209"/><text fill="#000000" font-family="sans-serif" font-size="14" lengthAdjust="spacing" textLength="221" x="380" y="106">RolesRepository rolesRepository</text><rect fill="none" height="6" style="stroke:#C82930;stroke-width:1.0;" width="6" x="368" y="115.6973"/><text fill="#000000" font-family="sans-serif" font-size="14" lengthAdjust="spacing" textLength="196" x="380" y="122.4883">ArrayList&lt;Agency&gt; agencies</text><rect fill="none" height="6" style="stroke:#C82930;stroke-width:1.0;" width="6" x="368" y="132.1855"/><text fill="#000000" font-family="sans-serif" font-size="14" lengthAdjust="spacing" textLength="218" x="380" y="138.9766">ArrayList&lt;Employee&gt; employee</text><rect fill="none" height="6" style="stroke:#C82930;stroke-width:1.0;" width="6" x="368" y="148.6738"/><text fill="#000000" font-family="sans-serif" font-size="14" lengthAdjust="spacing" textLength="150" x="380" y="155.4648">ArrayList&lt;Role&gt; roles</text><line style="stroke:#181818;stroke-width:0.5;" x1="361" x2="735" y1="162.418" y2="162.418"/><ellipse cx="371" cy="176.1621" fill="#84BE84" rx="3" ry="3" style="stroke:#038048;stroke-width:1.0;"/><text fill="#000000" font-family="sans-serif" font-size="14" lengthAdjust="spacing" textLength="188" x="380" y="179.9531">createEmployeeController()</text><ellipse cx="371" cy="217.3828" fill="#84BE84" rx="3" ry="3" style="stroke:#038048;stroke-width:1.0;"/><text fill="#000000" font-family="sans-serif" font-size="14" lengthAdjust="spacing" textLength="250" x="380" y="196.4414">createEmployee(citizenCardNumber,</text><text fill="#000000" font-family="sans-serif" font-size="14" lengthAdjust="spacing" textLength="262" x="380" y="212.9297">taxNumber, name, street,city,zipCode,</text><text fill="#000000" font-family="sans-serif" font-size="14" lengthAdjust="spacing" textLength="350" x="380" y="229.418">district,state, contact phoneNumber, emailAddress,</text><text fill="#000000" font-family="sans-serif" font-size="14" lengthAdjust="spacing" textLength="88" x="380" y="245.9063">role, agency)</text><ellipse cx="371" cy="258.6035" fill="#84BE84" rx="3" ry="3" style="stroke:#038048;stroke-width:1.0;"/><text fill="#000000" font-family="sans-serif" font-size="14" lengthAdjust="spacing" textLength="117" x="380" y="262.3945">getAgenciesList()</text><ellipse cx="371" cy="275.0918" fill="#84BE84" rx="3" ry="3" style="stroke:#038048;stroke-width:1.0;"/><text fill="#000000" font-family="sans-serif" font-size="14" lengthAdjust="spacing" textLength="92" x="380" y="278.8828">getRolesList()</text></g><!--class CreateEmployeeUI--><g id="elem_CreateEmployeeUI"><rect codeLine="94" fill="#F1F1F1" height="97.4648" id="CreateEmployeeUI" rx="2.5" ry="2.5" style="stroke:#181818;stroke-width:0.5;" width="157" x="167.5" y="98"/><ellipse cx="182.5" cy="114" fill="#ADD1B2" rx="11" ry="11" style="stroke:#181818;stroke-width:1.0;"/><path d="M185.4731,119.6431 Q184.8921,119.9419 184.2529,120.0913 Q183.6138,120.2407 182.9082,120.2407 Q180.4014,120.2407 179.0815,118.5889 Q177.7617,116.937 177.7617,113.8159 Q177.7617,110.6865 179.0815,109.0347 Q180.4014,107.3828 182.9082,107.3828 Q183.6138,107.3828 184.2612,107.5322 Q184.9087,107.6816 185.4731,107.9805 L185.4731,110.7031 Q184.8423,110.1221 184.2488,109.8523 Q183.6553,109.5825 183.0244,109.5825 Q181.6797,109.5825 180.9949,110.6492 Q180.3101,111.7158 180.3101,113.8159 Q180.3101,115.9077 180.9949,116.9744 Q181.6797,118.041 183.0244,118.041 Q183.6553,118.041 184.2488,117.7712 Q184.8423,117.5015 185.4731,116.9204 Z " fill="#000000"/><text fill="#000000" font-family="sans-serif" font-size="14" lengthAdjust="spacing" textLength="125" x="196.5" y="119.291">CreateEmployeeUI</text><line style="stroke:#181818;stroke-width:0.5;" x1="168.5" x2="323.5" y1="130" y2="130"/><line style="stroke:#181818;stroke-width:0.5;" x1="168.5" x2="323.5" y1="138" y2="138"/><ellipse cx="178.5" cy="151.7441" fill="#84BE84" rx="3" ry="3" style="stroke:#038048;stroke-width:1.0;"/><text fill="#000000" font-family="sans-serif" font-size="14" lengthAdjust="spacing" textLength="71" x="187.5" y="155.5352">saveData()</text><ellipse cx="178.5" cy="168.2324" fill="#84BE84" rx="3" ry="3" style="stroke:#038048;stroke-width:1.0;"/><text fill="#000000" font-family="sans-serif" font-size="14" lengthAdjust="spacing" textLength="77" x="187.5" y="172.0234">saveRoles()</text><ellipse cx="178.5" cy="184.7207" fill="#84BE84" rx="3" ry="3" style="stroke:#038048;stroke-width:1.0;"/><text fill="#000000" font-family="sans-serif" font-size="14" lengthAdjust="spacing" textLength="102" x="187.5" y="188.5117">saveAgencies()</text></g><!--class RoleOfTheEmployee--><g id="elem_RoleOfTheEmployee"><rect codeLine="100" fill="#F1F1F1" height="80.9766" id="RoleOfTheEmployee" rx="2.5" ry="2.5" style="stroke:#181818;stroke-width:0.5;" width="170" x="1849" y="644.5"/><ellipse cx="1864" cy="660.5" fill="#ADD1B2" rx="11" ry="11" style="stroke:#181818;stroke-width:1.0;"/><path d="M1866.9731,666.1431 Q1866.3921,666.4419 1865.7529,666.5913 Q1865.1138,666.7407 1864.4082,666.7407 Q1861.9014,666.7407 1860.5815,665.0889 Q1859.2617,663.437 1859.2617,660.3159 Q1859.2617,657.1865 1860.5815,655.5347 Q1861.9014,653.8828 1864.4082,653.8828 Q1865.1138,653.8828 1865.7612,654.0322 Q1866.4087,654.1816 1866.9731,654.4805 L1866.9731,657.2031 Q1866.3423,656.6221 1865.7488,656.3523 Q1865.1553,656.0825 1864.5244,656.0825 Q1863.1797,656.0825 1862.4949,657.1492 Q1861.8101,658.2158 1861.8101,660.3159 Q1861.8101,662.4077 1862.4949,663.4744 Q1863.1797,664.541 1864.5244,664.541 Q1865.1553,664.541 1865.7488,664.2712 Q1866.3423,664.0015 1866.9731,663.4204 Z " fill="#000000"/><text fill="#000000" font-family="sans-serif" font-size="14" lengthAdjust="spacing" textLength="138" x="1878" y="665.791">RoleOfTheEmployee</text><line style="stroke:#181818;stroke-width:0.5;" x1="1850" x2="2018" y1="676.5" y2="676.5"/><rect fill="none" height="6" style="stroke:#C82930;stroke-width:1.0;" width="6" x="1857" y="687.2441"/><text fill="#000000" font-family="sans-serif" font-size="14" lengthAdjust="spacing" textLength="122" x="1869" y="694.0352">String description</text><line style="stroke:#181818;stroke-width:0.5;" x1="1850" x2="2018" y1="700.9883" y2="700.9883"/><ellipse cx="1860" cy="714.7324" fill="#84BE84" rx="3" ry="3" style="stroke:#038048;stroke-width:1.0;"/><text fill="#000000" font-family="sans-serif" font-size="14" lengthAdjust="spacing" textLength="117" x="1869" y="718.5234">Role(description)</text></g><!--link Repositories to Repositories--><g id="link_Repositories_Repositories"><path codeLine="108" d="M1288.25,115.77 C1308.88,120.26 1323,130.51 1323,146.5 C1323,160.87 1311.6,170.6 1294.33,175.69 " fill="none" id="Repositories-to-Repositories" style="stroke:#181818;stroke-width:1.0;"/><polygon fill="#181818" points="1289.72,176.86,1299.4273,178.5241,1294.5665,175.6305,1297.4601,170.7697,1289.72,176.86" style="stroke:#181818;stroke-width:1.0;"/><text fill="#000000" font-family="sans-serif" font-size="13" lengthAdjust="spacing" textLength="53" x="1329" y="151.5684">instance</text></g><!--link CreateEmployeeUI to CreateEmployeeController--><g id="link_CreateEmployeeUI_CreateEmployeeController"><path codeLine="109" d="M324.82,146.5 C337.56,146.5 346.67,146.5 346.67,146.5 C346.67,146.5 349.22,146.5 353.52,146.5 " fill="none" id="CreateEmployeeUI-to-CreateEmployeeController" style="stroke:#181818;stroke-width:1.0;stroke-dasharray:7.0,7.0;"/><polygon fill="#181818" points="358.31,146.5,349.31,142.5,353.31,146.5,349.31,150.5,358.31,146.5" style="stroke:#181818;stroke-width:1.0;"/></g><!--link RoleRepository to RoleOfTheEmployee--><g id="link_RoleRepository_RoleOfTheEmployee"><path codeLine="110" d="M1934,485.42 C1934,527.51 1934,593.73 1934,637.98 " fill="none" id="RoleRepository-to-RoleOfTheEmployee" style="stroke:#181818;stroke-width:1.0;"/><polygon fill="#181818" points="1934,642.83,1938,633.83,1934,637.83,1930,633.83,1934,642.83" style="stroke:#181818;stroke-width:1.0;"/><text fill="#000000" font-family="sans-serif" font-size="13" lengthAdjust="spacing" textLength="6" x="1927.4844" y="633.6713">*</text></g><!--link CreateEmployeeController to Repositories--><g id="link_CreateEmployeeController_Repositories"><path codeLine="111" d="M736.31,146.5 C829.18,146.5 939.09,146.5 1023.55,146.5 " fill="none" id="CreateEmployeeController-to-Repositories" style="stroke:#181818;stroke-width:1.0;stroke-dasharray:7.0,7.0;"/><polygon fill="#181818" points="1028.32,146.5,1019.32,142.5,1023.32,146.5,1019.32,150.5,1028.32,146.5" style="stroke:#181818;stroke-width:1.0;"/><text fill="#000000" font-family="sans-serif" font-size="13" lengthAdjust="spacing" textLength="75" x="845.5" y="140.0684">repositories</text></g><!--link Repositories to RoleOfTheEmployee--><g id="link_Repositories_RoleOfTheEmployee"><path codeLine="112" d="M1288.4,179.3 C1532.36,239.24 2036,363 2036,363 C2036,363 2036,526 2036,526 C2036,526 1993.31,592.13 1963.17,638.82 " fill="none" id="Repositories-to-RoleOfTheEmployee" style="stroke:#181818;stroke-width:1.0;"/><polygon fill="#181818" points="1960.56,642.86,1968.8045,637.4722,1963.2739,638.6606,1962.0855,633.13,1960.56,642.86" style="stroke:#181818;stroke-width:1.0;"/><text fill="#000000" font-family="sans-serif" font-size="13" lengthAdjust="spacing" textLength="8" x="1955.3407" y="633.7147">1</text></g><!--link Repositories to AgencyRepository--><g id="link_Repositories_AgencyRepository"><path codeLine="113" d="M1029.83,192.29 C871.51,247.18 624,333 624,333 C624,333 247,363 247,363 C247,363 217.73,381.27 187.07,400.4 " fill="none" id="Repositories-to-AgencyRepository" style="stroke:#181818;stroke-width:1.0;"/><polygon fill="#181818" points="183.03,402.92,192.7807,401.5332,187.2676,400.2662,188.5346,394.753,183.03,402.92" style="stroke:#181818;stroke-width:1.0;"/><text fill="#000000" font-family="sans-serif" font-size="13" lengthAdjust="spacing" textLength="8" x="183.6344" y="393.3196">1</text></g><!--link Repositories to RoleRepository--><g id="link_Repositories_RoleRepository"><path codeLine="114" d="M1288.36,188.92 C1483.85,251.52 1832,363 1832,363 C1832,363 1854.76,380.97 1878.78,399.92 " fill="none" id="Repositories-to-RoleRepository" style="stroke:#181818;stroke-width:1.0;"/><polygon fill="#181818" points="1882.41,402.78,1877.8226,394.0648,1878.4849,399.6827,1872.8669,400.345,1882.41,402.78" style="stroke:#181818;stroke-width:1.0;"/><text fill="#000000" font-family="sans-serif" font-size="13" lengthAdjust="spacing" textLength="8" x="1866.59" y="393.3196">1</text></g><!--link CreateEmployeeController to AgencyRepository--><g id="link_CreateEmployeeController_AgencyRepository"><path codeLine="115" d="M359.71,277.11 C295.65,321.21 228.38,367.52 181.12,400.05 " fill="none" id="CreateEmployeeController-to-AgencyRepository" style="stroke:#181818;stroke-width:1.0;stroke-dasharray:7.0,7.0;"/><polygon fill="#181818" points="177.28,402.69,186.9625,400.8874,181.4002,399.8574,182.4303,394.2951,177.28,402.69" style="stroke:#181818;stroke-width:1.0;"/><text fill="#000000" font-family="sans-serif" font-size="13" lengthAdjust="spacing" textLength="113" x="295" y="329.5684">AgencyRepository</text></g><!--link CreateEmployeeController to EmployeeRepository--><g id="link_CreateEmployeeController_EmployeeRepository"><path codeLine="116" d="M499.67,286.4 C489.17,316.56 478.5,347.23 469.4,373.37 " fill="none" id="CreateEmployeeController-to-EmployeeRepository" style="stroke:#181818;stroke-width:1.0;stroke-dasharray:7.0,7.0;"/><polygon fill="#181818" points="467.86,377.79,474.5989,370.6076,469.5054,373.0685,467.0445,367.975,467.86,377.79" style="stroke:#181818;stroke-width:1.0;"/><text fill="#000000" font-family="sans-serif" font-size="13" lengthAdjust="spacing" textLength="127" x="488" y="329.5684">EmployeeRepository</text></g><!--link AgencyRepository to Agency--><g id="link_AgencyRepository_Agency"><path codeLine="117" d="M171.39,485.42 C226.08,526.31 311.23,589.97 370.31,634.14 " fill="none" id="AgencyRepository-to-Agency" style="stroke:#181818;stroke-width:1.0;"/><polygon fill="#181818" points="374.02,636.91,369.2003,628.321,370.0131,633.9192,364.415,634.732,374.02,636.91" style="stroke:#181818;stroke-width:1.0;"/><text fill="#000000" font-family="sans-serif" font-size="13" lengthAdjust="spacing" textLength="6" x="361.3362" y="628.7163">*</text></g><!--link EmployeeRepository to Employee--><g id="link_EmployeeRepository_Employee"><path codeLine="118" d="M544.91,509.73 C580.13,532.37 620.63,558.41 659.41,583.33 " fill="none" id="EmployeeRepository-to-Employee" style="stroke:#181818;stroke-width:1.0;"/><polygon fill="#181818" points="663.34,585.86,657.9522,577.6155,659.1406,583.1461,653.61,584.3345,663.34,585.86" style="stroke:#181818;stroke-width:1.0;"/><text fill="#000000" font-family="sans-serif" font-size="13" lengthAdjust="spacing" textLength="6" x="646.8003" y="576.1433">*</text></g><!--link CreateEmployeeController to Person--><g id="link_CreateEmployeeController_Person"><path codeLine="119" d="M736.32,267.89 C784.2,298.5 834.63,330.74 879.02,359.13 " fill="none" id="CreateEmployeeController-to-Person" style="stroke:#181818;stroke-width:1.0;stroke-dasharray:7.0,7.0;"/><polygon fill="#181818" points="883.13,361.75,877.6899,353.5399,878.9135,359.0628,873.3905,360.2864,883.13,361.75" style="stroke:#181818;stroke-width:1.0;"/><text fill="#000000" font-family="sans-serif" font-size="13" lengthAdjust="spacing" textLength="8" x="864.7793" y="352.1687">1</text></g><!--link Employee to RoleOfTheEmployee--><g id="link_Employee_RoleOfTheEmployee"><path codeLine="120" d="M996.87,685 C1241.44,685 1667.82,685 1848.83,685 " fill="none" id="Employee-RoleOfTheEmployee" style="stroke:#181818;stroke-width:1.0;"/><polygon fill="#000000" points="1414.25,673.6553,1405.2049,670.7163,1405.2049,676.5942,1414.25,673.6553" style="stroke:#000000;stroke-width:1.0;"/><text fill="#000000" font-family="sans-serif" font-size="13" lengthAdjust="spacing" textLength="22" x="1418.25" y="678.5684">has</text><text fill="#000000" font-family="sans-serif" font-size="13" lengthAdjust="spacing" textLength="6" x="1004.627" y="682.2502">*</text><text fill="#000000" font-family="sans-serif" font-size="13" lengthAdjust="spacing" textLength="8" x="1832.8883" y="681.9153">1</text></g><!--link Person to Location--><g id="link_Person_Location"><path codeLine="121" d="M1361.3,444.5 C1393.67,444.5 1425.48,444.5 1455.3,444.5 " fill="none" id="Person-Location" style="stroke:#181818;stroke-width:1.0;"/><polygon fill="#000000" points="1388.25,433.1553,1379.2049,430.2163,1379.2049,436.0942,1388.25,433.1553" style="stroke:#000000;stroke-width:1.0;"/><text fill="#000000" font-family="sans-serif" font-size="13" lengthAdjust="spacing" textLength="45" x="1392.25" y="438.0684">lives in</text><text fill="#000000" font-family="sans-serif" font-size="13" lengthAdjust="spacing" textLength="6" x="1368.4764" y="441.9149">*</text><text fill="#000000" font-family="sans-serif" font-size="13" lengthAdjust="spacing" textLength="22" x="1425.2548" y="457.3928">1..*</text></g><!--link Agency to Employee--><g id="link_Agency_Employee"><path codeLine="122" d="M498.74,685 C536.18,685 586.07,685 635.19,685 " fill="none" id="Agency-Employee" style="stroke:#181818;stroke-width:1.0;"/><polygon fill="#000000" points="532.5,673.6553,541.5451,676.5942,541.5451,670.7163,532.5,673.6553" style="stroke:#000000;stroke-width:1.0;"/><text fill="#000000" font-family="sans-serif" font-size="13" lengthAdjust="spacing" textLength="54" x="546.5" y="678.5684">works in</text><text fill="#000000" font-family="sans-serif" font-size="13" lengthAdjust="spacing" textLength="8" x="506.3412" y="681.6936">1</text><text fill="#000000" font-family="sans-serif" font-size="13" lengthAdjust="spacing" textLength="6" x="621.4355" y="682.2502">*</text></g><!--reverse link Person to Employee--><g id="link_Person_Employee"><path codeLine="124" d="M931.69,542.5 C919.74,557.12 907.41,572.2 895.45,586.82 " fill="none" id="Person-backto-Employee" style="stroke:#181818;stroke-width:1.0;"/><polygon fill="none" points="925.95,538.47,944.02,527.42,936.78,547.33,925.95,538.47" style="stroke:#181818;stroke-width:1.0;"/></g><!--SRC=[lLQnRjim4Dtv5KIMs8rieAjW632S3W62jaZIBGiZNsmY4YcGJ58bxR_t998YASbEkrH3OX-V7zyTtnrrhf-ug9bY5QsaaCL1oGgeKSz0mahDYYUsXrlJb40L58Q9VHa3z87jv2iNU_h8IXslb5o0QMgWjIoRzWivdrYKoaY2Jr4ohUcNgYvb0q3V2SLdGM-DQha5gy16N00gnilDRgT0wsIXb0KpN0eRvC9Gmtv-VQuUGDaGPYEA9gURxh_RHiaISdg3Vxl01IqKC0DUpgpWXh-1s3ArirnPeCtkHIilwxVEQ7sG0ZmmbehOTgkCMXLpGdxxrDlDRw2McXkf6fV_HYdMN7DjLktokjDf5Ux1j24zcmSABpVGz7NiYUZAezQep7woZFyhvMuppLx2LbY6a8GzbrCfh2naRHavQ7TcM9ADYyHLiUYUfhN4rUKnU_d8AppWzX3zfaim1NLfHjA_Wz9I7FUkvK5aZQuFXPqWdNBsmCSkMaXXM67ke8Je25BAf2SkdCoPFS6nd2mSStAEuQodzunAVksWmr9eem1Cgf-RPWXYPb3eDrvlvIwT03jqWkA58QHBojdNxzpQjyawgimZCwGfa2QpCfBcytP3x_IYLHGamMDN0cb5WRQbERKj5IFNOpS6Cy_cORLhtsGf4hHDcd6B1SScAa5DYala-suPjX4R11nkOcR0AEIm0yNTDD8Zr0Tz6WEEZA8O4kQUdXfJeJA-j1-EiNiH34vj4rX3P9rddDSGrll6siZR_bz7NMI4DgFPF1tWBdRqx7zSkJFlPkObCsmMpL1_1_I1gGdOWhuztXrwplUqaq0NYjTXGhJuMHJjgF19kcInJhicn-bc6uEC4bYkZngQfFSUNI3lsQUpiMPoj2MM8oL9vmvLdtsUOazH3ZPiecbKci49dIXqr9RvU9EJ11Fzcay4oMWZNrZttZF1un5_KV6bpTpU93rNz-l5T85pUc2Qhecx8prokSGF_NMHutlX2rQM2qIchCzrT288V9NgoG4zv-hN0bz5HPXf97h-0000]--></g></svg>