<?xml version="1.0" encoding="us-ascii" standalone="no"?><svg xmlns="http://www.w3.org/2000/svg" xmlns:xlink="http://www.w3.org/1999/xlink" contentStyleType="text/css" height="1405.6px" preserveAspectRatio="none" style="width:2034px;height:1405px;background:#FFFFFF;" version="1.1" viewBox="0 0 2034 1405" width="2034.9px" zoomAndPan="magnify"><defs/><g><rect fill="#FFFFFF" height="1275.765" style="stroke:#181818;stroke-width:0.6999999999999998;" width="7" x="46.55" y="65.5348"/><rect fill="#FFFFFF" height="514.5779" style="stroke:#181818;stroke-width:0.6999999999999998;" width="7" x="360.85" y="81.8385"/><rect fill="#FFFFFF" height="40.3074" style="stroke:#181818;stroke-width:0.6999999999999998;" width="7" x="360.85" y="618.3201"/><rect fill="#FFFFFF" height="21.9037" style="stroke:#181818;stroke-width:0.6999999999999998;" width="7" x="360.85" y="680.5312"/><rect fill="#FFFFFF" height="71.3111" style="stroke:#181818;stroke-width:0.6999999999999998;" width="7" x="360.85" y="724.3387"/><rect fill="#FFFFFF" height="308.5824" style="stroke:#181818;stroke-width:0.6999999999999998;" width="7" x="360.85" y="817.5535"/><rect fill="#FFFFFF" height="193.2602" style="stroke:#181818;stroke-width:0.6999999999999998;" width="7" x="360.85" y="1148.0396"/><rect fill="#FFFFFF" height="19.6" style="stroke:#181818;stroke-width:0.6999999999999998;" width="7" x="364.35" y="1273.8961"/><rect fill="#FFFFFF" height="117.7148" style="stroke:#181818;stroke-width:0.6999999999999998;" width="7" x="569.45" y="124.7422"/><rect fill="#FFFFFF" height="19.6" style="stroke:#181818;stroke-width:0.6999999999999998;" width="7" x="572.95" y="196.0533"/><rect fill="#FFFFFF" height="251.4408" style="stroke:#181818;stroke-width:0.6999999999999998;" width="7" x="569.45" y="264.3607"/><rect fill="#FFFFFF" height="21" style="stroke:#181818;stroke-width:0.6999999999999998;" width="7" x="569.45" y="875.3609"/><rect fill="#FFFFFF" height="152.4223" style="stroke:#181818;stroke-width:0.6999999999999998;" width="7" x="569.45" y="918.2646"/><rect fill="#FFFFFF" height="21" style="stroke:#181818;stroke-width:0.6999999999999998;" width="7" x="569.45" y="1169.9434"/><rect fill="#FFFFFF" height="21.9037" style="stroke:#181818;stroke-width:0.6999999999999998;" width="7" x="725.55" y="286.2645"/><rect fill="#FFFFFF" height="21.9037" style="stroke:#181818;stroke-width:0.6999999999999998;" width="7" x="815.15" y="373.8793"/><rect fill="#FFFFFF" height="21.9037" style="stroke:#181818;stroke-width:0.6999999999999998;" width="7" x="1032.85" y="330.0719"/><rect fill="#FFFFFF" height="21" style="stroke:#181818;stroke-width:0.6999999999999998;" width="7" x="1032.85" y="1027.7832"/><rect fill="#FFFFFF" height="21.9037" style="stroke:#181818;stroke-width:0.6999999999999998;" width="7" x="1482.95" y="940.1684"/><rect fill="#FFFFFF" height="21.9037" style="stroke:#181818;stroke-width:0.6999999999999998;" width="7" x="1596.35" y="983.9758"/><rect fill="#FFFFFF" height="21.9037" style="stroke:#181818;stroke-width:0.6999999999999998;" width="7" x="1734.6" y="436.0904"/><rect fill="#FFFFFF" height="21.9037" style="stroke:#181818;stroke-width:0.6999999999999998;" width="7" x="1993.95" y="146.6459"/><rect fill="none" height="88.3148" style="stroke:#000000;stroke-width:1.0499999999999998;" width="1331.4" x="488.6" y="406.283"/><rect fill="none" height="809.3982" style="stroke:#000000;stroke-width:1.0499999999999998;" width="1670.2" x="7" y="526.3016"/><rect fill="none" height="786.0945" style="stroke:#000000;stroke-width:1.0499999999999998;" width="1656.2" x="14" y="544.7053"/><rect fill="none" height="697.0797" style="stroke:#000000;stroke-width:1.0499999999999998;" width="1642.2" x="21" y="628.8201"/><rect fill="none" height="88.3148" style="stroke:#000000;stroke-width:1.0499999999999998;" width="423.15" x="28" y="765.8424"/><line style="stroke:#181818;stroke-width:0.3499999999999999;stroke-dasharray:5.0,5.0;" x1="49.7" x2="49.7" y1="58.5348" y2="1347.5998"/><line style="stroke:#181818;stroke-width:0.3499999999999999;stroke-dasharray:5.0,5.0;" x1="364" x2="364" y1="58.5348" y2="1347.5998"/><line style="stroke:#181818;stroke-width:0.3499999999999999;stroke-dasharray:5.0,5.0;" x1="572.6" x2="572.6" y1="58.5348" y2="1347.5998"/><line style="stroke:#181818;stroke-width:0.3499999999999999;stroke-dasharray:5.0,5.0;" x1="728.7" x2="728.7" y1="58.5348" y2="1347.5998"/><line style="stroke:#181818;stroke-width:0.3499999999999999;stroke-dasharray:5.0,5.0;" x1="818.3" x2="818.3" y1="58.5348" y2="1347.5998"/><line style="stroke:#181818;stroke-width:0.3499999999999999;stroke-dasharray:5.0,5.0;" x1="919.8" x2="919.8" y1="58.5348" y2="1347.5998"/><line style="stroke:#181818;stroke-width:0.3499999999999999;stroke-dasharray:5.0,5.0;" x1="1036" x2="1036" y1="58.5348" y2="1347.5998"/><line style="stroke:#181818;stroke-width:0.3499999999999999;stroke-dasharray:5.0,5.0;" x1="1145.9" x2="1145.9" y1="58.5348" y2="1347.5998"/><line style="stroke:#181818;stroke-width:0.3499999999999999;stroke-dasharray:5.0,5.0;" x1="1486.1" x2="1486.1" y1="58.5348" y2="1347.5998"/><line style="stroke:#181818;stroke-width:0.3499999999999999;stroke-dasharray:5.0,5.0;" x1="1599.5" x2="1599.5" y1="58.5348" y2="1347.5998"/><line style="stroke:#181818;stroke-width:0.3499999999999999;stroke-dasharray:5.0,5.0;" x1="1738.1" x2="1738.1" y1="58.5348" y2="1347.5998"/><line style="stroke:#181818;stroke-width:0.3499999999999999;stroke-dasharray:5.0,5.0;" x1="1888.6" x2="1888.6" y1="58.5348" y2="1347.5998"/><line style="stroke:#181818;stroke-width:0.3499999999999999;stroke-dasharray:5.0,5.0;" x1="1997.1" x2="1997.1" y1="58.5348" y2="1347.5998"/><text fill="#000000" font-family="sans-serif" font-size="9.8" lengthAdjust="spacing" textLength="25.9" x="35" y="56.0752">Agent</text><ellipse cx="50.05" cy="9.45" fill="#E2E2F0" rx="5.6" ry="5.6" style="stroke:#181818;stroke-width:0.3499999999999999;"/><path d="M50.05,15.05 L50.05,33.95 M40.95,20.65 L59.15,20.65 M50.05,33.95 L40.95,44.45 M50.05,33.95 L59.15,44.45 " fill="none" style="stroke:#181818;stroke-width:0.3499999999999999;"/><text fill="#000000" font-family="sans-serif" font-size="9.8" lengthAdjust="spacing" textLength="25.9" x="35" y="1357.475">Agent</text><ellipse cx="50.05" cy="1365.8846" fill="#E2E2F0" rx="5.6" ry="5.6" style="stroke:#181818;stroke-width:0.3499999999999999;"/><path d="M50.05,1371.4846 L50.05,1390.3846 M40.95,1377.0846 L59.15,1377.0846 M50.05,1390.3846 L40.95,1400.8846 M50.05,1390.3846 L59.15,1400.8846 " fill="none" style="stroke:#181818;stroke-width:0.3499999999999999;"/><rect fill="#E2E2F0" height="22.8348" rx="1.75" ry="1.75" style="stroke:#181818;stroke-width:0.3499999999999999;" width="119.7" x="304.5" y="35"/><text fill="#000000" font-family="sans-serif" font-size="9.8" lengthAdjust="spacing" textLength="109.9" x="309.4" y="50.4752">:PublishAnnouncementUI</text><rect fill="#E2E2F0" height="22.8348" rx="1.75" ry="1.75" style="stroke:#181818;stroke-width:0.3499999999999999;" width="119.7" x="304.5" y="1346.8998"/><text fill="#000000" font-family="sans-serif" font-size="9.8" lengthAdjust="spacing" textLength="109.9" x="309.4" y="1362.375">:PublishAnnouncementUI</text><rect fill="#E2E2F0" height="22.8348" rx="1.75" ry="1.75" style="stroke:#181818;stroke-width:0.3499999999999999;" width="154.7" x="495.6" y="35"/><text fill="#000000" font-family="sans-serif" font-size="9.8" lengthAdjust="spacing" textLength="144.9" x="500.5" y="50.4752">:PublishAnnouncementController</text><rect fill="#E2E2F0" height="22.8348" rx="1.75" ry="1.75" style="stroke:#181818;stroke-width:0.3499999999999999;" width="154.7" x="495.6" y="1346.8998"/><text fill="#000000" font-family="sans-serif" font-size="9.8" lengthAdjust="spacing" textLength="144.9" x="500.5" y="1362.375">:PublishAnnouncementController</text><rect fill="#E2E2F0" height="22.8348" rx="1.75" ry="1.75" style="stroke:#181818;stroke-width:0.3499999999999999;" width="67.9" x="695.1" y="35"/><text fill="#000000" font-family="sans-serif" font-size="9.8" lengthAdjust="spacing" textLength="58.1" x="700" y="50.4752">:Repositories</text><rect fill="#E2E2F0" height="22.8348" rx="1.75" ry="1.75" style="stroke:#181818;stroke-width:0.3499999999999999;" width="67.9" x="695.1" y="1346.8998"/><text fill="#000000" font-family="sans-serif" font-size="9.8" lengthAdjust="spacing" textLength="58.1" x="700" y="1362.375">:Repositories</text><rect fill="#E2E2F0" height="22.8348" rx="1.75" ry="1.75" style="stroke:#181818;stroke-width:0.3499999999999999;" width="97.3" x="770" y="35"/><text fill="#000000" font-family="sans-serif" font-size="9.8" lengthAdjust="spacing" textLength="87.5" x="774.9" y="50.4752">:RequestRepository</text><rect fill="#E2E2F0" height="22.8348" rx="1.75" ry="1.75" style="stroke:#181818;stroke-width:0.3499999999999999;" width="97.3" x="770" y="1346.8998"/><text fill="#000000" font-family="sans-serif" font-size="9.8" lengthAdjust="spacing" textLength="87.5" x="774.9" y="1362.375">:RequestRepository</text><rect fill="#E2E2F0" height="22.8348" rx="1.75" ry="1.75" style="stroke:#181818;stroke-width:0.3499999999999999;" width="91.7" x="874.3" y="35"/><text fill="#000000" font-family="sans-serif" font-size="9.8" lengthAdjust="spacing" textLength="81.9" x="879.2" y="50.4752">:PersonRepository</text><rect fill="#E2E2F0" height="22.8348" rx="1.75" ry="1.75" style="stroke:#181818;stroke-width:0.3499999999999999;" width="91.7" x="874.3" y="1346.8998"/><text fill="#000000" font-family="sans-serif" font-size="9.8" lengthAdjust="spacing" textLength="81.9" x="879.2" y="1362.375">:PersonRepository</text><rect fill="#E2E2F0" height="22.8348" rx="1.75" ry="1.75" style="stroke:#181818;stroke-width:0.3499999999999999;" width="126.7" x="973" y="35"/><text fill="#000000" font-family="sans-serif" font-size="9.8" lengthAdjust="spacing" textLength="116.9" x="977.9" y="50.4752">:AnnouncementRepository</text><rect fill="#E2E2F0" height="22.8348" rx="1.75" ry="1.75" style="stroke:#181818;stroke-width:0.3499999999999999;" width="126.7" x="973" y="1346.8998"/><text fill="#000000" font-family="sans-serif" font-size="9.8" lengthAdjust="spacing" textLength="116.9" x="977.9" y="1362.375">:AnnouncementRepository</text><rect fill="#E2E2F0" height="22.8348" rx="1.75" ry="1.75" style="stroke:#181818;stroke-width:0.3499999999999999;" width="79.1" x="1106.7" y="35"/><text fill="#000000" font-family="sans-serif" font-size="9.8" lengthAdjust="spacing" textLength="69.3" x="1111.6" y="50.4752">:Announcement</text><rect fill="#E2E2F0" height="22.8348" rx="1.75" ry="1.75" style="stroke:#181818;stroke-width:0.3499999999999999;" width="79.1" x="1106.7" y="1346.8998"/><text fill="#000000" font-family="sans-serif" font-size="9.8" lengthAdjust="spacing" textLength="69.3" x="1111.6" y="1362.375">:Announcement</text><rect fill="#E2E2F0" height="22.8348" rx="1.75" ry="1.75" style="stroke:#181818;stroke-width:0.3499999999999999;" width="100.1" x="1436.4" y="35"/><text fill="#000000" font-family="sans-serif" font-size="9.8" lengthAdjust="spacing" textLength="90.3" x="1441.3" y="50.4752">:AnnouncementDTO</text><rect fill="#E2E2F0" height="22.8348" rx="1.75" ry="1.75" style="stroke:#181818;stroke-width:0.3499999999999999;" width="100.1" x="1436.4" y="1346.8998"/><text fill="#000000" font-family="sans-serif" font-size="9.8" lengthAdjust="spacing" textLength="90.3" x="1441.3" y="1362.375">:AnnouncementDTO</text><rect fill="#E2E2F0" height="22.8348" rx="1.75" ry="1.75" style="stroke:#181818;stroke-width:0.3499999999999999;" width="112.7" x="1543.5" y="35"/><text fill="#000000" font-family="sans-serif" font-size="9.8" lengthAdjust="spacing" textLength="102.9" x="1548.4" y="50.4752">:AnnouncementMapper</text><rect fill="#E2E2F0" height="22.8348" rx="1.75" ry="1.75" style="stroke:#181818;stroke-width:0.3499999999999999;" width="112.7" x="1543.5" y="1346.8998"/><text fill="#000000" font-family="sans-serif" font-size="9.8" lengthAdjust="spacing" textLength="102.9" x="1548.4" y="1362.375">:AnnouncementMapper</text><rect fill="#E2E2F0" height="22.8348" rx="1.75" ry="1.75" style="stroke:#181818;stroke-width:0.3499999999999999;" width="149.8" x="1663.2" y="35"/><text fill="#000000" font-family="sans-serif" font-size="9.8" lengthAdjust="spacing" textLength="140" x="1668.1" y="50.4752">:AnnouncementRequestMapper</text><rect fill="#E2E2F0" height="22.8348" rx="1.75" ry="1.75" style="stroke:#181818;stroke-width:0.3499999999999999;" width="149.8" x="1663.2" y="1346.8998"/><text fill="#000000" font-family="sans-serif" font-size="9.8" lengthAdjust="spacing" textLength="140" x="1668.1" y="1362.375">:AnnouncementRequestMapper</text><rect fill="#E2E2F0" height="22.8348" rx="1.75" ry="1.75" style="stroke:#181818;stroke-width:0.3499999999999999;" width="137.2" x="1820" y="35"/><text fill="#000000" font-family="sans-serif" font-size="9.8" lengthAdjust="spacing" textLength="127.4" x="1824.9" y="50.4752">:AnnouncementRequestDTO</text><rect fill="#E2E2F0" height="22.8348" rx="1.75" ry="1.75" style="stroke:#181818;stroke-width:0.3499999999999999;" width="137.2" x="1820" y="1346.8998"/><text fill="#000000" font-family="sans-serif" font-size="9.8" lengthAdjust="spacing" textLength="127.4" x="1824.9" y="1362.375">:AnnouncementRequestDTO</text><rect fill="#E2E2F0" height="22.8348" rx="1.75" ry="1.75" style="stroke:#181818;stroke-width:0.3499999999999999;" width="66.5" x="1964.2" y="35"/><text fill="#000000" font-family="sans-serif" font-size="9.8" lengthAdjust="spacing" textLength="56.7" x="1969.1" y="50.4752">:CurrentUser</text><rect fill="#E2E2F0" height="22.8348" rx="1.75" ry="1.75" style="stroke:#181818;stroke-width:0.3499999999999999;" width="66.5" x="1964.2" y="1346.8998"/><text fill="#000000" font-family="sans-serif" font-size="9.8" lengthAdjust="spacing" textLength="56.7" x="1969.1" y="1362.375">:CurrentUser</text><rect fill="#FFFFFF" height="1275.765" style="stroke:#181818;stroke-width:0.6999999999999998;" width="7" x="46.55" y="65.5348"/><rect fill="#FFFFFF" height="514.5779" style="stroke:#181818;stroke-width:0.6999999999999998;" width="7" x="360.85" y="81.8385"/><rect fill="#FFFFFF" height="40.3074" style="stroke:#181818;stroke-width:0.6999999999999998;" width="7" x="360.85" y="618.3201"/><rect fill="#FFFFFF" height="21.9037" style="stroke:#181818;stroke-width:0.6999999999999998;" width="7" x="360.85" y="680.5312"/><rect fill="#FFFFFF" height="71.3111" style="stroke:#181818;stroke-width:0.6999999999999998;" width="7" x="360.85" y="724.3387"/><rect fill="#FFFFFF" height="308.5824" style="stroke:#181818;stroke-width:0.6999999999999998;" width="7" x="360.85" y="817.5535"/><rect fill="#FFFFFF" height="193.2602" style="stroke:#181818;stroke-width:0.6999999999999998;" width="7" x="360.85" y="1148.0396"/><rect fill="#FFFFFF" height="19.6" style="stroke:#181818;stroke-width:0.6999999999999998;" width="7" x="364.35" y="1273.8961"/><rect fill="#FFFFFF" height="117.7148" style="stroke:#181818;stroke-width:0.6999999999999998;" width="7" x="569.45" y="124.7422"/><rect fill="#FFFFFF" height="19.6" style="stroke:#181818;stroke-width:0.6999999999999998;" width="7" x="572.95" y="196.0533"/><rect fill="#FFFFFF" height="251.4408" style="stroke:#181818;stroke-width:0.6999999999999998;" width="7" x="569.45" y="264.3607"/><rect fill="#FFFFFF" height="21" style="stroke:#181818;stroke-width:0.6999999999999998;" width="7" x="569.45" y="875.3609"/><rect fill="#FFFFFF" height="152.4223" style="stroke:#181818;stroke-width:0.6999999999999998;" width="7" x="569.45" y="918.2646"/><rect fill="#FFFFFF" height="21" style="stroke:#181818;stroke-width:0.6999999999999998;" width="7" x="569.45" y="1169.9434"/><rect fill="#FFFFFF" height="21.9037" style="stroke:#181818;stroke-width:0.6999999999999998;" width="7" x="725.55" y="286.2645"/><rect fill="#FFFFFF" height="21.9037" style="stroke:#181818;stroke-width:0.6999999999999998;" width="7" x="815.15" y="373.8793"/><rect fill="#FFFFFF" height="21.9037" style="stroke:#181818;stroke-width:0.6999999999999998;" width="7" x="1032.85" y="330.0719"/><rect fill="#FFFFFF" height="21" style="stroke:#181818;stroke-width:0.6999999999999998;" width="7" x="1032.85" y="1027.7832"/><rect fill="#FFFFFF" height="21.9037" style="stroke:#181818;stroke-width:0.6999999999999998;" width="7" x="1482.95" y="940.1684"/><rect fill="#FFFFFF" height="21.9037" style="stroke:#181818;stroke-width:0.6999999999999998;" width="7" x="1596.35" y="983.9758"/><rect fill="#FFFFFF" height="21.9037" style="stroke:#181818;stroke-width:0.6999999999999998;" width="7" x="1734.6" y="436.0904"/><rect fill="#FFFFFF" height="21.9037" style="stroke:#181818;stroke-width:0.6999999999999998;" width="7" x="1993.95" y="146.6459"/><polygon fill="#181818" points="352.45,79.0385,359.45,81.8385,352.45,84.6385,355.25,81.8385" style="stroke:#181818;stroke-width:0.6999999999999998;"/><line style="stroke:#181818;stroke-width:0.6999999999999998;" x1="53.55" x2="356.65" y1="81.8385" y2="81.8385"/><text fill="#000000" font-family="sans-serif" font-size="9.1" font-weight="bold" lengthAdjust="spacing" textLength="4.9" x="58.45" y="78.1546">1</text><text fill="#000000" font-family="sans-serif" font-size="9.1" lengthAdjust="spacing" textLength="154" x="66.15" y="78.1546">asks to review advertisement requests</text><polygon fill="#181818" points="561.05,121.9422,568.05,124.7422,561.05,127.5422,563.85,124.7422" style="stroke:#181818;stroke-width:0.6999999999999998;"/><line style="stroke:#181818;stroke-width:0.6999999999999998;" x1="367.85" x2="565.25" y1="124.7422" y2="124.7422"/><text fill="#000000" font-family="sans-serif" font-size="9.1" font-weight="bold" lengthAdjust="spacing" textLength="4.9" x="372.75" y="121.0583">2</text><text fill="#000000" font-family="sans-serif" font-size="9.1" lengthAdjust="spacing" textLength="65.1" x="380.45" y="121.0583">getAgentEmail()</text><polygon fill="#181818" points="1985.55,143.8459,1992.55,146.6459,1985.55,149.4459,1988.35,146.6459" style="stroke:#181818;stroke-width:0.6999999999999998;"/><line style="stroke:#181818;stroke-width:0.6999999999999998;" x1="576.45" x2="1989.75" y1="146.6459" y2="146.6459"/><text fill="#000000" font-family="sans-serif" font-size="9.1" font-weight="bold" lengthAdjust="spacing" textLength="4.9" x="581.35" y="142.962">3</text><text fill="#000000" font-family="sans-serif" font-size="9.1" lengthAdjust="spacing" textLength="41.3" x="589.05" y="142.962">getEmail()</text><polygon fill="#181818" points="584.15,165.7496,577.15,168.5496,584.15,171.3496,581.35,168.5496" style="stroke:#181818;stroke-width:0.6999999999999998;"/><line style="stroke:#181818;stroke-width:0.6999999999999998;stroke-dasharray:2.0,2.0;" x1="579.95" x2="1996.75" y1="168.5496" y2="168.5496"/><text fill="#000000" font-family="sans-serif" font-size="9.1" font-weight="bold" lengthAdjust="spacing" textLength="4.9" x="588.35" y="164.8657">4</text><text fill="#000000" font-family="sans-serif" font-size="9.1" lengthAdjust="spacing" textLength="21.7" x="596.05" y="164.8657">email</text><line style="stroke:#181818;stroke-width:0.6999999999999998;" x1="579.95" x2="609.35" y1="190.4533" y2="190.4533"/><line style="stroke:#181818;stroke-width:0.6999999999999998;" x1="609.35" x2="609.35" y1="190.4533" y2="199.5533"/><line style="stroke:#181818;stroke-width:0.6999999999999998;" x1="580.65" x2="609.35" y1="199.5533" y2="199.5533"/><polygon fill="#181818" points="587.65,196.7533,580.65,199.5533,587.65,202.3533,584.85,199.5533" style="stroke:#181818;stroke-width:0.6999999999999998;"/><text fill="#000000" font-family="sans-serif" font-size="9.1" font-weight="bold" lengthAdjust="spacing" textLength="4.9" x="584.85" y="186.7694">5</text><text fill="#000000" font-family="sans-serif" font-size="9.1" lengthAdjust="spacing" textLength="47.6" x="592.55" y="186.7694">saves email</text><polygon fill="#181818" points="375.55,239.657,368.55,242.457,375.55,245.257,372.75,242.457" style="stroke:#181818;stroke-width:0.6999999999999998;"/><line style="stroke:#181818;stroke-width:0.6999999999999998;stroke-dasharray:2.0,2.0;" x1="371.35" x2="572.25" y1="242.457" y2="242.457"/><text fill="#000000" font-family="sans-serif" font-size="9.1" font-weight="bold" lengthAdjust="spacing" textLength="4.9" x="379.75" y="238.7731">6</text><text fill="#000000" font-family="sans-serif" font-size="9.1" lengthAdjust="spacing" textLength="21.7" x="387.45" y="238.7731">email</text><polygon fill="#181818" points="561.05,261.5607,568.05,264.3607,561.05,267.1607,563.85,264.3607" style="stroke:#181818;stroke-width:0.6999999999999998;"/><line style="stroke:#181818;stroke-width:0.6999999999999998;" x1="367.85" x2="565.25" y1="264.3607" y2="264.3607"/><text fill="#000000" font-family="sans-serif" font-size="9.1" font-weight="bold" lengthAdjust="spacing" textLength="4.9" x="372.75" y="260.6769">7</text><text fill="#000000" font-family="sans-serif" font-size="9.1" lengthAdjust="spacing" textLength="97.3" x="380.45" y="260.6769">createRequestListDTO()</text><polygon fill="#181818" points="717.15,283.4645,724.15,286.2645,717.15,289.0645,719.95,286.2645" style="stroke:#181818;stroke-width:0.6999999999999998;"/><line style="stroke:#181818;stroke-width:0.6999999999999998;" x1="576.45" x2="721.35" y1="286.2645" y2="286.2645"/><text fill="#000000" font-family="sans-serif" font-size="9.1" font-weight="bold" lengthAdjust="spacing" textLength="4.9" x="581.35" y="282.5806">8</text><text fill="#000000" font-family="sans-serif" font-size="9.1" lengthAdjust="spacing" textLength="95.2" x="589.05" y="282.5806">getRequestRepository()</text><polygon fill="#181818" points="584.15,305.3682,577.15,308.1682,584.15,310.9682,581.35,308.1682" style="stroke:#181818;stroke-width:0.6999999999999998;"/><line style="stroke:#181818;stroke-width:0.6999999999999998;stroke-dasharray:2.0,2.0;" x1="579.95" x2="728.35" y1="308.1682" y2="308.1682"/><text fill="#000000" font-family="sans-serif" font-size="9.1" font-weight="bold" lengthAdjust="spacing" textLength="4.9" x="588.35" y="304.4843">9</text><text fill="#000000" font-family="sans-serif" font-size="9.1" lengthAdjust="spacing" textLength="77" x="596.05" y="304.4843">RequestRepository</text><polygon fill="#181818" points="1024.45,327.2719,1031.45,330.0719,1024.45,332.8719,1027.25,330.0719" style="stroke:#181818;stroke-width:0.6999999999999998;"/><line style="stroke:#181818;stroke-width:0.6999999999999998;" x1="576.45" x2="1028.65" y1="330.0719" y2="330.0719"/><text fill="#000000" font-family="sans-serif" font-size="9.1" font-weight="bold" lengthAdjust="spacing" textLength="9.8" x="581.35" y="326.388">10</text><text fill="#000000" font-family="sans-serif" font-size="9.1" lengthAdjust="spacing" textLength="122.5" x="593.95" y="326.388">getAnnouncementRepository()</text><polygon fill="#181818" points="584.15,349.1756,577.15,351.9756,584.15,354.7756,581.35,351.9756" style="stroke:#181818;stroke-width:0.6999999999999998;"/><line style="stroke:#181818;stroke-width:0.6999999999999998;stroke-dasharray:2.0,2.0;" x1="579.95" x2="1035.65" y1="351.9756" y2="351.9756"/><text fill="#000000" font-family="sans-serif" font-size="9.1" font-weight="bold" lengthAdjust="spacing" textLength="9.8" x="588.35" y="348.2917">11</text><text fill="#000000" font-family="sans-serif" font-size="9.1" lengthAdjust="spacing" textLength="104.3" x="600.95" y="348.2917">AnnouncementRepository</text><polygon fill="#181818" points="806.75,371.0793,813.75,373.8793,806.75,376.6793,809.55,373.8793" style="stroke:#181818;stroke-width:0.6999999999999998;"/><line style="stroke:#181818;stroke-width:0.6999999999999998;" x1="576.45" x2="810.95" y1="373.8793" y2="373.8793"/><text fill="#000000" font-family="sans-serif" font-size="9.1" font-weight="bold" lengthAdjust="spacing" textLength="9.8" x="581.35" y="370.1954">12</text><text fill="#000000" font-family="sans-serif" font-size="9.1" lengthAdjust="spacing" textLength="56.7" x="593.95" y="370.1954">getRequests()</text><polygon fill="#181818" points="584.15,392.983,577.15,395.783,584.15,398.583,581.35,395.783" style="stroke:#181818;stroke-width:0.6999999999999998;"/><line style="stroke:#181818;stroke-width:0.6999999999999998;stroke-dasharray:2.0,2.0;" x1="579.95" x2="817.95" y1="395.783" y2="395.783"/><text fill="#000000" font-family="sans-serif" font-size="9.1" font-weight="bold" lengthAdjust="spacing" textLength="9.8" x="588.35" y="392.0991">13</text><text fill="#000000" font-family="sans-serif" font-size="9.1" lengthAdjust="spacing" textLength="158.2" x="600.95" y="392.0991">List&lt;AnnouncementRequest&gt; requests</text><path d="M488.6,406.283 L539.7,406.283 L539.7,412.7867 L532.7,419.7867 L488.6,419.7867 L488.6,406.283 " fill="#EEEEEE" style="stroke:#000000;stroke-width:1.0499999999999998;"/><rect fill="none" height="88.3148" style="stroke:#000000;stroke-width:1.0499999999999998;" width="1331.4" x="488.6" y="406.283"/><text fill="#000000" font-family="sans-serif" font-size="9.1" font-weight="bold" lengthAdjust="spacing" textLength="19.6" x="499.1" y="416.8028">loop</text><text fill="#000000" font-family="sans-serif" font-size="7.7" font-weight="bold" lengthAdjust="spacing" textLength="209.3" x="550.2" y="415.9921">[foreach (AnnouncementRequest request : requests)]</text><polygon fill="#181818" points="1726.2,433.2904,1733.2,436.0904,1726.2,438.8904,1729,436.0904" style="stroke:#181818;stroke-width:0.6999999999999998;"/><line style="stroke:#181818;stroke-width:0.6999999999999998;" x1="576.45" x2="1730.4" y1="436.0904" y2="436.0904"/><text fill="#000000" font-family="sans-serif" font-size="9.1" font-weight="bold" lengthAdjust="spacing" textLength="9.8" x="581.35" y="432.4065">14</text><text fill="#000000" font-family="sans-serif" font-size="9.1" lengthAdjust="spacing" textLength="64.4" x="593.95" y="432.4065">toDTO (request)</text><polygon fill="#181818" points="584.15,455.1941,577.15,457.9941,584.15,460.7941,581.35,457.9941" style="stroke:#181818;stroke-width:0.6999999999999998;"/><line style="stroke:#181818;stroke-width:0.6999999999999998;stroke-dasharray:2.0,2.0;" x1="579.95" x2="1737.4" y1="457.9941" y2="457.9941"/><text fill="#000000" font-family="sans-serif" font-size="9.1" font-weight="bold" lengthAdjust="spacing" textLength="9.8" x="588.35" y="454.3103">15</text><text fill="#000000" font-family="sans-serif" font-size="9.1" lengthAdjust="spacing" textLength="48.3" x="600.95" y="454.3103">requestDTO</text><line style="stroke:#181818;stroke-width:0.6999999999999998;" x1="576.45" x2="605.85" y1="479.8979" y2="479.8979"/><line style="stroke:#181818;stroke-width:0.6999999999999998;" x1="605.85" x2="605.85" y1="479.8979" y2="488.9979"/><line style="stroke:#181818;stroke-width:0.6999999999999998;" x1="577.15" x2="605.85" y1="488.9979" y2="488.9979"/><polygon fill="#181818" points="584.15,486.1979,577.15,488.9979,584.15,491.7979,581.35,488.9979" style="stroke:#181818;stroke-width:0.6999999999999998;"/><text fill="#000000" font-family="sans-serif" font-size="9.1" font-weight="bold" lengthAdjust="spacing" textLength="9.8" x="581.35" y="476.214">16</text><text fill="#000000" font-family="sans-serif" font-size="9.1" lengthAdjust="spacing" textLength="126.7" x="593.95" y="476.214">addToRequestListDTO(request)</text><polygon fill="#181818" points="375.55,513.0016,368.55,515.8016,375.55,518.6016,372.75,515.8016" style="stroke:#181818;stroke-width:0.6999999999999998;"/><line style="stroke:#181818;stroke-width:0.6999999999999998;stroke-dasharray:2.0,2.0;" x1="371.35" x2="572.25" y1="515.8016" y2="515.8016"/><text fill="#000000" font-family="sans-serif" font-size="9.1" font-weight="bold" lengthAdjust="spacing" textLength="9.8" x="379.75" y="512.1177">17</text><text fill="#000000" font-family="sans-serif" font-size="9.1" lengthAdjust="spacing" textLength="63" x="392.35" y="512.1177">requestListDTO</text><path d="M7,526.3016 L58.1,526.3016 L58.1,532.8053 L51.1,539.8053 L7,539.8053 L7,526.3016 " fill="#EEEEEE" style="stroke:#000000;stroke-width:1.0499999999999998;"/><rect fill="none" height="809.3982" style="stroke:#000000;stroke-width:1.0499999999999998;" width="1670.2" x="7" y="526.3016"/><text fill="#000000" font-family="sans-serif" font-size="9.1" font-weight="bold" lengthAdjust="spacing" textLength="19.6" x="17.5" y="536.8214">loop</text><text fill="#000000" font-family="sans-serif" font-size="7.7" font-weight="bold" lengthAdjust="spacing" textLength="192.5" x="68.6" y="536.0106">[while (requestListDTO.size() &gt; 0 &amp;&amp; exit == false)]</text><path d="M14,544.7053 L59.5,544.7053 L59.5,551.209 L52.5,558.209 L14,558.209 L14,544.7053 " fill="#EEEEEE" style="stroke:#000000;stroke-width:1.0499999999999998;"/><rect fill="none" height="786.0945" style="stroke:#000000;stroke-width:1.0499999999999998;" width="1656.2" x="14" y="544.7053"/><text fill="#000000" font-family="sans-serif" font-size="9.1" font-weight="bold" lengthAdjust="spacing" textLength="14" x="24.5" y="555.2251">opt</text><text fill="#000000" font-family="sans-serif" font-size="7.7" font-weight="bold" lengthAdjust="spacing" textLength="182" x="70" y="554.4144">[if (requestDTO.getAgent().getEmail() == email)]</text><polygon fill="#181818" points="61.25,571.7127,54.25,574.5127,61.25,577.3127,58.45,574.5127" style="stroke:#181818;stroke-width:0.6999999999999998;"/><line style="stroke:#181818;stroke-width:0.6999999999999998;stroke-dasharray:2.0,2.0;" x1="57.05" x2="360.15" y1="574.5127" y2="574.5127"/><text fill="#000000" font-family="sans-serif" font-size="9.1" font-weight="bold" lengthAdjust="spacing" textLength="9.8" x="65.45" y="570.8288">18</text><text fill="#000000" font-family="sans-serif" font-size="9.1" lengthAdjust="spacing" textLength="62.3" x="78.05" y="570.8288">shows Request</text><polygon fill="#181818" points="61.25,593.6164,54.25,596.4164,61.25,599.2164,58.45,596.4164" style="stroke:#181818;stroke-width:0.6999999999999998;"/><line style="stroke:#181818;stroke-width:0.6999999999999998;stroke-dasharray:2.0,2.0;" x1="57.05" x2="363.65" y1="596.4164" y2="596.4164"/><text fill="#000000" font-family="sans-serif" font-size="9.1" font-weight="bold" lengthAdjust="spacing" textLength="9.8" x="65.45" y="592.7325">19</text><text fill="#000000" font-family="sans-serif" font-size="9.1" lengthAdjust="spacing" textLength="277.9" x="78.05" y="592.7325">asks if the agent wants to accept/decline the request or to leave loop</text><polygon fill="#181818" points="352.45,615.5201,359.45,618.3201,352.45,621.1201,355.25,618.3201" style="stroke:#181818;stroke-width:0.6999999999999998;"/><line style="stroke:#181818;stroke-width:0.6999999999999998;" x1="53.55" x2="356.65" y1="618.3201" y2="618.3201"/><text fill="#000000" font-family="sans-serif" font-size="9.1" font-weight="bold" lengthAdjust="spacing" textLength="9.8" x="58.45" y="614.6362">20</text><text fill="#000000" font-family="sans-serif" font-size="9.1" lengthAdjust="spacing" textLength="53.9" x="71.05" y="614.6362">inputs choice</text><path d="M21,628.8201 L63.7,628.8201 L63.7,635.3238 L56.7,642.3238 L21,642.3238 L21,628.8201 " fill="#EEEEEE" style="stroke:#000000;stroke-width:1.0499999999999998;"/><rect fill="none" height="697.0797" style="stroke:#000000;stroke-width:1.0499999999999998;" width="1642.2" x="21" y="628.8201"/><text fill="#000000" font-family="sans-serif" font-size="9.1" font-weight="bold" lengthAdjust="spacing" textLength="11.2" x="31.5" y="639.3399">alt</text><text fill="#000000" font-family="sans-serif" font-size="7.7" font-weight="bold" lengthAdjust="spacing" textLength="108.5" x="74.2" y="638.5292">[Agent accepts the request]</text><polygon fill="#181818" points="61.25,655.8275,54.25,658.6275,61.25,661.4275,58.45,658.6275" style="stroke:#181818;stroke-width:0.6999999999999998;"/><line style="stroke:#181818;stroke-width:0.6999999999999998;stroke-dasharray:2.0,2.0;" x1="57.05" x2="363.65" y1="658.6275" y2="658.6275"/><text fill="#000000" font-family="sans-serif" font-size="9.1" font-weight="bold" lengthAdjust="spacing" textLength="9.8" x="65.45" y="654.9437">21</text><text fill="#000000" font-family="sans-serif" font-size="9.1" lengthAdjust="spacing" textLength="179.2" x="78.05" y="654.9437">asks if commission is in percentage or value</text><polygon fill="#181818" points="352.45,677.7312,359.45,680.5312,352.45,683.3312,355.25,680.5312" style="stroke:#181818;stroke-width:0.6999999999999998;"/><line style="stroke:#181818;stroke-width:0.6999999999999998;" x1="53.55" x2="356.65" y1="680.5312" y2="680.5312"/><text fill="#000000" font-family="sans-serif" font-size="9.1" font-weight="bold" lengthAdjust="spacing" textLength="9.8" x="58.45" y="676.8474">22</text><text fill="#000000" font-family="sans-serif" font-size="9.1" lengthAdjust="spacing" textLength="51.8" x="71.05" y="676.8474">inputs option</text><polygon fill="#181818" points="61.25,699.635,54.25,702.435,61.25,705.235,58.45,702.435" style="stroke:#181818;stroke-width:0.6999999999999998;"/><line style="stroke:#181818;stroke-width:0.6999999999999998;stroke-dasharray:2.0,2.0;" x1="57.05" x2="363.65" y1="702.435" y2="702.435"/><text fill="#000000" font-family="sans-serif" font-size="9.1" font-weight="bold" lengthAdjust="spacing" textLength="9.8" x="65.45" y="698.7511">23</text><text fill="#000000" font-family="sans-serif" font-size="9.1" lengthAdjust="spacing" textLength="104.3" x="78.05" y="698.7511">asks to input commission</text><polygon fill="#181818" points="352.45,721.5387,359.45,724.3387,352.45,727.1387,355.25,724.3387" style="stroke:#181818;stroke-width:0.6999999999999998;"/><line style="stroke:#181818;stroke-width:0.6999999999999998;" x1="53.55" x2="356.65" y1="724.3387" y2="724.3387"/><text fill="#000000" font-family="sans-serif" font-size="9.1" font-weight="bold" lengthAdjust="spacing" textLength="9.8" x="58.45" y="720.6548">24</text><text fill="#000000" font-family="sans-serif" font-size="9.1" lengthAdjust="spacing" textLength="76.3" x="71.05" y="720.6548">inputs commission</text><line style="stroke:#181818;stroke-width:0.6999999999999998;" x1="367.85" x2="397.25" y1="746.2424" y2="746.2424"/><line style="stroke:#181818;stroke-width:0.6999999999999998;" x1="397.25" x2="397.25" y1="746.2424" y2="755.3424"/><line style="stroke:#181818;stroke-width:0.6999999999999998;" x1="368.55" x2="397.25" y1="755.3424" y2="755.3424"/><polygon fill="#181818" points="375.55,752.5424,368.55,755.3424,375.55,758.1424,372.75,755.3424" style="stroke:#181818;stroke-width:0.6999999999999998;"/><text fill="#000000" font-family="sans-serif" font-size="9.1" font-weight="bold" lengthAdjust="spacing" textLength="9.8" x="372.75" y="742.5585">25</text><text fill="#000000" font-family="sans-serif" font-size="9.1" lengthAdjust="spacing" textLength="57.4" x="385.35" y="742.5585">validates input</text><path d="M28,765.8424 L79.1,765.8424 L79.1,772.3461 L72.1,779.3461 L28,779.3461 L28,765.8424 " fill="#EEEEEE" style="stroke:#000000;stroke-width:1.0499999999999998;"/><rect fill="none" height="88.3148" style="stroke:#000000;stroke-width:1.0499999999999998;" width="423.15" x="28" y="765.8424"/><text fill="#000000" font-family="sans-serif" font-size="9.1" font-weight="bold" lengthAdjust="spacing" textLength="19.6" x="38.5" y="776.3622">loop</text><text fill="#000000" font-family="sans-serif" font-size="7.7" font-weight="bold" lengthAdjust="spacing" textLength="157.5" x="89.6" y="775.5515">[while (commissionIsAccepted == false)]</text><polygon fill="#181818" points="61.25,792.8498,54.25,795.6498,61.25,798.4498,58.45,795.6498" style="stroke:#181818;stroke-width:0.6999999999999998;"/><line style="stroke:#181818;stroke-width:0.6999999999999998;stroke-dasharray:2.0,2.0;" x1="57.05" x2="363.65" y1="795.6498" y2="795.6498"/><text fill="#000000" font-family="sans-serif" font-size="9.1" font-weight="bold" lengthAdjust="spacing" textLength="9.8" x="65.45" y="791.9659">26</text><text fill="#000000" font-family="sans-serif" font-size="9.1" lengthAdjust="spacing" textLength="241.5" x="78.05" y="791.9659">Shows invalid input message and asks to input commission</text><polygon fill="#181818" points="352.45,814.7535,359.45,817.5535,352.45,820.3535,355.25,817.5535" style="stroke:#181818;stroke-width:0.6999999999999998;"/><line style="stroke:#181818;stroke-width:0.6999999999999998;" x1="53.55" x2="356.65" y1="817.5535" y2="817.5535"/><text fill="#000000" font-family="sans-serif" font-size="9.1" font-weight="bold" lengthAdjust="spacing" textLength="9.8" x="58.45" y="813.8696">27</text><text fill="#000000" font-family="sans-serif" font-size="9.1" lengthAdjust="spacing" textLength="76.3" x="71.05" y="813.8696">inputs commission</text><line style="stroke:#181818;stroke-width:0.6999999999999998;" x1="367.85" x2="397.25" y1="839.4572" y2="839.4572"/><line style="stroke:#181818;stroke-width:0.6999999999999998;" x1="397.25" x2="397.25" y1="839.4572" y2="848.5572"/><line style="stroke:#181818;stroke-width:0.6999999999999998;" x1="368.55" x2="397.25" y1="848.5572" y2="848.5572"/><polygon fill="#181818" points="375.55,845.7572,368.55,848.5572,375.55,851.3572,372.75,848.5572" style="stroke:#181818;stroke-width:0.6999999999999998;"/><text fill="#000000" font-family="sans-serif" font-size="9.1" font-weight="bold" lengthAdjust="spacing" textLength="9.8" x="372.75" y="835.7733">28</text><text fill="#000000" font-family="sans-serif" font-size="9.1" lengthAdjust="spacing" textLength="57.4" x="385.35" y="835.7733">validates input</text><polygon fill="#181818" points="561.05,872.5609,568.05,875.3609,561.05,878.1609,563.85,875.3609" style="stroke:#181818;stroke-width:0.6999999999999998;"/><line style="stroke:#181818;stroke-width:0.6999999999999998;" x1="367.85" x2="565.25" y1="875.3609" y2="875.3609"/><text fill="#000000" font-family="sans-serif" font-size="9.1" font-weight="bold" lengthAdjust="spacing" textLength="9.8" x="372.75" y="871.6771">29</text><text fill="#000000" font-family="sans-serif" font-size="9.1" lengthAdjust="spacing" textLength="123.2" x="385.35" y="871.6771">saveCommission(commission)</text><polygon fill="#181818" points="561.05,915.4646,568.05,918.2646,561.05,921.0646,563.85,918.2646" style="stroke:#181818;stroke-width:0.6999999999999998;"/><line style="stroke:#181818;stroke-width:0.6999999999999998;" x1="367.85" x2="565.25" y1="918.2646" y2="918.2646"/><text fill="#000000" font-family="sans-serif" font-size="9.1" font-weight="bold" lengthAdjust="spacing" textLength="9.8" x="372.75" y="914.5808">30</text><text fill="#000000" font-family="sans-serif" font-size="9.1" lengthAdjust="spacing" textLength="121.8" x="385.35" y="914.5808">createAnnouncement(request)</text><polygon fill="#181818" points="1474.55,937.3684,1481.55,940.1684,1474.55,942.9684,1477.35,940.1684" style="stroke:#181818;stroke-width:0.6999999999999998;"/><line style="stroke:#181818;stroke-width:0.6999999999999998;" x1="576.45" x2="1478.75" y1="940.1684" y2="940.1684"/><text fill="#000000" font-family="sans-serif" font-size="9.1" font-weight="bold" lengthAdjust="spacing" textLength="9.8" x="581.35" y="936.4845">31</text><text fill="#000000" font-family="sans-serif" font-size="9.1" lengthAdjust="spacing" textLength="880.6" x="593.95" y="936.4845">AnnouncementDTO(request.getRequestType() , request.getOwner() , request.getProperty() , request.getPrice() , request.getRentPrice() , commission , request.getPropertyType() , request.getDate() , request.getAgent())</text><polygon fill="#181818" points="584.15,959.2721,577.15,962.0721,584.15,964.8721,581.35,962.0721" style="stroke:#181818;stroke-width:0.6999999999999998;"/><line style="stroke:#181818;stroke-width:0.6999999999999998;stroke-dasharray:2.0,2.0;" x1="579.95" x2="1485.75" y1="962.0721" y2="962.0721"/><text fill="#000000" font-family="sans-serif" font-size="9.1" font-weight="bold" lengthAdjust="spacing" textLength="9.8" x="588.35" y="958.3882">32</text><text fill="#000000" font-family="sans-serif" font-size="9.1" lengthAdjust="spacing" textLength="77.7" x="600.95" y="958.3882">announcementDTO</text><polygon fill="#181818" points="1587.95,981.1758,1594.95,983.9758,1587.95,986.7758,1590.75,983.9758" style="stroke:#181818;stroke-width:0.6999999999999998;"/><line style="stroke:#181818;stroke-width:0.6999999999999998;" x1="576.45" x2="1592.15" y1="983.9758" y2="983.9758"/><text fill="#000000" font-family="sans-serif" font-size="9.1" font-weight="bold" lengthAdjust="spacing" textLength="9.8" x="581.35" y="980.2919">33</text><text fill="#000000" font-family="sans-serif" font-size="9.1" lengthAdjust="spacing" textLength="121.8" x="593.95" y="980.2919">toDomain(announcementDTO)</text><polygon fill="#181818" points="584.15,1003.0795,577.15,1005.8795,584.15,1008.6795,581.35,1005.8795" style="stroke:#181818;stroke-width:0.6999999999999998;"/><line style="stroke:#181818;stroke-width:0.6999999999999998;stroke-dasharray:2.0,2.0;" x1="579.95" x2="1599.15" y1="1005.8795" y2="1005.8795"/><text fill="#000000" font-family="sans-serif" font-size="9.1" font-weight="bold" lengthAdjust="spacing" textLength="9.8" x="588.35" y="1002.1956">34</text><text fill="#000000" font-family="sans-serif" font-size="9.1" lengthAdjust="spacing" textLength="59.5" x="600.95" y="1002.1956">announcement</text><polygon fill="#181818" points="1024.45,1024.9832,1031.45,1027.7832,1024.45,1030.5832,1027.25,1027.7832" style="stroke:#181818;stroke-width:0.6999999999999998;"/><line style="stroke:#181818;stroke-width:0.6999999999999998;" x1="576.45" x2="1028.65" y1="1027.7832" y2="1027.7832"/><text fill="#000000" font-family="sans-serif" font-size="9.1" font-weight="bold" lengthAdjust="spacing" textLength="9.8" x="581.35" y="1024.0993">35</text><text fill="#000000" font-family="sans-serif" font-size="9.1" lengthAdjust="spacing" textLength="140.7" x="593.95" y="1024.0993">addAnnouncement(announcement)</text><polygon fill="#181818" points="375.55,1067.8869,368.55,1070.6869,375.55,1073.4869,372.75,1070.6869" style="stroke:#181818;stroke-width:0.6999999999999998;"/><line style="stroke:#181818;stroke-width:0.6999999999999998;stroke-dasharray:2.0,2.0;" x1="371.35" x2="572.25" y1="1070.6869" y2="1070.6869"/><text fill="#000000" font-family="sans-serif" font-size="9.1" font-weight="bold" lengthAdjust="spacing" textLength="9.8" x="379.75" y="1067.003">36</text><text fill="#000000" font-family="sans-serif" font-size="9.1" lengthAdjust="spacing" textLength="98" x="392.35" y="1067.003">show success message</text><polygon fill="#181818" points="61.25,1089.7906,54.25,1092.5906,61.25,1095.3906,58.45,1092.5906" style="stroke:#181818;stroke-width:0.6999999999999998;"/><line style="stroke:#181818;stroke-width:0.6999999999999998;stroke-dasharray:2.0,2.0;" x1="57.05" x2="360.15" y1="1092.5906" y2="1092.5906"/><text fill="#000000" font-family="sans-serif" font-size="9.1" font-weight="bold" lengthAdjust="spacing" textLength="9.8" x="65.45" y="1088.9067">37</text><text fill="#000000" font-family="sans-serif" font-size="9.1" lengthAdjust="spacing" textLength="64.4" x="78.05" y="1088.9067">Shows success</text><line style="stroke:#000000;stroke-width:0.6999999999999998;stroke-dasharray:2.0,2.0;" x1="21" x2="1663.2" y1="1098.8906" y2="1098.8906"/><text fill="#000000" font-family="sans-serif" font-size="7.7" font-weight="bold" lengthAdjust="spacing" textLength="107.1" x="24.5" y="1107.1997">[announcement is rejected]</text><polygon fill="#181818" points="61.25,1123.3359,54.25,1126.1359,61.25,1128.9359,58.45,1126.1359" style="stroke:#181818;stroke-width:0.6999999999999998;"/><line style="stroke:#181818;stroke-width:0.6999999999999998;stroke-dasharray:2.0,2.0;" x1="57.05" x2="363.65" y1="1126.1359" y2="1126.1359"/><text fill="#000000" font-family="sans-serif" font-size="9.1" font-weight="bold" lengthAdjust="spacing" textLength="9.8" x="65.45" y="1122.4521">38</text><text fill="#000000" font-family="sans-serif" font-size="9.1" lengthAdjust="spacing" textLength="175" x="78.05" y="1122.4521">asks to input an email to send to the owner</text><polygon fill="#181818" points="352.45,1145.2396,359.45,1148.0396,352.45,1150.8396,355.25,1148.0396" style="stroke:#181818;stroke-width:0.6999999999999998;"/><line style="stroke:#181818;stroke-width:0.6999999999999998;" x1="53.55" x2="356.65" y1="1148.0396" y2="1148.0396"/><text fill="#000000" font-family="sans-serif" font-size="9.1" font-weight="bold" lengthAdjust="spacing" textLength="9.8" x="58.45" y="1144.3558">39</text><text fill="#000000" font-family="sans-serif" font-size="9.1" lengthAdjust="spacing" textLength="64.4" x="71.05" y="1144.3558">inputs message</text><polygon fill="#181818" points="561.05,1167.1434,568.05,1169.9434,561.05,1172.7434,563.85,1169.9434" style="stroke:#181818;stroke-width:0.6999999999999998;"/><line style="stroke:#181818;stroke-width:0.6999999999999998;" x1="367.85" x2="565.25" y1="1169.9434" y2="1169.9434"/><text fill="#000000" font-family="sans-serif" font-size="9.1" font-weight="bold" lengthAdjust="spacing" textLength="9.8" x="372.75" y="1166.2595">40</text><text fill="#000000" font-family="sans-serif" font-size="9.1" lengthAdjust="spacing" textLength="175.7" x="385.35" y="1166.2595">deleteAgentFromRequest(request,message</text><polygon fill="#181818" points="61.25,1210.0471,54.25,1212.8471,61.25,1215.6471,58.45,1212.8471" style="stroke:#181818;stroke-width:0.6999999999999998;"/><line style="stroke:#181818;stroke-width:0.6999999999999998;stroke-dasharray:2.0,2.0;" x1="57.05" x2="360.15" y1="1212.8471" y2="1212.8471"/><text fill="#000000" font-family="sans-serif" font-size="9.1" font-weight="bold" lengthAdjust="spacing" textLength="9.8" x="65.45" y="1209.1632">41</text><text fill="#000000" font-family="sans-serif" font-size="9.1" lengthAdjust="spacing" textLength="99.4" x="78.05" y="1209.1632">Show success message</text><line style="stroke:#000000;stroke-width:0.6999999999999998;stroke-dasharray:2.0,2.0;" x1="21" x2="1663.2" y1="1219.1471" y2="1219.1471"/><text fill="#000000" font-family="sans-serif" font-size="7.7" font-weight="bold" lengthAdjust="spacing" textLength="90.3" x="24.5" y="1227.4562">[Agent chooses to exit]</text><polygon fill="#181818" points="352.45,1243.5924,359.45,1246.3924,352.45,1249.1924,355.25,1246.3924" style="stroke:#181818;stroke-width:0.6999999999999998;"/><line style="stroke:#181818;stroke-width:0.6999999999999998;" x1="53.55" x2="356.65" y1="1246.3924" y2="1246.3924"/><text fill="#000000" font-family="sans-serif" font-size="9.1" font-weight="bold" lengthAdjust="spacing" textLength="9.8" x="58.45" y="1242.7085">42</text><text fill="#000000" font-family="sans-serif" font-size="9.1" lengthAdjust="spacing" textLength="69.3" x="71.05" y="1242.7085">inputs exit option</text><line style="stroke:#181818;stroke-width:0.6999999999999998;" x1="371.35" x2="400.75" y1="1268.2961" y2="1268.2961"/><line style="stroke:#181818;stroke-width:0.6999999999999998;" x1="400.75" x2="400.75" y1="1268.2961" y2="1277.3961"/><line style="stroke:#181818;stroke-width:0.6999999999999998;" x1="372.05" x2="400.75" y1="1277.3961" y2="1277.3961"/><polygon fill="#181818" points="379.05,1274.5961,372.05,1277.3961,379.05,1280.1961,376.25,1277.3961" style="stroke:#181818;stroke-width:0.6999999999999998;"/><text fill="#000000" font-family="sans-serif" font-size="9.1" font-weight="bold" lengthAdjust="spacing" textLength="9.8" x="376.25" y="1264.6122">43</text><text fill="#000000" font-family="sans-serif" font-size="9.1" lengthAdjust="spacing" textLength="41.3" x="388.85" y="1264.6122">exit = true</text><polygon fill="#181818" points="61.25,1317.4998,54.25,1320.2998,61.25,1323.0998,58.45,1320.2998" style="stroke:#181818;stroke-width:0.6999999999999998;"/><line style="stroke:#181818;stroke-width:0.6999999999999998;stroke-dasharray:2.0,2.0;" x1="57.05" x2="360.15" y1="1320.2998" y2="1320.2998"/><text fill="#000000" font-family="sans-serif" font-size="9.1" font-weight="bold" lengthAdjust="spacing" textLength="9.8" x="65.45" y="1316.6159">44</text><text fill="#000000" font-family="sans-serif" font-size="9.1" lengthAdjust="spacing" textLength="70.7" x="78.05" y="1316.6159">leaves to AgentUI</text><!--SRC=[bLR1Rjmu3BthAuGSYXcWIVSSR0C4QGe4o291cdw0QpCTxNeahoNFRFhrIz6oHSdof9bB78fy8YdoaTNWZ1xsFw0NLUrCBy-kVu9sPxAoahv4L_LErQghj9Ddbu_3ZrRPtRNMPj0rx57Z-nrfVxzxM_N6QDURjeMUJ6wUd-v5PlK4dR4AFL5WIUdfzl5XeVFl0DRDgg-ZOfJcda1lZSxKWt29pXtERAxVqWzQ9pI-F3y4fKHsmkAlgkj2mfRYaxvJFXBpHFQsRNGs2ZAhcw7lVH7OwKtZ_qBucbA7oa6e9I7nHv_o_0ehHbwYoJzMEYDxE2Wuogev0C9RyWA5TAibknaBAsr4yhy6PZcLqoX5QBp02_2Ad-3epjjzfThDTZPD3MVnQERDOoWZIWx08NZOyPn3d4UFm0CnDHv44MXsYUnjTG2RWQm4awSdXvoUWOFzHahh7l0u5CMzei9uHsPz5uqfNRHoaju8H7t7J-G8mfAwWEBgB2Q2MhWqjdQebY83SCzYNUlCiu33_2gZYP9h0MsPhnWQpvejro8dmYHbx80xwD_lpqBtNwNzjyWZksO-Rutfv8l1ygXtSbC0dJ3ntWbzArW_i_VWN8Ngpc2HoKsmsefIw3d3yV1pH9Q1FhARN7cN1BRSbaXUpRF9cc9sDvY0RaIX0wCJmV14BrAEZplLmfoDO7HXrI_OREML_4D- -23XF-Navy_ofMejJ0apdPFgPRRqLXD1RhONaUMy8R72PEW9m3yCqVUbj3jpd8TkMOMu7UzoEv0LoOuuD8Zkgxg6pdrge6wL1jAO2WEN45He0KcEGXLf6f3zvNACADqDY5plZAf1PDDYBfFM1RFnUillvRMo4aTjzdjbhJ9QAXHeYRLGemh6vhq-LEq0AzwkkuplWO1hBfTzmVoGDVFetVUcfibmbPpnoGP3KmqUsz5QP0qVYZ52tjbhoZ0qhFxaQb3Vg9QKfcj2Q7kmrYUsqirwqCMetndkwCzQfBFBK-CcSz1FufiPcIKWH5iQX2iZkJ1VENtcH58UiP4za-rIvYleX7OHXydpQ-UfuwDaHmz73NqkVEmDrhrxNSgnzNBX4zuN3rW35I5BFdp187DPOAkvf1XHfrirdyjfHXZxLvbHYV-B6gLiyt5ba3xr9eClRn6BlPwtxn9-nVkLfM81lhRxu01BQevZbvBDjvMLDIPTC_tGa7P0Rh1swd2nkdCMMI9O2m58AadqdfHx-1jgf1tSA4uIPwN7uUOb5blR__N3mFYABuGKUA98BJoECeqdlTr02zZR7kbhR_QX_QQE_9YXoT8klhQZbpAsI3VbRTJ0SMaiK5hyhY14CJvQ8-AOIWR3k698rmyWoj4NXbBc9OrwSe8aR08HwOh5Dtxz3m00]--></g></svg>