<?xml version="1.0" encoding="us-ascii" standalone="no"?><svg xmlns="http://www.w3.org/2000/svg" xmlns:xlink="http://www.w3.org/1999/xlink" contentStyleType="text/css" height="1320.2px" preserveAspectRatio="none" style="width:597px;height:1320px;background:#FFFFFF;" version="1.1" viewBox="0 0 597 1320" width="597.1px" zoomAndPan="magnify"><defs><filter height="300%" id="f1ev3xzt8p8ir1" width="300%" x="-1" y="-1"><feGaussianBlur result="blurOut" stdDeviation="1.3999999999999997"/><feColorMatrix in="blurOut" result="blurOut2" type="matrix" values="0 0 0 0 0 0 0 0 0 0 0 0 0 0 0 0 0 0 .4 0"/><feOffset dx="2.7999999999999994" dy="2.7999999999999994" in="blurOut2" result="blurOut3"/><feBlend in="SourceGraphic" in2="blurOut3" mode="normal"/></filter></defs><g><text fill="#000000" font-family="sans-serif" font-size="9.8" font-weight="bold" lengthAdjust="spacing" textLength="108.5" x="239.575" y="17.5752">US008 - Class Diagram</text><!--class Agent--><g id="elem_Agent"><rect codeLine="9" fill="#F1F1F1" filter="url(#f1ev3xzt8p8ir1)" height="98.7738" id="Agent" rx="1.75" ry="1.75" style="stroke:#181818;stroke-width:0.3499999999999999;" width="102.9" x="66.15" y="32.6348"/><ellipse cx="101.675" cy="43.8348" fill="#ADD1B2" rx="7.7" ry="7.7" style="stroke:#181818;stroke-width:0.6999999999999998;"/><path d="M103.6109,40.9473 Q103.7203,40.7941 103.8516,40.7176 Q103.9828,40.641 104.1359,40.641 Q104.3984,40.641 104.5625,40.827 Q104.7266,41.002 104.7266,41.4285 L104.7266,42.4457 Q104.7266,42.8723 104.5625,43.0582 Q104.3984,43.2441 104.1359,43.2441 Q103.8953,43.2441 103.7531,43.102 Q103.6109,42.9707 103.5344,42.6098 Q103.5016,42.3582 103.3703,42.227 Q103.1406,41.9645 102.7141,41.8113 Q102.2875,41.6582 101.85,41.6582 Q101.3141,41.6582 100.8656,41.8879 Q100.4281,42.1176 100.0781,42.6426 Q99.7391,43.1676 99.7391,43.8895 L99.7391,44.6551 Q99.7391,45.5191 100.3625,46.0988 Q100.9859,46.6676 102.1016,46.6676 Q102.7578,46.6676 103.2172,46.4926 Q103.4906,46.3832 103.7859,46.077 Q103.9719,45.891 104.0703,45.8363 Q104.1797,45.7816 104.3219,45.7816 Q104.5516,45.7816 104.7266,45.9676 Q104.9125,46.1426 104.9125,46.3832 Q104.9125,46.6238 104.6719,46.9082 Q104.3219,47.3129 103.7641,47.5426 Q103.0094,47.8598 102.1016,47.8598 Q101.0406,47.8598 100.1984,47.4223 Q99.5094,47.0723 99.0281,46.3285 Q98.5469,45.5738 98.5469,44.677 L98.5469,43.8676 Q98.5469,42.9379 98.9734,42.1395 Q99.4109,41.3301 100.1766,40.9035 Q100.9422,40.466 101.8062,40.466 Q102.3203,40.466 102.7687,40.5863 Q103.2281,40.6957 103.6109,40.9473 Z " fill="#000000"/><text fill="#000000" font-family="sans-serif" font-size="9.8" lengthAdjust="spacing" textLength="25.9" x="116.025" y="47.8926">Agent</text><line style="stroke:#181818;stroke-width:0.3499999999999999;" x1="66.85" x2="168.35" y1="55.0348" y2="55.0348"/><text fill="#000000" font-family="sans-serif" font-size="9.8" lengthAdjust="spacing" textLength="66.5" x="70.35" y="68.41">-taxNumber: int</text><text fill="#000000" font-family="sans-serif" font-size="9.8" lengthAdjust="spacing" textLength="94.5" x="70.35" y="81.4447">-emailAddress: String</text><text fill="#000000" font-family="sans-serif" font-size="9.8" lengthAdjust="spacing" textLength="81.9" x="70.35" y="94.4795">-phoneNumber: int</text><text fill="#000000" font-family="sans-serif" font-size="9.8" lengthAdjust="spacing" textLength="79.1" x="70.35" y="107.5143">-passportNumber:</text><line style="stroke:#181818;stroke-width:0.3499999999999999;" x1="66.85" x2="168.35" y1="112.7738" y2="112.7738"/><text fill="#000000" font-family="sans-serif" font-size="9.8" lengthAdjust="spacing" textLength="50.4" x="70.35" y="126.149">+getEmail()</text></g><!--class AnnouncementRequest--><g id="elem_AnnouncementRequest"><rect codeLine="17" fill="#F1F1F1" filter="url(#f1ev3xzt8p8ir1)" height="176.9824" id="AnnouncementRequest" rx="1.75" ry="1.75" style="stroke:#181818;stroke-width:0.3499999999999999;" width="149.8" x="156.8" y="685.7348"/><ellipse cx="178.01" cy="696.9348" fill="#ADD1B2" rx="7.7" ry="7.7" style="stroke:#181818;stroke-width:0.6999999999999998;"/><path d="M179.9459,694.0473 Q180.0553,693.8941 180.1866,693.8176 Q180.3178,693.741 180.4709,693.741 Q180.7334,693.741 180.8975,693.927 Q181.0616,694.102 181.0616,694.5285 L181.0616,695.5457 Q181.0616,695.9723 180.8975,696.1582 Q180.7334,696.3441 180.4709,696.3441 Q180.2303,696.3441 180.0881,696.202 Q179.9459,696.0707 179.8694,695.7098 Q179.8366,695.4582 179.7053,695.327 Q179.4756,695.0645 179.0491,694.9113 Q178.6225,694.7582 178.185,694.7582 Q177.6491,694.7582 177.2006,694.9879 Q176.7631,695.2176 176.4131,695.7426 Q176.0741,696.2676 176.0741,696.9895 L176.0741,697.7551 Q176.0741,698.6191 176.6975,699.1988 Q177.3209,699.7676 178.4366,699.7676 Q179.0928,699.7676 179.5522,699.5926 Q179.8256,699.4832 180.1209,699.177 Q180.3069,698.991 180.4053,698.9363 Q180.5147,698.8816 180.6569,698.8816 Q180.8866,698.8816 181.0616,699.0676 Q181.2475,699.2426 181.2475,699.4832 Q181.2475,699.7238 181.0069,700.0082 Q180.6569,700.4129 180.0991,700.6426 Q179.3444,700.9598 178.4366,700.9598 Q177.3756,700.9598 176.5334,700.5223 Q175.8444,700.1723 175.3631,699.4285 Q174.8819,698.6738 174.8819,697.777 L174.8819,696.9676 Q174.8819,696.0379 175.3084,695.2395 Q175.7459,694.4301 176.5116,694.0035 Q177.2772,693.566 178.1412,693.566 Q178.6553,693.566 179.1037,693.6863 Q179.5631,693.7957 179.9459,694.0473 Z " fill="#000000"/><text fill="#000000" font-family="sans-serif" font-size="9.8" lengthAdjust="spacing" textLength="103.6" x="190.19" y="700.9926">AnnouncementRequest</text><line style="stroke:#181818;stroke-width:0.3499999999999999;" x1="157.5" x2="305.9" y1="708.1348" y2="708.1348"/><text fill="#000000" font-family="sans-serif" font-size="9.8" lengthAdjust="spacing" textLength="89.6" x="161" y="721.51">-requestType: string</text><text fill="#000000" font-family="sans-serif" font-size="9.8" lengthAdjust="spacing" textLength="56" x="161" y="734.5447">-owner: User</text><text fill="#000000" font-family="sans-serif" font-size="9.8" lengthAdjust="spacing" textLength="84" x="161" y="747.5795">-property: Property</text><text fill="#000000" font-family="sans-serif" font-size="9.8" lengthAdjust="spacing" textLength="64.4" x="161" y="760.6143">-house: House</text><text fill="#000000" font-family="sans-serif" font-size="9.8" lengthAdjust="spacing" textLength="100.8" x="161" y="773.649">-apartment: Residence</text><text fill="#000000" font-family="sans-serif" font-size="9.8" lengthAdjust="spacing" textLength="60.9" x="161" y="786.6838">-price: double</text><text fill="#000000" font-family="sans-serif" font-size="9.8" lengthAdjust="spacing" textLength="73.5" x="161" y="799.7186">-rentPrice: doule</text><text fill="#000000" font-family="sans-serif" font-size="9.8" lengthAdjust="spacing" textLength="113.4" x="161" y="812.7533">-commission: Commission</text><text fill="#000000" font-family="sans-serif" font-size="9.8" lengthAdjust="spacing" textLength="54.6" x="161" y="825.7881">-date: String</text><text fill="#000000" font-family="sans-serif" font-size="9.8" lengthAdjust="spacing" textLength="60.2" x="161" y="838.8229">-agent: Agent</text><text fill="#000000" font-family="sans-serif" font-size="9.8" lengthAdjust="spacing" textLength="141.4" x="161" y="851.8576">-habitationType: HabitationType</text><line style="stroke:#181818;stroke-width:0.3499999999999999;" x1="157.5" x2="305.9" y1="857.1172" y2="857.1172"/></g><!--class Announcement--><g id="elem_Announcement"><rect codeLine="78" fill="#F1F1F1" filter="url(#f1ev3xzt8p8ir1)" height="150.9129" id="Announcement" rx="1.75" ry="1.75" style="stroke:#181818;stroke-width:0.3499999999999999;" width="138.6" x="4.9" y="1161.0348"/><ellipse cx="37.975" cy="1172.2348" fill="#ADD1B2" rx="7.7" ry="7.7" style="stroke:#181818;stroke-width:0.6999999999999998;"/><path d="M39.9109,1169.3473 Q40.0203,1169.1941 40.1516,1169.1176 Q40.2828,1169.041 40.4359,1169.041 Q40.6984,1169.041 40.8625,1169.227 Q41.0266,1169.402 41.0266,1169.8285 L41.0266,1170.8457 Q41.0266,1171.2723 40.8625,1171.4582 Q40.6984,1171.6441 40.4359,1171.6441 Q40.1953,1171.6441 40.0531,1171.502 Q39.9109,1171.3707 39.8344,1171.0098 Q39.8016,1170.7582 39.6703,1170.627 Q39.4406,1170.3645 39.0141,1170.2113 Q38.5875,1170.0582 38.15,1170.0582 Q37.6141,1170.0582 37.1656,1170.2879 Q36.7281,1170.5176 36.3781,1171.0426 Q36.0391,1171.5676 36.0391,1172.2895 L36.0391,1173.0551 Q36.0391,1173.9191 36.6625,1174.4988 Q37.2859,1175.0676 38.4016,1175.0676 Q39.0578,1175.0676 39.5172,1174.8926 Q39.7906,1174.7832 40.0859,1174.477 Q40.2719,1174.291 40.3703,1174.2363 Q40.4797,1174.1816 40.6219,1174.1816 Q40.8516,1174.1816 41.0266,1174.3676 Q41.2125,1174.5426 41.2125,1174.7832 Q41.2125,1175.0238 40.9719,1175.3082 Q40.6219,1175.7129 40.0641,1175.9426 Q39.3094,1176.2598 38.4016,1176.2598 Q37.3406,1176.2598 36.4984,1175.8223 Q35.8094,1175.4723 35.3281,1174.7285 Q34.8469,1173.9738 34.8469,1173.077 L34.8469,1172.2676 Q34.8469,1171.3379 35.2734,1170.5395 Q35.7109,1169.7301 36.4766,1169.3035 Q37.2422,1168.866 38.1062,1168.866 Q38.6203,1168.866 39.0687,1168.9863 Q39.5281,1169.0957 39.9109,1169.3473 Z " fill="#000000"/><text fill="#000000" font-family="sans-serif" font-size="9.8" lengthAdjust="spacing" textLength="66.5" x="52.325" y="1176.2926">Announcement</text><line style="stroke:#181818;stroke-width:0.3499999999999999;" x1="5.6" x2="142.8" y1="1183.4348" y2="1183.4348"/><text fill="#000000" font-family="sans-serif" font-size="9.8" lengthAdjust="spacing" textLength="56" x="9.1" y="1196.81">-owner: User</text><text fill="#000000" font-family="sans-serif" font-size="9.8" lengthAdjust="spacing" textLength="60.2" x="9.1" y="1209.8447">-agent: Agent</text><text fill="#000000" font-family="sans-serif" font-size="9.8" lengthAdjust="spacing" textLength="113.4" x="9.1" y="1222.8795">-commission: Commission</text><text fill="#000000" font-family="sans-serif" font-size="9.8" lengthAdjust="spacing" textLength="70.7" x="9.1" y="1235.9143">-price: rentPrice</text><text fill="#000000" font-family="sans-serif" font-size="9.8" lengthAdjust="spacing" textLength="54.6" x="9.1" y="1248.949">-date: String</text><text fill="#000000" font-family="sans-serif" font-size="9.8" lengthAdjust="spacing" textLength="84" x="9.1" y="1261.9838">-property: Property</text><text fill="#000000" font-family="sans-serif" font-size="9.8" lengthAdjust="spacing" textLength="130.2" x="9.1" y="1275.0186">-businessType: RequestType</text><text fill="#000000" font-family="sans-serif" font-size="9.8" lengthAdjust="spacing" textLength="125.3" x="9.1" y="1288.0533">propertyType: PropertyType</text><text fill="#000000" font-family="sans-serif" font-size="9.8" lengthAdjust="spacing" textLength="5.6" x="9.1" y="1301.0881">+</text><line style="stroke:#181818;stroke-width:0.3499999999999999;" x1="5.6" x2="142.8" y1="1306.3477" y2="1306.3477"/></g><!--class Commission--><g id="elem_Commission"><rect codeLine="44" fill="#F1F1F1" filter="url(#f1ev3xzt8p8ir1)" height="59.6695" id="Commission" rx="1.75" ry="1.75" style="stroke:#181818;stroke-width:0.3499999999999999;" width="101.5" x="49.35" y="186.6348"/><ellipse cx="71.505" cy="197.8348" fill="#ADD1B2" rx="7.7" ry="7.7" style="stroke:#181818;stroke-width:0.6999999999999998;"/><path d="M73.4409,194.9473 Q73.5503,194.7941 73.6816,194.7176 Q73.8128,194.641 73.9659,194.641 Q74.2284,194.641 74.3925,194.827 Q74.5566,195.002 74.5566,195.4285 L74.5566,196.4457 Q74.5566,196.8723 74.3925,197.0582 Q74.2284,197.2441 73.9659,197.2441 Q73.7253,197.2441 73.5831,197.102 Q73.4409,196.9707 73.3644,196.6098 Q73.3316,196.3582 73.2003,196.227 Q72.9706,195.9645 72.5441,195.8113 Q72.1175,195.6582 71.68,195.6582 Q71.1441,195.6582 70.6956,195.8879 Q70.2581,196.1176 69.9081,196.6426 Q69.5691,197.1676 69.5691,197.8895 L69.5691,198.6551 Q69.5691,199.5191 70.1925,200.0988 Q70.8159,200.6676 71.9316,200.6676 Q72.5878,200.6676 73.0472,200.4926 Q73.3206,200.3832 73.6159,200.077 Q73.8019,199.891 73.9003,199.8363 Q74.0097,199.7816 74.1519,199.7816 Q74.3816,199.7816 74.5566,199.9676 Q74.7425,200.1426 74.7425,200.3832 Q74.7425,200.6238 74.5019,200.9082 Q74.1519,201.3129 73.5941,201.5426 Q72.8394,201.8598 71.9316,201.8598 Q70.8706,201.8598 70.0284,201.4223 Q69.3394,201.0723 68.8581,200.3285 Q68.3769,199.5738 68.3769,198.677 L68.3769,197.8676 Q68.3769,196.9379 68.8034,196.1395 Q69.2409,195.3301 70.0066,194.9035 Q70.7722,194.466 71.6362,194.466 Q72.1503,194.466 72.5987,194.5863 Q73.0581,194.6957 73.4409,194.9473 Z " fill="#000000"/><text fill="#000000" font-family="sans-serif" font-size="9.8" lengthAdjust="spacing" textLength="53.2" x="83.895" y="201.8926">Commission</text><line style="stroke:#181818;stroke-width:0.3499999999999999;" x1="50.05" x2="150.15" y1="209.0348" y2="209.0348"/><text fill="#000000" font-family="sans-serif" font-size="9.8" lengthAdjust="spacing" textLength="66.5" x="53.55" y="222.41">-value: decimal</text><text fill="#000000" font-family="sans-serif" font-size="9.8" lengthAdjust="spacing" textLength="93.1" x="53.55" y="235.4447">-percentage: decimal</text><line style="stroke:#181818;stroke-width:0.3499999999999999;" x1="50.05" x2="150.15" y1="240.7043" y2="240.7043"/></g><!--class PublishAnnouncementUI--><g id="elem_PublishAnnouncementUI"><rect codeLine="49" fill="#F1F1F1" filter="url(#f1ev3xzt8p8ir1)" height="33.6" id="PublishAnnouncementUI" rx="1.75" ry="1.75" style="stroke:#181818;stroke-width:0.3499999999999999;" width="129.5" x="175.35" y="199.5848"/><ellipse cx="185.85" cy="210.7848" fill="#ADD1B2" rx="7.7" ry="7.7" style="stroke:#181818;stroke-width:0.6999999999999998;"/><path d="M187.7859,207.8973 Q187.8953,207.7441 188.0266,207.6676 Q188.1578,207.591 188.3109,207.591 Q188.5734,207.591 188.7375,207.777 Q188.9016,207.952 188.9016,208.3785 L188.9016,209.3957 Q188.9016,209.8223 188.7375,210.0082 Q188.5734,210.1941 188.3109,210.1941 Q188.0703,210.1941 187.9281,210.052 Q187.7859,209.9207 187.7094,209.5598 Q187.6766,209.3082 187.5453,209.177 Q187.3156,208.9145 186.8891,208.7613 Q186.4625,208.6082 186.025,208.6082 Q185.4891,208.6082 185.0406,208.8379 Q184.6031,209.0676 184.2531,209.5926 Q183.9141,210.1176 183.9141,210.8395 L183.9141,211.6051 Q183.9141,212.4691 184.5375,213.0488 Q185.1609,213.6176 186.2766,213.6176 Q186.9328,213.6176 187.3922,213.4426 Q187.6656,213.3332 187.9609,213.027 Q188.1469,212.841 188.2453,212.7863 Q188.3547,212.7316 188.4969,212.7316 Q188.7266,212.7316 188.9016,212.9176 Q189.0875,213.0926 189.0875,213.3332 Q189.0875,213.5738 188.8469,213.8582 Q188.4969,214.2629 187.9391,214.4926 Q187.1844,214.8098 186.2766,214.8098 Q185.2156,214.8098 184.3734,214.3723 Q183.6844,214.0223 183.2031,213.2785 Q182.7219,212.5238 182.7219,211.627 L182.7219,210.8176 Q182.7219,209.8879 183.1484,209.0895 Q183.5859,208.2801 184.3516,207.8535 Q185.1172,207.416 185.9812,207.416 Q186.4953,207.416 186.9437,207.5363 Q187.4031,207.6457 187.7859,207.8973 Z " fill="#000000"/><text fill="#000000" font-family="sans-serif" font-size="9.8" lengthAdjust="spacing" textLength="107.1" x="195.65" y="214.8426">PublishAnnouncementUI</text><line style="stroke:#181818;stroke-width:0.3499999999999999;" x1="176.05" x2="304.15" y1="221.9848" y2="221.9848"/><line style="stroke:#181818;stroke-width:0.3499999999999999;" x1="176.05" x2="304.15" y1="227.5848" y2="227.5848"/></g><!--class PublishAnnouncementController--><g id="elem_PublishAnnouncementController"><rect codeLine="53" fill="#F1F1F1" filter="url(#f1ev3xzt8p8ir1)" height="98.7738" id="PublishAnnouncementController" rx="1.75" ry="1.75" style="stroke:#181818;stroke-width:0.3499999999999999;" width="233.8" x="123.2" y="288.8348"/><ellipse cx="166.075" cy="300.0348" fill="#ADD1B2" rx="7.7" ry="7.7" style="stroke:#181818;stroke-width:0.6999999999999998;"/><path d="M168.0109,297.1473 Q168.1203,296.9941 168.2516,296.9176 Q168.3828,296.841 168.5359,296.841 Q168.7984,296.841 168.9625,297.027 Q169.1266,297.202 169.1266,297.6285 L169.1266,298.6457 Q169.1266,299.0723 168.9625,299.2582 Q168.7984,299.4441 168.5359,299.4441 Q168.2953,299.4441 168.1531,299.302 Q168.0109,299.1707 167.9344,298.8098 Q167.9016,298.5582 167.7703,298.427 Q167.5406,298.1645 167.1141,298.0113 Q166.6875,297.8582 166.25,297.8582 Q165.7141,297.8582 165.2656,298.0879 Q164.8281,298.3176 164.4781,298.8426 Q164.1391,299.3676 164.1391,300.0895 L164.1391,300.8551 Q164.1391,301.7191 164.7625,302.2988 Q165.3859,302.8676 166.5016,302.8676 Q167.1578,302.8676 167.6172,302.6926 Q167.8906,302.5832 168.1859,302.277 Q168.3719,302.091 168.4703,302.0363 Q168.5797,301.9816 168.7219,301.9816 Q168.9516,301.9816 169.1266,302.1676 Q169.3125,302.3426 169.3125,302.5832 Q169.3125,302.8238 169.0719,303.1082 Q168.7219,303.5129 168.1641,303.7426 Q167.4094,304.0598 166.5016,304.0598 Q165.4406,304.0598 164.5984,303.6223 Q163.9094,303.2723 163.4281,302.5285 Q162.9469,301.7738 162.9469,300.877 L162.9469,300.0676 Q162.9469,299.1379 163.3734,298.3395 Q163.8109,297.5301 164.5766,297.1035 Q165.3422,296.666 166.2062,296.666 Q166.7203,296.666 167.1687,296.7863 Q167.6281,296.8957 168.0109,297.1473 Z " fill="#000000"/><text fill="#000000" font-family="sans-serif" font-size="9.8" lengthAdjust="spacing" textLength="142.1" x="180.425" y="304.0926">PublishAnnouncementController</text><line style="stroke:#181818;stroke-width:0.3499999999999999;" x1="123.9" x2="356.3" y1="311.2348" y2="311.2348"/><line style="stroke:#181818;stroke-width:0.3499999999999999;" x1="123.9" x2="356.3" y1="316.8348" y2="316.8348"/><text fill="#000000" font-family="sans-serif" font-size="9.8" lengthAdjust="spacing" textLength="225.4" x="127.4" y="330.21">-List&lt;AnnouncementRequestDTO) requestListDTO</text><text fill="#000000" font-family="sans-serif" font-size="9.8" lengthAdjust="spacing" textLength="114.1" x="127.4" y="343.2447">+createRequestListDTO()</text><text fill="#000000" font-family="sans-serif" font-size="9.8" lengthAdjust="spacing" textLength="86.8" x="127.4" y="356.2795">+saveCommission()</text><text fill="#000000" font-family="sans-serif" font-size="9.8" lengthAdjust="spacing" textLength="140.7" x="127.4" y="369.3143">+createAnnouncement(request)</text><text fill="#000000" font-family="sans-serif" font-size="9.8" lengthAdjust="spacing" textLength="76.3" x="127.4" y="382.349">+getAgentEmail()</text></g><!--class Repositories--><g id="elem_Repositories"><rect codeLine="61" fill="#F1F1F1" filter="url(#f1ev3xzt8p8ir1)" height="85.7391" id="Repositories" rx="1.75" ry="1.75" style="stroke:#181818;stroke-width:0.3499999999999999;" width="245" x="117.6" y="442.8348"/><ellipse cx="209.475" cy="454.0348" fill="#ADD1B2" rx="7.7" ry="7.7" style="stroke:#181818;stroke-width:0.6999999999999998;"/><path d="M211.4109,451.1473 Q211.5203,450.9941 211.6516,450.9176 Q211.7828,450.841 211.9359,450.841 Q212.1984,450.841 212.3625,451.027 Q212.5266,451.202 212.5266,451.6285 L212.5266,452.6457 Q212.5266,453.0723 212.3625,453.2582 Q212.1984,453.4441 211.9359,453.4441 Q211.6953,453.4441 211.5531,453.302 Q211.4109,453.1707 211.3344,452.8098 Q211.3016,452.5582 211.1703,452.427 Q210.9406,452.1645 210.5141,452.0113 Q210.0875,451.8582 209.65,451.8582 Q209.1141,451.8582 208.6656,452.0879 Q208.2281,452.3176 207.8781,452.8426 Q207.5391,453.3676 207.5391,454.0895 L207.5391,454.8551 Q207.5391,455.7191 208.1625,456.2988 Q208.7859,456.8676 209.9016,456.8676 Q210.5578,456.8676 211.0172,456.6926 Q211.2906,456.5832 211.5859,456.277 Q211.7719,456.091 211.8703,456.0363 Q211.9797,455.9816 212.1219,455.9816 Q212.3516,455.9816 212.5266,456.1676 Q212.7125,456.3426 212.7125,456.5832 Q212.7125,456.8238 212.4719,457.1082 Q212.1219,457.5129 211.5641,457.7426 Q210.8094,458.0598 209.9016,458.0598 Q208.8406,458.0598 207.9984,457.6223 Q207.3094,457.2723 206.8281,456.5285 Q206.3469,455.7738 206.3469,454.877 L206.3469,454.0676 Q206.3469,453.1379 206.7734,452.3395 Q207.2109,451.5301 207.9766,451.1035 Q208.7422,450.666 209.6062,450.666 Q210.1203,450.666 210.5687,450.7863 Q211.0281,450.8957 211.4109,451.1473 Z " fill="#000000"/><text fill="#000000" font-family="sans-serif" font-size="9.8" lengthAdjust="spacing" textLength="55.3" x="223.825" y="458.0926">Repositories</text><line style="stroke:#181818;stroke-width:0.3499999999999999;" x1="118.3" x2="361.9" y1="465.2348" y2="465.2348"/><text fill="#000000" font-family="sans-serif" font-size="9.8" lengthAdjust="spacing" textLength="169.4" x="121.8" y="478.61">-requestRepsitory: RequestRepository</text><text fill="#000000" font-family="sans-serif" font-size="9.8" lengthAdjust="spacing" textLength="236.6" x="121.8" y="491.6447">-announcementRepository: AnnouncementRepository</text><line style="stroke:#181818;stroke-width:0.3499999999999999;" x1="118.3" x2="361.9" y1="496.9043" y2="496.9043"/><text fill="#000000" font-family="sans-serif" font-size="9.8" lengthAdjust="spacing" textLength="111.3" x="121.8" y="510.2795">+getRequestRepository()</text><text fill="#000000" font-family="sans-serif" font-size="9.8" lengthAdjust="spacing" textLength="140.7" x="121.8" y="523.3143">+getAnnouncementRepository()</text></g><!--class RequestRepository--><g id="elem_RequestRepository"><rect codeLine="68" fill="#F1F1F1" filter="url(#f1ev3xzt8p8ir1)" height="59.6695" id="RequestRepository" rx="1.75" ry="1.75" style="stroke:#181818;stroke-width:0.3499999999999999;" width="285.6" x="97.3" y="570.9348"/><ellipse cx="194.775" cy="582.1348" fill="#ADD1B2" rx="7.7" ry="7.7" style="stroke:#181818;stroke-width:0.6999999999999998;"/><path d="M196.7109,579.2473 Q196.8203,579.0941 196.9516,579.0176 Q197.0828,578.941 197.2359,578.941 Q197.4984,578.941 197.6625,579.127 Q197.8266,579.302 197.8266,579.7285 L197.8266,580.7457 Q197.8266,581.1723 197.6625,581.3582 Q197.4984,581.5441 197.2359,581.5441 Q196.9953,581.5441 196.8531,581.402 Q196.7109,581.2707 196.6344,580.9098 Q196.6016,580.6582 196.4703,580.527 Q196.2406,580.2645 195.8141,580.1113 Q195.3875,579.9582 194.95,579.9582 Q194.4141,579.9582 193.9656,580.1879 Q193.5281,580.4176 193.1781,580.9426 Q192.8391,581.4676 192.8391,582.1895 L192.8391,582.9551 Q192.8391,583.8191 193.4625,584.3988 Q194.0859,584.9676 195.2016,584.9676 Q195.8578,584.9676 196.3172,584.7926 Q196.5906,584.6832 196.8859,584.377 Q197.0719,584.191 197.1703,584.1363 Q197.2797,584.0816 197.4219,584.0816 Q197.6516,584.0816 197.8266,584.2676 Q198.0125,584.4426 198.0125,584.6832 Q198.0125,584.9238 197.7719,585.2082 Q197.4219,585.6129 196.8641,585.8426 Q196.1094,586.1598 195.2016,586.1598 Q194.1406,586.1598 193.2984,585.7223 Q192.6094,585.3723 192.1281,584.6285 Q191.6469,583.8738 191.6469,582.977 L191.6469,582.1676 Q191.6469,581.2379 192.0734,580.4395 Q192.5109,579.6301 193.2766,579.2035 Q194.0422,578.766 194.9062,578.766 Q195.4203,578.766 195.8687,578.8863 Q196.3281,578.9957 196.7109,579.2473 Z " fill="#000000"/><text fill="#000000" font-family="sans-serif" font-size="9.8" lengthAdjust="spacing" textLength="84.7" x="209.125" y="586.1926">RequestRepository</text><line style="stroke:#181818;stroke-width:0.3499999999999999;" x1="98" x2="382.2" y1="593.3348" y2="593.3348"/><text fill="#000000" font-family="sans-serif" font-size="9.8" lengthAdjust="spacing" textLength="277.2" x="101.5" y="606.71">-List&lt;AdvertisementRequest&gt; requests: AdvertisementRequest</text><line style="stroke:#181818;stroke-width:0.3499999999999999;" x1="98" x2="382.2" y1="611.9695" y2="611.9695"/><text fill="#000000" font-family="sans-serif" font-size="9.8" lengthAdjust="spacing" textLength="68.6" x="101.5" y="625.3447">+getRequests()</text></g><!--class AnnouncementRepository--><g id="elem_AnnouncementRepository"><rect codeLine="73" fill="#F1F1F1" filter="url(#f1ev3xzt8p8ir1)" height="59.6695" id="AnnouncementRepository" rx="1.75" ry="1.75" style="stroke:#181818;stroke-width:0.3499999999999999;" width="181.3" x="407.75" y="570.9348"/><ellipse cx="438.41" cy="582.1348" fill="#ADD1B2" rx="7.7" ry="7.7" style="stroke:#181818;stroke-width:0.6999999999999998;"/><path d="M440.3459,579.2473 Q440.4553,579.0941 440.5866,579.0176 Q440.7178,578.941 440.8709,578.941 Q441.1334,578.941 441.2975,579.127 Q441.4616,579.302 441.4616,579.7285 L441.4616,580.7457 Q441.4616,581.1723 441.2975,581.3582 Q441.1334,581.5441 440.8709,581.5441 Q440.6303,581.5441 440.4881,581.402 Q440.3459,581.2707 440.2694,580.9098 Q440.2366,580.6582 440.1053,580.527 Q439.8756,580.2645 439.4491,580.1113 Q439.0225,579.9582 438.585,579.9582 Q438.0491,579.9582 437.6006,580.1879 Q437.1631,580.4176 436.8131,580.9426 Q436.4741,581.4676 436.4741,582.1895 L436.4741,582.9551 Q436.4741,583.8191 437.0975,584.3988 Q437.7209,584.9676 438.8366,584.9676 Q439.4928,584.9676 439.9522,584.7926 Q440.2256,584.6832 440.5209,584.377 Q440.7069,584.191 440.8053,584.1363 Q440.9147,584.0816 441.0569,584.0816 Q441.2866,584.0816 441.4616,584.2676 Q441.6475,584.4426 441.6475,584.6832 Q441.6475,584.9238 441.4069,585.2082 Q441.0569,585.6129 440.4991,585.8426 Q439.7444,586.1598 438.8366,586.1598 Q437.7756,586.1598 436.9334,585.7223 Q436.2444,585.3723 435.7631,584.6285 Q435.2819,583.8738 435.2819,582.977 L435.2819,582.1676 Q435.2819,581.2379 435.7084,580.4395 Q436.1459,579.6301 436.9116,579.2035 Q437.6772,578.766 438.5412,578.766 Q439.0553,578.766 439.5037,578.8863 Q439.9631,578.9957 440.3459,579.2473 Z " fill="#000000"/><text fill="#000000" font-family="sans-serif" font-size="9.8" lengthAdjust="spacing" textLength="114.1" x="452.69" y="586.1926">AnnouncementRepository</text><line style="stroke:#181818;stroke-width:0.3499999999999999;" x1="408.45" x2="588.35" y1="593.3348" y2="593.3348"/><text fill="#000000" font-family="sans-serif" font-size="9.8" lengthAdjust="spacing" textLength="172.9" x="411.95" y="606.71">-List&lt;Announcement&gt; announcements:</text><line style="stroke:#181818;stroke-width:0.3499999999999999;" x1="408.45" x2="588.35" y1="611.9695" y2="611.9695"/><text fill="#000000" font-family="sans-serif" font-size="9.8" lengthAdjust="spacing" textLength="161.7" x="411.95" y="625.3447">+addAnnouncement(announcement)</text></g><!--class AnnouncementDTO--><g id="elem_AnnouncementDTO"><rect codeLine="81" fill="#F1F1F1" filter="url(#f1ev3xzt8p8ir1)" height="33.6" id="AnnouncementDTO" rx="1.75" ry="1.75" style="stroke:#181818;stroke-width:0.3499999999999999;" width="109.9" x="134.75" y="995.1348"/><ellipse cx="145.25" cy="1006.3348" fill="#ADD1B2" rx="7.7" ry="7.7" style="stroke:#181818;stroke-width:0.6999999999999998;"/><path d="M147.1859,1003.4473 Q147.2953,1003.2941 147.4266,1003.2176 Q147.5578,1003.141 147.7109,1003.141 Q147.9734,1003.141 148.1375,1003.327 Q148.3016,1003.502 148.3016,1003.9285 L148.3016,1004.9457 Q148.3016,1005.3723 148.1375,1005.5582 Q147.9734,1005.7441 147.7109,1005.7441 Q147.4703,1005.7441 147.3281,1005.602 Q147.1859,1005.4707 147.1094,1005.1098 Q147.0766,1004.8582 146.9453,1004.727 Q146.7156,1004.4645 146.2891,1004.3113 Q145.8625,1004.1582 145.425,1004.1582 Q144.8891,1004.1582 144.4406,1004.3879 Q144.0031,1004.6176 143.6531,1005.1426 Q143.3141,1005.6676 143.3141,1006.3895 L143.3141,1007.1551 Q143.3141,1008.0191 143.9375,1008.5988 Q144.5609,1009.1676 145.6766,1009.1676 Q146.3328,1009.1676 146.7922,1008.9926 Q147.0656,1008.8832 147.3609,1008.577 Q147.5469,1008.391 147.6453,1008.3363 Q147.7547,1008.2816 147.8969,1008.2816 Q148.1266,1008.2816 148.3016,1008.4676 Q148.4875,1008.6426 148.4875,1008.8832 Q148.4875,1009.1238 148.2469,1009.4082 Q147.8969,1009.8129 147.3391,1010.0426 Q146.5844,1010.3598 145.6766,1010.3598 Q144.6156,1010.3598 143.7734,1009.9223 Q143.0844,1009.5723 142.6031,1008.8285 Q142.1219,1008.0738 142.1219,1007.177 L142.1219,1006.3676 Q142.1219,1005.4379 142.5484,1004.6395 Q142.9859,1003.8301 143.7516,1003.4035 Q144.5172,1002.966 145.3812,1002.966 Q145.8953,1002.966 146.3437,1003.0863 Q146.8031,1003.1957 147.1859,1003.4473 Z " fill="#000000"/><text fill="#000000" font-family="sans-serif" font-size="9.8" lengthAdjust="spacing" textLength="87.5" x="155.05" y="1010.3926">AnnouncementDTO</text><line style="stroke:#181818;stroke-width:0.3499999999999999;" x1="135.45" x2="243.95" y1="1017.5348" y2="1017.5348"/><line style="stroke:#181818;stroke-width:0.3499999999999999;" x1="135.45" x2="243.95" y1="1023.1348" y2="1023.1348"/></g><!--class AnnouncementMapper--><g id="elem_AnnouncementMapper"><rect codeLine="84" fill="#F1F1F1" filter="url(#f1ev3xzt8p8ir1)" height="46.6348" id="AnnouncementMapper" rx="1.75" ry="1.75" style="stroke:#181818;stroke-width:0.3499999999999999;" width="149.8" x="102.2" y="1071.4348"/><ellipse cx="124.985" cy="1082.6348" fill="#ADD1B2" rx="7.7" ry="7.7" style="stroke:#181818;stroke-width:0.6999999999999998;"/><path d="M126.9209,1079.7473 Q127.0303,1079.5941 127.1616,1079.5176 Q127.2928,1079.441 127.4459,1079.441 Q127.7084,1079.441 127.8725,1079.627 Q128.0366,1079.802 128.0366,1080.2285 L128.0366,1081.2457 Q128.0366,1081.6723 127.8725,1081.8582 Q127.7084,1082.0441 127.4459,1082.0441 Q127.2053,1082.0441 127.0631,1081.902 Q126.9209,1081.7707 126.8444,1081.4098 Q126.8116,1081.1582 126.6803,1081.027 Q126.4506,1080.7645 126.0241,1080.6113 Q125.5975,1080.4582 125.16,1080.4582 Q124.6241,1080.4582 124.1756,1080.6879 Q123.7381,1080.9176 123.3881,1081.4426 Q123.0491,1081.9676 123.0491,1082.6895 L123.0491,1083.4551 Q123.0491,1084.3191 123.6725,1084.8988 Q124.2959,1085.4676 125.4116,1085.4676 Q126.0678,1085.4676 126.5272,1085.2926 Q126.8006,1085.1832 127.0959,1084.877 Q127.2819,1084.691 127.3803,1084.6363 Q127.4897,1084.5816 127.6319,1084.5816 Q127.8616,1084.5816 128.0366,1084.7676 Q128.2225,1084.9426 128.2225,1085.1832 Q128.2225,1085.4238 127.9819,1085.7082 Q127.6319,1086.1129 127.0741,1086.3426 Q126.3194,1086.6598 125.4116,1086.6598 Q124.3506,1086.6598 123.5084,1086.2223 Q122.8194,1085.8723 122.3381,1085.1285 Q121.8569,1084.3738 121.8569,1083.477 L121.8569,1082.6676 Q121.8569,1081.7379 122.2834,1080.9395 Q122.7209,1080.1301 123.4866,1079.7035 Q124.2522,1079.266 125.1162,1079.266 Q125.6303,1079.266 126.0787,1079.3863 Q126.5381,1079.4957 126.9209,1079.7473 Z " fill="#000000"/><text fill="#000000" font-family="sans-serif" font-size="9.8" lengthAdjust="spacing" textLength="100.1" x="137.515" y="1086.6926">AnnouncementMapper</text><line style="stroke:#181818;stroke-width:0.3499999999999999;" x1="102.9" x2="251.3" y1="1093.8348" y2="1093.8348"/><line style="stroke:#181818;stroke-width:0.3499999999999999;" x1="102.9" x2="251.3" y1="1099.4348" y2="1099.4348"/><text fill="#000000" font-family="sans-serif" font-size="9.8" lengthAdjust="spacing" textLength="141.4" x="106.4" y="1112.81">+toDomain(announcementDTO)</text></g><!--class AnnouncementRequestMapper--><g id="elem_AnnouncementRequestMapper"><rect codeLine="88" fill="#F1F1F1" filter="url(#f1ev3xzt8p8ir1)" height="46.6348" id="AnnouncementRequestMapper" rx="1.75" ry="1.75" style="stroke:#181818;stroke-width:0.3499999999999999;" width="159.6" x="112.7" y="905.5348"/><ellipse cx="123.2" cy="916.7348" fill="#ADD1B2" rx="7.7" ry="7.7" style="stroke:#181818;stroke-width:0.6999999999999998;"/><path d="M125.1359,913.8473 Q125.2453,913.6941 125.3766,913.6176 Q125.5078,913.541 125.6609,913.541 Q125.9234,913.541 126.0875,913.727 Q126.2516,913.902 126.2516,914.3285 L126.2516,915.3457 Q126.2516,915.7723 126.0875,915.9582 Q125.9234,916.1441 125.6609,916.1441 Q125.4203,916.1441 125.2781,916.002 Q125.1359,915.8707 125.0594,915.5098 Q125.0266,915.2582 124.8953,915.127 Q124.6656,914.8645 124.2391,914.7113 Q123.8125,914.5582 123.375,914.5582 Q122.8391,914.5582 122.3906,914.7879 Q121.9531,915.0176 121.6031,915.5426 Q121.2641,916.0676 121.2641,916.7895 L121.2641,917.5551 Q121.2641,918.4191 121.8875,918.9988 Q122.5109,919.5676 123.6266,919.5676 Q124.2828,919.5676 124.7422,919.3926 Q125.0156,919.2832 125.3109,918.977 Q125.4969,918.791 125.5953,918.7363 Q125.7047,918.6816 125.8469,918.6816 Q126.0766,918.6816 126.2516,918.8676 Q126.4375,919.0426 126.4375,919.2832 Q126.4375,919.5238 126.1969,919.8082 Q125.8469,920.2129 125.2891,920.4426 Q124.5344,920.7598 123.6266,920.7598 Q122.5656,920.7598 121.7234,920.3223 Q121.0344,919.9723 120.5531,919.2285 Q120.0719,918.4738 120.0719,917.577 L120.0719,916.7676 Q120.0719,915.8379 120.4984,915.0395 Q120.9359,914.2301 121.7016,913.8035 Q122.4672,913.366 123.3312,913.366 Q123.8453,913.366 124.2937,913.4863 Q124.7531,913.5957 125.1359,913.8473 Z " fill="#000000"/><text fill="#000000" font-family="sans-serif" font-size="9.8" lengthAdjust="spacing" textLength="137.2" x="133" y="920.7926">AnnouncementRequestMapper</text><line style="stroke:#181818;stroke-width:0.3499999999999999;" x1="113.4" x2="271.6" y1="927.9348" y2="927.9348"/><line style="stroke:#181818;stroke-width:0.3499999999999999;" x1="113.4" x2="271.6" y1="933.5348" y2="933.5348"/><text fill="#000000" font-family="sans-serif" font-size="9.8" lengthAdjust="spacing" textLength="75.6" x="116.9" y="946.91">+toDTO(request)</text></g><!--class CurrentUser--><g id="elem_CurrentUser"><rect codeLine="92" fill="#F1F1F1" filter="url(#f1ev3xzt8p8ir1)" height="59.6695" id="CurrentUser" rx="1.75" ry="1.75" style="stroke:#181818;stroke-width:0.3499999999999999;" width="76.3" x="387.45" y="455.7848"/><ellipse cx="397.95" cy="466.9848" fill="#ADD1B2" rx="7.7" ry="7.7" style="stroke:#181818;stroke-width:0.6999999999999998;"/><path d="M399.8859,464.0973 Q399.9953,463.9441 400.1266,463.8676 Q400.2578,463.791 400.4109,463.791 Q400.6734,463.791 400.8375,463.977 Q401.0016,464.152 401.0016,464.5785 L401.0016,465.5957 Q401.0016,466.0223 400.8375,466.2082 Q400.6734,466.3941 400.4109,466.3941 Q400.1703,466.3941 400.0281,466.252 Q399.8859,466.1207 399.8094,465.7598 Q399.7766,465.5082 399.6453,465.377 Q399.4156,465.1145 398.9891,464.9613 Q398.5625,464.8082 398.125,464.8082 Q397.5891,464.8082 397.1406,465.0379 Q396.7031,465.2676 396.3531,465.7926 Q396.0141,466.3176 396.0141,467.0395 L396.0141,467.8051 Q396.0141,468.6691 396.6375,469.2488 Q397.2609,469.8176 398.3766,469.8176 Q399.0328,469.8176 399.4922,469.6426 Q399.7656,469.5332 400.0609,469.227 Q400.2469,469.041 400.3453,468.9863 Q400.4547,468.9316 400.5969,468.9316 Q400.8266,468.9316 401.0016,469.1176 Q401.1875,469.2926 401.1875,469.5332 Q401.1875,469.7738 400.9469,470.0582 Q400.5969,470.4629 400.0391,470.6926 Q399.2844,471.0098 398.3766,471.0098 Q397.3156,471.0098 396.4734,470.5723 Q395.7844,470.2223 395.3031,469.4785 Q394.8219,468.7238 394.8219,467.827 L394.8219,467.0176 Q394.8219,466.0879 395.2484,465.2895 Q395.6859,464.4801 396.4516,464.0535 Q397.2172,463.616 398.0812,463.616 Q398.5953,463.616 399.0437,463.7363 Q399.5031,463.8457 399.8859,464.0973 Z " fill="#000000"/><text fill="#000000" font-family="sans-serif" font-size="9.8" lengthAdjust="spacing" textLength="53.9" x="407.75" y="471.0426">CurrentUser</text><line style="stroke:#181818;stroke-width:0.3499999999999999;" x1="388.15" x2="463.05" y1="478.1848" y2="478.1848"/><text fill="#000000" font-family="sans-serif" font-size="9.8" lengthAdjust="spacing" textLength="58.1" x="391.65" y="491.56">-email: String</text><line style="stroke:#181818;stroke-width:0.3499999999999999;" x1="388.15" x2="463.05" y1="496.8195" y2="496.8195"/><text fill="#000000" font-family="sans-serif" font-size="9.8" lengthAdjust="spacing" textLength="50.4" x="391.65" y="510.1947">+getEmail()</text></g><!--link PublishAnnouncementUI to PublishAnnouncementController--><g id="link_PublishAnnouncementUI_PublishAnnouncementController"><path codeLine="97" d="M240.1,233.3248 C240.1,246.6808 240.1,266.3928 240.1,285.0828 " fill="none" id="PublishAnnouncementUI-to-PublishAnnouncementController" style="stroke:#181818;stroke-width:0.6999999999999998;stroke-dasharray:7.0,7.0;"/><polygon fill="#181818" points="240.1,288.8068,242.9,282.5068,240.1,285.3068,237.3,282.5068,240.1,288.8068" style="stroke:#181818;stroke-width:0.6999999999999998;"/></g><!--link Agent to PublishAnnouncementUI--><g id="link_Agent_PublishAnnouncementUI"><path codeLine="98" d="M162.519,131.4538 C183.393,154.1128 206.99,179.7398 222.621,196.7078 " fill="none" id="Agent-to-PublishAnnouncementUI" style="stroke:#181818;stroke-width:0.6999999999999998;"/><polygon fill="#181818" points="225.064,199.3608,222.8641,192.827,222.6963,196.7832,218.74,196.6154,225.064,199.3608" style="stroke:#181818;stroke-width:0.6999999999999998;"/></g><!--link PublishAnnouncementController to Repositories--><g id="link_PublishAnnouncementController_Repositories"><path codeLine="99" d="M240.1,387.6888 C240.1,404.2508 240.1,422.6888 240.1,439.0128 " fill="none" id="PublishAnnouncementController-to-Repositories" style="stroke:#181818;stroke-width:0.6999999999999998;stroke-dasharray:7.0,7.0;"/><polygon fill="#181818" points="240.1,442.6738,242.9,436.3738,240.1,439.1738,237.3,436.3738,240.1,442.6738" style="stroke:#181818;stroke-width:0.6999999999999998;"/></g><!--link Repositories to RequestRepository--><g id="link_Repositories_RequestRepository"><path codeLine="100" d="M240.1,528.2698 C240.1,541.1148 240.1,555.0518 240.1,567.1898 " fill="none" id="Repositories-to-RequestRepository" style="stroke:#181818;stroke-width:0.6999999999999998;"/><polygon fill="#181818" points="240.1,570.8928,242.9,564.5928,240.1,567.3928,237.3,564.5928,240.1,570.8928" style="stroke:#181818;stroke-width:0.6999999999999998;"/></g><!--link Repositories to AnnouncementRepository--><g id="link_Repositories_AnnouncementRepository"><path codeLine="101" d="M335.545,528.2698 C366.478,541.8918 400.19,556.7318 428.869,569.3668 " fill="none" id="Repositories-to-AnnouncementRepository" style="stroke:#181818;stroke-width:0.6999999999999998;"/><polygon fill="#181818" points="432.341,570.8928,427.7049,565.7902,429.1381,569.4815,425.4468,570.9148,432.341,570.8928" style="stroke:#181818;stroke-width:0.6999999999999998;"/></g><!--link RequestRepository to AnnouncementRequest--><g id="link_RequestRepository_AnnouncementRequest"><path codeLine="102" d="M238.672,630.5958 C237.965,645.0928 237.069,663.4888 236.159,682.2138 " fill="none" id="RequestRepository-to-AnnouncementRequest" style="stroke:#181818;stroke-width:0.6999999999999998;"/><polygon fill="#181818" points="235.984,685.7138,239.0872,679.5575,236.1543,682.2179,233.4938,679.285,235.984,685.7138" style="stroke:#181818;stroke-width:0.6999999999999998;"/><text fill="#000000" font-family="sans-serif" font-size="9.1" lengthAdjust="spacing" textLength="26.6" x="238.7" y="661.9546">Stores</text><text fill="#000000" font-family="sans-serif" font-size="9.1" lengthAdjust="spacing" textLength="4.9" x="233.1539" y="646.1337">1</text><text fill="#000000" font-family="sans-serif" font-size="9.1" lengthAdjust="spacing" textLength="14" x="221.8185" y="677.8835">0..*</text></g><!--link PublishAnnouncementController to Announcement--><g id="link_PublishAnnouncementController_Announcement"><path codeLine="103" d="M125.657,387.5698 C90.174,410.7678 60.2,442.8068 60.2,484.8348 C60.2,484.8348 60.2,484.8348 60.2,1095.5848 C60.2,1115.5838 61.628,1137.1018 63.567,1157.1428 " fill="none" id="PublishAnnouncementController-to-Announcement" style="stroke:#181818;stroke-width:0.6999999999999998;"/><polygon fill="#181818" points="63.931,1160.8668,66.0865,1154.3182,63.5808,1157.3843,60.5146,1154.8786,63.931,1160.8668" style="stroke:#181818;stroke-width:0.6999999999999998;"/></g><!--link AnnouncementRequest to AnnouncementRequestMapper--><g id="link_AnnouncementRequest_AnnouncementRequestMapper"><path codeLine="104" d="M209.181,863.0518 C205.597,877.0798 202.139,890.5828 199.318,901.6358 " fill="none" id="AnnouncementRequest-to-AnnouncementRequestMapper" style="stroke:#181818;stroke-width:0.6999999999999998;"/><polygon fill="#181818" points="198.38,905.2828,202.6582,899.8765,199.25,901.8926,197.234,898.4845,198.38,905.2828" style="stroke:#181818;stroke-width:0.6999999999999998;"/></g><!--link PublishAnnouncementController to CurrentUser--><g id="link_PublishAnnouncementController_CurrentUser"><path codeLine="105" d="M303.982,387.6748 C326.396,404.9578 351.666,424.6278 374.5,442.8348 C378.812,446.2718 383.306,449.8978 387.758,453.5238 " fill="none" id="PublishAnnouncementController-to-CurrentUser" style="stroke:#181818;stroke-width:0.6999999999999998;"/><polygon fill="#181818" points="390.523,455.7778,387.3991,449.6319,387.8066,453.5707,383.8678,453.9782,390.523,455.7778" style="stroke:#181818;stroke-width:0.6999999999999998;"/><text fill="#000000" font-family="sans-serif" font-size="9.1" lengthAdjust="spacing" textLength="65.1" x="346.5" y="419.0546">getAgentEmail()</text></g><!--link Agent to Commission--><g id="link_Agent_Commission"><path codeLine="106" d="M111.181,131.4538 C108.934,148.5408 106.463,167.3218 104.426,182.7988 " fill="none" id="Agent-to-Commission" style="stroke:#181818;stroke-width:0.6999999999999998;"/><polygon fill="#181818" points="103.943,186.4528,107.53,180.5652,104.3931,182.9818,101.9765,179.845,103.943,186.4528" style="stroke:#181818;stroke-width:0.6999999999999998;"/><text fill="#000000" font-family="sans-serif" font-size="9.1" lengthAdjust="spacing" textLength="17.5" x="109.2" y="162.8546">sets</text></g><!--link AnnouncementRequestMapper to AnnouncementDTO--><g id="link_AnnouncementRequestMapper_AnnouncementDTO"><path codeLine="107" d="M191.716,952.6168 C191.296,964.8318 190.785,979.6998 190.379,991.4038 " fill="none" id="AnnouncementRequestMapper-to-AnnouncementDTO" style="stroke:#181818;stroke-width:0.6999999999999998;"/><polygon fill="#181818" points="190.26,994.9318,193.2742,988.7314,190.3799,991.4338,187.6775,988.5395,190.26,994.9318" style="stroke:#181818;stroke-width:0.6999999999999998;"/><text fill="#000000" font-family="sans-serif" font-size="9.1" lengthAdjust="spacing" textLength="4.9" x="184.8993" y="987.2816">1</text></g><!--link AnnouncementDTO to AnnouncementMapper--><g id="link_AnnouncementDTO_AnnouncementMapper"><path codeLine="108" d="M187.208,1028.7488 C185.493,1039.8648 183.169,1054.8938 181.181,1067.7528 " fill="none" id="AnnouncementDTO-to-AnnouncementMapper" style="stroke:#181818;stroke-width:0.6999999999999998;"/><polygon fill="#181818" points="180.635,1071.3158,184.3566,1065.5124,181.1649,1067.8561,178.8212,1064.6644,180.635,1071.3158" style="stroke:#181818;stroke-width:0.6999999999999998;"/></g><!--link AnnouncementMapper to Announcement--><g id="link_AnnouncementMapper_Announcement"><path codeLine="109" d="M160.335,1118.4468 C152.222,1129.5138 141.953,1143.5208 131.355,1157.9758 " fill="none" id="AnnouncementMapper-to-Announcement" style="stroke:#181818;stroke-width:0.6999999999999998;"/><polygon fill="#181818" points="129.234,1160.8738,135.2191,1157.452,131.3051,1158.0523,130.7048,1154.1383,129.234,1160.8738" style="stroke:#181818;stroke-width:0.6999999999999998;"/></g><!--SRC=[XLNRRjim37tNLn1vQXSuIDy6OmXGf0DQO9SWQJz0iGb7g2rvajmk6_RlewJ4bYz9dnBnpiD3shmAMNFDAwXvzieBtDbZYQ0nirmM9JBJ6fW3pzMxa0LOtI2BD5d9ZRctLejzO_4fKt8d_Y0icHMMWhtibilFaC3QcS63u0KvCUQzuBv0QU4l0u34yjy_ccgFEWKXhHTXnKLvd-SQZKbXHobauHNrGKaSMjSKiLRQdkHEDY_GVdL1RcxPlpQfbAgH6LQKUuk_6ZIXX4I7n_EnnXJCELkYtgLBys9GksUjLOtQ7bFOdFuvwK4rXhmUtOzxSmB7kWmfRD6872bXy1OPsUMgsPSOaagxQOL1bgcg4iO89LDOj_-T9kSM8oGINlWK7aTV1jyBoorPXouUUsys3S9f0Fq-Hx6lbDMsrJRZXODYBq07oRunGjA8GydRRWfEU_O9oatqyWFkEkeg2jDyusNZGCLCLBpqsAFEg43ggnEtxXiQY32769UN9ufqrMAjfDMgB56xdCatOUoN2NezFF-yXHExd0sz6SmpZGJGjYScdiBSy3Vikl6YO1k7lZd5SrfYkP_IYEfRh9KHLcc1fiTnKdZviSMxDVLqvhqcpffqi3kHXwjX5CcL7ggRTEjNEl3rrGP0ypSQkJ0negipd7GNflJzYipbzJ-dWoXVPB2260dZZigSvtbl4B75xSKDcvJJn2-fllEw3hI2kLKFYaOhUwaSgQuUjK448bTBcMvf6krsrkryGC2Vt6Xf1nTqUaiMYzNrxM3Xq2V9QdhFsFNTSl5ZAhCUhrtKCOb79XUeE_A4sTsCx6VBnUBJR0fNXuwYJz87HIV3f6pgmpEkB9hTXnbMyG1J6Dw13lLrTBeDMiCkyyNrVZSRqfGDQJii_5Jn18M7bly1]--></g></svg>