<?xml version="1.0" encoding="us-ascii" standalone="no"?><svg xmlns="http://www.w3.org/2000/svg" xmlns:xlink="http://www.w3.org/1999/xlink" contentStyleType="text/css" height="2158px" preserveAspectRatio="none" style="width:2359px;height:2158px;background:#FFFFFF;" version="1.1" viewBox="0 0 2359 2158" width="2359px" zoomAndPan="magnify"><defs/><g><rect fill="#FFFFFF" height="1963.6641" style="stroke:#181818;stroke-width:1.0;" width="10" x="76" y="93.6211"/><rect fill="#FFFFFF" height="342.5313" style="stroke:#181818;stroke-width:1.0;" width="10" x="387" y="116.9121"/><rect fill="#FFFFFF" height="31.291" style="stroke:#181818;stroke-width:1.0;" width="10" x="387" y="490.7344"/><rect fill="#FFFFFF" height="31.291" style="stroke:#181818;stroke-width:1.0;" width="10" x="387" y="587.8984"/><rect fill="#FFFFFF" height="1406.8047" style="stroke:#181818;stroke-width:1.0;" width="10" x="387" y="650.4805"/><rect fill="#FFFFFF" height="219.0371" style="stroke:#181818;stroke-width:1.0;" width="10" x="580" y="191.8242"/><rect fill="#FFFFFF" height="1257.7676" style="stroke:#181818;stroke-width:1.0;" width="10" x="580" y="768.2266"/><rect fill="#FFFFFF" height="230.0371" style="stroke:#181818;stroke-width:1.0;" width="10" x="585" y="807.5176"/><rect fill="#FFFFFF" height="513.6563" style="stroke:#181818;stroke-width:1.0;" width="10" x="585" y="1108.8457"/><rect fill="#FFFFFF" height="31.291" style="stroke:#181818;stroke-width:1.0;" width="10" x="951" y="223.1152"/><rect fill="#FFFFFF" height="31.291" style="stroke:#181818;stroke-width:1.0;" width="10" x="951" y="843.8086"/><rect fill="#FFFFFF" height="31.291" style="stroke:#181818;stroke-width:1.0;" width="10" x="1058" y="285.6973"/><rect fill="#FFFFFF" height="31.291" style="stroke:#181818;stroke-width:1.0;" width="10" x="1058" y="906.3906"/><rect fill="#FFFFFF" height="31.291" style="stroke:#181818;stroke-width:1.0;" width="10" x="1058" y="1332.8828"/><rect fill="#FFFFFF" height="31.291" style="stroke:#181818;stroke-width:1.0;" width="10" x="1202" y="348.2793"/><rect fill="#FFFFFF" height="31.291" style="stroke:#181818;stroke-width:1.0;" width="10" x="1202" y="968.9727"/><rect fill="#FFFFFF" height="31.291" style="stroke:#181818;stroke-width:1.0;" width="10" x="1366" y="1145.1367"/><rect fill="#FFFFFF" height="31.291" style="stroke:#181818;stroke-width:1.0;" width="10" x="1513" y="1207.7188"/><rect fill="#FFFFFF" height="31.291" style="stroke:#181818;stroke-width:1.0;" width="10" x="1646" y="1270.3008"/><rect fill="#FFFFFF" height="127.1641" style="stroke:#181818;stroke-width:1.0;" width="10" x="1792" y="1395.4648"/><rect fill="#FFFFFF" height="31.291" style="stroke:#181818;stroke-width:1.0;" width="10" x="2013" y="1453.0469"/><rect fill="#FFFFFF" height="31.291" style="stroke:#181818;stroke-width:1.0;" width="10" x="2013" y="1553.9199"/><rect fill="#FFFFFF" height="274.3281" style="stroke:#181818;stroke-width:1.0;" width="10" x="2013" y="1720.375"/><rect fill="#FFFFFF" height="130.873" style="stroke:#181818;stroke-width:1.0;" width="10" x="2018" y="1825.5391"/><rect fill="#FFFFFF" height="42.291" style="stroke:#181818;stroke-width:1.0;" width="10" x="2023" y="1869.8301"/><rect fill="none" height="81.873" style="stroke:#000000;stroke-width:1.5;" width="371.5" x="1705.5" y="1410.4648"/><line style="stroke:#181818;stroke-width:0.5;stroke-dasharray:5.0,5.0;" x1="81" x2="81" y1="83.6211" y2="2075.2852"/><line style="stroke:#181818;stroke-width:0.5;stroke-dasharray:5.0,5.0;" x1="392" x2="392" y1="83.6211" y2="2075.2852"/><line style="stroke:#181818;stroke-width:0.5;stroke-dasharray:5.0,5.0;" x1="585" x2="585" y1="156.7227" y2="2075.2852"/><line style="stroke:#181818;stroke-width:0.5;stroke-dasharray:5.0,5.0;" x1="955.5" x2="955.5" y1="83.6211" y2="2075.2852"/><line style="stroke:#181818;stroke-width:0.5;stroke-dasharray:5.0,5.0;" x1="1062.5" x2="1062.5" y1="83.6211" y2="2075.2852"/><line style="stroke:#181818;stroke-width:0.5;stroke-dasharray:5.0,5.0;" x1="1206.5" x2="1206.5" y1="83.6211" y2="2075.2852"/><line style="stroke:#181818;stroke-width:0.5;stroke-dasharray:5.0,5.0;" x1="1370.5" x2="1370.5" y1="83.6211" y2="2075.2852"/><line style="stroke:#181818;stroke-width:0.5;stroke-dasharray:5.0,5.0;" x1="1517.5" x2="1517.5" y1="83.6211" y2="2075.2852"/><line style="stroke:#181818;stroke-width:0.5;stroke-dasharray:5.0,5.0;" x1="1650.5" x2="1650.5" y1="83.6211" y2="2075.2852"/><line style="stroke:#181818;stroke-width:0.5;stroke-dasharray:5.0,5.0;" x1="1796.5" x2="1796.5" y1="83.6211" y2="2075.2852"/><line style="stroke:#181818;stroke-width:0.5;stroke-dasharray:5.0,5.0;" x1="2018" x2="2018" y1="83.6211" y2="2075.2852"/><line style="stroke:#181818;stroke-width:0.5;stroke-dasharray:5.0,5.0;" x1="2328" x2="2328" y1="1771.3115" y2="2075.2852"/><text fill="#000000" font-family="sans-serif" font-size="14" lengthAdjust="spacing" textLength="146" x="5" y="80.1074">Organization Employee</text><ellipse cx="81" cy="13.5" fill="#E3E3E3" rx="8" ry="8" style="stroke:#181818;stroke-width:0.5;"/><path d="M81,21.5 L81,48.5 M68,29.5 L94,29.5 M81,48.5 L68,63.5 M81,48.5 L94,63.5 " fill="none" style="stroke:#181818;stroke-width:0.5;"/><text fill="#000000" font-family="sans-serif" font-size="14" lengthAdjust="spacing" textLength="146" x="5" y="2089.3926">Organization Employee</text><ellipse cx="81" cy="2101.4063" fill="#E3E3E3" rx="8" ry="8" style="stroke:#181818;stroke-width:0.5;"/><path d="M81,2109.4063 L81,2136.4063 M68,2117.4063 L94,2117.4063 M81,2136.4063 L68,2151.4063 M81,2136.4063 L94,2151.4063 " fill="none" style="stroke:#181818;stroke-width:0.5;"/><rect fill="#E3E3E3" height="32.6211" rx="2.5" ry="2.5" style="stroke:#181818;stroke-width:0.5;" width="104" x="340" y="50"/><text fill="#000000" font-family="sans-serif" font-size="14" lengthAdjust="spacing" textLength="90" x="347" y="72.1074">:CreateTaskUI</text><rect fill="#E3E3E3" height="32.6211" rx="2.5" ry="2.5" style="stroke:#181818;stroke-width:0.5;" width="104" x="340" y="2074.2852"/><text fill="#000000" font-family="sans-serif" font-size="14" lengthAdjust="spacing" textLength="90" x="347" y="2096.3926">:CreateTaskUI</text><rect fill="#E3E3E3" height="32.6211" rx="2.5" ry="2.5" style="stroke:#181818;stroke-width:0.5;" width="154" x="508" y="2074.2852"/><text fill="#000000" font-family="sans-serif" font-size="14" lengthAdjust="spacing" textLength="140" x="515" y="2096.3926">:CreateTaskController</text><rect fill="#E3E3E3" height="32.6211" rx="2.5" ry="2.5" style="stroke:#181818;stroke-width:0.5;" width="97" x="907.5" y="50"/><text fill="#000000" font-family="sans-serif" font-size="14" lengthAdjust="spacing" textLength="83" x="914.5" y="72.1074">:Repositories</text><rect fill="#E3E3E3" height="32.6211" rx="2.5" ry="2.5" style="stroke:#181818;stroke-width:0.5;" width="97" x="907.5" y="2074.2852"/><text fill="#000000" font-family="sans-serif" font-size="14" lengthAdjust="spacing" textLength="83" x="914.5" y="2096.3926">:Repositories</text><rect fill="#E3E3E3" height="51.2422" rx="2.5" ry="2.5" style="stroke:#181818;stroke-width:0.5;" width="97" x="1014.5" y="31.3789"/><text fill="#000000" font-family="sans-serif" font-size="14" lengthAdjust="spacing" textLength="74" x="1026" y="53.4863">repositories</text><text fill="#000000" font-family="sans-serif" font-size="14" lengthAdjust="spacing" textLength="83" x="1021.5" y="72.1074">:Repositories</text><rect fill="#E3E3E3" height="51.2422" rx="2.5" ry="2.5" style="stroke:#181818;stroke-width:0.5;" width="97" x="1014.5" y="2074.2852"/><text fill="#000000" font-family="sans-serif" font-size="14" lengthAdjust="spacing" textLength="74" x="1026" y="2096.3926">repositories</text><text fill="#000000" font-family="sans-serif" font-size="14" lengthAdjust="spacing" textLength="83" x="1021.5" y="2115.0137">:Repositories</text><rect fill="#E3E3E3" height="51.2422" rx="2.5" ry="2.5" style="stroke:#181818;stroke-width:0.5;" width="171" x="1121.5" y="31.3789"/><text fill="#000000" font-family="sans-serif" font-size="14" lengthAdjust="spacing" textLength="156" x="1129" y="53.4863">taskCategoryRepository:</text><text fill="#000000" font-family="sans-serif" font-size="14" lengthAdjust="spacing" textLength="157" x="1128.5" y="72.1074">TaskCategoryRepository</text><rect fill="#E3E3E3" height="51.2422" rx="2.5" ry="2.5" style="stroke:#181818;stroke-width:0.5;" width="171" x="1121.5" y="2074.2852"/><text fill="#000000" font-family="sans-serif" font-size="14" lengthAdjust="spacing" textLength="156" x="1129" y="2096.3926">taskCategoryRepository:</text><text fill="#000000" font-family="sans-serif" font-size="14" lengthAdjust="spacing" textLength="157" x="1128.5" y="2115.0137">TaskCategoryRepository</text><rect fill="#E3E3E3" height="32.6211" rx="2.5" ry="2.5" style="stroke:#181818;stroke-width:0.5;" width="137" x="1302.5" y="50"/><text fill="#000000" font-family="sans-serif" font-size="14" lengthAdjust="spacing" textLength="123" x="1309.5" y="72.1074">:ApplicationSession</text><rect fill="#E3E3E3" height="32.6211" rx="2.5" ry="2.5" style="stroke:#181818;stroke-width:0.5;" width="137" x="1302.5" y="2074.2852"/><text fill="#000000" font-family="sans-serif" font-size="14" lengthAdjust="spacing" textLength="123" x="1309.5" y="2096.3926">:ApplicationSession</text><rect fill="#E3E3E3" height="51.2422" rx="2.5" ry="2.5" style="stroke:#181818;stroke-width:0.5;" width="137" x="1449.5" y="31.3789"/><text fill="#000000" font-family="sans-serif" font-size="14" lengthAdjust="spacing" textLength="74" x="1481" y="53.4863">appSession</text><text fill="#000000" font-family="sans-serif" font-size="14" lengthAdjust="spacing" textLength="123" x="1456.5" y="72.1074">:ApplicationSession</text><rect fill="#E3E3E3" height="51.2422" rx="2.5" ry="2.5" style="stroke:#181818;stroke-width:0.5;" width="137" x="1449.5" y="2074.2852"/><text fill="#000000" font-family="sans-serif" font-size="14" lengthAdjust="spacing" textLength="74" x="1481" y="2096.3926">appSession</text><text fill="#000000" font-family="sans-serif" font-size="14" lengthAdjust="spacing" textLength="123" x="1456.5" y="2115.0137">:ApplicationSession</text><rect fill="#E3E3E3" height="51.2422" rx="2.5" ry="2.5" style="stroke:#181818;stroke-width:0.5;" width="109" x="1596.5" y="31.3789"/><text fill="#000000" font-family="sans-serif" font-size="14" lengthAdjust="spacing" textLength="95" x="1603.5" y="53.4863">currentSession</text><text fill="#000000" font-family="sans-serif" font-size="14" lengthAdjust="spacing" textLength="83" x="1609.5" y="72.1074">:UserSession</text><rect fill="#E3E3E3" height="51.2422" rx="2.5" ry="2.5" style="stroke:#181818;stroke-width:0.5;" width="109" x="1596.5" y="2074.2852"/><text fill="#000000" font-family="sans-serif" font-size="14" lengthAdjust="spacing" textLength="95" x="1603.5" y="2096.3926">currentSession</text><text fill="#000000" font-family="sans-serif" font-size="14" lengthAdjust="spacing" textLength="83" x="1609.5" y="2115.0137">:UserSession</text><rect fill="#E3E3E3" height="51.2422" rx="2.5" ry="2.5" style="stroke:#181818;stroke-width:0.5;" width="163" x="1715.5" y="31.3789"/><text fill="#000000" font-family="sans-serif" font-size="14" lengthAdjust="spacing" textLength="149" x="1722.5" y="53.4863">organizationRepository:</text><text fill="#000000" font-family="sans-serif" font-size="14" lengthAdjust="spacing" textLength="148" x="1723" y="72.1074">OrganizationRepository</text><rect fill="#E3E3E3" height="51.2422" rx="2.5" ry="2.5" style="stroke:#181818;stroke-width:0.5;" width="163" x="1715.5" y="2074.2852"/><text fill="#000000" font-family="sans-serif" font-size="14" lengthAdjust="spacing" textLength="149" x="1722.5" y="2096.3926">organizationRepository:</text><text fill="#000000" font-family="sans-serif" font-size="14" lengthAdjust="spacing" textLength="148" x="1723" y="2115.0137">OrganizationRepository</text><rect fill="#E3E3E3" height="51.2422" rx="2.5" ry="2.5" style="stroke:#181818;stroke-width:0.5;" width="98" x="1969" y="31.3789"/><text fill="#000000" font-family="sans-serif" font-size="14" lengthAdjust="spacing" textLength="77" x="1979.5" y="53.4863">organization</text><text fill="#000000" font-family="sans-serif" font-size="14" lengthAdjust="spacing" textLength="84" x="1976" y="72.1074">:Organization</text><rect fill="#E3E3E3" height="51.2422" rx="2.5" ry="2.5" style="stroke:#181818;stroke-width:0.5;" width="98" x="1969" y="2074.2852"/><text fill="#000000" font-family="sans-serif" font-size="14" lengthAdjust="spacing" textLength="77" x="1979.5" y="2096.3926">organization</text><text fill="#000000" font-family="sans-serif" font-size="14" lengthAdjust="spacing" textLength="84" x="1976" y="2115.0137">:Organization</text><rect fill="#E3E3E3" height="51.2422" rx="2.5" ry="2.5" style="stroke:#181818;stroke-width:0.5;" width="49" x="2304" y="2074.2852"/><text fill="#000000" font-family="sans-serif" font-size="14" lengthAdjust="spacing" textLength="26" x="2315.5" y="2096.3926">task</text><text fill="#000000" font-family="sans-serif" font-size="14" lengthAdjust="spacing" textLength="35" x="2311" y="2115.0137">:Task</text><rect fill="#FFFFFF" height="1963.6641" style="stroke:#181818;stroke-width:1.0;" width="10" x="76" y="93.6211"/><rect fill="#FFFFFF" height="342.5313" style="stroke:#181818;stroke-width:1.0;" width="10" x="387" y="116.9121"/><rect fill="#FFFFFF" height="31.291" style="stroke:#181818;stroke-width:1.0;" width="10" x="387" y="490.7344"/><rect fill="#FFFFFF" height="31.291" style="stroke:#181818;stroke-width:1.0;" width="10" x="387" y="587.8984"/><rect fill="#FFFFFF" height="1406.8047" style="stroke:#181818;stroke-width:1.0;" width="10" x="387" y="650.4805"/><rect fill="#FFFFFF" height="219.0371" style="stroke:#181818;stroke-width:1.0;" width="10" x="580" y="191.8242"/><rect fill="#FFFFFF" height="1257.7676" style="stroke:#181818;stroke-width:1.0;" width="10" x="580" y="768.2266"/><rect fill="#FFFFFF" height="230.0371" style="stroke:#181818;stroke-width:1.0;" width="10" x="585" y="807.5176"/><rect fill="#FFFFFF" height="513.6563" style="stroke:#181818;stroke-width:1.0;" width="10" x="585" y="1108.8457"/><rect fill="#FFFFFF" height="31.291" style="stroke:#181818;stroke-width:1.0;" width="10" x="951" y="223.1152"/><rect fill="#FFFFFF" height="31.291" style="stroke:#181818;stroke-width:1.0;" width="10" x="951" y="843.8086"/><rect fill="#FFFFFF" height="31.291" style="stroke:#181818;stroke-width:1.0;" width="10" x="1058" y="285.6973"/><rect fill="#FFFFFF" height="31.291" style="stroke:#181818;stroke-width:1.0;" width="10" x="1058" y="906.3906"/><rect fill="#FFFFFF" height="31.291" style="stroke:#181818;stroke-width:1.0;" width="10" x="1058" y="1332.8828"/><rect fill="#FFFFFF" height="31.291" style="stroke:#181818;stroke-width:1.0;" width="10" x="1202" y="348.2793"/><rect fill="#FFFFFF" height="31.291" style="stroke:#181818;stroke-width:1.0;" width="10" x="1202" y="968.9727"/><rect fill="#FFFFFF" height="31.291" style="stroke:#181818;stroke-width:1.0;" width="10" x="1366" y="1145.1367"/><rect fill="#FFFFFF" height="31.291" style="stroke:#181818;stroke-width:1.0;" width="10" x="1513" y="1207.7188"/><rect fill="#FFFFFF" height="31.291" style="stroke:#181818;stroke-width:1.0;" width="10" x="1646" y="1270.3008"/><rect fill="#FFFFFF" height="127.1641" style="stroke:#181818;stroke-width:1.0;" width="10" x="1792" y="1395.4648"/><rect fill="#FFFFFF" height="31.291" style="stroke:#181818;stroke-width:1.0;" width="10" x="2013" y="1453.0469"/><rect fill="#FFFFFF" height="31.291" style="stroke:#181818;stroke-width:1.0;" width="10" x="2013" y="1553.9199"/><rect fill="#FFFFFF" height="274.3281" style="stroke:#181818;stroke-width:1.0;" width="10" x="2013" y="1720.375"/><rect fill="#FFFFFF" height="130.873" style="stroke:#181818;stroke-width:1.0;" width="10" x="2018" y="1825.5391"/><rect fill="#FFFFFF" height="42.291" style="stroke:#181818;stroke-width:1.0;" width="10" x="2023" y="1869.8301"/><polygon fill="#181818" points="375,112.9121,385,116.9121,375,120.9121,379,116.9121" style="stroke:#181818;stroke-width:1.0;"/><line style="stroke:#181818;stroke-width:1.0;" x1="86" x2="381" y1="116.9121" y2="116.9121"/><text fill="#000000" font-family="sans-serif" font-size="13" font-weight="bold" lengthAdjust="spacing" textLength="7" x="93" y="111.6494">1</text><text fill="#000000" font-family="sans-serif" font-size="13" lengthAdjust="spacing" textLength="150" x="104" y="111.6494">asks to create a new task</text><polygon fill="#181818" points="496,144.2031,506,148.2031,496,152.2031,500,148.2031" style="stroke:#181818;stroke-width:1.0;"/><line style="stroke:#181818;stroke-width:1.0;" x1="397" x2="502" y1="148.2031" y2="148.2031"/><text fill="#000000" font-family="sans-serif" font-size="13" font-weight="bold" lengthAdjust="spacing" textLength="7" x="404" y="142.9404">2</text><text fill="#000000" font-family="sans-serif" font-size="13" lengthAdjust="spacing" textLength="36" x="415" y="142.9404">create</text><rect fill="#E3E3E3" height="32.6211" rx="2.5" ry="2.5" style="stroke:#181818;stroke-width:0.5;" width="154" x="508" y="124.9121"/><text fill="#000000" font-family="sans-serif" font-size="14" lengthAdjust="spacing" textLength="140" x="515" y="147.0195">:CreateTaskController</text><polygon fill="#181818" points="568,187.8242,578,191.8242,568,195.8242,572,191.8242" style="stroke:#181818;stroke-width:1.0;"/><line style="stroke:#181818;stroke-width:1.0;" x1="397" x2="574" y1="191.8242" y2="191.8242"/><text fill="#000000" font-family="sans-serif" font-size="13" font-weight="bold" lengthAdjust="spacing" textLength="7" x="404" y="186.5615">3</text><text fill="#000000" font-family="sans-serif" font-size="13" lengthAdjust="spacing" textLength="116" x="415" y="186.5615">getTaskCategories()</text><polygon fill="#181818" points="939,219.1152,949,223.1152,939,227.1152,943,223.1152" style="stroke:#181818;stroke-width:1.0;"/><line style="stroke:#181818;stroke-width:1.0;" x1="590" x2="945" y1="223.1152" y2="223.1152"/><text fill="#000000" font-family="sans-serif" font-size="13" font-weight="bold" lengthAdjust="spacing" textLength="7" x="597" y="217.8525">4</text><text fill="#000000" font-family="sans-serif" font-size="13" lengthAdjust="spacing" textLength="75" x="608" y="217.8525">getInstance()</text><polygon fill="#181818" points="601,250.4063,591,254.4063,601,258.4063,597,254.4063" style="stroke:#181818;stroke-width:1.0;"/><line style="stroke:#181818;stroke-width:1.0;stroke-dasharray:2.0,2.0;" x1="595" x2="955" y1="254.4063" y2="254.4063"/><text fill="#000000" font-family="sans-serif" font-size="13" font-weight="bold" lengthAdjust="spacing" textLength="7" x="607" y="249.1436">5</text><text fill="#000000" font-family="sans-serif" font-size="13" lengthAdjust="spacing" textLength="67" x="618" y="249.1436">repositories</text><polygon fill="#181818" points="1046,281.6973,1056,285.6973,1046,289.6973,1050,285.6973" style="stroke:#181818;stroke-width:1.0;"/><line style="stroke:#181818;stroke-width:1.0;" x1="590" x2="1052" y1="285.6973" y2="285.6973"/><text fill="#000000" font-family="sans-serif" font-size="13" font-weight="bold" lengthAdjust="spacing" textLength="7" x="597" y="280.4346">6</text><text fill="#000000" font-family="sans-serif" font-size="13" lengthAdjust="spacing" textLength="168" x="608" y="280.4346">getTaskCategoryRepository()</text><polygon fill="#181818" points="601,312.9883,591,316.9883,601,320.9883,597,316.9883" style="stroke:#181818;stroke-width:1.0;"/><line style="stroke:#181818;stroke-width:1.0;stroke-dasharray:2.0,2.0;" x1="595" x2="1062" y1="316.9883" y2="316.9883"/><text fill="#000000" font-family="sans-serif" font-size="13" font-weight="bold" lengthAdjust="spacing" textLength="7" x="607" y="311.7256">7</text><text fill="#000000" font-family="sans-serif" font-size="13" lengthAdjust="spacing" textLength="139" x="618" y="311.7256">taskCategoryRepository</text><polygon fill="#181818" points="1190,344.2793,1200,348.2793,1190,352.2793,1194,348.2793" style="stroke:#181818;stroke-width:1.0;"/><line style="stroke:#181818;stroke-width:1.0;" x1="590" x2="1196" y1="348.2793" y2="348.2793"/><text fill="#000000" font-family="sans-serif" font-size="13" font-weight="bold" lengthAdjust="spacing" textLength="7" x="597" y="343.0166">8</text><text fill="#000000" font-family="sans-serif" font-size="13" lengthAdjust="spacing" textLength="116" x="608" y="343.0166">getTaskCategories()</text><polygon fill="#181818" points="601,375.5703,591,379.5703,601,383.5703,597,379.5703" style="stroke:#181818;stroke-width:1.0;"/><line style="stroke:#181818;stroke-width:1.0;stroke-dasharray:2.0,2.0;" x1="595" x2="1206" y1="379.5703" y2="379.5703"/><text fill="#000000" font-family="sans-serif" font-size="13" font-weight="bold" lengthAdjust="spacing" textLength="7" x="607" y="374.3076">9</text><text fill="#000000" font-family="sans-serif" font-size="13" lengthAdjust="spacing" textLength="98" x="618" y="374.3076">taskCategoryList</text><polygon fill="#181818" points="408,406.8613,398,410.8613,408,414.8613,404,410.8613" style="stroke:#181818;stroke-width:1.0;"/><line style="stroke:#181818;stroke-width:1.0;stroke-dasharray:2.0,2.0;" x1="402" x2="584" y1="410.8613" y2="410.8613"/><text fill="#000000" font-family="sans-serif" font-size="13" font-weight="bold" lengthAdjust="spacing" textLength="14" x="414" y="405.5986">10</text><text fill="#000000" font-family="sans-serif" font-size="13" lengthAdjust="spacing" textLength="98" x="432" y="405.5986">taskCategoryList</text><polygon fill="#181818" points="97,455.4434,87,459.4434,97,463.4434,93,459.4434" style="stroke:#181818;stroke-width:1.0;"/><line style="stroke:#181818;stroke-width:1.0;stroke-dasharray:2.0,2.0;" x1="91" x2="391" y1="459.4434" y2="459.4434"/><text fill="#000000" font-family="sans-serif" font-size="13" font-weight="bold" lengthAdjust="spacing" textLength="14" x="103" y="445.5352">11</text><text fill="#000000" font-family="sans-serif" font-size="13" lengthAdjust="spacing" textLength="141" x="121" y="436.8896">shows task category list</text><text fill="#000000" font-family="sans-serif" font-size="13" lengthAdjust="spacing" textLength="132" x="125" y="454.1807">and asks to sleect one</text><polygon fill="#181818" points="375,486.7344,385,490.7344,375,494.7344,379,490.7344" style="stroke:#181818;stroke-width:1.0;"/><line style="stroke:#181818;stroke-width:1.0;" x1="86" x2="381" y1="490.7344" y2="490.7344"/><text fill="#000000" font-family="sans-serif" font-size="13" font-weight="bold" lengthAdjust="spacing" textLength="14" x="93" y="485.4717">12</text><text fill="#000000" font-family="sans-serif" font-size="13" lengthAdjust="spacing" textLength="136" x="111" y="485.4717">selects a task category</text><polygon fill="#181818" points="97,518.0254,87,522.0254,97,526.0254,93,522.0254" style="stroke:#181818;stroke-width:1.0;"/><line style="stroke:#181818;stroke-width:1.0;stroke-dasharray:2.0,2.0;" x1="91" x2="391" y1="522.0254" y2="522.0254"/><text fill="#000000" font-family="sans-serif" font-size="13" font-weight="bold" lengthAdjust="spacing" textLength="14" x="103" y="516.7627">13</text><text fill="#000000" font-family="sans-serif" font-size="13" lengthAdjust="spacing" textLength="79" x="121" y="516.7627">requests data</text><polygon fill="#181818" points="375,583.8984,385,587.8984,375,591.8984,379,587.8984" style="stroke:#181818;stroke-width:1.0;"/><line style="stroke:#181818;stroke-width:1.0;" x1="86" x2="381" y1="587.8984" y2="587.8984"/><text fill="#000000" font-family="sans-serif" font-size="13" font-weight="bold" lengthAdjust="spacing" textLength="14" x="93" y="565.3447">14</text><text fill="#000000" font-family="sans-serif" font-size="13" lengthAdjust="spacing" textLength="258" x="111" y="548.0537">types requested data (reference, description,</text><text fill="#000000" font-family="sans-serif" font-size="13" lengthAdjust="spacing" textLength="243" x="111" y="565.3447">informal description, technical description,</text><text fill="#000000" font-family="sans-serif" font-size="13" lengthAdjust="spacing" textLength="83" x="111" y="582.6357">duration, cost)</text><polygon fill="#181818" points="97,615.1895,87,619.1895,97,623.1895,93,619.1895" style="stroke:#181818;stroke-width:1.0;"/><line style="stroke:#181818;stroke-width:1.0;stroke-dasharray:2.0,2.0;" x1="91" x2="391" y1="619.1895" y2="619.1895"/><text fill="#000000" font-family="sans-serif" font-size="13" font-weight="bold" lengthAdjust="spacing" textLength="14" x="103" y="613.9268">15</text><text fill="#000000" font-family="sans-serif" font-size="13" lengthAdjust="spacing" textLength="259" x="121" y="613.9268">shows selected category and requested data</text><polygon fill="#181818" points="375,646.4805,385,650.4805,375,654.4805,379,650.4805" style="stroke:#181818;stroke-width:1.0;"/><line style="stroke:#181818;stroke-width:1.0;" x1="86" x2="381" y1="650.4805" y2="650.4805"/><text fill="#000000" font-family="sans-serif" font-size="13" font-weight="bold" lengthAdjust="spacing" textLength="14" x="93" y="645.2178">16</text><text fill="#000000" font-family="sans-serif" font-size="13" lengthAdjust="spacing" textLength="75" x="111" y="645.2178">submits data</text><polygon fill="#181818" points="568,764.2266,578,768.2266,568,772.2266,572,768.2266" style="stroke:#181818;stroke-width:1.0;"/><line style="stroke:#181818;stroke-width:1.0;" x1="397" x2="574" y1="768.2266" y2="768.2266"/><text fill="#000000" font-family="sans-serif" font-size="13" font-weight="bold" lengthAdjust="spacing" textLength="14" x="404" y="719.7363">17</text><text fill="#000000" font-family="sans-serif" font-size="13" lengthAdjust="spacing" textLength="125" x="422" y="676.5088">createTask(reference,</text><text fill="#000000" font-family="sans-serif" font-size="13" lengthAdjust="spacing" textLength="67" x="422" y="693.7998">description,</text><text fill="#000000" font-family="sans-serif" font-size="13" lengthAdjust="spacing" textLength="114" x="422" y="711.0908">informalDescription,</text><text fill="#000000" font-family="sans-serif" font-size="13" lengthAdjust="spacing" textLength="121" x="422" y="728.3818">technicalDescription,</text><text fill="#000000" font-family="sans-serif" font-size="13" lengthAdjust="spacing" textLength="83" x="422" y="745.6729">duration, cost,</text><text fill="#000000" font-family="sans-serif" font-size="13" lengthAdjust="spacing" textLength="146" x="422" y="762.9639">taskCategoryDescription)</text><line style="stroke:#181818;stroke-width:1.0;" x1="590" x2="637" y1="794.5176" y2="794.5176"/><line style="stroke:#181818;stroke-width:1.0;" x1="637" x2="637" y1="794.5176" y2="807.5176"/><line style="stroke:#181818;stroke-width:1.0;" x1="596" x2="637" y1="807.5176" y2="807.5176"/><polygon fill="#181818" points="606,803.5176,596,807.5176,606,811.5176,602,807.5176" style="stroke:#181818;stroke-width:1.0;"/><text fill="#000000" font-family="sans-serif" font-size="13" font-weight="bold" lengthAdjust="spacing" textLength="14" x="602" y="789.2549">18</text><text fill="#000000" font-family="sans-serif" font-size="13" lengthAdjust="spacing" textLength="329" x="620" y="789.2549">getTaskCategoryByDescription(taskCategoryDescription)</text><polygon fill="#181818" points="939,839.8086,949,843.8086,939,847.8086,943,843.8086" style="stroke:#181818;stroke-width:1.0;"/><line style="stroke:#181818;stroke-width:1.0;" x1="595" x2="945" y1="843.8086" y2="843.8086"/><text fill="#000000" font-family="sans-serif" font-size="13" font-weight="bold" lengthAdjust="spacing" textLength="14" x="602" y="838.5459">19</text><text fill="#000000" font-family="sans-serif" font-size="13" lengthAdjust="spacing" textLength="75" x="620" y="838.5459">getInstance()</text><polygon fill="#181818" points="606,871.0996,596,875.0996,606,879.0996,602,875.0996" style="stroke:#181818;stroke-width:1.0;"/><line style="stroke:#181818;stroke-width:1.0;stroke-dasharray:2.0,2.0;" x1="600" x2="955" y1="875.0996" y2="875.0996"/><text fill="#000000" font-family="sans-serif" font-size="13" font-weight="bold" lengthAdjust="spacing" textLength="14" x="612" y="869.8369">20</text><text fill="#000000" font-family="sans-serif" font-size="13" lengthAdjust="spacing" textLength="67" x="630" y="869.8369">repositories</text><polygon fill="#181818" points="1046,902.3906,1056,906.3906,1046,910.3906,1050,906.3906" style="stroke:#181818;stroke-width:1.0;"/><line style="stroke:#181818;stroke-width:1.0;" x1="595" x2="1052" y1="906.3906" y2="906.3906"/><text fill="#000000" font-family="sans-serif" font-size="13" font-weight="bold" lengthAdjust="spacing" textLength="14" x="602" y="901.1279">21</text><text fill="#000000" font-family="sans-serif" font-size="13" lengthAdjust="spacing" textLength="168" x="620" y="901.1279">getTaskCategoryRepository()</text><polygon fill="#181818" points="606,933.6816,596,937.6816,606,941.6816,602,937.6816" style="stroke:#181818;stroke-width:1.0;"/><line style="stroke:#181818;stroke-width:1.0;" x1="600" x2="1062" y1="937.6816" y2="937.6816"/><text fill="#000000" font-family="sans-serif" font-size="13" font-weight="bold" lengthAdjust="spacing" textLength="14" x="612" y="932.4189">22</text><text fill="#000000" font-family="sans-serif" font-size="13" lengthAdjust="spacing" textLength="139" x="630" y="932.4189">taskCategoryRepository</text><polygon fill="#181818" points="1190,964.9727,1200,968.9727,1190,972.9727,1194,968.9727" style="stroke:#181818;stroke-width:1.0;"/><line style="stroke:#181818;stroke-width:1.0;" x1="595" x2="1196" y1="968.9727" y2="968.9727"/><text fill="#000000" font-family="sans-serif" font-size="13" font-weight="bold" lengthAdjust="spacing" textLength="14" x="602" y="963.71">23</text><text fill="#000000" font-family="sans-serif" font-size="13" lengthAdjust="spacing" textLength="329" x="620" y="963.71">getTaskCategoryByDescription(taskCategoryDescription)</text><polygon fill="#181818" points="606,996.2637,596,1000.2637,606,1004.2637,602,1000.2637" style="stroke:#181818;stroke-width:1.0;"/><line style="stroke:#181818;stroke-width:1.0;stroke-dasharray:2.0,2.0;" x1="600" x2="1206" y1="1000.2637" y2="1000.2637"/><text fill="#000000" font-family="sans-serif" font-size="13" font-weight="bold" lengthAdjust="spacing" textLength="14" x="612" y="995.001">24</text><text fill="#000000" font-family="sans-serif" font-size="13" lengthAdjust="spacing" textLength="77" x="630" y="995.001">taskCategory</text><line style="stroke:#181818;stroke-width:1.0;stroke-dasharray:2.0,2.0;" x1="595" x2="637" y1="1036.5547" y2="1036.5547"/><line style="stroke:#181818;stroke-width:1.0;stroke-dasharray:2.0,2.0;" x1="637" x2="637" y1="1036.5547" y2="1049.5547"/><line style="stroke:#181818;stroke-width:1.0;stroke-dasharray:2.0,2.0;" x1="590" x2="637" y1="1049.5547" y2="1049.5547"/><polygon fill="#181818" points="600,1045.5547,590,1049.5547,600,1053.5547,596,1049.5547" style="stroke:#181818;stroke-width:1.0;"/><text fill="#000000" font-family="sans-serif" font-size="13" font-weight="bold" lengthAdjust="spacing" textLength="14" x="602" y="1031.292">25</text><text fill="#000000" font-family="sans-serif" font-size="13" lengthAdjust="spacing" textLength="77" x="620" y="1031.292">taskCategory</text><line style="stroke:#181818;stroke-width:1.0;" x1="590" x2="637" y1="1095.8457" y2="1095.8457"/><line style="stroke:#181818;stroke-width:1.0;" x1="637" x2="637" y1="1095.8457" y2="1108.8457"/><line style="stroke:#181818;stroke-width:1.0;" x1="596" x2="637" y1="1108.8457" y2="1108.8457"/><polygon fill="#181818" points="606,1104.8457,596,1108.8457,606,1112.8457,602,1108.8457" style="stroke:#181818;stroke-width:1.0;"/><text fill="#000000" font-family="sans-serif" font-size="13" font-weight="bold" lengthAdjust="spacing" textLength="14" x="602" y="1090.583">26</text><text fill="#000000" font-family="sans-serif" font-size="13" lengthAdjust="spacing" textLength="161" x="620" y="1090.583">getEmployeeFromSession()</text><polygon fill="#181818" points="1354,1141.1367,1364,1145.1367,1354,1149.1367,1358,1145.1367" style="stroke:#181818;stroke-width:1.0;"/><line style="stroke:#181818;stroke-width:1.0;" x1="595" x2="1360" y1="1145.1367" y2="1145.1367"/><text fill="#000000" font-family="sans-serif" font-size="13" font-weight="bold" lengthAdjust="spacing" textLength="14" x="602" y="1139.874">27</text><text fill="#000000" font-family="sans-serif" font-size="13" lengthAdjust="spacing" textLength="75" x="620" y="1139.874">getInstance()</text><polygon fill="#181818" points="606,1172.4277,596,1176.4277,606,1180.4277,602,1176.4277" style="stroke:#181818;stroke-width:1.0;"/><line style="stroke:#181818;stroke-width:1.0;" x1="600" x2="1370" y1="1176.4277" y2="1176.4277"/><text fill="#000000" font-family="sans-serif" font-size="13" font-weight="bold" lengthAdjust="spacing" textLength="14" x="612" y="1171.165">28</text><text fill="#000000" font-family="sans-serif" font-size="13" lengthAdjust="spacing" textLength="68" x="630" y="1171.165">appSession</text><polygon fill="#181818" points="1501,1203.7188,1511,1207.7188,1501,1211.7188,1505,1207.7188" style="stroke:#181818;stroke-width:1.0;"/><line style="stroke:#181818;stroke-width:1.0;" x1="595" x2="1507" y1="1207.7188" y2="1207.7188"/><text fill="#000000" font-family="sans-serif" font-size="13" font-weight="bold" lengthAdjust="spacing" textLength="14" x="602" y="1202.4561">29</text><text fill="#000000" font-family="sans-serif" font-size="13" lengthAdjust="spacing" textLength="115" x="620" y="1202.4561">getCurrentSession()</text><polygon fill="#181818" points="606,1235.0098,596,1239.0098,606,1243.0098,602,1239.0098" style="stroke:#181818;stroke-width:1.0;"/><line style="stroke:#181818;stroke-width:1.0;stroke-dasharray:2.0,2.0;" x1="600" x2="1517" y1="1239.0098" y2="1239.0098"/><text fill="#000000" font-family="sans-serif" font-size="13" font-weight="bold" lengthAdjust="spacing" textLength="14" x="612" y="1233.7471">30</text><text fill="#000000" font-family="sans-serif" font-size="13" lengthAdjust="spacing" textLength="87" x="630" y="1233.7471">currentSession</text><polygon fill="#181818" points="1634,1266.3008,1644,1270.3008,1634,1274.3008,1638,1270.3008" style="stroke:#181818;stroke-width:1.0;"/><line style="stroke:#181818;stroke-width:1.0;" x1="595" x2="1640" y1="1270.3008" y2="1270.3008"/><text fill="#000000" font-family="sans-serif" font-size="13" font-weight="bold" lengthAdjust="spacing" textLength="14" x="602" y="1265.0381">31</text><text fill="#000000" font-family="sans-serif" font-size="13" lengthAdjust="spacing" textLength="133" x="620" y="1265.0381">email = getUserEmail()</text><polygon fill="#181818" points="606,1297.5918,596,1301.5918,606,1305.5918,602,1301.5918" style="stroke:#181818;stroke-width:1.0;"/><line style="stroke:#181818;stroke-width:1.0;stroke-dasharray:2.0,2.0;" x1="600" x2="1650" y1="1301.5918" y2="1301.5918"/><text fill="#000000" font-family="sans-serif" font-size="13" font-weight="bold" lengthAdjust="spacing" textLength="14" x="612" y="1296.3291">32</text><text fill="#000000" font-family="sans-serif" font-size="13" lengthAdjust="spacing" textLength="31" x="630" y="1296.3291">email</text><polygon fill="#181818" points="1046,1328.8828,1056,1332.8828,1046,1336.8828,1050,1332.8828" style="stroke:#181818;stroke-width:1.0;"/><line style="stroke:#181818;stroke-width:1.0;" x1="595" x2="1052" y1="1332.8828" y2="1332.8828"/><text fill="#000000" font-family="sans-serif" font-size="13" font-weight="bold" lengthAdjust="spacing" textLength="14" x="602" y="1327.6201">33</text><text fill="#000000" font-family="sans-serif" font-size="13" lengthAdjust="spacing" textLength="192" x="620" y="1327.6201">getOrganizationRepository(email)</text><polygon fill="#181818" points="606,1360.1738,596,1364.1738,606,1368.1738,602,1364.1738" style="stroke:#181818;stroke-width:1.0;"/><line style="stroke:#181818;stroke-width:1.0;stroke-dasharray:2.0,2.0;" x1="600" x2="1062" y1="1364.1738" y2="1364.1738"/><text fill="#000000" font-family="sans-serif" font-size="13" font-weight="bold" lengthAdjust="spacing" textLength="14" x="612" y="1358.9111">34</text><text fill="#000000" font-family="sans-serif" font-size="13" lengthAdjust="spacing" textLength="132" x="630" y="1358.9111">organizationRepository</text><polygon fill="#181818" points="1780,1391.4648,1790,1395.4648,1780,1399.4648,1784,1395.4648" style="stroke:#181818;stroke-width:1.0;"/><line style="stroke:#181818;stroke-width:1.0;" x1="595" x2="1786" y1="1395.4648" y2="1395.4648"/><text fill="#000000" font-family="sans-serif" font-size="13" font-weight="bold" lengthAdjust="spacing" textLength="14" x="602" y="1390.2021">35</text><text fill="#000000" font-family="sans-serif" font-size="13" lengthAdjust="spacing" textLength="237" x="620" y="1390.2021">getOrganizationByEmployeeEmail(email)</text><path d="M1705.5,1410.4648 L1778.5,1410.4648 L1778.5,1419.7559 L1768.5,1429.7559 L1705.5,1429.7559 L1705.5,1410.4648 " fill="#EEEEEE" style="stroke:#000000;stroke-width:1.5;"/><rect fill="none" height="81.873" style="stroke:#000000;stroke-width:1.5;" width="371.5" x="1705.5" y="1410.4648"/><text fill="#000000" font-family="sans-serif" font-size="13" font-weight="bold" lengthAdjust="spacing" textLength="28" x="1720.5" y="1425.4932">loop</text><text fill="#000000" font-family="sans-serif" font-size="11" font-weight="bold" lengthAdjust="spacing" textLength="128" x="1793.5" y="1424.335">[[for each organization]</text><polygon fill="#181818" points="2001,1449.0469,2011,1453.0469,2001,1457.0469,2005,1453.0469" style="stroke:#181818;stroke-width:1.0;"/><line style="stroke:#181818;stroke-width:1.0;" x1="1802" x2="2007" y1="1453.0469" y2="1453.0469"/><text fill="#000000" font-family="sans-serif" font-size="13" font-weight="bold" lengthAdjust="spacing" textLength="14" x="1809" y="1447.7842">36</text><text fill="#000000" font-family="sans-serif" font-size="13" lengthAdjust="spacing" textLength="174" x="1827" y="1447.7842">anyEmployeeHasEmail(email)</text><polygon fill="#181818" points="1813,1480.3379,1803,1484.3379,1813,1488.3379,1809,1484.3379" style="stroke:#181818;stroke-width:1.0;"/><line style="stroke:#181818;stroke-width:1.0;stroke-dasharray:2.0,2.0;" x1="1807" x2="2017" y1="1484.3379" y2="1484.3379"/><text fill="#000000" font-family="sans-serif" font-size="13" font-weight="bold" lengthAdjust="spacing" textLength="14" x="1819" y="1479.0752">37</text><text fill="#000000" font-family="sans-serif" font-size="13" lengthAdjust="spacing" textLength="53" x="1837" y="1479.0752">true/false</text><polygon fill="#181818" points="606,1518.6289,596,1522.6289,606,1526.6289,602,1522.6289" style="stroke:#181818;stroke-width:1.0;"/><line style="stroke:#181818;stroke-width:1.0;stroke-dasharray:2.0,2.0;" x1="600" x2="1796" y1="1522.6289" y2="1522.6289"/><text fill="#000000" font-family="sans-serif" font-size="13" font-weight="bold" lengthAdjust="spacing" textLength="14" x="612" y="1517.3662">38</text><text fill="#000000" font-family="sans-serif" font-size="13" lengthAdjust="spacing" textLength="70" x="630" y="1517.3662">organization</text><polygon fill="#181818" points="2001,1549.9199,2011,1553.9199,2001,1557.9199,2005,1553.9199" style="stroke:#181818;stroke-width:1.0;"/><line style="stroke:#181818;stroke-width:1.0;" x1="595" x2="2007" y1="1553.9199" y2="1553.9199"/><text fill="#000000" font-family="sans-serif" font-size="13" font-weight="bold" lengthAdjust="spacing" textLength="14" x="602" y="1548.6572">39</text><text fill="#000000" font-family="sans-serif" font-size="13" lengthAdjust="spacing" textLength="164" x="620" y="1548.6572">getEmployeeByEmail(email)</text><polygon fill="#181818" points="606,1581.2109,596,1585.2109,606,1589.2109,602,1585.2109" style="stroke:#181818;stroke-width:1.0;"/><line style="stroke:#181818;stroke-width:1.0;stroke-dasharray:2.0,2.0;" x1="600" x2="2017" y1="1585.2109" y2="1585.2109"/><text fill="#000000" font-family="sans-serif" font-size="13" font-weight="bold" lengthAdjust="spacing" textLength="14" x="612" y="1579.9482">40</text><text fill="#000000" font-family="sans-serif" font-size="13" lengthAdjust="spacing" textLength="56" x="630" y="1579.9482">employee</text><line style="stroke:#181818;stroke-width:1.0;stroke-dasharray:2.0,2.0;" x1="595" x2="637" y1="1621.502" y2="1621.502"/><line style="stroke:#181818;stroke-width:1.0;stroke-dasharray:2.0,2.0;" x1="637" x2="637" y1="1621.502" y2="1634.502"/><line style="stroke:#181818;stroke-width:1.0;stroke-dasharray:2.0,2.0;" x1="590" x2="637" y1="1634.502" y2="1634.502"/><polygon fill="#181818" points="600,1630.502,590,1634.502,600,1638.502,596,1634.502" style="stroke:#181818;stroke-width:1.0;"/><text fill="#000000" font-family="sans-serif" font-size="13" font-weight="bold" lengthAdjust="spacing" textLength="14" x="602" y="1616.2393">41</text><text fill="#000000" font-family="sans-serif" font-size="13" lengthAdjust="spacing" textLength="56" x="620" y="1616.2393">employee</text><polygon fill="#181818" points="2001,1716.375,2011,1720.375,2001,1724.375,2005,1720.375" style="stroke:#181818;stroke-width:1.0;"/><line style="stroke:#181818;stroke-width:1.0;" x1="590" x2="2007" y1="1720.375" y2="1720.375"/><text fill="#000000" font-family="sans-serif" font-size="13" font-weight="bold" lengthAdjust="spacing" textLength="14" x="597" y="1697.8213">42</text><text fill="#000000" font-family="sans-serif" font-size="13" lengthAdjust="spacing" textLength="260" x="615" y="1680.5303">createTask(employee, reference, description,</text><text fill="#000000" font-family="sans-serif" font-size="13" lengthAdjust="spacing" textLength="239" x="615" y="1697.8213">informalDescription, technicalDescription,</text><text fill="#000000" font-family="sans-serif" font-size="13" lengthAdjust="spacing" textLength="240" x="615" y="1715.1123">duration, cost, , taskCategory, employee)</text><polygon fill="#181818" points="2292,1782.248,2302,1786.248,2292,1790.248,2296,1786.248" style="stroke:#181818;stroke-width:1.0;"/><line style="stroke:#181818;stroke-width:1.0;" x1="2023" x2="2298" y1="1786.248" y2="1786.248"/><text fill="#000000" font-family="sans-serif" font-size="13" font-weight="bold" lengthAdjust="spacing" textLength="14" x="2030" y="1763.6943">43</text><text fill="#000000" font-family="sans-serif" font-size="13" lengthAdjust="spacing" textLength="232" x="2048" y="1746.4033">create(employee, reference, description,</text><text fill="#000000" font-family="sans-serif" font-size="13" lengthAdjust="spacing" textLength="239" x="2048" y="1763.6943">informalDescription, technicalDescription,</text><text fill="#000000" font-family="sans-serif" font-size="13" lengthAdjust="spacing" textLength="232" x="2048" y="1780.9854">duration, cost, taskCategory, employee)</text><rect fill="#E3E3E3" height="51.2422" rx="2.5" ry="2.5" style="stroke:#181818;stroke-width:0.5;" width="49" x="2304" y="1732.0059"/><text fill="#000000" font-family="sans-serif" font-size="14" lengthAdjust="spacing" textLength="26" x="2315.5" y="1754.1133">task</text><text fill="#000000" font-family="sans-serif" font-size="14" lengthAdjust="spacing" textLength="35" x="2311" y="1772.7344">:Task</text><line style="stroke:#181818;stroke-width:1.0;" x1="2023" x2="2070" y1="1812.5391" y2="1812.5391"/><line style="stroke:#181818;stroke-width:1.0;" x1="2070" x2="2070" y1="1812.5391" y2="1825.5391"/><line style="stroke:#181818;stroke-width:1.0;" x1="2029" x2="2070" y1="1825.5391" y2="1825.5391"/><polygon fill="#181818" points="2039,1821.5391,2029,1825.5391,2039,1829.5391,2035,1825.5391" style="stroke:#181818;stroke-width:1.0;"/><text fill="#000000" font-family="sans-serif" font-size="13" font-weight="bold" lengthAdjust="spacing" textLength="14" x="2035" y="1807.2764">44</text><text fill="#000000" font-family="sans-serif" font-size="13" lengthAdjust="spacing" textLength="86" x="2053" y="1807.2764">addTask (task)</text><line style="stroke:#181818;stroke-width:1.0;" x1="2028" x2="2075" y1="1856.8301" y2="1856.8301"/><line style="stroke:#181818;stroke-width:1.0;" x1="2075" x2="2075" y1="1856.8301" y2="1869.8301"/><line style="stroke:#181818;stroke-width:1.0;" x1="2034" x2="2075" y1="1869.8301" y2="1869.8301"/><polygon fill="#181818" points="2044,1865.8301,2034,1869.8301,2044,1873.8301,2040,1869.8301" style="stroke:#181818;stroke-width:1.0;"/><text fill="#000000" font-family="sans-serif" font-size="13" font-weight="bold" lengthAdjust="spacing" textLength="14" x="2040" y="1851.5674">45</text><text fill="#000000" font-family="sans-serif" font-size="13" lengthAdjust="spacing" textLength="104" x="2058" y="1851.5674">validateTask(task)</text><line style="stroke:#181818;stroke-width:1.0;stroke-dasharray:2.0,2.0;" x1="2033" x2="2075" y1="1911.1211" y2="1911.1211"/><line style="stroke:#181818;stroke-width:1.0;stroke-dasharray:2.0,2.0;" x1="2075" x2="2075" y1="1911.1211" y2="1924.1211"/><line style="stroke:#181818;stroke-width:1.0;stroke-dasharray:2.0,2.0;" x1="2028" x2="2075" y1="1924.1211" y2="1924.1211"/><polygon fill="#181818" points="2038,1920.1211,2028,1924.1211,2038,1928.1211,2034,1924.1211" style="stroke:#181818;stroke-width:1.0;"/><text fill="#000000" font-family="sans-serif" font-size="13" font-weight="bold" lengthAdjust="spacing" textLength="14" x="2040" y="1905.8584">46</text><text fill="#000000" font-family="sans-serif" font-size="13" lengthAdjust="spacing" textLength="4" x="2058" y="1905.8584">&#160;</text><line style="stroke:#181818;stroke-width:1.0;stroke-dasharray:2.0,2.0;" x1="2028" x2="2070" y1="1955.4121" y2="1955.4121"/><line style="stroke:#181818;stroke-width:1.0;stroke-dasharray:2.0,2.0;" x1="2070" x2="2070" y1="1955.4121" y2="1968.4121"/><line style="stroke:#181818;stroke-width:1.0;stroke-dasharray:2.0,2.0;" x1="2023" x2="2070" y1="1968.4121" y2="1968.4121"/><polygon fill="#181818" points="2033,1964.4121,2023,1968.4121,2033,1972.4121,2029,1968.4121" style="stroke:#181818;stroke-width:1.0;"/><text fill="#000000" font-family="sans-serif" font-size="13" font-weight="bold" lengthAdjust="spacing" textLength="14" x="2035" y="1950.1494">47</text><text fill="#000000" font-family="sans-serif" font-size="13" lengthAdjust="spacing" textLength="4" x="2053" y="1950.1494">&#160;</text><polygon fill="#181818" points="601,1990.7031,591,1994.7031,601,1998.7031,597,1994.7031" style="stroke:#181818;stroke-width:1.0;"/><line style="stroke:#181818;stroke-width:1.0;stroke-dasharray:2.0,2.0;" x1="595" x2="2017" y1="1994.7031" y2="1994.7031"/><text fill="#000000" font-family="sans-serif" font-size="13" font-weight="bold" lengthAdjust="spacing" textLength="14" x="607" y="1989.4404">48</text><text fill="#000000" font-family="sans-serif" font-size="13" lengthAdjust="spacing" textLength="25" x="625" y="1989.4404">task</text><polygon fill="#181818" points="408,2021.9941,398,2025.9941,408,2029.9941,404,2025.9941" style="stroke:#181818;stroke-width:1.0;"/><line style="stroke:#181818;stroke-width:1.0;stroke-dasharray:2.0,2.0;" x1="402" x2="584" y1="2025.9941" y2="2025.9941"/><text fill="#000000" font-family="sans-serif" font-size="13" font-weight="bold" lengthAdjust="spacing" textLength="14" x="414" y="2020.7314">49</text><text fill="#000000" font-family="sans-serif" font-size="13" lengthAdjust="spacing" textLength="25" x="432" y="2020.7314">task</text><polygon fill="#181818" points="92,2053.2852,82,2057.2852,92,2061.2852,88,2057.2852" style="stroke:#181818;stroke-width:1.0;"/><line style="stroke:#181818;stroke-width:1.0;stroke-dasharray:2.0,2.0;" x1="86" x2="391" y1="2057.2852" y2="2057.2852"/><text fill="#000000" font-family="sans-serif" font-size="13" font-weight="bold" lengthAdjust="spacing" textLength="14" x="98" y="2052.0225">50</text><text fill="#000000" font-family="sans-serif" font-size="13" lengthAdjust="spacing" textLength="158" x="116" y="2052.0225">displays operation success</text><!--SRC=[xLXBR-Cu3BxhLn2zz84KUmym1J9jfrkWWnP9Uze00zLc4w6EvB6KwMRH7x-K_8WKouyfTkQqlhIno8yVAP8IhL-5p7d1Dx1HKYNhGcqGJB55ffkLd2UlV8KBiyiG2amCbwlC5z1hdget8LVmmZEDZF6jKNAxUSQ2iUErI15Ub3BFwc_64wCAEBelLboAVxWHIiBr9i_K3l48k8RPrLT6g4Oa8kVImD7qia1ky97hrwTR9_9qsobngQGfL9PXuIGl7-Tt1x9pp9KMH4AWTZBDYzr2MB-8UQXIU1fBsGPuk9izXXh6CY56AmBTmq-NyZ6wu53YImVaPtcUYSH5RO5Qqn-d-stsy11AyZol18XnXrPBATaM1KgpLtpIMFWQY-l5OdOVAYbl9mDVxwCB3YU-r8rBL7oL4cD-qmuw2TeubW6TpQ-_p9ZDEF630kioYq7rq0yulw1KWYa9lsem2XANHi11uXjOkBru0qAvnux1UmZXd80itfIAu_iMjT6GSiFXfC0Nf8WcE84KTLA8tDAV00ZveeeDps0fmnM3oLhINcNXwtHRyFA_H6bpodm2nnLjb-k7p2xSwxCpubQAiGuH4bYXyPAGiliaDDJ4m5aAbkpZK0WjKayb-AtKr3aIF80De6F5s9AsJypAUUMBtOTzZRRKK_mvSxLZjivROV9gjSylroEYZZZKFVDuw-Zp8GvTauvJ7R7R0VsEvXHrgCFY-JxHV1_lX3PztesrNFfRLtIl1G-zdSb1EUkrUjCE398A3JA2ewhbCctwXiwG3aLG4bd4XkqOXnr7OqOQcbfD0CvQhMQuox0HvimkHrshOJhGdPQoQKyZUjDInfhJi1DbRCj04AKclZQm8TCn7khjyqRu4Uaaq6HXqbmQl4YGDu5lTIIkWhTD9Avw0c7bl3JqH4_PY9PQ5t2qEUy- -tWdWtR-Rz-_jdr7MzjlRDyVoOVVrE0_qDnZHfl-FcIYjxk_lxyF55azYtoXGQYw-dxi6cJlvAFhnbtWOsxR1MZgOd-hxukg0-icLlEw36xxVUmSNeoT8zUm2yU7FePHm9fVEMHC0JTSPF39KhLpoBNzsSUo6awYHCirZwi3xwDOe_Ms4nV7-31puYpy5pV2-80rt58wcSS9jtpvlAjheGpza4CTGrtKnKof7FwYenM8zJfmCIfldpY-SsX-OwSusH3-a-jUpctkD4nsIfNMoSPvP_1iGogs-4Vv-QCBmziYQp0cWZ9bF-FyldVrnj2tF7ARccoPtmIDqQR5g7Je2caToOetLhXi85fiw4I80dteD70kUzV36da27LVc-3qHnbqJOH8SPfF6aOvZ9neC5zIBwfl7sLbD_rTJ7qFSe-S2ozFKHXNSBUKqqgS6YyH7-y4paTORLI8ELlfWZNV836Na4CQG_a5bX5-WXW2y0RXIxQk3-CWxXLJeFECx3Ih7Sgjfj4eIEj9ZKvX_f5zzPVy2]--></g></svg>